<?xml version="1.0" encoding="UTF-8" standalone="no"?>
<svg
   id="Layer_1"
   data-name="Layer 1"
   viewBox="0 0 201.32959 196.31981"
   version="1.1"
   sodipodi:docname="BKN.svg"
   width="201.32959"
   height="196.31981"
   inkscape:version="1.1.1 (3bf5ae0d25, 2021-09-20)"
   xmlns:inkscape="http://www.inkscape.org/namespaces/inkscape"
   xmlns:sodipodi="http://sodipodi.sourceforge.net/DTD/sodipodi-0.dtd"
   xmlns="http://www.w3.org/2000/svg"
   xmlns:svg="http://www.w3.org/2000/svg"
   xmlns:rdf="http://www.w3.org/1999/02/22-rdf-syntax-ns#"
   xmlns:cc="http://creativecommons.org/ns#"
   xmlns:dc="http://purl.org/dc/elements/1.1/">
  <metadata
     id="metadata1475">
    <rdf:RDF>
      <cc:Work
         rdf:about="">
        <dc:format>image/svg+xml</dc:format>
        <dc:type
           rdf:resource="http://purl.org/dc/dcmitype/StillImage" />
      </cc:Work>
    </rdf:RDF>
  </metadata>
  <sodipodi:namedview
     pagecolor="#a2a2a2"
     bordercolor="#666666"
     borderopacity="1"
     objecttolerance="10"
     gridtolerance="10"
     guidetolerance="10"
     inkscape:pageopacity="0"
     inkscape:pageshadow="2"
     inkscape:window-width="1920"
     inkscape:window-height="1017"
     id="namedview1473"
     showgrid="false"
     inkscape:zoom="1.5733333"
     inkscape:cx="116.63136"
     inkscape:cy="136.33475"
     inkscape:window-x="-8"
     inkscape:window-y="-8"
     inkscape:window-maximized="1"
     inkscape:current-layer="Layer_1"
     inkscape:pagecheckerboard="true"
     fit-margin-top="0"
     fit-margin-left="0"
     fit-margin-right="0"
     fit-margin-bottom="0" />
  <defs
     id="defs10">
    <inkscape:path-effect
       effect="spiro"
       id="path-effect36210"
       is_visible="true"
       lpeversion="1" />
    <inkscape:path-effect
       effect="spiro"
       id="path-effect36204"
       is_visible="true"
       lpeversion="1" />
    <inkscape:path-effect
       effect="spiro"
       id="path-effect36198"
       is_visible="true"
       lpeversion="1" />
    <inkscape:path-effect
       effect="spiro"
       id="path-effect36192"
       is_visible="true"
       lpeversion="1" />
    <inkscape:path-effect
       effect="spiro"
       id="path-effect36186"
       is_visible="true"
       lpeversion="1" />
    <inkscape:path-effect
       effect="spiro"
       id="path-effect36180"
       is_visible="true"
       lpeversion="1" />
    <inkscape:path-effect
       effect="spiro"
       id="path-effect36174"
       is_visible="true"
       lpeversion="1" />
    <inkscape:path-effect
       effect="spiro"
       id="path-effect36168"
       is_visible="true"
       lpeversion="1" />
    <inkscape:path-effect
       effect="spiro"
       id="path-effect36162"
       is_visible="true"
       lpeversion="1" />
    <inkscape:path-effect
       effect="spiro"
       id="path-effect18299"
       is_visible="true"
       lpeversion="1" />
    <inkscape:path-effect
       effect="spiro"
       id="path-effect1176"
       is_visible="true"
       lpeversion="1" />
    <style
       id="style2">.cls-1,.cls-10,.cls-16,.cls-23,.cls-26,.cls-27,.cls-29,.cls-5,.cls-8{fill:none;}.cls-2{opacity:0.2;}.cls-3{fill:#a6a6a6;}.cls-4{fill:#fff;}.cls-26,.cls-5{stroke:#f7e0b7;}.cls-10,.cls-15,.cls-16,.cls-19,.cls-22,.cls-23,.cls-24,.cls-27,.cls-28,.cls-29,.cls-5,.cls-7,.cls-8{stroke-miterlimit:10;}.cls-5{stroke-width:21.02px;}.cls-6{clip-path:url(#clip-path);}.cls-22,.cls-7{fill:#0b6776;}.cls-10,.cls-15,.cls-16,.cls-18,.cls-22,.cls-23,.cls-24,.cls-27,.cls-28,.cls-29,.cls-7,.cls-8{stroke:#034757;}.cls-7{stroke-width:6.73px;}.cls-8{stroke-width:7.15px;}.cls-15,.cls-28,.cls-9{fill:#fff6e7;}.cls-10{stroke-width:12.5px;}.cls-11{fill:#b78254;}.cls-12{fill:#9b6a43;}.cls-13,.cls-18,.cls-24{fill:#034757;}.cls-14{fill:#e5b38b;}.cls-15{stroke-width:12.61px;}.cls-16{stroke-width:6.31px;}.cls-17{fill:#eee4d3;}.cls-18,.cls-26{stroke-linecap:round;stroke-linejoin:round;}.cls-18{stroke-width:10.51px;}.cls-19{fill:#67c7e9;stroke:#67c7e9;stroke-width:1.68px;}.cls-20{fill:#f7e0b7;}.cls-21{clip-path:url(#clip-path-2);}.cls-22{stroke-width:4.52px;}.cls-23{stroke-width:10.49px;}.cls-24{stroke-width:10.59px;}.cls-25{fill:#845532;}.cls-26{stroke-width:4.04px;}.cls-27{stroke-width:17px;}.cls-28{stroke-width:17.16px;}.cls-29{stroke-width:8.58px;}</style>
    <clipPath
       id="clip-path">
      <path
         class="cls-1"
         d="m 499.29,535.21 a 173.07,173.07 0 0 0 66.16,-13 170.87,170.87 0 0 0 54.34,-35.68 167.16,167.16 0 0 0 37,-53.46 165.73,165.73 0 0 0 0,-132 167.32,167.32 0 0 0 -37,-53.46 170.56,170.56 0 0 0 -54.34,-35.67 174.23,174.23 0 0 0 -132.32,0 170.71,170.71 0 0 0 -54.35,35.67 167.48,167.48 0 0 0 -37,53.46 165.73,165.73 0 0 0 0,132 167.48,167.48 0 0 0 37,53.46 170.74,170.74 0 0 0 54.35,35.68 173,173 0 0 0 66.16,13 z"
         id="path4"
         inkscape:connector-curvature="0"
         style="fill:none" />
    </clipPath>
    <clipPath
       id="clip-path-2">
      <polygon
         class="cls-1"
         points="184.26,1006.07 184.26,834.76 162.9,834.76 162.9,790.74 281.94,790.74 281.94,1050.09 162.9,1050.09 162.9,1006.07 "
         id="polygon7"
         style="fill:none" />
    </clipPath>
  </defs>
  <path
     class="cls-9"
     d="m 193.3798,59.889657 a 97.66,97.66 0 0 0 -21.58,-31.19 100.66,100.66 0 0 0 -32,-20.9999976 103.28,103.28 0 0 0 -78.260001,0 100.55,100.55 0 0 0 -32,20.9999976 97.69,97.69 0 0 0 -21.590001,31.19 96.09,96.09 0 0 0 0,76.540003 97.76,97.76 0 0 0 21.590001,31.18 100.38,100.38 0 0 0 32,21 103.15,103.15 0 0 0 78.260001,0 100.5,100.5 0 0 0 32,-21 97.73,97.73 0 0 0 21.58,-31.18 96.09,96.09 0 0 0 0,-76.540003 z"
     id="path698"
     inkscape:connector-curvature="0"
     style="fill:#fff6e7" />
  <path
     class="cls-10"
     d="m 97.759799,182.73966 a 84.63,84.63 0 1 1 33.000001,-6.68 84.22,84.22 0 0 1 -33.000001,6.68 z"
     id="path700"
     inkscape:connector-curvature="0"
     style="fill:none;stroke:#034757;stroke-width:12.5px;stroke-miterlimit:10" />
  <path
     class="cls-11"
     d="m 103.1598,183.68966 a 85.35,85.35 0 1 1 33.31,-6.74 85,85 0 0 1 -33.31,6.74 z m 0,-113.600003 a 28.07,28.07 0 1 0 28.07,28.06 28.1,28.1 0 0 0 -28.07,-28.06 z"
     id="path702"
     inkscape:connector-curvature="0"
     style="fill:#b78254" />
  <path
     style="fill:none;stroke:#0b6776;stroke-width:3;stroke-linecap:round;stroke-linejoin:miter;stroke-miterlimit:4;stroke-dasharray:none;stroke-opacity:1"
     d="M 92.535669,86.067877 H 113.99607"
     id="path36158"
     inkscape:path-effect="#path-effect36162"
     inkscape:original-d="m 92.535669,86.067877 c 7.15447,0.001 14.307931,0.001 21.460401,0" />
  <path
     class="cls-12"
     d="m 181.9598,64.859657 a 85.47,85.47 0 0 0 -68,-51.559998 l -1,5.87 c 7,-2 14.51,1.999998 19.65,7.179998 5.14,5.18 8.89,11.71 14.27,16.7 2.62,2.42 5.63,4.5 7.64,7.46 a 26.24,26.24 0 0 1 3.17,7.67 161.41,161.41 0 0 1 6.18,41.78 6,6 0 0 1 -0.46,2.930003 9.64,9.64 0 0 1 -1.86,2.08 c -5.54,5.66 -1.24,15.77 -5,22.73 -2.32,4.25 -7.53,7.09 -7.87,11.92 -0.16,2.3 0.88,4.68 0.11,6.85 -1.25,3.54 -6,3.92 -9.19,6 -2.42,1.58 -3.91,4.25 -6,6.21 -3.61,3.32 -8.71,4.32 -13.17,6.36 -4.46,2.04 -8.8,6.31 -7.88,11.12 -5.57,0.22 -11.55,2.86 -14.360001,7.39 1.67,0.1 3.350001,0.16 5.000001,0.16 a 85.57,85.57 0 0 0 78.79,-118.830003 z"
     id="path704"
     inkscape:connector-curvature="0"
     style="fill:#9b6a43" />
  <path
     class="cls-13"
     d="m 103.1598,189.98966 a 91.63,91.63 0 1 1 35.76,-7.23 91.22,91.22 0 0 1 -35.76,7.23 z m 0,-171.060001 a 79,79 0 1 0 30.85,6.219998 78.7,78.7 0 0 0 -30.85,-6.219998 z"
     id="path706"
     inkscape:connector-curvature="0"
     style="fill:#034757" />
  <path
     class="cls-14"
     d="m 103.1698,126.21966 a 28.07,28.07 0 1 1 6.21,-55.430003 l -1.35,-6.54 a 7.88,7.88 0 0 0 -7.27,-8.77 c -3.130001,-0.07 -6.100001,1.8 -9.220001,1.51 a 28.48,28.48 0 0 1 -4.81,-1.35 c -6.33,-1.74 -13.21,1.64 -17.38,6.71 -4.17,5.07 -6.16,11.56 -7.83,17.91 -1.67,6.35 -3.14,12.89 -6.58,18.51 a 8.56,8.56 0 0 1 -2.33,2.740003 18.23,18.23 0 0 0 -2.31,1.44 5.85,5.85 0 0 0 -1.49,2.81 24.83,24.83 0 0 0 9.76,26.77 c 2.34,1.56 5.27,3.17 5.55,6 a 4.86,4.86 0 0 0 0.28,1.87 3,3 0 0 0 1.91,1.21 42.89,42.89 0 0 0 18.57,1.37 c 4.89,0.94 8.7,5.4 13.66,5.74 3.950001,0.28 7.580001,-2.15 10.410001,-4.91 a 38.5,38.5 0 0 0 11.08,-21.33 l -0.34,-1.63 a 27.92,27.92 0 0 1 -16.52,5.37 z"
     id="path708"
     inkscape:connector-curvature="0"
     style="fill:#e5b38b" />
  <g
     id="g36219"
     transform="translate(-81.057541,-80.469363)">
    <path
       style="fill:none;stroke:#0b6776;stroke-width:3;stroke-linecap:round;stroke-linejoin:miter;stroke-miterlimit:4;stroke-dasharray:none;stroke-opacity:1"
       d="m 184.21734,150.55902 0.51999,50.78"
       id="path1174"
       inkscape:path-effect="#path-effect1176"
       inkscape:original-d="m 184.21734,150.55902 c 0.17433,16.92767 0.34766,33.85433 0.51999,50.78" />
    <path
       style="fill:none;stroke:#0b6776;stroke-width:3;stroke-linecap:round;stroke-linejoin:miter;stroke-miterlimit:4;stroke-dasharray:none;stroke-opacity:1"
       d="m 173.59321,158.53724 h 21.4604"
       id="path18297"
       inkscape:path-effect="#path-effect18299"
       inkscape:original-d="m 173.59321,158.53724 c 7.15447,0.001 14.30793,0.001 21.4604,0" />
    <path
       style="fill:none;stroke:#0b6776;stroke-width:3;stroke-linecap:round;stroke-linejoin:miter;stroke-miterlimit:4;stroke-dasharray:none;stroke-opacity:1"
       d="m 173.59321,166.53724 h 21.4604"
       id="path36164"
       inkscape:path-effect="#path-effect36168"
       inkscape:original-d="m 173.59321,166.53724 c 7.15447,0.001 14.30793,0.001 21.4604,0" />
    <path
       style="fill:none;stroke:#0b6776;stroke-width:3;stroke-linecap:round;stroke-linejoin:miter;stroke-miterlimit:4;stroke-dasharray:none;stroke-opacity:1"
       d="m 173.59321,174.53724 h 21.4604"
       id="path36176"
       inkscape:path-effect="#path-effect36180"
       inkscape:original-d="m 173.59321,174.53724 c 7.15447,0.001 14.30793,0.001 21.4604,0" />
    <path
       style="fill:none;stroke:#0b6776;stroke-width:3;stroke-linecap:round;stroke-linejoin:miter;stroke-miterlimit:4;stroke-dasharray:none;stroke-opacity:1"
       d="m 173.59321,182.53724 h 21.4604"
       id="path36188"
       inkscape:path-effect="#path-effect36192"
       inkscape:original-d="m 173.59321,182.53724 c 7.15447,0.001 14.30793,0.001 21.4604,0" />
    <path
       style="fill:none;stroke:#0b6776;stroke-width:3;stroke-linecap:round;stroke-linejoin:miter;stroke-miterlimit:4;stroke-dasharray:none;stroke-opacity:1"
       d="m 173.59321,190.53724 h 21.4604"
       id="path36200"
       inkscape:path-effect="#path-effect36204"
       inkscape:original-d="m 173.59321,190.53724 c 7.15447,0.001 14.30793,0.001 21.4604,0" />
    <path
       style="fill:none;stroke:#0b6776;stroke-width:3;stroke-linecap:round;stroke-linejoin:miter;stroke-miterlimit:4;stroke-dasharray:none;stroke-opacity:1"
       d="m 173.59321,198.53724 h 21.4604"
       id="path36206"
       inkscape:path-effect="#path-effect36210"
       inkscape:original-d="m 173.59321,198.53724 c 7.15447,0.001 14.30793,0.001 21.4604,0" />
  </g>
  <circle
     class="cls-15"
     cx="103.15979"
     cy="98.159668"
     id="circle710"
     style="fill:none;stroke:#034757;stroke-width:12.61px;stroke-miterlimit:10"
     r="28.07" />
  <rect
     class="cls-17"
     x="-194.89359"
     y="-18.563745"
     width="2.6199999"
     height="8.8000002"
     rx="1.3099999"
     transform="rotate(-135)"
     id="rect720"
     style="fill:#eee4d3"
     ry="1.3099999" />
  <rect
     class="cls-14"
     x="-4.3902197"
     y="-203.92416"
     width="2.6199999"
     height="8.8000002"
     rx="1.3099999"
     transform="rotate(135)"
     id="rect722"
     style="fill:#e5b38b"
     ry="1.3099999" />
  <rect
     class="cls-17"
     x="35.142757"
     y="-194.11176"
     width="2.6199999"
     height="8.8000002"
     rx="1.3099999"
     transform="rotate(135)"
     id="rect724"
     style="fill:#eee4d3"
     ry="1.3099999" />
  <rect
     class="cls-14"
     x="-187.16232"
     y="-1.9262776"
     width="2.6199999"
     height="8.8000002"
     rx="1.3099999"
     transform="rotate(-135)"
     id="rect726"
     style="fill:#e5b38b"
     ry="1.3099999" />
  <rect
     class="cls-17"
     x="-25.487829"
     y="-192.33936"
     width="2.6199999"
     height="8.8000002"
     rx="1.3099999"
     transform="rotate(135)"
     id="rect728"
     style="fill:#eee4d3"
     ry="1.3099999" />
  <rect
     class="cls-11"
     x="-205.8876"
     y="16.804985"
     width="2.6199999"
     height="8.8000002"
     rx="1.3099999"
     transform="rotate(-135)"
     id="rect730"
     style="fill:#b78254"
     ry="1.3099999" />
  <rect
     class="cls-11"
     x="-215.10049"
     y="-15.587341"
     width="2.6199999"
     height="8.8000002"
     rx="1.3099999"
     transform="rotate(-135)"
     id="rect732"
     style="fill:#b78254"
     ry="1.3099999" />
  <rect
     class="cls-11"
     x="-40.052204"
     y="-206.89868"
     width="2.6199999"
     height="8.8000002"
     rx="1.3099999"
     transform="rotate(135)"
     id="rect734"
     style="fill:#b78254"
     ry="1.3099999" />
  <rect
     class="cls-11"
     x="-63.535236"
     y="-183.40991"
     width="2.6199999"
     height="8.8000002"
     rx="1.3099999"
     transform="rotate(135)"
     id="rect736"
     style="fill:#b78254"
     ry="1.3099999" />
  <rect
     class="cls-14"
     x="-141.69456"
     y="65.553566"
     width="2.6199999"
     height="8.8000002"
     rx="1.3099999"
     transform="rotate(-135)"
     id="rect738"
     style="fill:#e5b38b"
     ry="1.3099999" />
  <rect
     class="cls-17"
     x="-136.92944"
     y="48.312531"
     width="2.6199999"
     height="8.8000002"
     rx="1.3099999"
     transform="rotate(-135)"
     id="rect740"
     style="fill:#eee4d3"
     ry="1.3099999" />
  <rect
     class="cls-17"
     x="-59.670658"
     y="-156.36526"
     width="2.6199999"
     height="8.8000002"
     rx="1.3099999"
     transform="rotate(135)"
     id="rect742"
     style="fill:#eee4d3"
     ry="1.3099999" />
  <rect
     class="cls-14"
     x="-164.27814"
     y="41.78212"
     width="2.6199999"
     height="8.8000002"
     rx="1.3099999"
     transform="rotate(-135)"
     id="rect744"
     style="fill:#e5b38b"
     ry="1.3099999" />
  <rect
     class="cls-11"
     x="-192.80365"
     y="41.771267"
     width="2.6199999"
     height="8.8000002"
     rx="1.3099999"
     transform="rotate(-135)"
     id="rect746"
     style="fill:#b78254"
     ry="1.3099999" />
  <rect
     class="cls-17"
     x="-175.57782"
     y="33.456017"
     width="2.6199999"
     height="8.8000002"
     rx="1.3099999"
     transform="rotate(-135)"
     id="rect748"
     style="fill:#eee4d3"
     ry="1.3099999" />
  <path
     class="cls-13"
     d="m 163.3798,37.929657 a 47.81,47.81 0 0 1 7.41,11.64 46.09,46.09 0 0 1 3.23,10.27 c 0.52,2.74 0.79,5.53 1.42,8.24 0.7,3.06 1.86,6 2.84,9 a 79.53,79.53 0 0 1 -5.56,61.880003 50.32,50.32 0 0 1 -10.42,13.75 c -4.94,4.41 -11,7.4 -16.9,10.33 -7.27,3.59 -14.59,7.2 -22.4,9.39 -7.32,2 -14.92,2.79 -22.49,3.54 -9.000001,0.88 -18.420001,1.71 -26.810001,-1.68 a 44.84,44.84 0 0 1 -12.07,-7.85 108.92,108.92 0 0 1 -12.52,-12.62 c -3.37,-4 -6.45,-8.27 -9.52,-12.52 a 168.34,168.34 0 0 1 -10.21,-15.26 c -9.22,-16.19 -12.660001,-37.000003 -3.84,-53.390003 3.49,-6.49 8.62,-11.85 13.19,-17.56 5,-6.26 7.53,-13.48 11.94,-20 3.1,-4.6 6.31,-6.06 11.59,-6.84 7.21,-1.07 14.15,-3.29 21.35,-4.55 12.05,-2.11 24.200001,-4.169998 36.430001,-3.83 9.78,0.27 19.7,2.18 28.4,6.53 l -28.38,-13.079998 -31.180001,0.52 -30.39,11.409998 -26.9,14.67 -11.38,25.23 -5.460001,15.69 -1.48,24.000003 0.21,28.85 22.370001,20.33 25.53,21.58 36.73,7.93 45.240001,-7 27.32,-21.44 18.07,-32.78 -0.29,-30.420003 -3.07,-28.45 -17.21,-27.29"
     id="path750"
     inkscape:connector-curvature="0"
     style="fill:#034757" />
</svg>
