<?xml version="1.0" encoding="UTF-8" standalone="no"?>
<svg
   id="Layer_1"
   data-name="Layer 1"
   viewBox="0 0 303.18735 145.03812"
   version="1.1"
   sodipodi:docname="CGY.svg"
   width="303.18735"
   height="145.03812"
   inkscape:version="1.1.1 (3bf5ae0d25, 2021-09-20)"
   xmlns:inkscape="http://www.inkscape.org/namespaces/inkscape"
   xmlns:sodipodi="http://sodipodi.sourceforge.net/DTD/sodipodi-0.dtd"
   xmlns="http://www.w3.org/2000/svg"
   xmlns:svg="http://www.w3.org/2000/svg"
   xmlns:rdf="http://www.w3.org/1999/02/22-rdf-syntax-ns#"
   xmlns:cc="http://creativecommons.org/ns#"
   xmlns:dc="http://purl.org/dc/elements/1.1/">
  <metadata
     id="metadata335">
    <rdf:RDF>
      <cc:Work
         rdf:about="">
        <dc:format>image/svg+xml</dc:format>
        <dc:type
           rdf:resource="http://purl.org/dc/dcmitype/StillImage" />
      </cc:Work>
    </rdf:RDF>
  </metadata>
  <sodipodi:namedview
     pagecolor="#a9a9a9"
     bordercolor="#666666"
     borderopacity="1"
     objecttolerance="10"
     gridtolerance="10"
     guidetolerance="10"
     inkscape:pageopacity="0"
     inkscape:pageshadow="2"
     inkscape:window-width="1920"
     inkscape:window-height="1017"
     id="namedview333"
     showgrid="false"
     inkscape:zoom="2.2250293"
     inkscape:cx="193.03116"
     inkscape:cy="69.437286"
     inkscape:window-x="-8"
     inkscape:window-y="-8"
     inkscape:window-maximized="1"
     inkscape:current-layer="Layer_1"
     inkscape:pagecheckerboard="true"
     fit-margin-top="0"
     fit-margin-left="0"
     fit-margin-right="0"
     fit-margin-bottom="0" />
  <defs
     id="defs4">
    <style
       id="style2">.cls-1{opacity:0.2;}.cls-2{fill:#a6a6a6;}.cls-3,.cls-4{fill:#fff;}.cls-13,.cls-4{stroke:#fff;}.cls-13,.cls-14,.cls-15,.cls-16,.cls-4,.cls-7{stroke-miterlimit:10;}.cls-4{stroke-width:5.72px;}.cls-17,.cls-5{fill:#ed1d3d;}.cls-16,.cls-6{fill:#f2b316;}.cls-12,.cls-13,.cls-7,.cls-8{fill:#231f20;}.cls-12,.cls-17,.cls-7{stroke:#231f20;}.cls-7{stroke-width:6.78px;}.cls-9{fill:#c1c0bf;}.cls-10{fill:#7f4d1b;}.cls-11{fill:#494949;}.cls-12,.cls-17{stroke-linecap:round;stroke-linejoin:round;}.cls-12{stroke-width:4.67px;}.cls-13{stroke-width:5.6px;}.cls-14{fill:none;stroke-width:3.17px;}.cls-14,.cls-16{stroke:#f2b316;}.cls-15{fill:#7f4e20;stroke:#7f4e20;stroke-width:3.48px;}.cls-16{stroke-width:3.72px;}.cls-17{stroke-width:15px;}</style>
    <clipPath
       clipPathUnits="userSpaceOnUse"
       id="clipPath6378">
      <path
         id="path6380"
         style="fill:#ff0000;fill-opacity:1;fill-rule:nonzero;stroke:none"
         d="m 286.94727,137.24219 c -0.31409,1.33341 -0.66848,2.65729 -1.15625,3.93945 -0.61529,1.59376 -1.29786,3.16274 -2.17188,4.63477 -0.89427,1.49693 -1.85538,2.95557 -3.00586,4.27148 -1.08708,1.22823 -2.22469,2.41461 -3.50195,3.44922 -0.89437,0.73312 -1.80414,1.44602 -2.75195,2.10937 -0.34936,0.24476 -0.70932,0.47377 -1.0625,0.7129 0.43647,0.36425 0.87273,0.72872 1.31054,1.09179 0.71179,0.59141 1.43056,1.17476 2.15235,1.75391 0.70215,0.56711 1.41628,1.11915 2.13867,1.66015 0.72979,0.53919 1.48127,1.04796 2.23633,1.55079 0.80567,0.53329 1.63009,1.03517 2.45898,1.53125 0.85529,0.51163 1.73162,0.98504 2.61328,1.44921 0.97576,0.50465 1.96094,0.99291 2.94531,1.48047 1.04512,0.51796 2.09334,1.02769 3.14454,1.53321 1.08093,0.52021 2.17154,1.02336 3.26367,1.51953 1.1418,0.51528 2.28983,1.01423 3.43945,1.51172 0.7272,0.31483 1.45789,0.62197 2.1875,0.93164 v -34.49414 c -2.38342,-0.11144 -4.76675,-0.22434 -7.15039,-0.33203 -2.36297,-0.10643 -4.72648,-0.20425 -7.08984,-0.30469 z M 0,137.74805 v 37.66015 c 0.20403709,-0.1683 0.41320412,-0.33046 0.609375,-0.50781 0.3935374,-0.35893 0.7823793,-0.72208 1.1601562,-1.09766 0.3717019,-0.366 0.7392574,-0.73612 1.0976563,-1.11523 0.3684435,-0.39012 0.7354799,-0.78194 1.0957031,-1.17969 0.3674171,-0.40479 0.7326537,-0.81198 1.0957032,-1.2207 0.3402418,-0.38191 0.6794371,-0.76516 1.0136718,-1.15234 0.2921684,-0.3407 0.5822112,-0.68166 0.8613282,-1.03321 0.2712427,-0.34511 0.5398393,-0.69439 0.7988281,-1.04883 0.2699337,-0.37006 0.5385191,-0.74107 0.8027343,-1.11523 0.2479929,-0.35192 0.4923303,-0.70512 0.7324219,-1.0625 0.2327552,-0.34678 0.4651832,-0.69452 0.6894531,-1.04688 0.2404288,-0.37636 0.4804548,-0.75313 0.7187498,-1.13085 0.246996,-0.38967 0.493879,-0.77914 0.742188,-1.16797 0.259169,-0.40506 0.519623,-0.81001 0.785156,-1.21094 0.260675,-0.39213 0.523038,-0.78272 0.791016,-1.16992 0.25963,-0.37549 0.521841,-0.74956 0.787109,-1.1211 0.242295,-0.3383 0.484057,-0.67693 0.728516,-1.01367 0.228078,-0.31573 0.457454,-0.62959 0.685546,-0.94531 0.216164,-0.29978 0.430528,-0.60102 0.644532,-0.90234 0.227245,-0.31882 0.455406,-0.63639 0.685547,-0.95313 0.247399,-0.33982 0.496374,-0.67799 0.751953,-1.01172 0.270093,-0.34955 0.542604,-0.69798 0.828125,-1.03515 0.272052,-0.31836 0.548705,-0.63461 0.835937,-0.93946 0.181784,-0.19181 0.368621,-0.37758 0.554688,-0.56445 l 1.796875,-12.75781 c -0.06576,-4.1e-4 -0.13151,-0.002 -0.197266,-0.002 -6.537101,-0.035 -13.0724024,-0.0895 -19.6093749,-0.14257 -0.495415,-0.004 -0.99090186,-0.008 -1.4863281,-0.0117 z m 109.7793,0.74804 c -0.38441,0.39608 -0.7311,0.82789 -1.13477,1.20508 -0.98431,0.92358 -1.98937,1.82556 -3.02344,2.69336 -0.93718,0.79269 -1.88029,1.57866 -2.84179,2.3418 -0.95535,0.76134 -1.91387,1.51752 -2.888675,2.2539 -1.069686,0.80652 -2.148616,1.60205 -3.253906,2.35938 -1.250627,0.85359 -2.516683,1.68468 -3.830078,2.43945 -1.471773,0.84021 -2.967131,1.64159 -4.521485,2.32032 -1.553192,0.67259 -3.127563,1.29528 -4.742187,1.80664 -1.324617,0.42884 -2.65557,0.83638 -3.996094,1.21289 -1.22262,0.34742 -2.447588,0.69031 -3.675781,1.01757 -1.182341,0.31554 -2.366673,0.6245 -3.552735,0.92579 -1.162597,0.29582 -2.324773,0.58868 -3.490234,0.87304 -1.120788,0.27361 -2.244304,0.54339 -3.365234,0.81641 -1.132464,0.27472 -2.265241,0.54669 -3.398438,0.81836 -1.123882,0.26994 -2.248475,0.53764 -3.373047,0.80469 -1.097666,0.26174 -2.19444,0.52315 -3.292968,0.78125 -1.078489,0.25371 -2.157996,0.50405 -3.238282,0.75 -1.074124,0.24371 -2.149149,0.48213 -3.226562,0.71093 -1.017222,0.21691 -2.035686,0.43032 -3.054688,0.63867 -0.910665,0.18773 -1.820315,0.37626 -2.730468,0.56641 -0.833479,0.1756 -1.667572,0.35269 -2.5,0.5332 -0.792086,0.17178 -1.582994,0.34351 -2.375,0.51563 -0.792361,0.17152 -1.586778,0.34247 -2.38086,0.50586 -0.804904,0.16501 -1.609966,0.32732 -2.417969,0.47656 -0.844629,0.15369 -1.689767,0.29812 -2.539062,0.42383 -0.808025,0.11887 -1.618087,0.22851 -2.429688,0.32031 -0.69838,0.0786 -1.397682,0.14979 -2.097656,0.21289 -0.616169,0.0549 -1.232802,0.10515 -1.849609,0.15235 -0.691117,0.0504 -1.38171,0.0929 -2.074219,0.11914 -0.653496,0.0219 -1.308971,0.0362 -1.962891,0.0312 -0.203226,-10e-4 -0.406259,-0.009 -0.609375,-0.0117 -0.162082,0.25523 -0.323576,0.51084 -0.486328,0.76562 -0.269797,0.42361 -0.548309,0.84274 -0.828125,1.25977 -0.287467,0.42806 -0.581972,0.84995 -0.878906,1.27148 -0.299531,0.42436 -0.602155,0.84597 -0.908203,1.26563 -0.337718,0.46257 -0.687343,0.91677 -1.041016,1.36719 -0.377655,0.47812 -0.771552,0.94368 -1.167969,1.40625 -0.38052,0.44143 -0.764703,0.87927 -1.152343,1.31445 -0.386204,0.43471 -0.777177,0.86629 -1.167969,1.29687 -0.409868,0.45244 -0.825052,0.89791 -1.244141,1.3418 -0.451311,0.47765 -0.914804,0.94504 -1.3828121,1.40625 -0.4793515,0.47565 -0.9721295,0.93721 -1.4707031,1.39258 -0.5616127,0.51052 -1.1475423,0.99166 -1.7421876,1.46289 -0.622632,0.49094 -1.2716552,0.94689 -1.9296874,1.38867 -0.6589041,0.43676 -1.3388928,0.83954 -2.0234376,1.23438 -0.633356,0.36183 -1.2731408,0.71042 -1.91406245,1.05859 C 0.38382527,188.44724 0.19106862,188.54623 0,188.64844 v 55.63281 h 301.1875 v -59.73437 c -0.97536,-0.39835 -1.95108,-0.79619 -2.92188,-1.20508 -1.24492,-0.52522 -2.48853,-1.053 -3.72851,-1.58985 -1.21168,-0.52436 -2.42172,-1.05031 -3.625,-1.59375 -1.16643,-0.53002 -2.32987,-1.06743 -3.48438,-1.62304 -1.09037,-0.5244 -2.17761,-1.05257 -3.26171,-1.58985 -1.06801,-0.529 -2.13743,-1.05837 -3.19532,-1.60742 -1.06252,-0.55992 -2.11768,-1.13302 -3.14843,-1.75 -0.9837,-0.58908 -1.96228,-1.18838 -2.91797,-1.82227 -0.92741,-0.61801 -1.84913,-1.24371 -2.74414,-1.9082 -0.82168,-0.61589 -1.63452,-1.24363 -2.4336,-1.88867 -0.76887,-0.61702 -1.53271,-1.23916 -2.29101,-1.86914 -0.72674,-0.60269 -1.45389,-1.20594 -2.17578,-1.81445 -0.64494,-0.5439 -1.28955,-1.08898 -1.93946,-1.62696 -0.20977,-0.17261 -0.42076,-0.34356 -0.63086,-0.51562 -0.44375,0.187 -0.8831,0.38452 -1.33203,0.55859 -0.81189,0.31852 -1.62528,0.63068 -2.44531,0.92774 -0.91786,0.33268 -1.84026,0.65549 -2.77149,0.94921 -1.01669,0.31956 -2.03882,0.62143 -3.07226,0.88282 -1.09305,0.27409 -2.19117,0.52795 -3.30078,0.72656 -1.04803,0.18883 -2.09895,0.36124 -3.15625,0.49023 -1.06792,0.12982 -2.13894,0.24355 -3.21289,0.31055 -1.08905,0.0684 -2.17808,0.121 -3.26953,0.125 -1.11285,0.003 -2.22662,-0.0142 -3.33789,-0.0781 -1.12171,-0.0642 -2.2433,-0.14559 -3.35938,-0.27735 -1.24446,-0.15068 -2.48598,-0.32738 -3.71289,-0.58789 -1.39035,-0.30172 -2.77214,-0.64701 -4.11719,-1.11523 -1.3626,-0.48239 -2.71096,-1.00834 -4.00586,-1.6543 -1.2063,-0.60178 -2.39626,-1.23581 -3.53515,-1.95898 -1.13934,-0.72558 -2.25815,-1.48253 -3.31446,-2.32618 -0.93768,-0.74781 -1.85943,-1.51661 -2.73242,-2.33984 -0.85488,-0.80024 -1.69693,-1.61666 -2.48828,-2.48047 -1.02056,-1.13061 -2.00202,-2.29778 -2.84375,-3.57031 -0.71803,-1.08788 -1.40625,-2.19661 -1.99805,-3.35938 -0.40325,-0.78563 -0.79171,-1.5781 -1.16406,-2.3789 -0.20607,-0.43376 -0.41199,-0.86845 -0.63672,-1.29297 -0.22008,-0.42388 -0.45974,-0.83722 -0.70312,-1.24805 -0.30777,-0.51735 -0.63219,-1.02507 -0.96094,-1.52929 -0.39672,-0.60902 -0.7952,-1.21676 -1.20313,-1.81836 -0.0561,-0.0829 -0.11557,-0.16336 -0.17187,-0.2461 -1.64161,0.095 -3.28195,0.21092 -4.92383,0.30078 -5.4933,0.30246 -10.99226,0.45728 -16.49219,0.57032 -5.72398,0.0969 -11.4497,0.0768 -17.17382,0.0117 -5.68583,-0.0799 -11.37037,-0.21388 -17.05469,-0.36524 -5.51321,-0.15052 -11.02584,-0.30122 -16.53906,-0.45117 -5.35168,-0.15287 -10.70401,-0.28192 -16.05664,-0.39649 -0.608,-0.0134 -1.2162,-0.0135 -1.82422,-0.0254 z" />
    </clipPath>
  </defs>
  <path
     class="cls-8"
     d="m 237.40943,120.72335 q 3.01841,-0.49321 5.86556,-0.81486 c 15.2847,-2.43388 55.41238,-10.97924 59.94,-34.20289 0,0 -1.73398,-26.59034 -90.98035,-35.70396 l 0.42814,-21.26154 c 0,0 -2.14071,-26.89055 -52.84352,-27.75902 H 145.2731 C 94.602406,1.84955 92.440285,28.7401 92.440285,28.7401 l 0.428142,21.26154 C 3.6434662,59.11526 1.8880807,85.7056 1.8880807,85.7056 c 5.6621886,28.76688 65.8376603,35.01775 65.8376603,35.01775 0,0 106.297149,10.51819 169.683689,0 z"
     id="path1641"
     inkscape:connector-curvature="0"
     style="fill:#ffffff;fill-opacity:1;stroke-width:6.2;stroke-miterlimit:4;stroke-dasharray:none" />
  <path
     class="cls-3"
     d="m 301.09757,188.7603 v 0 a 21.64,21.64 0 0 0 -3.8,-10.51 c -8.4,-12.1 -23.43,-18.29 -36.17,-22.05 a 116.44,116.44 0 0 0 -10.94,-101.600002 17.74,17.74 0 0 0 -1.38,-2.14 116.49,116.49 0 0 0 -194.779998,0.23 19.79,19.79 0 0 0 -1.1,1.71 116.53,116.53 0 0 0 -11.14,101.610002 c -26.35,8.18 -36.3699997,18.8 -39.9999997,26.71 -2.08999998,4.48 -1.99999998,7.57 -1.45999998,9.48 3.99999998,19.09 19.77999968,42.61 71.99999968,47.76 2.65,0.26 44.789998,4.32 89.939998,4.32 23.5,0 47.82,-1.1 67.81,-4.41 1.63,-0.27 3.25,-0.49 4.83,-0.66 l 0.48,-0.07 c 13.48,-2.14 24.81,-5.31 34.64,-9.69 8,-3.54 13.82,-7.29 18.43,-11.81 10.34,-10.15 13.31,-21.57 12.64,-28.88 z"
     id="path278"
     inkscape:connector-curvature="0"
     style="fill:#ffffff"
     clip-path="url(#clipPath6378)"
     transform="translate(2,-101.24219)" />
  <path
     class="cls-6"
     d="m 230.39757,128.63811 q 2.78,-0.45 5.37,-0.74 c 14,-2.22 50.67,-10 54.82,-31.22 0,0 -1.58,-24.27 -83.16,-32.59 l 0.4,-19.4 c 0,0 -2,-24.55 -48.31,-25.34 h -13.35 c -46.329998,0.79 -48.309998,25.34 -48.309998,25.34 l 0.39,19.4 c -81.57,8.32 -83.16,32.59 -83.16,32.59 5.15,26.25 60.19,32 60.19,32 0,0 97.169998,9.55 155.119998,-0.04 z"
     id="path288"
     inkscape:connector-curvature="0"
     style="fill:#f2b316" />
  <path
     class="cls-8"
     d="m 232.09757,121.03811 q 2.82,-0.46 5.48,-0.76 c 14.28,-2.27 51.77,-10.24 56,-31.9 0,0 -1.62,-24.8 -85,-33.3 l 0.4,-19.83 c 0,0 -2,-25.08 -49.37,-25.89 h -13.59 c -47.339998,0.81 -49.359998,25.89 -49.359998,25.89 l 0.4,19.83 c -83.36,8.5 -85,33.3 -85,33.3 5.29,26.83 61.51,32.66 61.51,32.66 0,0 99.309998,9.81 158.529998,0 z"
     id="path290"
     inkscape:connector-curvature="0"
     style="fill:#231f20" />
  <path
     class="cls-10"
     d="m 170.32757,83.39811 c 29.13,0.47 25.9,-14.21 25.9,-14.21 l -2.66,-34.59 c -3.56,-12.5 -28,-15 -39.73,-15.25 -11.73,-0.25 -41.16,3.16 -44.6,15.25 l -2.7,34.59 c 0,0 -3.23,14.68 25.9,14.21 z"
     id="path292"
     inkscape:connector-curvature="0"
     style="fill:#7f4d1b" />
  <path
     class="cls-8"
     d="m 152.83757,41.86811 c 0,0 -5.72,35.31 17.49,41.53 23.21,6.22 36.52,-15.36 36.52,-15.36 l -7.61,-42.87 -35.55,-8.87"
     id="path294"
     inkscape:connector-curvature="0"
     style="fill:#231f20" />
  <path
     class="cls-11"
     d="m 206.62757,76.03811 c 0,0 -1.61,16.16 -30.75,16.65 h -50.76 c -29.139998,-0.49 -30.759998,-16.65 -30.759998,-16.65 -3.23,26.4 30.209998,26.4 30.209998,26.4 h 51.84 c 0,0 33.46,0 30.22,-26.4 z"
     id="path296"
     inkscape:connector-curvature="0"
     style="fill:#494949" />
  <path
     class="cls-10"
     d="m 78.297572,73.29811 c 0,0 -22.5,37 65.159998,39.93 a 298.77,298.77 0 0 1 -40.68,-1.83 c -18.759998,-1.92 -37.269998,-6.12 -55.829998,-9.7 -6.09,-1.17 -22.29,-5.78 -15.87,-14.92 2.93,-4.18 8.85,-6.29 13.44,-7.83 a 95.29,95.29 0 0 1 13.76,-3.28 c 2.78,-0.49 19.03,-0.73 20.02,-2.37 z"
     id="path298"
     inkscape:connector-curvature="0"
     style="fill:#7f4d1b" />
  <ellipse
     class="cls-8"
     cx="152.70758"
     cy="32.878143"
     rx="19.83"
     ry="16.549999"
     id="ellipse300"
     style="fill:#231f20" />
  <path
     class="cls-5"
     d="m 222.34757,111.03811 c 0,0 70.32,-13.83 46,-31 z"
     id="path302"
     inkscape:connector-curvature="0"
     style="fill:#ed1d3d" />
</svg>
