<?xml version="1.0" encoding="UTF-8" standalone="no"?>
<svg
   id="Layer_1"
   data-name="Layer 1"
   viewBox="0 0 358.64874 229.45633"
   version="1.1"
   sodipodi:docname="CHI.svg"
   width="358.64874"
   height="229.45633"
   inkscape:version="1.1.1 (3bf5ae0d25, 2021-09-20)"
   xmlns:inkscape="http://www.inkscape.org/namespaces/inkscape"
   xmlns:sodipodi="http://sodipodi.sourceforge.net/DTD/sodipodi-0.dtd"
   xmlns="http://www.w3.org/2000/svg"
   xmlns:svg="http://www.w3.org/2000/svg"
   xmlns:rdf="http://www.w3.org/1999/02/22-rdf-syntax-ns#"
   xmlns:cc="http://creativecommons.org/ns#"
   xmlns:dc="http://purl.org/dc/elements/1.1/">
  <metadata
     id="metadata379">
    <rdf:RDF>
      <cc:Work
         rdf:about="">
        <dc:format>image/svg+xml</dc:format>
        <dc:type
           rdf:resource="http://purl.org/dc/dcmitype/StillImage" />
      </cc:Work>
    </rdf:RDF>
  </metadata>
  <sodipodi:namedview
     pagecolor="#ffffff"
     bordercolor="#666666"
     borderopacity="1"
     objecttolerance="10"
     gridtolerance="10"
     guidetolerance="10"
     inkscape:pageopacity="0"
     inkscape:pageshadow="2"
     inkscape:window-width="1920"
     inkscape:window-height="1017"
     id="namedview377"
     showgrid="false"
     inkscape:zoom="1.5733333"
     inkscape:cx="195.44492"
     inkscape:cy="60.699153"
     inkscape:window-x="-8"
     inkscape:window-y="-8"
     inkscape:window-maximized="1"
     inkscape:current-layer="Layer_1"
     inkscape:pagecheckerboard="0"
     fit-margin-top="0"
     fit-margin-left="0"
     fit-margin-right="0"
     fit-margin-bottom="0" />
  <defs
     id="defs22">
    <inkscape:path-effect
       effect="spiro"
       id="path-effect54796"
       is_visible="true"
       lpeversion="1" />
    <inkscape:path-effect
       effect="spiro"
       id="path-effect33962"
       is_visible="true"
       lpeversion="1" />
    <inkscape:path-effect
       effect="spiro"
       id="path-effect27043"
       is_visible="true"
       lpeversion="1" />
    <inkscape:path-effect
       effect="spiro"
       id="path-effect27037"
       is_visible="true"
       lpeversion="1" />
    <inkscape:path-effect
       effect="spiro"
       id="path-effect27031"
       is_visible="true"
       lpeversion="1" />
    <inkscape:path-effect
       effect="spiro"
       id="path-effect27025"
       is_visible="true"
       lpeversion="1" />
    <inkscape:path-effect
       effect="spiro"
       id="path-effect26939"
       is_visible="true"
       lpeversion="1" />
    <inkscape:path-effect
       effect="spiro"
       id="path-effect26900"
       is_visible="true"
       lpeversion="1" />
    <inkscape:path-effect
       effect="spiro"
       id="path-effect26863"
       is_visible="true"
       lpeversion="1" />
    <inkscape:path-effect
       effect="spiro"
       id="path-effect26575"
       is_visible="true"
       lpeversion="1" />
    <inkscape:path-effect
       effect="spiro"
       id="path-effect9457"
       is_visible="true"
       lpeversion="1" />
    <inkscape:path-effect
       effect="spiro"
       id="path-effect971"
       is_visible="true"
       lpeversion="1" />
    <style
       id="style2">.cls-1{opacity:0.2;}.cls-2{fill:#a6a6a6;}.cls-3{fill:#fff;}.cls-20,.cls-22,.cls-4{fill:#292c2d;}.cls-5{fill:#e8cf1f;}.cls-6{fill:#9e9e9e;}.cls-7{fill:#878787;}.cls-12,.cls-8{fill:#646666;}.cls-9{fill:#3f3f3f;}.cls-10{fill:#bababa;}.cls-11{fill:#545454;}.cls-12{opacity:0.5;}.cls-13{fill:#ed310c;}.cls-14{fill:#f2f2f2;}.cls-15{fill:#7fccea;}.cls-16,.cls-17,.cls-18,.cls-21,.cls-23{fill:none;}.cls-16{stroke:#292c2d;stroke-width:8.86px;}.cls-16,.cls-17,.cls-18,.cls-19,.cls-20,.cls-21,.cls-22,.cls-23{stroke-miterlimit:10;}.cls-17,.cls-20,.cls-21,.cls-23{stroke:#e8cf1f;}.cls-17{stroke-width:6.17px;}.cls-18,.cls-19,.cls-22{stroke:#7fccea;}.cls-18{stroke-width:9.33px;}.cls-19{stroke-width:7.56px;fill:url(#linear-gradient);}.cls-20,.cls-21{stroke-width:4.04px;}.cls-22{stroke-width:9px;}.cls-23{stroke-width:6.94px;}.cls-24{fill:url(#linear-gradient-2);}</style>
    <linearGradient
       id="linear-gradient"
       x1="81.410004"
       y1="924.42999"
       x2="426.82001"
       y2="924.42999"
       gradientUnits="userSpaceOnUse"
       gradientTransform="translate(-75.928491,-809.65346)">
      <stop
         offset="0"
         stop-color="#3f3f3f"
         id="stop4" />
      <stop
         offset="0.2"
         stop-color="#343536"
         id="stop6" />
      <stop
         offset="0.5"
         stop-color="#2c2e2f"
         id="stop8" />
      <stop
         offset="1"
         stop-color="#292c2d"
         id="stop10" />
    </linearGradient>
    <linearGradient
       id="linear-gradient-2"
       x1="699.63"
       y1="944.15002"
       x2="912"
       y2="944.15002"
       gradientUnits="userSpaceOnUse">
      <stop
         offset="0"
         stop-color="#292c2d"
         id="stop13" />
      <stop
         offset="0.2"
         stop-color="#333435"
         id="stop15" />
      <stop
         offset="0.54"
         stop-color="#3c3c3d"
         id="stop17" />
      <stop
         offset="1"
         stop-color="#3f3f3f"
         id="stop19" />
    </linearGradient>
    <clipPath
       clipPathUnits="userSpaceOnUse"
       id="clipPath17481">
      <path
         id="path17483"
         style="fill:#ff0000;fill-opacity:1;fill-rule:nonzero;stroke:none"
         d="m 0,0 v 229.49023 h 354.67188 v -85.26367 c -0.89288,-0.0147 -1.78699,-0.0319 -2.67383,-0.13867 -0.40536,-0.0488 -0.80707,-0.12409 -1.21094,-0.18359 l -32.4707,36.85937 c -0.68126,-0.59461 -1.3293,-1.22641 -1.96875,-1.86523 -0.51145,-0.50833 -1.01009,-1.02714 -1.50782,-1.54883 -0.61839,-0.65387 -1.21195,-1.33059 -1.80664,-2.00586 -0.37092,-0.42264 -0.74058,-0.84628 -1.11523,-1.26563 -0.43198,-0.47916 -0.86002,-0.96311 -1.29297,-1.4414 -0.43729,-0.48244 -0.88187,-0.95776 -1.32422,-1.43555 -0.5318,-0.57739 -1.07157,-1.14891 -1.60937,-1.7207 -0.5344,-0.56582 -1.06206,-1.13738 -1.58985,-1.70899 -0.0914,0.0557 -0.18202,0.11235 -0.27344,0.16797 -0.56731,0.34587 -1.13877,0.68628 -1.70898,1.02735 -0.55641,0.33358 -1.11306,0.66653 -1.67187,0.99609 -0.61471,0.36387 -1.23712,0.71527 -1.86133,1.0625 -0.5802,0.32156 -1.16211,0.63851 -1.7461,0.95313 -0.2813,0.15176 -0.5635,0.30112 -0.8457,0.45117 l -2.27344,-4.27539 c -0.30634,0.0695 -0.61343,0.13663 -0.91992,0.20508 -0.33594,0.0751 -0.6704,0.15131 -1.00586,0.22851 -0.33271,0.076 -0.6641,0.15538 -0.99609,0.23438 -0.33696,0.081 -0.67475,0.16324 -1.01172,0.24414 -0.33719,0.081 -0.67431,0.16023 -1.01172,0.24023 -0.32924,0.0781 -0.65882,0.15532 -0.98828,0.23242 -0.32307,0.0756 -0.6454,0.15021 -0.96875,0.22461 -0.33316,0.0759 -0.66809,0.14996 -1.00195,0.22266 -0.31756,0.0694 -0.63499,0.13642 -0.95313,0.20312 -0.30969,0.0652 -0.61947,0.12881 -0.92969,0.19141 -0.32115,0.0643 -0.64279,0.12595 -0.96484,0.18555 -0.12733,0.0234 -0.25515,0.0454 -0.38281,0.0684 l 0.14062,3.0664 c -0.005,2.4e-4 -0.0206,2.7e-4 -0.0156,0 0.15765,-0.008 -0.0423,0.004 -0.0801,0.006 -0.0851,0.004 -0.17066,0.007 -0.25586,0.01 l -0.22852,0.01 c -0.039,10e-4 -0.0405,6.4e-4 -0.10351,0.004 l -0.14844,-2.97266 c -0.24656,0.0428 -0.49304,0.0851 -0.74023,0.125 -0.30654,0.0494 -0.61439,0.0956 -0.92188,0.13867 -0.30974,0.043 -0.61894,0.0786 -0.92969,0.11329 -0.28108,0.0312 -0.56416,0.0593 -0.8457,0.0859 -0.27055,0.0253 -0.53964,0.0475 -0.81055,0.0684 -0.274,0.0215 -0.54973,0.0369 -0.82421,0.0508 -0.25607,0.0122 -0.51131,0.0194 -0.76758,0.0254 -0.16049,0.003 -0.0832,0.002 -0.23438,0.004 l -0.17773,-11.23437 c 0.10609,-0.002 0.0562,2e-4 0.1543,-0.002 0.15388,-0.004 0.30712,-0.009 0.46093,-0.0156 0.1742,-0.009 0.34957,-0.0174 0.52344,-0.0312 0.20798,-0.016 0.41535,-0.0334 0.62305,-0.0527 0.21709,-0.0205 0.43365,-0.0425 0.65039,-0.0664 0.20735,-0.0231 0.41437,-0.0459 0.62109,-0.0742 0.22933,-0.032 0.45888,-0.0648 0.6875,-0.10156 0.25051,-0.0404 0.50002,-0.0834 0.75,-0.12696 0.27076,-0.0477 0.54208,-0.0968 0.8125,-0.14648 0.26167,-0.0483 0.52225,-0.0983 0.7832,-0.15039 0.28298,-0.0571 0.56713,-0.11433 0.84961,-0.17383 0.28948,-0.0607 0.57825,-0.12235 0.86719,-0.18555 0.29062,-0.0633 0.58101,-0.12756 0.8711,-0.19336 0.30984,-0.0713 0.62008,-0.14234 0.92968,-0.21484 0.31881,-0.0746 0.63648,-0.15106 0.95508,-0.22656 0.32719,-0.0776 0.65544,-0.15393 0.98242,-0.23243 0.3442,-0.0827 0.68704,-0.16544 1.03125,-0.24804 0.0201,-0.005 0.0405,-0.009 0.0605,-0.0137 l -2.8125,-5.29102 c 0.24664,-0.13112 0.49442,-0.26188 0.74023,-0.39453 0.49697,-0.26758 0.9925,-0.53723 1.48633,-0.81055 0.45849,-0.25448 0.91598,-0.51208 1.36719,-0.77929 0.48694,-0.28683 0.9704,-0.5769 1.45508,-0.86719 -0.46626,-0.83267 -0.93031,-1.66696 -1.38086,-2.50781 -0.51803,-0.97232 -1.02549,-1.94893 -1.52735,-2.92969 -0.30465,-0.60355 -0.61275,-1.20475 -0.93554,-1.79883 -0.21327,-0.40422 -0.44585,-0.7994 -0.6836,-1.18945 -0.34564,-0.57171 -0.70989,-1.13149 -1.07422,-1.69141 -0.50425,-0.77792 -1.02415,-1.54559 -1.54492,-2.3125 -0.51031,-0.74898 -1.02512,-1.49473 -1.5625,-2.22461 -0.56518,-0.7699 -1.15585,-1.52145 -1.75195,-2.26758 -0.79722,-1.00019 -1.60857,-1.98843 -2.42773,-2.9707 -0.86526,-1.04476 -1.75225,-2.07038 -2.64258,-3.09375 -0.89769,-1.03191 -1.81012,-2.05253 -2.73242,-3.0625 -0.86686,-0.95561 -1.75933,-1.88511 -2.66016,-2.80859 -1.05387,-1.08023 -2.12585,-2.14425 -3.19336,-3.21094 -1.13621,-1.13408 -2.27137,-2.2689 -3.4082,-3.40235 -1.13489,-1.13078 -2.27221,-2.25899 -3.40625,-3.39062 -1.25039,-1.24501 -2.49146,-2.49969 -3.72266,-3.76367 -1.29022,-1.3245 -2.56181,-2.66648 -3.82617,-4.01563 -1.27059,-1.35412 -2.52517,-2.72334 -3.76953,-4.101559 -1.29895,-1.434447 -2.57123,-2.891661 -3.83008,-4.361329 -1.24408,-1.454086 -2.46434,-2.929568 -3.67188,-4.414062 -1.21306,-1.490045 -2.3985,-3.000837 -3.57031,-4.523438 -1.18517,-1.541994 -2.33877,-3.107833 -3.47851,-4.683593 -1.16505,-1.608288 -2.29334,-3.242668 -3.39844,-4.892578 -1.08067,-1.616687 -2.11403,-3.265736 -3.13281,-4.921875 -1.07314,-1.730949 -2.08401,-3.498491 -3.06446,-5.283204 -1.23604,-2.23176 -2.28887,-4.555883 -3.27539,-6.90625 -0.88972,-2.143848 -1.63282,-4.341682 -2.32226,-6.55664 -0.75599,-2.400461 -1.29793,-4.857809 -1.76563,-7.328125 -0.25797,-1.427645 -0.46654,-2.864563 -0.66992,-4.300781 l 5.3418,-0.75586 c -1.69622,-1.01289 -3.3855,-2.037806 -5.04297,-3.113281 -1.79102,-1.166544 -3.56708,-2.357105 -5.29688,-3.613281 -1.71105,-1.244701 -3.4043,-2.514721 -5.04492,-3.851563 -1.46731,-1.196686 -2.91566,-2.41504 -4.33203,-3.671875 -1.31176,-1.16345 -2.61351,-2.338994 -3.88281,-3.548828 -1.19983,-1.147786 -2.38516,-2.309657 -3.54297,-3.5 -1.11558,-1.1488 -2.21989,-2.309436 -3.29102,-3.5 -0.96068,-1.068021 -1.91002,-2.146829 -2.84179,-3.240234 -1.0874,-1.285383 -2.15703,-2.5858253 -3.17188,-3.9296878 C 185.97334,6.7898343 185.01131,5.4655229 184.10352,4.1035156 183.33275,2.9486217 182.57428,1.7853618 181.85156,0.59960938 181.72969,0.40016036 181.60981,0.19960438 181.48828,0 Z m 335.00781,0 c 0.0132,0.02368212 0.0278,0.04662174 0.041,0.0703125 0.8506,1.5233302 1.68879,3.0536387 2.51953,4.5878906 0.78468,1.4445849 1.57009,2.8906674 2.35352,4.3359375 0.81171,1.4910154 1.62842,2.9773624 2.43945,4.4687504 0.82008,1.506008 1.64036,3.012907 2.46289,4.517578 0.84679,1.545527 1.69446,3.089305 2.54492,4.632812 0.88796,1.614326 1.77179,3.231231 2.65234,4.84961 0.51014,0.935312 1.01778,1.872974 1.52735,2.808593 0.55815,0.310105 1.12087,0.611933 1.67578,0.927735 0.48852,0.280195 0.96197,0.585483 1.44727,0.871093 V 0 Z" />
    </clipPath>
  </defs>
  <path
     style="fill:#7fccea;fill-opacity:1;stroke:#7fccea;stroke-width:51.1;stroke-linecap:butt;stroke-linejoin:miter;stroke-miterlimit:4;stroke-dasharray:none;stroke-opacity:1"
     d="m 209.90466,144.56356 c 18.6203,5.56988 38.79174,6.78004 57.52119,1.58899 15.99661,-4.43362 30.72369,-13.56863 41.47246,-26.21823 13.9308,-16.39435 20.69082,-37.804497 23.67585,-59.110165 0.34276,-2.446444 0.64091,-4.918714 0.45636,-7.38215 -0.18455,-2.463436 -0.88227,-4.94143 -2.36314,-6.918697 -1.53068,-2.043765 -3.77954,-3.416975 -6.03814,-4.608051 -11.2924,-5.95506 -24.11566,-8.545055 -36.86441,-9.216102 -14.30775,-0.753107 -28.93118,0.889094 -42.10805,6.514831 -8.51546,3.63559 -16.31351,8.891728 -23.04025,15.254237 -5.01268,4.741267 -9.44043,10.096891 -13.18856,15.889831 -7.20066,11.129017 -11.82513,23.742478 -15.25424,36.546606 -1.5591,5.8216 -2.8907,11.76993 -2.86017,17.79661 0.0131,2.59349 0.28967,5.2265 1.27119,7.62712 1.38489,3.38721 4.10516,6.10398 7.21207,8.03743 3.10691,1.93345 6.60195,3.14902 10.10784,4.19774 z"
     id="path54792"
     inkscape:path-effect="#path-effect54796"
     inkscape:original-d="m 209.90466,144.56356 c 0.42273,1.74688 31.99253,-0.84646 57.52119,1.58899 25.52866,2.43544 28.65566,-17.90155 41.47246,-26.21823 12.81679,-8.31668 15.7849,-39.405775 23.67585,-59.110165 7.89095,-19.70439 -1.27019,-9.532898 -1.90678,-14.300847 -0.6366,-4.767949 -4.02443,-3.071034 -6.03814,-4.608051 -2.01371,-1.537017 -24.57527,-6.143068 -36.86441,-9.216102 -12.28913,-3.073034 -28.07103,4.344221 -42.10805,6.514831 -14.03701,2.17061 -15.35917,10.170491 -23.04025,15.254237 -7.68109,5.083746 -8.79138,10.594221 -13.18856,15.889831 -4.39719,5.29561 -10.16849,24.365407 -15.25424,36.546606 -5.08575,12.1812 -1.90578,11.86541 -2.86017,17.79661 -0.95439,5.9312 0.84846,5.08575 1.27119,7.62712 0.42273,2.54137 16.89719,10.48829 17.31991,12.23517 z"
     sodipodi:nodetypes="ssssssssssssss" />
  <path
     class="cls-19"
     d="m 107.32151,190.24264 c 0.88,5.06 5,17.66 5.46,18.63 12.78,26.34 50.59,17.6 68.26,2.18 3.66932,-3.21815 6.95142,-6.85263 9.78,-10.83 0.81,-1.13 6.45,-12.08 6.8,-12.07 0,0 38.68,1.19 76.94,-21.42 25.49957,-16.95068 52.67409,-17.57685 66.13528,-41.90479 13.46118,-24.32793 13.60151,-53.837375 0.3727,-78.292554 C 327.84069,22.080117 303.06537,6.0485557 275.33701,4.0017346 247.60864,1.9549131 229.01035,16.399415 212.33422,38.647212 c -37.11,1.59 -60.01271,17.565424 -60.01271,17.565424 C 38.221509,57.032636 5.5015088,112.21264 5.5015088,112.21264 l 38.5100002,15.44 -18.57,22.39 47,42.13 33.290001,-3.86 c 0,0 0.99,-0.87 1.59,1.93 z"
     id="path294"
     inkscape:connector-curvature="0"
     style="fill:url(#linear-gradient);stroke:#7fccea;stroke-width:7.56px;stroke-miterlimit:10"
     clip-path="url(#clipPath17481)"
     sodipodi:nodetypes="ccccccssscccccccc"
     transform="translate(-1.455745e-7,-0.03389634)" />
  <path
     style="fill:#2c2e2f;fill-opacity:1;stroke:#2c2e2f;stroke-width:33.3;stroke-linecap:butt;stroke-linejoin:miter;stroke-miterlimit:4;stroke-dasharray:none;stroke-opacity:1"
     d="m 209.90466,144.56356 c 18.6203,5.56988 38.79174,6.78004 57.52119,1.58899 15.99661,-4.43362 30.72369,-13.56863 41.47246,-26.21823 13.9308,-16.39435 20.69082,-37.804497 23.67585,-59.110165 0.34276,-2.446444 0.64091,-4.918714 0.45636,-7.38215 -0.18455,-2.463436 -0.88227,-4.94143 -2.36314,-6.918697 -1.53068,-2.043765 -3.77954,-3.416975 -6.03814,-4.608051 -11.2924,-5.95506 -24.11566,-8.545055 -36.86441,-9.216102 -14.30775,-0.753107 -28.93118,0.889094 -42.10805,6.514831 -8.51546,3.63559 -16.31351,8.891728 -23.04025,15.254237 -5.01268,4.741267 -9.44043,10.096891 -13.18856,15.889831 -7.20066,11.129017 -11.82513,23.742478 -15.25424,36.546606 -1.5591,5.8216 -2.8907,11.76993 -2.86017,17.79661 0.0131,2.59349 0.28967,5.2265 1.27119,7.62712 1.38489,3.38721 4.10516,6.10398 7.21207,8.03743 3.10691,1.93345 6.60195,3.14902 10.10784,4.19774 z"
     id="path33958"
     inkscape:path-effect="#path-effect33962"
     inkscape:original-d="m 209.90466,144.56356 c 0.42273,1.74688 31.99253,-0.84646 57.52119,1.58899 25.52866,2.43544 28.65566,-17.90155 41.47246,-26.21823 12.81679,-8.31668 15.7849,-39.405775 23.67585,-59.110165 7.89095,-19.70439 -1.27019,-9.532898 -1.90678,-14.300847 -0.6366,-4.767949 -4.02443,-3.071034 -6.03814,-4.608051 -2.01371,-1.537017 -24.57527,-6.143068 -36.86441,-9.216102 -12.28913,-3.073034 -28.07103,4.344221 -42.10805,6.514831 -14.03701,2.17061 -15.35917,10.170491 -23.04025,15.254237 -7.68109,5.083746 -8.79138,10.594221 -13.18856,15.889831 -4.39719,5.29561 -10.16849,24.365407 -15.25424,36.546606 -5.08575,12.1812 -1.90578,11.86541 -2.86017,17.79661 -0.95439,5.9312 0.84846,5.08575 1.27119,7.62712 0.42273,2.54137 16.89719,10.48829 17.31991,12.23517 z"
     sodipodi:nodetypes="ssssssssssssss" />
  <path
     style="fill:none;stroke:#e8cf1f;stroke-width:5.1;stroke-linecap:butt;stroke-linejoin:miter;stroke-miterlimit:4;stroke-dasharray:none;stroke-opacity:1"
     d="m 209.90466,144.56356 c 18.6203,5.56988 38.79174,6.78004 57.52119,1.58899 15.99661,-4.43362 30.72369,-13.56863 41.47246,-26.21823 13.9308,-16.39435 20.69082,-37.804497 23.67585,-59.110165 0.34276,-2.446444 0.64091,-4.918714 0.45636,-7.38215 -0.18455,-2.463436 -0.88227,-4.94143 -2.36314,-6.918697 -1.53068,-2.043765 -3.77954,-3.416975 -6.03814,-4.608051 -11.2924,-5.95506 -24.11566,-8.545055 -36.86441,-9.216102 -14.30775,-0.753107 -28.93118,0.889094 -42.10805,6.514831 -8.51546,3.63559 -16.31351,8.891728 -23.04025,15.254237 -5.01268,4.741267 -9.44043,10.096891 -13.18856,15.889831 -7.20066,11.129017 -11.82513,23.742478 -15.25424,36.546606 -1.5591,5.8216 -2.8907,11.76993 -2.86017,17.79661 0.0131,2.59349 0.28967,5.2265 1.27119,7.62712 1.38489,3.38721 4.10516,6.10398 7.21207,8.03743 3.10691,1.93345 6.60195,3.14902 10.10784,4.19774 z"
     id="path26573"
     inkscape:path-effect="#path-effect26575"
     inkscape:original-d="m 209.90466,144.56356 c 0.42273,1.74688 31.99253,-0.84646 57.52119,1.58899 25.52866,2.43544 28.65566,-17.90155 41.47246,-26.21823 12.81679,-8.31668 15.7849,-39.405775 23.67585,-59.110165 7.89095,-19.70439 -1.27019,-9.532898 -1.90678,-14.300847 -0.6366,-4.767949 -4.02443,-3.071034 -6.03814,-4.608051 -2.01371,-1.537017 -24.57527,-6.143068 -36.86441,-9.216102 -12.28913,-3.073034 -28.07103,4.344221 -42.10805,6.514831 -14.03701,2.17061 -15.35917,10.170491 -23.04025,15.254237 -7.68109,5.083746 -8.79138,10.594221 -13.18856,15.889831 -4.39719,5.29561 -10.16849,24.365407 -15.25424,36.546606 -5.08575,12.1812 -1.90578,11.86541 -2.86017,17.79661 -0.95439,5.9312 0.84846,5.08575 1.27119,7.62712 0.42273,2.54137 16.89719,10.48829 17.31991,12.23517 z"
     sodipodi:nodetypes="ssssssssssssss" />
  <path
     class="cls-4"
     d="m 215.36151,73.90874 c 14.26,-3.36 32.33,-2.07 41.48,11 11.94,17 3.65,38.43 -8.2,52.8 l -15,5.86 -24.37,-52"
     id="path298"
     inkscape:connector-curvature="0"
     style="fill:#292c2d" />
  <path
     style="fill:none;stroke:#e8cf1f;stroke-width:4.4;stroke-linecap:round;stroke-linejoin:miter;stroke-miterlimit:4;stroke-dasharray:none;stroke-opacity:1"
     d="M 298.09322,67.180088 227.22458,113.41949"
     id="path26861"
     inkscape:path-effect="#path-effect26863"
     inkscape:original-d="M 298.09322,67.180088 C 274.47134,82.594223 250.84846,98.007359 227.22458,113.41949" />
  <path
     style="fill:none;stroke:#e8cf1f;stroke-width:4.2;stroke-linecap:round;stroke-linejoin:miter;stroke-miterlimit:4;stroke-dasharray:none;stroke-opacity:1"
     d="M 293.81635,82.661644 282.58055,65.246143"
     id="path26898"
     inkscape:path-effect="#path-effect26900"
     inkscape:original-d="M 293.81635,82.661644 C 290.07208,76.857477 286.32682,71.05231 282.58055,65.246143" />
  <path
     class="cls-7"
     d="m 169.25151,175.90874 c -5.93,-12.36 -22.79,-20.63 -31.81,-23.63 -9.78,-3.19 -20.67,-4.07 -32.37,-2.61 a 103.47,103.47 0 0 0 -32.490001,9.6 l 9.92,6.9 a 94.31,94.31 0 0 1 23.850001,-6.21 c 10.17,-1.27 19.55,-0.53 27.87,2.18 10,3.26 22,10.56 25.68,18.22 1.61,3.34 0.85,6.51 -2.24,9.43 -4,3.8 -10.69,5.41 -14.26,3.43 -3.72,-2.06 -3.32,-8.07 -2.63,-11.85 l 0.43,-0.94 a 10.71,10.71 0 0 0 -10.56,-1.29 c -2.83,14.83 3.62,20.87 7.74,23.15 a 18.23,18.23 0 0 0 8.9,2.15 26.11,26.11 0 0 0 17.5,-7.1 c 6.37,-5.97 8.04,-14 4.47,-21.43 z"
     id="path308"
     inkscape:connector-curvature="0"
     style="fill:#878787" />
  <path
     class="cls-7"
     d="m 250.30151,143.77874 c -15.73,9.12 -34.43,12.83 -51.8,10 -11.16,-1.84 -21.46,-6.94 -32.37,-12.34 -9,-4.47 -18.39,-9.09 -28.31,-11.7 a 105.08,105.08 0 0 0 -45.070001,-2 c -15.58,2.81 -30,9 -40.53,17.46 l 8.95,6.23 c 9,-6.44 20.71,-11.19 33.41,-13.48 a 94.7,94.7 0 0 1 40.600001,1.86 c 8.9,2.34 17.38,6.53 26.35,11 11.11,5.5 22.6,11.18 35.28,13.27 a 82.75,82.75 0 0 0 13.36,1.08 91.23,91.23 0 0 0 52.35,-16.88 38.24,38.24 0 0 1 -12.22,-4.5 z"
     id="path310"
     inkscape:connector-curvature="0"
     style="fill:#878787" />
  <path
     style="fill:none;stroke:#e8cf1f;stroke-width:4.2;stroke-linecap:round;stroke-linejoin:miter;stroke-miterlimit:4;stroke-dasharray:none;stroke-opacity:1"
     d="M 283.25469,89.29077 272.01889,71.875269"
     id="path26935"
     inkscape:path-effect="#path-effect26939"
     inkscape:original-d="m 283.25469,89.29077 c -3.74427,-5.804167 -7.48953,-11.609334 -11.2358,-17.415501" />
  <path
     class="cls-7"
     d="m 203.23151,63.17874 c -5.1,-3.56 -11.55,-4.31 -16.45,-1.9 -2.69,1.33 -7.27,4.8 -7.64,13.07 v 0.35 l 0.11,1.22 c 2.67,2.05 6.33,2.63 9.15,2.72 l 1.49,-0.13 -0.36,-4 c 0.11,-1.49 0.53,-3.26 1.85,-3.91 1.48,-0.73 4,-0.27 5.92,1.09 a 6.79,6.79 0 0 1 3.06,6.43 c -0.4,3.71 -1.8,6.33 -4.41,8.24 -10.09,7.39 -34.49,2.49 -49.07,-0.44 -3.45,-0.69 -6.43,-1.29 -8.86,-1.67 -18.93,-3 -36,-3.42 -50.840001,-1.4 -19.9,2.71 -35.68,9.94 -46.9,21.47 l 0.31,0.29 9.81,4.38 c 22,-19.53 58.600001,-18.76 86.000001,-14.49 2.2,0.34 5.08,0.92 8.41,1.59 17.3,3.47 43.46,8.73 57.24,-1.36 5,-3.65 7.87,-8.87 8.59,-15.5 a 17.12,17.12 0 0 0 -7.41,-16.05 z"
     id="path312"
     inkscape:connector-curvature="0"
     style="fill:#878787" />
  <path
     style="fill:none;stroke:#e8cf1f;stroke-width:4.2;stroke-linecap:round;stroke-linejoin:miter;stroke-miterlimit:4;stroke-dasharray:none;stroke-opacity:1"
     d="M 273.03011,96.481686 261.79431,79.066185"
     id="path27021"
     inkscape:path-effect="#path-effect27025"
     inkscape:original-d="m 273.03011,96.481686 c -3.74427,-5.804167 -7.48953,-11.609334 -11.2358,-17.415501" />
  <path
     class="cls-7"
     d="m 252.01151,99.41874 c -0.84,-7.41 -5.88,-12.73 -13.47,-14.24 -9,-1.78 -19,2.25 -22.79,9.18 -5,9 1.66,17.54 4.77,20.84 l 0.54,0.57 a 21.21,21.21 0 0 0 8,-6.67 l -1,-1 c -2.31,-2.44 -4.74,-5.94 -3.22,-8.68 1.66,-3 7.23,-4.92 11.69,-4 4.71,0.94 5.08,4.18 5.2,5.24 0.86,7.57 -3.05,17.83 -8.37,22 -16.6,12.9 -37.54,4.63 -57.79,-3.37 -5.47,-2.16 -10.64,-4.2 -15.71,-5.83 -35.22,-11.26 -63.570001,-12.07 -89.230001,-2.54 l 12.13,7 c 21.210001,-5.63 45.000001,-3.86 73.940001,5.4 4.74,1.52 9.75,3.5 15.06,5.59 10.8,4.27 22,8.68 33.35,10.24 a 59.16,59.16 0 0 0 8,0.57 41.86,41.86 0 0 0 26.57,-8.89 c 9.15,-7.18 13.45,-21.55 12.33,-31.41 z"
     id="path314"
     inkscape:connector-curvature="0"
     style="fill:#878787" />
  <path
     style="fill:none;stroke:#e8cf1f;stroke-width:4.2;stroke-linecap:round;stroke-linejoin:miter;stroke-miterlimit:4;stroke-dasharray:none;stroke-opacity:1"
     d="M 262.24374,103.11081 251.00794,85.695311"
     id="path27027"
     inkscape:path-effect="#path-effect27031"
     inkscape:original-d="m 262.24374,103.11081 c -3.74427,-5.804165 -7.48953,-11.609332 -11.2358,-17.415499" />
  <path
     class="cls-10"
     d="m 198.50151,153.74874 c -2.05,-0.34 -4.07,-0.79 -6.07,-1.33 a 23.53,23.53 0 0 1 2.5,11.21 c 0.62,0.13 1.25,0.25 1.88,0.35 a 82.75,82.75 0 0 0 13.36,1.08 91.23,91.23 0 0 0 52.35,-16.78 38.24,38.24 0 0 1 -12.22,-4.45 c -15.73,9.07 -34.43,12.78 -51.8,9.92 z"
     id="path316"
     inkscape:connector-curvature="0"
     style="fill:#bababa" />
  <path
     style="fill:none;stroke:#e8cf1f;stroke-width:4.2;stroke-linecap:round;stroke-linejoin:miter;stroke-miterlimit:4;stroke-dasharray:none;stroke-opacity:1"
     d="M 251.79444,109.62758 240.55864,92.212079"
     id="path27033"
     inkscape:path-effect="#path-effect27037"
     inkscape:original-d="m 251.79444,109.62758 c -3.74427,-5.80417 -7.48953,-11.609334 -11.2358,-17.415501" />
  <path
     style="fill:none;stroke:#e8cf1f;stroke-width:4.2;stroke-linecap:round;stroke-linejoin:miter;stroke-miterlimit:4;stroke-dasharray:none;stroke-opacity:1"
     d="M 241.56986,116.59378 230.33406,99.178279"
     id="path27039"
     inkscape:path-effect="#path-effect27043"
     inkscape:original-d="m 241.56986,116.59378 c -3.74427,-5.80417 -7.48953,-11.60934 -11.2358,-17.415501" />
  <path
     class="cls-10"
     d="m 238.54151,85.17874 c -9,-1.78 -19,2.25 -22.79,9.18 -5,9 1.66,17.54 4.77,20.84 l 0.54,0.57 a 21.21,21.21 0 0 0 8,-6.67 l -1,-1 c -2.31,-2.44 -4.74,-5.94 -3.22,-8.68 1.66,-3 7.23,-4.92 11.69,-4 4.71,0.94 5.08,4.18 5.2,5.24 0.86,7.57 -3.05,17.83 -8.37,22 -15.66,12.16 -35.18,5.5 -54.34,-2 a 45,45 0 0 1 0.43,11.28 c 8.39,3.19 17,6.05 25.66,7.24 a 59.16,59.16 0 0 0 8,0.57 41.86,41.86 0 0 0 26.57,-8.89 c 9.13,-7.1 13.43,-21.51 12.31,-31.33 -0.82,-7.52 -5.86,-12.84 -13.45,-14.35 z"
     id="path318"
     inkscape:connector-curvature="0"
     style="fill:#bababa" />
  <path
     class="cls-10"
     d="m 202.07151,94.71874 c 5,-3.65 7.87,-8.87 8.59,-15.5 a 17.12,17.12 0 0 0 -7.43,-16 c -5.1,-3.56 -11.55,-4.31 -16.45,-1.9 -2.69,1.33 -7.27,4.8 -7.64,13.07 v 0.35 l 0.11,1.22 c 2.67,2.05 6.33,2.63 9.15,2.72 l 1.49,-0.13 -0.36,-4 c 0.11,-1.49 0.53,-3.26 1.85,-3.91 1.48,-0.73 4,-0.27 5.92,1.09 a 6.79,6.79 0 0 1 3.06,6.43 c -0.4,3.71 -1.8,6.33 -4.41,8.24 -8.11,5.95 -25.48,3.94 -39.55,1.4 a 65.69,65.69 0 0 1 13.29,12.37 c 12.19,1.11 24.38,0.41 32.38,-5.45 z"
     id="path320"
     inkscape:connector-curvature="0"
     style="fill:#bababa" />
  <path
     class="cls-8"
     d="m 119.18151,149.10874 a 83.59,83.59 0 0 0 -14.11,0.6 103.47,103.47 0 0 0 -32.490001,9.6 l 9.92,6.9 a 94.31,94.31 0 0 1 23.850001,-6.21 74.06,74.06 0 0 1 12.51,-0.53 24.8,24.8 0 0 0 0.32,-10.36 z"
     id="path322"
     inkscape:connector-curvature="0"
     style="fill:#646666" />
  <path
     class="cls-8"
     d="m 113.78151,136.55874 a 57.43,57.43 0 0 0 -9.23,-10.28 95.75,95.75 0 0 0 -11.800001,1.38 c -15.57,2.8 -30,9 -40.53,17.45 l 8.95,6.23 c 9,-6.44 20.71,-11.19 33.41,-13.48 a 90.59,90.59 0 0 1 19.200001,-1.3 z"
     id="path324"
     inkscape:connector-curvature="0"
     style="fill:#646666" />
  <path
     class="cls-8"
     d="m 82.741509,117.83874 a 91,91 0 0 1 10,-2.07 26.14,26.14 0 0 0 2,-10.75 103.84,103.84 0 0 0 -24.09,5.8 z"
     id="path326"
     inkscape:connector-curvature="0"
     style="fill:#646666" />
  <path
     class="cls-8"
     d="m 91.071509,92.83874 a 43.28,43.28 0 0 0 -7.41,-9.47 c -18.26,3 -32.86,10.09 -43.42,20.94 l 0.31,0.29 9.81,4.38 c 10.95,-9.7 25.5,-14.4 40.71,-16.14 z"
     id="path328"
     inkscape:connector-curvature="0"
     style="fill:#646666" />
</svg>
