<?xml version="1.0" encoding="UTF-8" standalone="no"?>
<svg
   id="Layer_1"
   data-name="Layer 1"
   viewBox="0 0 211.94183 251.7"
   version="1.1"
   sodipodi:docname="CIN.svg"
   width="211.94183"
   height="251.7"
   inkscape:version="1.1.1 (3bf5ae0d25, 2021-09-20)"
   xmlns:inkscape="http://www.inkscape.org/namespaces/inkscape"
   xmlns:sodipodi="http://sodipodi.sourceforge.net/DTD/sodipodi-0.dtd"
   xmlns="http://www.w3.org/2000/svg"
   xmlns:svg="http://www.w3.org/2000/svg"
   xmlns:rdf="http://www.w3.org/1999/02/22-rdf-syntax-ns#"
   xmlns:cc="http://creativecommons.org/ns#"
   xmlns:dc="http://purl.org/dc/elements/1.1/">
  <metadata
     id="metadata391">
    <rdf:RDF>
      <cc:Work
         rdf:about="">
        <dc:format>image/svg+xml</dc:format>
        <dc:type
           rdf:resource="http://purl.org/dc/dcmitype/StillImage" />
      </cc:Work>
    </rdf:RDF>
  </metadata>
  <sodipodi:namedview
     pagecolor="#898989"
     bordercolor="#ffffff"
     borderopacity="1"
     objecttolerance="10"
     gridtolerance="10"
     guidetolerance="10"
     inkscape:pageopacity="0"
     inkscape:pageshadow="2"
     inkscape:window-width="1920"
     inkscape:window-height="1017"
     id="namedview389"
     showgrid="false"
     inkscape:zoom="2.5173333"
     inkscape:cx="114.20816"
     inkscape:cy="140.42638"
     inkscape:window-x="-8"
     inkscape:window-y="-8"
     inkscape:window-maximized="1"
     inkscape:current-layer="Layer_1"
     inkscape:pagecheckerboard="true"
     fit-margin-top="0"
     fit-margin-left="0"
     fit-margin-right="0"
     fit-margin-bottom="0" />
  <defs
     id="defs4">
    <style
       id="style2">.cls-1,.cls-17,.cls-5{fill:#2966ef;}.cls-1,.cls-17,.cls-2{stroke:#2966ef;}.cls-1,.cls-10,.cls-11,.cls-12,.cls-13,.cls-15,.cls-16,.cls-17,.cls-2,.cls-6,.cls-9{stroke-miterlimit:10;}.cls-12,.cls-13,.cls-2{fill:none;}.cls-2{stroke-width:9.08px;}.cls-3{fill:#020202;}.cls-4{fill:#c11616;}.cls-10,.cls-11,.cls-14,.cls-16,.cls-6,.cls-7,.cls-8,.cls-9{fill:#fff;}.cls-6,.cls-7,.cls-8{stroke:#000;}.cls-11,.cls-6{stroke-width:16.5px;}.cls-7,.cls-8{stroke-linecap:round;stroke-linejoin:round;}.cls-7{stroke-width:3.43px;}.cls-8{stroke-width:3.14px;}.cls-10,.cls-16,.cls-9{stroke:#c11616;}.cls-9{stroke-width:2.48px;}.cls-10{stroke-width:3.95px;}.cls-11{stroke:#fff;}.cls-12{stroke:#231f20;}.cls-12,.cls-13{stroke-width:14.03px;}.cls-13,.cls-15{stroke:#c02026;}.cls-15{fill:#c02026;stroke-width:1.65px;}.cls-16{stroke-width:2.36px;}.cls-17{stroke-width:0.87px;}</style>
  </defs>
  <path
     class="cls-3"
     d="M 177.67,50.84 86.49,37.43 24.66,236.65 l 159,12.46 12.83,-58.53 -8.06,-41 22.38,-24.23 c 0,0 10.61,-58.49 -33.14,-74.51 z"
     id="path62"
     inkscape:connector-curvature="0"
     style="fill:#020202" />
  <polyline
     class="cls-5"
     points="609.26 585.34 768.17 598.8 584.51 601.39 670.96 387.12"
     id="polyline278"
     style="fill:#2966ef"
     transform="translate(-584.51,-349.69)" />
  <path
     class="cls-10"
     d="m 173.24,190.57 c -2.88,-17 -5.77,-34.71 -8.61,-52.65 l -0.19,-1.18 1.45,-0.67 c 9.12,-4.19 20.61,-14.19 23,-28.54 a 36.7,36.7 0 0 0 -7.72,-28.7 C 173.9,69.69 162.34,63.63 148.62,61.77 h -0.27 c -2.32,-0.45 -42,-5.69 -42.22,-4.35 l -29.09,133.2 4.46,0.1 c 11.13,0.24 16.56,0.39 27.62,0.75 l 3.5,0.11 11.48,-52.27 6.25,0.61 0.2,1.79 c 1.79,16.26 3.68,32.47 5.6,48.2 l 0.32,2.62 3.3,0.15 c 11.76,0.53 17.5,0.82 29.24,1.48 l 4.88,0.27 z m -25.85,-75.38 c -2.15,1.58 -4.69,2.14 -13.3,1.08 l -4.81,-0.59 5.56,-25.37 -11.68,-7.78 13.08,1.42 4.58,0.79 c 7.94,1.36 10.15,2.56 11.63,4.43 1.78,2.25 2.94,7.39 1.53,13.8 -1.15,5.27 -3.8,10.17 -6.59,12.22 z"
     id="path280"
     inkscape:connector-curvature="0"
     style="fill:#ffffff;stroke:#c11616;stroke-width:3.95px;stroke-miterlimit:10" />
  <polygon
     class="cls-4"
     points="758.53,560 753.45,577.67 632.13,568.42 649.99,513.96 641.77,555.66 "
     id="polygon282"
     style="fill:#c11616"
     transform="translate(-584.51,-349.69)" />
  <polyline
     class="cls-4"
     points="704.8 562.62 709.6 531.22 713.29 564.58"
     id="polyline284"
     style="fill:#c11616"
     transform="translate(-584.51,-349.69)" />
  <polygon
     points="728,482.5 744,532 736.5,480 "
     id="polygon286"
     transform="translate(-584.51,-349.69)" />
  <polygon
     points="676.74,401.23 715.73,398.76 703.66,393.92 720.55,393.63 676.73,379.79 703.61,373.05 627.44,349.69 662.26,371.68 642.46,376.78 "
     id="polygon292"
     transform="translate(-584.51,-349.69)" />
  <polyline
     points="676.73 379.79 767 402.33 693 399"
     id="polyline294"
     transform="translate(-584.51,-349.69)" />
</svg>
