<?xml version="1.0" encoding="UTF-8" standalone="no"?>
<svg
   id="Layer_1"
   data-name="Layer 1"
   viewBox="0 0 249.62999 299.54996"
   version="1.1"
   sodipodi:docname="CLE.svg"
   width="249.62999"
   height="299.54996"
   inkscape:version="1.1.1 (3bf5ae0d25, 2021-09-20)"
   xmlns:inkscape="http://www.inkscape.org/namespaces/inkscape"
   xmlns:sodipodi="http://sodipodi.sourceforge.net/DTD/sodipodi-0.dtd"
   xmlns:xlink="http://www.w3.org/1999/xlink"
   xmlns="http://www.w3.org/2000/svg"
   xmlns:svg="http://www.w3.org/2000/svg"
   xmlns:rdf="http://www.w3.org/1999/02/22-rdf-syntax-ns#"
   xmlns:cc="http://creativecommons.org/ns#"
   xmlns:dc="http://purl.org/dc/elements/1.1/">
  <metadata
     id="metadata351">
    <rdf:RDF>
      <cc:Work
         rdf:about="">
        <dc:format>image/svg+xml</dc:format>
        <dc:type
           rdf:resource="http://purl.org/dc/dcmitype/StillImage" />
      </cc:Work>
    </rdf:RDF>
  </metadata>
  <sodipodi:namedview
     pagecolor="#ffffff"
     bordercolor="#666666"
     borderopacity="1"
     objecttolerance="10"
     gridtolerance="10"
     guidetolerance="10"
     inkscape:pageopacity="0"
     inkscape:pageshadow="2"
     inkscape:window-width="1920"
     inkscape:window-height="1017"
     id="namedview349"
     showgrid="false"
     inkscape:zoom="3.5600469"
     inkscape:cx="115.58836"
     inkscape:cy="134.97013"
     inkscape:window-x="-8"
     inkscape:window-y="-8"
     inkscape:window-maximized="1"
     inkscape:current-layer="Layer_1"
     inkscape:pagecheckerboard="0" />
  <defs
     id="defs64">
    <style
       id="style2">.cls-1,.cls-14{fill:#231f20;}.cls-12,.cls-2,.cls-7{fill:#f8e4cd;}.cls-3{fill:#69625b;opacity:0.4;}.cls-4{fill:#401d5a;}.cls-5{fill:url(#linear-gradient);}.cls-6{fill:url(#linear-gradient-2);}.cls-7{opacity:0.2;}.cls-8{fill:#e2c2a6;}.cls-10,.cls-13,.cls-16,.cls-17,.cls-9{fill:none;}.cls-12,.cls-14,.cls-9{stroke:#231f20;}.cls-12,.cls-9{stroke-linecap:round;stroke-linejoin:round;}.cls-9{stroke-width:12.39px;}.cls-10,.cls-13{stroke:#e2c2a6;}.cls-10,.cls-13,.cls-14,.cls-16,.cls-17{stroke-miterlimit:10;}.cls-10{stroke-width:3.72px;}.cls-11{fill:url(#linear-gradient-3);}.cls-12{stroke-width:15.29px;}.cls-13,.cls-14,.cls-16,.cls-17{stroke-width:10.37px;}.cls-15{fill:url(#linear-gradient-5);}.cls-16{stroke:url(#linear-gradient-6);}.cls-17{stroke:url(#linear-gradient-7);}</style>
    <linearGradient
       id="linear-gradient"
       x1="423.57999"
       y1="1285.42"
       x2="474.57999"
       y2="1285.42"
       gradientUnits="userSpaceOnUse">
      <stop
         offset="0"
         stop-color="#432366"
         id="stop4" />
      <stop
         offset="1"
         stop-color="#432366"
         stop-opacity="0"
         id="stop6" />
    </linearGradient>
    <linearGradient
       id="linear-gradient-2"
       x1="279.20001"
       y1="558.84998"
       x2="279.20001"
       y2="450.81"
       xlink:href="#linear-gradient" />
    <linearGradient
       id="linear-gradient-3"
       x1="342.17999"
       y1="400.48001"
       x2="358.64001"
       y2="400.48001"
       gradientUnits="userSpaceOnUse">
      <stop
         offset="0"
         stop-color="#f8e4cd"
         stop-opacity="0"
         id="stop10" />
      <stop
         offset="1"
         stop-color="#f8e4cd"
         id="stop12" />
    </linearGradient>
    <linearGradient
       id="linear-gradient-5"
       x1="740.29999"
       y1="644.34003"
       x2="740.29999"
       y2="585.21997"
       gradientTransform="rotate(-90,127.63499,487.98)"
       gradientUnits="userSpaceOnUse">
      <stop
         offset="0"
         stop-color="#432366"
         id="stop15" />
      <stop
         offset="0.18"
         stop-color="#432366"
         stop-opacity="0.88"
         id="stop17" />
      <stop
         offset="0.52"
         stop-color="#432366"
         stop-opacity="0.56"
         id="stop19" />
      <stop
         offset="0.96"
         stop-color="#432366"
         stop-opacity="0.05"
         id="stop21" />
      <stop
         offset="1"
         stop-color="#432366"
         stop-opacity="0"
         id="stop23" />
    </linearGradient>
    <linearGradient
       id="linear-gradient-6"
       x1="794.51001"
       y1="491.29001"
       x2="849.46997"
       y2="491.29001"
       gradientUnits="userSpaceOnUse">
      <stop
         offset="0"
         stop-color="#dcbba4"
         stop-opacity="0"
         id="stop26" />
      <stop
         offset="0.02"
         stop-color="#dcbba4"
         stop-opacity="0.04"
         id="stop28" />
      <stop
         offset="0.17"
         stop-color="#debda5"
         stop-opacity="0.29"
         id="stop30" />
      <stop
         offset="0.32"
         stop-color="#dfbfa5"
         stop-opacity="0.51"
         id="stop32" />
      <stop
         offset="0.46"
         stop-color="#e0c0a5"
         stop-opacity="0.69"
         id="stop34" />
      <stop
         offset="0.6"
         stop-color="#e1c1a6"
         stop-opacity="0.82"
         id="stop36" />
      <stop
         offset="0.74"
         stop-color="#e2c1a6"
         stop-opacity="0.92"
         id="stop38" />
      <stop
         offset="0.87"
         stop-color="#e2c2a6"
         stop-opacity="0.98"
         id="stop40" />
      <stop
         offset="0.99"
         stop-color="#e2c2a6"
         id="stop42" />
    </linearGradient>
    <linearGradient
       id="linear-gradient-7"
       x1="631.63"
       y1="491.29001"
       x2="686.59003"
       y2="491.29001"
       gradientUnits="userSpaceOnUse">
      <stop
         offset="0.01"
         stop-color="#e2c2a6"
         id="stop45" />
      <stop
         offset="0.13"
         stop-color="#e2c2a6"
         stop-opacity="0.98"
         id="stop47" />
      <stop
         offset="0.26"
         stop-color="#e2c1a6"
         stop-opacity="0.92"
         id="stop49" />
      <stop
         offset="0.4"
         stop-color="#e1c1a6"
         stop-opacity="0.82"
         id="stop51" />
      <stop
         offset="0.54"
         stop-color="#e0c0a5"
         stop-opacity="0.69"
         id="stop53" />
      <stop
         offset="0.68"
         stop-color="#dfbfa5"
         stop-opacity="0.51"
         id="stop55" />
      <stop
         offset="0.83"
         stop-color="#debda5"
         stop-opacity="0.29"
         id="stop57" />
      <stop
         offset="0.98"
         stop-color="#dcbba4"
         stop-opacity="0.04"
         id="stop59" />
      <stop
         offset="1"
         stop-color="#dcbba4"
         stop-opacity="0"
         id="stop61" />
    </linearGradient>
  </defs>
  <circle
     class="cls-12"
     cx="124.81499"
     cy="124.81499"
     r="117.17"
     id="circle276"
     style="fill:#f8e4cd;stroke:#231f20;stroke-width:15.28999996px;stroke-linecap:round;stroke-linejoin:round" />
  <ellipse
     class="cls-8"
     cx="32.771996"
     cy="172.4417"
     rx="25.030001"
     ry="21.690001"
     transform="rotate(-10.23)"
     id="ellipse278"
     style="fill:#e2c2a6" />
  <ellipse
     class="cls-8"
     cx="98.354324"
     cy="210.63571"
     rx="31.1"
     ry="22.57"
     transform="rotate(-10.23)"
     id="ellipse280"
     style="fill:#e2c2a6" />
  <ellipse
     class="cls-8"
     cx="163.27098"
     cy="195.21577"
     rx="15.89"
     ry="13.62"
     transform="rotate(-10.23)"
     id="ellipse282"
     style="fill:#e2c2a6" />
  <g
     id="_8lvMbs-3"
     data-name="8lvMbs"
     transform="translate(-615.61499,-360.34501)">
    <path
       d="m 832.51,449.44 a 1.77,1.77 0 0 1 -0.74,-0.26 12.85,12.85 0 0 0 -7.91,-0.63 10.1,10.1 0 0 0 -6.16,4.38 12.76,12.76 0 0 0 -2,6.22 c 0,0.14 0.06,0.34 -0.1,0.38 -0.16,0.04 -0.18,-0.17 -0.26,-0.27 a 11.2,11.2 0 0 0 -5.92,-4.16 14.36,14.36 0 0 0 -8.29,-0.19 10.08,10.08 0 0 0 -5.17,3.14 8.33,8.33 0 0 0 -2,4.9 c 0,0.2 0,0.41 0,0.61 -0.13,0 -0.15,-0.07 -0.18,-0.12 a 8.27,8.27 0 0 0 -3.44,-3 12.22,12.22 0 0 0 -5.75,-1.37 8.53,8.53 0 0 0 -4.33,1.06 5.61,5.61 0 0 0 -2.82,4.37 7.58,7.58 0 0 0 -0.06,1.43 c 0,0.1 0.06,0.23 0,0.28 -0.06,0.05 -0.19,-0.08 -0.27,-0.16 a 6.89,6.89 0 0 1 -0.86,-1.22 3.75,3.75 0 0 0 -1.69,-1.56 6.81,6.81 0 0 0 -1.89,-0.53 13,13 0 0 0 -3.36,0 1.65,1.65 0 0 0 -1,0.63 c -0.48,0.52 -0.92,1.09 -1.4,1.61 a 1.94,1.94 0 0 1 -3.19,-0.37 10.87,10.87 0 0 1 -0.71,-1.9 l -0.08,-0.26 a 2.41,2.41 0 0 0 -1.89,-1.78 9,9 0 0 0 -6.2,0.71 l -0.2,0.11 a 0.15,0.15 0 0 1 -0.13,0 c -0.06,0 0,-0.09 0,-0.14 0,-0.05 0.16,-0.4 0.23,-0.59 a 5.85,5.85 0 0 0 -1.92,-6.89 11.55,11.55 0 0 0 -9.88,-2.23 6.65,6.65 0 0 0 -2.48,1.09 l -0.18,0.1 h -0.09 c 0.1,-0.56 0.27,-1.1 0.35,-1.66 a 9.71,9.71 0 0 0 -3.36,-9.07 13.25,13.25 0 0 0 -9.5,-3.29 14.25,14.25 0 0 0 -4.09,1.05 l -1.27,0.41 c -0.12,0 -0.28,0.13 -0.38,0 -0.1,-0.13 0,-0.25 0,-0.37 a 12.8,12.8 0 0 0 0.66,-4.87 10.45,10.45 0 0 0 -4,-7.74 12.61,12.61 0 0 0 -8,-2.65 h -0.33 c 0,0 0,0 -0.06,0 -0.06,0 0.19,-0.23 0.3,-0.33 a 26.3,26.3 0 0 1 5.17,-3.09 c 2.56,-1.21 5.08,-2.48 7.71,-3.53 a 17.47,17.47 0 0 1 11.13,-0.61 19.53,19.53 0 0 1 5.39,2.17 19.89,19.89 0 0 1 4.56,4 60.92,60.92 0 0 1 4.36,6 49.58,49.58 0 0 0 7.63,9.15 38.77,38.77 0 0 0 3.82,3.06 c 0.86,0.61 1.76,1.14 2.64,1.69 l 0.36,0.19 c 0.17,0.09 0.22,0 0.27,-0.15 a 4,4 0 0 0 -0.07,-2 15.82,15.82 0 0 1 -0.41,-2.05 5,5 0 0 1 0.14,-1.89 c 0.1,-0.4 0.15,-0.42 0.46,-0.16 a 12.25,12.25 0 0 0 1.89,1.31 l 0.85,0.46 a 0.43,0.43 0 0 0 0.41,0 5.85,5.85 0 0 1 5.34,0.15 4.66,4.66 0 0 1 1.34,1 0.87,0.87 0 0 0 0.8,0.29 18.78,18.78 0 0 0 3,-0.46 c 0.33,-0.08 0.36,-0.06 0.25,0.27 a 5.94,5.94 0 0 1 -0.64,1.46 c -0.48,0.77 -1,1.54 -1.45,2.28 -0.34,0.49 -0.24,1.05 -0.36,1.58 0,0.19 0.17,0.15 0.29,0.17 a 13.59,13.59 0 0 0 3.66,-0.11 27.25,27.25 0 0 0 9,-3.22 c 2.65,-1.48 5.16,-3.19 7.74,-4.79 a 34.69,34.69 0 0 1 8.43,-4.12 18.84,18.84 0 0 1 12.44,0.43 22.62,22.62 0 0 1 8.08,5.69 58.7,58.7 0 0 1 5.45,6.83 l 2.09,2.93 c 0.16,0 0.25,0.06 0.23,0.2 z"
       id="path290"
       inkscape:connector-curvature="0" />
  </g>
  <g
     id="_8lvMbs-4"
     data-name="8lvMbs"
     transform="translate(-615.61499,-360.34501)">
    <path
       d="m 790.27,492 a 1.46,1.46 0 0 1 -0.59,-0.08 9.79,9.79 0 0 0 -6,0.72 7.7,7.7 0 0 0 -3.93,4.2 9.67,9.67 0 0 0 -0.54,4.94 c 0,0.1 0.1,0.24 0,0.3 -0.1,0.06 -0.16,-0.1 -0.23,-0.17 a 8.51,8.51 0 0 0 -5.05,-2.21 10.87,10.87 0 0 0 -6.21,1.11 7.56,7.56 0 0 0 -3.38,3.12 6.32,6.32 0 0 0 -0.73,3.95 l 0.06,0.46 c -0.09,0 -0.12,0 -0.15,-0.06 a 6.36,6.36 0 0 0 -3,-1.71 9.52,9.52 0 0 0 -4.5,-0.15 6.43,6.43 0 0 0 -3.07,1.45 4.25,4.25 0 0 0 -1.45,3.68 6.73,6.73 0 0 0 0.17,1.08 c 0,0.07 0.08,0.16 0,0.21 -0.08,0.05 -0.16,0 -0.23,-0.07 a 5.18,5.18 0 0 1 -0.83,-0.79 2.86,2.86 0 0 0 -1.49,-0.91 5.73,5.73 0 0 0 -1.49,-0.11 10.27,10.27 0 0 0 -2.51,0.51 1.23,1.23 0 0 0 -0.65,0.62 c -0.28,0.46 -0.51,0.95 -0.8,1.41 a 1.48,1.48 0 0 1 -2.43,0.2 8.46,8.46 0 0 1 -0.82,-1.31 1.62,1.62 0 0 0 -0.1,-0.18 1.85,1.85 0 0 0 -1.68,-1.05 6.84,6.84 0 0 0 -4.51,1.47 l -0.14,0.11 c 0,0 -0.07,0 -0.09,0 -0.02,0 0,-0.07 0,-0.11 0,-0.04 0,-0.31 0.08,-0.47 a 4.45,4.45 0 0 0 -2.47,-4.85 8.77,8.77 0 0 0 -7.71,-0.18 5,5 0 0 0 -1.69,1.2 l -0.11,0.1 h -0.07 c 0,-0.43 0,-0.86 0,-1.29 a 7.41,7.41 0 0 0 -3.88,-6.27 10.08,10.08 0 0 0 -7.58,-1 11.26,11.26 0 0 0 -2.9,1.4 c -0.29,0.17 -0.58,0.34 -0.88,0.5 -0.09,0.05 -0.19,0.14 -0.28,0.08 -0.09,-0.06 0,-0.18 0,-0.28 a 10.19,10.19 0 0 0 -0.24,-3.73 7.93,7.93 0 0 0 -4.15,-5.17 9.61,9.61 0 0 0 -6.33,-0.78 h -0.25 v 0 c 0,-0.14 0.11,-0.21 0.18,-0.29 a 19.89,19.89 0 0 1 3.39,-3.09 c 1.73,-1.29 3.42,-2.62 5.22,-3.8 a 13.39,13.39 0 0 1 8.21,-2.13 14.62,14.62 0 0 1 4.35,0.81 15.26,15.26 0 0 1 4,2.27 48.28,48.28 0 0 1 4.15,3.81 38,38 0 0 0 7.08,5.68 28.68,28.68 0 0 0 3.31,1.7 c 0.73,0.32 1.48,0.59 2.22,0.87 l 0.3,0.08 c 0.14,0 0.16,0 0.17,-0.15 a 3,3 0 0 0 -0.35,-1.52 11.15,11.15 0 0 1 -0.62,-1.47 3.86,3.86 0 0 1 -0.18,-1.43 c 0,-0.31 0,-0.34 0.32,-0.19 a 9.56,9.56 0 0 0 1.61,0.7 c 0.23,0.08 0.47,0.13 0.7,0.21 a 0.31,0.31 0 0 0 0.31,-0.08 4.47,4.47 0 0 1 4,-0.69 3.59,3.59 0 0 1 1.16,0.57 0.67,0.67 0 0 0 0.64,0.1 16.45,16.45 0 0 0 2.16,-0.8 c 0.23,-0.11 0.26,-0.1 0.23,0.16 a 4.77,4.77 0 0 1 -0.26,1.19 c -0.24,0.64 -0.47,1.29 -0.74,1.92 a 3,3 0 0 0 0,1.23 c 0,0.15 0.15,0.09 0.24,0.08 a 10.16,10.16 0 0 0 2.72,-0.63 20.93,20.93 0 0 0 6.26,-3.76 c 1.75,-1.51 3.37,-3.16 5,-4.75 a 26.59,26.59 0 0 1 5.67,-4.34 14.39,14.39 0 0 1 9.35,-1.56 17.35,17.35 0 0 1 6.89,3 46.21,46.21 0 0 1 5.09,4.27 l 2,1.88 c -0.03,0.14 0.04,0.17 0.05,0.26 z"
       id="path293"
       inkscape:connector-curvature="0" />
  </g>
  <rect
     class="cls-14"
     x="37.135006"
     y="214.50497"
     width="175.10001"
     height="79.860001"
     rx="34.669998"
     id="rect296"
     style="fill:#231f20;stroke:#231f20;stroke-width:10.36999989px;stroke-miterlimit:10" />
  <rect
     class="cls-15"
     x="224.87498"
     y="-201.86504"
     width="59.119999"
     height="154.36"
     rx="24.67"
     transform="rotate(90)"
     id="rect298"
     style="fill:url(#linear-gradient-5)" />
  <path
     class="cls-2"
     d="m 117.22501,266.83499 a 2.34,2.34 0 0 1 0.38,2.17 4,4 0 0 1 -1.58,1.83 13.26,13.26 0 0 1 -3,1.45 36.12,36.12 0 0 1 -3.64,1.07 37,37 0 0 1 -3.9,0.69 29.23,29.23 0 0 1 -3.49,0.24 22.87,22.87 0 0 0 -2.790005,-1 c -0.85,-0.23 -1.68,-0.41 -2.48,-0.55 -0.8,-0.14 -1.62,-0.29 -2.42,-0.45 a 21.18,21.18 0 0 1 -2.45,-0.65 30.4,30.4 0 0 1 -5.17,-6.18 17.88,17.88 0 0 1 -2.49,-6.52 31.63,31.63 0 0 1 -0.17,-5.8 38.48,38.48 0 0 1 0.83,-6.07 34.72,34.72 0 0 1 1.83,-5.93 32.26,32.26 0 0 1 2.82,-5.45 13.56,13.56 0 0 1 3,-3.14 28.16,28.16 0 0 1 4.45,-2.9 25.89,25.89 0 0 1 4.900005,-2 10.63,10.63 0 0 1 4.41,-0.45 16.2,16.2 0 0 0 2.69,0.07 22.23,22.23 0 0 1 3.56,0.14 9.79,9.79 0 0 1 3.07,0.82 2.15,2.15 0 0 1 1.31,2.07 2,2 0 0 1 -0.73,1.49 1.81,1.81 0 0 0 -0.72,1.27 c 0,0.1 0.08,0.13 0.24,0.11 a 1.69,1.69 0 0 1 0.45,0 0.45,0.45 0 0 1 0.31,0.17 c 0.07,0.09 0,0.3 -0.1,0.62 -0.1,0.32 -0.19,0.44 -0.28,0.62 a 6,6 0 0 1 -0.31,0.55 5.21,5.21 0 0 0 -0.31,0.56 14.89,14.89 0 0 1 -1,1.55 q -0.59,0.79 -1.14,1.41 l -1.31,1.45 a 0.93,0.93 0 0 1 -1.21,0.38 4.34,4.34 0 0 1 -1.41,-1.21 q -0.76,-0.89 -1.62,-2.1 a 16.87,16.87 0 0 0 -1.9,-2.21 9.09,9.09 0 0 0 -2.21,-1.58 3.66,3.66 0 0 0 -2.48,-0.32 3.34,3.34 0 0 0 -2.660005,1.25 11.56,11.56 0 0 0 -2.07,3.24 20.13,20.13 0 0 0 -1.31,4 17,17 0 0 0 -0.45,3.52 29.63,29.63 0 0 0 0.79,6.73 23.33,23.33 0 0 0 2.45,6.31 18.36,18.36 0 0 0 4.180005,5 12.45,12.45 0 0 0 5.9,2.73 c 0.36,0.09 0.78,-0.09 1.24,-0.55 0.46,-0.46 0.91,-0.92 1.34,-1.38 a 11.35,11.35 0 0 1 1.14,-1.07 c 0.32,-0.25 0.53,-0.15 0.62,0.31 1,0.55 1.59,1.15 1.73,1.79 a 0.41,0.41 0 0 1 0,0.35 1.93,1.93 0 0 1 -0.27,0.41 1.3,1.3 0 0 0 -0.24,0.38 c 0,0.12 0,0.17 0.07,0.17 a 1.34,1.34 0 0 0 0.79,-0.1 l 0.86,-0.34 a 2.5,2.5 0 0 1 0.8,-0.21 0.62,0.62 0 0 1 0.58,0.24 z"
     id="path300"
     inkscape:connector-curvature="0"
     style="fill:#f8e4cd" />
  <path
     class="cls-2"
     d="m 169.11501,266.83499 a 2.37,2.37 0 0 1 0.38,2.17 4.09,4.09 0 0 1 -1.59,1.83 13,13 0 0 1 -3,1.45 35.4,35.4 0 0 1 -3.69,1.07 37,37 0 0 1 -3.9,0.69 29.08,29.08 0 0 1 -3.48,0.24 23,23 0 0 0 -2.8,-1 c -0.85,-0.23 -1.68,-0.41 -2.48,-0.55 -0.8,-0.14 -1.61,-0.29 -2.42,-0.45 a 21.73,21.73 0 0 1 -2.45,-0.65 30.72,30.72 0 0 1 -5.17,-6.18 17.68,17.68 0 0 1 -2.48,-6.52 31.6,31.6 0 0 1 -0.18,-5.8 39.69,39.69 0 0 1 0.83,-6.07 36.6,36.6 0 0 1 1.83,-5.93 31.59,31.59 0 0 1 2.83,-5.45 13.28,13.28 0 0 1 3,-3.14 28.63,28.63 0 0 1 4.45,-2.9 25.89,25.89 0 0 1 4.9,-2 10.69,10.69 0 0 1 4.42,-0.45 16.11,16.11 0 0 0 2.69,0.07 22.11,22.11 0 0 1 3.55,0.14 9.71,9.71 0 0 1 3.07,0.82 2.15,2.15 0 0 1 1.31,2.07 2,2 0 0 1 -0.72,1.49 1.83,1.83 0 0 0 -0.73,1.27 c 0,0.1 0.08,0.13 0.25,0.11 a 1.62,1.62 0 0 1 0.44,0 0.43,0.43 0 0 1 0.31,0.17 c 0.07,0.09 0,0.3 -0.1,0.62 a 5.19,5.19 0 0 1 -0.28,0.62 4.29,4.29 0 0 1 -0.31,0.55 l -0.31,0.56 a 13.41,13.41 0 0 1 -1,1.55 q -0.58,0.79 -1.14,1.41 l -1.31,1.45 a 0.92,0.92 0 0 1 -1.2,0.38 4.46,4.46 0 0 1 -1.42,-1.21 q -0.76,-0.89 -1.62,-2.1 a 16.87,16.87 0 0 0 -1.9,-2.21 8.9,8.9 0 0 0 -2.21,-1.58 3.66,3.66 0 0 0 -2.48,-0.32 3.35,3.35 0 0 0 -2.66,1.25 12,12 0 0 0 -2.07,3.24 20.8,20.8 0 0 0 -1.31,4 17,17 0 0 0 -0.45,3.52 29.65,29.65 0 0 0 0.8,6.73 23,23 0 0 0 2.45,6.31 18.15,18.15 0 0 0 4.17,5 12.5,12.5 0 0 0 5.9,2.73 c 0.37,0.09 0.78,-0.09 1.24,-0.55 0.46,-0.46 0.91,-0.92 1.35,-1.38 a 10.36,10.36 0 0 1 1.14,-1.07 c 0.32,-0.25 0.53,-0.15 0.62,0.31 1,0.55 1.59,1.15 1.72,1.79 a 0.37,0.37 0 0 1 0,0.35 2,2 0 0 1 -0.28,0.41 1.93,1.93 0 0 0 -0.24,0.38 c 0,0.12 0,0.17 0.07,0.17 a 1.34,1.34 0 0 0 0.79,-0.1 l 0.87,-0.34 a 2.45,2.45 0 0 1 0.79,-0.21 0.64,0.64 0 0 1 0.59,0.24 z"
     id="path302"
     inkscape:connector-curvature="0"
     style="fill:#f8e4cd" />
  <line
     class="cls-16"
     x1="178.89502"
     y1="130.94501"
     x2="233.85498"
     y2="130.94501"
     id="line304"
     style="fill:none;stroke:url(#linear-gradient-6);stroke-width:10.36999989px;stroke-miterlimit:10" />
</svg>
