<?xml version="1.0" encoding="UTF-8" standalone="no"?>
<svg
   id="Layer_1"
   data-name="Layer 1"
   viewBox="0 0 114.17991 98.155997"
   version="1.1"
   sodipodi:docname="DAL.svg"
   width="114.17991"
   height="98.155998"
   inkscape:version="1.1.1 (3bf5ae0d25, 2021-09-20)"
   xmlns:inkscape="http://www.inkscape.org/namespaces/inkscape"
   xmlns:sodipodi="http://sodipodi.sourceforge.net/DTD/sodipodi-0.dtd"
   xmlns="http://www.w3.org/2000/svg"
   xmlns:svg="http://www.w3.org/2000/svg"
   xmlns:rdf="http://www.w3.org/1999/02/22-rdf-syntax-ns#"
   xmlns:cc="http://creativecommons.org/ns#"
   xmlns:dc="http://purl.org/dc/elements/1.1/">
  <metadata
     id="metadata273">
    <rdf:RDF>
      <cc:Work
         rdf:about="">
        <dc:format>image/svg+xml</dc:format>
        <dc:type
           rdf:resource="http://purl.org/dc/dcmitype/StillImage" />
      </cc:Work>
    </rdf:RDF>
  </metadata>
  <sodipodi:namedview
     pagecolor="#808080"
     bordercolor="#666666"
     borderopacity="1"
     objecttolerance="10"
     gridtolerance="10"
     guidetolerance="10"
     inkscape:pageopacity="0"
     inkscape:pageshadow="2"
     inkscape:window-width="1920"
     inkscape:window-height="1017"
     id="namedview271"
     showgrid="false"
     inkscape:zoom="5.6568543"
     inkscape:cx="68.324192"
     inkscape:cy="66.379648"
     inkscape:window-x="-8"
     inkscape:window-y="-8"
     inkscape:window-maximized="1"
     inkscape:current-layer="Layer_1"
     inkscape:pagecheckerboard="true"
     fit-margin-top="0"
     fit-margin-left="0"
     fit-margin-right="0"
     fit-margin-bottom="0" />
  <defs
     id="defs4">
    <style
       id="style2">.cls-1,.cls-9{fill:#be2026;}.cls-2,.cls-7{fill:#2b2e81;}.cls-3,.cls-6{fill:#fff;}.cls-3{stroke:#231f20;}.cls-10,.cls-11,.cls-12,.cls-13,.cls-14,.cls-3,.cls-5,.cls-7,.cls-8,.cls-9{stroke-miterlimit:10;}.cls-4{fill:#d5a833;}.cls-10,.cls-11,.cls-12,.cls-13,.cls-14,.cls-5,.cls-8{fill:none;}.cls-13,.cls-5{stroke:#2b2e81;}.cls-5,.cls-7,.cls-8{stroke-width:10px;}.cls-7,.cls-8{stroke:#be2026;}.cls-10,.cls-11,.cls-12,.cls-14,.cls-9{stroke:#fff;}.cls-10,.cls-9{stroke-width:6.44px;}.cls-11{stroke-width:3px;}.cls-12{stroke-width:2.49px;}.cls-13,.cls-14{stroke-width:0.71px;}</style>
  </defs>
  <path
     class="cls-6"
     d="m 25.68897,10.230594 -0.870003,0.63 c -2.06,1.51 -4.11,3 -6.18,4.53 a 0.75,0.75 0 0 0 -0.33,1 c 0.87,2.59 1.69,5.19 2.52,7.79 l 0.15,0.46 c -0.2,0 -0.29,-0.09 -0.4,-0.17 -2.28,-1.64 -4.57,-3.28 -6.84,-4.94 a 0.54,0.54 0 0 0 -0.76,0 c -2.27,1.64 -4.5500004,3.26 -6.8200004,4.89 l -0.54,0.38 0.58,-1.87 c 0.72,-2.21 1.42,-4.43 2.15,-6.63 a 0.61,0.61 0 0 0 -0.26,-0.81 c -2.26,-1.64 -4.51,-3.31 -6.76,-5 -0.13,-0.09 -0.29,-0.14 -0.36999995,-0.39 H 3.6389666 c 2.1,0 4.2,0 6.3,0 A 0.51,0.51 0 0 0 10.548967,9.6605945 c 0.85,-2.660001 1.72,-5.320001 2.59,-8.000001 a 0.72,0.72 0 0 1 0.27,-0.49 l 1.29,3.94 c 0.49,1.51 1,3 1.46,4.540001 0.11,0.3599995 0.28,0.4299995 0.62,0.4299995 2.82,0 5.63,0 8.45,0 0.11,0.05 0.280003,-0.01 0.460003,0.15 z"
     id="path10831"
     inkscape:connector-curvature="0"
     style="fill:#be2026;fill-opacity:1;stroke:#be2026;stroke-width:1.4;stroke-miterlimit:4;stroke-dasharray:none;stroke-opacity:1" />
  <path
     class="cls-6"
     d="m 25.68897,10.230594 -0.870003,0.63 c -2.06,1.51 -4.11,3 -6.18,4.53 a 0.75,0.75 0 0 0 -0.33,1 c 0.87,2.59 1.69,5.19 2.52,7.79 l 0.15,0.46 c -0.2,0 -0.29,-0.09 -0.4,-0.17 -2.28,-1.64 -4.57,-3.28 -6.84,-4.94 a 0.54,0.54 0 0 0 -0.76,0 c -2.27,1.64 -4.5500004,3.26 -6.8200004,4.89 l -0.54,0.38 0.58,-1.87 c 0.72,-2.21 1.42,-4.43 2.15,-6.63 a 0.61,0.61 0 0 0 -0.26,-0.81 c -2.26,-1.64 -4.51,-3.31 -6.76,-5 -0.13,-0.09 -0.29,-0.14 -0.36999995,-0.39 H 3.6389666 c 2.1,0 4.2,0 6.3,0 A 0.51,0.51 0 0 0 10.548967,9.6605945 c 0.85,-2.660001 1.72,-5.320001 2.59,-8.000001 a 0.72,0.72 0 0 1 0.27,-0.49 l 1.29,3.94 c 0.49,1.51 1,3 1.46,4.540001 0.11,0.3599995 0.28,0.4299995 0.62,0.4299995 2.82,0 5.63,0 8.45,0 0.11,0.05 0.280003,-0.01 0.460003,0.15 z"
     id="path10481"
     inkscape:connector-curvature="0"
     style="fill:#000000" />
  <path
     id="path1916"
     style="fill:#2b2e81;fill-opacity:1"
     class="cls-6"
     d="m 38.84983,4.3903645 c 0,11.6269495 0,23.2539095 0,34.8808595 -7.96875,0 -15.937503,0 -23.906253,0 -0.173872,1.78776 -0.348052,3.57548 -0.521485,5.36328 2.112511,1.98727 4.329334,3.87058 6.219156,6.07967 2.148557,2.37267 4.383659,4.69193 6.478392,7.09783 0.94935,2.5039 1.89676,5.00853 2.84737,7.51195 2.97114,2.31604 5.94299,4.63116 8.91407,6.94727 1.75065,0 3.5013,0 5.25195,0 1.37293,-2.73247 2.74061,-5.46759 4.11133,-8.20117 1.26823,0 2.53646,0 3.80469,0 0.79116,1.26553 1.58019,2.53239 2.37304,3.79687 0.78466,0.23582 1.56904,0.47259 2.35352,0.70899 1.76982,4.17678 3.85576,8.20999 5.96484,12.22265 1.00975,0.43363 2.01953,0.86719 3.0293,1.30078 0,1.34375 0,2.6875 0,4.03125 1.79123,2.08827 3.58381,4.17538 5.375,6.26368 4.31949,1.92094 8.63874,3.84244 12.95898,5.76172 2.28945,-1.52872 4.57925,-3.05693 6.86719,-4.5879 -1.64084,-3.91293 -3.05138,-8.16202 -2.40071,-12.45877 0.49967,-3.81865 2.99554,-7.13093 6.19583,-9.16413 2.23169,-1.46008 4.74329,-2.47829 7.35137,-3.02749 0.75547,-1.74491 2.52244,-2.6552 4.08653,-3.55296 2.54586,-1.39024 5.25542,-2.44384 7.97597,-3.43532 -0.60302,-1.64338 -1.31429,-3.26949 -1.84889,-4.92411 0.17099,-3.69066 0.34193,-7.38132 0.51295,-11.07198 -1.22239,-2.14042 -2.53984,-4.249 -3.69911,-6.41158 -0.66828,-4.87514 -1.33332,-9.75072 -2.00402,-14.62553 -2.35826,0.40497 -4.95723,1.05304 -7.19336,-0.16797 -1.29069,-0.60329 -1.9798,-1.87951 -2.65234,-3.05859 -3.32974,1.36738 -6.83424,2.38746 -10.44576,2.57609 -7.13971,0.42418 -14.30689,-1.65052 -20.40971,-5.30461 0,-5.51693 0,-11.0338525 0,-16.5507795 -9.19661,0 -18.39323,0 -27.58984,0 0,0.666667 0,1.333333 0,2 z" />
  <path
     class="cls-6"
     d="m 25.68897,10.230594 -0.870003,0.63 c -2.06,1.51 -4.11,3 -6.18,4.53 a 0.75,0.75 0 0 0 -0.33,1 c 0.87,2.59 1.69,5.19 2.52,7.79 l 0.15,0.46 c -0.2,0 -0.29,-0.09 -0.4,-0.17 -2.28,-1.64 -4.57,-3.28 -6.84,-4.94 a 0.54,0.54 0 0 0 -0.76,0 c -2.27,1.64 -4.5500004,3.26 -6.8200004,4.89 l -0.54,0.38 0.58,-1.87 c 0.72,-2.21 1.42,-4.43 2.15,-6.63 a 0.61,0.61 0 0 0 -0.26,-0.81 c -2.26,-1.64 -4.51,-3.31 -6.76,-5 -0.13,-0.09 -0.29,-0.14 -0.36999995,-0.39 H 3.6389666 c 2.1,0 4.2,0 6.3,0 A 0.51,0.51 0 0 0 10.548967,9.6605945 c 0.85,-2.660001 1.72,-5.320001 2.59,-8.000001 a 0.72,0.72 0 0 1 0.27,-0.49 l 1.29,3.94 c 0.49,1.51 1,3 1.46,4.540001 0.11,0.3599995 0.28,0.4299995 0.62,0.4299995 2.82,0 5.63,0 8.45,0 0.11,0.05 0.280003,-0.01 0.460003,0.15 z"
     id="path202"
     inkscape:connector-curvature="0"
     style="fill:#ffffff;stroke:none;stroke-width:1;stroke-miterlimit:4;stroke-dasharray:none;stroke-opacity:1" />
  <path
     class="cls-6"
     d="M 16.758967,41.270594 H 40.84896 V 4.3905935 h 23.59 V 20.030594 c 0,0 15.12,10.76 32,4.1 0,0 2.3,4.36 9,3.08 l 1.79,13.07 3.59,6.15 -0.51,11 1.28,3.33 c 0,0 -9.23,3.34 -10.77,6.41 0,0 -21,4.36 -12.3,25.63 l -4.61,3.08 -11.54,-5.13 -4.6,-5.36 v -4.61 l -3.59,-1.54 c 0,0 -4.36,-8.2 -5.9,-12.3 l -2.56,-0.77 -2.56,-4.1 h -6.15 l -4.11,8.2 h -3.33 l -7.92999,-6.18 -2.82,-7.44 -8.720003,-9.48 -3.59,-3.33 z"
     id="path210"
     inkscape:connector-curvature="0"
     style="fill:#ffffff" />
  <path
     class="cls-2"
     d="m 69.63896,35.230594 a 62.61,62.61 0 0 1 9.38,-0.71 c 6.34,0 10.85,1.47 13.84,4.26 2.99,2.79 4.82,6.74 4.82,12.27 0,5.53 -1.72,10.14 -4.92,13.28 -3.2,3.14 -8.47,4.92 -15.11,4.92 a 72.21,72.21 0 0 1 -8,-0.4 z m 4.41,30.22 a 28.28,28.28 0 0 0 4.46,0.25 c 9.43,0 14.55,-5.27 14.55,-14.5 0.06,-8.06 -4.51,-13.18 -13.84,-13.18 a 24.59,24.59 0 0 0 -5.17,0.46 z"
     id="path268"
     inkscape:connector-curvature="0"
     style="fill:#2b2e81" />
</svg>
