<?xml version="1.0" encoding="UTF-8" standalone="no"?>
<svg
   id="Layer_1"
   data-name="Layer 1"
   viewBox="0 0 254.53516 265.27735"
   version="1.1"
   sodipodi:docname="HAW.svg"
   width="254.53516"
   height="265.27734"
   inkscape:version="1.1.1 (3bf5ae0d25, 2021-09-20)"
   xmlns:inkscape="http://www.inkscape.org/namespaces/inkscape"
   xmlns:sodipodi="http://sodipodi.sourceforge.net/DTD/sodipodi-0.dtd"
   xmlns="http://www.w3.org/2000/svg"
   xmlns:svg="http://www.w3.org/2000/svg"
   xmlns:rdf="http://www.w3.org/1999/02/22-rdf-syntax-ns#"
   xmlns:cc="http://creativecommons.org/ns#"
   xmlns:dc="http://purl.org/dc/elements/1.1/">
  <metadata
     id="metadata337">
    <rdf:RDF>
      <cc:Work
         rdf:about="">
        <dc:format>image/svg+xml</dc:format>
        <dc:type
           rdf:resource="http://purl.org/dc/dcmitype/StillImage" />
      </cc:Work>
    </rdf:RDF>
  </metadata>
  <sodipodi:namedview
     pagecolor="#6c6c6c"
     bordercolor="#666666"
     borderopacity="1"
     objecttolerance="10"
     gridtolerance="10"
     guidetolerance="10"
     inkscape:pageopacity="0"
     inkscape:pageshadow="2"
     inkscape:window-width="1920"
     inkscape:window-height="1017"
     id="namedview335"
     showgrid="false"
     inkscape:zoom="1.5733333"
     inkscape:cx="138.24152"
     inkscape:cy="89.300847"
     inkscape:window-x="-8"
     inkscape:window-y="-8"
     inkscape:window-maximized="1"
     inkscape:current-layer="Layer_1"
     inkscape:pagecheckerboard="0"
     fit-margin-top="0"
     fit-margin-left="0"
     fit-margin-right="0"
     fit-margin-bottom="0" />
  <defs
     id="defs4">
    <style
       id="style2">.cls-1{opacity:0.2;}.cls-2{fill:#a6a6a6;}.cls-3{fill:#fff;}.cls-11,.cls-19,.cls-4,.cls-9{fill:#e7e2b1;}.cls-22,.cls-5,.cls-8{fill:#24685d;}.cls-10,.cls-11,.cls-12,.cls-13,.cls-14,.cls-15,.cls-16,.cls-17,.cls-18,.cls-19,.cls-21,.cls-22,.cls-23,.cls-24,.cls-25,.cls-26,.cls-5,.cls-6,.cls-7,.cls-9{stroke:#18403f;stroke-linecap:round;stroke-linejoin:round;}.cls-5{stroke-width:15.83px;}.cls-17,.cls-6{fill:#218da5;}.cls-10,.cls-12,.cls-13,.cls-14,.cls-6,.cls-7{stroke-width:12.55px;}.cls-18,.cls-7{fill:#60bfd3;}.cls-11,.cls-9{stroke-width:12.77px;}.cls-10,.cls-23,.cls-24{fill:none;}.cls-11,.cls-20,.cls-21,.cls-23{fill-rule:evenodd;}.cls-12{fill:#95ac57;}.cls-13,.cls-16,.cls-21,.cls-26{fill:#2a9e8c;}.cls-14,.cls-15,.cls-25{fill:#a5d672;}.cls-15,.cls-16,.cls-17,.cls-18,.cls-19,.cls-21{stroke-width:14.47px;}.cls-20{fill:#18403f;}.cls-22,.cls-23,.cls-24,.cls-25,.cls-26{stroke-width:11.61px;}</style>
    <clipPath
       clipPathUnits="userSpaceOnUse"
       id="clipPath1636">
      <path
         id="path1638"
         style="fill:#ff0000;fill-opacity:1;fill-rule:nonzero;stroke:none"
         d="m 0,0 v 285.27734 h 31.957031 c 0.294319,-0.15236 0.494894,-0.25155 0.980469,-0.50195 1.206785,-0.65917 2.400044,-1.34092 3.591797,-2.02734 2.172637,-1.2533 4.319448,-2.55118 6.462891,-3.85352 2.815998,-1.70855 5.622612,-3.4314 8.423828,-5.16406 3.223235,-1.99806 6.452209,-3.98954 9.689453,-5.96485 0.156876,-0.0956 0.315705,-0.18777 0.472656,-0.2832 l -1.513672,-0.39258 c 0.628054,-2.46181 1.705293,-4.76834 3.050781,-6.91406 0.110218,-0.16588 0.286767,-0.44289 0.384766,-0.5957 5.41e-4,-0.003 0.02321,-0.0442 0.109375,-0.20117 0.200614,-0.3698 0.399085,-0.74135 0.595703,-1.11329 0.219022,-0.4189 0.427954,-0.84152 0.640625,-1.26367 0.377345,-0.74213 0.759283,-1.48275 1.148438,-2.21875 0.483696,-0.90646 0.988677,-1.80256 1.503906,-2.6914 0.500858,-0.8661 1.022466,-1.71761 1.548828,-2.56836 0.52425,-0.84714 1.062077,-1.68595 1.601563,-2.52344 0.46514,-0.72321 0.930664,-1.44537 1.390624,-2.17188 0.481551,-0.76775 0.960857,-1.539 1.439454,-2.30859 0.510547,-0.82279 1.01986,-1.64602 1.527343,-2.4707 0.38103,-0.61517 0.758668,-1.23254 1.136719,-1.84961 l -3.478516,-4.96875 -3.347656,-2.82813 c -0.12672,0.15026 0.0619,-0.0744 0.0918,-0.10937 0.09656,-0.11334 0.198379,-0.22205 0.300781,-0.33008 0.05088,-0.0527 0.101654,-0.1053 0.152344,-0.1582 0.06225,-0.065 0.12507,-0.13052 0.1875,-0.19531 0.07448,-0.078 0.14941,-0.15513 0.22461,-0.23243 0.08021,-0.0842 0.16309,-0.16464 0.24414,-0.24804 0.07688,-0.0787 0.153649,-0.15763 0.230469,-0.23633 0.07004,-0.0718 0.140184,-0.14585 0.208984,-0.21875 0.08172,-0.0871 0.161218,-0.17402 0.242188,-0.26172 0.08905,-0.0967 0.179368,-0.19352 0.267578,-0.29102 0.09745,-0.10693 0.194107,-0.21483 0.291015,-0.32226 0.116959,-0.12937 0.233873,-0.258 0.351563,-0.38672 0.118144,-0.12861 0.235486,-0.258 0.353516,-0.38672 0.133286,-0.14575 0.267452,-0.28932 0.402343,-0.43359 0.132956,-0.14268 0.266723,-0.28573 0.400391,-0.42774 0.148157,-0.15804 0.297271,-0.31442 0.447266,-0.4707 0.155013,-0.1619 0.311772,-0.32242 0.46875,-0.48242 0.156917,-0.15985 0.314253,-0.31819 0.472656,-0.47656 0.172858,-0.17301 0.349333,-0.34393 0.525391,-0.51368 0.174264,-0.1682 0.348685,-0.33632 0.52539,-0.50195 0.168668,-0.15775 0.338494,-0.31366 0.507813,-0.4707 0.166357,-0.15378 0.334039,-0.30673 0.5,-0.46094 0.165721,-0.15338 0.32941,-0.30845 0.49414,-0.46289 0.166012,-0.15556 0.331115,-0.3121 0.496094,-0.46875 0.179396,-0.17078 0.359049,-0.34159 0.539063,-0.51172 0.176308,-0.16653 0.35316,-0.33329 0.529296,-0.5 0.172858,-0.16317 0.345725,-0.326 0.517578,-0.49023 0.17275,-0.16472 0.343851,-0.33036 0.515626,-0.4961 0.178193,-0.17257 0.356598,-0.34538 0.535156,-0.51758 0.180372,-0.17431 0.362126,-0.34766 0.542968,-0.52148 0.176013,-0.16958 0.351672,-0.33985 0.527344,-0.50977 0.186507,-0.18121 0.374659,-0.35924 0.5625,-0.53906 0.174979,-0.16724 0.34927,-0.33581 0.523438,-0.50391 0.186662,-0.1809 0.374708,-0.36127 0.5625,-0.54101 0.189105,-0.18178 0.379876,-0.36258 0.570312,-0.54297 0.194902,-0.185 0.39126,-0.36762 0.587891,-0.55078 0.197426,-0.1843 0.394677,-0.36826 0.59375,-0.55078 0.199421,-0.18314 0.400372,-0.36373 0.601562,-0.54492 0.18912,-0.16972 0.379365,-0.33992 0.56836,-0.50977 0.197501,-0.17799 0.39489,-0.35479 0.59375,-0.53125 0.19687,-0.17536 0.395843,-0.34925 0.59375,-0.52344 0.196375,-0.17323 0.392809,-0.34705 0.589843,-0.51953 0.204774,-0.17951 0.40888,-0.35746 0.615235,-0.53515 0.06369,-0.0548 0.127608,-0.10936 0.191406,-0.16407 0.110513,-0.12577 0.221006,-0.25156 0.332031,-0.37695 0.216545,-0.24439 0.43353,-0.48811 0.652344,-0.73047 0.236687,-0.26304 0.477279,-0.5225 0.720703,-0.7793 0.252615,-0.26612 0.511148,-0.52661 0.771485,-0.78515 0.123453,-0.12257 0.248317,-0.24397 0.373046,-0.36524 l 1.326172,1.36524 c 0.414779,-0.17237 0.828969,-0.34616 1.251954,-0.49805 0.604804,-0.21394 1.220967,-0.39337 1.83789,-0.56836 l 0.587891,2.07031 c 1.147566,-0.93355 2.323317,-1.83173 3.527343,-2.69336 2.271505,-1.60692 4.682925,-2.99884 7.124995,-4.32617 2.4635,-1.31936 5.00949,-2.47106 7.57617,-3.57226 2.54673,-1.07966 5.14337,-2.03381 7.75,-2.95703 2.655,-0.93356 5.34666,-1.75387 8.04688,-2.54493 2.66425,-0.77633 5.35181,-1.4669 8.04492,-2.13476 2.73314,-0.67298 5.48867,-1.25125 8.25,-1.79492 2.90535,-0.57002 5.83473,-0.99684 8.77344,-1.34961 3.01093,-0.35105 6.03761,-0.50191 9.0664,-0.57032 0.96543,-0.0186 1.93017,0.0147 2.89454,0.0371 0.0151,-0.0143 0.0318,-0.0267 0.0469,-0.041 l -9.83203,-1.80664 c -0.0117,0.0724 -0.0259,0.14407 -0.0371,0.2168 -0.0112,0.0728 0.0184,-0.11221 0.0352,-0.2168 h -0.002 c 0.0537,-0.28325 0.0319,-0.1785 0.0156,-0.0859 0.004,-0.0288 -0.007,0.0445 -0.0137,0.0859 h 0.002 c 0.0565,-0.34959 0.11664,-0.69614 0.17969,-1.04688 0.20684,-1.11441 0.51352,-2.20577 0.83593,-3.29101 0.34362,-1.1364 0.75529,-2.24884 1.1836,-3.35547 0.41875,-1.06886 0.86904,-2.12485 1.32617,-3.17774 0.52399,-1.20219 1.07161,-2.39524 1.62109,-3.58593 0.65519,-1.42471 1.33817,-2.83563 2.02735,-4.24414 0.74531,-1.52444 1.50979,-3.04049 2.28711,-4.54883 0.82,-1.58341 1.66239,-3.15362 2.50586,-4.72461 0.82227,-1.53117 1.65335,-3.05934 2.48047,-4.58789 0.83191,-1.53497 1.65958,-3.07162 2.48632,-4.60938 0.86094,-1.6049 1.71991,-3.21033 2.58594,-4.8125 0.88843,-1.64476 1.78948,-3.28361 2.69336,-4.91992 0.96483,-1.76012 1.95678,-3.50443 2.97461,-5.23437 1.0966,-1.8625 2.24923,-3.69114 3.42578,-5.50391 1.31736,-2.04962 2.73605,-4.02936 4.20703,-5.9707 1.5723,-2.06263 3.27784,-4.01762 5.01953,-5.9375 1.74237,-1.93109 3.60501,-3.74662 5.51172,-5.51368 0.0184,-0.61314 0.0431,-1.22609 0.0547,-1.83984 0.022,-1.15621 0.0305,-2.31237 0.0215,-3.46875 -0.0104,-1.19947 -0.0347,-2.40063 -0.0703,-3.59961 -0.0371,-1.20905 -0.0884,-2.41688 -0.14844,-3.624998 -0.045,-1.025418 -0.12585,-2.048637 -0.22265,-3.070313 -0.0865,-0.918366 -0.18913,-1.834971 -0.33399,-2.746093 -0.12804,-0.853761 -0.30504,-1.700087 -0.49023,-2.542969 -0.21806,-0.984478 -0.44093,-1.967088 -0.70117,-2.941406 -0.25705,-0.967612 -0.54705,-1.926893 -0.83789,-2.884766 -0.29255,-0.971737 -0.61295,-1.935709 -0.93946,-2.896484 -0.36041,-1.057448 -0.72727,-2.110764 -1.09961,-3.164063 -0.38302,-1.082916 -0.76939,-2.165106 -1.15234,-3.248047 -0.4203,-1.182162 -0.82721,-2.368567 -1.21875,-3.560547 -0.39066,-1.197192 -0.74763,-2.405099 -1.0957,-3.615234 -0.31141,-1.079914 -0.60007,-2.167648 -0.88086,-3.255859 -0.20935,-0.813239 -0.4118,-1.627214 -0.625,-2.439453 -0.0927,-0.354423 -0.1935,-0.708661 -0.31445,-1.054688 -0.12586,-0.38274 -0.27259,-0.758374 -0.41602,-1.134766 -0.70881,-1.745934 -1.18276,-3.564903 -1.60547,-5.396484 -0.50455,-2.307142 -0.62435,-4.664163 -0.59375,-7.017578 0.0282,-0.942767 0.10258,-1.884135 0.17578,-2.824219 0.0236,-0.298113 0.0395,-0.595952 0.0566,-0.894531 -0.01,-0.194001 -0.0196,-0.388014 -0.0293,-0.582031 -0.0866,-1.607164 0.0156,-3.213272 0.1914,-4.810547 0.0244,-0.180984 0.048,-0.361985 0.0723,-0.542969 l 43.74609,6.134766 c -0.0166,-0.04704 -0.0318,-0.109723 -0.0488,-0.152344 0.0148,0.0384 0.0302,0.07679 0.0449,0.115234 0.005,0.0129 0.009,0.02617 0.0137,0.03906 l 0.75195,0.105468 c 0.008,-0.06785 0.0174,-0.135276 0.0254,-0.203124 0.088,-0.865463 0.15057,-1.737134 0.10547,-2.607422 0.0483,0.598834 0.0437,1.202408 0.0801,1.800781 0.006,1.018117 -8.8e-4,2.03628 -0.0684,3.052734 -0.006,0.09898 -0.0137,0.197905 -0.0195,0.296875 0.0776,0.226959 0.16812,0.449538 0.24218,0.677735 0.38794,1.200248 0.75695,2.40671 1.07032,3.628906 0.22561,0.864691 0.445,1.729826 0.66601,2.595703 0.17828,0.693511 0.36187,1.38622 0.56055,2.074219 0.19577,0.685559 0.39504,1.370054 0.61328,2.048828 0.2749,0.852488 0.57682,1.695789 0.87305,2.541015 0.12635,0.357524 0.2539,0.714809 0.38086,1.072266 1.81554,-3.673715 3.61104,-7.357419 5.46484,-11.011719 4.06733,-8.05172 8.57975,-15.859285 13.29883,-23.542968 5.46481,-8.785459 11.6017,-17.115799 17.91992,-25.2988285 C 275.91223,0.76635371 276.09449,0.55587312 276.53516,0 Z m 39.591797,283.0625 c -1.806937,0.42841 -3.576852,0.97623 -5.347656,1.53125 -0.281369,0.0882 -1.11717,0.37752 -0.839844,0.27734 -0.153636,0.0268 -0.496139,0.17428 -1.080078,0.40625 h 7.822265 z" />
    </clipPath>
  </defs>
  <path
     class="cls-25"
     d="m 150.34384,173.45671 c 0,0 28.27,39.62 -2.54,75.37 l -22.79,-52.8"
     id="path1438"
     inkscape:connector-curvature="0"
     style="fill:#e7e2b1;fill-opacity:1;stroke:#e7e2b1;stroke-width:30.61;stroke-linecap:round;stroke-linejoin:round;stroke-miterlimit:4;stroke-dasharray:none;stroke-opacity:1" />
  <path
     class="cls-25"
     d="m 153.37384,78.666706 31.43,-14.12 c 0,0 43.64,4.77 53.72,50.730004 l -53.75,-10.79"
     id="path1440"
     inkscape:connector-curvature="0"
     style="fill:#e7e2b1;fill-opacity:1;stroke:#e7e2b1;stroke-width:30.61;stroke-linecap:round;stroke-linejoin:round;stroke-miterlimit:4;stroke-dasharray:none;stroke-opacity:1" />
  <path
     class="cls-26"
     d="m 133.35384,62.206706 -63.780003,19.15 c 0,0 -17.27,69.420004 34.460003,126.730004 69.84,-32.9 80.71,-103.6 80.71,-103.6 z"
     id="path1442"
     inkscape:connector-curvature="0"
     style="fill:#e7e2b1;fill-opacity:1;stroke:#e7e2b1;stroke-width:30.61;stroke-linecap:round;stroke-linejoin:round;stroke-miterlimit:4;stroke-dasharray:none;stroke-opacity:1" />
  <path
     class="cls-4"
     d="m 268.14384,126.69671 a 17.53,17.53 0 0 0 -0.89,-1.79 111,111 0 0 0 -16.29,-23.75 77.81,77.81 0 0 0 -35.22,-42.260004 81.7,81.7 0 0 0 -29.17,-10.12 16,16 0 0 0 -8.22,1.3 l -7.14,3.21 a 77.48,77.48 0 0 0 0.73,-8.72 c 0,-0.21 0.1,-0.41 0.14,-0.62 a 15.77,15.77 0 0 0 -0.41,-7.84 57.11,57.11 0 0 0 -2.37,-12 c -4.08,-12.8 -12.66,-21.3900002 -23.53,-23.57000024 -14.21,-2.85999996 -28.52,5.85000004 -37.61,22.79000024 a 15.7,15.7 0 0 0 -3.39,7.06 c 0,0.17 -0.07,0.35 -0.1,0.53 a 76.43,76.43 0 0 0 -2.71,8.41 l -5.390003,-5.66 a 15.79,15.79 0 0 0 -7.08,-4.37 81.5,81.5 0 0 0 -30.85,-1.95 c -15.88,1.95 -38.45,9.44 -55.7600003,34.1 a 15.86,15.86 0 0 0 9.8600003,24.67 l 38.94,7.82 a 169.86,169.86 0 0 0 0,30.680004 166,166 0 0 0 4.83,27.8 91,91 0 0 0 -13.53,15.11 c -14.16,20 -17.62,42.87 -10,66.17 a 15.79,15.79 0 0 0 11.24,10.48 16.08,16.08 0 0 0 3.84,0.47 15.8,15.8 0 0 0 11,-4.44 l 12.87,-12.41 a 110.57,110.57 0 0 0 47.460003,45.77 15.82,15.82 0 0 0 1.75,0.87 110.4,110.4 0 0 0 91,2 16.21,16.21 0 0 0 1.55,-0.68 110.92,110.92 0 0 0 45.09,-36.92 16.38,16.38 0 0 0 1.35,-1.94 110.3,110.3 0 0 0 8.06,-110.17 z"
     id="path298"
     inkscape:connector-curvature="0"
     style="fill:#e7e2b1"
     clip-path="url(#clipPath1636)" />
  <path
     class="cls-25"
     d="m 150.34384,173.45671 c 0,0 28.27,39.62 -2.54,75.37 l -22.79,-52.8"
     id="path310"
     inkscape:connector-curvature="0"
     style="fill:#a5d672;stroke:#18403f;stroke-width:11.61px;stroke-linecap:round;stroke-linejoin:round" />
  <path
     class="cls-25"
     d="m 74.733837,158.26671 c 0,0 -41.37,25.64 -26.75,70.52 l 41.41,-39.92"
     id="path312"
     inkscape:connector-curvature="0"
     style="fill:#a5d672;stroke:#18403f;stroke-width:11.61px;stroke-linecap:round;stroke-linejoin:round" />
  <path
     class="cls-25"
     d="m 147.37384,73.726706 a 56.38,56.38 0 0 0 7.49,-19.18 c 3.83,-19.09 -1.66,-36.28 -12.26,-38.41 -10.6,-2.13 -22.3,11.62 -26.13,30.7 a 56.18,56.18 0 0 0 -0.5,20.57"
     id="path314"
     inkscape:connector-curvature="0"
     style="fill:#a5d672;stroke:#18403f;stroke-width:11.61px;stroke-linecap:round;stroke-linejoin:round" />
  <path
     class="cls-25"
     d="m 153.37384,78.666706 31.43,-14.12 c 0,0 43.64,4.77 53.72,50.730004 l -53.75,-10.79"
     id="path316"
     inkscape:connector-curvature="0"
     style="fill:#a5d672;stroke:#18403f;stroke-width:11.61px;stroke-linecap:round;stroke-linejoin:round" />
  <path
     class="cls-25"
     d="m 108.57384,69.666706 -23.550003,-25.16 c 0,0 -42.13,-12.48 -69.17,26.06 l 53.72,10.79"
     id="path318"
     inkscape:connector-curvature="0"
     style="fill:#a5d672;stroke:#18403f;stroke-width:11.61px;stroke-linecap:round;stroke-linejoin:round" />
  <path
     class="cls-26"
     d="m 133.35384,62.206706 -63.780003,19.15 c 0,0 -17.27,69.420004 34.460003,126.730004 69.84,-32.9 80.71,-103.6 80.71,-103.6 z"
     id="path320"
     inkscape:connector-curvature="0"
     style="fill:#2a9e8c;stroke:#18403f;stroke-width:11.61px;stroke-linecap:round;stroke-linejoin:round" />
  <line
     class="cls-24"
     x1="149.89384"
     y1="39.506687"
     x2="156.47386"
     y2="40.826694"
     id="line322"
     style="fill:none;stroke:#18403f;stroke-width:11.61px;stroke-linecap:round;stroke-linejoin:round" />
  <line
     class="cls-24"
     x1="126.86382"
     y1="34.876682"
     x2="120.27385"
     y2="33.556736"
     id="line324"
     style="fill:none;stroke:#18403f;stroke-width:11.61px;stroke-linecap:round;stroke-linejoin:round" />
  <polygon
     class="cls-24"
     points="707.72,872.49 738.43,878.65 748.39,908.61 727.64,932.4 696.92,926.23 686.96,896.28 "
     id="polygon326"
     style="fill:none;stroke:#18403f;stroke-width:11.61px;stroke-linecap:round;stroke-linejoin:round"
     transform="translate(-597.42616,-774.97329)" />
  <polyline
     class="cls-24"
     points="770.92 913.13 748.39 908.61 738.43 878.65 756.3 858.16"
     id="polyline328"
     style="fill:none;stroke:#18403f;stroke-width:11.61px;stroke-linecap:round;stroke-linejoin:round"
     transform="translate(-597.42616,-774.97329)" />
  <polyline
     class="cls-24"
     points="664.43 891.75 686.96 896.28 707.72 872.49 699.14 846.69"
     id="polyline330"
     style="fill:none;stroke:#18403f;stroke-width:11.61px;stroke-linecap:round;stroke-linejoin:round"
     transform="translate(-597.42616,-774.97329)" />
  <polyline
     class="cls-24"
     points="678.04 947.88 696.92 926.23 727.64 932.4 736.71 959.7"
     id="polyline332"
     style="fill:none;stroke:#18403f;stroke-width:11.61px;stroke-linecap:round;stroke-linejoin:round"
     transform="translate(-597.42616,-774.97329)" />
</svg>
