<?xml version="1.0" encoding="UTF-8" standalone="no"?>
<svg
   id="Layer_1"
   data-name="Layer 1"
   viewBox="0 0 302.52267 308.06"
   version="1.1"
   sodipodi:docname="LA.svg"
   width="302.52267"
   height="308.06"
   inkscape:version="1.1.1 (3bf5ae0d25, 2021-09-20)"
   xmlns:inkscape="http://www.inkscape.org/namespaces/inkscape"
   xmlns:sodipodi="http://sodipodi.sourceforge.net/DTD/sodipodi-0.dtd"
   xmlns:xlink="http://www.w3.org/1999/xlink"
   xmlns="http://www.w3.org/2000/svg"
   xmlns:svg="http://www.w3.org/2000/svg"
   xmlns:rdf="http://www.w3.org/1999/02/22-rdf-syntax-ns#"
   xmlns:cc="http://creativecommons.org/ns#"
   xmlns:dc="http://purl.org/dc/elements/1.1/">
  <metadata
     id="metadata419">
    <rdf:RDF>
      <cc:Work
         rdf:about="">
        <dc:format>image/svg+xml</dc:format>
        <dc:type
           rdf:resource="http://purl.org/dc/dcmitype/StillImage" />
      </cc:Work>
    </rdf:RDF>
  </metadata>
  <sodipodi:namedview
     pagecolor="#ffffff"
     bordercolor="#666666"
     borderopacity="1"
     objecttolerance="10"
     gridtolerance="10"
     guidetolerance="10"
     inkscape:pageopacity="0"
     inkscape:pageshadow="2"
     inkscape:window-width="1920"
     inkscape:window-height="1017"
     id="namedview417"
     showgrid="false"
     inkscape:zoom="1.5733333"
     inkscape:cx="115.36017"
     inkscape:cy="143.32627"
     inkscape:window-x="-8"
     inkscape:window-y="-8"
     inkscape:window-maximized="1"
     inkscape:current-layer="Layer_1"
     inkscape:pagecheckerboard="0" />
  <defs
     id="defs30">
    <style
       id="style2">.cls-1{opacity:0.2;}.cls-2{fill:#a6a6a6;}.cls-10,.cls-3{fill:#fff;}.cls-17,.cls-4,.cls-5,.cls-8{fill:#00008b;}.cls-17,.cls-4,.cls-5{stroke:#ff24ee;}.cls-4{stroke-linecap:round;stroke-linejoin:round;stroke-width:14.73px;}.cls-10,.cls-11,.cls-13,.cls-14,.cls-15,.cls-16,.cls-17,.cls-20,.cls-21,.cls-22,.cls-5,.cls-9{stroke-miterlimit:10;}.cls-5{stroke-width:7.37px;}.cls-13,.cls-6{fill:#ff24ee;}.cls-7{fill:url(#linear-gradient);}.cls-11,.cls-16,.cls-20,.cls-22,.cls-9{fill:none;}.cls-10,.cls-13,.cls-15,.cls-16,.cls-20,.cls-21,.cls-22,.cls-9{stroke:#00008b;}.cls-10,.cls-13,.cls-9{stroke-width:2.63px;}.cls-11{stroke:#fff;stroke-width:1.19px;}.cls-12{fill:#ffaf28;}.cls-14{stroke:#ffaf28;stroke-width:2.3px;fill:url(#linear-gradient-2);}.cls-15{stroke-width:7.84px;fill:url(#linear-gradient-3);}.cls-16{stroke-width:4.63px;}.cls-17{stroke-width:9.82px;}.cls-18{fill:url(#linear-gradient-4);}.cls-19{fill:url(#linear-gradient-5);}.cls-20{stroke-width:7.52px;}.cls-21{stroke-width:20.36px;fill:url(#linear-gradient-6);}.cls-22{stroke-width:12.03px;}</style>
    <linearGradient
       id="linear-gradient"
       x1="394.34"
       y1="300.98001"
       x2="600.58002"
       y2="300.98001"
       gradientUnits="userSpaceOnUse">
      <stop
         offset="0"
         stop-color="#ffaf28"
         id="stop4" />
      <stop
         offset="0.18"
         stop-color="#ffaf28"
         stop-opacity="0.99"
         id="stop6" />
      <stop
         offset="0.31"
         stop-color="#ffaf28"
         stop-opacity="0.95"
         id="stop8" />
      <stop
         offset="0.43"
         stop-color="#ffaf28"
         stop-opacity="0.89"
         id="stop10" />
      <stop
         offset="0.54"
         stop-color="#ffaf28"
         stop-opacity="0.8"
         id="stop12" />
      <stop
         offset="0.64"
         stop-color="#ffaf28"
         stop-opacity="0.68"
         id="stop14" />
      <stop
         offset="0.74"
         stop-color="#ffaf28"
         stop-opacity="0.54"
         id="stop16" />
      <stop
         offset="0.83"
         stop-color="#ffaf28"
         stop-opacity="0.37"
         id="stop18" />
      <stop
         offset="0.92"
         stop-color="#ffaf28"
         stop-opacity="0.18"
         id="stop20" />
      <stop
         offset="1"
         stop-color="#ffaf28"
         stop-opacity="0"
         id="stop22" />
    </linearGradient>
    <linearGradient
       id="linear-gradient-2"
       x1="321.48001"
       y1="339.85001"
       x2="648.65997"
       y2="339.85001"
       xlink:href="#linear-gradient" />
    <linearGradient
       id="linear-gradient-3"
       x1="471.82001"
       y1="479.81"
       x2="523.32001"
       y2="479.81"
       xlink:href="#linear-gradient" />
    <linearGradient
       id="linear-gradient-4"
       x1="254.5"
       y1="837.53998"
       x2="371.41"
       y2="837.53998"
       xlink:href="#linear-gradient"
       gradientTransform="translate(-104.46366,-762.09)" />
    <linearGradient
       id="linear-gradient-5"
       x1="140.03999"
       y1="994.64001"
       x2="220.13"
       y2="994.64001"
       xlink:href="#linear-gradient"
       gradientTransform="translate(-104.46366,-762.09)" />
    <linearGradient
       id="linear-gradient-6"
       x1="672.15002"
       y1="929.72998"
       x2="805.96002"
       y2="929.72998"
       xlink:href="#linear-gradient" />
  </defs>
  <path
     class="cls-17"
     d="M 87.716339,4.9099998 H 237.44634 c 47.45,0 71.91,38.4700002 54.64,85.9100002 l -77.28,212.33 H 65.076339 c -47.45,0 -71.9099999,-38.47 -54.64,-85.91 z"
     id="path326"
     inkscape:connector-curvature="0"
     style="fill:#00008b;stroke:#ff24ee;stroke-width:9.81999969px;stroke-miterlimit:10" />
  <path
     class="cls-3"
     d="m 145.67634,138.55 -15.63,23.36 c -1.63,-0.94 -4.93,-1.31 -13,-1.31 H 64.676339 l 1,-2.62 c 4.42,0 7.76,-2.43 9.47,-7.1 L 115.63634,39.5 c 1.7,-4.68 0.8,-6.92 -4.36,-6.92 l 0.95,-2.61 h 37.59 l -0.95,2.61 c -5.41,0 -7.7,2.24 -9.4,6.92 l -38.3,105.22 h 26.29 a 16.21,16.21 0 0 0 14.13,-7.1 z"
     id="path328"
     inkscape:connector-curvature="0"
     style="fill:#ffffff" />
  <path
     class="cls-3"
     d="m 197.33634,271.21 h -36.61 l 0.95,-2.62 c 4.18,0 5.6,-1.87 6.35,-3.92 0.06,-0.19 0.64,-2.43 1.07,-4.3 l 2.07,-11.78 a 43.35,43.35 0 0 1 -13.28,2.06 34.18,34.18 0 0 1 -12.27,-2.06 l -6.32,12 c -0.86,1.69 -2.12,4.49 -2.26,4.86 -0.81,2.25 -0.17,3.18 4,3.18 l -1,2.62 h -34.1 l 0.95,-2.62 c 3.44,0 6.16,-2 8.05,-5.23 l 62.37,-112 a 40.84,40.84 0 0 0 2.19,-4.67 c 0.75,-2.05 -0.43,-3.55 -3.37,-3.55 l 1,-2.61 h 43.41 l -1,2.61 a 6,6 0 0 0 -5.85,3.93 57.62,57.62 0 0 0 -1.55,5.6 l -18.33,110.46 c -0.65,4.49 0.73,5.42 4.41,5.42 z m -7.92,-104.48 h -1 l -34.14,66.18 c 2.05,1.12 5.47,1.87 9.64,1.87 a 30,30 0 0 0 10.76,-1.87 z"
     id="path330"
     inkscape:connector-curvature="0"
     style="fill:#ffffff" />
  <path
     class="cls-6"
     d="m 237.44634,35.57 h -57.62 l -29.79,79.77 h 100.5 l 12.75,-35 c 5.12,-14.08 4.9,-26.66 -0.6,-34.53 -5.94,-8.47 -17,-10.24 -25.24,-10.24 z"
     id="path332"
     inkscape:connector-curvature="0"
     style="fill:#ff24ee" />
  <path
     class="cls-18"
     d="m 237.44634,35.57 h -57.62 l -29.79,79.77 h 100.5 l 12.75,-35 c 5.12,-14.08 4.9,-26.66 -0.6,-34.53 -5.94,-8.47 -17,-10.24 -25.24,-10.24 z"
     id="path334"
     inkscape:connector-curvature="0"
     style="fill:url(#linear-gradient-4)" />
  <path
     class="cls-6"
     d="m 65.076339,272.44 h 20.8 L 115.66634,192.66 H 52.026339 l -12.76,35 c -5.12,14.08 -4.9,26.66 0.6,34.53 5.91,8.47 16.97,10.25 25.21,10.25 z"
     id="path336"
     inkscape:connector-curvature="0"
     style="fill:#ff24ee" />
  <path
     class="cls-19"
     d="m 65.076339,272.44 h 20.8 L 115.66634,192.66 H 52.026339 l -12.76,35 c -5.12,14.08 -4.9,26.66 0.6,34.53 5.91,8.47 16.97,10.25 25.21,10.25 z"
     id="path338"
     inkscape:connector-curvature="0"
     style="fill:url(#linear-gradient-5)" />
  <path
     class="cls-8"
     d="m 235.53634,66.54 c 0,0 22.31,-1.48 24,8 0,0 8,-16 -10.58,-18.85 0,0 8.64,-5.81 22.57,-2.2 0,0 -9.2,-16.68 -34.92,2.21 -12,-18.84 -33.33,-2.13 -33.33,-2.13 16.56,-3.65 21,2.15 21,2.15 -20.65,2.93 -24.27,18.89 -24.27,18.89 8.51,-9.44 29.76,-8 29.76,-8 l -24.56,53.71 h 18.15 z"
     id="path340"
     inkscape:connector-curvature="0"
     style="fill:#00008b" />
  <path
     class="cls-8"
     d="m 190.15634,92.96 c 0,0 16.19,-1.05 17.38,5.77 0,0 5.78,-11.59 -7.67,-13.68 0,0 6.26,-4.21 16.37,-1.6 0,0 -6.67,-12.09 -25.33,1.61 -8.73,-13.67 -24.18,-1.55 -24.18,-1.55 12,-2.64 15.23,1.56 15.23,1.56 -15,2.13 -17.61,13.71 -17.61,13.71 6.17,-6.85 21.59,-5.82 21.59,-5.82 l -17.82,39 h 13.17 z"
     id="path342"
     inkscape:connector-curvature="0"
     style="fill:#00008b" />
  <line
     class="cls-20"
     x1="32.1908"
     y1="266.11789"
     x2="118.19265"
     y2="186.55014"
     id="line344"
     style="fill:none;stroke:#00008b;stroke-width:7.52px;stroke-miterlimit:10" />
  <polyline
     class="cls-3"
     points="214.99 827.26 190.38 839.93 203.25 849.61"
     id="polyline352"
     style="fill:#ffffff"
     transform="translate(-104.46366,-762.09)" />
  <polyline
     class="cls-3"
     points="272.4 930.6 247.79 943.26 260.66 952.95"
     id="polyline354"
     style="fill:#ffffff"
     transform="translate(-104.46366,-762.09)" />
  <path
     style="fill:none;stroke:#00008b;stroke-width:7.5;stroke-linecap:round;stroke-linejoin:miter;stroke-miterlimit:4;stroke-dasharray:none;stroke-opacity:1"
     d="m 36.698645,243.37854 17.755191,19.76797"
     id="path1126"
     inkscape:transform-center-x="0.97065126"
     inkscape:transform-center-y="1.5297587" />
  <path
     style="fill:none;stroke:#00008b;stroke-width:7.5;stroke-linecap:round;stroke-linejoin:miter;stroke-miterlimit:4;stroke-dasharray:none;stroke-opacity:1"
     d="M 49.240779,231.94636 66.99597,251.71432"
     id="path6885"
     inkscape:transform-center-x="0.97065165"
     inkscape:transform-center-y="1.5297591" />
  <path
     style="fill:none;stroke:#00008b;stroke-width:7.5;stroke-linecap:round;stroke-linejoin:miter;stroke-miterlimit:4;stroke-dasharray:none;stroke-opacity:1"
     d="m 61.782914,220.51417 17.755191,19.76797"
     id="path6887"
     inkscape:transform-center-x="0.97065104"
     inkscape:transform-center-y="1.5297596" />
  <path
     style="fill:none;stroke:#00008b;stroke-width:7.5;stroke-linecap:round;stroke-linejoin:miter;stroke-miterlimit:4;stroke-dasharray:none;stroke-opacity:1"
     d="m 74.325048,209.08199 17.755191,19.76796"
     id="path6889"
     inkscape:transform-center-x="0.97065143"
     inkscape:transform-center-y="1.5297601" />
  <path
     style="fill:none;stroke:#00008b;stroke-width:7.5;stroke-linecap:round;stroke-linejoin:miter;stroke-miterlimit:4;stroke-dasharray:none;stroke-opacity:1"
     d="m 86.867183,197.6498 17.755187,19.76796"
     id="path6891"
     inkscape:transform-center-x="0.97065032"
     inkscape:transform-center-y="1.5297557" />
</svg>
