<?xml version="1.0" encoding="UTF-8" standalone="no"?>
<svg
   id="Layer_1"
   data-name="Layer 1"
   version="1.1"
   width="222.80684"
   height="189.93446"
   sodipodi:docname="MEM.svg"
   inkscape:version="1.1.1 (3bf5ae0d25, 2021-09-20)"
   xmlns:inkscape="http://www.inkscape.org/namespaces/inkscape"
   xmlns:sodipodi="http://sodipodi.sourceforge.net/DTD/sodipodi-0.dtd"
   xmlns="http://www.w3.org/2000/svg"
   xmlns:svg="http://www.w3.org/2000/svg">
  <sodipodi:namedview
     id="namedview59"
     pagecolor="#a2a2a2"
     bordercolor="#666666"
     borderopacity="1.0"
     inkscape:pageshadow="2"
     inkscape:pageopacity="0"
     inkscape:pagecheckerboard="true"
     showgrid="false"
     showguides="true"
     inkscape:guide-bbox="true"
     inkscape:zoom="2"
     inkscape:cx="128.25"
     inkscape:cy="97.25"
     inkscape:window-width="1920"
     inkscape:window-height="1017"
     inkscape:window-x="-8"
     inkscape:window-y="-8"
     inkscape:window-maximized="1"
     inkscape:current-layer="Layer_1"
     fit-margin-top="0"
     fit-margin-left="0"
     fit-margin-right="0"
     fit-margin-bottom="0">
    <sodipodi:guide
       position="13.64299,144.10024"
       orientation="1,0"
       id="guide22315" />
  </sodipodi:namedview>
  <defs
     id="defs4">
    <inkscape:path-effect
       effect="spiro"
       id="path-effect13567"
       is_visible="true"
       lpeversion="1" />
    <inkscape:path-effect
       effect="spiro"
       id="path-effect16040"
       is_visible="true"
       lpeversion="1" />
    <inkscape:path-effect
       effect="spiro"
       id="path-effect15699"
       is_visible="true"
       lpeversion="1" />
    <inkscape:path-effect
       effect="spiro"
       id="path-effect15415"
       is_visible="true"
       lpeversion="1" />
    <inkscape:path-effect
       effect="spiro"
       id="path-effect15247"
       is_visible="true"
       lpeversion="1" />
    <inkscape:path-effect
       effect="spiro"
       id="path-effect15036"
       is_visible="true"
       lpeversion="1" />
    <inkscape:path-effect
       effect="spiro"
       id="path-effect14641"
       is_visible="true"
       lpeversion="1" />
    <inkscape:path-effect
       effect="spiro"
       id="path-effect1771"
       is_visible="true"
       lpeversion="1" />
    <style
       id="style2">.cls-10,.cls-5,.cls-6,.cls-8,.cls-9{fill:none}.cls-5,.cls-6{stroke:#fff}.cls-10,.cls-5,.cls-6,.cls-7,.cls-8,.cls-9{stroke-linecap:round;stroke-linejoin:round}.cls-5{stroke-width:2.65px}.cls-6{stroke-width:3.97px}.cls-7,.cls-8{stroke:#f65d32;stroke-width:4.41px}.cls-9{stroke:#f2d425;stroke-width:4.47px}.cls-10{stroke:#00aedc;stroke-width:4.44px}</style>
    <clipPath
       clipPathUnits="userSpaceOnUse"
       id="clipPath14823">
      <path
         id="path14825"
         style="fill:#ff0000;fill-opacity:1;fill-rule:nonzero;stroke:none"
         d="M 173.0332,4.890625 V 194.06055 H 353.38281 V 17.707031 l -5.36328,5.228516 c -0.01,-0.0083 -0.009,-0.01 -0.043,-0.04687 -0.01,-0.0073 -0.0446,-0.03544 -0.0664,-0.05273 -0.0666,-0.05304 -0.13408,-0.105854 -0.20118,-0.158204 -0.0793,-0.06235 -0.16013,-0.122203 -0.24023,-0.183593 -0.10604,-0.08222 -0.21186,-0.164464 -0.31836,-0.246094 -0.15095,-0.115764 -0.29898,-0.234377 -0.44727,-0.353516 -0.17632,-0.140645 -0.35005,-0.285066 -0.52148,-0.43164 -0.178,-0.152856 -0.35343,-0.309316 -0.52734,-0.466797 -0.17694,-0.159302 -0.35012,-0.321155 -0.52344,-0.484375 -0.15957,-0.149702 -0.31778,-0.300635 -0.47656,-0.451172 -0.16247,-0.153626 -0.32613,-0.306982 -0.48828,-0.460938 -0.15565,-0.148898 -0.31328,-0.29635 -0.47071,-0.443359 -0.14756,-0.138113 -0.29464,-0.275437 -0.44531,-0.410156 -0.16347,-0.145704 -0.32851,-0.288401 -0.49414,-0.431641 -0.16677,-0.145474 -0.33729,-0.288651 -0.50781,-0.429687 -0.18664,-0.153873 -0.37343,-0.30811 -0.5625,-0.458985 -0.18951,-0.151347 -0.38004,-0.299403 -0.57227,-0.447265 -0.19643,-0.15154 -0.39632,-0.301597 -0.5957,-0.449219 -0.17902,-0.133709 -0.36051,-0.260582 -0.54492,-0.386719 -0.20173,-0.138101 -0.40881,-0.271386 -0.61524,-0.402344 -0.22636,-0.143885 -0.45678,-0.281223 -0.6875,-0.417968 -0.25499,-0.150429 -0.50995,-0.299453 -0.76758,-0.445313 -0.24552,-0.139249 -0.49247,-0.274684 -0.74218,-0.40625 -0.25359,-0.1342 -0.51147,-0.261376 -0.76954,-0.386719 -0.28736,-0.13928 -0.57712,-0.274631 -0.86718,-0.408203 -0.31094,-0.142998 -0.62317,-0.284017 -0.93555,-0.423828 -0.32695,-0.145736 -0.65381,-0.291109 -0.98047,-0.4375 -0.32329,-0.145062 -0.64568,-0.288049 -0.96875,-0.433594 -0.32952,-0.147998 -0.65828,-0.299957 -0.98633,-0.451171 -0.32394,-0.148833 -0.64635,-0.300996 -0.96875,-0.453126 -0.31468,-0.148584 -0.62964,-0.298627 -0.94336,-0.449218 -0.31248,-0.150017 -0.62403,-0.301102 -0.93554,-0.453125 -0.30091,-0.147313 -0.60158,-0.293809 -0.90235,-0.441407 C 327.57018,9.9708436 327.23967,9.8037685 326.91208,9.6328215 326.5136,9.4280951 326.12683,9.2024888 325.74606,8.9668059 325.28198,8.6795162 324.85671,8.3419251 324.457,7.9707121 324.34632,7.8679243 324.2359,7.7636803 324.14059,7.6464934 323.88867,7.3367057 323.65909,7.0096667 323.41794,6.6914152 322.97951,5.8813603 322.85826,5.7027174 322.6738,4.890634 Z m 171.13086,0 c 0.1733,0.1000196 0.3473,0.1988372 0.51953,0.3007812 0.33413,0.1985 0.6663,0.4005933 0.99414,0.609375 0.3224,0.2052505 0.64396,0.4124587 0.95899,0.6289063 0.30127,0.2070779 0.5995,0.416197 0.89258,0.6347656 0.25758,0.1908977 0.51566,0.3842544 0.76953,0.5800781 0.25134,0.1935972 0.50032,0.3877988 0.74805,0.5859376 0.23811,0.1909579 0.47583,0.3834629 0.71093,0.578125 0.23767,0.1966992 0.47427,0.3951454 0.70703,0.5976562 0.21829,0.1890377 0.43512,0.3797867 0.65039,0.5722656 0.20873,0.1875654 0.41643,0.3763664 0.6211,0.5683594 0.18161,0.16959 0.36333,0.340042 0.54297,0.511719 0.16098,0.152957 0.32313,0.304339 0.48437,0.457031 0.14815,0.140692 0.29447,0.281958 0.44336,0.421875 0.0582,0.05481 0.11735,0.108046 0.17578,0.162109 V 4.890625 Z" />
    </clipPath>
    <clipPath
       clipPathUnits="userSpaceOnUse"
       id="clipPath15857">
      <path
         id="path15859"
         style="fill:#ff0000;fill-opacity:1;fill-rule:nonzero;stroke:none"
         d="M 0,0 V 351.03906 H 427.68359 V 152.86133 c -0.8388,1.22058 -1.6778,2.44114 -2.54101,3.64453 -1.58296,2.26199 -3.40833,4.32748 -5.32422,6.30859 -2.47819,2.57141 -5.4135,4.57682 -8.48047,6.36719 -3.28754,1.86919 -6.90222,2.90341 -10.5918,3.5957 -1.94325,0.32247 -3.91125,0.43566 -5.87695,0.50586 -1.23991,0.0447 -2.48013,0.0539 -3.7207,0.0469 -1.45475,-0.004 -2.90754,-0.0833 -4.35742,-0.19531 -0.38385,-0.0278 -0.75772,-0.12193 -1.13672,-0.18165 l -2.10157,3.14844 c -0.11078,-0.0739 -0.0564,-0.0364 -0.16601,-0.10937 -0.16811,-0.11148 -0.33695,-0.22177 -0.50586,-0.33203 -0.17125,-0.11118 -0.34131,-0.22257 -0.51367,-0.33204 -0.1869,-0.11833 -0.37422,-0.23819 -0.56055,-0.35742 -0.21017,-0.13461 -0.42082,-0.26941 -0.62695,-0.41015 -0.21706,-0.14982 -0.43149,-0.30213 -0.64063,-0.46289 -0.1895,-0.14474 -0.37826,-0.29048 -0.56445,-0.43946 -0.18691,-0.14954 -0.37246,-0.30021 -0.55664,-0.45312 -0.19835,-0.16591 -0.39512,-0.3352 -0.58594,-0.50977 -0.16655,-0.15235 -0.33236,-0.30555 -0.49609,-0.46093 -0.15772,-0.14966 -0.31512,-0.29932 -0.47071,-0.45118 -0.15998,-0.156 -0.3182,-0.31305 -0.47461,-0.47265 -0.10554,-0.1074 -0.21098,-0.21481 -0.3164,-0.32227 -0.73908,-0.27638 -1.47878,-0.55403 -2.20508,-0.86328 -1.7782,-0.77007 -3.44774,-1.75107 -5.07812,-2.79102 -1.07148,-0.68983 -2.02312,-1.53699 -2.99805,-2.35351 -0.065,-0.0235 -0.12935,-0.0477 -0.19336,-0.0742 l 0.0234,-0.0586 c -0.42068,-0.35578 -0.8885,-0.65185 -1.29883,-1.01954 -1.50966,-1.35122 -2.8206,-2.89444 -4.07031,-4.48242 -1.3159,-1.69389 -2.37325,-3.55662 -3.33985,-5.46484 -0.90898,-1.80742 -1.56115,-3.72105 -2.13281,-5.65625 -0.61621,-2.12364 -0.89679,-4.31549 -1.06055,-6.51367 -0.12468,-1.83537 -0.014,-3.66916 0.16211,-5.4961 0.0786,-0.72852 0.1973,-1.45177 0.32031,-2.17382 l 32.60547,5.69531 c 0.0848,-0.2169 0.16478,-0.43556 0.25,-0.65235 0.35767,-0.91389 0.72902,-1.82305 1.10743,-2.72851 0.38568,-0.91845 0.78423,-1.83136 1.1875,-2.74219 0.39959,-0.90346 0.8116,-1.80078 1.22656,-2.69726 0.41415,-0.89283 0.83947,-1.77982 1.26758,-2.66602 0.21927,-0.45358 0.44634,-0.90366 0.66992,-1.35547 -0.39006,-0.14686 -0.77915,-0.2972 -1.18164,-0.40625 -1.2933,0.31867 -2.56379,0.72702 -3.7168,1.41406 -0.78578,0.49046 -1.48679,1.00129 -2.15234,1.63282 -0.082,0.10413 -0.15633,0.21475 -0.24414,0.3125 -0.0417,0.0464 0.16403,-0.18051 0.10742,-0.1543 -0.0326,0.0151 -0.60769,0.68339 0.0976,-0.125 0.0126,-0.0121 0.0264,-0.0212 0.0391,-0.0332 0.15549,-0.19739 0.31226,-0.39539 0.46093,-0.59375 0.84575,-1.15452 1.63209,-2.3501 2.45118,-3.52344 0.82411,-1.20795 1.63556,-2.42442 2.42968,-3.65235 0.73299,-1.13571 1.4563,-2.27947 2.15039,-3.43945 0.48482,-0.81326 0.96616,-1.6307 1.38477,-2.48047 0.29037,-0.54682 0.52765,-1.12342 0.74023,-1.70312 0.29242,-0.56876 0.32851,-1.26184 0.50586,-1.86719 0.18607,-0.83234 0.28703,-1.68259 0.36133,-2.53125 0.10656,-1.21527 0.15988,-2.43652 0.17578,-3.65625 0.0175,-1.27206 0.0146,-2.54364 -0.0508,-3.81445 -0.0519,-1.10654 -0.14265,-2.21238 -0.28906,-3.310549 -0.12463,-0.981703 -0.29985,-1.959006 -0.51953,-2.923829 -0.16539,-0.744011 -0.34495,-1.484745 -0.5957,-2.205078 -0.27549,-0.892322 -0.68125,-1.741896 -1.04102,-2.601562 -0.53778,-1.215574 -1.10402,-2.418101 -1.68164,-3.615234 -0.61621,-1.284999 -1.23679,-2.56853 -1.87695,-3.841797 -0.63541,-1.265712 -1.27685,-2.528403 -1.9336,-3.783203 -0.59782,-1.138899 -1.20825,-2.271373 -1.8457,-3.388672 -0.61751,-1.087883 -1.24637,-2.167978 -1.90039,-3.234375 -0.62489,-1.019056 -1.26708,-2.02971 -1.93164,-3.023438 -0.68192,-1.023954 -1.37783,-2.037149 -2.0918,-3.039062 -0.73832,-1.03844 -1.48507,-2.071813 -2.24609,-3.09375 -0.72572,-0.971588 -1.46338,-1.934039 -2.21875,-2.882813 -0.70697,-0.891125 -1.42733,-1.771953 -2.16407,-2.638672 -0.62138,-0.730807 -1.25939,-1.446773 -1.92187,-2.140625 -0.64004,-0.672607 -1.29671,-1.330211 -1.97266,-1.966797 -0.54507,-0.518138 -1.10853,-1.017306 -1.69336,-1.490234 -0.64412,-0.530892 -1.31731,-1.02487 -1.99218,-1.515625 -0.67479,-0.487313 -1.35982,-0.962602 -2.05664,-1.417969 -0.69873,-0.460727 -1.41602,-0.892415 -2.13282,-1.324218 -0.84711,-0.504847 -1.69837,-1.001672 -2.55273,-1.494141 -0.81304,-0.467154 -1.62908,-0.928223 -2.44922,-1.382813 -0.72346,-0.399413 -1.45696,-0.781388 -2.19141,-1.160156 -0.89446,-0.460892 -1.79492,-0.910417 -2.6875,-1.375 -0.95953,-0.497402 -1.91921,-0.994174 -2.86914,-1.509766 -0.86642,-0.47162 -1.72892,-0.950051 -2.58984,-1.43164 -0.85564,-0.479962 -1.70946,-0.96369 -2.55859,-1.455078 -0.81951,-0.472805 -1.63875,-0.946116 -2.45313,-1.427735 -0.66477,-0.390421 -1.32996,-0.77933 -1.99805,-1.164062 -0.57737,-0.332293 -1.16087,-0.654385 -1.74609,-0.972656 -0.68839,-0.380482 -1.37392,-0.766336 -2.0625,-1.146485 -1.03295,-0.583282 -2.05744,-1.180123 -3.05273,-1.826172 -1.39858,-0.922755 -2.76919,-1.891622 -4.03711,-2.990234 -1.01602,-0.885091 -2.01344,-1.791028 -2.94532,-2.765625 -0.70526,-0.734477 -1.40269,-1.477194 -2.06836,-2.248047 -0.59486,-0.690529 -1.18196,-1.387897 -1.74414,-2.105469 -0.47385,-0.604574 -0.93989,-1.215305 -1.39257,-1.835937 -0.46296,-0.636031 -0.91832,-1.27813 -1.35352,-1.933594 -0.38389,-0.575781 -0.76207,-1.154122 -1.12695,-1.742187 -0.36537,-0.593358 -0.72822,-1.189991 -1.07422,-1.794922 -0.44377,-0.784891 -0.87633,-1.57699 -1.26172,-2.392578 -0.30997,-0.644699 -0.61174,-1.292848 -0.88281,-1.955079 C 315.53378,9.8992731 315.21148,9.0645316 314.9375,8.2128906 314.43981,6.5823531 314.00987,4.9305665 313.80273,3.234375 313.69688,2.3953353 313.59952,1.555172 313.54492,0.7109375 313.52911,0.47425693 313.52707,0.23686635 313.51367,0 Z m 410.72266,0 c -0.31094,0.71493909 -0.61904,1.4311032 -0.9336,2.1445312 -0.52308,1.1838455 -1.05737,2.3631371 -1.59375,3.5410157 -0.53756,1.176688 -1.08984,2.3470415 -1.64062,3.5175781 -0.52383,1.109762 -1.04682,2.218098 -1.57422,3.326172 -0.5057,1.061089 -1.01475,2.121043 -1.52149,3.181641 -0.53666,1.126897 -1.08857,2.247797 -1.63671,3.36914 -0.004,0.0079 -0.008,0.01558 -0.0117,0.02344 0.38775,0.350191 0.79868,0.673922 1.18164,1.029296 1.31433,1.225761 2.57991,2.502432 3.82617,3.796876 1.27068,1.320651 2.48789,2.689715 3.68359,4.078124 1.11703,1.305774 2.20044,2.63883 3.27149,3.982422 1.04669,1.313346 2.06923,2.64823 3.07617,3.992188 0.98573,1.320034 1.95025,2.654427 2.90625,3.996094 0.98856,1.385057 1.94873,2.790576 2.89453,4.205078 0.98916,1.476622 1.93837,2.977497 2.87109,4.490234 0.74384,1.20875 1.4535,2.438187 2.16211,3.667969 V 0 Z" />
    </clipPath>
  </defs>
  <path
     style="fill:#000000;fill-opacity:1;stroke:#000000;stroke-width:1px;stroke-linecap:butt;stroke-linejoin:miter;stroke-opacity:1"
     d="m 162.75413,189.46529 c 19.00105,-8.33887 35.26657,-22.78193 45.79429,-40.66331 10.52772,-17.88138 15.26503,-39.11172 13.33752,-59.772336 C 219.90058,67.748944 210.84251,47.188379 196.47957,31.360693 182.11662,15.533007 162.52949,4.5271145 141.54093,0.49100388"
     id="path13565"
     inkscape:path-effect="#path-effect13567"
     inkscape:original-d="m 162.75413,189.46529 c 19.7116,-33.47755 39.4222,-66.9561 59.13181,-100.435646 19.7096,-33.47955 -53.56234,-59.02476 -80.34501,-88.53864012" />
  <rect
     x="173.033"
     y="4.8899999"
     width="180.35001"
     height="189.17"
     rx="22.049999"
     id="rect174"
     clip-path="url(#clipPath14823)"
     style="stroke:#000000"
     ry="22.049999"
     transform="translate(-173.0332,-4.3703552)" />
  <path
     style="fill:#000000;stroke:#000000;stroke-width:63.2;stroke-linecap:butt;stroke-linejoin:miter;stroke-miterlimit:4;stroke-dasharray:none;stroke-opacity:1"
     d="m 135.31023,35.477826 c -7.07725,4.462352 -13.51029,10.010896 -18.63354,16.625454 -4.36415,5.6345 -7.74707,12.000206 -10.2383,18.677568 -4.37374,11.723122 -5.98543,24.687216 -3.10823,36.864362 3.94499,16.69636 15.73118,30.31552 27.72448,42.58304 1.60196,1.63859 3.22183,3.27266 5.04777,4.65729 1.82594,1.38462 3.8765,2.52037 6.10679,3.04674 3.54898,0.8376 7.33282,0.0687 10.62733,-1.49434 4.13984,-1.96409 7.59647,-5.10103 10.8676,-8.30971 11.42542,-11.20729 21.71942,-24.48902 25.04333,-40.14453 1.93685,-9.122526 1.39262,-18.67347 -0.84256,-27.727521 -2.95579,-11.973023 -8.91135,-23.249531 -17.45578,-32.142374 -4.99623,-5.199954 -10.81908,-9.552367 -16.93667,-13.370336 -1.55427,-0.970016 -3.14987,-1.916348 -4.90479,-2.442619 -1.63906,-0.491527 -3.3874,-0.60091 -5.08057,-0.353337 -2.972,0.434562 -5.67614,1.928335 -8.21686,3.530313 z"
     id="path14637"
     inkscape:path-effect="#path-effect14641"
     inkscape:original-d="m 135.31023,35.477826 c -0.80427,0.103664 -9.40343,8.563716 -18.63354,16.625454 -9.2301,8.061738 -7.90713,13.900701 -10.2383,18.677568 -2.33118,4.776867 -2.07127,24.576976 -3.10823,36.864362 -1.03697,12.2874 18.48386,28.38941 27.72448,42.58304 9.24062,14.19362 7.43726,5.13674 11.15456,7.70403 3.7173,2.5673 7.08577,-0.99548 10.62733,-1.49434 3.54157,-0.49883 7.24596,-5.53908 10.8676,-8.30971 3.62166,-2.77064 16.69645,-26.76232 25.04333,-40.14453 8.34689,-13.382255 -0.56083,-18.484298 -0.84256,-27.727521 -0.28172,-9.243224 -11.6363,-21.427524 -17.45578,-32.142374 -5.81946,-10.714851 -11.29023,-8.912832 -16.93667,-13.370336 -5.64644,-4.457501 -2.61808,-1.69883 -4.90479,-2.442619 -2.2867,-0.743791 -4.03706,-0.16369 -5.08057,-0.353337 -1.04352,-0.189647 -7.41258,3.426648 -8.21686,3.530313 z"
     sodipodi:nodetypes="sssssssssssssss" />
  <path
     class="cls-7"
     id="line236"
     style="stroke:#f65d32;stroke-width:4.41px;stroke-linecap:round;stroke-linejoin:round"
     d="M 110.66981,153.27964 H 13.64299" />
  <path
     class="cls-8"
     id="line238"
     style="fill:none;stroke:#f65d32;stroke-width:4.41px;stroke-linecap:round;stroke-linejoin:round"
     d="M 85.2098,174.69964 H 13.64299" />
  <path
     class="cls-8"
     id="line240"
     style="fill:none;stroke:#f65d32;stroke-width:4.41px;stroke-linecap:round;stroke-linejoin:round"
     d="m 158.2998,174.69964 h -73.09" />
  <path
     class="cls-7"
     id="line242"
     style="stroke:#f65d32;stroke-width:4.41001px;stroke-linecap:round;stroke-linejoin:round"
     d="M 93.0398,131.85964 H 13.64299" />
  <path
     class="cls-7"
     id="line244"
     style="stroke:#f65d32;stroke-width:4.41001px;stroke-linecap:round;stroke-linejoin:round"
     d="M 84.21981,110.43964 H 13.643" />
  <path
     class="cls-7"
     id="line246"
     style="stroke:#f65d32;stroke-width:4.41px;stroke-linecap:round;stroke-linejoin:round"
     d="m 59.0798,89.029645 h -16.31" />
  <path
     class="cls-7"
     id="line248"
     style="stroke:#f65d32;stroke-width:4.41001px;stroke-linecap:round;stroke-linejoin:round"
     d="M 91.62106,67.609645 H 13.64298" />
  <path
     class="cls-7"
     id="line250"
     style="stroke:#f65d32;stroke-width:4.41001px;stroke-linecap:round;stroke-linejoin:round"
     d="M 102.98921,46.189645 H 13.643" />
  <path
     class="cls-9"
     id="line268"
     style="fill:none;stroke:#f2d425;stroke-width:4.47px;stroke-linecap:round;stroke-linejoin:round"
     d="m 136.66006,109.02964 h 17.73" />
  <path
     class="cls-9"
     id="line270"
     style="fill:none;stroke:#f2d425;stroke-width:4.47px;stroke-linecap:round;stroke-linejoin:round"
     d="M 145.60886,53.52796 V 115.0205" />
  <path
     class="cls-10"
     d="m 149.41762,125.9278 h -10.33381 l -0.6822,-5.24604 h 13.33007 l 0.38762,3.0559 0.71321,4.34864 1.70938,11.85993 v 1.68806 a 2.2171561,2.2612922 0 0 1 -0.77523,1.18599 c -1.20936,0.94879 -3.19782,0.39533 -4.43819,-1.2611 -1.24037,-1.65644 -1.26362,-3.74774 -0.0543,-4.69653 a 2.372202,2.4194245 0 0 1 1.93808,-0.39534"
     id="path274"
     style="fill:none;stroke:#00aedc;stroke-width:2.44;stroke-linecap:round;stroke-linejoin:round;stroke-miterlimit:4;stroke-dasharray:none" />
  <path
     class="cls-10"
     d="m 139.68462,128.8058 1.7055,11.85993 v 1.65248 a 2.2636699,2.3087319 0 0 1 -0.77523,1.18599 c -1.21323,0.9488 -3.19782,0.39533 -4.43819,-1.26506 -1.24036,-1.66039 -1.25975,-3.7675 -0.0581,-4.70443 a 2.3838305,2.4312844 0 0 1 1.93807,-0.39533"
     id="path276"
     style="fill:none;stroke:#00aedc;stroke-width:2.44;stroke-linecap:round;stroke-linejoin:round;stroke-miterlimit:4;stroke-dasharray:none" />
  <path
     style="fill:none;stroke:#00aedc;stroke-width:4.39999;stroke-linecap:butt;stroke-linejoin:miter;stroke-miterlimit:4;stroke-dasharray:none;stroke-opacity:1"
     d="m 135.31023,35.707346 c -7.1348,4.806731 -13.56108,10.720897 -18.63354,17.669298 -4.40544,6.034704 -7.7589,12.801982 -10.2383,19.850256 -4.40522,12.522899 -6.05012,26.233881 -3.10823,39.17893 3.96553,17.44931 15.72645,31.9807 27.72448,45.25665 1.57099,1.73832 3.16001,3.47467 4.98118,4.94883 1.82117,1.47415 3.89632,2.68684 6.17338,3.23891 3.55355,0.86155 7.3549,0.0431 10.62733,-1.58817 4.19957,-2.09349 7.63325,-5.43172 10.8676,-8.83144 11.51982,-12.10884 21.73223,-26.28314 25.04333,-42.66505 1.96179,-9.70609 1.39957,-19.823224 -0.84256,-29.468411 -2.92674,-12.590254 -8.77501,-24.583173 -17.45578,-34.160463 -4.96178,-5.474218 -10.78724,-10.114578 -16.93667,-14.209803 -1.54496,-1.02887 -3.1351,-2.03592 -4.90479,-2.595982 -1.63327,-0.516887 -3.3872,-0.634813 -5.08057,-0.375521 -3.00147,0.45959 -5.69859,2.055402 -8.21686,3.751966 z"
     id="path1769"
     inkscape:path-effect="#path-effect1771"
     inkscape:original-d="m 135.31023,35.707346 c -0.80427,0.110174 -9.40343,9.101398 -18.63354,17.669298 -9.2301,8.567902 -7.90713,14.77347 -10.2383,19.850256 -2.33118,5.076788 -2.07127,26.120065 -3.10823,39.17893 -1.03697,13.05887 18.48386,30.17187 27.72448,45.25665 9.24062,15.08478 7.43726,5.45926 11.15456,8.18774 3.7173,2.72848 7.08577,-1.05799 10.62733,-1.58817 3.54157,-0.53015 7.24596,-5.88685 10.8676,-8.83144 3.62166,-2.9446 16.69645,-28.44262 25.04333,-42.66505 8.34689,-14.222465 -0.56083,-19.644844 -0.84256,-29.468411 -0.28172,-9.823568 -11.6363,-22.772871 -17.45578,-34.160463 -5.81946,-11.387591 -11.29023,-9.472431 -16.93667,-14.209803 -5.64644,-4.73737 -2.61808,-1.805494 -4.90479,-2.595982 -2.2867,-0.790491 -4.03706,-0.173967 -5.08057,-0.375521 -1.04352,-0.201554 -7.41258,3.641793 -8.21686,3.751966 z"
     sodipodi:nodetypes="sssssssssssssss" />
  <path
     class="cls-9"
     id="path2431"
     style="fill:none;stroke:#f2d425;stroke-width:4.47px;stroke-linecap:round;stroke-linejoin:round"
     d="m 136.66006,99.029645 h 17.73" />
  <path
     class="cls-9"
     id="path2433"
     style="fill:none;stroke:#f2d425;stroke-width:4.47px;stroke-linecap:round;stroke-linejoin:round"
     d="m 136.66006,89.029644 h 17.73" />
  <path
     class="cls-9"
     id="path2435"
     style="fill:none;stroke:#f2d425;stroke-width:4.47px;stroke-linecap:round;stroke-linejoin:round"
     d="m 136.66006,79.029644 h 17.73" />
  <path
     class="cls-9"
     id="path2437"
     style="fill:none;stroke:#f2d425;stroke-width:4.47px;stroke-linecap:round;stroke-linejoin:round"
     d="m 136.66006,69.029644 h 17.73" />
  <path
     class="cls-9"
     id="path2439"
     style="fill:none;stroke:#f2d425;stroke-width:4.47px;stroke-linecap:round;stroke-linejoin:round"
     d="m 136.66006,59.029644 h 17.73" />
  <path
     class="cls-8"
     id="path2554"
     style="fill:none;stroke:#f65d32;stroke-width:4.41001px;stroke-linecap:round;stroke-linejoin:round"
     d="M 156.44892,24.699646 H 13.64299" />
  <path
     class="cls-7"
     id="path2556"
     style="stroke:#f65d32;stroke-width:4.41001px;stroke-linecap:round;stroke-linejoin:round"
     d="M 84.21981,89.029645 H 13.643" />
</svg>
