<?xml version="1.0" encoding="UTF-8" standalone="no"?>
<svg
   id="Layer_1"
   data-name="Layer 1"
   viewBox="0 0 285.67001 285.67001"
   version="1.1"
   sodipodi:docname="MIN.svg"
   width="285.67001"
   height="285.67001"
   inkscape:version="1.1.1 (3bf5ae0d25, 2021-09-20)"
   xmlns:inkscape="http://www.inkscape.org/namespaces/inkscape"
   xmlns:sodipodi="http://sodipodi.sourceforge.net/DTD/sodipodi-0.dtd"
   xmlns="http://www.w3.org/2000/svg"
   xmlns:svg="http://www.w3.org/2000/svg"
   xmlns:rdf="http://www.w3.org/1999/02/22-rdf-syntax-ns#"
   xmlns:cc="http://creativecommons.org/ns#"
   xmlns:dc="http://purl.org/dc/elements/1.1/">
  <metadata
     id="metadata400">
    <rdf:RDF>
      <cc:Work
         rdf:about="">
        <dc:format>image/svg+xml</dc:format>
        <dc:type
           rdf:resource="http://purl.org/dc/dcmitype/StillImage" />
      </cc:Work>
    </rdf:RDF>
  </metadata>
  <sodipodi:namedview
     pagecolor="#ffffff"
     bordercolor="#666666"
     borderopacity="1"
     objecttolerance="10"
     gridtolerance="10"
     guidetolerance="10"
     inkscape:pageopacity="0"
     inkscape:pageshadow="2"
     inkscape:window-width="1920"
     inkscape:window-height="1017"
     id="namedview398"
     showgrid="false"
     inkscape:zoom="3.5600469"
     inkscape:cx="159.12712"
     inkscape:cy="134.40834"
     inkscape:window-x="-8"
     inkscape:window-y="-8"
     inkscape:window-maximized="1"
     inkscape:current-layer="Layer_1"
     inkscape:pagecheckerboard="0"
     showguides="true"
     inkscape:guide-bbox="true" />
  <defs
     id="defs19">
    <style
       id="style2">.cls-1{fill:#dcdbdb;}.cls-2{fill:#6b4fa0;}.cls-3{fill:#36296d;}.cls-14,.cls-4{fill:#fff;}.cls-5,.cls-9{fill:#8accdc;}.cls-15,.cls-16,.cls-6{fill:none;}.cls-15,.cls-6{stroke:#dcdbdb;}.cls-10,.cls-14,.cls-15,.cls-16,.cls-6,.cls-9{stroke-miterlimit:10;}.cls-6{stroke-width:3.24px;}.cls-7{fill:#4f2d88;}.cls-8{fill:#59595a;}.cls-10,.cls-14,.cls-9{stroke:#fff;stroke-width:4.06px;}.cls-10,.cls-17{fill:#55a8b4;}.cls-11{fill:#ed9a22;}.cls-12{fill:#898989;}.cls-13{fill:url(#linear-gradient);}.cls-15{stroke-width:11.69px;}.cls-16{stroke:#898989;stroke-width:6.68px;}.cls-18{fill:#3d2971;}</style>
    <linearGradient
       id="linear-gradient"
       x1="251.02"
       y1="532.25"
       x2="251.02"
       y2="520.22998"
       gradientUnits="userSpaceOnUse">
      <stop
         offset="0"
         stop-color="#6e7070"
         stop-opacity="0"
         id="stop4" />
      <stop
         offset="0.06"
         stop-color="#6e7070"
         stop-opacity="0.11"
         id="stop6" />
      <stop
         offset="0.24"
         stop-color="#6e7070"
         stop-opacity="0.43"
         id="stop8" />
      <stop
         offset="0.43"
         stop-color="#6d7070"
         stop-opacity="0.68"
         id="stop10" />
      <stop
         offset="0.62"
         stop-color="#6d7070"
         stop-opacity="0.86"
         id="stop12" />
      <stop
         offset="0.81"
         stop-color="#6d7070"
         stop-opacity="0.96"
         id="stop14" />
      <stop
         offset="1"
         stop-color="#6d7070"
         id="stop16" />
    </linearGradient>
  </defs>
  <path
     class="cls-4"
     d="m 197.62502,212.09502 c -1.17,0.27 -2.69,0.51 -3.63,0 -3.49,-1.92 -6.81,-4.17 -10.61,-6.55 l 12.91,-6.78 c -0.23,-0.79 -0.37,-1.34 -0.56,-1.87 -1.58,-4.43 -1.58,-4.42 -6,-3.2 -5.11,1.4 -10.2,2.84 -15.32,4.19 -0.94,0.25 -2.22,0.56 -2.93,0.14 -3.24,-1.89 -6.43,-3.88 -9.69,-5.92 h -33 c -3.25,2.09 -6.22,4 -9.32,5.75 a 7.82,7.82 0 0 1 -5.06,0.79 c -6.38,-1.44 -12.68,-3.25 -19.209998,-5 -0.78,2.12 -1.52,4.1 -2.29,6.15 l 13.149998,6.71 c -3.43,2.18 -6.349998,4.25 -9.489998,5.91 a 8,8 0 0 1 -4.75,0.68 c -3.36,-0.54 -6.66,-1.53 -10.26,-2.4 -1.69,6.56 -3.29,12.76 -4.95,19.24 l 19.49,4.9 c 1,-3.79 1.91,-7.22 2.89,-10.64 0.25,-0.84 0.56,-2 1.209998,-2.33 3.6,-2.11 7.32,-4 11.27,-6.17 v 14.45 a 14.86,14.86 0 0 1 2.17,0.43 c 3,1.06 4.54,0.38 5.17,-3.09 1,-5.32 2.47,-10.53 3.8,-15.78 0.21,-0.87 0.42,-2.09 1,-2.44 4.8,-2.76 9.71,-5.35 15.08,-8.25 0,4.83 -0.35,8.91 0.11,12.9 0.33,2.95 -0.61,4.71 -2.7,6.53 -4.68,4.06 -9.19,8.33 -14,12.67 l 4.14,5.17 13,-7.54 c 0,4 -0.15,7.29 0.05,10.58 a 6,6 0 0 1 -2.4,5.36 c -2.51,2.14 -4.84,4.49 -7.48,7 l 14.57,13.88 14.77,-13.93 c -3,-2.69 -5.73,-5 -8.27,-7.51 a 5,5 0 0 1 -1.45,-3.22 c 0.07,-3.75 0.46,-7.5 0.73,-11.27 a 3.23,3.23 0 0 1 0.88,0.12 c 2.24,1.42 4.49,2.84 6.71,4.29 5.24,3.42 5.24,3.43 9,-2.13 -4.63,-4.59 -9.31,-9.22 -14,-13.88 -0.71,-0.72 -1.81,-1.63 -1.78,-2.42 0.18,-5.45 0.61,-10.89 1,-16.76 a 95,95 0 0 0 8.91,4.56 c 4.38,1.7 6.62,4.54 7.37,9.28 0.84,5.27 2.59,10.4 4,15.66 l 6.28,-1.08 v -14.43 c 3.42,1.8 6.57,3.21 9.42,5.07 a 8.68,8.68 0 0 1 3.1,4 c 1.2,3.18 1.94,6.54 2.88,9.88 l 19.48,-5.12 -5.22,-19.24 c -3.71,0.99 -6.88,1.92 -10.17,2.66 z"
     id="path179"
     inkscape:connector-curvature="0"
     style="fill:#ffffff" />
  <rect
     class="cls-4"
     x="128.27501"
     y="173.93504"
     width="33.970001"
     height="21.16"
     id="rect181"
     style="fill:#ffffff" />
  <circle
     class="cls-3"
     cx="142.83501"
     cy="142.83501"
     r="136.99001"
     id="circle183"
     style="fill:#36296d" />
  <circle
     class="cls-15"
     cx="142.83501"
     cy="142.83501"
     r="136.99001"
     id="circle185"
     style="fill:none;stroke:#dcdbdb;stroke-width:11.68999958px;stroke-miterlimit:10" />
  <path
     class="cls-4"
     d="m 238.03502,145.24502 c 0,-0.8 0,-1.61 0,-2.41 a 95.23,95.23 0 1 0 -190.449998,0 c 0,0.8 0,1.61 0,2.41 z"
     id="path187"
     inkscape:connector-curvature="0"
     style="fill:#ffffff" />
  <path
     class="cls-4"
     d="m 198.67502,185.10502 c -1.25,0.28 -2.89,0.54 -3.89,0 -3.75,-2.07 -7.31,-4.48 -11.39,-7 l 13.86,-7.28 c -0.25,-0.85 -0.4,-1.43 -0.6,-2 -1.7,-4.75 -1.7,-4.75 -6.44,-3.44 -5.48,1.51 -10.95,3 -16.45,4.5 -1,0.27 -2.37,0.6 -3.14,0.15 -3.47,-2 -6.9,-4.17 -10.4,-6.36 h -35.43 c -3.49,2.25 -6.68,4.35 -10,6.18 a 8.43,8.43 0 0 1 -5.43,0.85 c -6.85,-1.55 -13.619998,-3.49 -20.619998,-5.34 -0.85,2.27 -1.64,4.4 -2.46,6.61 l 14.119998,7.2 c -3.689998,2.33 -6.819998,4.56 -10.189998,6.34 a 8.65,8.65 0 0 1 -5.1,0.73 c -3.61,-0.58 -7.15,-1.64 -11,-2.58 l -5.31,20.66 20.93,5.26 c 1.09,-4.07 2.05,-7.76 3.1,-11.42 0.26,-0.9 0.6,-2.11 1.29,-2.51 3.87,-2.27 7.859998,-4.33 12.109998,-6.62 v 15.49 a 17,17 0 0 1 2.32,0.46 c 3.22,1.14 4.88,0.41 5.55,-3.32 1,-5.7 2.65,-11.3 4.08,-16.93 0.23,-0.93 0.45,-2.24 1.11,-2.62 5.16,-3 10.43,-5.74 16.19,-8.86 0,5.18 -0.37,9.57 0.12,13.85 0.36,3.16 -0.65,5.06 -2.89,7 -5,4.37 -9.88,8.95 -15,13.61 l 4.44,5.55 13.92,-8.09 c 0,4.26 -0.16,7.82 0.06,11.35 a 6.43,6.43 0 0 1 -2.57,5.76 c -2.7,2.29 -5.21,4.82 -8,7.47 l 15.65,14.91 15.85,-15 c -3.21,-2.88 -6.15,-5.36 -8.87,-8.06 a 5.29,5.29 0 0 1 -1.56,-3.45 c 0.07,-4 0.49,-8.06 0.78,-12.11 a 3.42,3.42 0 0 1 0.94,0.14 c 2.41,1.52 4.82,3 7.21,4.6 5.63,3.68 5.62,3.68 9.61,-2.28 -5,-4.94 -10,-9.9 -15,-14.9 -0.76,-0.77 -1.94,-1.75 -1.91,-2.6 0.19,-5.85 0.66,-11.69 1.06,-18 3.63,1.89 6.48,3.7 9.56,4.89 4.71,1.83 7.11,4.87 7.92,10 0.9,5.65 2.78,11.16 4.25,16.81 l 6.74,-1.17 v -15.52 c 3.67,1.94 7,3.45 10.11,5.45 a 9.22,9.22 0 0 1 3.33,4.32 c 1.29,3.42 2.08,7 3.09,10.61 l 20.91,-5.5 c -1.93,-7.11 -3.75,-13.84 -5.6,-20.65 -4.03,1.06 -7.47,2.06 -10.96,2.86 z"
     id="path189"
     inkscape:connector-curvature="0"
     style="fill:#ffffff" />
  <rect
     class="cls-4"
     x="124.22502"
     y="144.13503"
     width="36.470001"
     height="22.719999"
     id="rect191"
     style="fill:#ffffff" />
  <ellipse
     class="cls-1"
     cx="149.73981"
     cy="134.15291"
     rx="36.34"
     ry="10.02"
     id="ellipse193"
     style="fill:#dcdbdb" />
  <path
     class="cls-1"
     d="m 171.28502,121.26502 c -1.45,-0.48 -3,-0.93 -4.72,-1.33 a 34,34 0 0 1 -21.46,8.12 h -0.71 a 34,34 0 0 1 -21.8,-7.86 c -1.69,0.43 -3.26,0.91 -4.69,1.43 a 38.17,38.17 0 0 0 26.49,10.61 h 0.79 a 38.16,38.16 0 0 0 26.1,-10.97 z"
     id="path207"
     inkscape:connector-curvature="0"
     style="fill:#dcdbdb" />
  <path
     style="font-variation-settings:normal;opacity:1;fill:#8f4248;fill-opacity:1;stroke:#8f4248;stroke-width:1.825;stroke-linecap:butt;stroke-linejoin:miter;stroke-miterlimit:4;stroke-dasharray:none;stroke-dashoffset:0;stroke-opacity:1;stop-color:#000000;stop-opacity:1"
     d="m 146.907,79.940856 c -7.00998,-0.118468 -13.91421,2.084405 -20.07528,5.334048 -6.62698,3.514392 -12.57065,8.318383 -17.33432,14.118522 -1.77868,1.940474 -3.20812,4.228924 -4.19576,6.663004 -0.63764,2.65945 1.04583,5.14831 2.61163,7.13422 1.42273,1.74828 2.67949,3.61564 4.4378,5.06067 3.87039,3.77642 8.05755,7.25589 12.79669,9.89702 6.47943,3.80534 13.84636,6.34275 21.42571,6.26321 4.22842,0.11449 8.48909,-0.20928 12.53595,-1.51672 8.67529,-2.49538 16.73347,-7.12281 23.09165,-13.5512 2.91708,-3.07903 6.13109,-6.26147 7.37796,-10.43146 0.62078,-1.94722 -0.11738,-3.89757 -0.78773,-5.70438 -0.4874,-0.95776 -1.33273,-1.80348 -1.87393,-2.77317 -2.32831,-3.108353 -5.22436,-5.748953 -8.05472,-8.388298 -5.30131,-4.418891 -11.3699,-7.962123 -17.93012,-10.140712 -3.9697,-1.096296 -8.02049,-2.088943 -12.17466,-1.959154 -0.61691,-0.0071 -1.23392,-0.0071 -1.85087,-0.0051 z m 10.67088,21.285164 c 1.13228,0.0682 0.83934,1.65448 0.98318,2.43082 0.14255,0.68292 -0.2054,2.31568 0.98672,2.08306 1.19745,-0.064 2.48554,0.006 3.61775,-0.25123 0.29102,-1.27008 -0.0604,-2.8315 0.69079,-3.95365 0.8237,-0.41806 1.27939,0.60271 1.1806,1.2791 0.18857,0.80064 -0.25758,2.07091 0.53412,2.59701 1.70037,0.35012 3.46426,0.19589 5.18925,0.31612 -0.15692,0.64019 0.39283,2.12895 -0.67063,2.14201 -1.57541,0.31419 -3.33156,-0.004 -4.83395,0.5808 -0.45228,1.1505 0.27416,2.72018 -0.68486,3.63991 -0.57397,0.29677 -1.18536,-0.12795 -1.08208,-0.79049 -0.31647,-1.02924 0.16995,-2.47264 -0.69869,-3.25497 -1.32194,-0.3253 -2.73093,-0.0337 -4.08145,-0.1353 -0.39138,1.33086 0.32028,3.22192 -0.79802,4.33308 -1.12638,0.45376 -1.41764,-1.17426 -1.50502,-1.94734 -0.26722,-0.68773 0.1225,-1.75709 -0.43401,-2.26586 -1.19256,-0.13078 -2.53327,-0.31126 -3.67355,0.12542 -0.83025,1.12847 -0.10981,2.85328 -1.03223,3.99362 -0.74989,0.70983 -1.38588,-0.56232 -1.38395,-1.19919 -0.31564,-0.92887 0.15741,-2.28474 -0.69317,-2.95269 -1.09326,-0.11992 -2.32796,-0.247 -3.37246,0.15351 -0.75233,0.95646 -0.2796,2.35016 -0.78258,3.43656 -0.0899,0.76355 -1.083,1.10133 -1.34796,0.25123 -0.70409,-1.15141 -0.0633,-2.72872 -0.86171,-3.7867 -1.25632,-0.34488 -2.66048,-0.0749 -3.93941,0.10564 -0.83587,0.40952 -0.38594,1.67431 -0.5448,2.40868 0.11435,0.7486 -0.31316,1.95383 -1.28505,1.5422 -0.7494,-1.12799 -0.13212,-2.76593 -0.81068,-3.94574 -0.98661,-0.54078 -2.26408,-0.13603 -3.35186,-0.15074 -1.37713,0.19693 -0.9712,1.99587 -1.24787,2.95585 0.0287,0.62455 -0.36948,1.50766 -1.12125,1.126 -0.88373,-0.87616 -0.23035,-2.37254 -0.63895,-3.45991 -0.25388,-1.18057 -1.85679,-0.54245 -2.6698,-0.72362 -0.85376,-0.17758 -2.69272,0.58508 -2.21758,-0.89534 -0.0202,-0.71674 0.31144,-1.55589 1.19246,-1.32224 1.13186,-0.16013 2.45716,0.2831 3.4884,-0.27298 0.76414,-1.15498 -0.11172,-2.85855 0.84547,-3.89274 0.58464,-0.34417 1.26855,0.10138 1.12601,0.81424 0.21952,1.0221 0.003,2.25479 0.53333,3.16672 1.3733,0.29292 2.90731,0.12718 4.24405,-0.0186 0.27598,-1.29174 -0.0472,-2.82383 0.60808,-3.9936 0.76841,-0.37053 1.40949,0.42034 1.28981,1.15249 0.17753,0.93795 -0.4094,2.64432 0.89099,2.95625 1.21575,0.0498 2.60889,0.30271 3.73328,-0.22235 0.56479,-1.2675 -0.0868,-2.94569 0.83007,-4.05573 1.12436,-0.39408 1.56633,1.08007 1.54536,1.92242 0.2926,0.81175 -0.40908,2.67433 0.88954,2.43071 1.05903,-0.22439 2.70084,0.30675 3.40588,-0.38667 0.32758,-1.27155 0.0368,-2.95216 1.03904,-3.95815 1.04771,-0.31256 1.21746,1.20827 1.24865,1.92242 0.0763,0.81134 -0.30998,2.40072 0.9614,2.39998 1.03107,-0.045 2.27254,0.23468 3.19166,-0.23501 0.44636,-1.32759 0.0555,-3.12038 1.19722,-4.12261 0.0989,-0.0497 0.20992,-0.0736 0.32046,-0.0724 z"
     id="path1650" />
  <path
     class="cls-5"
     d="m 75.915022,121.84502 v 8 h 1.84 v 6.91 h -12.09 v -6.91 h 1.83 v -16.88 h -1.83 v -6.88 h 9.85 l 7.09,11.84 7.09,-11.84 h 9.85 v 6.88 h -1.83 v 16.88 h 1.83 v 6.91 h -12.09 v -6.91 h 1.84 v -8 l -6.69,11.1 z"
     id="path209"
     inkscape:connector-curvature="0"
     style="fill:#8accdc" />
  <path
     class="cls-5"
     d="m 220.72502,131.84502 -4.88,4.89 h -18.93 v -6.89 h 1.84 v -16.88 h -1.84 v -6.88 h 19 l 4.88,4.89 v 7.87 l -2,2 2,2 z m -9.4,-18.85 h -4.19 v 4.44 h 4.19 l 1,-1 v -2.46 z m 0,11.32 h -4.19 v 5.53 h 4.19 l 1,-1 v -3.56 z"
     id="path211"
     inkscape:connector-curvature="0"
     style="fill:#8accdc" />
  <polygon
     class="cls-17"
     points="674.75,465.24 674.75,472.12 676.58,472.12 676.58,480.07 706.8,480.07 706.8,472.12 708.63,472.12 708.63,465.24 698.78,465.24 691.69,477.08 684.6,465.24 "
     id="polygon213"
     style="fill:#55a8b4"
     transform="translate(-609.08498,-359.15498)" />
  <path
     class="cls-17"
     d="m 196.91502,106.08502 v 6.88 h 1.84 v 7.95 h 20.08 l -0.09,-0.09 2,-2 v -7.83 l -4.88,-4.89 z m 15.44,10.33 -1,1 h -4.19 v -4.44 h 4.19 l 1,1 z"
     id="path215"
     inkscape:connector-curvature="0"
     style="fill:#55a8b4" />
  <polyline
     class="cls-5"
     points="676.58 472.12 680.83 481.57 676.5 481.57"
     id="polyline217"
     style="fill:#8accdc"
     transform="translate(-609.08498,-359.15498)" />
  <polyline
     class="cls-5"
     points="807.92 472.28 812.17 481.74 807.83 481.74"
     id="polyline219"
     style="fill:#8accdc"
     transform="translate(-609.08498,-359.15498)" />
  <path
     style="fill:#ffffff;fill-opacity:1;stroke-width:1"
     d="m 103.86078,106.26451 c 0.16174,-0.17793 0.46443,-0.83356 0.67266,-1.45696 0.69184,-2.07117 3.57999,-5.969174 7.19555,-9.711507 8.03772,-8.319544 17.85391,-13.895414 28.39162,-16.127235 3.77734,-0.800019 11.5727,-0.790906 15.66439,0.01834 8.27198,1.635951 17.03084,5.839889 23.89259,11.467561 6.3517,5.209357 11.39965,11.983371 11.95359,16.040921 0.47339,3.4676 -2.41479,8.36229 -8.51962,14.43838 -4.66562,4.64369 -8.93037,7.68433 -14.50155,10.33924 -7.64701,3.64413 -13.1232,4.95113 -20.77298,4.95786 -5.95178,0.005 -8.81222,-0.47558 -14.46385,-2.43128 -11.72299,-4.05667 -24.34314,-14.30355 -28.50112,-23.14142 -1.31788,-2.80118 -1.54844,-3.80292 -1.01128,-4.39388 z m 3.28348,4.10352 c 1.96445,4.07089 7.46548,9.74304 13.93705,14.37064 5.79987,4.14727 10.83838,6.59821 16.78809,8.16641 4.49551,1.18491 12.39802,1.48162 16.94872,0.63637 4.14351,-0.76962 9.14261,-2.47659 13.42825,-4.58515 10.4158,-5.12461 21.12167,-16.09986 21.12167,-21.65315 0,-5.54777 -10.70535,-16.403791 -21.54418,-21.847373 C 161.323,82.190845 154.66905,80.5707 147.76078,80.5707 c -11.4554,0 -23.66404,5.428763 -33.22871,14.775656 -5.04201,4.927224 -8.8304,10.549844 -8.40038,12.467614 0.105,0.46824 0.56065,1.61757 1.01257,2.55406 z m 20.92514,-4.59731 h 2.36755 l 0.10138,-2.12838 c 0.0961,-2.01621 0.14624,-2.12838 0.95273,-2.12838 0.80648,0 0.8567,0.11218 0.95273,2.12838 l 0.10138,2.12838 h 2.181 2.18104 l 0.10138,-2.12838 c 0.0961,-2.01621 0.14626,-2.12838 0.95274,-2.12838 0.80649,0 0.85671,0.11218 0.95275,2.12838 l 0.10137,2.12838 h 2.19728 2.19726 v -1.67485 c 0,-2.06944 0.24558,-2.75218 0.98995,-2.75218 0.99283,0 1.39384,0.75442 1.39384,2.62217 v 1.80486 h 2.02625 2.02625 l 0.10212,-1.92286 c 0.0713,-1.34342 0.27311,-2.03015 0.66954,-2.2789 0.99978,-0.62736 1.6461,0.30337 1.6461,2.37049 v 1.83127 h 2.04326 2.04324 v -1.55482 c 0,-1.85574 0.47342,-2.87221 1.33772,-2.87221 0.80035,0 1.04605,0.64646 1.04605,2.75218 v 1.67485 h 2.19727 2.19727 l 0.10138,-2.12838 c 0.0961,-2.01621 0.14626,-2.12838 0.95275,-2.12838 0.80647,0 0.85669,0.11218 0.95273,2.12838 l 0.10138,2.12838 h 2.70808 2.70808 v 1.1919 1.19189 h -2.70808 -2.70808 l -0.10138,2.12839 c -0.0961,2.01619 -0.14626,2.12837 -0.95273,2.12837 -0.80649,0 -0.8567,-0.11223 -0.95275,-2.12837 l -0.10138,-2.12839 h -2.19727 -2.19727 v 1.67485 c 0,2.10571 -0.2457,2.75218 -1.04605,2.75218 -0.8643,0 -1.33772,-1.01647 -1.33772,-2.87222 v -1.55481 h -2.02626 -2.02625 l -0.10213,1.92286 c -0.0713,1.34342 -0.2731,2.03014 -0.66951,2.2789 -0.99978,0.62736 -1.64612,-0.30338 -1.64612,-2.37049 v -1.83127 h -2.04324 -2.04325 v 1.83127 c 0,2.06711 -0.64633,2.99785 -1.64612,2.37049 -0.39641,-0.24876 -0.59817,-0.93548 -0.66953,-2.2789 l -0.10212,-1.92286 h -2.18028 -2.18026 l -0.10138,2.12839 c -0.0961,2.01619 -0.14625,2.12837 -0.95275,2.12837 -0.80647,0 -0.85669,-0.11223 -0.95273,-2.12837 l -0.10138,-2.12839 h -2.18102 -2.18101 l -0.10138,2.12839 c -0.0961,2.01619 -0.14626,2.12837 -0.95274,2.12837 -0.80649,0 -0.8567,-0.11223 -0.95274,-2.12837 l -0.10138,-2.12839 h -2.36755 -2.36753 v -1.19189 -1.1919 z"
     id="path1201" />
</svg>
