<?xml version="1.0" encoding="UTF-8" standalone="no"?>
<svg
   id="Layer_1"
   data-name="Layer 1"
   viewBox="0 0 285.67001 285.67001"
   version="1.1"
   sodipodi:docname="MIN2.svg"
   width="285.67001"
   height="285.67001"
   inkscape:version="1.1.1 (3bf5ae0d25, 2021-09-20)"
   xmlns:inkscape="http://www.inkscape.org/namespaces/inkscape"
   xmlns:sodipodi="http://sodipodi.sourceforge.net/DTD/sodipodi-0.dtd"
   xmlns="http://www.w3.org/2000/svg"
   xmlns:svg="http://www.w3.org/2000/svg"
   xmlns:rdf="http://www.w3.org/1999/02/22-rdf-syntax-ns#"
   xmlns:cc="http://creativecommons.org/ns#"
   xmlns:dc="http://purl.org/dc/elements/1.1/">
  <metadata
     id="metadata400">
    <rdf:RDF>
      <cc:Work
         rdf:about="">
        <dc:format>image/svg+xml</dc:format>
        <dc:type
           rdf:resource="http://purl.org/dc/dcmitype/StillImage" />
      </cc:Work>
    </rdf:RDF>
  </metadata>
  <sodipodi:namedview
     pagecolor="#ffffff"
     bordercolor="#666666"
     borderopacity="1"
     objecttolerance="10"
     gridtolerance="10"
     guidetolerance="10"
     inkscape:pageopacity="0"
     inkscape:pageshadow="2"
     inkscape:window-width="1920"
     inkscape:window-height="1017"
     id="namedview398"
     showgrid="false"
     inkscape:zoom="0.89001173"
     inkscape:cx="-65.729471"
     inkscape:cy="34.269211"
     inkscape:window-x="-8"
     inkscape:window-y="-8"
     inkscape:window-maximized="1"
     inkscape:current-layer="Layer_1"
     inkscape:pagecheckerboard="0"
     showguides="true"
     inkscape:guide-bbox="true">
    <sodipodi:guide
       position="124.22502,141.53499"
       orientation="1,0"
       id="guide84273" />
    <sodipodi:guide
       position="160.69502,141.53499"
       orientation="1,0"
       id="guide84275" />
    <sodipodi:guide
       position="88.762874,202.80593"
       orientation="0,-1"
       id="guide84277" />
  </sodipodi:namedview>
  <defs
     id="defs19">
    <style
       id="style2">.cls-1{fill:#dcdbdb;}.cls-2{fill:#6b4fa0;}.cls-3{fill:#36296d;}.cls-14,.cls-4{fill:#fff;}.cls-5,.cls-9{fill:#8accdc;}.cls-15,.cls-16,.cls-6{fill:none;}.cls-15,.cls-6{stroke:#dcdbdb;}.cls-10,.cls-14,.cls-15,.cls-16,.cls-6,.cls-9{stroke-miterlimit:10;}.cls-6{stroke-width:3.24px;}.cls-7{fill:#4f2d88;}.cls-8{fill:#59595a;}.cls-10,.cls-14,.cls-9{stroke:#fff;stroke-width:4.06px;}.cls-10,.cls-17{fill:#55a8b4;}.cls-11{fill:#ed9a22;}.cls-12{fill:#898989;}.cls-13{fill:url(#linear-gradient);}.cls-15{stroke-width:11.69px;}.cls-16{stroke:#898989;stroke-width:6.68px;}.cls-18{fill:#3d2971;}</style>
    <linearGradient
       id="linear-gradient"
       x1="251.02"
       y1="532.25"
       x2="251.02"
       y2="520.22998"
       gradientUnits="userSpaceOnUse">
      <stop
         offset="0"
         stop-color="#6e7070"
         stop-opacity="0"
         id="stop4" />
      <stop
         offset="0.06"
         stop-color="#6e7070"
         stop-opacity="0.11"
         id="stop6" />
      <stop
         offset="0.24"
         stop-color="#6e7070"
         stop-opacity="0.43"
         id="stop8" />
      <stop
         offset="0.43"
         stop-color="#6d7070"
         stop-opacity="0.68"
         id="stop10" />
      <stop
         offset="0.62"
         stop-color="#6d7070"
         stop-opacity="0.86"
         id="stop12" />
      <stop
         offset="0.81"
         stop-color="#6d7070"
         stop-opacity="0.96"
         id="stop14" />
      <stop
         offset="1"
         stop-color="#6d7070"
         id="stop16" />
    </linearGradient>
    <linearGradient
       id="linear-gradient-1"
       x1="251.02"
       y1="532.25"
       x2="251.02"
       y2="520.22998"
       gradientUnits="userSpaceOnUse"
       gradientTransform="matrix(0.97294949,0,0,0.97294949,35.762223,18.599622)">
      <stop
         offset="0"
         stop-color="#6e7070"
         stop-opacity="0"
         id="stop4-8" />
      <stop
         offset="0.06"
         stop-color="#6e7070"
         stop-opacity="0.11"
         id="stop6-7" />
      <stop
         offset="0.24"
         stop-color="#6e7070"
         stop-opacity="0.43"
         id="stop8-3" />
      <stop
         offset="0.43"
         stop-color="#6d7070"
         stop-opacity="0.68"
         id="stop10-5" />
      <stop
         offset="0.62"
         stop-color="#6d7070"
         stop-opacity="0.86"
         id="stop12-1" />
      <stop
         offset="0.81"
         stop-color="#6d7070"
         stop-opacity="0.96"
         id="stop14-7" />
      <stop
         offset="1"
         stop-color="#6d7070"
         id="stop16-0" />
    </linearGradient>
  </defs>
  <path
     class="cls-4"
     d="m 197.62502,212.09502 c -1.17,0.27 -2.69,0.51 -3.63,0 -3.49,-1.92 -6.81,-4.17 -10.61,-6.55 l 12.91,-6.78 c -0.23,-0.79 -0.37,-1.34 -0.56,-1.87 -1.58,-4.43 -1.58,-4.42 -6,-3.2 -5.11,1.4 -10.2,2.84 -15.32,4.19 -0.94,0.25 -2.22,0.56 -2.93,0.14 -3.24,-1.89 -6.43,-3.88 -9.69,-5.92 h -33 c -3.25,2.09 -6.22,4 -9.32,5.75 a 7.82,7.82 0 0 1 -5.06,0.79 c -6.38,-1.44 -12.68,-3.25 -19.209998,-5 -0.78,2.12 -1.52,4.1 -2.29,6.15 l 13.149998,6.71 c -3.43,2.18 -6.349998,4.25 -9.489998,5.91 a 8,8 0 0 1 -4.75,0.68 c -3.36,-0.54 -6.66,-1.53 -10.26,-2.4 -1.69,6.56 -3.29,12.76 -4.95,19.24 l 19.49,4.9 c 1,-3.79 1.91,-7.22 2.89,-10.64 0.25,-0.84 0.56,-2 1.209998,-2.33 3.6,-2.11 7.32,-4 11.27,-6.17 v 14.45 a 14.86,14.86 0 0 1 2.17,0.43 c 3,1.06 4.54,0.38 5.17,-3.09 1,-5.32 2.47,-10.53 3.8,-15.78 0.21,-0.87 0.42,-2.09 1,-2.44 4.8,-2.76 9.71,-5.35 15.08,-8.25 0,4.83 -0.35,8.91 0.11,12.9 0.33,2.95 -0.61,4.71 -2.7,6.53 -4.68,4.06 -9.19,8.33 -14,12.67 l 4.14,5.17 13,-7.54 c 0,4 -0.15,7.29 0.05,10.58 a 6,6 0 0 1 -2.4,5.36 c -2.51,2.14 -4.84,4.49 -7.48,7 l 14.57,13.88 14.77,-13.93 c -3,-2.69 -5.73,-5 -8.27,-7.51 a 5,5 0 0 1 -1.45,-3.22 c 0.07,-3.75 0.46,-7.5 0.73,-11.27 a 3.23,3.23 0 0 1 0.88,0.12 c 2.24,1.42 4.49,2.84 6.71,4.29 5.24,3.42 5.24,3.43 9,-2.13 -4.63,-4.59 -9.31,-9.22 -14,-13.88 -0.71,-0.72 -1.81,-1.63 -1.78,-2.42 0.18,-5.45 0.61,-10.89 1,-16.76 a 95,95 0 0 0 8.91,4.56 c 4.38,1.7 6.62,4.54 7.37,9.28 0.84,5.27 2.59,10.4 4,15.66 l 6.28,-1.08 v -14.43 c 3.42,1.8 6.57,3.21 9.42,5.07 a 8.68,8.68 0 0 1 3.1,4 c 1.2,3.18 1.94,6.54 2.88,9.88 l 19.48,-5.12 -5.22,-19.24 c -3.71,0.99 -6.88,1.92 -10.17,2.66 z"
     id="path179"
     inkscape:connector-curvature="0"
     style="fill:#ffffff" />
  <rect
     class="cls-4"
     x="128.27501"
     y="173.93504"
     width="33.970001"
     height="21.16"
     id="rect181"
     style="fill:#ffffff" />
  <circle
     class="cls-3"
     cx="142.83501"
     cy="142.83501"
     r="136.99001"
     id="circle183"
     style="fill:#36296d" />
  <circle
     class="cls-15"
     cx="142.83501"
     cy="142.83501"
     r="136.99001"
     id="circle185"
     style="fill:none;stroke:#dcdbdb;stroke-width:11.68999958px;stroke-miterlimit:10" />
  <path
     class="cls-4"
     d="m 238.03502,145.24502 c 0,-0.8 0,-1.61 0,-2.41 a 95.23,95.23 0 1 0 -190.449998,0 c 0,0.8 0,1.61 0,2.41 z"
     id="path187"
     inkscape:connector-curvature="0"
     style="fill:#ffffff" />
  <path
     class="cls-4"
     d="m 198.67502,185.10502 c -1.25,0.28 -2.89,0.54 -3.89,0 -3.75,-2.07 -7.31,-4.48 -11.39,-7 l 13.86,-7.28 c -0.25,-0.85 -0.4,-1.43 -0.6,-2 -1.7,-4.75 -1.7,-4.75 -6.44,-3.44 -5.48,1.51 -10.95,3 -16.45,4.5 -1,0.27 -2.37,0.6 -3.14,0.15 -3.47,-2 -6.9,-4.17 -10.4,-6.36 h -35.43 c -3.49,2.25 -6.68,4.35 -10,6.18 a 8.43,8.43 0 0 1 -5.43,0.85 c -6.85,-1.55 -13.619998,-3.49 -20.619998,-5.34 -0.85,2.27 -1.64,4.4 -2.46,6.61 l 14.119998,7.2 c -3.689998,2.33 -6.819998,4.56 -10.189998,6.34 a 8.65,8.65 0 0 1 -5.1,0.73 c -3.61,-0.58 -7.15,-1.64 -11,-2.58 l -5.31,20.66 20.93,5.26 c 1.09,-4.07 2.05,-7.76 3.1,-11.42 0.26,-0.9 0.6,-2.11 1.29,-2.51 3.87,-2.27 7.859998,-4.33 12.109998,-6.62 v 15.49 a 17,17 0 0 1 2.32,0.46 c 3.22,1.14 4.88,0.41 5.55,-3.32 1,-5.7 2.65,-11.3 4.08,-16.93 0.23,-0.93 0.45,-2.24 1.11,-2.62 5.16,-3 10.43,-5.74 16.19,-8.86 0,5.18 -0.37,9.57 0.12,13.85 0.36,3.16 -0.65,5.06 -2.89,7 -5,4.37 -9.88,8.95 -15,13.61 l 4.44,5.55 13.92,-8.09 c 0,4.26 -0.16,7.82 0.06,11.35 a 6.43,6.43 0 0 1 -2.57,5.76 c -2.7,2.29 -5.21,4.82 -8,7.47 l 15.65,14.91 15.85,-15 c -3.21,-2.88 -6.15,-5.36 -8.87,-8.06 a 5.29,5.29 0 0 1 -1.56,-3.45 c 0.07,-4 0.49,-8.06 0.78,-12.11 a 3.42,3.42 0 0 1 0.94,0.14 c 2.41,1.52 4.82,3 7.21,4.6 5.63,3.68 5.62,3.68 9.61,-2.28 -5,-4.94 -10,-9.9 -15,-14.9 -0.76,-0.77 -1.94,-1.75 -1.91,-2.6 0.19,-5.85 0.66,-11.69 1.06,-18 3.63,1.89 6.48,3.7 9.56,4.89 4.71,1.83 7.11,4.87 7.92,10 0.9,5.65 2.78,11.16 4.25,16.81 l 6.74,-1.17 v -15.52 c 3.67,1.94 7,3.45 10.11,5.45 a 9.22,9.22 0 0 1 3.33,4.32 c 1.29,3.42 2.08,7 3.09,10.61 l 20.91,-5.5 c -1.93,-7.11 -3.75,-13.84 -5.6,-20.65 -4.03,1.06 -7.47,2.06 -10.96,2.86 z"
     id="path189"
     inkscape:connector-curvature="0"
     style="fill:#ffffff" />
  <rect
     class="cls-4"
     x="124.22502"
     y="144.13503"
     width="36.470001"
     height="22.719999"
     id="rect191"
     style="fill:#ffffff" />
  <path
     class="cls-5"
     d="m 89.465776,110.55634 v 14.05698 h 3.233102 v 12.14171 H 71.455276 v -12.14171 h 3.215533 V 94.953093 h -3.215533 v -12.089 h 17.307652 l 12.458002,20.804327 12.45799,-20.804327 h 17.30766 v 12.089 h -3.21554 v 29.660227 h 3.21554 v 12.14171 h -21.24361 v -12.14171 h 3.2331 v -14.05698 l -11.75514,19.50406 z"
     id="path209"
     inkscape:connector-curvature="0"
     style="fill:#8accdc;stroke-width:0.999999" />
  <path
     class="cls-5"
     d="m 202.57119,128.13466 -8.58276,8.60036 h -33.29341 v -12.11789 h 3.23613 V 94.929199 h -3.23613 V 82.828904 h 33.41652 l 8.58277,8.600355 v 13.841471 l -3.51753,3.51753 3.51753,3.51753 z M 186.03881,94.981962 h -7.36922 v 7.808908 h 7.36922 l 1.75877,-1.75876 v -4.326559 z m 0,19.909208 h -7.36922 v 9.72596 h 7.36922 l 1.75877,-1.75876 v -6.2612 z"
     id="path211"
     inkscape:connector-curvature="0"
     style="fill:#8accdc;stroke-width:1" />
  <polygon
     class="cls-17"
     points="706.8,472.12 708.63,472.12 708.63,465.24 698.78,465.24 691.69,477.08 684.6,465.24 674.75,465.24 674.75,472.12 676.58,472.12 676.58,480.07 706.8,480.07 "
     id="polygon213"
     style="fill:#55a8b4;stroke-width:0.569112"
     transform="matrix(1.7571222,0,0,1.7571222,-1114.163,-734.61945)" />
  <path
     class="cls-17"
     d="m 160.69502,82.828904 v 12.100295 h 3.23613 v 13.982171 h 35.31598 l -0.15829,-0.15829 3.51753,-3.51752 V 91.464434 l -8.58277,-8.600355 z m 27.15532,18.168026 -1.75876,1.75877 h -7.36923 v -7.808913 h 7.36923 l 1.75876,1.758764 z"
     id="path215"
     inkscape:connector-curvature="0"
     style="fill:#55a8b4;stroke-width:1" />
  <polyline
     class="cls-5"
     points="676.58 472.12 680.83 481.57 676.5 481.57"
     id="polyline217"
     style="fill:#8accdc;stroke-width:0.569112"
     transform="matrix(1.7571222,0,0,1.7571222,-1114.163,-734.61945)" />
  <polyline
     class="cls-5"
     points="807.92 472.28 812.17 481.74 807.83 481.74"
     id="polyline219"
     style="fill:#8accdc;stroke-width:0.568581"
     transform="matrix(1.7587639,0,0,1.7587639,-1256.8686,-735.41842)" />
</svg>
