<?xml version="1.0" encoding="UTF-8" standalone="no"?>
<svg
   id="Layer_1"
   data-name="Layer 1"
   version="1.1"
   width="89.966621"
   height="162.55945"
   sodipodi:docname="OKC.svg"
   inkscape:version="1.1.1 (3bf5ae0d25, 2021-09-20)"
   xmlns:inkscape="http://www.inkscape.org/namespaces/inkscape"
   xmlns:sodipodi="http://sodipodi.sourceforge.net/DTD/sodipodi-0.dtd"
   xmlns="http://www.w3.org/2000/svg"
   xmlns:svg="http://www.w3.org/2000/svg">
  <sodipodi:namedview
     id="namedview38"
     pagecolor="#747474"
     bordercolor="#ffffff"
     borderopacity="1"
     inkscape:pageshadow="2"
     inkscape:pageopacity="0"
     inkscape:pagecheckerboard="0"
     showgrid="false"
     showguides="true"
     inkscape:guide-bbox="true"
     inkscape:zoom="2.9886807"
     inkscape:cx="58.721562"
     inkscape:cy="68.759436"
     inkscape:window-width="1920"
     inkscape:window-height="1017"
     inkscape:window-x="-8"
     inkscape:window-y="-8"
     inkscape:window-maximized="1"
     inkscape:current-layer="Layer_1"
     fit-margin-top="0"
     fit-margin-left="0"
     fit-margin-right="0"
     fit-margin-bottom="0">
    <sodipodi:guide
       position="4.4855929,239.73405"
       orientation="0,-1"
       id="guide3891" />
    <sodipodi:guide
       position="-0.073097086,307.18407"
       orientation="1,0"
       id="guide4315" />
    <sodipodi:guide
       position="90.100463,298.65188"
       orientation="1,0"
       id="guide37388" />
  </sodipodi:namedview>
  <defs
     id="defs4">
    <inkscape:path-effect
       effect="spiro"
       id="path-effect1350"
       is_visible="true"
       lpeversion="1" />
    <inkscape:path-effect
       effect="spiro"
       id="path-effect28018"
       is_visible="true"
       lpeversion="1" />
    <inkscape:path-effect
       effect="spiro"
       id="path-effect23601"
       is_visible="true"
       lpeversion="1" />
    <inkscape:path-effect
       effect="spiro"
       id="path-effect1287"
       is_visible="true"
       lpeversion="1" />
    <inkscape:path-effect
       effect="spiro"
       id="path-effect1103"
       is_visible="true"
       lpeversion="1" />
    <inkscape:path-effect
       effect="spiro"
       id="path-effect1033"
       is_visible="true"
       lpeversion="1" />
    <inkscape:path-effect
       effect="spiro"
       id="path-effect996"
       is_visible="true"
       lpeversion="1" />
    <inkscape:path-effect
       effect="spiro"
       id="path-effect910"
       is_visible="true"
       lpeversion="1" />
    <style
       id="style2">.cls-4{fill:#e4dfcf}.cls-7{stroke:#610000;stroke-miterlimit:10}.cls-10,.cls-7,.cls-8{fill:#610000}.cls-7{stroke-width:6.74px}.cls-10{stroke:#e4dfcf;stroke-linecap:round;stroke-linejoin:round;stroke-width:6.49px}</style>
    <clipPath
       clipPathUnits="userSpaceOnUse"
       id="clipPath1550">
      <path
         id="path1552"
         style="fill:#ff0000;fill-opacity:1;fill-rule:nonzero;stroke:none"
         d="m 121.86328,284.65234 c -0.0106,0.16668 -0.0227,0.33326 -0.0312,0.5 -0.0144,0.27635 -0.0233,0.55348 -0.0312,0.83008 -0.008,0.29579 -0.0136,0.59084 -0.0156,0.88672 -0.002,0.33192 -0.002,0.66416 -0.002,0.99609 5e-5,0.35622 0.002,0.71214 0.002,1.06836 0,0.35788 0.002,0.71634 0.004,1.07422 10e-4,0.35668 0.004,0.71366 0.008,1.07031 0.004,0.35862 0.008,0.71757 0.0117,1.07618 0.004,0.35774 0.009,0.7145 0.0117,1.07226 0.003,0.37613 0.003,0.75279 0,1.12891 -0.004,0.37003 -0.0106,0.73939 -0.0176,1.10937 -0.007,0.35739 -0.0145,0.71487 -0.0215,1.07227 -0.006,0.34472 -0.0116,0.69039 -0.0156,1.03516 -0.004,0.32788 -0.004,0.65452 -0.002,0.98242 0.002,0.32553 0.008,0.65113 0.0156,0.97656 0.007,0.31492 0.0187,0.63065 0.0332,0.94531 0.0157,0.32312 0.0328,0.64576 0.0508,0.96875 0.003,0.0539 0.007,0.10821 0.01,0.16211 l -6.60938,0.375 v 101.51367 h 91.85742 V 301.58203 l -2.35742,0.008 c -2.1e-4,-0.10158 4e-4,-0.2031 0,-0.30468 0,-0.12362 -9.5e-4,-0.24552 -0.002,-0.36914 0,-0.12418 -9e-4,-0.24888 -0.002,-0.37305 -0.001,-0.12333 -0.002,-0.24778 -0.004,-0.37109 -0.002,-0.1232 -0.005,-0.24602 -0.01,-0.36915 -0.005,-0.13183 -0.0106,-0.2627 -0.0156,-0.39453 -0.005,-0.13647 -0.0106,-0.27367 -0.0156,-0.41015 -0.005,-0.14312 -0.0106,-0.28654 -0.0156,-0.42969 -0.005,-0.14471 -0.01,-0.28887 -0.0137,-0.43359 -0.005,-0.14311 -0.009,-0.2866 -0.0137,-0.42969 -0.005,-0.13736 -0.009,-0.27485 -0.0156,-0.41211 -0.007,-0.13062 -0.0156,-0.26032 -0.0273,-0.39063 -0.0122,-0.13719 -0.0272,-0.27529 -0.043,-0.41211 -0.0171,-0.14669 -0.0354,-0.29304 -0.0547,-0.43945 -0.0198,-0.15131 -0.0406,-0.3021 -0.0625,-0.45312 -0.0221,-0.15354 -0.0439,-0.30776 -0.0684,-0.46094 -0.0246,-0.15316 -0.0501,-0.30446 -0.0781,-0.45703 -0.0287,-0.15826 -0.0588,-0.31679 -0.0899,-0.47461 -0.0311,-0.15866 -0.0624,-0.31834 -0.0957,-0.47656 -0.0325,-0.15501 -0.065,-0.30833 -0.0996,-0.4629 -0.0333,-0.1485 -0.0673,-0.29748 -0.10352,-0.44531 -0.0346,-0.14177 -0.0712,-0.28299 -0.10937,-0.42383 -0.0362,-0.13327 -0.074,-0.2666 -0.11524,-0.39843 -0.0408,-0.13093 -0.0821,-0.26101 -0.12695,-0.39063 -0.0431,-0.12451 -0.088,-0.24985 -0.13476,-0.37304 -0.0461,-0.12203 -0.0938,-0.24234 -0.14258,-0.36329 -0.0508,-0.12654 -0.10135,-0.25439 -0.15235,-0.38086 -0.0518,-0.12833 -0.10505,-0.2562 -0.15625,-0.38476 -0.052,-0.13015 -0.10299,-0.26019 -0.15429,-0.39063 -0.0509,-0.12959 -0.10099,-0.25849 -0.15039,-0.38867 -0.0454,-0.11931 -0.0915,-0.23997 -0.13672,-0.35937 -0.0412,-0.10843 -0.0814,-0.21594 -0.12305,-0.32422 -0.0384,-0.0996 -0.0787,-0.19923 -0.11719,-0.29883 -0.0364,-0.0942 -0.0716,-0.1888 -0.10742,-0.2832 -0.0328,-0.0866 -0.0656,-0.17287 -0.0977,-0.25977 -0.0294,-0.0798 -0.058,-0.15983 -0.0859,-0.24023 -0.0277,-0.0799 -0.0563,-0.15904 -0.0801,-0.24024 -0.0224,-0.0776 -0.0425,-0.15517 -0.0586,-0.23437 -0.0189,-0.0981 -0.0361,-0.19679 -0.0391,-0.29688 l 2.95703,-0.11523 c -0.001,-0.062 -0.0104,-0.12465 -0.0215,-0.18555 v -0.002 c 0.001,0.003 -0.004,-0.0126 -0.002,-0.01 0.002,0.003 0.003,0.006 0.004,0.01 0.0104,0.035 0.0212,0.071 0.0332,0.10547 0.0218,0.0627 0.0454,0.12324 0.0684,0.18554 0.029,0.0784 0.0583,0.15813 0.0879,0.23633 0.0336,0.0885 0.0675,0.17733 0.10156,0.26563 0.0387,0.10018 0.0786,0.19861 0.11719,0.29882 0.0433,0.11262 0.086,0.22513 0.1289,0.3379 0.045,0.11887 0.0896,0.23863 0.13477,0.35742 0.0456,0.12047 0.0935,0.2414 0.14062,0.36133 0.0491,0.12508 0.0985,0.24823 0.14844,0.37304 0.05,0.12543 0.0999,0.25175 0.15039,0.37696 0.0516,0.12798 0.10485,0.25476 0.15625,0.38281 0.0563,0.13949 0.10891,0.28118 0.16211,0.42187 0.0566,0.14897 0.11186,0.29869 0.16406,0.44922 0.0549,0.15816 0.10625,0.31681 0.15625,0.47656 0.0522,0.16647 0.0985,0.33369 0.14453,0.50196 0.0452,0.16588 0.088,0.33302 0.12891,0.5 0.0407,0.1662 0.0797,0.33304 0.11719,0.5 0.0375,0.16773 0.0721,0.33569 0.10742,0.5039 0.0306,0.14537 0.0607,0.2916 0.0898,0.4375 v -8.90625 z" />
    </clipPath>
  </defs>
  <path
     style="fill:#e4dfcf;fill-opacity:1;stroke:#e4dfcf;stroke-width:35;stroke-linecap:round;stroke-linejoin:round;stroke-miterlimit:4;stroke-dasharray:none;stroke-opacity:1"
     d="m 45.319703,17.555291 c -0.811397,-0.08623 -1.633566,-0.07061 -2.4411,0.0464 -2.755146,0.3992 -5.221267,1.956241 -7.29035,3.81879 -3.346111,3.012106 -5.834881,6.843211 -8.16453,10.69574 -3.866338,6.393744 -7.453728,13.102961 -8.98504,20.41621 -0.255642,1.220895 -0.452747,2.453835 -0.59962,3.69253 -0.612614,5.166657 -0.347183,10.41306 0.46085,15.55278 0.820148,5.216781 2.207621,10.3703 4.46898,15.14248 2.197819,4.638089 5.184792,8.849212 8.11098,13.06581 1.489589,2.146479 2.975973,4.311729 4.784007,6.197799 1.808034,1.88607 3.970945,3.49765 6.457723,4.29901 2.455548,0.7913 5.219234,0.73627 7.54563,-0.37897 2.378624,-1.14028 4.121435,-3.24943 5.81765,-5.26956 3.602016,-4.28988 7.37628,-8.50293 10.07942,-13.409109 1.94991,-3.539073 3.305041,-7.375874 4.42505,-11.25824 0.971528,-3.367675 1.774313,-6.793225 2.17245,-10.27555 0.267201,-2.337088 0.351299,-4.693994 0.28115,-7.04526 -0.191804,-6.428916 -1.544487,-12.814902 -3.90433,-18.79812 -1.159828,-2.940663 -2.561252,-5.785876 -4.18324,-8.49915 -2.813119,-4.705806 -6.296158,-9.016651 -10.35594,-12.70127 -2.208494,-2.004407 -4.632383,-3.849341 -7.42801,-4.88836 -0.411093,-0.152786 -0.828868,-0.287595 -1.25173,-0.40391 z"
     id="path1346"
     inkscape:path-effect="#path-effect1350"
     inkscape:original-d="m 45.319703,17.555291 c -0.41827,-0.13563 -0.012,-1.22757 -2.4411,0.0464 -2.4291,1.27391 -4.85922,2.54684 -7.29035,3.81879 -2.43114,1.27195 -5.44201,7.13147 -8.16453,10.69574 -2.72252,3.56426 -5.989,13.61179 -8.98504,20.41621 -2.99603,6.80444 -0.39872,2.46268 -0.59962,3.69253 -0.20089,1.22986 0.30822,10.36951 0.46085,15.55278 0.15263,5.18328 2.98034,10.09597 4.46898,15.14248 1.48864,5.04651 5.40834,8.71152 8.11098,13.06581 2.70265,4.354289 7.49551,6.998849 11.24173,10.496809 3.74623,3.49795 5.03144,-0.25167 7.54563,-0.37897 2.51418,-0.12727 3.87945,-3.51205 5.81765,-5.26956 1.9382,-1.75749 6.72063,-8.938419 10.07942,-13.409109 3.35878,-4.47068 2.95105,-7.50451 4.42505,-11.25824 1.474,-3.75373 1.44932,-6.84939 2.17245,-10.27555 0.72313,-3.42617 0.18845,-4.69586 0.28115,-7.04526 0.0927,-2.34941 -2.60187,-12.53111 -3.90433,-18.79812 -1.30247,-6.26702 -2.7878,-5.66512 -4.18324,-8.49915 -1.39542,-2.83403 -6.90293,-8.46654 -10.35594,-12.70127 -3.453,-4.23474 -4.95098,-3.25792 -7.42801,-4.88836 -2.47702,-1.63043 -0.83347,-0.26829 -1.25173,-0.40391 z" />
  <path
     id="polyline200"
     style="fill:#e4dfcf;stroke:#e4dfcf;stroke-width:1.67px;stroke-miterlimit:10"
     d="m 117.49215,284.66826 -1.38741,70.59464 45.4295,47.02675 44.74406,-47.00495 -1.36264,-66.11434"
     clip-path="url(#clipPath1550)"
     transform="translate(-116.17784,-241.40729)" />
  <path
     class="cls-8"
     id="polygon208"
     style="fill:#610000"
     d="m 22.738753,120.28084 -1.34,-26.779999 -8.68,-4.99 -1.35,31.769999 5.68,7.4 z" />
  <path
     style="fill:#610000;fill-opacity:1;stroke:#610000;stroke-width:20.5;stroke-linecap:round;stroke-linejoin:round;stroke-miterlimit:4;stroke-dasharray:none;stroke-opacity:1"
     d="m 45.319703,17.555291 c -0.811397,-0.08623 -1.633566,-0.07061 -2.4411,0.0464 -2.755146,0.3992 -5.221267,1.956241 -7.29035,3.81879 -3.346111,3.012106 -5.834881,6.843211 -8.16453,10.69574 -3.866338,6.393744 -7.453728,13.102961 -8.98504,20.41621 -0.255642,1.220895 -0.452747,2.453835 -0.59962,3.69253 -0.612614,5.166657 -0.347183,10.41306 0.46085,15.55278 0.820148,5.216781 2.207621,10.3703 4.46898,15.14248 2.197819,4.638089 5.184792,8.849212 8.11098,13.06581 1.489589,2.146479 2.975973,4.311729 4.784007,6.197799 1.808034,1.88607 3.970945,3.49765 6.457723,4.29901 2.455548,0.7913 5.219234,0.73627 7.54563,-0.37897 2.378624,-1.14028 4.121435,-3.24943 5.81765,-5.26956 3.602016,-4.28988 7.37628,-8.50293 10.07942,-13.409109 1.94991,-3.539073 3.305041,-7.375874 4.42505,-11.25824 0.971528,-3.367675 1.774313,-6.793225 2.17245,-10.27555 0.267201,-2.337088 0.351299,-4.693994 0.28115,-7.04526 -0.191804,-6.428916 -1.544487,-12.814902 -3.90433,-18.79812 -1.159828,-2.940663 -2.561252,-5.785876 -4.18324,-8.49915 -2.813119,-4.705806 -6.296158,-9.016651 -10.35594,-12.70127 -2.208494,-2.004407 -4.632383,-3.849341 -7.42801,-4.88836 -0.411093,-0.152786 -0.828868,-0.287595 -1.25173,-0.40391 z"
     id="path28014"
     inkscape:path-effect="#path-effect28018"
     inkscape:original-d="m 45.319703,17.555291 c -0.41827,-0.13563 -0.012,-1.22757 -2.4411,0.0464 -2.4291,1.27391 -4.85922,2.54684 -7.29035,3.81879 -2.43114,1.27195 -5.44201,7.13147 -8.16453,10.69574 -2.72252,3.56426 -5.989,13.61179 -8.98504,20.41621 -2.99603,6.80444 -0.39872,2.46268 -0.59962,3.69253 -0.20089,1.22986 0.30822,10.36951 0.46085,15.55278 0.15263,5.18328 2.98034,10.09597 4.46898,15.14248 1.48864,5.04651 5.40834,8.71152 8.11098,13.06581 2.70265,4.354289 7.49551,6.998849 11.24173,10.496809 3.74623,3.49795 5.03144,-0.25167 7.54563,-0.37897 2.51418,-0.12727 3.87945,-3.51205 5.81765,-5.26956 1.9382,-1.75749 6.72063,-8.938419 10.07942,-13.409109 3.35878,-4.47068 2.95105,-7.50451 4.42505,-11.25824 1.474,-3.75373 1.44932,-6.84939 2.17245,-10.27555 0.72313,-3.42617 0.18845,-4.69586 0.28115,-7.04526 0.0927,-2.34941 -2.60187,-12.53111 -3.90433,-18.79812 -1.30247,-6.26702 -2.7878,-5.66512 -4.18324,-8.49915 -1.39542,-2.83403 -6.90293,-8.46654 -10.35594,-12.70127 -3.453,-4.23474 -4.95098,-3.25792 -7.42801,-4.88836 -2.47702,-1.63043 -0.83347,-0.26829 -1.25173,-0.40391 z" />
  <path
     class="cls-4"
     id="polygon210"
     style="fill:#e4dfcf"
     d="m 16.398753,96.700841 h -1.94 v 16.149999 l 2.6,-6.64 2.59,6.64 0.01,-16.149999 h -1.74 l -0.86,-3.85 z" />
  <path
     class="cls-8"
     id="polygon212"
     style="fill:#610000"
     d="m 36.552163,133.69271 -1.34,-26.77 -8.68,-5 -1.35,31.77 5.68,7.4 z" />
  <path
     class="cls-4"
     id="polygon214"
     style="fill:#e4dfcf"
     d="m 30.212163,110.11271 h -1.94 v 16.15 l 2.6,-6.63 2.59,6.63 v -16.15 h -1.73 l -0.86,-3.84 z" />
  <path
     class="cls-8"
     id="polygon216"
     style="fill:#610000"
     d="m 50.522163,141.68271 -1.33,-26.77 -8.69,-5 -1.35,31.77 5.69,9.54 z" />
  <path
     class="cls-4"
     id="polygon218"
     style="fill:#e4dfcf"
     d="m 44.192163,118.10271 h -1.94 l -0.01,16.15 2.6,-6.63 2.6,6.63 v -16.15 h -1.73 l -0.86,-3.84 z" />
  <path
     class="cls-8"
     id="polygon220"
     style="fill:#610000"
     d="m 64.512163,134.20271 -1.34,-26.78 -8.68,-4.99 -1.35,31.77 5.68,7.4 z" />
  <path
     class="cls-4"
     id="polygon222"
     style="fill:#e4dfcf"
     d="m 58.172163,110.62271 h -1.94 l -0.01,16.15 2.6,-6.64 2.6,6.64 v -16.15 h -1.73 l -0.86,-3.85 z" />
  <path
     class="cls-8"
     id="polygon224"
     style="fill:#610000"
     d="m 77.002593,120.58952 -1.34,-26.769999 -8.68,-5 -1.35,31.769999 5.68,7.4 z" />
  <path
     class="cls-4"
     id="polygon226"
     style="fill:#e4dfcf"
     d="m 70.662593,97.009521 h -1.94 v 16.149999 l 2.6,-6.63 2.59,6.63 0.01,-16.149999 h -1.74 l -0.86,-3.84 z" />
  <path
     style="fill:none;stroke:#e4dfcf;stroke-width:7;stroke-linecap:round;stroke-linejoin:round;stroke-miterlimit:4;stroke-dasharray:none;stroke-opacity:1"
     d="m 45.319703,17.555291 c -0.811397,-0.08623 -1.633566,-0.07061 -2.4411,0.0464 -2.755146,0.3992 -5.221267,1.956241 -7.29035,3.81879 -3.346111,3.012106 -5.834881,6.843211 -8.16453,10.69574 -3.866338,6.393744 -7.453728,13.102961 -8.98504,20.41621 -0.255642,1.220895 -0.452747,2.453835 -0.59962,3.69253 -0.612614,5.166657 -0.347183,10.41306 0.46085,15.55278 0.820148,5.216781 2.207621,10.3703 4.46898,15.14248 2.197819,4.638089 5.184792,8.849212 8.11098,13.06581 1.489589,2.146479 2.975973,4.311729 4.784007,6.197799 1.808034,1.88607 3.970945,3.49765 6.457723,4.29901 2.455548,0.7913 5.219234,0.73627 7.54563,-0.37897 2.378624,-1.14028 4.121435,-3.24943 5.81765,-5.26956 3.602016,-4.28988 7.37628,-8.50293 10.07942,-13.409109 1.94991,-3.539073 3.305041,-7.375874 4.42505,-11.25824 0.971528,-3.367675 1.774313,-6.793225 2.17245,-10.27555 0.267201,-2.337088 0.351299,-4.693994 0.28115,-7.04526 -0.191804,-6.428916 -1.544487,-12.814902 -3.90433,-18.79812 -1.159828,-2.940663 -2.561252,-5.785876 -4.18324,-8.49915 -2.813119,-4.705806 -6.296158,-9.016651 -10.35594,-12.70127 -2.208494,-2.004407 -4.632383,-3.849341 -7.42801,-4.88836 -0.411093,-0.152786 -0.828868,-0.287595 -1.25173,-0.40391 z"
     id="path908"
     inkscape:path-effect="#path-effect910"
     inkscape:original-d="m 45.319703,17.555291 c -0.41827,-0.13563 -0.012,-1.22757 -2.4411,0.0464 -2.4291,1.27391 -4.85922,2.54684 -7.29035,3.81879 -2.43114,1.27195 -5.44201,7.13147 -8.16453,10.69574 -2.72252,3.56426 -5.989,13.61179 -8.98504,20.41621 -2.99603,6.80444 -0.39872,2.46268 -0.59962,3.69253 -0.20089,1.22986 0.30822,10.36951 0.46085,15.55278 0.15263,5.18328 2.98034,10.09597 4.46898,15.14248 1.48864,5.04651 5.40834,8.71152 8.11098,13.06581 2.70265,4.354289 7.49551,6.998849 11.24173,10.496809 3.74623,3.49795 5.03144,-0.25167 7.54563,-0.37897 2.51418,-0.12727 3.87945,-3.51205 5.81765,-5.26956 1.9382,-1.75749 6.72063,-8.938419 10.07942,-13.409109 3.35878,-4.47068 2.95105,-7.50451 4.42505,-11.25824 1.474,-3.75373 1.44932,-6.84939 2.17245,-10.27555 0.72313,-3.42617 0.18845,-4.69586 0.28115,-7.04526 0.0927,-2.34941 -2.60187,-12.53111 -3.90433,-18.79812 -1.30247,-6.26702 -2.7878,-5.66512 -4.18324,-8.49915 -1.39542,-2.83403 -6.90293,-8.46654 -10.35594,-12.70127 -3.453,-4.23474 -4.95098,-3.25792 -7.42801,-4.88836 -2.47702,-1.63043 -0.83347,-0.26829 -1.25173,-0.40391 z" />
  <path
     style="fill:none;stroke:#e4dfcf;stroke-width:2.5;stroke-linecap:round;stroke-linejoin:miter;stroke-miterlimit:4;stroke-dasharray:none;stroke-opacity:1"
     d="m 44.457993,46.287881 0.0243,33.30817"
     id="path3420" />
  <path
     style="fill:none;stroke:#e4dfcf;stroke-width:2.5;stroke-linecap:round;stroke-linejoin:miter;stroke-miterlimit:4;stroke-dasharray:none;stroke-opacity:1"
     d="m 40.565903,45.326291 8.04506,-0.0202"
     id="path3601" />
  <path
     style="fill:none;stroke:#e4dfcf;stroke-width:2.5;stroke-linecap:round;stroke-linejoin:miter;stroke-miterlimit:4;stroke-dasharray:none;stroke-opacity:1"
     d="m 40.565903,51.326291 8.04506,-0.0202"
     id="path3893" />
  <path
     style="fill:none;stroke:#e4dfcf;stroke-width:2.5;stroke-linecap:round;stroke-linejoin:miter;stroke-miterlimit:4;stroke-dasharray:none;stroke-opacity:1"
     d="m 40.565903,57.326291 8.04506,-0.0202"
     id="path3897" />
  <path
     style="fill:none;stroke:#e4dfcf;stroke-width:2.5;stroke-linecap:round;stroke-linejoin:miter;stroke-miterlimit:4;stroke-dasharray:none;stroke-opacity:1"
     d="m 40.565903,63.326291 8.04506,-0.0202"
     id="path3901" />
  <path
     style="fill:none;stroke:#e4dfcf;stroke-width:2.5;stroke-linecap:round;stroke-linejoin:miter;stroke-miterlimit:4;stroke-dasharray:none;stroke-opacity:1"
     d="m 40.565903,69.326291 8.04506,-0.0202"
     id="path3905" />
  <path
     style="fill:none;stroke:#e4dfcf;stroke-width:2.5;stroke-linecap:round;stroke-linejoin:miter;stroke-miterlimit:4;stroke-dasharray:none;stroke-opacity:1"
     d="m 40.565903,75.326291 8.04506,-0.0202"
     id="path3909" />
  <path
     style="fill:none;stroke:#e4dfcf;stroke-width:2.5;stroke-linecap:round;stroke-linejoin:miter;stroke-miterlimit:4;stroke-dasharray:none;stroke-opacity:1"
     d="m 40.565903,81.326291 8.04506,-0.0202"
     id="path3913" />
  <path
     style="fill:none;stroke:#e4dfcf;stroke-width:7.1;stroke-linecap:round;stroke-linejoin:round;stroke-miterlimit:4;stroke-dasharray:none;stroke-opacity:1"
     d="m 45.319703,17.555291 c -0.811397,-0.08623 -1.633566,-0.07061 -2.4411,0.0464 -2.755146,0.3992 -5.221267,1.956241 -7.29035,3.81879 -3.346111,3.012106 -5.834881,6.843211 -8.16453,10.69574 -3.866338,6.393744 -7.453728,13.102961 -8.98504,20.41621 -0.255642,1.220895 -0.452747,2.453835 -0.59962,3.69253 -0.612614,5.166657 -0.347183,10.41306 0.46085,15.55278 0.820148,5.216781 2.207621,10.3703 4.46898,15.14248 2.197819,4.638089 5.184792,8.849212 8.11098,13.06581 1.489589,2.146479 2.975973,4.311729 4.784007,6.197799 1.808034,1.88607 3.970945,3.49765 6.457723,4.29901 2.455548,0.7913 5.219234,0.73627 7.54563,-0.37897 2.378624,-1.14028 4.121435,-3.24943 5.81765,-5.26956 3.602016,-4.28988 7.37628,-8.50293 10.07942,-13.409109 1.94991,-3.539073 3.305041,-7.375874 4.42505,-11.25824 0.971528,-3.367675 1.774313,-6.793225 2.17245,-10.27555 0.267201,-2.337088 0.351299,-4.693994 0.28115,-7.04526 -0.191804,-6.428916 -1.544487,-12.814902 -3.90433,-18.79812 -1.159828,-2.940663 -2.561252,-5.785876 -4.18324,-8.49915 -2.813119,-4.705806 -6.296158,-9.016651 -10.35594,-12.70127 -2.208494,-2.004407 -4.632383,-3.849341 -7.42801,-4.88836 -0.411093,-0.152786 -0.828868,-0.287595 -1.25173,-0.40391 z"
     id="path23597"
     inkscape:path-effect="#path-effect23601"
     inkscape:original-d="m 45.319703,17.555291 c -0.41827,-0.13563 -0.012,-1.22757 -2.4411,0.0464 -2.4291,1.27391 -4.85922,2.54684 -7.29035,3.81879 -2.43114,1.27195 -5.44201,7.13147 -8.16453,10.69574 -2.72252,3.56426 -5.989,13.61179 -8.98504,20.41621 -2.99603,6.80444 -0.39872,2.46268 -0.59962,3.69253 -0.20089,1.22986 0.30822,10.36951 0.46085,15.55278 0.15263,5.18328 2.98034,10.09597 4.46898,15.14248 1.48864,5.04651 5.40834,8.71152 8.11098,13.06581 2.70265,4.354289 7.49551,6.998849 11.24173,10.496809 3.74623,3.49795 5.03144,-0.25167 7.54563,-0.37897 2.51418,-0.12727 3.87945,-3.51205 5.81765,-5.26956 1.9382,-1.75749 6.72063,-8.938419 10.07942,-13.409109 3.35878,-4.47068 2.95105,-7.50451 4.42505,-11.25824 1.474,-3.75373 1.44932,-6.84939 2.17245,-10.27555 0.72313,-3.42617 0.18845,-4.69586 0.28115,-7.04526 0.0927,-2.34941 -2.60187,-12.53111 -3.90433,-18.79812 -1.30247,-6.26702 -2.7878,-5.66512 -4.18324,-8.49915 -1.39542,-2.83403 -6.90293,-8.46654 -10.35594,-12.70127 -3.453,-4.23474 -4.95098,-3.25792 -7.42801,-4.88836 -2.47702,-1.63043 -0.83347,-0.26829 -1.25173,-0.40391 z" />
</svg>
