<?xml version="1.0" encoding="UTF-8" standalone="no"?>
<svg
   xmlns:dc="http://purl.org/dc/elements/1.1/"
   xmlns:cc="http://creativecommons.org/ns#"
   xmlns:rdf="http://www.w3.org/1999/02/22-rdf-syntax-ns#"
   xmlns:svg="http://www.w3.org/2000/svg"
   xmlns="http://www.w3.org/2000/svg"
   xmlns:sodipodi="http://sodipodi.sourceforge.net/DTD/sodipodi-0.dtd"
   xmlns:inkscape="http://www.inkscape.org/namespaces/inkscape"
   id="Layer_1"
   data-name="Layer 1"
   viewBox="0 0 261.72992 285.36887"
   version="1.1"
   sodipodi:docname="PIT.svg"
   width="261.72992"
   height="285.36887"
   inkscape:version="0.92.5 (2060ec1f9f, 2020-04-08)">
  <metadata
     id="metadata241">
    <rdf:RDF>
      <cc:Work
         rdf:about="">
        <dc:format>image/svg+xml</dc:format>
        <dc:type
           rdf:resource="http://purl.org/dc/dcmitype/StillImage" />
        <dc:title></dc:title>
      </cc:Work>
    </rdf:RDF>
  </metadata>
  <sodipodi:namedview
     pagecolor="#ffffff"
     bordercolor="#666666"
     borderopacity="1"
     objecttolerance="10"
     gridtolerance="10"
     guidetolerance="10"
     inkscape:pageopacity="0"
     inkscape:pageshadow="2"
     inkscape:window-width="1920"
     inkscape:window-height="997"
     id="namedview239"
     showgrid="false"
     inkscape:zoom="0.62933333"
     inkscape:cx="-175.62519"
     inkscape:cy="291.96913"
     inkscape:window-x="0"
     inkscape:window-y="28"
     inkscape:window-maximized="1"
     inkscape:current-layer="Layer_1" />
  <defs
     id="defs4">
    <style
       id="style2">.cls-1,.cls-5,.cls-8{fill:#fbee28;}.cls-2,.cls-4,.cls-9{fill:#231f20;}.cls-3,.cls-7{fill:#fff;}.cls-10,.cls-11,.cls-3,.cls-4,.cls-9{stroke:#231f20;}.cls-3,.cls-5,.cls-6,.cls-8{stroke-miterlimit:10;}.cls-10,.cls-11,.cls-4,.cls-9{stroke-linecap:round;stroke-linejoin:round;}.cls-4,.cls-5{stroke-width:2.03px;}.cls-5,.cls-6,.cls-8{stroke:#fbee28;}.cls-10,.cls-11,.cls-6{fill:none;}.cls-6{stroke-width:6.76px;}.cls-8{stroke-width:2.1px;}.cls-9{stroke-width:2px;}.cls-10{stroke-width:8.39px;}.cls-11{stroke-width:8.86px;}</style>
  </defs>
  <rect
     class="cls-2"
     x="12.019958"
     y="44.700279"
     width="237.12"
     height="125.88"
     id="rect196"
     style="fill:#231f20" />
  <path
     class="cls-2"
     d="m 12.019955,44.700286 v 125.880004 0 a 118.56,118.56 0 0 0 237.000005,0 v 0 -125.880004 z"
     id="path198"
     inkscape:connector-curvature="0"
     style="fill:#231f20" />
  <path
     class="cls-1"
     d="m 218.39996,162.22029 a 11.19,11.19 0 0 1 -0.52,3.28 13.21,13.21 0 0 1 -1.59,3.4 17.11,17.11 0 0 1 -2.74,3.23 18.48,18.48 0 0 1 -4,2.79 26.55,26.55 0 0 1 -5.33,2.06 33.32,33.32 0 0 1 -6.72,1.06 11.91,11.91 0 0 1 3.8,2.17 13.23,13.23 0 0 1 2.55,3 16,16 0 0 1 1.62,3.46 c 0.41,1.21 0.75,2.4 1,3.57 0.25,1.17 0.53,2.29 0.76,3.36 a 19.26,19.26 0 0 0 0.81,2.82 5.44,5.44 0 0 0 1.19,2 2.52,2.52 0 0 0 1.91,0.73 8.86,8.86 0 0 0 2.42,-0.37 15.53,15.53 0 0 0 2.7,-1.06 21.06,21.06 0 0 0 5.24,-3.7 l 3.77,6.37 a 3.47,3.47 0 0 0 -0.62,0.4 c -0.41,0.29 -1,0.66 -1.72,1.11 -0.72,0.45 -1.61,0.93 -2.62,1.46 a 27.78,27.78 0 0 1 -3.32,1.47 28.27,28.27 0 0 1 -3.85,1.14 19,19 0 0 1 -4.14,0.46 6.86,6.86 0 0 1 -4,-1.17 10.08,10.08 0 0 1 -2.84,-3.09 19.83,19.83 0 0 1 -1.95,-4.36 c -0.52,-1.64 -1,-3.31 -1.36,-5 -0.36,-1.69 -0.76,-3.38 -1.09,-5 a 42.82,42.82 0 0 0 -1.12,-4.36 11.13,11.13 0 0 0 -1.46,-3.09 2.53,2.53 0 0 0 -2.11,-1.17 h -2.05 q -0.64,7.11 -1.62,12.75 a 46.57,46.57 0 0 1 -2.58,9.56 15.41,15.41 0 0 1 -4,6 8.75,8.75 0 0 1 -5.92,2.08 11.27,11.27 0 0 1 -4.76,-1 13.48,13.48 0 0 1 -3.9,-2.71 18.43,18.43 0 0 1 -3,-4 26.66,26.66 0 0 1 -2.16,-5 34.89,34.89 0 0 1 -1.3,-5.47 36.76,36.76 0 0 1 -0.44,-5.61 39.32,39.32 0 0 1 4.86,-19 38.91,38.91 0 0 1 5.69,-7.88 37.69,37.69 0 0 1 7.52,-6.2 36.62,36.62 0 0 1 9.09,-4.07 36.18,36.18 0 0 1 10.41,-1.46 26.15,26.15 0 0 1 4.83,0.45 25.23,25.23 0 0 1 4.58,1.33 20.36,20.36 0 0 1 4,2.18 15.27,15.27 0 0 1 3.22,3 13.66,13.66 0 0 1 2.12,3.72 12.33,12.33 0 0 1 0.74,4.36 z m -20.16,-7.82 a 28.59,28.59 0 0 0 -9.56,1.49 25.52,25.52 0 0 0 -7.39,4 26.09,26.09 0 0 0 -5.42,5.88 34.82,34.82 0 0 0 -3.63,7 38.12,38.12 0 0 0 -2,7.43 42.6,42.6 0 0 0 -0.64,7.18 30.35,30.35 0 0 0 0.46,5.27 18.82,18.82 0 0 0 1.43,4.76 9.69,9.69 0 0 0 2.51,3.42 5.54,5.54 0 0 0 3.72,1.32 2.66,2.66 0 0 0 1.95,-0.86 7.75,7.75 0 0 0 1.49,-2.31 21.29,21.29 0 0 0 1.14,-3.34 c 0.32,-1.27 0.59,-2.58 0.81,-3.94 0.22,-1.36 0.39,-2.74 0.52,-4.13 0.13,-1.39 0.23,-2.68 0.31,-3.89 0.08,-1.21 0.12,-2.29 0.14,-3.23 0.02,-0.94 0,-1.66 0,-2.16 a 20.9,20.9 0 0 1 -3.85,-2.24 3,3 0 0 1 -1.32,-2.41 c 0,-0.21 0,-0.47 0,-0.77 a 3.21,3.21 0 0 1 0.21,-0.85 1.85,1.85 0 0 1 0.47,-0.66 1.19,1.19 0 0 1 0.83,-0.28 c 0.15,0 0.46,0 0.91,0.08 0.45,0.08 0.93,0.12 1.43,0.2 l 1.38,0.19 a 6.76,6.76 0 0 0 0.83,0.08 v -0.68 c 0,-0.35 0.06,-0.82 0.11,-1.43 0.05,-0.61 0.15,-1.25 0.28,-2 a 13.84,13.84 0 0 1 0.57,-2.09 7.92,7.92 0 0 1 1,-1.92 5.15,5.15 0 0 1 1.48,-1.39 3.85,3.85 0 0 1 2.09,-0.54 2.59,2.59 0 0 1 2.16,0.73 3.13,3.13 0 0 1 0.53,1.87 v 0.29 a 23.58,23.58 0 0 1 -0.37,3.26 c -0.23,1.36 -0.44,2.92 -0.63,4.7 a 35.89,35.89 0 0 0 8.73,-1.06 17.18,17.18 0 0 0 5.46,-2.42 8.45,8.45 0 0 0 2.82,-3.2 7.88,7.88 0 0 0 0.81,-3.36 6.5,6.5 0 0 0 -0.76,-3 7.72,7.72 0 0 0 -2.26,-2.58 11.59,11.59 0 0 0 -3.7,-1.78 17.58,17.58 0 0 0 -5.05,-0.63 z"
     id="path200"
     inkscape:connector-curvature="0"
     style="fill:#fbee28" />
  <circle
     class="cls-1"
     cx="82.309937"
     cy="105.52029"
     r="38.82"
     id="circle202"
     style="fill:#fbee28" />
  <path
     class="cls-1"
     d="m 138.03996,163.82029 c 36.82,-51.73 67.48,-61.83 111.6,-58.83 V 94.470286 c -46.68,-3 -80.92,8.110004 -120.2,63.280004 -36.120005,50.75 -73.410005,35.32 -75.000005,34.61 a 5.42,5.42 0 0 0 -1.7,-0.41 c -26,-20.13 -37.46,-63.23 -41.18,-80.85 v 37.39 q 0.48,1.26 1,2.52 c 12.9,32.18 31.33,52.78 53.29,59.55 10.38,3.2 21.46,5.93 32.17,8.57 39.420005,9.7 76.790005,18.91 92.150005,51 q 4.61,-2.64 8.93,-5.68 c -17.77,-35.58 -58.78,-45.7 -98.55,-55.49 -6.000005,-1.49 -12.190005,-3 -18.240005,-4.61 25.660005,-5 44.390005,-24.6 55.730005,-40.53 z"
     id="path204"
     inkscape:connector-curvature="0"
     style="fill:#fbee28" />
  <path
     class="cls-9"
     d="m 248.57996,21.920286 a 25,25 0 0 1 -12.13,0.19 c -3,-0.6 -6,-1.76 -7.74,-4.4 -1.74,-2.64 -1.49,-6.92 1,-9 1.11,-0.92 4,-2.79 5,-1.36 -8.38,-11.17 -23.12,-3.57 -30.1,5.75 a 24.34,24.34 0 0 1 -16.29,9.17 c -5.44,0.75 -13.42,0.19 -16.74,-4.92 -1.66,-2.56 -1.49,-6.92 1,-9 1.11,-0.92 4,-2.79 5,-1.36 -8.38,-11.17 -23.12,-3.57 -30.1,5.75 a 24.55,24.55 0 0 1 -16.25,9.25 c -5.46,0.82 -13.42,0.33 -16.78,-4.84 -1.66,-2.55 -1.48,-6.91 1,-8.94 1.11,-0.92 4,-2.79 5,-1.36 -8.38,-11.17 -23.130005,-3.57 -30.110005,5.74 a 24.29,24.29 0 0 1 -16.28,9.18 c -5.45,0.74 -13.42,0.19 -16.75,-4.93 -1.66,-2.55 -1.48,-6.92 1,-8.94 1.12,-0.92 4,-2.79 5.06,-1.36 -8.38,-11.17 -23.13,-3.57 -30.11,5.74 -6.98,9.31 -18.16,9.31 -18.16,9.31 h -1 v 25.11 H 248.57996 Z"
     id="path206"
     inkscape:connector-curvature="0"
     style="fill:#231f20;stroke:#231f20;stroke-width:2px;stroke-linecap:round;stroke-linejoin:round" />
  <polyline
     class="cls-9"
     points="622.97 401.58 611.42 431.98 637.65 431.98"
     id="polyline208"
     style="fill:#231f20;stroke:#231f20;stroke-width:2px;stroke-linecap:round;stroke-linejoin:round"
     transform="translate(-610.42004,-380.00971)" />
  <polyline
     class="cls-9"
     points="845.92 433 871.15 433 859.61 402.61"
     id="polyline210"
     style="fill:#231f20;stroke:#231f20;stroke-width:2px;stroke-linecap:round;stroke-linejoin:round"
     transform="translate(-610.42004,-380.00971)" />
  <line
     class="cls-10"
     x1="81.969971"
     y1="62.160301"
     x2="81.969971"
     y2="144.34026"
     id="line212"
     style="fill:none;stroke:#231f20;stroke-width:8.39000034px;stroke-linecap:round;stroke-linejoin:round" />
  <line
     class="cls-10"
     x1="30.199949"
     y1="104.83028"
     x2="135.11993"
     y2="104.83028"
     id="line214"
     style="fill:none;stroke:#231f20;stroke-width:8.39000034px;stroke-linecap:round;stroke-linejoin:round" />
  <path
     class="cls-10"
     d="m 49.089955,70.550286 c 0,0 26.58,37.070004 0,66.450004"
     id="path216"
     inkscape:connector-curvature="0"
     style="fill:none;stroke:#231f20;stroke-width:8.39000034px;stroke-linecap:round;stroke-linejoin:round" />
  <path
     class="cls-10"
     d="m 115.50996,70.550286 c 0,0 -26.580005,37.070004 0,66.450004"
     id="path218"
     inkscape:connector-curvature="0"
     style="fill:none;stroke:#231f20;stroke-width:8.39000034px;stroke-linecap:round;stroke-linejoin:round" />
</svg>
