<?xml version="1.0" encoding="UTF-8" standalone="no"?>
<svg
   id="Layer_1"
   data-name="Layer 1"
   viewBox="0 0 261.72992 285.36887"
   version="1.1"
   sodipodi:docname="PIT2.svg"
   width="261.72992"
   height="285.36887"
   inkscape:version="1.1.1 (3bf5ae0d25, 2021-09-20)"
   xmlns:inkscape="http://www.inkscape.org/namespaces/inkscape"
   xmlns:sodipodi="http://sodipodi.sourceforge.net/DTD/sodipodi-0.dtd"
   xmlns="http://www.w3.org/2000/svg"
   xmlns:svg="http://www.w3.org/2000/svg"
   xmlns:rdf="http://www.w3.org/1999/02/22-rdf-syntax-ns#"
   xmlns:cc="http://creativecommons.org/ns#"
   xmlns:dc="http://purl.org/dc/elements/1.1/">
  <metadata
     id="metadata241">
    <rdf:RDF>
      <cc:Work
         rdf:about="">
        <dc:format>image/svg+xml</dc:format>
        <dc:type
           rdf:resource="http://purl.org/dc/dcmitype/StillImage" />
      </cc:Work>
    </rdf:RDF>
  </metadata>
  <sodipodi:namedview
     pagecolor="#ffffff"
     bordercolor="#666666"
     borderopacity="1"
     objecttolerance="10"
     gridtolerance="10"
     guidetolerance="10"
     inkscape:pageopacity="0"
     inkscape:pageshadow="2"
     inkscape:window-width="1920"
     inkscape:window-height="1017"
     id="namedview239"
     showgrid="false"
     inkscape:zoom="0.62933333"
     inkscape:cx="-275.68856"
     inkscape:cy="81.832628"
     inkscape:window-x="-8"
     inkscape:window-y="-8"
     inkscape:window-maximized="1"
     inkscape:current-layer="Layer_1"
     inkscape:pagecheckerboard="0"
     showguides="true"
     inkscape:guide-bbox="true" />
  <defs
     id="defs4">
    <inkscape:path-effect
       effect="spiro"
       id="path-effect32485"
       is_visible="true"
       lpeversion="1" />
    <inkscape:path-effect
       effect="spiro"
       id="path-effect10913"
       is_visible="true"
       lpeversion="1" />
    <inkscape:path-effect
       effect="spiro"
       id="path-effect1805"
       is_visible="true"
       lpeversion="1" />
    <inkscape:path-effect
       effect="spiro"
       id="path-effect1799"
       is_visible="true"
       lpeversion="1" />
    <inkscape:path-effect
       effect="spiro"
       id="path-effect1793"
       is_visible="true"
       lpeversion="1" />
    <inkscape:path-effect
       effect="spiro"
       id="path-effect1787"
       is_visible="true"
       lpeversion="1" />
    <inkscape:path-effect
       effect="spiro"
       id="path-effect1781"
       is_visible="true"
       lpeversion="1" />
    <inkscape:path-effect
       effect="spiro"
       id="path-effect1775"
       is_visible="true"
       lpeversion="1" />
    <inkscape:path-effect
       effect="spiro"
       id="path-effect1769"
       is_visible="true"
       lpeversion="1" />
    <inkscape:path-effect
       effect="spiro"
       id="path-effect1445"
       is_visible="true"
       lpeversion="1" />
    <inkscape:path-effect
       effect="spiro"
       id="path-effect1309"
       is_visible="true"
       lpeversion="1" />
    <inkscape:path-effect
       effect="spiro"
       id="path-effect1239"
       is_visible="true"
       lpeversion="1" />
    <style
       id="style2">.cls-1,.cls-5,.cls-8{fill:#fbee28;}.cls-2,.cls-4,.cls-9{fill:#231f20;}.cls-3,.cls-7{fill:#fff;}.cls-10,.cls-11,.cls-3,.cls-4,.cls-9{stroke:#231f20;}.cls-3,.cls-5,.cls-6,.cls-8{stroke-miterlimit:10;}.cls-10,.cls-11,.cls-4,.cls-9{stroke-linecap:round;stroke-linejoin:round;}.cls-4,.cls-5{stroke-width:2.03px;}.cls-5,.cls-6,.cls-8{stroke:#fbee28;}.cls-10,.cls-11,.cls-6{fill:none;}.cls-6{stroke-width:6.76px;}.cls-8{stroke-width:2.1px;}.cls-9{stroke-width:2px;}.cls-10{stroke-width:8.39px;}.cls-11{stroke-width:8.86px;}</style>
  </defs>
  <path
     class="cls-2"
     d="m 12.317889,45.097532 v 125.880008 0 a 118.56,118.56 0 0 0 237.000001,0 v 0 -125.880008 z"
     id="path198"
     inkscape:connector-curvature="0"
     style="fill:#231f20" />
  <rect
     class="cls-2"
     x="12.019958"
     y="44.700279"
     width="237.12"
     height="125.88"
     id="rect196"
     style="fill:#231f20" />
  <path
     style="fill:#fbee28;fill-opacity:1;stroke:#fbee28;stroke-width:1px;stroke-linecap:round;stroke-linejoin:round;stroke-opacity:1"
     d="m 91.289213,106.59736 c -3.005169,0.0791 -5.997468,-0.34307 -8.98529,-0.67506 -1.029594,-0.1144 -2.061391,-0.21833 -3.08156,-0.39835 -0.557713,-0.0984 -1.124651,-0.21996 -1.68537,-0.14044 -0.123404,0.0175 -0.246423,0.045 -0.35989,0.0966 -0.145222,0.066 -0.271164,0.17011 -0.374906,0.29129 -0.103741,0.12118 -0.186121,0.25932 -0.257114,0.40217 -0.279915,0.56324 -0.38543,1.21168 -0.29845,1.8346 0.130429,0.93408 0.683472,1.77423 1.39967,2.3879 0.481915,0.41292 1.034985,0.73319 1.58898,1.04277 0.551216,0.30802 1.10691,0.60796 1.66347,0.90622 0.166883,0.0894 0.334966,0.1792 0.51517,0.23729 0.240989,0.0777 0.496423,0.0965 0.74907,0.11326 1.916338,0.12714 3.838809,0.1676 5.75835,0.10533 2.308481,-0.0749 4.609186,-0.29809 6.91258,-0.46859 1.794123,-0.1328 3.597957,-0.23465 5.359017,-0.60232 1.98395,-0.4142 3.88632,-1.16102 5.70569,-2.05405 2.74958,-1.34961 5.38585,-3.09124 7.21549,-5.54767 1.11776,-1.50068 1.9086,-3.24381 2.29983,-5.07367 0.67759,-3.169254 0.11468,-6.594847 -1.58003,-9.35732 -1.90252,-3.101215 -5.09355,-5.245083 -8.49708,-6.53082 -5.403247,-2.041163 -11.426116,-2.096247 -17.064377,-0.84268 -5.599198,1.244882 -10.920768,3.76452 -15.37902,7.3735 -4.833844,3.913024 -8.619253,9.082278 -11.02513,14.81722 -2.453997,5.84965 -3.48074,12.27782 -3.08985,18.6093 0.313074,5.07105 1.573871,10.18996 4.4241,14.39588 1.01124,1.49223 2.219558,2.86141 3.648428,3.96036 1.42887,1.09895 3.083714,1.92302 4.848652,2.28956 2.089706,0.43399 4.311774,0.20873 6.270664,-0.6386 1.95889,-0.84733 3.645272,-2.31319 4.754476,-4.13662 0.550531,-0.90502 0.958967,-1.88857 1.33425,-2.87918 1.877583,-4.95613 2.974124,-10.18428 3.58141,-15.44923 0.326148,-2.82759 0.513041,-5.6699 0.84269,-8.49708 0.428388,-3.674 1.096956,-7.31513 1.75559,-10.95491 0.192052,-1.06133 0.383954,-2.143062 0.24578,-3.21274 -0.04203,-0.325355 -0.115234,-0.649004 -0.249278,-0.948427 -0.134045,-0.299422 -0.331384,-0.574649 -0.593402,-0.772053 -0.251744,-0.189664 -0.555541,-0.302125 -0.865528,-0.359178 -0.309987,-0.05705 -0.62739,-0.06083 -0.942372,-0.04927 -0.668056,0.02451 -1.345567,0.120902 -1.94907,0.40845 -0.884387,0.421379 -1.536836,1.218794 -2.01894,2.0716 -0.707734,1.251928 -1.107138,2.66302 -1.28158,4.09053 -0.172151,1.40876 -0.130475,2.83553 -0.26334,4.24854 -0.186056,1.97868 -0.712541,3.91301 -0.90707,5.89088 -0.169363,1.72199 -0.08535,3.45742 -0.10551,5.1876 -0.03948,3.38886 -0.47996,6.7666 -1.19174,10.08011 -0.395423,1.84079 -0.87658,3.66968 -1.58899,5.41247 -0.22373,0.54732 -0.471743,1.08857 -0.805961,1.57633 -0.334219,0.48776 -0.759715,0.92269 -1.279579,1.20439 -0.495766,0.26864 -1.064874,0.38992 -1.628729,0.3854 -0.563854,-0.005 -1.122819,-0.13182 -1.648541,-0.3357 -1.137138,-0.441 -2.116381,-1.23637 -2.884069,-2.18412 -0.767687,-0.94774 -1.333321,-2.04519 -1.783571,-3.1787 -1.680171,-4.22984 -1.775826,-8.93127 -1.29105,-13.4567 0.452948,-4.22832 1.40106,-8.42869 3.12831,-12.31462 2.125259,-4.78136 5.472519,-9.073153 9.83183,-11.96703 2.551281,-1.693638 5.41803,-2.894094 8.39182,-3.62486 3.337666,-0.820183 6.837214,-1.051503 10.22908,-0.49656 2.219777,0.363177 4.457707,1.103029 6.107647,2.63175 1.1607,1.075423 1.98088,2.518782 2.28417,4.07177 0.34767,1.780227 -0.001,3.695322 -0.99312,5.21385 -1.10747,1.6952 -2.91253,2.81164 -4.76695,3.62487 -2.03984,0.89454 -4.205714,1.4883 -6.405587,1.83717 -1.232277,0.19542 -2.476925,0.31476 -3.72417,0.34759 z"
     id="path32483"
     inkscape:path-effect="#path-effect32485"
     inkscape:original-d="m 91.289213,106.59736 c -1.24239,0.11486 -5.98919,-0.44904 -8.98529,-0.67506 -2.9961,-0.22602 -2.05337,-0.26456 -3.08156,-0.39835 -1.02818,-0.13378 -1.12258,-0.0926 -1.68537,-0.14044 -0.56279,-0.0478 -0.23893,0.0654 -0.35989,0.0966 -0.12097,0.0312 -0.42035,0.46331 -0.63202,0.69346 -0.21167,0.23016 -0.19797,1.22407 -0.29845,1.8346 -0.10048,0.61053 0.93411,1.59294 1.39967,2.3879 0.46555,0.79497 1.06032,0.69618 1.58898,1.04277 0.52866,0.34659 1.10998,0.60515 1.66347,0.90622 0.55348,0.30107 0.34445,0.15919 0.51517,0.23729 0.17072,0.0781 0.50038,0.0765 0.74907,0.11326 0.24868,0.0368 3.8399,0.0712 5.75835,0.10533 1.91845,0.0341 4.60939,-0.31139 6.91258,-0.46859 2.30319,-0.1572 3.57368,-0.40055 5.359017,-0.60232 1.78535,-0.20177 3.80479,-1.36836 5.70569,-2.05405 1.90089,-0.68568 4.81133,-3.69745 7.21549,-5.54767 2.40417,-1.85023 1.53422,-3.38145 2.29983,-5.07367 0.76561,-1.69223 -1.05236,-6.23722 -1.58003,-9.35732 -0.52768,-3.12011 -5.66372,-4.35288 -8.49708,-6.53082 -2.83336,-2.17793 -11.375257,-0.56079 -17.064377,-0.84268 -5.68913,-0.2819 -10.25168,4.91666 -15.37902,7.3735 -5.12733,2.45683 -7.34909,9.87914 -11.02513,14.81722 -3.67605,4.93807 -2.0589,12.4072 -3.08985,18.6093 -1.03095,6.2021 2.9504,9.59825 4.4241,14.39588 1.4737,4.79762 5.66572,4.16761 8.49708,6.24992 2.83136,2.0823 7.35109,-3.18248 11.02514,-4.77522 3.67404,-1.59274 0.8905,-1.91845 1.33425,-2.87918 0.44375,-0.96072 2.38861,-10.29849 3.58141,-15.44923 1.19281,-5.15075 0.56279,-5.66372 0.84269,-8.49708 0.27989,-2.83336 1.17139,-7.30228 1.75559,-10.95491 0.5842,-3.65264 0.16486,-2.14083 0.24578,-3.21274 0.0809,-1.07191 -0.56079,-1.14599 -0.84268,-1.72048 -0.2819,-0.5745 -1.20427,-0.2713 -1.8079,-0.40845 -0.60363,-0.13715 -1.29838,0.2733 -1.94907,0.40845 -0.65069,0.13515 -1.34496,1.38206 -2.01894,2.0716 -0.67398,0.68953 -0.85339,2.72802 -1.28158,4.09053 -0.4282,1.36252 -0.17456,2.83336 -0.26334,4.24854 -0.0888,1.41518 -0.60371,3.92825 -0.90707,5.89088 -0.30336,1.96263 -0.0693,3.4594 -0.10551,5.1876 -0.0362,1.7282 -0.7935,6.72107 -1.19174,10.08011 -0.39825,3.35904 -1.05832,3.60932 -1.58899,5.41247 -0.53066,1.80316 -1.38936,1.85482 -2.08554,2.78072 -0.69618,0.92591 -2.18385,0.0341 -3.27727,0.0497 -1.09343,0.0155 -3.11076,-3.57421 -4.66764,-5.36282 -1.55688,-1.7886 -0.8597,-8.97013 -1.29105,-13.4567 -0.43135,-4.48657 2.08654,-8.20874 3.12831,-12.31462 1.04177,-4.10587 6.55556,-7.97702 9.83183,-11.96703 3.27628,-3.99001 5.59555,-2.41557 8.39182,-3.62486 2.79627,-1.20929 6.82039,-0.33004 10.22908,-0.49656 3.408687,-0.16652 4.072767,1.7555 6.107647,2.63175 2.03489,0.87625 1.52378,2.71551 2.28417,4.07177 0.76038,1.35626 -0.66108,3.4769 -0.99312,5.21385 -0.33204,1.73695 -3.17697,2.41758 -4.76695,3.62487 -1.589977,1.20729 -4.269387,1.22578 -6.405587,1.83717 -2.13619,0.61139 -2.48178,0.23273 -3.72417,0.34759 z" />
  <path
     class="cls-1"
     d="m 218.39996,162.22029 a 11.19,11.19 0 0 1 -0.52,3.28 13.21,13.21 0 0 1 -1.59,3.4 17.11,17.11 0 0 1 -2.74,3.23 18.48,18.48 0 0 1 -4,2.79 26.55,26.55 0 0 1 -5.33,2.06 33.32,33.32 0 0 1 -6.72,1.06 11.91,11.91 0 0 1 3.8,2.17 13.23,13.23 0 0 1 2.55,3 16,16 0 0 1 1.62,3.46 c 0.41,1.21 0.75,2.4 1,3.57 0.25,1.17 0.53,2.29 0.76,3.36 a 19.26,19.26 0 0 0 0.81,2.82 5.44,5.44 0 0 0 1.19,2 2.52,2.52 0 0 0 1.91,0.73 8.86,8.86 0 0 0 2.42,-0.37 15.53,15.53 0 0 0 2.7,-1.06 21.06,21.06 0 0 0 5.24,-3.7 l 3.77,6.37 a 3.47,3.47 0 0 0 -0.62,0.4 c -0.41,0.29 -1,0.66 -1.72,1.11 -0.72,0.45 -1.61,0.93 -2.62,1.46 a 27.78,27.78 0 0 1 -3.32,1.47 28.27,28.27 0 0 1 -3.85,1.14 19,19 0 0 1 -4.14,0.46 6.86,6.86 0 0 1 -4,-1.17 10.08,10.08 0 0 1 -2.84,-3.09 19.83,19.83 0 0 1 -1.95,-4.36 c -0.52,-1.64 -1,-3.31 -1.36,-5 -0.36,-1.69 -0.76,-3.38 -1.09,-5 a 42.82,42.82 0 0 0 -1.12,-4.36 11.13,11.13 0 0 0 -1.46,-3.09 2.53,2.53 0 0 0 -2.11,-1.17 h -2.05 q -0.64,7.11 -1.62,12.75 a 46.57,46.57 0 0 1 -2.58,9.56 15.41,15.41 0 0 1 -4,6 8.75,8.75 0 0 1 -5.92,2.08 11.27,11.27 0 0 1 -4.76,-1 13.48,13.48 0 0 1 -3.9,-2.71 18.43,18.43 0 0 1 -3,-4 26.66,26.66 0 0 1 -2.16,-5 34.89,34.89 0 0 1 -1.3,-5.47 36.76,36.76 0 0 1 -0.44,-5.61 39.32,39.32 0 0 1 4.86,-19 38.91,38.91 0 0 1 5.69,-7.88 37.69,37.69 0 0 1 7.52,-6.2 36.62,36.62 0 0 1 9.09,-4.07 36.18,36.18 0 0 1 10.41,-1.46 26.15,26.15 0 0 1 4.83,0.45 25.23,25.23 0 0 1 4.58,1.33 20.36,20.36 0 0 1 4,2.18 15.27,15.27 0 0 1 3.22,3 13.66,13.66 0 0 1 2.12,3.72 12.33,12.33 0 0 1 0.74,4.36 z m -20.16,-7.82 a 28.59,28.59 0 0 0 -9.56,1.49 25.52,25.52 0 0 0 -7.39,4 26.09,26.09 0 0 0 -5.42,5.88 34.82,34.82 0 0 0 -3.63,7 38.12,38.12 0 0 0 -2,7.43 42.6,42.6 0 0 0 -0.64,7.18 30.35,30.35 0 0 0 0.46,5.27 18.82,18.82 0 0 0 1.43,4.76 9.69,9.69 0 0 0 2.51,3.42 5.54,5.54 0 0 0 3.72,1.32 2.66,2.66 0 0 0 1.95,-0.86 7.75,7.75 0 0 0 1.49,-2.31 21.29,21.29 0 0 0 1.14,-3.34 c 0.32,-1.27 0.59,-2.58 0.81,-3.94 0.22,-1.36 0.39,-2.74 0.52,-4.13 0.13,-1.39 0.23,-2.68 0.31,-3.89 0.08,-1.21 0.12,-2.29 0.14,-3.23 0.02,-0.94 0,-1.66 0,-2.16 a 20.9,20.9 0 0 1 -3.85,-2.24 3,3 0 0 1 -1.32,-2.41 c 0,-0.21 0,-0.47 0,-0.77 a 3.21,3.21 0 0 1 0.21,-0.85 1.85,1.85 0 0 1 0.47,-0.66 1.19,1.19 0 0 1 0.83,-0.28 c 0.15,0 0.46,0 0.91,0.08 0.45,0.08 0.93,0.12 1.43,0.2 l 1.38,0.19 a 6.76,6.76 0 0 0 0.83,0.08 v -0.68 c 0,-0.35 0.06,-0.82 0.11,-1.43 0.05,-0.61 0.15,-1.25 0.28,-2 a 13.84,13.84 0 0 1 0.57,-2.09 7.92,7.92 0 0 1 1,-1.92 5.15,5.15 0 0 1 1.48,-1.39 3.85,3.85 0 0 1 2.09,-0.54 2.59,2.59 0 0 1 2.16,0.73 3.13,3.13 0 0 1 0.53,1.87 v 0.29 a 23.58,23.58 0 0 1 -0.37,3.26 c -0.23,1.36 -0.44,2.92 -0.63,4.7 a 35.89,35.89 0 0 0 8.73,-1.06 17.18,17.18 0 0 0 5.46,-2.42 8.45,8.45 0 0 0 2.82,-3.2 7.88,7.88 0 0 0 0.81,-3.36 6.5,6.5 0 0 0 -0.76,-3 7.72,7.72 0 0 0 -2.26,-2.58 11.59,11.59 0 0 0 -3.7,-1.78 17.58,17.58 0 0 0 -5.05,-0.63 z"
     id="path200"
     inkscape:connector-curvature="0"
     style="fill:#fbee28" />
  <path
     class="cls-1"
     d="m 138.03996,163.82029 c 36.82,-51.73 67.48,-61.83 111.6,-58.83 V 94.470286 c -46.68,-3 -80.92,8.110004 -120.2,63.280004 -36.120005,50.75 -73.410005,35.32 -75.000005,34.61 a 5.42,5.42 0 0 0 -1.7,-0.41 c -26,-20.13 -37.46,-63.23 -41.18,-80.85 v 37.39 q 0.48,1.26 1,2.52 c 12.9,32.18 31.33,52.78 53.29,59.55 10.38,3.2 21.46,5.93 32.17,8.57 39.420005,9.7 76.790005,18.91 92.150005,51 q 4.61,-2.64 8.93,-5.68 c -17.77,-35.58 -58.78,-45.7 -98.55,-55.49 -6.000005,-1.49 -12.190005,-3 -18.240005,-4.61 25.660005,-5 44.390005,-24.6 55.730005,-40.53 z"
     id="path204"
     inkscape:connector-curvature="0"
     style="fill:#fbee28" />
  <path
     class="cls-9"
     d="m 248.57996,21.920286 a 25,25 0 0 1 -12.13,0.19 c -3,-0.6 -6,-1.76 -7.74,-4.4 -1.74,-2.64 -1.49,-6.92 1,-9 1.11,-0.92 4,-2.79 5,-1.36 -8.38,-11.17 -23.12,-3.57 -30.1,5.75 a 24.34,24.34 0 0 1 -16.29,9.17 c -5.44,0.75 -13.42,0.19 -16.74,-4.92 -1.66,-2.56 -1.49,-6.92 1,-9 1.11,-0.92 4,-2.79 5,-1.36 -8.38,-11.17 -23.12,-3.57 -30.1,5.75 a 24.55,24.55 0 0 1 -16.25,9.25 c -5.46,0.82 -13.42,0.33 -16.78,-4.84 -1.66,-2.55 -1.48,-6.91 1,-8.94 1.11,-0.92 4,-2.79 5,-1.36 -8.38,-11.17 -23.130005,-3.57 -30.110005,5.74 a 24.29,24.29 0 0 1 -16.28,9.18 c -5.45,0.74 -13.42,0.19 -16.75,-4.93 -1.66,-2.55 -1.48,-6.92 1,-8.94 1.12,-0.92 4,-2.79 5.06,-1.36 -8.38,-11.17 -23.13,-3.57 -30.11,5.74 -6.98,9.31 -18.16,9.31 -18.16,9.31 h -1 v 25.11 H 248.57996 Z"
     id="path206"
     inkscape:connector-curvature="0"
     style="fill:#231f20;stroke:#231f20;stroke-width:2px;stroke-linecap:round;stroke-linejoin:round" />
  <polyline
     class="cls-9"
     points="622.97 401.58 611.42 431.98 637.65 431.98"
     id="polyline208"
     style="fill:#231f20;stroke:#231f20;stroke-width:2px;stroke-linecap:round;stroke-linejoin:round"
     transform="translate(-610.42004,-380.00971)" />
  <polyline
     class="cls-9"
     points="845.92 433 871.15 433 859.61 402.61"
     id="polyline210"
     style="fill:#231f20;stroke:#231f20;stroke-width:2px;stroke-linecap:round;stroke-linejoin:round"
     transform="translate(-610.42004,-380.00971)" />
</svg>
