<?xml version="1.0" encoding="UTF-8" standalone="no"?>
<svg
   id="Layer_1"
   data-name="Layer 1"
   viewBox="0 0 156.47588 206.04634"
   version="1.1"
   sodipodi:docname="SF.svg"
   width="156.47588"
   height="206.04634"
   inkscape:version="1.1.1 (3bf5ae0d25, 2021-09-20)"
   xmlns:inkscape="http://www.inkscape.org/namespaces/inkscape"
   xmlns:sodipodi="http://sodipodi.sourceforge.net/DTD/sodipodi-0.dtd"
   xmlns="http://www.w3.org/2000/svg"
   xmlns:svg="http://www.w3.org/2000/svg"
   xmlns:rdf="http://www.w3.org/1999/02/22-rdf-syntax-ns#"
   xmlns:cc="http://creativecommons.org/ns#"
   xmlns:dc="http://purl.org/dc/elements/1.1/">
  <metadata
     id="metadata467">
    <rdf:RDF>
      <cc:Work
         rdf:about="">
        <dc:format>image/svg+xml</dc:format>
        <dc:type
           rdf:resource="http://purl.org/dc/dcmitype/StillImage" />
      </cc:Work>
    </rdf:RDF>
  </metadata>
  <sodipodi:namedview
     pagecolor="#ffffff"
     bordercolor="#666666"
     borderopacity="1"
     objecttolerance="10"
     gridtolerance="10"
     guidetolerance="10"
     inkscape:pageopacity="0"
     inkscape:pageshadow="2"
     inkscape:window-width="1920"
     inkscape:window-height="1017"
     id="namedview465"
     showgrid="false"
     inkscape:zoom="2.2250293"
     inkscape:cx="111.23449"
     inkscape:cy="122.02086"
     inkscape:window-x="-8"
     inkscape:window-y="-8"
     inkscape:window-maximized="1"
     inkscape:current-layer="Layer_1"
     inkscape:pagecheckerboard="0"
     fit-margin-top="0"
     fit-margin-left="0"
     fit-margin-right="0"
     fit-margin-bottom="0" />
  <defs
     id="defs4">
    <style
       id="style2">.cls-1{opacity:0.2;}.cls-2{fill:#a6a6a6;}.cls-15,.cls-3{fill:#fff;}.cls-4{fill:#d8d8d8;}.cls-5{fill:#f16567;}.cls-12,.cls-22,.cls-25,.cls-6{fill:#f3b857;}.cls-7{fill:#45dfef;}.cls-14,.cls-21,.cls-8{fill:#6c72ef;}.cls-10,.cls-11,.cls-16,.cls-20,.cls-23,.cls-9{fill:none;}.cls-13,.cls-18,.cls-19,.cls-20,.cls-22,.cls-23,.cls-9{stroke:#000;}.cls-11,.cls-12,.cls-13,.cls-14,.cls-16,.cls-17,.cls-19,.cls-20,.cls-21,.cls-22,.cls-23,.cls-24,.cls-25,.cls-9{stroke-linecap:round;stroke-linejoin:round;}.cls-9{stroke-width:6px;}.cls-10,.cls-11,.cls-14,.cls-21{stroke:#6c72ef;}.cls-10,.cls-15,.cls-18{stroke-miterlimit:10;}.cls-10{stroke-width:8.42px;}.cls-11{stroke-width:4.64px;}.cls-12,.cls-25{stroke:#f3b857;}.cls-12,.cls-14{stroke-width:3.04px;}.cls-13{stroke-width:5.06px;}.cls-15{stroke:#fff;stroke-width:0.93px;}.cls-16{stroke:#45dfef;stroke-width:3.5px;}.cls-17,.cls-24{stroke:#d8d8d8;}.cls-17{stroke-width:17.95px;}.cls-18{stroke-width:8.72px;}.cls-19,.cls-20{stroke-width:9.5px;}.cls-21{stroke-width:3.86px;}.cls-22,.cls-23{stroke-width:6.34px;}.cls-24{stroke-width:10.66px;}.cls-25{stroke-width:3.18px;}</style>
  </defs>
  <path
     class="cls-3"
     d="m 72.190853,117.93634 c 0,0 8.73,7.3 2.77,21.67 -5.96,14.37 -13.19,28.72 -7.29,49 l 11.75,-0.47 72.139997,13 -10.81,-79.44 c 0,0 -2.69,-65.89 -50.189997,-70.75"
     id="path376"
     inkscape:connector-curvature="0"
     style="fill:#ffffff" />
  <path
     class="cls-4"
     d="m 110.44085,153.79634 c 0,0 32.83,-5.11 26.92,13.36 0,0 20.18,6.8 7.3,21 0,0 -5,-17.78 -17.57,-19.39 0,0.04 11.29,-8.17 -16.65,-14.97 z"
     id="path378"
     inkscape:connector-curvature="0"
     style="fill:#d8d8d8" />
  <path
     d="m 151.56085,206.01634 a 4.24,4.24 0 0 1 -0.86,-0.08 l -71.619997,-12.88 -11.22,0.45 a 4.87,4.87 0 0 1 -4.87,-3.5 c -5.93,-20.44 0.47,-35.63 6.12,-49 0.46,-1.08 0.91,-2.16 1.36,-3.24 4.35,-10.48 -0.86,-15.57 -1.46,-16.12 a 4.82,4.82 0 0 1 -0.58,-6.82 4.89,4.89 0 0 1 6.88,-0.59 c 0.47,0.39 11.39,9.79 4.15,27.26 l -1.38,3.29 c -5.11,12.12 -9.95,23.61 -6.67,38.87 l 7.82,-0.31 a 4.64,4.64 0 0 1 1.05,0.07 l 65.559997,11.79 -9.91,-72.84 a 3.42,3.42 0 0 1 0,-0.45 c 0,-0.62 -3.11,-61.74 -45.819997,-66.11 a 4.87,4.87 0 1 1 1,-9.68 c 21.359997,2.19 37.589997,16.11 46.949997,40.280001 a 122,122 0 0 1 7.59,34.859999 l 10.78,79.26 a 4.86,4.86 0 0 1 -4.82,5.52 z"
     id="path380"
     inkscape:connector-curvature="0" />
  <path
     class="cls-4"
     d="m 99.700853,83.416341 c 0,0 35.099997,12.15 22.329997,30.079999 0,0 17.9,18.87 -0.37,28.11 0,0 1.49,-23.11 -10.64,-31.86 0.01,0 14.46,-3.21 -11.319997,-26.329999 z"
     id="path382"
     inkscape:connector-curvature="0"
     style="fill:#d8d8d8" />
  <path
     class="cls-3"
     d="m 89.480853,101.05634 -8.19,13 -48.329999,23.44 c 0,0 -12.95,1.31 -20.33,-9.55 0,0 -7.1599999,-15.2 9.88,-28.659999 L 66.590853,56.92634 c 0,0 -1,-23.64 17.68,-28 l 5.21,35.1"
     id="path384"
     inkscape:connector-curvature="0"
     style="fill:#ffffff" />
  <path
     d="m 31.700854,142.43634 c -4.39,0 -15.83,-1.09 -23.0599999,-11.72 a 5.51,5.51 0 0 1 -0.38,-0.67 c -3,-6.44 -4.59,-21.88 11.0799999,-34.389999 L 61.700853,54.89634 c 0.28,-10.06 4.9,-26.81 21.46,-30.66 a 4.86,4.86 0 0 1 5.91,4 l 5.21,35.09 a 4.8628515,4.8628515 0 1 1 -9.62,1.43 l -4.31,-29 c -3.33,2.14 -5.78,5.58 -7.3,10.3 a 35.12,35.12 0 0 0 -1.61,10.66 4.89,4.89 0 0 1 -1.49,3.71 l -44.079999,42.36 c -0.11,0.11 -0.23,0.21 -0.35,0.31 -12.56,9.93 -9.5,20.23 -8.62,22.48 4.8,6.67 12.41,7.14 14.81,7.1 l 46.189999,-22.4 7.45,-11.849999 a 4.8947778,4.8947778 0 0 1 8.25,5.269999 l -8.19,13 a 4.77,4.77 0 0 1 -2,1.79 l -48.339999,23.45 a 4.73,4.73 0 0 1 -1.64,0.46 16.39,16.39 0 0 1 -1.73,0.04 z"
     id="path386"
     inkscape:connector-curvature="0" />
  <polyline
     class="cls-4"
     points="196.32 912.74 206.78 915.11 210.12 923.95 210.12 910.73 201.18 908.13"
     id="polyline388"
     style="fill:#d8d8d8"
     transform="translate(-175.29915,-805.30366)" />
  <path
     class="cls-4"
     d="m 37.550854,74.25634 2.23,7.440001 21.709999,-19.750001 c 0,0 -4,-14.25 -14.789999,-14.15"
     id="path394"
     inkscape:connector-curvature="0"
     style="fill:#d8d8d8" />
  <path
     class="cls-6"
     d="m 44.200854,55.10634 a 41.59,41.59 0 0 1 7.5,15.78 l 9.819999,-8.94 c 0,0 -2.61,-9.28 -9.29,-12.8 l -1.399999,-0.11 -2.69,0.21 -0.08,-1.38 c -0.42,0 -0.85,-0.07 -1.29,-0.07 z"
     id="path396"
     inkscape:connector-curvature="0"
     style="fill:#f3b857" />
  <path
     d="m 39.780854,84.406341 a 3,3 0 0 1 -0.72,-0.1 2.71,2.71 0 0 1 -1.87,-1.83 l -2.23,-7.440001 a 2.7001157,2.7001157 0 1 1 5.17,-1.56 l 1,3.330001 17.219999,-15.650001 c -1.28,-3.28 -4.89,-10.65 -11.529999,-10.65 h -0.12 a 2.71,2.71 0 0 1 0,-5.41 h 0.1 c 12.599999,0 17.079999,15.46 17.269999,16.12 a 2.7,2.7 0 0 1 -0.78,2.73 L 41.600854,83.696341 a 2.72,2.72 0 0 1 -1.82,0.71 z"
     id="path398"
     inkscape:connector-curvature="0" />
  <path
     class="cls-4"
     d="m 31.290854,61.94634 c 0,0 -9.07,-9.11 -5.34,-21.5 3.73,-12.39 1.75,-16.56 1.75,-16.56 0,0 8,0.88 9.92,11.23 1.92,10.35 -5.27,15.43 -6.33,26.83 z"
     id="path400"
     inkscape:connector-curvature="0"
     style="fill:#d8d8d8" />
  <path
     class="cls-6"
     d="m 37.280854,33.77634 -1.33,-3.57 a 12.05,12.05 0 0 0 -5.41,-5.38 l -2,16.4 a 40.83,40.83 0 0 1 7.65,5.36 19.83,19.83 0 0 0 1.41,-11.47 c -0.09,-0.48 -0.2,-0.91 -0.32,-1.34 z"
     id="path402"
     inkscape:connector-curvature="0"
     style="fill:#f3b857" />
  <path
     d="m 31.290854,64.69634 a 2.71,2.71 0 0 1 -1.92,-0.8 c -0.42,-0.42 -10.16,-10.41 -6,-24.19 3,-10.09 2,-14.15 1.85,-14.66 a 2.52,2.52 0 0 1 0.14,-2.69 2.72,2.72 0 0 1 2.62,-1.12 c 0.41,0 10,1.25 12.27,13.43 1.23,6.63 -0.85,11.43 -2.86,16.09 a 35.9,35.9 0 0 0 -3.41,11.49 2.71,2.71 0 0 1 -1.78,2.29 2.65,2.65 0 0 1 -0.91,0.16 z m -0.37,-36.41 a 48.62,48.62 0 0 1 -2.38,13 18.69,18.69 0 0 0 1.34,14 62.26,62.26 0 0 1 2.55,-6.63 c 1.92,-4.44 3.44,-8 2.51,-13 a 11.67,11.67 0 0 0 -4.02,-7.41 z"
     id="path404"
     inkscape:connector-curvature="0" />
  <path
     class="cls-4"
     d="m 37.550854,74.25634 c 0,0 -8.21,-10.16 -3.14,-22.29 5.07,-12.13 3.49,-16.56 3.49,-16.56 0,0 8,1.74 8.84,12.39 0.84,10.65 -6.93,15.05 -9.19,26.46 z"
     id="path406"
     inkscape:connector-curvature="0"
     style="fill:#d8d8d8" />
  <path
     class="cls-6"
     d="m 46.700854,47.79634 a 15.15,15.15 0 0 0 -3.13,-8.54 v 0 l -4.29,-2.36 -0.43,-1.15 a 8.45,8.45 0 0 0 -0.94,-0.31 c 0,0 1.12,3.2 -1.62,11.55 a 46.74,46.74 0 0 1 9,9.69 18.82,18.82 0 0 0 1.41,-8.88 z"
     id="path408"
     inkscape:connector-curvature="0"
     style="fill:#f3b857" />
  <path
     d="m 37.550854,76.956341 a 2.72,2.72 0 0 1 -2.11,-1 c -0.37,-0.470001 -9.15,-11.570001 -3.52,-25.000001 4.14,-9.91 3.51,-14.12 3.41,-14.64 a 2.54,2.54 0 0 1 0.42,-2.67 2.72,2.72 0 0 1 2.72,-0.84 c 0.4,0.09 10,2.31 11,14.82 0.55,6.81 -2.06,11.45 -4.57,15.93 a 36.57,36.57 0 0 0 -4.66,11.27 2.72,2.72 0 0 1 -2,2.090001 2.34,2.34 0 0 1 -0.69,0.04 z m 3.15,-36.890001 a 49.38,49.38 0 0 1 -3.77,12.94 19,19 0 0 0 -0.06,14.37 59.51,59.51 0 0 1 3.29,-6.5 c 2.41,-4.3 4.32,-7.69 3.9,-12.86 -0.36,-4.05 -1.86,-6.5 -3.36,-7.95 z"
     id="path410"
     inkscape:connector-curvature="0" />
  <path
     class="cls-6"
     d="M 19.600854,17.42634 6.7808541,3.6963401 c 0,0 -6.31999996,-3.63999997 -3.22,3.38 3.1,7.0199999 13.6599999,27.9999999 13.6599999,27.9999999"
     id="path412"
     inkscape:connector-curvature="0"
     style="fill:#f3b857" />
  <path
     d="m 17.220854,37.77634 a 2.68,2.68 0 0 1 -2.41,-1.49 c -0.44,-0.86 -10.6199999,-21.18 -13.7199999,-28.1699999 -0.59999996,-1.37 -2.21,-5 0.17,-7.13999997 2.21,-2.00000003 5.54,-0.43 6.87,0.32999997 a 2.78,2.78 0 0 1 0.63,0.5 L 21.580854,15.58634 a 2.7,2.7 0 1 1 -3.95,3.68 L 6.8208541,7.6963401 C 10.570854,15.79634 19.540854,33.69634 19.640854,33.90634 a 2.69,2.69 0 0 1 -1.21,3.62 2.63,2.63 0 0 1 -1.21,0.25 z"
     id="path414"
     inkscape:connector-curvature="0" />
  <path
     class="cls-4"
     d="m 24.280854,49.89634 c 0,0 -8.08,-7.3 -5.44,-18.16 2.64,-10.86 0.76,-14.31 0.76,-14.31 0,0 6.83,0.3 8.9,9.07 2.07,8.77 -3.8,13.55 -4.22,23.4 z"
     id="path416"
     inkscape:connector-curvature="0"
     style="fill:#d8d8d8" />
  <path
     class="cls-6"
     d="m 26.360854,40.41634 c 1.64,-4.55 3.42,-8.46 2.14,-13.92 -2.07,-8.77 -8.9,-9.07 -8.9,-9.07 0,0 1.88,3.46 -0.76,14.31 a 81.92,81.92 0 0 0 7.52,8.68 z"
     id="path418"
     inkscape:connector-curvature="0"
     style="fill:#f3b857" />
  <path
     d="m 24.280854,52.59634 a 2.73,2.73 0 0 1 -1.81,-0.69 c -0.38,-0.35 -9.24,-8.53 -6.25,-20.81 2.07,-8.53 1.14,-11.94 1,-12.44 a 2.52,2.52 0 0 1 0,-2.66 2.7,2.7 0 0 1 2.48,-1.3 c 0.37,0 8.9,0.51 11.41,11.15 1.35,5.73 -0.23,10 -1.76,14.18 a 31.73,31.73 0 0 0 -2.39,9.95 2.69,2.69 0 0 1 -1.65,2.38 2.77,2.77 0 0 1 -1.03,0.24 z m -1.33,-30.84 a 45,45 0 0 1 -1.48,10.62 15.61,15.61 0 0 0 1.2,10.69 c 0.49,-1.77 1.08,-3.37 1.63,-4.88 1.42,-3.87 2.54,-6.92 1.57,-11.07 a 10.09,10.09 0 0 0 -2.92,-5.36 z"
     id="path420"
     inkscape:connector-curvature="0" />
  <path
     d="m 80.280853,183.38634 h 47.189997 c 0,0 17.1,2.43 13.87,-21.26 -3.23,-23.69 7.35,2.26 7.35,2.26 l 2.87,36.77 -23.28,0.75"
     id="path422"
     inkscape:connector-curvature="0" />
  <circle
     class="cls-7"
     cx="139.84087"
     cy="194.02635"
     r="2.99"
     id="circle430"
     style="fill:#45dfef" />
  <circle
     class="cls-22"
     cx="65.480858"
     cy="84.48632"
     r="6.1399999"
     id="circle432"
     style="fill:#f3b857;stroke:#000000;stroke-width:6.34px;stroke-linecap:round;stroke-linejoin:round" />
  <polyline
     class="cls-23"
     points="247.24 875.28 226.34 894.95 225.59 886.96 221.08 882.26"
     id="polyline434"
     style="fill:none;stroke:#000000;stroke-width:6.34px;stroke-linecap:round;stroke-linejoin:round"
     transform="translate(-175.29915,-805.30366)" />
</svg>
