<?xml version="1.0" encoding="UTF-8" standalone="no"?>
<svg
   id="Layer_1"
   data-name="Layer 1"
   viewBox="0 0 307.54944 249.18921"
   version="1.1"
   sodipodi:docname="TOR.svg"
   width="307.54944"
   height="249.18921"
   inkscape:version="1.1.1 (3bf5ae0d25, 2021-09-20)"
   xmlns:inkscape="http://www.inkscape.org/namespaces/inkscape"
   xmlns:sodipodi="http://sodipodi.sourceforge.net/DTD/sodipodi-0.dtd"
   xmlns="http://www.w3.org/2000/svg"
   xmlns:svg="http://www.w3.org/2000/svg"
   xmlns:rdf="http://www.w3.org/1999/02/22-rdf-syntax-ns#"
   xmlns:cc="http://creativecommons.org/ns#"
   xmlns:dc="http://purl.org/dc/elements/1.1/">
  <metadata
     id="metadata400">
    <rdf:RDF>
      <cc:Work
         rdf:about="">
        <dc:format>image/svg+xml</dc:format>
        <dc:type
           rdf:resource="http://purl.org/dc/dcmitype/StillImage" />
      </cc:Work>
    </rdf:RDF>
  </metadata>
  <sodipodi:namedview
     pagecolor="#ffffff"
     bordercolor="#666666"
     borderopacity="1"
     objecttolerance="10"
     gridtolerance="10"
     guidetolerance="10"
     inkscape:pageopacity="0"
     inkscape:pageshadow="2"
     inkscape:window-width="1920"
     inkscape:window-height="1017"
     id="namedview398"
     showgrid="false"
     inkscape:zoom="2.2250294"
     inkscape:cx="128.76235"
     inkscape:cy="135.95326"
     inkscape:window-x="-8"
     inkscape:window-y="-8"
     inkscape:window-maximized="1"
     inkscape:current-layer="Layer_1"
     inkscape:pagecheckerboard="0"
     fit-margin-top="0"
     fit-margin-left="0"
     fit-margin-right="0"
     fit-margin-bottom="0" />
  <defs
     id="defs4">
    <inkscape:path-effect
       effect="spiro"
       id="path-effect11316"
       is_visible="true"
       lpeversion="1" />
    <inkscape:path-effect
       effect="spiro"
       id="path-effect3243"
       is_visible="true"
       lpeversion="1" />
    <inkscape:path-effect
       effect="spiro"
       id="path-effect3086"
       is_visible="true"
       lpeversion="1" />
    <inkscape:path-effect
       effect="spiro"
       id="path-effect2021"
       is_visible="true"
       lpeversion="1" />
    <style
       id="style2">.cls-1{opacity:0.2;}.cls-2{fill:#a6a6a6;}.cls-19,.cls-3{fill:#fff;}.cls-4{fill:#871324;}.cls-10,.cls-11,.cls-12,.cls-13,.cls-14,.cls-15,.cls-16,.cls-17,.cls-19,.cls-20,.cls-21,.cls-22,.cls-23,.cls-5,.cls-7,.cls-8{stroke:#000;}.cls-10,.cls-11,.cls-12,.cls-13,.cls-14,.cls-15,.cls-16,.cls-17,.cls-19,.cls-20,.cls-21,.cls-22,.cls-23,.cls-24,.cls-5,.cls-7,.cls-8{stroke-linecap:round;stroke-linejoin:round;}.cls-5{stroke-width:9.6px;}.cls-6{fill:#828282;}.cls-7,.cls-8{stroke-width:8.72px;}.cls-10,.cls-11,.cls-22,.cls-7{fill-rule:evenodd;}.cls-11,.cls-13,.cls-9{fill:#a0a0a0;}.cls-10,.cls-14{fill:#c6c6c6;}.cls-10,.cls-11,.cls-13{stroke-width:5.79px;}.cls-12{fill:#595959;stroke-width:5.13px;}.cls-14{stroke-width:5.2px;}.cls-15,.cls-16,.cls-20{fill:#f4ba14;}.cls-15{stroke-width:3.76px;}.cls-16,.cls-17{stroke-width:7.51px;}.cls-17,.cls-21{fill:none;}.cls-18{fill:#c9c9c9;}.cls-19{stroke-width:10.73px;}.cls-20,.cls-21{stroke-width:7.15px;}.cls-22,.cls-23{stroke-width:6.06px;}.cls-24{stroke:#871324;stroke-width:6.94px;}</style>
    <clipPath
       clipPathUnits="userSpaceOnUse"
       id="clipPath3204">
      <path
         id="path3206"
         style="fill:#ff0000;fill-opacity:1;fill-rule:nonzero;stroke:none"
         d="M 58.830078,6.8027344 V 241.63281 H 227.41211 c -0.0713,-0.0264 -0.14368,-0.0495 -0.21484,-0.0762 -0.50111,-0.18902 -0.99855,-0.38688 -1.49415,-0.58984 -0.47524,-0.19451 -0.94701,-0.39837 -1.41601,-0.60742 -0.42227,-0.18927 -0.841,-0.38517 -1.25977,-0.58204 -0.39575,-0.18568 -0.78927,-0.37566 -1.18164,-0.56836 -0.40088,-0.19566 -0.79805,-0.39685 -1.19336,-0.60351 -0.51293,-0.26484 -1.00988,-0.5616 -1.49804,-0.86914 -0.85203,-0.52141 -1.57504,-1.19844 -2.25977,-1.91797 -0.0897,-0.10506 -0.17482,-0.216 -0.26172,-0.32422 -0.19397,0.0985 -0.38708,0.1984 -0.58203,0.29492 -0.27992,0.13828 -0.56116,0.27529 -0.8418,0.41211 -0.25596,0.1247 -0.51203,0.24944 -0.76757,0.375 -0.23441,0.11453 -0.46971,0.22721 -0.70313,0.34375 -0.24025,0.11926 -0.48034,0.24033 -0.7207,0.35938 -0.22408,0.11036 -0.44761,0.22011 -0.67188,0.33008 -0.24743,0.121 -0.49466,0.24264 -0.74414,0.35937 -0.19936,0.0932 -0.39939,0.18409 -0.59961,0.27539 -0.0729,0.0331 -0.1736,0.0821 -0.0117,0 0.1662,-0.0913 0.3291,-0.18882 0.48633,-0.29492 l -8.81445,-13.2207 c 0.28011,-0.18983 0.57551,-0.35718 0.87305,-0.51758 0.26118,-0.13934 0.53038,-0.26408 0.79882,-0.38867 0.17921,-0.082 0.35666,-0.16445 0.53516,-0.24805 0.16501,-0.0778 0.3303,-0.15808 0.49414,-0.23828 0.21178,-0.10386 0.42316,-0.20828 0.63477,-0.3125 0.22543,-0.11182 0.45038,-0.22404 0.67578,-0.33594 0.26308,-0.13134 0.52683,-0.25957 0.79101,-0.38867 0.26029,-0.12801 0.5225,-0.25372 0.78321,-0.38086 0.25367,-0.12398 0.5067,-0.2478 0.75976,-0.37305 0.24115,-0.11989 0.48342,-0.24155 0.72266,-0.36523 0.25056,-0.13018 0.49973,-0.26209 0.74805,-0.39649 0.25364,-0.1371 0.50369,-0.27863 0.7539,-0.42187 0.28002,-0.16023 0.55925,-0.32431 0.83594,-0.49024 0.2811,-0.16766 0.55798,-0.3397 0.83398,-0.51562 0.30828,-0.19676 0.61588,-0.3964 0.91993,-0.59961 0.32049,-0.21496 0.63709,-0.43284 0.95312,-0.6543 0.3245,-0.22698 0.64553,-0.45916 0.96484,-0.69336 0.34199,-0.25119 0.68242,-0.50466 1.02149,-0.75976 0.33817,-0.25418 0.67494,-0.51292 1.00976,-0.77149 0.32964,-0.25362 0.65531,-0.51021 0.98047,-0.76953 0.32783,-0.26177 0.65266,-0.52832 0.97657,-0.79492 0.31884,-0.26252 0.63241,-0.52929 0.94531,-0.79883 0.34542,-0.29916 0.69015,-0.60047 1.0332,-0.90234 0.37168,-0.3284 0.74462,-0.65503 1.11719,-0.98242 0.4133,-0.36448 0.83024,-0.72502 1.25,-1.08203 0.45317,-0.38619 0.91367,-0.76277 1.37695,-1.13672 0.47097,-0.38025 0.94871,-0.75305 1.42774,-1.12305 0.47904,-0.36976 0.96278,-0.7331 1.44726,-1.0957 0.48585,-0.36365 0.97476,-0.7241 1.46485,-1.08203 0.48717,-0.35517 0.97746,-0.70643 1.46679,-1.0586 0.48718,-0.3506 0.97462,-0.69974 1.46289,-1.04883 0.50656,-0.36247 1.01311,-0.72487 1.52344,-1.08203 0.55448,-0.389 1.11627,-0.76765 1.68164,-1.14062 0.61394,-0.40588 1.24005,-0.79523 1.8711,-1.17383 0.68897,-0.41397 1.39477,-0.7966 2.10742,-1.16797 0.73869,-0.3857 1.49427,-0.7371 2.25781,-1.07031 0.79055,-0.34672 1.60117,-0.64378 2.41797,-0.92188 0.76751,-0.25945 1.54638,-0.47919 2.33008,-0.68359 0.78352,-0.20669 1.57916,-0.36967 2.37695,-0.50977 0.88103,-0.15819 1.77274,-0.22912 2.66601,-0.26562 0.96388,-0.0404 1.92265,0.0492 2.875,0.1875 1.04595,0.15423 2.04412,0.4942 3.01758,0.89453 0.8815,0.37481 1.68597,0.88955 2.45899,1.44922 0.59321,0.43902 1.13669,0.94039 1.66015,1.45898 0.44722,0.44901 0.85775,0.931 1.25782,1.42188 0.37847,0.46675 0.72892,0.95565 1.06836,1.45117 0.31559,0.46283 0.60973,0.94001 0.89843,1.41992 0.27314,0.45554 0.53389,0.919 0.78907,1.38477 0.25446,0.46405 0.49694,0.93331 0.73437,1.40625 0.24512,0.48716 0.47569,0.98201 0.70117,1.47851 0.21444,0.47467 0.41898,0.95357 0.6211,1.4336 0.19344,0.45974 0.38067,0.92187 0.5664,1.38476 0.16798,0.42032 0.33439,0.84202 0.50391,1.26172 0.15632,0.38512 0.31242,0.76965 0.47461,1.15234 0.14089,0.33209 0.28392,0.66185 0.4375,0.98829 0.13437,0.29011 0.28105,0.57545 0.43164,0.85742 0.18909,0.35241 0.38329,0.70153 0.57812,1.05078 0.20875,0.37414 0.41955,0.74839 0.63086,1.12109 0.21987,0.3876 0.43885,0.77421 0.65821,1.16211 0.20372,0.35901 0.4043,0.721 0.61132,1.07813 0.12607,0.20487 0.23549,0.42083 0.38086,0.61328 0.1578,0.22336 0.32697,0.43963 0.49414,0.65625 V 6.8027344 Z" />
    </clipPath>
    <clipPath
       clipPathUnits="userSpaceOnUse"
       id="clipPath15452">
      <path
         id="path15454"
         style="fill:#ff0000;fill-opacity:1;fill-rule:nonzero;stroke:none"
         d="m 0,0 v 249.18945 h 203.94141 l -1.45899,-1.91015 c 1.56546,-1.19633 3.13018,-2.3919 4.69141,-3.59375 0.17179,-0.13285 0.33727,-0.27377 0.50781,-0.40821 -0.0106,-0.0191 -0.0165,-0.029 -0.0352,-0.0625 -0.0605,-0.11103 -0.11417,-0.2121 -0.17187,-0.31836 -0.0874,-0.16065 -0.17296,-0.3233 -0.25586,-0.48632 -0.10271,-0.20198 -0.19877,-0.40723 -0.29297,-0.61328 -0.0698,-0.15415 -0.13778,-0.3096 -0.20508,-0.46485 -0.013,-0.0297 -0.0284,-0.0638 -0.0469,-0.10742 -0.0663,-0.0923 -0.13246,-0.1849 -0.20117,-0.27539 -0.096,-0.12533 -0.19227,-0.25031 -0.28907,-0.375 -0.0404,-0.0549 -0.14199,-0.17671 -0.15429,-0.19141 -0.0552,-0.0635 -0.052,-0.0587 -0.10742,-0.11719 -0.0448,-0.0478 -0.0913,-0.0933 -0.13672,-0.14062 l 11.46289,-11.00586 c 0.0892,0.093 0.17948,0.18715 0.26757,0.28125 0.22853,0.24447 0.45291,0.49157 0.66797,0.74805 0.12488,0.14945 0.24543,0.30279 0.36719,0.45508 l 6.83203,-8.98047 c 0.0691,0.0526 0.13743,0.1063 0.20703,0.1582 0.0881,0.0671 0.17781,0.13136 0.26954,0.19336 0.0817,0.0557 0.14804,0.0968 0.24414,0.15039 0.14336,0.0825 0.28669,0.16423 0.43359,0.24023 0.19492,0.10294 0.39328,0.20109 0.58984,0.30079 0.20014,0.10071 0.4,0.19907 0.60157,0.29687 0.13748,0.0664 0.27607,0.1302 0.41406,0.19531 0.7425,-0.96968 1.52185,-1.91088 2.23828,-2.90039 1.83122,-2.52183 3.62694,-5.06953 5.37695,-7.64843 1.93251,-2.83198 3.85503,-5.67272 5.75977,-8.52344 1.94588,-2.90421 3.88103,-5.81536 5.8164,-8.72656 1.49365,-2.24638 2.9827,-4.4955 4.47266,-6.74415 -0.0219,-0.011 -0.0445,-0.0205 -0.0664,-0.0312 -1.46365,-0.7432 -2.92347,-1.49476 -4.3789,-2.2539 -2.61313,-1.32777 -5.10469,-2.87169 -7.55274,-4.47852 -1.71735,-1.14536 -3.37489,-2.37598 -5.01757,-3.625 -1.16393,-0.88508 -2.30745,-1.79666 -3.44532,-2.71484 -0.83388,-0.6729 -1.65886,-1.35714 -2.48047,-2.04492 l 10.64258,-12.70899 c -0.16721,-0.0434 -0.33477,-0.0852 -0.50195,-0.1289 -1.13912,-0.29495 -2.27402,-0.61162 -3.40234,-0.94532 -1.26013,-0.37163 -2.49853,-0.80643 -3.72461,-1.27734 -0.11393,-0.0443 -0.22067,-0.10473 -0.33399,-0.15039 l -2.5957,2.88281 c 1.10221,0.99936 2.35627,1.82016 3.69922,2.45703 0.42672,0.20392 0.95188,0.40492 1.3789,0.54883 0.32712,0.0977 -0.19129,-0.0497 -0.24609,-0.0644 -0.34517,-0.0962 -0.68924,-0.19248 -1.0332,-0.29297 -0.48206,-0.13694 -0.95891,-0.29078 -1.4336,-0.45117 -0.53498,-0.1798 -1.06345,-0.3796 -1.58789,-0.58789 -0.47913,-0.18934 -0.95228,-0.39225 -1.42383,-0.59961 -0.48034,-0.20828 -0.95541,-0.42851 -1.42773,-0.6543 -0.43153,-0.20733 -0.85999,-0.42048 -1.28711,-0.63672 -0.43207,-0.21951 -0.85757,-0.44969 -1.28516,-0.67773 -0.33123,-0.17504 -0.66303,-0.35014 -0.99414,-0.52539 -0.40106,-0.2095 -0.79975,-0.42253 -1.19726,-0.63868 -0.51589,-0.28333 -1.02492,-0.5789 -1.53125,-0.8789 -0.63642,-0.3764 -1.25803,-0.77934 -1.86914,-1.19531 -0.53457,-0.36444 -1.05367,-0.74744 -1.57032,-1.13672 -0.55708,-0.42108 -1.09448,-0.86876 -1.62695,-1.32031 -0.81,-0.68255 -1.56098,-1.42784 -2.27734,-2.20704 -0.54941,-0.60381 -1.05723,-1.24483 -1.55078,-1.89453 l 25.31836,-19.19531 c -0.0714,-0.0847 -0.21402,-0.25748 -0.23829,-0.27148 -0.23042,-0.24241 -0.48696,-0.50066 -0.68945,-0.66016 0.0839,0.0713 0.32281,0.26988 0.19922,0.17578 0.17387,0.13136 0.22616,0.17348 0.375,0.27734 0.0902,0.064 -0.009,-0.007 -0.0605,-0.0351 -0.0698,-0.0379 0.27068,0.1673 0.20118,0.1289 0.16824,0.1 0.34192,0.20048 0.50781,0.29688 0.29075,0.15834 0.58347,0.31357 0.87695,0.4668 0.30696,0.16248 0.61488,0.32373 0.92188,0.48632 l 3.03711,-4.00976 c 0.11747,0.0892 0.46874,0.34995 0.25976,0.21289 0.18759,0.12017 0.14925,0.10724 0.37109,0.22656 0.18621,0.0957 0.37077,0.1957 0.5625,0.2793 0.42827,0.1679 0.86087,0.32169 1.30274,0.45117 0.80151,0.23806 1.60841,0.46264 2.41797,0.67188 1.00495,0.26295 2.01162,0.51828 3.01758,0.77734 1.07659,0.27811 2.1516,0.55746 3.22656,0.8418 1.12787,0.29907 2.25549,0.6005 3.37891,0.91601 1.10732,0.3131 2.21317,0.63095 3.31445,0.96485 0.64891,0.19679 1.2957,0.40162 1.94336,0.60351 l 24.65039,-29.43164 c 0.41938,0.35154 0.8396,0.70337 1.26562,1.04688 0.46954,0.38101 0.94125,0.75803 1.42188,1.125 0.0712,0.0546 0.11587,0.0979 0.25781,0.20898 0.91011,0.47279 1.82041,0.94481 2.73438,1.41016 0.75191,0.38483 1.5113,0.75578 2.27929,1.10742 0.61087,0.28039 1.22673,0.55251 1.84766,0.81054 0.0413,-0.091 0.0859,-0.18034 0.12695,-0.27148 0.31045,-0.67359 0.58546,-1.3641 0.86524,-2.05078 0.13527,-0.35162 0.39317,-1.03121 0.5625,-1.52734 0.0914,-0.25884 0.20888,-0.60957 0.47656,-1.44336 0.40499,-1.21585 0.82819,-2.42524 1.30469,-3.61524 l 5.11132,2.0293 V 0 Z m 209.94727,241.45312 -2.62696,0.72071 c 0.0985,0.37165 0.23327,0.73086 0.39063,1.08008 0.75125,-0.5928 1.49469,-1.19565 2.23633,-1.80079 z" />
    </clipPath>
  </defs>
  <g
     id="g16026"
     transform="translate(-0.41134,-1.113352)"
     style="stroke:#871324;stroke-width:2.7;stroke-miterlimit:4;stroke-dasharray:none;stroke-opacity:1">
    <path
       style="fill:none;stroke:#871324;stroke-width:2.7;stroke-linecap:butt;stroke-linejoin:round;stroke-miterlimit:4;stroke-dasharray:none;stroke-opacity:1"
       d="m 208.44,137.14928 c 27.948,17.98136 59.07604,31.00463 91.50217,38.28243 1.71073,0.38396 3.42502,0.75209 5.14257,1.10431"
       id="path11314"
       inkscape:path-effect="#path-effect11316"
       inkscape:original-d="m 208.44,137.14928 c 30.8388,13.02398 60.66537,25.26045 91.50217,38.28243 30.83679,13.02198 3.76645,0.99937 5.14257,1.10431"
       sodipodi:nodetypes="csc" />
    <path
       style="fill:none;stroke:#871324;stroke-width:2.7;stroke-linecap:butt;stroke-linejoin:round;stroke-miterlimit:4;stroke-dasharray:none;stroke-opacity:1"
       d="m 208.21637,237.45365 96.49099,-61.09639"
       id="path11318"
       sodipodi:nodetypes="cc" />
    <path
       style="fill:#871324;fill-opacity:1;stroke:#871324;stroke-width:2.7;stroke-linecap:butt;stroke-linejoin:round;stroke-miterlimit:4;stroke-dasharray:none;stroke-opacity:1"
       d="M 207.99788,237.87076 208.44,137.14928"
       id="path11452" />
  </g>
  <path
     style="font-variation-settings:normal;opacity:1;vector-effect:none;fill:#871324;fill-opacity:1;stroke:none;stroke-width:0.224716;stroke-linecap:butt;stroke-linejoin:miter;stroke-miterlimit:4;stroke-dasharray:none;stroke-dashoffset:0;stroke-opacity:1;-inkscape-stroke:none;stop-color:#000000;stop-opacity:1"
     d="m 208.44,137.14928 c 0.0933,31.33781 -0.15883,62.67497 -0.27497,94.01193 0.1799,1.22781 -0.27561,2.9076 0.24952,3.93708 31.40124,-19.59082 62.59773,-39.51483 93.89524,-59.27342 -3.20985,-1.30724 -7.12273,-1.82924 -10.60223,-2.82621 -28.14436,-7.27074 -55.31434,-18.6152 -80.01635,-33.98171 -1.07581,-0.54181 -2.17084,-1.63024 -3.25121,-1.86767 z"
     id="path16181" />
  <path
     class="cls-4"
     d="m 100.7,227.18928 a 21.72,21.72 0 0 0 10.25,-6.38 l 0.57,-0.59 26.81,-45.9 8.57,10.42 a 186.81,186.81 0 0 0 16.75,20.36 l 2.41,-2.28 v 0 l -2.42,2.31 c 21.45,22.54 45.73,36.46 72.16,41.37 a 51.71,51.71 0 0 0 26.48,1.71 c 5.69,-0.56 10,-2 13.06,-4.38 a 52.5,52.5 0 0 0 -2.38,-95.47 v 0 l -0.48,-0.19 a 50.51,50.51 0 0 0 -6.09,-3.09 52.12,52.12 0 0 0 -40.23,-0.46 c -1.38,0.55 -2.76,1.17 -4.11,1.85 a 62.83,62.83 0 0 1 -13.61,-9.32 124.72,124.72 0 0 0 17.74,-9.39 c 19.5,-12.45 33,-29.15 39,-48.3 5.52,-17.59 3.52,-34 -5.8,-47.49 -12.61,-18.25 -38.43,-30.1900004 -69.06,-31.94000038 h -0.09 A 173,173 0 0 0 145.84,4.9792796 C 114.03,12.84928 91.54,29.20928 80.84,52.31928 c -4.51,9.69 -6.24,18.81 -5.2,27.19 a 26.24,26.24 0 0 0 -11.58,8.2 c -19.75,5.57 -33.81,19.15 -35.43,20.77 l -0.1,0.1 a 9.55,9.55 0 0 0 -1.82,2.59 9.84,9.84 0 0 0 -0.16,8.32 137.92,137.92 0 0 0 -22.31,30.91 9.86,9.86 0 0 0 2.39,11.86 q -1.06,2.52 -2,5 l -0.13,0.36 c -0.3,0.87 -0.59,1.71 -0.84,2.5 l -0.17,0.55 c -0.21,0.64 -0.4,1.29 -0.59,1.93 l -0.27,1 q -0.24,0.87 -0.45,1.71 c -0.1,0.39 -0.2,0.78 -0.29,1.17 -0.09,0.39 -0.2,0.87 -0.3,1.3 -0.14,0.62 -0.26,1.24 -0.38,1.86 -0.05,0.21 -0.08,0.43 -0.12,0.63 -0.17,0.87 -0.31,1.76 -0.44,2.63 l -0.06,0.36 c -0.21,1.54 -0.38,3.08 -0.49,4.56 v 0.46 c -0.05,0.8 -0.08,1.61 -0.1,2.4 0,0.23 0,0.46 0,0.7 v 1.28 c 0,0.56 0,1.11 0,1.66 0,0.35 0,0.69 0,1 0,0.31 0.07,0.93 0.11,1.41 0.04,0.48 0.06,0.65 0.1,1 0.06,0.56 0.13,1.12 0.22,1.68 v 0.11 c 0,0.17 0,0.35 0.08,0.51 0.11,0.67 0.24,1.35 0.38,2 l 0.1,0.45 c 0.18,0.79 0.35,1.49 0.53,2.14 a 9.56,9.56 0 0 0 0.65,1.68 6.29,6.29 0 0 0 0.35,0.63 9.19,9.19 0 0 0 0.58,0.89 c 0.15,0.2 0.31,0.39 0.5,0.61 a 7.62,7.62 0 0 0 0.68,0.7 8.14,8.14 0 0 0 0.63,0.54 5.39,5.39 0 0 0 0.54,0.4 7,7 0 0 0 0.66,0.43 c 0.18,0.1 0.36,0.2 0.54,0.28 h 0.08 a 9.71,9.71 0 0 0 1.22,0.49 l 0.26,0.09 a 10.88,10.88 0 0 0 1.16,0.27 l 0.41,0.06 a 8.11,8.11 0 0 0 1.09,0.08 h 0.54 c 0.55,0 1.11,-0.06 1.69,-0.11 h 0.38 l 1,-0.1 a 9.87,9.87 0 0 0 4.83,4.12 9.83,9.83 0 0 0 10.53,-2.08 l 19.76,-18.98 h 0.06 a 110,110 0 0 0 13.13,-13.21 l 12.39,28.93 0.08,0.17 c 0.71,1.54 7.28,15.1 18.71,17 a 16.37,16.37 0 0 0 3.52,0.2 m 0.14,2.18 0.26,1.16"
     id="path308"
     inkscape:connector-curvature="0"
     style="fill:#871324"
     clip-path="url(#clipPath15452)" />
  <g
     id="g3807">
    <path
       class="cls-3"
       d="m 163.40566,102.00733 c 0,0 18.34252,47.66819 129.30757,76.08394 l -73.52971,43.61338 C 138.23058,188.70726 115.78535,108.36096 115.78535,108.36096 l 34.94497,-8.30123"
       id="path2355"
       inkscape:connector-curvature="0"
       style="fill:#000000;stroke-width:1" />
    <path
       style="fill:none;stroke:#000000;stroke-width:1px;stroke-linecap:butt;stroke-linejoin:miter;stroke-opacity:1"
       d="m 219.7792,220.73465 -13.80457,8.49076"
       id="path3084"
       inkscape:path-effect="#path-effect3086"
       inkscape:original-d="m 219.7792,220.73465 c -4.60045,2.83139 -9.20197,5.66164 -13.80457,8.49076" />
    <path
       style="fill:#000000;stroke:#000000;stroke-width:1px;stroke-linecap:butt;stroke-linejoin:miter;stroke-opacity:1"
       d="m 206.40177,229.21046 c -2.79512,-1.46353 -5.53205,-3.0382 -8.20214,-4.71904 -4.42844,-2.78773 -8.67286,-5.86774 -12.69646,-9.21336"
       id="path3241"
       inkscape:path-effect="#path-effect3243"
       inkscape:original-d="m 206.40177,229.21046 c -2.73305,-1.57201 -5.46709,-3.14503 -8.20214,-4.71904 -2.73504,-1.57401 -8.46331,-6.14124 -12.69646,-9.21336" />
    <path
       style="font-variation-settings:normal;opacity:1;vector-effect:none;fill:#000000;fill-opacity:1;stroke:none;stroke-width:0.224716;stroke-linecap:butt;stroke-linejoin:miter;stroke-miterlimit:4;stroke-dasharray:none;stroke-dashoffset:0;stroke-opacity:1;-inkscape-stroke:none;stop-color:#000000;stop-opacity:1"
       d="m 213.1762,219.08817 c -1.49301,0.95881 -3.04,1.82687 -4.64108,2.59161 -1.75251,0.88475 -3.53163,1.71623 -5.28146,2.6058 -0.2208,0.13633 -0.48256,0.23383 -0.66127,0.41967 0.19675,0.43694 0.52927,0.81766 0.77889,1.23231 0.41483,0.6098 0.80733,1.2389 1.23729,1.83579 0.52395,0.26203 1.01915,0.60291 1.57036,0.80085 0.95247,-0.53448 1.87367,-1.13807 2.81304,-1.70067 2.99792,-1.8406 5.99963,-3.67532 8.98888,-5.5299 0.16415,-0.18664 -0.17368,-0.29554 -0.30038,-0.34623 -1.47499,-0.62834 -2.94663,-1.26094 -4.41032,-1.91605 -0.0298,0.009 -0.0673,-0.0147 -0.094,0.007 z"
       id="path3608" />
  </g>
  <path
     d="m 233.18,188.87928 -11.09,-3.26 12.11,-27.34 c 0,0 -22.72,-4.58 -37.71,-24 0,0 48.63,-13.87 62.14,-56.89 13.51,-43.02 -24.84,-68.0000004 -68.71,-70.5400004 0,0 -78.89,-3.41 -102.9,48.3300004 -14.05,30.26 5.09,46.14 23.4,54.1 l -51.59,45.38 22.65,52.96 c 0,0 10.6,23 24.53,8.48 l 31.37,-53.69 15,18.21 a 179.77,179.77 0 0 0 16.28,19.8 v 0 c 17.45,18.34 43.16,37.1 77.11,40.61 69.73,7.19 -12.59,-52.15 -12.59,-52.15 z"
     id="path310"
     inkscape:connector-curvature="0"
     style="opacity:1"
     clip-path="url(#clipPath3204)" />
  <path
     class="cls-3"
     d="m 177.5,126.46928 c 21.84,-4.53 40.88,-14.05 53.9,-32.83 20.32,-29.31 7.71,-63.65 -26.85,-70.79 -33.9,-7 -64.33,1.82 -90.11,25.29 -6.43,5.85 -11.34,12.82 -13.8,21.3 -3.57,12.28 10.34,27.07 22.52,24.66 0.56,-6.64 0.07,-13.42 1.86,-19.54 4.75,-16.24 16.09,-27.29 30.81,-34.94 a 55.65,55.65 0 0 1 29.13,-6.27 c 21.76,1.17 33.09,17.08 26.62,37.85 -6.08,19.54 -19.78,31.83 -38.36,39.11 -7,2.74 -14.31,4.52 -22.87,3.5 12.16,-19.62 24.83,-38.14 34.84,-58.4 0,0 -22.74,-12.18 -33.36,12.38 v 0 a 52.25,52.25 0 0 0 -5.06,8.29 c -15,29.43 -33.13,56.61 -62.21,74.51 -1.25,0.77 -2.13,3.71 -1.75,5.3 2.75,11.53 5.86,23 8.93,34.42 a 13.14,13.14 0 0 0 1.59,2.84 c 1,-0.67 2.33,-1.12 3,-2 q 20.63,-29.27 41.21,-58.53 c 0.76,-1.09 1.66,-2.09 2.5,-3.14 0.63,0.56 0.81,0.65 0.86,0.78 0.78,2 1.52,4 2.32,6 6.15,15.25 13.68,29.64 26.4,40.58 16.11,13.84 34.23,15.62 53.69,8.55 1.12,-0.41 2,-1.43 4.11,-3 a 46.6,46.6 0 0 0 -4.68,-1.06 49.27,49.27 0 0 1 -28.78,-12.93 c -10.06,-9 -16.66,-20.26 -21.43,-32.74 -3.02,-7.8 -3.02,-7.53 4.97,-9.19 z"
     id="path312"
     inkscape:connector-curvature="0"
     style="fill:#ffffff" />
  <path
     class="cls-3"
     d="m 173.58895,125.5577 c 0,0 12.88781,33.4926 90.85402,53.45805 l -51.66341,30.6436 C 155.90046,186.47475 140.13,130.02188 140.13,130.02188 l 24.55302,-5.8326"
     id="path314"
     inkscape:connector-curvature="0"
     style="fill:#ffffff;stroke-width:1" />
  <path
     class="cls-18"
     d="m 228.05,56.87928 a 30.88,30.88 0 0 0 -11.71,-14.26 c 7.34,11.77 9.81,22.92 7.33,33.22 -3.25,13.51 -14.93,25.4 -34.74,35.34 -2.79,1.4 -27.87,10.87 -32.54,10.68 -2.75,3.51 -1.16,7.85 -0.28,9.66 18.44,34.4 34.34,41.2 36.21,41.9 l 12.07,5.66 a 2.42,2.42 0 0 0 1,0.23 2.47,2.47 0 0 0 1,-4.7 l -12.17,-5.71 -0.24,-0.09 c -0.16,-0.06 -16.3,-6.14 -35,-42.31 a 108.56,108.56 0 0 0 15.27,-4.48 c 7.59,-2.63 15.57,-5.79 16.85,-6.43 21.16,-10.63 33.72,-23.61 37.32,-38.6 a 40.64,40.64 0 0 0 -0.37,-20.11 z"
     id="path320"
     inkscape:connector-curvature="0"
     style="fill:#c9c9c9" />
  <path
     class="cls-18"
     d="m 123.96,57.61928 c -0.18,0.12 0,-0.14 0.71,-1 v 0 l 0.74,-1 c 3,-4.4 0.59,-7.55 0.59,-7.55 a 62,62 0 0 0 -6,7.38 v 0 c -19,17.56 -8.36,26.3 -8.36,26.3 v 0 a 2.23,2.23 0 0 0 1.71,0.81 h 0.06 a 2.24,2.24 0 0 0 2.17,-2.28 31.76,31.76 0 0 1 1.58,-9 49,49 0 0 1 6.8,-13.66 z"
     id="path338"
     inkscape:connector-curvature="0"
     style="fill:#c9c9c9" />
  <path
     class="cls-18"
     d="m 140.04,129.42928 c 0,0 -6.7,-15.62 10.3,-15.62 0,0 -25.86,-3.85 -14.8,21.6"
     id="path340"
     inkscape:connector-curvature="0"
     style="fill:#c9c9c9" />
  <path
     class="cls-6"
     d="m 102.87,94.37928 c -18.73,-11.46 -28.22,-5.53 -32.95,2.06 -19.73,4.34 -34.36,19.09 -34.36,19.09 a 13.62,13.62 0 0 1 8.89,1.09 c -20.17,15.59 -31.39,38.2 -31.39,38.2 a 7.76,7.76 0 0 1 8.54,-0.43 c -10.22,17.41 -14,35.27 -10.5,47.6 15,-0.58 34.21,-12.93 48.79,-33 6.82,-9.37 11.81,-20.11 16,-31.14 1.56,-4.08 3,-8.2 4.43,-12.3 0.37,-1.09 1.13,-3.32 1.76,-5.9 18.88,-3.67 43.28,-11.51 20.79,-25.27 z"
     id="path342"
     inkscape:connector-curvature="0"
     style="fill:#828282" />
  <path
     d="m 9.59,204.61928 a 3,3 0 0 1 -1.41,-1.81 c -3.5,-12.48 -0.2,-29.61 8.83,-46.43 a 5,5 0 0 0 -2.22,0.93 3,3 0 0 1 -4.44,-3.84 128.49,128.49 0 0 1 27.38,-35.22 9.68,9.68 0 0 0 -1.47,0.22 3,3 0 0 1 -2.85,-5.08 c 0.61,-0.61 14.9,-14.84 34.64,-19.63 a 19.32,19.32 0 0 1 12.53,-8.47 c 6.72,-1.27 14.75,0.92 23.87,6.51 v 0 c 7.84,4.79 11.23,9.51 10.35,14.41 -0.78,4.3 -4.8,7.88 -12.31,10.95 a 104.74,104.74 0 0 1 -17.93,5.12 c -0.53,1.89 -1.06,3.44 -1.35,4.29 -1.67,4.88 -3.09,8.81 -4.46,12.4 -5.12,13.38 -10.34,23.5 -16.41,31.85 -14.66,20.14 -34.73,33.57 -51.12,34.2 a 3,3 0 0 1 -1.63,-0.4 z m 13.52,-52.86 a 3,3 0 0 1 1.41,1.82 3,3 0 0 1 -0.31,2.34 c -8.91,15.2 -12.91,31.31 -10.75,42.84 6.31,-0.8 13.35,-3.7 20.52,-8.48 a 94.47,94.47 0 0 0 23.46,-23 c 5.75,-7.9 10.73,-17.58 15.65,-30.45 1.35,-3.51 2.74,-7.39 4.39,-12.19 0.35,-1 1.09,-3.18 1.68,-5.63 a 3,3 0 0 1 2.37,-2.26 c 24.88,-4.89 27.11,-10.5 27.3,-11.58 0.37,-2 -2.38,-5 -7.54,-8.18 -7.81,-4.77 -14.39,-6.69 -19.58,-5.72 -3.74,0.71 -6.84,3 -9.22,6.8 a 3,3 0 0 1 -1.92,1.36 c -11.63,2.56 -21.52,9 -27.33,13.52 a 18.07,18.07 0 0 1 2.49,1 3,3 0 0 1 0.58,5.14 c -13.26,10.26 -22.63,23.79 -27.26,31.38 a 11.47,11.47 0 0 1 4,1.34 z"
     id="path344"
     inkscape:connector-curvature="0" />
  <path
     class="cls-22"
     d="m 15.9,165.66928 c -5.8,13.58 -7.52,26.65 -4.8,36.32 a 38.09,38.09 0 0 0 11.63,-2.48 v 0 l 0.31,7.06 19.68,-19.06 c -7.03,-13.03 -19.31,-19.18 -26.82,-21.84 z"
     id="path346"
     inkscape:connector-curvature="0"
     style="fill-rule:evenodd;stroke:#000000;stroke-width:6.06px;stroke-linecap:round;stroke-linejoin:round" />
  <path
     class="cls-23"
     d="m 65.96,159.61928 a 159.87,159.87 0 0 0 10,-21.74 c 0.41,-1.06 0.81,-2.12 1.2,-3.19 a 185.09,185.09 0 0 0 -35,-24.74 68.52,68.52 0 0 0 -6.54,5.57 13.62,13.62 0 0 1 8.89,1.09 105.57,105.57 0 0 0 -15.28,14.67 c 11.67,5.34 30.31,15.44 36.73,28.34 z"
     id="path348"
     inkscape:connector-curvature="0"
     style="stroke:#000000;stroke-width:6.06px;stroke-linecap:round;stroke-linejoin:round" />
  <path
     class="cls-23"
     d="m 96.18,116.19928 c 13.93,-4.41 23.68,-11.42 6.69,-21.82 -14.39,-8.8 -23.32,-7.34 -28.83,-2.76 7.41,4.47 17.01,12.28 22.14,24.58 z"
     id="path350"
     inkscape:connector-curvature="0"
     style="stroke:#000000;stroke-width:6.06px;stroke-linecap:round;stroke-linejoin:round" />
  <path
     style="fill:#871324;fill-opacity:1;stroke:none;stroke-width:1px;stroke-linecap:butt;stroke-linejoin:miter;stroke-opacity:1"
     d="m 304.13174,173.92833 3.41769,0.73736 -3.34174,2.23048"
     id="path45345" />
</svg>
