<?xml version="1.0" encoding="UTF-8" standalone="no"?>
<svg
   id="Layer_1"
   data-name="Layer 1"
   viewBox="0 0 285.97 372.17001"
   version="1.1"
   sodipodi:docname="TPA.svg"
   width="285.97"
   height="372.17001"
   inkscape:version="1.1.1 (3bf5ae0d25, 2021-09-20)"
   xmlns:inkscape="http://www.inkscape.org/namespaces/inkscape"
   xmlns:sodipodi="http://sodipodi.sourceforge.net/DTD/sodipodi-0.dtd"
   xmlns="http://www.w3.org/2000/svg"
   xmlns:svg="http://www.w3.org/2000/svg"
   xmlns:rdf="http://www.w3.org/1999/02/22-rdf-syntax-ns#"
   xmlns:cc="http://creativecommons.org/ns#"
   xmlns:dc="http://purl.org/dc/elements/1.1/">
  <metadata
     id="metadata462">
    <rdf:RDF>
      <cc:Work
         rdf:about="">
        <dc:format>image/svg+xml</dc:format>
        <dc:type
           rdf:resource="http://purl.org/dc/dcmitype/StillImage" />
      </cc:Work>
    </rdf:RDF>
  </metadata>
  <sodipodi:namedview
     pagecolor="#ffffff"
     bordercolor="#666666"
     borderopacity="1"
     objecttolerance="10"
     gridtolerance="10"
     guidetolerance="10"
     inkscape:pageopacity="0"
     inkscape:pageshadow="2"
     inkscape:window-width="1920"
     inkscape:window-height="1017"
     id="namedview460"
     showgrid="false"
     inkscape:zoom="1.7800235"
     inkscape:cx="112.63896"
     inkscape:cy="219.94092"
     inkscape:window-x="-8"
     inkscape:window-y="-8"
     inkscape:window-maximized="1"
     inkscape:current-layer="Layer_1"
     inkscape:pagecheckerboard="0"
     showguides="true"
     inkscape:guide-bbox="true">
    <sodipodi:guide
       position="139.324,214.86872"
       orientation="1,0"
       id="guide1419" />
  </sodipodi:namedview>
  <defs
     id="defs4">
    <inkscape:path-effect
       effect="spiro"
       id="path-effect1425"
       is_visible="true"
       lpeversion="1" />
    <style
       id="style2">.cls-1,.cls-19,.cls-23,.cls-27,.cls-28,.cls-34,.cls-35{fill:#ed8721;}.cls-10,.cls-14,.cls-15,.cls-2,.cls-25,.cls-30,.cls-7,.cls-8{fill:#19ce22;}.cls-17,.cls-21,.cls-26,.cls-3,.cls-37,.cls-6,.cls-9{fill:#043d04;}.cls-4{fill:#f7e494;}.cls-12,.cls-5{fill:#096609;}.cls-10,.cls-13,.cls-14,.cls-17,.cls-21,.cls-26,.cls-29,.cls-33,.cls-37,.cls-5,.cls-6,.cls-7,.cls-8,.cls-9{stroke:#043d04;}.cls-10,.cls-13,.cls-14,.cls-15,.cls-17,.cls-21,.cls-25,.cls-26,.cls-29,.cls-31,.cls-32,.cls-33,.cls-37,.cls-5,.cls-6,.cls-7,.cls-8,.cls-9{stroke-linecap:round;stroke-linejoin:round;}.cls-5,.cls-6{stroke-width:10.7px;}.cls-7{stroke-width:11.59px;}.cls-8{stroke-width:11.98px;}.cls-22,.cls-9{stroke-width:5.35px;}.cls-10{stroke-width:9.81px;}.cls-11,.cls-31{fill:#fff7d7;}.cls-13,.cls-22,.cls-24,.cls-29,.cls-32,.cls-33,.cls-36{fill:none;}.cls-13{stroke-width:8.92px;}.cls-14{stroke-width:11.57px;}.cls-15,.cls-25{stroke:#19ce22;}.cls-15{stroke-width:5.37px;}.cls-16{fill:#0ea812;}.cls-17{stroke-width:2.28px;}.cls-18{fill:#ffb164;}.cls-19,.cls-28,.cls-35{stroke:#cc6c15;}.cls-19,.cls-22,.cls-23,.cls-24,.cls-27,.cls-28,.cls-30,.cls-34,.cls-35,.cls-36{stroke-miterlimit:10;}.cls-19,.cls-23{stroke-width:5.99px;}.cls-20{fill:#fff;}.cls-21{stroke-width:3.02px;}.cls-22,.cls-31,.cls-32{stroke:#f7e494;}.cls-23,.cls-24,.cls-34,.cls-36{stroke:#fff;}.cls-24{stroke-width:2.99px;}.cls-25{stroke-width:7.54px;}.cls-26{stroke-width:3.2px;}.cls-27{stroke:#ed8721;}.cls-28{stroke-width:7.55px;}.cls-29{stroke-width:35.77px;}.cls-30{stroke:#0ea812;stroke-width:10.57px;}.cls-31,.cls-32,.cls-33,.cls-34,.cls-35{stroke-width:8.01px;}.cls-36{stroke-width:4px;}.cls-37{stroke-width:2.53px;}</style>
    <inkscape:path-effect
       effect="spiro"
       id="path-effect1615"
       is_visible="true"
       lpeversion="1" />
    <inkscape:path-effect
       effect="spiro"
       id="path-effect1611"
       is_visible="true"
       lpeversion="1" />
    <inkscape:path-effect
       effect="spiro"
       id="path-effect1607"
       is_visible="true"
       lpeversion="1" />
    <inkscape:path-effect
       effect="spiro"
       id="path-effect1603"
       is_visible="true"
       lpeversion="1" />
    <inkscape:path-effect
       effect="spiro"
       id="path-effect1583"
       is_visible="true"
       lpeversion="1" />
    <inkscape:path-effect
       effect="spiro"
       id="path-effect1599"
       is_visible="true"
       lpeversion="1" />
    <inkscape:path-effect
       effect="spiro"
       id="path-effect1595"
       is_visible="true"
       lpeversion="1" />
    <inkscape:path-effect
       effect="spiro"
       id="path-effect1591"
       is_visible="true"
       lpeversion="1" />
    <inkscape:path-effect
       effect="spiro"
       id="path-effect1587"
       is_visible="true"
       lpeversion="1" />
    <inkscape:path-effect
       effect="spiro"
       id="path-effect1750"
       is_visible="true"
       lpeversion="1" />
    <inkscape:path-effect
       effect="spiro"
       id="path-effect1579"
       is_visible="true"
       lpeversion="1" />
  </defs>
  <rect
     class="cls-4"
     x="0"
     y="0"
     width="285.97"
     height="310.29001"
     rx="73.32"
     id="rect345"
     style="fill:#f7e494" />
  <ellipse
     class="cls-28"
     cx="140.92999"
     cy="295.88"
     rx="100.93"
     ry="26.620001"
     id="ellipse347"
     style="fill:#ed8721;stroke:#cc6c15;stroke-width:7.55000019px;stroke-miterlimit:10" />
  <rect
     class="cls-29"
     x="25.640015"
     y="25.630005"
     width="234.71001"
     height="259.01999"
     rx="40"
     id="rect349"
     style="fill:none;stroke:#043d04;stroke-width:35.77000046px;stroke-linecap:round;stroke-linejoin:round" />
  <rect
     class="cls-30"
     x="25.640015"
     y="25.630005"
     width="234.71001"
     height="259.01999"
     rx="40"
     id="rect351"
     style="fill:#19ce22;stroke:#0ea812;stroke-width:10.56999969px;stroke-miterlimit:10" />
  <polyline
     class="cls-16"
     points="737.95 330.19 737.95 588.15 666.06 588.15 640.68 579.7 621.65 555.38 621.65 359.79 637.51 337.59 666.06 329.13"
     id="polyline353"
     style="fill:#0ea812"
     transform="translate(-598.13,-303.5)" />
  <path
     class="cls-20"
     d="m 224.87,128.37 -9.56,-30.18 c -2.44,-26 -35.39,-46.22 -75.33,-46.22 -39.94,0 -72.800005,20.21 -75.320005,46.11 l -11.44,30.68 a 4,4 0 0 0 3.75,5.4 v 0 h 7.66 c -0.08,2.16 0.07,8.95 4.47,13.72 a 14.73,14.73 0 0 0 11.17,4.51 H 202.27 c 5.9,0 9,-2.56 10.49,-4.7 3.42,-4.8 2.1,-11.43 1.37,-14.06 h 6.91 a 4,4 0 0 0 3.22,-1.64 4,4 0 0 0 0.61,-3.62 z m -18.83,5.26 c 0,0.07 0,0.14 0,0.21 h -5.54 v -0.19 z m -41.43,0.15 v 0.06 h -16.82 z m 8,0 19.88,-0.07 v 0.16 h -19.84 z"
     id="path355"
     inkscape:connector-curvature="0"
     style="fill:#ffffff" />
  <path
     class="cls-31"
     d="m 210.07,126.63 c 0,0 1.16,14.53 -11.63,14.53 H 80.319995 c -12.78,0 -11.62,-14.53 -11.62,-14.53"
     id="path357"
     inkscape:connector-curvature="0"
     style="fill:#fff7d7;stroke:#f7e494;stroke-width:8.01000023px;stroke-linecap:round;stroke-linejoin:round" />
  <path
     class="cls-31"
     d="m 210.07,126.63 c 0,0 5,14.53 -7.75,14.53 H 80.319995 c -12.78,0 -11.62,-14.53 -11.62,-14.53"
     id="path359"
     inkscape:connector-curvature="0"
     style="fill:#fff7d7;stroke:#f7e494;stroke-width:8.01000023px;stroke-linecap:round;stroke-linejoin:round" />
  <line
     class="cls-31"
     x1="112.85999"
     y1="140.38"
     x2="112.85999"
     y2="117.14001"
     id="line361"
     style="fill:#fff7d7;stroke:#f7e494;stroke-width:8.01000023px;stroke-linecap:round;stroke-linejoin:round" />
  <line
     class="cls-31"
     x1="140.76001"
     y1="140.38"
     x2="140.76001"
     y2="117.14001"
     id="line363"
     style="fill:#fff7d7;stroke:#f7e494;stroke-width:8.01000023px;stroke-linecap:round;stroke-linejoin:round" />
  <line
     class="cls-31"
     x1="168.65002"
     y1="140.38"
     x2="168.65002"
     y2="117.14001"
     id="line365"
     style="fill:#fff7d7;stroke:#f7e494;stroke-width:8.01000023px;stroke-linecap:round;stroke-linejoin:round" />
  <line
     class="cls-31"
     x1="196.53998"
     y1="140.38"
     x2="196.53998"
     y2="117.14001"
     id="line367"
     style="fill:#fff7d7;stroke:#f7e494;stroke-width:8.01000023px;stroke-linecap:round;stroke-linejoin:round" />
  <path
     class="cls-32"
     d="m 210.07,126.63 c 0,0 1.16,14.53 -11.63,14.53 H 80.319995 c -12.78,0 -11.62,-14.53 -11.62,-14.53"
     id="path369"
     inkscape:connector-curvature="0"
     style="fill:none;stroke:#f7e494;stroke-width:8.01000023px;stroke-linecap:round;stroke-linejoin:round" />
  <line
     class="cls-31"
     x1="84.969971"
     y1="140.38"
     x2="84.969971"
     y2="117.14001"
     id="line371"
     style="fill:#fff7d7;stroke:#f7e494;stroke-width:8.01000023px;stroke-linecap:round;stroke-linejoin:round" />
  <path
     class="cls-12"
     d="m 221.08,122.37 -9.69,-30.61 c -1.9,-23.95 -33.13,-43 -71.38,-43 -38.25,0 -69.480005,19.05 -71.380005,43 l -11.63,31.19 z"
     id="path373"
     inkscape:connector-curvature="0"
     style="fill:#096609" />
  <path
     class="cls-12"
     d="m 182.63,122.5 38.45,-0.13 -10.81,-31.46 c -1.13,-13 -11.36,-24.57 -27,-32.62 h -1.2 z"
     id="path375"
     inkscape:connector-curvature="0"
     style="fill:#096609" />
  <path
     class="cls-12"
     d="m 94.389995,122.5 -38.45,-0.13 10.82,-31.45 c 1.12,-13 11.35,-24.57 27,-32.62 h 1.19 z"
     id="path377"
     inkscape:connector-curvature="0"
     style="fill:#096609" />
  <line
     class="cls-33"
     x1="65.820007"
     y1="103"
     x2="213.62"
     y2="103"
     id="line379"
     style="fill:none;stroke:#043d04;stroke-width:8.01000023px;stroke-linecap:round;stroke-linejoin:round" />
  <line
     class="cls-33"
     x1="76.669983"
     y1="102.81"
     x2="76.669983"
     y2="120.23999"
     id="line381"
     style="fill:none;stroke:#043d04;stroke-width:8.01000023px;stroke-linecap:round;stroke-linejoin:round" />
  <line
     class="cls-33"
     x1="90.609985"
     y1="102.81"
     x2="90.609985"
     y2="120.23999"
     id="line383"
     style="fill:none;stroke:#043d04;stroke-width:8.01000023px;stroke-linecap:round;stroke-linejoin:round" />
  <line
     class="cls-33"
     x1="104.56"
     y1="102.81"
     x2="104.56"
     y2="120.23999"
     id="line385"
     style="fill:none;stroke:#043d04;stroke-width:8.01000023px;stroke-linecap:round;stroke-linejoin:round" />
  <line
     class="cls-33"
     x1="118.5"
     y1="102.81"
     x2="118.5"
     y2="120.23999"
     id="line387"
     style="fill:none;stroke:#043d04;stroke-width:8.01000023px;stroke-linecap:round;stroke-linejoin:round" />
  <line
     class="cls-33"
     x1="132.45001"
     y1="102.81"
     x2="132.45001"
     y2="120.23999"
     id="line389"
     style="fill:none;stroke:#043d04;stroke-width:8.01000023px;stroke-linecap:round;stroke-linejoin:round" />
  <line
     class="cls-33"
     x1="146.40002"
     y1="102.81"
     x2="146.40002"
     y2="120.23999"
     id="line391"
     style="fill:none;stroke:#043d04;stroke-width:8.01000023px;stroke-linecap:round;stroke-linejoin:round" />
  <line
     class="cls-33"
     x1="160.33997"
     y1="102.81"
     x2="160.33997"
     y2="120.23999"
     id="line393"
     style="fill:none;stroke:#043d04;stroke-width:8.01000023px;stroke-linecap:round;stroke-linejoin:round" />
  <line
     class="cls-33"
     x1="174.28998"
     y1="102.81"
     x2="174.28998"
     y2="120.23999"
     id="line395"
     style="fill:none;stroke:#043d04;stroke-width:8.01000023px;stroke-linecap:round;stroke-linejoin:round" />
  <line
     class="cls-33"
     x1="188.22998"
     y1="102.81"
     x2="188.22998"
     y2="120.23999"
     id="line397"
     style="fill:none;stroke:#043d04;stroke-width:8.01000023px;stroke-linecap:round;stroke-linejoin:round" />
  <line
     class="cls-33"
     x1="202.17999"
     y1="102.81"
     x2="202.17999"
     y2="120.23999"
     id="line399"
     style="fill:none;stroke:#043d04;stroke-width:8.01000023px;stroke-linecap:round;stroke-linejoin:round" />
  <polyline
     class="cls-33"
     points="760.03 354.59 760.03 375.06 737.37 384.5 714.7 375.06 714.7 355.75"
     id="polyline401"
     style="fill:none;stroke:#043d04;stroke-width:8.01000023px;stroke-linecap:round;stroke-linejoin:round"
     transform="translate(-598.13,-303.5)" />
  <polyline
     class="cls-33"
     points="714.7 375.06 691.07 387.13 678.28 376.67"
     id="polyline403"
     style="fill:none;stroke:#043d04;stroke-width:8.01000023px;stroke-linecap:round;stroke-linejoin:round"
     transform="translate(-598.13,-303.5)" />
  <polyline
     class="cls-33"
     points="760.22 375.64 783.85 387.71 796.64 377.25"
     id="polyline405"
     style="fill:none;stroke:#043d04;stroke-width:8.01000023px;stroke-linecap:round;stroke-linejoin:round"
     transform="translate(-598.13,-303.5)" />
  <line
     class="cls-33"
     x1="92.940002"
     y1="83.630005"
     x2="92.940002"
     y2="99.899994"
     id="line407"
     style="fill:none;stroke:#043d04;stroke-width:8.01000023px;stroke-linecap:round;stroke-linejoin:round" />
  <line
     class="cls-33"
     x1="139.23999"
     y1="81"
     x2="139.23999"
     y2="102.22"
     id="line409"
     style="fill:none;stroke:#043d04;stroke-width:8.01000023px;stroke-linecap:round;stroke-linejoin:round" />
  <line
     class="cls-33"
     x1="185.71997"
     y1="84.209991"
     x2="185.71997"
     y2="98.160004"
     id="line411"
     style="fill:none;stroke:#043d04;stroke-width:8.01000023px;stroke-linecap:round;stroke-linejoin:round" />
  <path
     class="cls-33"
     d="m 221.08,122.37 -9.69,-30.61 c -1.9,-23.95 -33.13,-43 -71.38,-43 -38.25,0 -69.480005,19.05 -71.380005,43 l -11.63,31.19 z"
     id="path413"
     inkscape:connector-curvature="0"
     style="fill:none;stroke:#043d04;stroke-width:8.01000023px;stroke-linecap:round;stroke-linejoin:round" />
  <circle
     class="cls-37"
     cx="43.559998"
     cy="270.03003"
     r="34.57"
     id="circle427"
     style="fill:#043d04;stroke:#043d04;stroke-width:2.52999997px;stroke-linecap:round;stroke-linejoin:round" />
  <circle
     class="cls-37"
     cx="239.08002"
     cy="270.03003"
     r="34.57"
     id="circle429"
     style="fill:#043d04;stroke:#043d04;stroke-width:2.52999997px;stroke-linecap:round;stroke-linejoin:round" />
  <path
     class="cls-2"
     d="m 58.869995,250.73 a 2.84,2.84 0 0 0 -2.22,-1.08 h -26.78 a 2.82,2.82 0 0 0 -2,0.84 l -0.28,0.29 a 2.81,2.81 0 0 0 -0.83,2 v 4 a 2.83,2.83 0 0 0 0.83,2 l 0.29,0.29 a 2.83,2.83 0 0 0 2,0.83 h 7.78 v 30.83 a 2.83,2.83 0 0 0 0.83,2 l 0.29,0.29 a 2.83,2.83 0 0 0 2,0.83 h 4.23 a 2.86,2.86 0 0 0 2,-0.82 l 0.29,-0.29 a 2.86,2.86 0 0 0 0.84,-2 v -30.85 h 7.37 a 2.85,2.85 0 0 0 1.81,-0.65 l 0.34,-0.29 a 2.73,2.73 0 0 0 0.94,-1.48 l 1,-4 a 2.85,2.85 0 0 0 -0.52,-2.47 z"
     id="path431"
     inkscape:connector-curvature="0"
     style="fill:#19ce22" />
  <path
     class="cls-2"
     d="m 252.92,268.91 a 11.53,11.53 0 0 0 2.89,-7.86 c 0,-11 -9.61,-12.59 -15.34,-12.59 h -10.38 a 2.85,2.85 0 0 0 -2,0.83 l -0.28,0.29 a 2.83,2.83 0 0 0 -0.83,2 v 37.92 a 2.82,2.82 0 0 0 0.84,2 l 0.28,0.28 a 2.83,2.83 0 0 0 2,0.83 h 11.41 c 7.63,0 15.33,-4.39 15.33,-14.19 a 12.56,12.56 0 0 0 -3.92,-9.51 z m -7.58,-7.57 c 0,1.14 0,2.87 -4.81,2.87 h -3.1 v -5.71 h 3.1 c 4.81,0 4.81,1.45 4.81,2.84 z m -7.91,21.24 v -8.31 h 3.44 c 2.48,0 5.44,0.73 5.44,4.19 0,2.73 -1.83,4.12 -5.44,4.12 z"
     id="path433"
     inkscape:connector-curvature="0"
     style="fill:#19ce22" />
  <polyline
     class="cls-1"
     points="653.21 608.9 653.21 657.39 676.26 612.08"
     id="polyline435"
     style="fill:#ed8721"
     transform="translate(-598.13,-303.5)" />
  <polyline
     class="cls-18"
     points="676.94 630.07 673.64 662.8 684.24 632.97"
     id="polyline437"
     style="fill:#ffb164"
     transform="translate(-598.13,-303.5)" />
  <polyline
     class="cls-18"
     points="716.1 637.45 715.51 670.35 723.61 639.74"
     id="polyline439"
     style="fill:#ffb164"
     transform="translate(-598.13,-303.5)" />
  <polyline
     class="cls-18"
     points="800.19 630.07 803.49 662.8 792.89 632.97"
     id="polyline441"
     style="fill:#ffb164"
     transform="translate(-598.13,-303.5)" />
  <polyline
     class="cls-18"
     points="761.02 637.45 761.62 670.35 753.51 639.74"
     id="polyline443"
     style="fill:#ffb164"
     transform="translate(-598.13,-303.5)" />
  <line
     class="cls-1"
     x1="55.080017"
     y1="353.89001"
     x2="78.130005"
     y2="308.58002"
     id="line445"
     style="fill:#ed8721" />
  <polyline
     class="cls-1"
     points="693.75 608.9 698.52 657.39 716.8 612.08"
     id="polyline447"
     style="fill:#ed8721"
     transform="translate(-598.13,-303.5)" />
  <polyline
     class="cls-1"
     points="824.1 608.9 824.1 657.39 796.28 612.08"
     id="polyline449"
     style="fill:#ed8721"
     transform="translate(-598.13,-303.5)" />
  <polyline
     class="cls-1"
     points="760.51 612.08 778.79 657.39 783.56 608.9"
     id="polyline451"
     style="fill:#ed8721"
     transform="translate(-598.13,-303.5)" />
  <polyline
     class="cls-1"
     points="729.91 616.06 741.83 675.67 747.4 616.85"
     id="polyline453"
     style="fill:#ed8721"
     transform="translate(-598.13,-303.5)" />
  <polygon
     class="cls-18"
     points="640.89,618.24 648.05,622.02 634.14,637.12 "
     id="polygon455"
     style="fill:#ffb164"
     transform="translate(-598.13,-303.5)" />
  <polygon
     class="cls-18"
     points="836.81,618.24 829.66,622.02 843.57,637.12 "
     id="polygon457"
     style="fill:#ffb164"
     transform="translate(-598.13,-303.5)" />
  <path
     style="fill:#ffffff;fill-opacity:1;stroke:#ffffff;stroke-width:1.1;stroke-linecap:butt;stroke-linejoin:miter;stroke-miterlimit:4;stroke-dasharray:none;stroke-opacity:1"
     d="m 88.660699,224.42127 c -0.06256,-0.96737 -0.029,-1.9462 0.17871,-2.89307 0.155865,-0.71053 0.410707,-1.40215 0.7846,-2.02613 0.652514,-1.08897 1.636769,-1.93061 2.57407,-2.78682 2.794942,-2.55312 5.317066,-5.40623 8.255141,-7.79325 2.14056,-1.73908 4.48414,-3.21544 6.90081,-4.54439 5.82452,-3.20296 12.12192,-5.57204 18.64885,-6.8303 10.48476,-2.02125 21.54972,-1.10679 31.48088,2.81593 8.13753,3.21425 15.4333,8.38364 21.56921,14.62074 1.93728,1.96923 3.76869,4.05133 5.34732,6.31824 0.14646,0.21032 0.29092,0.4225 0.41658,0.64587 0.68858,1.22396 0.76743,2.7224 0.46286,4.09334 -0.30458,1.37094 -0.96394,2.63631 -1.68777,3.83977 -0.51936,0.8635 -1.07571,1.70509 -1.67637,2.51416 -2.08651,2.81047 -4.68765,5.20195 -7.4259,7.38237 -6.59244,5.24943 -14.13828,9.39344 -22.28241,11.55908 -10.0496,2.67233 -20.82509,2.25113 -30.80431,-0.67306 -7.46741,-2.18816 -14.55007,-5.7739 -20.56565,-10.70979 -3.675141,-3.01552 -6.935318,-6.51423 -9.884451,-10.24285 -0.74601,-0.94319 -1.484232,-1.92247 -1.88283,-3.05704 -0.251598,-0.71615 -0.360353,-1.47532 -0.40934,-2.2328 z"
     id="path1421"
     inkscape:path-effect="#path-effect1425"
     inkscape:original-d="m 88.660699,224.42127 c -0.13693,-0.7456 0.11962,-1.92739 0.17871,-2.89307 0.0591,-0.96569 0.5236,-1.34941 0.7846,-2.02613 0.26103,-0.67672 1.71653,-1.85656 2.57407,-2.78682 0.85753,-0.93027 5.503913,-5.19417 8.255141,-7.79325 2.75122,-2.59908 4.60102,-3.02827 6.90081,-4.54439 2.29979,-1.51613 12.43305,-4.5522 18.64885,-6.8303 6.2158,-2.27808 20.98774,1.87861 31.48088,2.81593 10.49314,0.93732 14.37995,9.74848 21.56921,14.62074 7.18924,4.87224 3.56536,4.2135 5.34732,6.31824 1.78196,2.10476 0.2782,0.43191 0.41658,0.64587 0.13837,0.21396 -0.81612,5.29007 -1.22491,7.93311 -0.40879,2.64304 -1.11709,1.67743 -1.67637,2.51416 -0.55926,0.83672 -4.95011,4.92291 -7.4259,7.38237 -2.47578,2.45947 -14.85445,7.70738 -22.28241,11.55908 -7.42796,3.85169 -20.53572,-0.44738 -30.80431,-0.67306 -10.26858,-0.22568 -13.70995,-7.13854 -20.56565,-10.70979 -6.855711,-3.57126 -6.589151,-6.82724 -9.884451,-10.24285 -3.29531,-3.41561 -1.25474,-2.03669 -1.88283,-3.05704 -0.62809,-1.02034 -0.27242,-1.4872 -0.40934,-2.2328 z" />
  <path
     style="fill:#ed8721;fill-opacity:1;stroke:#cc6c15;stroke-width:1.1;stroke-linecap:butt;stroke-linejoin:miter;stroke-miterlimit:4;stroke-dasharray:none;stroke-opacity:1"
     d="m 88.660699,220.42127 c -0.06256,-0.96737 -0.029,-1.9462 0.17871,-2.89307 0.155865,-0.71053 0.410707,-1.40215 0.7846,-2.02613 0.652514,-1.08897 1.636769,-1.93061 2.57407,-2.78682 2.794942,-2.55312 5.317066,-5.40623 8.255141,-7.79325 2.14056,-1.73908 4.48414,-3.21544 6.90081,-4.54439 5.82452,-3.20296 12.12192,-5.57204 18.64885,-6.8303 10.48476,-2.02125 21.54972,-1.10679 31.48088,2.81593 8.13753,3.21425 15.4333,8.38364 21.56921,14.62074 1.93728,1.96923 3.76869,4.05133 5.34732,6.31824 0.14646,0.21032 0.29092,0.4225 0.41658,0.64587 0.68858,1.22396 0.76743,2.7224 0.46286,4.09334 -0.30458,1.37094 -0.96394,2.63631 -1.68777,3.83977 -0.51936,0.8635 -1.07571,1.70509 -1.67637,2.51416 -2.08651,2.81047 -4.68765,5.20195 -7.4259,7.38237 -6.59244,5.24943 -14.13828,9.39344 -22.28241,11.55908 -10.0496,2.67233 -20.82509,2.25113 -30.80431,-0.67306 -7.46741,-2.18816 -14.55007,-5.7739 -20.56565,-10.70979 -3.675141,-3.01552 -6.935318,-6.51423 -9.884451,-10.24285 -0.74601,-0.94319 -1.484232,-1.92247 -1.88283,-3.05704 -0.251598,-0.71615 -0.360353,-1.47532 -0.40934,-2.2328 z"
     id="path1577"
     inkscape:path-effect="#path-effect1579"
     inkscape:original-d="m 88.660699,220.42127 c -0.13693,-0.7456 0.11962,-1.92739 0.17871,-2.89307 0.0591,-0.96569 0.5236,-1.34941 0.7846,-2.02613 0.26103,-0.67672 1.71653,-1.85656 2.57407,-2.78682 0.85753,-0.93027 5.503913,-5.19417 8.255141,-7.79325 2.75122,-2.59908 4.60102,-3.02827 6.90081,-4.54439 2.29979,-1.51613 12.43305,-4.5522 18.64885,-6.8303 6.2158,-2.27808 20.98774,1.87861 31.48088,2.81593 10.49314,0.93732 14.37995,9.74848 21.56921,14.62074 7.18924,4.87224 3.56536,4.2135 5.34732,6.31824 1.78196,2.10476 0.2782,0.43191 0.41658,0.64587 0.13837,0.21396 -0.81612,5.29007 -1.22491,7.93311 -0.40879,2.64304 -1.11709,1.67743 -1.67637,2.51416 -0.55926,0.83672 -4.95011,4.92291 -7.4259,7.38237 -2.47578,2.45947 -14.85445,7.70738 -22.28241,11.55908 -7.42796,3.85169 -20.53572,-0.44738 -30.80431,-0.67306 -10.26858,-0.22568 -13.70995,-7.13854 -20.56565,-10.70979 -6.855711,-3.57126 -6.589151,-6.82724 -9.884451,-10.24285 -3.29531,-3.41561 -1.25474,-2.03669 -1.88283,-3.05704 -0.62809,-1.02034 -0.27242,-1.4872 -0.40934,-2.2328 z" />
  <path
     style="fill:none;stroke:#ffffff;stroke-width:1.4;stroke-linecap:round;stroke-linejoin:miter;stroke-miterlimit:4;stroke-dasharray:none;stroke-opacity:1"
     d="m 118.62679,198.58062 c 10.0777,-3.29096 21.04501,-3.81121 31.38898,-1.489 1.62291,0.36434 3.23048,0.79703 4.81702,1.29652"
     id="path1581"
     inkscape:path-effect="#path-effect1583"
     inkscape:original-d="m 118.62679,198.58062 c 10.46348,-0.49504 20.92647,-0.99138 31.38898,-1.489 10.46254,-0.49762 3.21182,0.86564 4.81702,1.29652" />
  <path
     style="fill:none;stroke:#ffffff;stroke-width:1.4;stroke-linecap:round;stroke-linejoin:miter;stroke-miterlimit:4;stroke-dasharray:none;stroke-opacity:1"
     d="m 118.94863,196.43807 -0.16221,4.05843"
     id="path1585"
     inkscape:path-effect="#path-effect1587"
     inkscape:original-d="m 118.94863,196.43807 c -0.0536,1.35413 -0.10766,2.70695 -0.16221,4.05843" />
  <path
     style="fill:none;stroke:#ffffff;stroke-width:1.4;stroke-linecap:round;stroke-linejoin:miter;stroke-miterlimit:4;stroke-dasharray:none;stroke-opacity:1"
     d="m 123.99207,195.29287 0.17534,4.14055"
     id="path1589"
     inkscape:path-effect="#path-effect1591"
     inkscape:original-d="m 123.99207,195.29287 c 0.0589,1.38151 0.11738,2.7617 0.17534,4.14055" />
  <path
     style="fill:none;stroke:#ffffff;stroke-width:1.4;stroke-linecap:round;stroke-linejoin:miter;stroke-miterlimit:4;stroke-dasharray:none;stroke-opacity:1"
     d="m 128.79268,194.18485 0.0686,4.69217"
     id="path1593"
     inkscape:path-effect="#path-effect1595"
     inkscape:original-d="m 128.79268,194.18485 c 0.0234,1.56539 0.0463,3.12944 0.0686,4.69217" />
  <path
     style="fill:none;stroke:#ffffff;stroke-width:1.4;stroke-linecap:round;stroke-linejoin:miter;stroke-miterlimit:4;stroke-dasharray:none;stroke-opacity:1"
     d="m 134.20489,193.70005 -0.35523,4.79532"
     id="path1597"
     inkscape:path-effect="#path-effect1599"
     inkscape:original-d="m 134.20489,193.70005 c -0.11793,1.59977 -0.23634,3.19821 -0.35523,4.79532" />
  <path
     style="fill:none;stroke:#ffffff;stroke-width:1.4;stroke-linecap:round;stroke-linejoin:miter;stroke-miterlimit:4;stroke-dasharray:none;stroke-opacity:1"
     d="m 139.2346,193.71351 0.0894,4.88972"
     id="path1601"
     inkscape:path-effect="#path-effect1603"
     inkscape:original-d="m 139.2346,193.71351 c 0.0303,1.63123 0.0601,3.26114 0.0894,4.88972" />
  <path
     style="fill:none;stroke:#ffffff;stroke-width:1.4;stroke-linecap:round;stroke-linejoin:miter;stroke-miterlimit:4;stroke-dasharray:none;stroke-opacity:1"
     d="m 144.82854,194.29051 -0.30574,4.93112"
     id="path1605"
     inkscape:path-effect="#path-effect1607"
     inkscape:original-d="m 144.82854,194.29051 c -0.10142,1.64503 -0.20334,3.28874 -0.30574,4.93112" />
  <path
     style="fill:none;stroke:#ffffff;stroke-width:1.4;stroke-linecap:round;stroke-linejoin:miter;stroke-miterlimit:4;stroke-dasharray:none;stroke-opacity:1"
     d="m 150.20458,195.25455 -0.35733,4.71917"
     id="path1609"
     inkscape:path-effect="#path-effect1611"
     inkscape:original-d="m 150.20458,195.25455 c -0.11863,1.57439 -0.23774,3.14745 -0.35733,4.71917" />
  <path
     style="fill:none;stroke:#ffffff;stroke-width:1.4;stroke-linecap:round;stroke-linejoin:miter;stroke-miterlimit:4;stroke-dasharray:none;stroke-opacity:1"
     d="m 155.02513,196.5235 -0.16397,4.54619"
     id="path1613"
     inkscape:path-effect="#path-effect1615"
     inkscape:original-d="m 155.02513,196.5235 c -0.0542,1.51672 -0.10883,3.03211 -0.16397,4.54619" />
  <path
     style="opacity:0.617886;fill:none;stroke:#cc6c15;stroke-width:1px;stroke-linecap:butt;stroke-linejoin:miter;stroke-opacity:1"
     d="m 89.290859,222.94714 c 15.018361,10.75727 33.657051,16.36253 52.117691,15.6735 15.19936,-0.56731 30.21955,-5.3546 42.94391,-13.68724"
     id="path1748"
     inkscape:path-effect="#path-effect1750"
     inkscape:original-d="m 89.290859,222.94714 c 17.373041,5.22583 34.745611,10.45033 52.117691,15.6735 17.37208,5.22317 28.62976,-9.1235 42.94391,-13.68724" />
</svg>
