<?xml version="1.0" encoding="UTF-8" standalone="no"?>
<svg
   id="Layer_1"
   data-name="Layer 1"
   viewBox="0 0 229.12 229.37734"
   version="1.1"
   sodipodi:docname="WAS.svg"
   width="229.12"
   height="229.37733"
   inkscape:version="1.1.1 (3bf5ae0d25, 2021-09-20)"
   xmlns:inkscape="http://www.inkscape.org/namespaces/inkscape"
   xmlns:sodipodi="http://sodipodi.sourceforge.net/DTD/sodipodi-0.dtd"
   xmlns="http://www.w3.org/2000/svg"
   xmlns:svg="http://www.w3.org/2000/svg"
   xmlns:rdf="http://www.w3.org/1999/02/22-rdf-syntax-ns#"
   xmlns:cc="http://creativecommons.org/ns#"
   xmlns:dc="http://purl.org/dc/elements/1.1/">
  <metadata
     id="metadata293">
    <rdf:RDF>
      <cc:Work
         rdf:about="">
        <dc:format>image/svg+xml</dc:format>
        <dc:type
           rdf:resource="http://purl.org/dc/dcmitype/StillImage" />
      </cc:Work>
    </rdf:RDF>
  </metadata>
  <sodipodi:namedview
     pagecolor="#787878"
     bordercolor="#666666"
     borderopacity="1"
     objecttolerance="10"
     gridtolerance="10"
     guidetolerance="10"
     inkscape:pageopacity="0"
     inkscape:pageshadow="2"
     inkscape:window-width="1920"
     inkscape:window-height="1017"
     id="namedview291"
     showgrid="false"
     inkscape:zoom="1.2586667"
     inkscape:cx="-29.793433"
     inkscape:cy="106.06462"
     inkscape:window-x="-8"
     inkscape:window-y="-8"
     inkscape:window-maximized="1"
     inkscape:current-layer="Layer_1"
     inkscape:pagecheckerboard="0"
     showguides="true"
     inkscape:guide-bbox="true"
     fit-margin-top="0"
     fit-margin-left="0"
     fit-margin-right="0"
     fit-margin-bottom="0">
    <inkscape:grid
       type="xygrid"
       id="grid1616"
       originx="-78.000019"
       originy="-66.614153" />
    <sodipodi:guide
       position="137.70444,97.567227"
       orientation="0,-1"
       id="guide1618" />
    <sodipodi:guide
       position="113.0752,127.95653"
       orientation="0,-1"
       id="guide1620" />
    <sodipodi:guide
       position="55.706086,127.95653"
       orientation="1,0"
       id="guide1622" />
    <sodipodi:guide
       position="159.35641,113.40963"
       orientation="1,0"
       id="guide1624" />
  </sodipodi:namedview>
  <defs
     id="defs4">
    <style
       id="style2">.cls-1,.cls-8,.cls-9{fill:#223266;}.cls-2{fill:#c6af6f;}.cls-3,.cls-6,.cls-7{fill:#fff;}.cls-3{stroke:#231f20;}.cls-10,.cls-11,.cls-12,.cls-13,.cls-3,.cls-7,.cls-8,.cls-9{stroke-miterlimit:10;}.cls-4{fill:#dd3636;}.cls-5{fill:#9e813b;}.cls-10,.cls-12,.cls-7{stroke:#fff;}.cls-7{stroke-width:1.58px;}.cls-8,.cls-9{stroke:#223266;}.cls-8{stroke-width:0.53px;}.cls-9{stroke-width:0.53px;}.cls-10,.cls-11,.cls-12,.cls-13{fill:none;}.cls-10,.cls-11{stroke-width:4.6px;}.cls-11,.cls-13{stroke:#9e813b;}.cls-12,.cls-13{stroke-width:5.38px;}</style>
  </defs>
  <polygon
     class="cls-2"
     points=""
     id="polygon124"
     style="fill:#c6af6f"
     transform="translate(-164.51002,-357.86999)" />
  <circle
     class="cls-1"
     cx="114.56"
     cy="114.56"
     r="114.56"
     id="circle128"
     style="fill:#223266" />
  <path
     class="cls-6"
     d="m 92.989985,227.61001 a 115.63,115.63 0 0 0 40.999995,-0.13 l -11.33,-178.490001 -9,-12.49 -8,13 z"
     id="path130"
     inkscape:connector-curvature="0"
     style="fill:#ffffff" />
  <line
     class="cls-6"
     x1="143.28998"
     y1="126.98001"
     x2="139.50998"
     y2="19.880005"
     id="line132"
     style="fill:#ffffff" />
  <path
     class="cls-7"
     d="m 76.129985,132.40001 -10.19,37.79 h -4.56 l -9.48,-34.77 -9.48,34.77 h -4.68 l -10.18,-37.79 h -5.39 v -3.67 h 15.46 v 3.67 h -5.57 l 7.94,32.34 9.83,-36 h 4.14 l 9.84,36 7.93,-32.34 h -5.57 v -3.67 h 15.32 v 3.67 z"
     id="path134"
     inkscape:connector-curvature="0"
     style="fill:#ffffff;stroke:#ffffff;stroke-width:1.58px;stroke-miterlimit:10" />
  <path
     class="cls-7"
     d="m 193.22998,99.930009 h 5.92 v 3.670001 h -16.66 v -3.670001 h 6.64 v -31.45 l -13.15,29.73 h -3.89 l -13.15,-29.73 v 31.45 h 6.63 v 3.670001 h -16.58 v -3.670001 h 5.92 v -34.12 h -5.92 v -3.68 h 11.25 l 13.8,30.92 13.86,-30.92 h 11.25 v 3.67 h -5.92 z"
     id="path136"
     inkscape:connector-curvature="0"
     style="fill:#ffffff;stroke:#ffffff;stroke-width:1.58px;stroke-miterlimit:10" />
  <path
     class="cls-6"
     d="m 185.54998,164.96001 -0.76,-0.56 q -2.7,-2 -5.43,-4 a 0.65,0.65 0 0 1 -0.28,-0.88 c 0.75,-2.27 1.48,-4.56 2.21,-6.84 l 0.12,-0.41 c -0.17,0 -0.25,0.09 -0.34,0.15 -2,1.45 -4,2.89 -6,4.35 a 0.47,0.47 0 0 1 -0.66,0 l -6,-4.29 -0.48,-0.34 c 0.2,0.62 0.36,1.14 0.52,1.65 0.63,1.94 1.25,3.89 1.89,5.82 a 0.53,0.53 0 0 1 -0.23,0.71 c -2,1.45 -4,2.91 -5.94,4.37 -0.11,0.08 -0.26,0.12 -0.32,0.34 h 2.32 c 1.84,0 3.69,0 5.53,0 a 0.47,0.47 0 0 1 0.54,0.39 q 1.13,3.51 2.27,7 c 0.05,0.14 0.05,0.31 0.24,0.44 0.38,-1.17 0.76,-2.32 1.13,-3.47 0.44,-1.33 0.88,-2.66 1.29,-4 0.09,-0.31 0.25,-0.38 0.54,-0.38 h 7.43 c 0.11,0.04 0.26,0.12 0.41,-0.05 z"
     id="path234"
     inkscape:connector-curvature="0"
     style="fill:#ffffff" />
  <path
     class="cls-6"
     d="m 202.89998,131.95001 -0.76,0.56 q -2.72,2 -5.44,4 a 0.65,0.65 0 0 0 -0.28,0.88 c 0.76,2.27 1.48,4.56 2.21,6.84 0,0.13 0.08,0.27 0.13,0.41 -0.18,0 -0.26,-0.08 -0.35,-0.15 -2,-1.45 -4,-2.89 -6,-4.35 a 0.47,0.47 0 0 0 -0.66,0 c -2,1.44 -4,2.86 -6,4.29 l -0.47,0.34 0.51,-1.65 c 0.63,-1.94 1.25,-3.88 1.89,-5.82 a 0.53,0.53 0 0 0 -0.22,-0.71 q -3,-2.18 -5.95,-4.37 c -0.11,-0.08 -0.26,-0.12 -0.32,-0.34 h 2.3 c 1.84,0 3.69,0 5.53,0 a 0.46,0.46 0 0 0 0.54,-0.39 c 0.75,-2.34 1.51,-4.67 2.27,-7 0.05,-0.14 0.05,-0.31 0.24,-0.43 0.38,1.16 0.76,2.31 1.13,3.46 0.44,1.33 0.88,2.66 1.29,4 a 0.47,0.47 0 0 0 0.55,0.38 h 7.42 a 0.53,0.53 0 0 1 0.44,0.05 z"
     id="path236"
     inkscape:connector-curvature="0"
     style="fill:#ffffff" />
  <path
     class="cls-6"
     d="m 169.89998,131.95001 -0.76,0.56 q -2.72,2 -5.44,4 a 0.65,0.65 0 0 0 -0.28,0.88 c 0.76,2.27 1.48,4.56 2.21,6.84 0,0.13 0.08,0.27 0.13,0.41 -0.18,0 -0.26,-0.08 -0.35,-0.15 -2,-1.45 -4,-2.89 -6,-4.35 a 0.47,0.47 0 0 0 -0.66,0 c -2,1.44 -4,2.86 -6,4.29 l -0.47,0.34 0.51,-1.65 c 0.63,-1.94 1.25,-3.88 1.89,-5.82 a 0.53,0.53 0 0 0 -0.22,-0.71 q -3,-2.18 -5.95,-4.37 c -0.11,-0.08 -0.26,-0.12 -0.32,-0.34 h 2.3 c 1.84,0 3.69,0 5.53,0 a 0.46,0.46 0 0 0 0.54,-0.39 c 0.75,-2.34 1.51,-4.67 2.27,-7 0.05,-0.14 0.05,-0.31 0.24,-0.43 0.38,1.16 0.76,2.31 1.13,3.46 0.44,1.33 0.88,2.66 1.29,4 a 0.47,0.47 0 0 0 0.55,0.38 h 7.42 a 0.53,0.53 0 0 1 0.44,0.05 z"
     id="path238"
     inkscape:connector-curvature="0"
     style="fill:#ffffff" />
  <path
     class="cls-6"
     d="m 63.183035,68.288339 -0.76,0.56 q -2.7,2 -5.43,4 a 0.65,0.65 0 0 0 -0.28,0.88 c 0.75,2.27 1.48,4.56 2.21,6.84 l 0.12,0.41 c -0.17,0 -0.25,-0.09 -0.34,-0.15 -2,-1.45 -4,-2.89 -6,-4.35 a 0.47,0.47 0 0 0 -0.66,0 l -6,4.29 -0.48,0.34 c 0.2,-0.62 0.36,-1.14 0.52,-1.65 0.63,-1.94 1.25,-3.89 1.89,-5.82 a 0.53,0.53 0 0 0 -0.23,-0.71 c -2,-1.45 -4,-2.91 -5.94,-4.37 -0.11,-0.08 -0.26,-0.12 -0.32,-0.34 h 2.32 c 1.84,0 3.69,0 5.53,0 a 0.47,0.47 0 0 0 0.54,-0.39 q 1.13,-3.51 2.27,-7 c 0.05,-0.14 0.05,-0.31 0.24,-0.44 0.38,1.17 0.76,2.32 1.13,3.47 0.44,1.33 0.88,2.66 1.29,4 0.09,0.31 0.25,0.38 0.54,0.38 h 7.43 c 0.11,-0.04 0.26,-0.12 0.41,0.05 z"
     id="path234-8"
     inkscape:connector-curvature="0"
     style="fill:#ffffff" />
  <path
     class="cls-6"
     d="m 80.533035,101.29834 -0.76,-0.56 q -2.72,-2.000001 -5.44,-4.000001 a 0.65,0.65 0 0 1 -0.28,-0.88 c 0.76,-2.27 1.48,-4.56 2.21,-6.84 0,-0.13 0.08,-0.27 0.13,-0.41 -0.18,0 -0.26,0.08 -0.35,0.15 -2,1.45 -4,2.89 -6,4.35 a 0.47,0.47 0 0 1 -0.66,0 c -2,-1.44 -4,-2.86 -6,-4.29 l -0.47,-0.34 0.51,1.65 c 0.63,1.94 1.25,3.88 1.89,5.82 a 0.53,0.53 0 0 1 -0.22,0.71 q -3,2.18 -5.95,4.370001 c -0.11,0.08 -0.26,0.12 -0.32,0.34 h 2.3 c 1.84,0 3.69,0 5.53,0 a 0.46,0.46 0 0 1 0.54,0.39 c 0.75,2.34 1.51,4.67 2.27,7 0.05,0.14 0.05,0.31 0.24,0.43 0.38,-1.16 0.76,-2.31 1.13,-3.46 0.44,-1.33 0.88,-2.66 1.29,-4 a 0.47,0.47 0 0 1 0.55,-0.38 h 7.42 a 0.53,0.53 0 0 0 0.44,-0.05 z"
     id="path236-1"
     inkscape:connector-curvature="0"
     style="fill:#ffffff" />
  <path
     class="cls-6"
     d="m 47.533035,101.29834 -0.76,-0.56 q -2.72,-2.000001 -5.44,-4.000001 a 0.65,0.65 0 0 1 -0.28,-0.88 c 0.76,-2.27 1.48,-4.56 2.21,-6.84 0,-0.13 0.08,-0.27 0.13,-0.41 -0.18,0 -0.26,0.08 -0.35,0.15 -2,1.45 -4,2.89 -6,4.35 a 0.47,0.47 0 0 1 -0.66,0 c -2,-1.44 -4,-2.86 -6,-4.29 l -0.47,-0.34 0.51,1.65 c 0.63,1.94 1.25,3.88 1.89,5.82 a 0.53,0.53 0 0 1 -0.22,0.71 q -3,2.18 -5.95,4.370001 c -0.11,0.08 -0.26,0.12 -0.32,0.34 h 2.3 c 1.84,0 3.69,0 5.53,0 a 0.46,0.46 0 0 1 0.54,0.39 c 0.75,2.34 1.51,4.67 2.27,7 0.05,0.14 0.05,0.31 0.24,0.43 0.38,-1.16 0.76,-2.31 1.13,-3.46 0.44,-1.33 0.88,-2.66 1.29,-4 a 0.47,0.47 0 0 1 0.55,-0.38 h 7.42 a 0.53,0.53 0 0 0 0.44,-0.05 z"
     id="path238-3"
     inkscape:connector-curvature="0"
     style="fill:#ffffff" />
</svg>
