<?xml version="1.0" encoding="UTF-8" standalone="no"?>
<svg
   id="Layer_1"
   data-name="Layer 1"
   version="1.1"
   width="292.2"
   height="300.284"
   sodipodi:docname="ATL.svg"
   inkscape:version="1.1.1 (3bf5ae0d25, 2021-09-20)"
   xmlns:inkscape="http://www.inkscape.org/namespaces/inkscape"
   xmlns:sodipodi="http://sodipodi.sourceforge.net/DTD/sodipodi-0.dtd"
   xmlns="http://www.w3.org/2000/svg"
   xmlns:svg="http://www.w3.org/2000/svg">
  <sodipodi:namedview
     id="namedview61"
     pagecolor="#ffffff"
     bordercolor="#666666"
     borderopacity="1.0"
     inkscape:pageshadow="2"
     inkscape:pageopacity="0.0"
     inkscape:pagecheckerboard="0"
     showgrid="false"
     inkscape:zoom="1.7543211"
     inkscape:cx="187.30412"
     inkscape:cy="169.46611"
     inkscape:window-width="1920"
     inkscape:window-height="1017"
     inkscape:window-x="-8"
     inkscape:window-y="-8"
     inkscape:window-maximized="1"
     inkscape:current-layer="Layer_1" />
  <defs
     id="defs4">
    <inkscape:path-effect
       effect="spiro"
       id="path-effect2354"
       is_visible="true"
       lpeversion="1" />
    <inkscape:path-effect
       effect="spiro"
       id="path-effect2348"
       is_visible="true"
       lpeversion="1" />
    <inkscape:path-effect
       effect="spiro"
       id="path-effect2342"
       is_visible="true"
       lpeversion="1" />
    <inkscape:path-effect
       effect="spiro"
       id="path-effect2256"
       is_visible="true"
       lpeversion="1" />
    <inkscape:path-effect
       effect="spiro"
       id="path-effect2250"
       is_visible="true"
       lpeversion="1" />
    <inkscape:path-effect
       effect="spiro"
       id="path-effect2244"
       is_visible="true"
       lpeversion="1" />
    <inkscape:path-effect
       effect="spiro"
       id="path-effect2238"
       is_visible="true"
       lpeversion="1" />
    <inkscape:path-effect
       effect="spiro"
       id="path-effect2152"
       is_visible="true"
       lpeversion="1" />
    <style
       id="style2">.cls-1{fill:#f15d24}.cls-2{fill:#5e4c9b}.cls-3{fill:#f2ea1e}.cls-4{fill:#231f20}.cls-5{fill:#d08f2a}.cls-6{fill:#f6dd93}.cls-7{fill:#fff}</style>
    <clipPath
       clipPathUnits="userSpaceOnUse"
       id="clipPath1847">
      <path
         id="path1849"
         style="fill:#ff0000;fill-opacity:1;fill-rule:nonzero;stroke:none"
         d="m -122.01562,154.2168 c 0.98796,0.80746 1.98711,1.60112 2.9707,2.41406 l -19.55664,23.6582 c 0.10179,0.0632 0.20495,0.12423 0.30664,0.1875 0.91507,0.56781 1.82109,1.14754 2.72656,1.73047 0.95951,0.61838 1.90483,1.26109 2.84375,1.91016 0.92084,0.63736 1.82903,1.29193 2.72852,1.95898 0.99144,0.73961 1.94814,1.52438 2.89453,2.32031 0.78679,0.66888 1.56268,1.34903 2.33789,2.03125 0.69542,0.61671 1.38769,1.23584 2.08398,1.85157 0.56734,0.50137 1.14873,0.98706 1.73438,1.46679 0.61312,0.49844 1.23803,0.98046 1.86523,1.46094 0.67566,0.51514 1.35887,1.02346 2.04297,1.52735 0.67484,0.49503 1.35594,0.9813 2.03906,1.46484 0.6109,0.43311 1.23,0.85392 1.85547,1.26562 0.57589,0.37726 1.16335,0.73426 1.75391,1.08789 0.61199,0.36208 1.23133,0.71244 1.85351,1.05665 0.4737,0.26295 0.95888,0.5044 1.44922,0.73437 0.27833,0.11628 0.31554,0.10966 0.4961,0.16406 0.38898,0.10029 0.7817,0.18925 1.17382,0.27735 0.363,0.0823 0.72928,0.13995 1.09766,0.18945 -0.18666,-0.01 0.29137,-0.007 0.41602,-0.006 0.17978,-0.01 0.24613,-0.0254 0.41015,-0.0449 -0.14087,0.0166 0.11032,-0.0396 0.2793,-0.0801 0.28653,-0.0841 0.57341,-0.17252 0.85937,-0.26172 0.48415,-0.15477 0.96743,-0.31856 1.44922,-0.48047 l 9.078128,27.01758 c -0.685092,0.2302 -1.371104,0.45886 -2.060547,0.67578 -0.936388,0.29081 -1.87595,0.57131 -2.830078,0.79883 -1.214146,0.28187 -2.437643,0.52547 -3.677733,0.66211 -1.27792,0.13632 -2.56154,0.22689 -3.84766,0.21289 -1.33826,-0.0187 -2.67671,-0.0831 -4.0039,-0.26563 -1.15399,-0.16274 -2.30236,-0.35816 -3.43946,-0.61523 -1.16156,-0.26265 -2.32071,-0.54241 -3.45898,-0.89453 -1.39911,-0.44512 -2.77838,-0.94889 -4.10742,-1.57617 -1.04392,-0.49435 -2.07764,-1.01377 -3.08789,-1.57422 -0.90726,-0.50254 -1.80992,-1.01245 -2.70118,-1.54297 -0.93888,-0.56308 -1.87031,-1.13666 -2.78515,-1.73828 -0.88951,-0.58676 -1.77127,-1.18443 -2.64063,-1.80078 -0.82912,-0.5871 -1.65575,-1.17988 -2.47461,-1.78125 -0.82872,-0.61057 -1.65449,-1.22493 -2.47265,-1.84961 -0.87571,-0.67116 -1.74892,-1.34497 -2.60352,-2.04297 -0.85918,-0.705 -1.71031,-1.42194 -2.54297,-2.1582 -0.67924,-0.6007 -1.35532,-1.20246 -2.0332,-1.80469 -0.61844,-0.54431 -1.23738,-1.08926 -1.86328,-1.625 -0.0616,-0.0519 -0.12583,-0.10056 -0.1875,-0.15234 0.0463,0.12713 0.0945,0.25367 0.14062,0.38085 0.32281,0.89351 0.63483,1.79094 0.94336,2.68946 0.31472,0.91716 0.61488,1.83815 0.91016,2.76172 0.2991,0.93448 0.585,1.87301 0.86133,2.81445 0.27955,0.95034 0.5448,1.90583 0.79883,2.86328 0.28235,1.06149 0.52654,2.13106 0.75585,3.20508 0.23359,1.10028 0.42605,2.20919 0.59961,3.32031 0.1531,1.00682 0.28022,2.01812 0.40039,3.0293 0.12288,1.00573 0.21773,2.0136 0.29883,3.02344 0.10121,1.24113 0.12268,2.48592 0.10938,3.73046 -0.0161,1.46291 -0.15926,2.91811 -0.37891,4.36329 -0.32506,2.11959 -1.04458,4.1342 -1.95508,6.0664 -0.51761,1.05684 -1.12264,2.06701 -1.73242,3.07227 -0.26212,0.43074 -0.52603,0.86009 -0.79101,1.28906 l -5.66602,-3.5 c -0.0179,0.0402 -0.0348,0.0809 -0.0527,0.12109 -0.28818,0.64902 -0.60266,1.28479 -0.92383,1.91797 -0.40237,0.79782 -0.85281,1.56916 -1.32031,2.33008 -0.37987,0.6063 -0.78222,1.19823 -1.18555,1.78906 -0.054,0.0788 -0.10801,0.15753 -0.16211,0.23633 l -23.49609,-16.13086 c 0.0422,-0.0615 0.0847,-0.12209 0.12695,-0.18359 0.17694,-0.25857 0.35191,-0.5171 0.52344,-0.7793 -0.0862,0.15741 0.10121,-0.15667 0.13672,-0.23437 0.10426,-0.18831 0.19075,-0.38398 0.28124,-0.57618 0.0825,-0.18342 0.16375,-0.36313 0.21485,-0.49023 0.0162,-0.0402 0.0224,-0.0533 0.0234,-0.0527 -9.9e-4,0.002 -0.007,0.0256 0.0176,-0.0488 0.0752,-0.22856 0.12626,-0.46441 0.19336,-0.69531 0.086,-0.3216 0.17061,-0.64449 0.25391,-0.9668 0.10273,-0.39644 0.20679,-0.79185 0.3125,-1.1875 0.0952,-0.35603 0.19046,-0.7122 0.28516,-1.06836 0.0936,-0.35074 0.18635,-0.70234 0.28125,-1.05274 0.0861,-0.32171 0.17236,-0.6435 0.25976,-0.96484 0.13859,-0.51236 0.28125,-1.02432 0.45117,-1.52734 0.12841,-0.36521 0.26024,-0.72624 0.40235,-1.08594 h -0.002 c 0.004,-0.0106 0.0179,-0.0419 0.0137,-0.0312 -0.004,0.0104 -0.008,0.0209 -0.0117,0.0312 l 4.52344,1.79102 c -0.10552,-0.48148 -0.21079,-0.96275 -0.3379,-1.43946 -0.18954,-0.71648 -0.38852,-1.43154 -0.59765,-2.14258 -0.21163,-0.72226 -0.43069,-1.44138 -0.66016,-2.1582 -0.23332,-0.73033 -0.47001,-1.4603 -0.71875,-2.18555 -0.18206,-0.53038 -0.3697,-1.05905 -0.55664,-1.58789 L -191.67969,244.5 c -1.5635,-1.29261 -3.12718,-2.58322 -4.71679,-3.84375 -1.46268,-1.15295 -2.9292,-2.30062 -4.42969,-3.4043 -1.69035,-1.24244 -3.38875,-2.47345 -5.10938,-3.67383 -1.78145,-1.25144 -3.5684,-2.49725 -5.36523,-3.72656 -1.93125,-1.31527 -3.86017,-2.63533 -5.79102,-3.95117 -1.86706,-1.25963 -3.73564,-2.51399 -5.61328,-3.75781 -1.83014,-1.21307 -3.65486,-2.43461 -5.49609,-3.63086 -0.0909,-0.059 -0.18254,-0.1168 -0.27344,-0.17578 v 77.47851 H -40.929688 V 154.2168 Z" />
    </clipPath>
    <clipPath
       clipPathUnits="userSpaceOnUse"
       id="clipPath1953">
      <path
         id="path1955"
         style="fill:#ff0000;fill-opacity:1;fill-rule:nonzero;stroke:none"
         d="m -201.89844,157.58203 c 1.02688,1.06093 2.02909,2.14575 3.01563,3.24414 1.00544,1.12395 1.98957,2.2665 2.96093,3.41992 1.00652,1.19084 1.97411,2.41301 2.91993,3.65235 0.9386,1.23142 1.8266,2.49995 2.69531,3.78125 0.79222,1.1704 1.54729,2.36527 2.29492,3.56445 0.66023,1.06052 1.30851,2.12839 1.95508,3.19727 0.56167,0.91914 1.10233,1.85106 1.67773,2.76171 0.36313,0.57386 0.746,1.13951 1.17579,1.66602 0.40962,0.51659 0.85973,0.99777 1.31445,1.47461 1.32613,0.48693 2.63941,1.00751 3.93945,1.56055 1.49828,0.64127 2.97223,1.33791 4.4375,2.05078 1.32014,0.64531 2.62952,1.31302 3.93555,1.98633 1.22704,0.63491 2.45238,1.27449 3.67187,1.92382 0.13185,0.0691 0.25546,0.15252 0.38672,0.22266 -0.35127,-0.70073 -0.69398,-1.40631 -1.01562,-2.12109 -0.56714,-1.26951 -1.11328,-2.54929 -1.60157,-3.85157 -0.43589,-1.16099 -0.85823,-2.32595 -1.25781,-3.5 -0.3708,-1.09025 -0.73637,-2.18261 -1.09375,-3.27734 -0.33809,-1.03833 -0.67847,-2.07529 -1.01758,-3.11328 -0.32781,-1.00321 -0.65681,-2.00581 -0.99414,-3.00586 -0.31791,-0.93545 -0.63967,-1.87071 -0.97851,-2.79883 -0.35003,-0.95706 -0.70471,-1.91177 -1.06446,-2.86523 -0.35131,-0.92556 -0.70461,-1.85074 -1.06836,-2.77149 -0.32797,-0.82353 -0.66232,-1.64314 -1.01367,-2.45703 -0.32906,-0.75967 -0.66219,-1.52005 -1.00976,-2.27148 -0.2992,-0.64012 -0.60207,-1.27708 -0.92383,-1.90625 -0.0971,-0.18969 -0.19837,-0.37735 -0.29688,-0.56641 z m 54.05664,0 c 0.38225,1.01417 0.75853,2.03103 1.13086,3.04883 0.41399,1.13303 0.80894,2.27204 1.19727,3.41406 0.37389,1.10667 0.73678,2.2178 1.09961,3.32813 0.34223,1.0474 0.68617,2.09287 1.02734,3.14062 0.31894,0.97651 0.64571,1.9513 0.97656,2.92383 0.30322,0.89023 0.62401,1.77411 0.95508,2.6543 0.28399,0.75714 0.60874,1.49876 0.93946,2.23632 0.33975,0.74512 0.71531,1.47236 1.0957,2.19727 0.44643,0.82807 0.91354,1.64455 1.38086,2.46094 0.50186,0.88067 1.01386,1.75454 1.5332,2.625 0.44283,0.74732 0.91893,1.47451 1.40039,2.19726 0.50921,0.75751 1.03893,1.50052 1.57617,2.23829 0.56753,0.77315 1.15183,1.53371 1.74024,2.29101 0.62202,0.79664 1.25272,1.58594 1.88672,2.37305 0.55981,0.69784 1.13531,1.38386 1.72265,2.05859 0.29481,0.34173 0.62316,0.64897 0.95313,0.95508 -0.017,-0.0116 -0.007,-0.005 0.0937,0.0488 -0.0155,-0.0122 -0.0652,-0.0441 -0.0469,-0.0371 0.39646,0.15448 0.78342,0.35316 1.17578,0.51953 0.67456,0.28139 1.35546,0.54371 2.04102,0.79687 0.34491,0.12675 0.70184,0.20712 1.05859,0.29102 0.27955,0.0617 0.56222,0.0864 0.84571,0.11523 0.26512,-0.004 0.0443,-0.009 0.37695,-0.0273 0.44298,-0.0523 0.89113,-0.105 1.33594,-0.1582 0.72973,-0.0917 1.45881,-0.18956 2.1875,-0.28906 0.79845,-0.11131 1.59455,-0.2276 2.39258,-0.3418 1.15505,-0.16555 2.31896,-0.27157 3.48242,-0.35547 0.94342,-0.0633 1.88753,-0.10864 2.83203,-0.15234 0.84818,-0.0388 1.69653,-0.0756 2.54492,-0.10938 0.92738,-0.0402 1.85515,-0.0682 2.7832,-0.0859 1.00141,-0.019 2.00247,-0.0134 3.00391,-0.002 0.89945,0.0117 1.79791,0.0337 2.697265,0.0508 0.385917,0.002 0.182254,10e-4 0.617187,0.002 l -0.07812,28.5 c -0.693712,-0.002 -0.333917,0.001 -1.080079,-0.006 -0.828205,-0.0157 -1.656103,-0.0354 -2.484383,-0.0469 -0.71311,-0.009 -1.42557,-0.0147 -2.13867,-0.002 -0.72873,0.0135 -1.45736,0.0344 -2.18554,0.0664 -0.78813,0.0314 -1.57731,0.0656 -2.36524,0.10157 -0.70763,0.0327 -1.41411,0.0664 -2.12109,0.11132 -0.49097,0.0343 -0.98307,0.0718 -1.47071,0.14063 -0.85831,0.1228 -1.71535,0.24829 -2.57421,0.36719 -0.8868,0.12107 -1.77384,0.2398 -2.66211,0.34961 -1.16163,0.1387 -2.32488,0.27613 -3.49414,0.33203 -1.56192,0.0624 -3.12557,0.0552 -4.68164,-0.11328 -1.48875,-0.16568 -2.9717,-0.38689 -4.42969,-0.73633 -1.44898,-0.3518 -2.88591,-0.7547 -4.28516,-1.27344 -1.11148,-0.41206 -2.21617,-0.84027 -3.30859,-1.30078 -0.36219,-0.15448 -0.71998,-0.32069 -1.08008,-0.48047 0.0339,0.17399 0.0683,0.34792 0.10352,0.52148 0.0425,0.19776 0.0817,0.39465 0.12695,0.5918 0.0597,0.25527 0.12209,0.51079 0.18359,0.76563 0.10683,0.44886 0.20764,0.89895 0.30664,1.34961 0.0754,0.33757 0.15522,0.67456 0.23242,1.01171 0.0721,0.31396 0.14781,0.62662 0.22461,0.93946 0.0672,0.273 0.13714,0.54512 0.21094,0.8164 0.052,0.18603 0.10877,0.37092 0.16797,0.55469 0.087,0.25802 0.17532,0.51461 0.26562,0.77149 0.0718,0.20197 0.14872,0.40265 0.22852,0.60156 0.0639,0.15546 0.13253,0.30871 0.20313,0.46094 0.11066,0.24223 0.14058,0.29213 0.27539,0.55468 0.0573,0.10886 0.12175,0.21399 0.18359,0.32032 0.0117,0.012 0.0212,0.0239 0.0566,0.0644 0.005,0.006 0.0338,0.0361 0.0645,0.0684 0.0197,0.0198 0.0348,0.0299 0.0547,0.0508 -0.0904,-0.0854 0.006,0.005 0.043,0.0527 0.002,0.002 -0.0512,-0.0546 -0.0977,-0.10351 -0.035,-0.0351 -0.064,-0.0582 -0.0977,-0.0899 l -0.002,-0.002 c -0.088,-0.0827 -0.18118,-0.17492 -0.2539,-0.23633 -0.49683,-0.39048 -1.04882,-0.70004 -1.61524,-0.97656 l -11.81445,25.9375 c -1.30106,-0.60813 -2.55566,-1.31057 -3.70117,-2.18164 -0.85072,-0.64453 -1.67511,-1.32397 -2.4375,-2.07227 -0.59943,-0.59223 -1.18329,-1.20228 -1.73242,-1.84179 -0.57891,-0.67389 -1.14121,-1.36146 -1.65625,-2.08594 -0.49609,-0.70412 -0.96893,-1.42407 -1.40039,-2.16992 -0.27805,-0.48072 -0.54777,-0.96583 -0.80664,-1.45703 l -14.35547,-3.08789 c 0.0549,-0.25543 0.11021,-0.51234 0.16601,-0.76758 0.0612,-0.28345 0.12562,-0.56483 0.16992,-0.85156 0.0521,-0.31509 0.0985,-0.63189 0.13477,-0.94922 0.0266,-0.20959 0.0484,-0.41388 0.0586,-0.61524 0.0173,-0.55698 0.002,-1.11453 0.0156,-1.67187 0.0614,-1.80362 0.24105,-3.60673 0.73633,-5.34961 0.39685,-1.34124 0.83734,-2.66776 1.42578,-3.93945 0.0738,-0.16944 0.15064,-0.34338 0.23437,-0.53516 -0.0214,-0.48496 -0.051,-0.96975 -0.0957,-1.45313 -0.0464,-0.5124 -0.10413,-1.02396 -0.17773,-1.5332 -0.0355,-0.27259 -0.0649,-0.45969 -0.10938,-0.63867 0.0863,0.20265 -0.1008,-0.36614 -0.1875,-0.52734 -0.16996,-0.47648 -0.4788,-0.89758 -0.70312,-1.34766 -0.36918,-0.64667 -0.76954,-1.27598 -1.17188,-1.90234 -0.35069,-0.53855 -0.70749,-1.0755 -1.0957,-1.5879 -0.2152,-0.29589 -0.3989,-0.51926 -0.55469,-0.6875 0.21004,0.14927 -0.0129,-0.005 -0.0606,-0.0703 -0.0214,-0.0297 0.12135,0.0807 0.0937,0.0566 -0.18113,-0.15834 -0.34387,-0.26011 -0.54882,-0.39648 -0.75182,-0.50281 -1.56609,-0.90515 -2.35547,-1.34375 -0.008,-0.005 -0.0169,-0.009 -0.0254,-0.0137 l -5.7793,4.87695 c -0.11442,-0.1356 -0.22932,-0.27064 -0.34375,-0.40625 -0.6783,-0.80148 -1.36048,-1.59918 -2.05274,-2.38867 -0.673,-0.76975 -1.34536,-1.54185 -2.03711,-2.29492 -0.68513,-0.74405 -1.38699,-1.47168 -2.09765,-2.19141 -0.75628,-0.76576 -1.51987,-1.52466 -2.29492,-2.27149 -0.83713,-0.80904 -1.67842,-1.61325 -2.52344,-2.41406 -0.20579,-0.19528 -0.41126,-0.39083 -0.61719,-0.58594 -0.95565,-0.29469 -1.91152,-0.5889 -2.86719,-0.88281 -1.44517,-0.44664 -2.88777,-0.89885 -4.32226,-1.3789 -1.40749,-0.47057 -2.81306,-0.95344 -4.20703,-1.46289 -1.31798,-0.48208 -2.63121,-0.97645 -3.93946,-1.48438 -0.3521,-0.13627 -0.7029,-0.27537 -1.05468,-0.41211 v 88.36524 H -55.59375 V 157.58203 Z m 20.6211,40.15039 c 0.0534,0.0495 0.10048,0.10522 0.15429,0.1543 -0.04,-0.0533 0.008,-0.0138 0.0547,0.0254 -0.0444,-0.035 -0.0886,-0.07 -0.1289,-0.10938 -0.0216,-0.0211 0.10132,0.0642 0.0781,0.0449 -0.0662,-0.0551 -0.12611,-0.0939 -0.1582,-0.11524 z m -17.36914,22.59375 c 0.0422,0.24327 0.0936,0.4848 0.13281,0.72852 0.0532,0.34293 0.0803,0.68916 0.125,1.0332 l 2.01758,-0.20117 c -0.78216,-0.48641 -1.54169,-1.00563 -2.27539,-1.56055 z m -27.73828,8.6875 c -0.002,0.0192 -0.008,0.0373 -0.01,0.0566 -0.001,0.0163 0.007,-0.0327 0.01,-0.0488 -5.3e-4,0.014 4.5e-4,-0.0202 0,-0.008 z m 36.82617,4.29688 c 0.0117,0.0169 0.007,0.0124 0.0254,0.0391 0.2286,0.36388 -0.0167,-0.0265 0.0195,0.041 -0.0154,-0.0265 -0.0295,-0.0536 -0.0449,-0.0801 z" />
    </clipPath>
  </defs>
  <g
     id="SlHar6"
     transform="translate(-104.42 -286.276)">
    <path
       class="cls-1"
       d="M150.51 369.93a31.64 31.64 0 0 1-3.84-2.66c-1.6-1.15-1.59-1.18-3.19 0-1.29.91-2.57 1.85-3.89 2.81-.17-.33 0-.57.08-.8.53-1.65 1.06-3.3 1.63-4.94a.88.88 0 0 0-.37-1.17c-1.48-1-2.92-2.13-4.38-3.2-.13-.1-.25-.22-.53-.47h2.33c1.32 0 2.65 0 4-.07a.7.7 0 0 0 .75-.59c.61-2 1.26-3.89 2-6 .55 1.66 1.07 3.13 1.52 4.62.61 2 .59 2.05 2.75 2.05h4.84l-2.44 1.79c-.89.66-1.76 1.33-2.66 2a.72.72 0 0 0-.3 1c.57 1.67 1.1 3.34 1.63 5 .07.23.11.47.16.71z"
       id="path6"
       style="fill:#f15d24" />
    <path
       class="cls-1"
       d="m150.53 369.91.06.08-.08-.06z"
       id="path8"
       style="fill:#f15d24" />
  </g>
  <circle
     class="cls-4"
     cx="-117.008"
     cy="177.274"
     r="142.45"
     transform="rotate(-76.72)"
     id="circle179"
     style="fill:#231f20" />
  <path
     class="cls-6"
     d="M145.66 300.284C65.34 300.284 0 234.944 0 154.624S65.34 8.964 145.66 8.964s145.66 65.34 145.66 145.66-65.35 145.66-145.66 145.66zm0-284.91c-76.79 0-139.25 62.47-139.25 139.25s62.46 139.25 139.25 139.25c76.79 0 139.25-62.47 139.25-139.25s-62.47-139.25-139.25-139.25z"
     id="path181"
     style="fill:#f6dd93" />
  <path
     class="cls-2"
     d="M145.66 241.494a86.87 86.87 0 1 1 86.92-86.87 87 87 0 0 1-86.92 86.87z"
     id="path183"
     style="fill:#5e4c9b" />
  <path
     class="cls-2"
     d="M145.66 244.584a90 90 0 1 1 90-90 90.05 90.05 0 0 1-90 90zm0-173.74a83.79 83.79 0 1 0 83.78 83.78 83.88 83.88 0 0 0-83.78-83.78z"
     id="path185"
     style="fill:#5e4c9b" />
  <path
     class="cls-6"
     d="m102.42 105.644-13.17.82s-7 1.65-7 10.3v12.76"
     id="path187"
     style="fill:#f6dd93" />
  <path
     class="cls-6"
     d="M82.25 132.724a3.2 3.2 0 0 1-3.2-3.2v-12.8c0-8.85 6.19-12.65 9.47-13.42a3.07 3.07 0 0 1 .53-.07l13.17-.83a3.21 3.21 0 1 1 .4 6.4l-12.82.8c-.92.31-4.35 1.82-4.35 7.12v12.8a3.2 3.2 0 0 1-3.2 3.2z"
     id="path189"
     style="fill:#f6dd93" />
  <path
     class="cls-6"
     d="m83.15 132.974-10.57 7.88s-5 5.2-.25 12.45l7 10.69"
     id="path191"
     style="fill:#f6dd93" />
  <path
     class="cls-6"
     d="M79.28 167.204a3.21 3.21 0 0 1-2.7-1.48l-7-10.7c-4.82-7.41-1.7-14 .62-16.4a3.52 3.52 0 0 1 .41-.36l10.59-7.88a3.202 3.202 0 0 1 3.82 5.14l-10.31 7.67c-.6.76-2.65 3.9.24 8.34l7 10.69a3.22 3.22 0 0 1-.94 4.44 3.18 3.18 0 0 1-1.73.54z"
     id="path193"
     style="fill:#f6dd93" />
  <path
     class="cls-6"
     d="m80.99 164.264-6.93 11.23s-2.69 6.67 4.37 11.66l10.42 7.36"
     id="path195"
     style="fill:#f6dd93" />
  <path
     class="cls-6"
     d="M88.85 197.724a3.18 3.18 0 0 1-1.85-.59l-10.42-7.36c-7.23-5.11-6.75-12.36-5.49-15.48a4.3 4.3 0 0 1 .24-.48l6.93-11.23a3.21 3.21 0 1 1 5.46 3.36l-6.75 10.94c-.28.92-1 4.6 3.3 7.65l10.43 7.37a3.2 3.2 0 0 1-1.85 5.82z"
     id="path197"
     style="fill:#f6dd93" />
  <path
     class="cls-6"
     d="m89.39 195.194 2.06 13s2.3 6.81 10.91 6l12.7-1.2"
     id="path199"
     style="fill:#f6dd93" />
  <path
     class="cls-6"
     d="M100.98 217.504a13 13 0 0 1-12.57-8.25 3 3 0 0 1-.12-.52l-2.07-13a3.204 3.204 0 0 1 6.33-1l2 12.7c.39.88 2.21 4.15 7.49 3.65l12.71-1.2a3.204 3.204 0 1 1 .6 6.38l-12.7 1.2c-.57.01-1.13.04-1.67.04z"
     id="path201"
     style="fill:#f6dd93" />
  <path
     class="cls-6"
     d="m116.75 215.084 6.49 11.5s4.54 5.57 12.32 1.8l11.48-5.58"
     id="path203"
     style="fill:#f6dd93" />
  <path
     class="cls-6"
     d="M130.32 232.884a12.66 12.66 0 0 1-9.56-4.28 2.77 2.77 0 0 1-.31-.45l-6.49-11.49a3.204 3.204 0 0 1 5.58-3.15l6.32 11.21c.68.68 3.53 3.11 8.3.79l11.48-5.57a3.202 3.202 0 0 1 2.8 5.76l-11.48 5.58a15.17 15.17 0 0 1-6.64 1.6z"
     id="path205"
     style="fill:#f6dd93" />
  <path
     class="cls-6"
     d="m152.93 221.464 11.7 6.12s6.84 2.21 11.31-5.18l6.64-10.92"
     id="path207"
     style="fill:#f6dd93" />
  <path
     class="cls-6"
     d="M166.95 231.104a11.24 11.24 0 0 1-3.31-.47 4.4 4.4 0 0 1-.5-.21l-11.7-6.12a3.212 3.212 0 0 1 3-5.68l11.39 6c.94.21 4.66.69 7.4-3.84l6.61-10.92a3.204 3.204 0 1 1 5.48 3.32l-6.61 10.92c-3.38 5.5-8.13 7-11.76 7z"
     id="path209"
     style="fill:#f6dd93" />
  <path
     class="cls-6"
     d="m185.74 209.564 13.19-.43s7-1.44 7.3-10.08l.38-12.76"
     id="path211"
     style="fill:#f6dd93" />
  <path
     class="cls-6"
     d="M185.73 212.774a3.21 3.21 0 0 1-.1-6.41l12.85-.42c.92-.28 4.39-1.69 4.55-7l.38-12.76a3.201 3.201 0 1 1 6.4.19l-.38 12.75c-.26 8.85-6.56 12.46-9.86 13.13a2.39 2.39 0 0 1-.53.06l-13.2.44z"
     id="path213"
     style="fill:#f6dd93" />
  <circle
     class="cls-6"
     cx="145.66"
     cy="154.624"
     r="68.35"
     id="circle215"
     style="fill:#f6dd93" />
  <path
     class="cls-6"
     d="M145.66 226.174a71.55 71.55 0 1 1 71.55-71.55 71.63 71.63 0 0 1-71.55 71.55zm0-136.69a65.14 65.14 0 1 0 65.14 65.14 65.21 65.21 0 0 0-65.14-65.14z"
     id="path217"
     style="fill:#f6dd93" />
  <path
     class="cls-5"
     d="M172.4 211.724c-25.62 0-53.06-10.45-70.35-27.87-11.82-11.9-24.47-32.29-17.62-61.8l6 1.4c-6.21 26.76 5.27 45.25 16 56.05 20.15 20.3 55.15 30.49 83.15 24.22l1.36 6a84.78 84.78 0 0 1-18.54 2z"
     id="path219"
     style="fill:#d08f2a" />
  <path
     class="cls-6"
     d="M145.66 226.174a71.55 71.55 0 1 1 71.55-71.55 71.63 71.63 0 0 1-71.55 71.55zm0-136.69a65.14 65.14 0 1 0 65.14 65.14 65.21 65.21 0 0 0-65.14-65.14z"
     id="path227"
     style="fill:#f6dd93" />
  <path
     class="cls-5"
     d="M130.29 236.304c-5.45 0-10.44-2.41-13.08-6.44a23.09 23.09 0 0 1-2.15-4.56c-.67-1.78-1.25-3.32-2.28-4.22-1.63-1.42-4.11-1.22-8-.72-3.28.41-7 .89-10.48-.45-4.56-1.76-7.79-6.21-9.62-13.24l-.54-2.18c-.88-3.67-1.72-7.13-3.86-9.49a22.74 22.74 0 0 0-4.3-3.35c-3-2-6.32-4.21-7.71-8.22-1.51-4.38.11-8.5 1.54-12.13 1-2.63 2-5.11 1.71-7.31-.29-2.2-1.77-4.21-3.35-6.42-2.17-3-4.63-6.47-4.42-10.88.25-5.27 4.2-9 7.37-12l.34-.31c3.63-3.41 4.34-6.38 4.49-11.36v-3.09c-.07-4.49-.14-9.58 3.13-13.92 4.69-6.24 13.2-6.81 20-7.27 1.5-.1 2.91-.19 4.19-.34l.7 6.14c-1.42.16-2.91.26-4.48.36-5.87.4-12.53.84-15.52 4.82-2 2.65-1.94 6.28-1.89 10.12v3.36c-.18 6.12-1.32 10.88-6.43 15.68l-.34.32c-2.61 2.44-5.3 5-5.43 7.73-.11 2.27 1.46 4.46 3.27 7s4 5.56 4.46 9.22c.46 3.66-.88 7.27-2.1 10.36-1.22 3.09-2.21 5.64-1.44 7.86.71 2 2.83 3.46 5.29 5.1a27.54 27.54 0 0 1 5.46 4.35c3.19 3.52 4.3 8.12 5.29 12.17.17.7.33 1.4.51 2.09 1.3 5 3.27 8 5.86 9 2 .79 4.67.45 7.47.09 4.23-.54 9-1.15 12.86 2.21 2.18 1.91 3.14 4.44 4 6.67a18.9 18.9 0 0 0 1.53 3.37c1.94 2.94 6 3.91 9.25 3.57 4.05-.44 7.87-2.52 11.38-4.7l.28-.17a17.86 17.86 0 0 1 6.14-2.78c4.57-.86 8.54 1.32 12 3.24 2.85 1.57 5.55 3.05 7.94 2.58 2.58-.51 4.36-3.08 6.42-6.06a28.28 28.28 0 0 1 5.75-6.69c3.63-2.8 8.11-3.6 12-4.13l1-.13c3.26-.43 6.33-.84 8.85-2.19 2.52-1.35 2.95-2.81 3.9-6.31.14-.52.28-1 .44-1.59l5.93 1.71c-.15.51-.28 1-.41 1.49-1 3.68-2 7.49-6.93 10.13-3.52 1.9-7.31 2.4-11 2.88l-.94.13c-3.11.42-6.64 1-9.07 2.9a23.27 23.27 0 0 0-4.44 5.31c-2.47 3.57-5.27 7.61-10.31 8.61-4.59.9-8.58-1.29-12.11-3.22-2.84-1.56-5.53-3-7.92-2.59a13.36 13.36 0 0 0-4 2l-.28.18c-3.94 2.44-8.68 5-14 5.59a19.11 19.11 0 0 1-1.92.12z"
     id="path229"
     style="fill:#d08f2a" />
  <path
     class="cls-7"
     d="M91.24 244.724c.09-.23.23-.28.45-.16l2 1.17a.35.35 0 0 1 .16.5l-1.2 2.55 1.4.79 1.57-2.34a.37.37 0 0 1 .52-.12l2.06 1.17c.21.12.24.27.09.47l-10.31 14.23a.39.39 0 0 1-.55.12l-3-1.7a.38.38 0 0 1-.18-.52zm.21 6.7-3.05 6.37.18.1 3.91-5.88z"
     id="path231"
     style="fill:#fff" />
  <path
     class="cls-7"
     d="m53.88 235.724 1.7-1.58a.32.32 0 0 1 .51 0l1.26 1.35 10.84-10.06a.31.31 0 0 1 .51 0l1.58 1.69a.37.37 0 0 1 .09.25.33.33 0 0 1-.11.27l-10.84 10.08 1.24 1.34a.32.32 0 0 1 0 .51l-1.7 1.57a.32.32 0 0 1-.51 0l-4.57-4.92a.32.32 0 0 1 0-.5z"
     id="path233"
     style="fill:#fff" />
  <path
     class="cls-7"
     d="m47.19 196.834 2.1-1a.31.31 0 0 1 .48.17l1.48 3.19 1 2.1a.32.32 0 0 1-.18.48l-15.85 7.36a.32.32 0 0 1-.48-.18l-1-2.1a.31.31 0 0 1 .17-.48l13.42-6.23-1.36-2.93a.32.32 0 0 1 .22-.38z"
     id="path235"
     style="fill:#fff" />
  <path
     class="cls-7"
     d="M41.17 163.124a.27.27 0 0 1 .4.26l.29 2.35a.37.37 0 0 1-.32.43l-2.76.55.2 1.6 2.81-.14a.37.37 0 0 1 .41.35l.29 2.34c0 .24-.08.36-.32.36l-17.58.21a.38.38 0 0 1-.41-.37l-.42-3.41a.37.37 0 0 1 .31-.45zm-5.25 4.16-6.94 1.35v.21l7-.38z"
     id="path237"
     style="fill:#fff" />
  <path
     class="cls-7"
     d="m26.74 125.374 17.12 3.51a.32.32 0 0 1 .28.43l-.33 1.63a.5.5 0 0 1-.16.27.61.61 0 0 1-.27.15l-9 1 8.41 1.72a.32.32 0 0 1 .28.43l-.49 2.21a.32.32 0 0 1-.43.28l-17.12-3.51a.32.32 0 0 1-.28-.43l.34-1.68a.54.54 0 0 1 .16-.27.61.61 0 0 1 .27-.15l8.72-1-8.15-1.67a.32.32 0 0 1-.28-.43l.46-2.27a.33.33 0 0 1 .47-.22z"
     id="path239"
     style="fill:#fff" />
  <path
     class="cls-7"
     d="m41.81 89.234 2 1.16a.32.32 0 0 1 .14.49l-.92 1.6 12.81 7.39a.33.33 0 0 1 .14.5l-1.16 2a.32.32 0 0 1-.21.16.33.33 0 0 1-.29 0l-12.81-7.39-.93 1.58a.32.32 0 0 1-.5.13l-2-1.16a.31.31 0 0 1-.14-.49l3.35-5.81a.32.32 0 0 1 .52-.16z"
     id="path241"
     style="fill:#fff" />
  <path
     class="cls-7"
     d="M78.5 72.994a.28.28 0 0 1 0 .48l-1.74 1.6a.36.36 0 0 1-.53 0l-2-1.93-1.19 1.09 1.74 2.21a.37.37 0 0 1 0 .53l-1.75 1.6a.27.27 0 0 1-.47-.06l-10.36-14.2a.38.38 0 0 1 .06-.55l2.53-2.32a.39.39 0 0 1 .56 0zm-6.43-1.87-5.12-4.86-.16.14 4.4 5.53z"
     id="path243"
     style="fill:#fff" />
  <path
     class="cls-7"
     d="M145.25 271.984a118.63 118.63 0 0 1-13.08-.73l.68-6.13a113.8 113.8 0 0 0 12.4.68 110.54 110.54 0 0 0 102.88-69.32l5.72 2.32a116.7 116.7 0 0 1-108.6 73.18z"
     id="path245"
     style="fill:#fff" />
  <path
     class="cls-5"
     d="M288.87 152.804v45.28h-68.58c-34.95-2.64-40.88-33-40.88-33-78.47 0-77.81-58-77.81-58v-39.59c3.3-54.07 39.56-56 39.56-56h27.67s46.84-5.28 50.79 35.61h20.45c45.5-.66 48.8 34.28 48.8 34.28v71.47z"
     id="path247"
     style="fill:#d08f2a" />
  <path
     class="cls-5"
     d="M292.16 201.374h-72.12c-30.74-2.32-40.63-25.12-43.14-33-26.95-.43-47.6-7.71-61.4-21.67a59.81 59.81 0 0 1-17.2-39.68v-39.73c1-16.11 5.65-38 22.3-50.72 10.17-7.78 20-8.4 20.37-8.42h27.67c2.49-.25 24.68-2.07 40.11 10.44 7.54 6.13 12.17 14.55 13.83 25.13h17.54c47.91-.7 52 36.89 52.08 37.27v120.38zm-71.74-6.59h65.16V81.514c-.29-2.5-4.56-31.18-44.24-31.18h-24.7l-.29-3c-1-10.17-4.92-18.12-11.71-23.64-13.84-11.24-35.22-9-35.44-9h-27.93c-2.13.16-33.31 3.36-36.37 52.86v39.49a54 54 0 0 0 15.37 35.09c12.94 13 32.84 19.64 59.14 19.64h2.71l.52 2.66c.23 1.17 5.94 27.88 37.78 30.35z"
     id="path249"
     style="fill:#d08f2a" />
  <path
     class="cls-4"
     d="M288.87 144.884v45.28h-68.58c-34.95-2.64-40.88-33-40.88-33-78.47 0-77.81-58-77.81-58v-39.59c3.3-54.07 39.56-56.05 39.56-56.05h27.67s46.84-5.28 50.79 35.61h20.45c45.5-.66 48.8 34.28 48.8 34.28z"
     id="path251"
     style="fill:#231f20" />
  <path
     class="cls-6"
     d="M292.16 193.464h-72.12c-30.74-2.32-40.63-25.13-43.14-33-26.95-.43-47.6-7.71-61.4-21.67a59.81 59.81 0 0 1-17.2-39.68v-39.74c1-16.11 5.65-38 22.3-50.72 10.17-7.78 20-8.4 20.37-8.42h27.67c2.49-.25 24.68-2.07 40.11 10.44 7.53 6.11 12.16 14.56 13.77 25.17h17.54c47.91-.7 52 36.9 52.08 37.27v120.35zm-71.74-6.6h65.16V73.594c-.29-2.5-4.56-31.18-44.24-31.18h-24.7l-.29-3c-1-10.17-4.92-18.12-11.71-23.64-13.84-11.24-35.22-9-35.44-9h-27.93c-2.13.15-33.31 3.35-36.37 52.85v39.49a54 54 0 0 0 15.37 35.09c12.94 13 32.84 19.64 59.14 19.64h2.71l.52 2.67c.23 1.21 5.94 27.88 37.78 30.35z"
     id="path253"
     style="fill:#f6dd93" />
  <path
     class="cls-3"
     d="M170.85 87.254c-17.36-1.44-28-12.55-27.87-29 .08-8.89 2.47-17 6.71-22.91 5-6.94 12.39-10.65 21.35-10.74l.05 5.28c-10.91.1-22.63 7.62-22.84 28.42-.13 13.61 8.48 22.46 23 23.68z"
     id="path255"
     style="fill:#f2ea1e" />
  <path
     class="cls-3"
     d="M179.3 87.264h-21.65c-17.35-1.44-28-12.55-27.87-29 .09-8.89 2.47-17 6.72-22.91 4.89-6.78 12.05-10.48 20.73-10.73h23.07c4.32 0 7.64 1.29 9.86 3.82a12.18 12.18 0 0 1 2.67 8.86v11.06h-17.81v-11.87a4.53 4.53 0 0 0-1.83-3.64c-2.57-2.17-6.79-2.84-7.57-2.95h-7.75c-10.88.1-22.61 7.62-22.82 28.42-.13 13.58 8.44 22.42 22.93 23.67h16v-12.2h5.28zm1-44.18h7.28v-6.28a7 7 0 0 0-1.4-4.91c-1.18-1.32-3.15-2-5.87-2h-2.58a9.61 9.61 0 0 1 2.58 6.59z"
     id="path257"
     style="fill:#f2ea1e" />
  <path
     class="cls-3"
     d="M243.44 122.894c-17.35-1.45-28-12.55-27.87-29 .2-20.41 8.75-30.84 25.42-31v5.27c-13.61.13-20 8.32-20.2 25.78-.13 13.62 8.48 22.47 23 23.68z"
     id="path259"
     style="fill:#f2ea1e" />
  <path
     class="cls-3"
     d="M250.58 122.904h-20.34c-17.35-1.45-28-12.55-27.87-29 .19-19 10.43-30.56 27.45-31h20.43c4.32 0 7.64 1.28 9.86 3.82a12.06 12.06 0 0 1 2.67 8.85v11.06h-17.81v-11.86a4.55 4.55 0 0 0-1.82-3.65 15.24 15.24 0 0 0-5.12-2.95h-7.57c-20.36.2-22.74 18.1-22.82 25.78-.13 13.58 8.44 22.43 22.93 23.67h14.73v-9.58h17.76v13.85h-5.28v-8.57h-7.2zm-.32-41.54h7.25v-6.28a7.09 7.09 0 0 0-1.41-4.92c-1.18-1.32-3.15-2-5.87-2h-2.58a9.64 9.64 0 0 1 2.58 6.6z"
     id="path261"
     style="fill:#f2ea1e" />
  <path
     class="cls-3"
     d="M195.46 70.124h-40.22v-16.49h40.22zm-34.95-5.28h29.67v-5.93h-29.67z"
     id="path263"
     style="fill:#f2ea1e" />
  <path
     class="cls-3"
     id="rect265"
     style="fill:#f2ea1e"
     d="M186.56 69.134h5.28v32.65h-5.28z" />
  <path
     class="cls-2"
     d="M267.77 147.924h-44.84c-26.85 0-31.55-24.89-31.6-25.15l6.5-1.14-3.25.57 3.24-.58c.15.8 3.87 19.7 25.11 19.7h44.84z"
     id="path267"
     style="fill:#5e4c9b" />
  <path
     class="cls-2"
     d="M267.77 169.044h-44.84c-26.85 0-31.55-24.9-31.6-25.15l-.05-.28v-28.21h6.6v27.6c.51 2.38 4.87 19.44 25.05 19.44h44.84z"
     id="path269"
     style="fill:#5e4c9b" />
  <path
     class="cls-2"
     d="M176.7 113.604h-22.4c-26.85 0-31.56-24.89-31.6-25.14l6.49-1.15-3.24.58 3.24-.59c.15.81 3.87 19.71 25.11 19.71h22.4z"
     id="path271"
     style="fill:#5e4c9b" />
  <path
     class="cls-2"
     d="M176.7 134.724h-22.4c-26.85 0-31.56-24.89-31.6-25.14l-.05-.29v-28.21h6.59v27.64c.51 2.38 4.88 19.45 25.06 19.45h22.4z"
     id="path273"
     style="fill:#5e4c9b" />
  <path
     class="cls-2"
     id="rect275"
     style="fill:#5e4c9b"
     d="M261.25 146.394h6.59v9.47h-6.59z" />
  <path
     class="cls-2"
     id="rect277"
     style="fill:#5e4c9b"
     d="M241.35 146.394h6.59v9.47h-6.59z" />
  <path
     class="cls-2"
     id="rect279"
     style="fill:#5e4c9b"
     d="M220.5 146.394h6.59v9.47h-6.59z" />
  <path
     class="cls-2"
     id="rect281"
     style="fill:#5e4c9b"
     d="M169.71 111.984h6.59v8.52h-6.59z" />
  <path
     class="cls-2"
     id="rect283"
     style="fill:#5e4c9b"
     d="M149.81 111.984h6.59v8.52h-6.59z" />
  <path
     style="fill:none;stroke:#d08f2a;stroke-width:5;stroke-linecap:butt;stroke-linejoin:miter;stroke-miterlimit:4;stroke-dasharray:none;stroke-opacity:1"
     d="m 179.50277,200.13413 c -3.18268,1.77324 -5.87351,4.41901 -7.70024,7.57128 -1.82674,3.15228 -2.78437,6.80243 -2.74042,10.44549 0.009,0.76185 0.0612,1.52319 0.15578,2.27921"
     id="path2150"
     inkscape:path-effect="#path-effect2152"
     inkscape:original-d="m 179.50277,200.13413 c -3.47921,6.00658 -6.95943,12.01218 -10.44066,18.01677 -3.48123,6.00458 0.10486,1.52046 0.15578,2.27921" />
  <path
     style="fill:none;stroke:#d08f2a;stroke-width:5;stroke-linecap:butt;stroke-linejoin:miter;stroke-miterlimit:4;stroke-dasharray:none;stroke-opacity:1"
     d="m 164.00968,198.52428 c -3.21635,1.7114 -5.95782,4.30468 -7.84513,7.42107 -1.8873,3.11639 -2.91529,6.74736 -2.94174,10.39059 -0.006,0.76188 0.0318,1.52408 0.11171,2.28178"
     id="path2234"
     inkscape:path-effect="#path-effect2238"
     inkscape:original-d="m 164.00968,198.52428 c -3.59464,5.93822 -7.19026,11.87546 -10.78687,17.81166 -3.59661,5.93618 0.0755,1.52219 0.11171,2.28178"
     inkscape:transform-center-x="-1.2224041"
     inkscape:transform-center-y="-1.879795" />
  <path
     style="fill:none;stroke:#d08f2a;stroke-width:5;stroke-linecap:butt;stroke-linejoin:miter;stroke-miterlimit:4;stroke-dasharray:none;stroke-opacity:1"
     d="m 147.12362,194.16416 c -3.1278,1.86833 -5.73769,4.59398 -7.46862,7.79986 -1.73092,3.20589 -2.57814,6.88324 -2.42444,10.52332 0.0321,0.76123 0.10709,1.52065 0.22438,2.27347"
     id="path2240"
     inkscape:path-effect="#path-effect2244"
     inkscape:original-d="m 147.12362,194.16416 c -3.29665,6.10869 -6.59434,12.21643 -9.89306,18.32318 -3.29873,6.10674 0.15062,1.5166 0.22438,2.27347" />
  <path
     style="fill:none;stroke:#d08f2a;stroke-width:5;stroke-linecap:butt;stroke-linejoin:miter;stroke-miterlimit:4;stroke-dasharray:none;stroke-opacity:1"
     d="m 132.47617,188.02485 c -3.32347,1.49275 -6.23202,3.8971 -8.3233,6.88045 -2.09127,2.98334 -3.35954,6.53751 -3.62935,10.17082 -0.0564,0.75981 -0.0701,1.5228 -0.041,2.28415"
     id="path2246"
     inkscape:path-effect="#path-effect2250"
     inkscape:original-d="m 132.47617,188.02485 c -3.9833,5.68483 -7.96752,11.36859 -11.95265,17.05127 -3.98513,5.68266 -0.0264,1.52383 -0.041,2.28415" />
  <path
     style="fill:none;stroke:#d08f2a;stroke-width:5;stroke-linecap:butt;stroke-linejoin:miter;stroke-miterlimit:4;stroke-dasharray:none;stroke-opacity:1"
     d="m 119.17635,180.06385 c -3.51908,0.94332 -6.77401,2.85279 -9.31451,5.46423 -2.5405,2.61145 -4.3596,5.91774 -5.20566,9.46146 -0.17693,0.74108 -0.31218,1.4921 -0.40491,2.24834"
     id="path2252"
     inkscape:path-effect="#path-effect2256"
     inkscape:original-d="m 119.17635,180.06385 c -4.83932,4.97643 -9.67939,9.95167 -14.52017,14.92569 -4.840792,4.97399 -0.26924,1.50009 -0.40491,2.24834" />
  <path
     style="fill:none;stroke:#d08f2a;stroke-width:5;stroke-linecap:butt;stroke-linejoin:miter;stroke-miterlimit:4;stroke-dasharray:none;stroke-opacity:1"
     d="m 107.97552,168.86816 c -3.5128,0.96647 -6.7551,2.89732 -9.278345,5.52545 -2.523248,2.62813 -4.320536,5.94632 -5.143226,9.49555 -0.172043,0.74222 -0.302345,1.49412 -0.390086,2.25095"
     id="path2338"
     inkscape:path-effect="#path-effect2342"
     inkscape:original-d="m 107.97552,168.86816 c -4.80645,5.00819 -9.613646,10.0152 -14.421571,15.021 -4.807929,5.00576 -0.259322,1.50182 -0.390086,2.25095" />
  <path
     style="fill:none;stroke:#d08f2a;stroke-width:5;stroke-linecap:butt;stroke-linejoin:miter;stroke-miterlimit:4;stroke-dasharray:none;stroke-opacity:1"
     d="m 100.52029,155.0481 c -3.561343,0.76854 -6.906528,2.51508 -9.572776,4.99801 -2.666248,2.48293 -4.646256,5.69545 -5.666107,9.19312 -0.213276,0.73145 -0.385416,1.47489 -0.515337,2.22564"
     id="path2344"
     inkscape:path-effect="#path-effect2348"
     inkscape:original-d="m 100.52029,155.0481 c -5.078952,4.73161 -10.15859,9.462 -15.238883,14.19113 -5.080297,4.72911 -0.34289,1.48499 -0.515337,2.22564" />
  <path
     style="fill:none;stroke:#d08f2a;stroke-width:5;stroke-linecap:butt;stroke-linejoin:miter;stroke-miterlimit:4;stroke-dasharray:none;stroke-opacity:1"
     d="m 96.087166,141.03277 c -3.628646,0.32672 -7.162504,1.65055 -10.112694,3.78835 -2.95019,2.1378 -5.308631,5.08372 -6.749054,8.43021 -0.301226,0.69983 -0.563096,1.4166 -0.783958,2.14579"
     id="path2350"
     inkscape:path-effect="#path-effect2354"
     inkscape:original-d="m 96.087166,141.03277 c -5.620065,4.07417 -11.240655,8.14702 -16.861748,12.21856 -5.621094,4.07151 -0.522125,1.43183 -0.783958,2.14579" />
</svg>
