<?xml version="1.0" encoding="UTF-8" standalone="no"?>
<svg
   id="Layer_1"
   data-name="Layer 1"
   viewBox="0 0 292.19681 300.28421"
   version="1.1"
   sodipodi:docname="ATL.svg"
   width="292.19681"
   height="300.28421"
   inkscape:version="1.1.1 (3bf5ae0d25, 2021-09-20)"
   inkscape:export-filename="C:\Users\bigbu\OneDrive\Desktop\ATL.png"
   inkscape:export-xdpi="165.58157"
   inkscape:export-ydpi="165.58157"
   xmlns:inkscape="http://www.inkscape.org/namespaces/inkscape"
   xmlns:sodipodi="http://sodipodi.sourceforge.net/DTD/sodipodi-0.dtd"
   xmlns="http://www.w3.org/2000/svg"
   xmlns:svg="http://www.w3.org/2000/svg"
   xmlns:rdf="http://www.w3.org/1999/02/22-rdf-syntax-ns#"
   xmlns:cc="http://creativecommons.org/ns#"
   xmlns:dc="http://purl.org/dc/elements/1.1/">
  <metadata
     id="metadata298">
    <rdf:RDF>
      <cc:Work
         rdf:about="">
        <dc:format>image/svg+xml</dc:format>
        <dc:type
           rdf:resource="http://purl.org/dc/dcmitype/StillImage" />
      </cc:Work>
    </rdf:RDF>
  </metadata>
  <sodipodi:namedview
     pagecolor="#ffffff"
     bordercolor="#666666"
     borderopacity="1"
     objecttolerance="10"
     gridtolerance="10"
     guidetolerance="10"
     inkscape:pageopacity="0"
     inkscape:pageshadow="2"
     inkscape:window-width="1920"
     inkscape:window-height="1017"
     id="namedview296"
     showgrid="false"
     inkscape:zoom="1.7800234"
     inkscape:cx="103.65032"
     inkscape:cy="148.03176"
     inkscape:window-x="-8"
     inkscape:window-y="-8"
     inkscape:window-maximized="1"
     inkscape:current-layer="Layer_1"
     inkscape:pagecheckerboard="0"
     showguides="true"
     inkscape:guide-bbox="true">
    <sodipodi:guide
       position="-89.774314,8.8022553"
       orientation="1,0"
       id="guide54861" />
  </sodipodi:namedview>
  <defs
     id="defs4">
    <inkscape:path-effect
       effect="spiro"
       id="path-effect54859"
       is_visible="true"
       lpeversion="1" />
    <style
       id="style2">.cls-1{fill:#f15d24;}.cls-11,.cls-2{fill:#5e4c9b;}.cls-3{fill:#f2ea1e;}.cls-10,.cls-19,.cls-4,.cls-7{fill:#231f20;}.cls-18,.cls-5{fill:#d08f2a;}.cls-12,.cls-13,.cls-6{fill:#f6dd93;}.cls-10,.cls-12,.cls-13,.cls-15,.cls-19,.cls-7{stroke:#f6dd93;}.cls-10,.cls-11,.cls-13,.cls-14,.cls-15,.cls-17,.cls-18,.cls-19,.cls-20,.cls-21,.cls-22,.cls-23,.cls-7,.cls-8,.cls-9{stroke-miterlimit:10;}.cls-7,.cls-9{stroke-width:9.31px;}.cls-14,.cls-15,.cls-17,.cls-20,.cls-21,.cls-22,.cls-23,.cls-8,.cls-9{fill:none;}.cls-20,.cls-22,.cls-8{stroke:#f2ea1e;}.cls-8{stroke-width:7.45px;}.cls-11,.cls-21,.cls-23,.cls-9{stroke:#5e4c9b;}.cls-10,.cls-12,.cls-13,.cls-15{stroke-width:6.41px;}.cls-11,.cls-14,.cls-17{stroke-width:6.18px;}.cls-12{stroke-linecap:round;stroke-linejoin:round;}.cls-14,.cls-18{stroke:#d08f2a;}.cls-16{fill:#fff;}.cls-17{stroke:#fff;}.cls-18,.cls-19,.cls-21{stroke-width:6.59px;}.cls-20{stroke-width:5.28px;}.cls-22{stroke-width:3.56px;}.cls-23{stroke-width:4.45px;}</style>
  </defs>
  <g
     id="SlHar6"
     transform="translate(-104.3882,-346.2781)">
    <path
       class="cls-1"
       d="m 150.51,429.93 a 31.64,31.64 0 0 1 -3.84,-2.66 c -1.6,-1.15 -1.59,-1.18 -3.19,0 -1.29,0.91 -2.57,1.85 -3.89,2.81 -0.17,-0.33 0,-0.57 0.08,-0.8 0.53,-1.65 1.06,-3.3 1.63,-4.94 a 0.88,0.88 0 0 0 -0.37,-1.17 c -1.48,-1 -2.92,-2.13 -4.38,-3.2 -0.13,-0.1 -0.25,-0.22 -0.53,-0.47 h 2.33 c 1.32,0 2.65,0 4,-0.07 a 0.7,0.7 0 0 0 0.75,-0.59 c 0.61,-2 1.26,-3.89 2,-6 0.55,1.66 1.07,3.13 1.52,4.62 0.61,2 0.59,2.05 2.75,2.05 h 4.84 l -2.44,1.79 c -0.89,0.66 -1.76,1.33 -2.66,2 a 0.72,0.72 0 0 0 -0.3,1 c 0.57,1.67 1.1,3.34 1.63,5 0.07,0.23 0.11,0.47 0.16,0.71 z"
       id="path6"
       inkscape:connector-curvature="0"
       style="fill:#f15d24" />
    <path
       class="cls-1"
       d="m 150.53,429.91 0.06,0.08 -0.08,-0.06 z"
       id="path8"
       inkscape:connector-curvature="0"
       style="fill:#f15d24" />
  </g>
  <circle
     class="cls-10"
     cx="-117.00196"
     cy="177.30089"
     r="142.45"
     transform="rotate(-76.72)"
     id="circle161"
     style="fill:#231f20;stroke:#f6dd93;stroke-width:6.40999985px;stroke-miterlimit:10" />
  <path
     style="opacity:1;fill:none;fill-opacity:1;stroke:#ffffff;stroke-width:6.72226;stroke-linecap:butt;stroke-linejoin:round;stroke-miterlimit:4;stroke-dasharray:none;stroke-opacity:1;paint-order:stroke fill markers"
     id="path65337"
     transform="scale(-1,1)"
     sodipodi:type="arc"
     sodipodi:cx="-144.28281"
     sodipodi:cy="151.4091"
     sodipodi:rx="116.95386"
     sodipodi:ry="116.54359"
     sodipodi:start="1.4749161"
     sodipodi:end="4.8169974"
     sodipodi:arc-type="arc"
     d="m -133.08642,267.41741 a 116.95386,116.54359 0 0 1 -110.74011,-54.82944 116.95386,116.54359 0 0 1 0.53965,-123.221184 116.95386,116.54359 0 0 1 111.21613,-53.864187"
     sodipodi:open="true" />
  <path
     class="cls-11"
     d="m 145.6918,241.4919 a 86.87,86.87 0 1 1 86.92,-86.87 87,87 0 0 1 -86.92,86.87 z"
     id="path163"
     inkscape:connector-curvature="0"
     style="fill:#5e4c9b;stroke:#5e4c9b;stroke-width:6.17999983px;stroke-miterlimit:10" />
  <path
     class="cls-12"
     d="m 102.4518,105.6419 -13.169998,0.82 c 0,0 -7,1.65 -7,10.3 v 12.76"
     id="path165"
     inkscape:connector-curvature="0"
     style="fill:#f6dd93;stroke:#f6dd93;stroke-width:6.40999985px;stroke-linecap:round;stroke-linejoin:round" />
  <path
     class="cls-12"
     d="m 83.181802,132.9719 -10.57,7.88 c 0,0 -5,5.2 -0.25,12.45 l 7,10.69"
     id="path167"
     inkscape:connector-curvature="0"
     style="fill:#f6dd93;stroke:#f6dd93;stroke-width:6.40999985px;stroke-linecap:round;stroke-linejoin:round" />
  <path
     class="cls-12"
     d="m 81.021802,164.2619 -6.93,11.23 c 0,0 -2.69,6.67 4.37,11.66 l 10.42,7.36"
     id="path169"
     inkscape:connector-curvature="0"
     style="fill:#f6dd93;stroke:#f6dd93;stroke-width:6.40999985px;stroke-linecap:round;stroke-linejoin:round" />
  <path
     class="cls-12"
     d="m 89.421802,195.1919 2.06,13 c 0,0 2.3,6.81 10.909998,6 l 12.7,-1.2"
     id="path171"
     inkscape:connector-curvature="0"
     style="fill:#f6dd93;stroke:#f6dd93;stroke-width:6.40999985px;stroke-linecap:round;stroke-linejoin:round" />
  <path
     class="cls-12"
     d="m 116.7818,215.0819 6.49,11.5 c 0,0 4.54,5.57 12.32,1.8 l 11.48,-5.58"
     id="path173"
     inkscape:connector-curvature="0"
     style="fill:#f6dd93;stroke:#f6dd93;stroke-width:6.40999985px;stroke-linecap:round;stroke-linejoin:round" />
  <path
     class="cls-12"
     d="m 152.9618,221.4619 11.7,6.12 c 0,0 6.84,2.21 11.31,-5.18 l 6.64,-10.92"
     id="path175"
     inkscape:connector-curvature="0"
     style="fill:#f6dd93;stroke:#f6dd93;stroke-width:6.40999985px;stroke-linecap:round;stroke-linejoin:round" />
  <path
     class="cls-12"
     d="m 185.7718,209.5619 13.19,-0.43 c 0,0 7,-1.44 7.3,-10.08 l 0.38,-12.76"
     id="path177"
     inkscape:connector-curvature="0"
     style="fill:#f6dd93;stroke:#f6dd93;stroke-width:6.40999985px;stroke-linecap:round;stroke-linejoin:round" />
  <circle
     class="cls-13"
     cx="145.6918"
     cy="154.62189"
     r="68.349998"
     id="circle179"
     style="fill:#f6dd93;stroke:#f6dd93;stroke-width:6.40999985px;stroke-miterlimit:10" />
  <circle
     class="cls-15"
     cx="145.6918"
     cy="154.62189"
     r="68.349998"
     id="circle189"
     style="fill:none;stroke:#f6dd93;stroke-width:6.40999985px;stroke-miterlimit:10" />
  <path
     class="cls-14"
     d="m 102.28732,95.201759 c -6.999994,0.81 -16.948651,3.169846 -21.698651,9.489851 -3.31,4.4 -1.366867,13.34029 -1.516867,18.47029 -0.18,5.7 -1.14,9.46 -5.47,13.52 -3,2.86 -6.54,6 -6.74,10.15 -0.29,6.26 6.94,10.56 7.75,16.76 0.85,6.44 -5.51,12.69 -3.39,18.83 1.71,4.95 7.86,6.62 11.38,10.51 3.15,3.48 3.93,8.42 5.1,13 1.17,4.58 3.35,9.44 7.74,11.13 6.219998,2.39 14.389998,-2.66 19.409998,1.73 2.69,2.36 3,6.42 5,9.41 2.53,3.85 7.58,5.44 12.16,4.95 4.58,-0.49 8.77,-2.72 12.68,-5.15 1.61897,-1.16053 3.43504,-2.01774 5.36,-2.53 7,-1.32 13,7.18 20,5.81 6.33,-1.25 8.35,-9.4 13.46,-13.34 3,-2.29 6.5491,-3.56179 10.2691,-4.07179 3.72,-0.51 7.98135,-1.59224 11.28135,-3.37224 4.27,-2.3 4.63,-5.58 5.83,-9.75"
     id="path191"
     inkscape:connector-curvature="0"
     style="fill:none;stroke:#d08f2a;stroke-width:6.18px;stroke-miterlimit:10"
     sodipodi:nodetypes="ccccccccscccsccccscc" />
  <path
     class="cls-16"
     d="m 91.271802,244.7219 c 0.08,-0.23 0.23,-0.28 0.44,-0.16 l 2.06,1.17 a 0.35,0.35 0 0 1 0.16,0.5 l -1.2,2.55 1.4,0.79 1.57,-2.34 a 0.37,0.37 0 0 1 0.52,-0.12 l 2.06,1.17 c 0.21,0.12 0.24,0.27 0.09,0.47 l -10.32,14.23 a 0.37,0.37 0 0 1 -0.54,0.12 l -3,-1.7 a 0.39,0.39 0 0 1 -0.19,-0.52 z m 0.21,6.7 -3.05,6.37 0.18,0.1 3.9,-5.89 z"
     id="path193"
     inkscape:connector-curvature="0"
     style="fill:#ffffff" />
  <path
     class="cls-16"
     d="m 53.911802,235.7219 1.7,-1.58 a 0.32,0.32 0 0 1 0.51,0 l 1.26,1.35 10.84,-10.06 a 0.31,0.31 0 0 1 0.51,0 l 1.58,1.69 a 0.37,0.37 0 0 1 0.09,0.25 0.33,0.33 0 0 1 -0.11,0.27 l -10.84,10.08 1.24,1.34 a 0.32,0.32 0 0 1 0,0.51 l -1.7,1.57 a 0.32,0.32 0 0 1 -0.51,0 l -4.57,-4.92 a 0.32,0.32 0 0 1 0,-0.5 z"
     id="path195"
     inkscape:connector-curvature="0"
     style="fill:#ffffff" />
  <path
     class="cls-16"
     d="m 47.221802,196.8319 2.09,-1 a 0.33,0.33 0 0 1 0.49,0.18 l 1.48,3.19 v 0 0 l 1,2.1 a 0.32,0.32 0 0 1 -0.18,0.48 l -15.85,7.36 a 0.32,0.32 0 0 1 -0.48,-0.18 l -1,-2.1 a 0.32,0.32 0 0 1 0.18,-0.48 l 13.42,-6.23 -1.36,-2.93 a 0.32,0.32 0 0 1 0.21,-0.39 z"
     id="path197"
     inkscape:connector-curvature="0"
     style="fill:#ffffff" />
  <path
     class="cls-16"
     d="m 41.201802,163.1219 c 0.23,-0.07 0.37,0 0.39,0.26 l 0.3,2.35 a 0.37,0.37 0 0 1 -0.32,0.43 l -2.76,0.55 0.2,1.6 2.81,-0.14 a 0.37,0.37 0 0 1 0.41,0.35 l 0.29,2.34 c 0,0.24 -0.08,0.36 -0.32,0.36 l -17.58,0.21 a 0.38,0.38 0 0 1 -0.41,-0.37 l -0.42,-3.41 a 0.37,0.37 0 0 1 0.3,-0.45 z m -5.25,4.16 -6.94,1.35 v 0.21 l 7,-0.38 z"
     id="path199"
     inkscape:connector-curvature="0"
     style="fill:#ffffff" />
  <path
     class="cls-16"
     d="m 26.771802,125.3719 17.12,3.51 a 0.32,0.32 0 0 1 0.28,0.43 l -0.33,1.63 a 0.46,0.46 0 0 1 -0.17,0.27 0.54,0.54 0 0 1 -0.26,0.15 l -9,1 8.41,1.72 a 0.33,0.33 0 0 1 0.28,0.43 l -0.49,2.21 a 0.33,0.33 0 0 1 -0.44,0.28 l -17.11,-3.51 a 0.32,0.32 0 0 1 -0.28,-0.43 l 0.34,-1.68 a 0.54,0.54 0 0 1 0.16,-0.27 0.61,0.61 0 0 1 0.27,-0.15 l 8.72,-1 -8.15,-1.67 a 0.32,0.32 0 0 1 -0.28,-0.43 l 0.46,-2.27 a 0.33,0.33 0 0 1 0.47,-0.22 z"
     id="path201"
     inkscape:connector-curvature="0"
     style="fill:#ffffff" />
  <path
     class="cls-16"
     d="m 41.841802,89.2319 2,1.16 a 0.32,0.32 0 0 1 0.14,0.49 l -0.93,1.6 12.82,7.39 a 0.33,0.33 0 0 1 0.14,0.5 l -1.16,2 a 0.32,0.32 0 0 1 -0.21,0.16 0.33,0.33 0 0 1 -0.29,0 l -12.81,-7.39 -0.93,1.58 a 0.32,0.32 0 0 1 -0.5,0.13 l -2,-1.16 a 0.31,0.31 0 0 1 -0.14,-0.49 l 3.35,-5.81 a 0.32,0.32 0 0 1 0.52,-0.16 z"
     id="path203"
     inkscape:connector-curvature="0"
     style="fill:#ffffff" />
  <path
     class="cls-16"
     d="m 78.531802,72.9919 a 0.28,0.28 0 0 1 0,0.48 l -1.74,1.6 a 0.36,0.36 0 0 1 -0.53,0 l -2,-1.93 -1.19,1.09 1.74,2.21 a 0.37,0.37 0 0 1 0,0.53 l -1.75,1.6 a 0.27,0.27 0 0 1 -0.47,-0.06 l -10.36,-14.2 a 0.38,0.38 0 0 1 0.06,-0.55 l 2.53,-2.32 a 0.39,0.39 0 0 1 0.56,0 z m -6.43,-1.87 -5.13,-4.86 -0.15,0.14 4.39,5.53 z"
     id="path205"
     inkscape:connector-curvature="0"
     style="fill:#ffffff" />
  <path
     class="cls-18"
     d="m 590.19139,269.36275 v 45.28 h -68.58 c -34.95,-2.64 -40.88,-33 -40.88,-33 -78.47,0 -77.81,-58 -77.81,-58 v -39.59 c 3.3,-54.07 39.56,-56 39.56,-56 h 27.67 c 0,0 46.84,-5.28 50.79,35.61 h 20.45 c 45.5,-0.66 48.8,34.28 48.8,34.28 v 71.47 z"
     id="path209"
     inkscape:connector-curvature="0"
     style="fill:#d08f2a;stroke:#d08f2a;stroke-width:6.59px;stroke-miterlimit:10" />
  <path
     class="cls-19"
     d="m 590.19139,261.44273 v 45.27997 h -68.58 c -34.95,-2.64004 -40.88,-32.99999 -40.88,-32.99999 -78.47,0 -77.81,-57.99996 -77.81,-57.99996 v -39.58999 c 3.3,-54.07001 39.56,-56.05007 39.56,-56.05007 h 27.67 c 0,0 46.84,-5.27991 50.79,35.61002 h 20.45 c 45.5,-0.65996 48.8,34.28008 48.8,34.28008 z"
     id="path211"
     inkscape:connector-curvature="0"
     style="fill:#231f20;stroke:none;stroke-width:0;stroke-miterlimit:10;stroke-dasharray:none" />
  <path
     class="cls-20"
     d="m 472.39139,143.82275 c -17.51,0.17 -25.3,15.22 -25.46,31 -0.15,15.63 10,25.05 25.46,26.34"
     id="path213"
     inkscape:connector-curvature="0"
     style="fill:none;stroke:#f2ea1e;stroke-width:5.28px;stroke-miterlimit:10" />
  <path
     class="cls-20"
     d="m 477.98139,186.35275 v 14.84 h -18.79 c -15.47,-1.29 -25.61,-10.71 -25.45,-26.34 0.15,-15.81 7.94,-30.86 25.45,-31 h 7.92 c 0,0 5.59,0.62 9.1,3.57 a 7.2,7.2 0 0 1 2.77,5.66 v 9.2 h 12.53 v -8.57 c 0,0 1.32,-9.89 -9.89,-9.89 h -23.07"
     id="path215"
     inkscape:connector-curvature="0"
     style="fill:none;stroke:#f2ea1e;stroke-width:5.28px;stroke-miterlimit:10" />
  <path
     class="cls-20"
     d="m 542.34139,182.09275 c -17.51,0.17 -22.66,12.58 -22.81,28.4 -0.16,15.62 10,25 25.45,26.33"
     id="path217"
     inkscape:connector-curvature="0"
     style="fill:none;stroke:#f2ea1e;stroke-width:5.28px;stroke-miterlimit:10" />
  <path
     class="cls-20"
     d="m 531.14139,182.09275 h 20.43 c 11.21,0 9.89,9.9 9.89,9.9 v 8.57 h -12.56 v -9.23 a 7.18,7.18 0 0 0 -2.77,-5.66 16.55,16.55 0 0 0 -6.46,-3.58 h -7.92 c -17.51,0.17 -25.3,12.58 -25.45,28.4 -0.16,15.62 10,25 25.45,26.33 h 17.47 v -9.54 h 12.49 v 11.21"
     id="path219"
     inkscape:connector-curvature="0"
     style="fill:none;stroke:#f2ea1e;stroke-width:5.28px;stroke-miterlimit:10" />
  <rect
     class="cls-20"
     x="459.19138"
     y="172.83272"
     width="34.939999"
     height="11.21"
     id="rect221"
     style="fill:none;stroke:#f2ea1e;stroke-width:5.28px;stroke-miterlimit:10" />
  <line
     class="cls-20"
     x1="490.51135"
     y1="185.69273"
     x2="490.51135"
     y2="218.34274"
     id="line223"
     style="fill:none;stroke:#f2ea1e;stroke-width:5.28px;stroke-miterlimit:10" />
  <path
     class="cls-21"
     d="m 495.90139,238.76275 c 0,0 4,22.42 28.35,22.42 h 44.84"
     id="path225"
     inkscape:connector-curvature="0"
     style="fill:none;stroke:#5e4c9b;stroke-width:6.59px;stroke-miterlimit:10" />
  <path
     class="cls-21"
     d="m 569.09139,282.28275 h -44.84 c -24.35,0 -28.35,-22.4 -28.35,-22.4 v -27.92"
     id="path227"
     inkscape:connector-curvature="0"
     style="fill:none;stroke:#5e4c9b;stroke-width:6.59px;stroke-miterlimit:10" />
  <path
     class="cls-21"
     d="m 427.27139,204.45275 c 0,0 3.95,22.42 28.35,22.42 h 22.4"
     id="path229"
     inkscape:connector-curvature="0"
     style="fill:none;stroke:#5e4c9b;stroke-width:6.59px;stroke-miterlimit:10" />
  <path
     class="cls-21"
     d="m 478.02139,247.98275 h -22.4 c -24.4,0 -28.35,-22.42 -28.35,-22.42 v -27.92"
     id="path231"
     inkscape:connector-curvature="0"
     style="fill:none;stroke:#5e4c9b;stroke-width:6.59px;stroke-miterlimit:10" />
  <line
     class="cls-21"
     x1="565.8714"
     y1="262.95276"
     x2="565.8714"
     y2="272.42276"
     id="line233"
     style="fill:none;stroke:#5e4c9b;stroke-width:6.59px;stroke-miterlimit:10" />
  <line
     class="cls-21"
     x1="545.96136"
     y1="262.95276"
     x2="545.96136"
     y2="272.42276"
     id="line235"
     style="fill:none;stroke:#5e4c9b;stroke-width:6.59px;stroke-miterlimit:10" />
  <line
     class="cls-21"
     x1="525.11139"
     y1="262.95276"
     x2="525.11139"
     y2="272.42276"
     id="line237"
     style="fill:none;stroke:#5e4c9b;stroke-width:6.59px;stroke-miterlimit:10" />
  <line
     class="cls-21"
     x1="474.33136"
     y1="228.54277"
     x2="474.33136"
     y2="237.06274"
     id="line239"
     style="fill:none;stroke:#5e4c9b;stroke-width:6.59px;stroke-miterlimit:10" />
  <line
     class="cls-21"
     x1="454.42136"
     y1="228.54277"
     x2="454.42136"
     y2="237.06274"
     id="line241"
     style="fill:none;stroke:#5e4c9b;stroke-width:6.59px;stroke-miterlimit:10" />
  <path
     class="cls-14"
     d="m 187.87851,215.1798 c 6.99999,-0.81 16.38686,-3.73163 21.13686,-10.05163 3.31,-4.4 1.22642,-12.07627 1.37642,-17.20627 0.18,-5.7 1.14,-9.46 5.47,-13.52 3,-2.86 6.54,-6 6.74,-10.15 0.29,-6.26 -6.94,-10.56 -7.75,-16.76 -0.85,-6.44 5.51,-12.69 3.39,-18.83 -1.71,-4.95 -7.86,-6.62 -11.38,-10.51 -3.15,-3.48 -3.93,-8.42 -5.1,-13 -1.17,-4.58 -3.35,-9.44 -7.74,-11.13 -6.21999,-2.389995 -14.38999,2.66 -19.40999,-1.729995 -2.69,-2.36 -3,-6.42 -5,-9.41 -2.53,-3.85 -7.58,-5.44 -12.16,-4.95 -4.58,0.49 -8.77,2.72 -12.68,5.15 -1.61897,1.160526 -3.43504,2.017737 -5.36,2.53 -7,1.32 -13,-7.18 -20,-5.81 -6.33,1.25 -8.35,9.4 -13.46,13.339995 -3,2.29 -6.83,3 -10.550004,3.51 -3.72,0.51 -7.56,0.89 -10.86,2.67 -4.27,2.3 -4.63,5.58 -5.83,9.75"
     id="path862"
     inkscape:connector-curvature="0"
     style="fill:#f6dd93;stroke:#d08f2a;stroke-width:6.18px;stroke-miterlimit:10;fill-opacity:1"
     sodipodi:nodetypes="ccccccccscccsccccscc" />
  <path
     style="fill:#d08f2a;fill-opacity:1;stroke:#d08f2a;stroke-width:0.999999px;stroke-linecap:butt;stroke-linejoin:miter;stroke-opacity:1"
     d="m 81.391869,109.83845 c -0.03054,0.76239 -0.06203,1.52378 -0.09447,2.28417 -0.03244,0.76039 -3.306405,-0.79449 -3.306405,-0.79449 l -1.322562,-3.37659 4.817905,0.0993 z"
     id="path12392" />
  <path
     style="fill:#d08f2a;stroke:#d08f2a;stroke-width:1px;stroke-linecap:butt;stroke-linejoin:miter;stroke-opacity:1;fill-opacity:1"
     d="m 185.69999,213.54443 1.89933,-0.93105 3.51314,1.22898 c 0,0 -2.68141,2.64417 -2.73106,2.64417 -0.0497,0 -2.44555,-1.00553 -2.40831,-1.19174 0.0373,-0.18621 -0.28552,-1.68829 -0.28552,-1.68829 z"
     id="path18901" />
  <g
     id="g44169"
     transform="matrix(0.58026094,0,0,0.58026094,-102.82522,-84.376592)"
     style="stroke-width:5.85943;stroke-miterlimit:10;stroke-dasharray:none">
    <path
       class="cls-19"
       d="m 516.20313,456.66216 v 45.27997 h -68.58 c -34.95,-2.64004 -40.88,-32.99999 -40.88,-32.99999 -78.47,0 -77.81,-57.99996 -77.81,-57.99996 v -39.58999 c 3.3,-54.07001 39.56,-56.05007 39.56,-56.05007 h 27.67 c 0,0 46.84,-5.27991 50.79,35.61002 h 20.45 c 45.5,-0.65996 48.8,34.28008 48.8,34.28008 z"
       id="path44121"
       inkscape:connector-curvature="0"
       style="fill:#231f20;stroke:none;stroke-width:5.85943;stroke-miterlimit:10;stroke-dasharray:none" />
    <path
       class="cls-20"
       d="m 398.40313,339.04218 c -17.51,0.17 -25.3,15.22 -25.46,31 -0.15,15.63 10,25.05 25.46,26.34"
       id="path44123"
       inkscape:connector-curvature="0"
       style="fill:none;stroke:#f2ea1e;stroke-width:5.85943;stroke-miterlimit:10;stroke-dasharray:none" />
    <path
       class="cls-20"
       d="m 403.99313,381.57218 v 14.84 h -18.79 c -15.47,-1.29 -25.61,-10.71 -25.45,-26.34 0.15,-15.81 7.94,-30.86 25.45,-31 h 7.92 c 0,0 5.59,0.62 9.1,3.57 a 7.2,7.2 0 0 1 2.77,5.66 v 9.2 h 12.53 v -8.57 c 0,0 1.32,-9.89 -9.89,-9.89 h -23.07"
       id="path44125"
       inkscape:connector-curvature="0"
       style="fill:none;stroke:#f2ea1e;stroke-width:5.85943;stroke-miterlimit:10;stroke-dasharray:none" />
    <path
       class="cls-20"
       d="m 468.35313,377.31218 c -17.51,0.17 -22.66,12.58 -22.81,28.4 -0.16,15.62 10,25 25.45,26.33"
       id="path44127"
       inkscape:connector-curvature="0"
       style="fill:none;stroke:#f2ea1e;stroke-width:5.85943;stroke-miterlimit:10;stroke-dasharray:none" />
    <path
       class="cls-20"
       d="m 457.15313,377.31218 h 20.43 c 11.21,0 9.89,9.9 9.89,9.9 v 8.57 h -12.56 v -9.23 a 7.18,7.18 0 0 0 -2.77,-5.66 16.55,16.55 0 0 0 -6.46,-3.58 h -7.92 c -17.51,0.17 -25.3,12.58 -25.45,28.4 -0.16,15.62 10,25 25.45,26.33 h 17.47 v -9.54 h 12.49 v 11.21"
       id="path44129"
       inkscape:connector-curvature="0"
       style="fill:none;stroke:#f2ea1e;stroke-width:5.85943;stroke-miterlimit:10;stroke-dasharray:none" />
    <rect
       class="cls-20"
       x="385.20312"
       y="368.05215"
       width="34.939999"
       height="11.21"
       id="rect44131"
       style="fill:none;stroke:#f2ea1e;stroke-width:5.85943;stroke-miterlimit:10;stroke-dasharray:none" />
    <line
       class="cls-20"
       x1="416.5231"
       y1="380.91217"
       x2="416.5231"
       y2="413.56216"
       id="line44133"
       style="fill:none;stroke:#f2ea1e;stroke-width:5.85943;stroke-miterlimit:10;stroke-dasharray:none" />
    <path
       class="cls-21"
       d="m 421.91313,433.98218 c 0,0 4,22.42 28.35,22.42 h 44.84"
       id="path44135"
       inkscape:connector-curvature="0"
       style="fill:none;stroke:#5e4c9b;stroke-width:5.85943;stroke-miterlimit:10;stroke-dasharray:none" />
    <path
       class="cls-21"
       d="m 495.10313,477.50218 h -44.84 c -24.35,0 -28.35,-22.4 -28.35,-22.4 v -27.92"
       id="path44137"
       inkscape:connector-curvature="0"
       style="fill:none;stroke:#5e4c9b;stroke-width:5.85943;stroke-miterlimit:10;stroke-dasharray:none" />
    <path
       class="cls-21"
       d="m 353.28313,399.67218 c 0,0 3.95,22.42 28.35,22.42 h 22.4"
       id="path44139"
       inkscape:connector-curvature="0"
       style="fill:none;stroke:#5e4c9b;stroke-width:5.85943;stroke-miterlimit:10;stroke-dasharray:none" />
    <path
       class="cls-21"
       d="m 404.03313,443.20218 h -22.4 c -24.4,0 -28.35,-22.42 -28.35,-22.42 v -27.92"
       id="path44141"
       inkscape:connector-curvature="0"
       style="fill:none;stroke:#5e4c9b;stroke-width:5.85943;stroke-miterlimit:10;stroke-dasharray:none" />
    <line
       class="cls-21"
       x1="491.88315"
       y1="458.17218"
       x2="491.88315"
       y2="467.64218"
       id="line44143"
       style="fill:none;stroke:#5e4c9b;stroke-width:5.85943;stroke-miterlimit:10;stroke-dasharray:none" />
    <line
       class="cls-21"
       x1="471.97311"
       y1="458.17218"
       x2="471.97311"
       y2="467.64218"
       id="line44145"
       style="fill:none;stroke:#5e4c9b;stroke-width:5.85943;stroke-miterlimit:10;stroke-dasharray:none" />
    <line
       class="cls-21"
       x1="451.12314"
       y1="458.17218"
       x2="451.12314"
       y2="467.64218"
       id="line44147"
       style="fill:none;stroke:#5e4c9b;stroke-width:5.85943;stroke-miterlimit:10;stroke-dasharray:none" />
    <line
       class="cls-21"
       x1="400.34311"
       y1="423.76221"
       x2="400.34311"
       y2="432.28217"
       id="line44149"
       style="fill:none;stroke:#5e4c9b;stroke-width:5.85943;stroke-miterlimit:10;stroke-dasharray:none" />
    <line
       class="cls-21"
       x1="380.43311"
       y1="423.76221"
       x2="380.43311"
       y2="432.28217"
       id="line44151"
       style="fill:none;stroke:#5e4c9b;stroke-width:5.85943;stroke-miterlimit:10;stroke-dasharray:none" />
  </g>
</svg>
