<?xml version="1.0" encoding="UTF-8" standalone="no"?>
<svg
   id="Layer_1"
   data-name="Layer 1"
   version="1.1"
   width="379.66"
   height="368.18"
   sodipodi:docname="CHA.svg"
   inkscape:version="1.1.1 (3bf5ae0d25, 2021-09-20)"
   xmlns:inkscape="http://www.inkscape.org/namespaces/inkscape"
   xmlns:sodipodi="http://sodipodi.sourceforge.net/DTD/sodipodi-0.dtd"
   xmlns="http://www.w3.org/2000/svg"
   xmlns:svg="http://www.w3.org/2000/svg">
  <sodipodi:namedview
     id="namedview58"
     pagecolor="#ffffff"
     bordercolor="#666666"
     borderopacity="1.0"
     inkscape:pageshadow="2"
     inkscape:pageopacity="0.0"
     inkscape:pagecheckerboard="0"
     showgrid="false"
     showguides="true"
     inkscape:guide-bbox="true"
     inkscape:zoom="1.4308071"
     inkscape:cx="252.6546"
     inkscape:cy="302.97585"
     inkscape:window-width="1920"
     inkscape:window-height="1017"
     inkscape:window-x="-8"
     inkscape:window-y="-8"
     inkscape:window-maximized="1"
     inkscape:current-layer="Layer_1">
    <sodipodi:guide
       position="186.19035,230.54492"
       orientation="1,0"
       id="guide2406" />
  </sodipodi:namedview>
  <defs
     id="defs4">
    <inkscape:path-effect
       effect="spiro"
       id="path-effect10546"
       is_visible="true"
       lpeversion="1" />
    <inkscape:path-effect
       effect="spiro"
       id="path-effect2244"
       is_visible="true"
       lpeversion="1" />
    <inkscape:path-effect
       effect="spiro"
       id="path-effect2207"
       is_visible="true"
       lpeversion="1" />
    <inkscape:path-effect
       effect="spiro"
       id="path-effect2201"
       is_visible="true"
       lpeversion="1" />
    <inkscape:path-effect
       effect="spiro"
       id="path-effect2195"
       is_visible="true"
       lpeversion="1" />
    <inkscape:path-effect
       effect="spiro"
       id="path-effect2189"
       is_visible="true"
       lpeversion="1" />
    <inkscape:path-effect
       effect="spiro"
       id="path-effect2103"
       is_visible="true"
       lpeversion="1" />
    <inkscape:path-effect
       effect="spiro"
       id="path-effect2064"
       is_visible="true"
       lpeversion="1" />
    <inkscape:path-effect
       effect="spiro"
       id="path-effect1588"
       is_visible="true"
       lpeversion="1" />
    <style
       id="style2">.cls-3{fill:#fff}.cls-4{fill:#541f3e}.cls-5{fill:#009e87}</style>
  </defs>
  <path
     class="cls-5"
     d="M130.17 142.41h112.69a57.89 57.89 0 0 1 57.89 57.89v76.79H72.28v-76.8a57.89 57.89 0 0 1 57.89-57.88z"
     id="path194"
     style="fill:#009e87" />
  <path
     class="cls-4"
     d="M314.28 290.61H58.78v-90.32a71.48 71.48 0 0 1 71.39-71.39h112.69a71.48 71.48 0 0 1 71.42 71.39zm-228.49-27h201.49v-63.32a44.56 44.56 0 0 0-44.38-44.38H130.17a44.56 44.56 0 0 0-44.38 44.38z"
     id="path196"
     style="fill:#541f3e" />
  <path
     class="cls-4"
     id="rect198"
     style="fill:#541f3e"
     d="M140.35 136.35h92.33v63.22h-92.33z" />
  <path
     style="fill:#541f3e;fill-opacity:1;stroke:#541f3e;stroke-width:2.90001;stroke-linecap:round;stroke-linejoin:round;stroke-miterlimit:4;stroke-dasharray:none;stroke-opacity:1"
     d="m 194.89755,78.613011 c -2.35221,-0.981682 -4.84344,-1.68922 -7.38948,-1.808665 -3.10911,-0.145861 -6.22019,0.594016 -9.06633,1.853908 -2.84614,1.259892 -5.44286,3.028321 -7.86345,4.984996 -4.15807,3.361161 -7.82777,7.289171 -11.24345,11.402574 -4.51592,5.438386 -8.63859,11.269666 -11.52689,17.721586 -3.07487,6.86868 -4.70561,14.52215 -3.68344,21.97793 0.77352,5.64213 3.03664,11.00709 6.02531,15.85474 2.98866,4.84766 6.695,9.21261 10.55013,13.40426 4.65307,5.05925 9.59741,9.93904 15.40348,13.61824 3.25812,2.06461 6.86862,3.76236 10.71545,4.04501 3.14835,0.23133 6.31896,-0.50482 9.20187,-1.7911 2.8829,-1.28627 5.49819,-3.10848 7.94361,-5.10487 5.05531,-4.12706 9.44419,-9.02738 13.32654,-14.27296 5.27414,-7.12608 9.69703,-15.06164 11.55261,-23.7308 1.63364,-7.63225 1.19504,-15.73408 -1.50687,-23.05663 -2.89114,-7.8354 -8.21062,-14.527359 -13.87091,-20.66847 -5.35512,-5.810014 -11.27626,-11.386497 -18.56818,-14.429749 z"
     id="path10542"
     inkscape:path-effect="#path-effect10546"
     inkscape:original-d="m 194.89755,78.613011 c -7.81531,-5.349963 -5.21101,-1.627341 -7.38948,-1.808665 -2.17852,-0.181321 -12.23989,4.368488 -16.92978,6.838904 -4.68995,2.470409 -7.1116,7.71865 -11.24345,11.402574 -4.13183,3.68391 -8.06479,11.700516 -11.52689,17.721586 -3.46214,6.02104 -2.45371,14.6535 -3.68344,21.97793 -1.22975,7.32443 11.0522,19.50755 16.57544,29.259 5.52325,9.75143 8.31759,8.18148 15.40348,13.61824 7.0859,5.43676 7.70363,3.7769 10.71545,4.04501 3.01178,0.26812 12.571,-4.33258 17.14548,-6.89597 4.57446,-2.5634 9.14274,-9.95674 13.32654,-14.27296 4.18384,-4.31623 7.70366,-15.81897 11.55261,-23.7308 3.84896,-7.9118 -1.00268,-15.36955 -1.50687,-23.05663 -0.5042,-7.68706 -37.59065,2.06303 -13.87091,-20.66847 6.19986,-5.941547 -10.75294,-9.079785 -18.56818,-14.429749 z"
     sodipodi:nodetypes="sssssssssssssss" />
  <path
     class="cls-4"
     d="M174.94 132.78h-14.6a34.54 34.54 0 0 0 3.18 10.91c3.76-1.29 9.55-4.33 11.42-10.91z"
     id="path206"
     style="fill:#541f3e" />
  <path
     class="cls-4"
     id="polygon220"
     style="fill:#541f3e"
     d="M543.35 374.91h-92.23l30.87 70.24h30.49z"
     transform="translate(-310.72 -175.39)" />
  <path
     class="cls-4"
     d="M310.46 286.69h61.74v-76c-38.36 0-61.74 31.1-61.74 69.46z"
     id="path222"
     style="fill:#541f3e" />
  <path
     class="cls-4"
     d="M62.28 286.68H.58v-76c38.36 0 61.74 31.1 61.74 69.46z"
     id="path224"
     style="fill:#541f3e" />
  <path
     class="cls-4"
     id="polygon226"
     style="fill:#541f3e"
     transform="translate(-310.72 -175.39)"
     d="m311.3 513.47 27.01 30.1h317.6l27.01-27.84v-57.05H311.3z" />
  <text
     xml:space="preserve"
     style="font-style:normal;font-variant:normal;font-weight:normal;font-stretch:normal;font-size:23.5563px;line-height:1.25;font-family:'Franklin Gothic Heavy';-inkscape-font-specification:'Franklin Gothic Heavy, Normal';font-variant-ligatures:normal;font-variant-caps:normal;font-variant-numeric:normal;font-variant-east-asian:normal;letter-spacing:3.77px;fill:#009e87;fill-opacity:1;stroke-width:0.999994"
     x="75.165306"
     y="354.82172"
     id="text4339"><tspan
       sodipodi:role="line"
       id="tspan4337"
       x="75.165306"
       y="354.82172"
       style="font-style:normal;font-variant:normal;font-weight:normal;font-stretch:normal;font-size:23.5563px;font-family:'Franklin Gothic Heavy';-inkscape-font-specification:'Franklin Gothic Heavy, Normal';font-variant-ligatures:normal;font-variant-caps:normal;font-variant-numeric:normal;font-variant-east-asian:normal;fill:#009e87;fill-opacity:1;stroke-width:0.999994">FOOTBALL CLUB</tspan></text>
  <path
     class="cls-5"
     transform="scale(-1)"
     id="rect228"
     style="fill:#009e87"
     d="M-356.76-322.65h340.75v39.75h-340.75z" />
  <path
     class="cls-3"
     transform="scale(-1)"
     id="rect230"
     style="fill:#fff"
     d="M-356.77-322.65h42.45v39.75h-42.45z" />
  <path
     class="cls-4"
     id="polygon232"
     style="fill:#541f3e"
     transform="translate(-310.72 -175.39)"
     d="m530.93 477.34-10.57-15.29-10.57 15.28 10.57 16.87z" />
  <path
     class="cls-4"
     id="polygon234"
     style="fill:#541f3e"
     transform="translate(-310.72 -175.39)"
     d="m573.12 477.34-10.57-15.29-10.57 15.28 10.57 16.87z" />
  <path
     class="cls-4"
     id="polygon236"
     style="fill:#541f3e"
     transform="translate(-310.72 -175.39)"
     d="m615.3 477.34-10.56-15.29-10.57 15.28 10.57 16.87z" />
  <path
     class="cls-5"
     id="polygon238"
     style="fill:#009e87"
     transform="translate(-310.72 -175.39)"
     d="m657.49 477.34-10.57-15.29-10.56 15.28 10.57 16.87z" />
  <path
     class="cls-4"
     id="polygon240"
     style="fill:#541f3e"
     transform="translate(-310.72 -175.39)"
     d="m362.17 477.34-10.57-15.29-10.57 15.28 10.57 16.87z" />
  <path
     class="cls-4"
     id="polygon242"
     style="fill:#541f3e"
     transform="translate(-310.72 -175.39)"
     d="m404.36 477.34-10.57-15.29-10.57 15.28 10.57 16.87z" />
  <path
     class="cls-4"
     id="polygon244"
     style="fill:#541f3e"
     transform="translate(-310.72 -175.39)"
     d="m446.55 477.34-10.57-15.29-10.57 15.28 10.57 16.87z" />
  <path
     class="cls-4"
     id="polygon246"
     style="fill:#541f3e"
     transform="translate(-310.72 -175.39)"
     d="m488.74 477.34-10.57-15.29-10.57 15.28 10.57 16.87z" />
  <path
     class="cls-3"
     d="M232.68 155.91h10.18a44.56 44.56 0 0 1 44.42 44.38v63.32h-21v-66.57s.34-25.52-33.6-41.13z"
     id="path248"
     style="fill:#fff" />
  <path
     class="cls-4"
     d="M132.63 155.91h-10.18a44.54 44.54 0 0 0-44.37 44.38v63.32H99v-66.57s-.31-25.52 33.63-41.13z"
     id="path250"
     style="fill:#541f3e" />
  <path
     class="cls-5"
     d="m12.71 90.23 40.88 27.62.9 4.9-1.5 2.21.22 1.13 5.22 3.52-3.94 5.84-5.21-3.53-1.13.22-1.49 2.21-4.92 1.06L.86 107.79l-.86-5 7.84-11.6zm-1.43 8.54-3 4.48.22 1.13 33.58 22.69 1.13-.22 3-4.48-.22-1.13-33.58-22.69z"
     id="path252"
     style="fill:#009e87" />
  <path
     class="cls-5"
     d="m47.88 53.36 33.26 36.45-.28 5-10.4 9.49-4.92-.23-33.26-36.46-3-2 6.45-5.89 1.69 3.17 30.32 33.22 1.15.05 4.05-3.7v-1.15L42.68 58.1l-3-2 6.52-5.94z"
     id="path254"
     style="fill:#009e87" />
  <path
     class="cls-5"
     d="m97.28 82.47-.92-3.48-24.08-43.13-2.44-2.55 18.44-10.29 4.89 6.17-3.57 1.06-8.79 4.92-.32 1.11 7.81 14 1.11.32 2.45-1.37 2.61-2.48 4.3 7.7-3.48.92-2.45 1.37-.32 1.11 7.76 13.87 1.11.31 8.79-4.91 2.78-2.48 2.76 7.53z"
     id="path256"
     style="fill:#009e87" />
  <path
     class="cls-5"
     d="m130.6 65.95-.11-3.59-13.74-47.46-1.8-3L135.28 6l3.37 7.13-3.71.22-9.68 2.8-.55 1 4.44 15.37 1 .56 2.71-.78 3.09-1.83 2.46 8.47-3.6.12-2.7.78-.56 1 4.43 15.3 1 .55 9.68-2.8 3.26-1.79 1 8z"
     id="path258"
     style="fill:#009e87" />
  <path
     class="cls-5"
     d="m175.41 56.93-8.74.38.74-3.45-2.13-49.36-1-3.44 7.85-.34 10.15 32.63L181 3.82l-1-3.44 8.81-.38-.74 3.51 2.14 49.37 1 3.37-7.93.36-10.16-32.71 1.25 29.71z"
     id="path260"
     style="fill:#009e87" />
  <path
     class="cls-5"
     d="m236.96 60.72 17.9-46 4.58-2 13.11 5.11 2 4.51-2.58 6.63-.41 3.49-8.21-3.2 2.13-2.82 1-2.62-.47-1.06-5.11-2-1 .46-14.73 37.83.46 1.06 5.11 2 1.05-.47 1-2.55.34-3.52 8.21 3.19-2.06 2.93-2.61 6.69-4.51 2-13.11-5.1z"
     id="path262"
     style="fill:#009e87" />
  <path
     class="cls-5"
     d="m277.88 84.67-7.37-4.7 2.58-2.4 26.57-41.67 1.12-3.41 7.37 4.7-2.62 2.42-26.57 41.67z"
     id="path264"
     style="fill:#009e87" />
  <path
     class="cls-5"
     d="m341.92 75.88-2.11-3.16-3.26-3.11h-1.16l-31.11 32.46-1.72 3.08-6.36-6.1 3-1.85 31.08-32.45v-1.16l-3.37-3.23-3.18-1.92 6.39-4.85 16.31 15.64z"
     id="path266"
     style="fill:#009e87" />
  <path
     class="cls-5"
     d="m329.05 133.7-2.5 2.58-4.62-7.52 3.48-1 17.8-10.93 20.27-22.78 1.41-2.95 5.39 8.71-2.51.59-12.72 13.28 17.6-5.32 1.58-2.1 5.43 8.84-3.59.11-29.43 7.71z"
     id="path268"
     style="fill:#009e87" />
  <path
     style="fill:none;stroke:#cd623d;stroke-width:4.6;stroke-linecap:round;stroke-linejoin:round;stroke-miterlimit:4;stroke-dasharray:none;stroke-opacity:1"
     d="m 191.26505,94.091446 c -1.4117,-0.701169 -2.93197,-1.232664 -4.50538,-1.327159 -1.96815,-0.118202 -3.93571,0.458089 -5.66831,1.399183 -1.73261,0.941094 -3.24951,2.235051 -4.65382,3.619061 -2.57185,2.534669 -4.80457,5.394749 -6.85514,8.366969 -2.80507,4.06583 -5.29304,8.37886 -7.02798,13.00373 -1.92474,5.13082 -2.90259,10.68649 -2.24581,16.12695 0.95932,7.94649 5.28754,15.07836 10.1061,21.46965 2.76054,3.66155 5.74903,7.20713 9.39152,9.99277 1.92609,1.473 4.11789,2.75451 6.53324,2.96815 1.99264,0.17625 4.00148,-0.39803 5.75671,-1.35762 1.75524,-0.95959 3.28032,-2.29009 4.69693,-3.7025 3.13628,-3.12698 5.80701,-6.6996 8.12523,-10.4732 3.29635,-5.36581 5.91384,-11.2179 7.04364,-17.41317 1.02327,-5.61112 0.79407,-11.47806 -0.91874,-16.91847 -1.74676,-5.54821 -4.96587,-10.51367 -8.45712,-15.16609 -3.13056,-4.17177 -6.64978,-8.268098 -11.32107,-10.588254 z"
     id="path1586"
     inkscape:path-effect="#path-effect1588"
     inkscape:original-d="m 191.26505,94.091446 c -4.765,-3.92569 -3.17715,-1.194108 -4.50538,-1.327159 -1.32824,-0.13305 -7.46268,3.205506 -10.32213,5.018244 -2.85946,1.812735 -4.33596,5.663779 -6.85514,8.366969 -2.51918,2.70318 -4.91713,8.5856 -7.02798,13.00373 -2.11086,4.41812 -1.49603,10.75244 -2.24581,16.12695 -0.74976,5.37452 6.73857,14.31424 10.1061,21.46965 3.36753,7.15539 5.07124,6.00338 9.39152,9.99277 4.32029,3.98938 4.69693,2.77142 6.53324,2.96815 1.8363,0.19674 7.66457,-3.17916 10.45364,-5.06012 2.78907,-1.88097 5.57435,-7.30604 8.12523,-10.4732 2.55088,-3.16717 4.69693,-11.60764 7.04364,-17.41317 2.34672,-5.80552 -0.61133,-11.27785 -0.91874,-16.91847 -0.30741,-5.6406 -22.9191,1.51381 -8.45712,-15.16609 3.78007,-4.35979 -6.55609,-6.662561 -11.32107,-10.588254 z"
     sodipodi:nodetypes="sssssssssssssss" />
  <path
     style="fill:none;stroke:#cd623d;stroke-width:2.9;stroke-linecap:round;stroke-linejoin:miter;stroke-miterlimit:4;stroke-dasharray:none;stroke-opacity:1"
     d="m 181.51371,115.4783 9.05006,-0.0345"
     id="path2062"
     inkscape:path-effect="#path-effect2064"
     inkscape:original-d="m 181.51371,115.4783 c 3.01769,-0.0101 6.03438,-0.0219 9.05006,-0.0345" />
  <path
     style="fill:none;stroke:#cd623d;stroke-width:2.9;stroke-linecap:round;stroke-linejoin:miter;stroke-miterlimit:4;stroke-dasharray:none;stroke-opacity:1"
     d="m 181.51371,121.27275 9.05006,-0.0345"
     id="path2099"
     inkscape:path-effect="#path-effect2103"
     inkscape:original-d="m 181.51371,121.27275 c 3.01769,-0.0101 6.03438,-0.0219 9.05006,-0.0345" />
  <path
     style="fill:none;stroke:#cd623d;stroke-width:2.9;stroke-linecap:round;stroke-linejoin:miter;stroke-miterlimit:4;stroke-dasharray:none;stroke-opacity:1"
     d="m 181.51371,127.23965 9.05006,-0.0345"
     id="path2185"
     inkscape:path-effect="#path-effect2189"
     inkscape:original-d="m 181.51371,127.23965 c 3.01769,-0.01 6.03438,-0.0219 9.05006,-0.0345" />
  <path
     style="fill:none;stroke:#cd623d;stroke-width:2.9;stroke-linecap:round;stroke-linejoin:miter;stroke-miterlimit:4;stroke-dasharray:none;stroke-opacity:1"
     d="m 181.51371,133.0341 9.05006,-0.0345"
     id="path2191"
     inkscape:path-effect="#path-effect2195"
     inkscape:original-d="m 181.51371,133.0341 c 3.01769,-0.0101 6.03438,-0.0219 9.05006,-0.0345" />
  <path
     style="fill:none;stroke:#cd623d;stroke-width:2.9;stroke-linecap:round;stroke-linejoin:miter;stroke-miterlimit:4;stroke-dasharray:none;stroke-opacity:1"
     d="m 181.51371,138.75957 9.05006,-0.0345"
     id="path2197"
     inkscape:path-effect="#path-effect2201"
     inkscape:original-d="m 181.51371,138.75957 c 3.01769,-0.0101 6.03438,-0.0219 9.05006,-0.0345" />
  <path
     style="fill:none;stroke:#cd623d;stroke-width:2.9;stroke-linecap:round;stroke-linejoin:miter;stroke-miterlimit:4;stroke-dasharray:none;stroke-opacity:1"
     d="m 181.51371,144.79545 9.05006,-0.0345"
     id="path2203"
     inkscape:path-effect="#path-effect2207"
     inkscape:original-d="m 181.51371,144.79545 c 3.01769,-0.01 6.03438,-0.0219 9.05006,-0.0345" />
  <path
     style="fill:none;stroke:#cd623d;stroke-width:2.9;stroke-linecap:butt;stroke-linejoin:miter;stroke-miterlimit:4;stroke-dasharray:none;stroke-opacity:1"
     d="m 186.14665,115.53314 0.0437,29.31519"
     id="path2242"
     inkscape:path-effect="#path-effect2244"
     inkscape:original-d="m 186.14665,115.53314 c 0.0156,9.77285 0.0301,19.54458 0.0437,29.31519" />
</svg>
