<?xml version="1.0" encoding="UTF-8" standalone="no"?>
<svg
   id="Layer_1"
   data-name="Layer 1"
   version="1.1"
   width="379.25"
   height="379.32257"
   sodipodi:docname="CLE.svg"
   inkscape:version="1.1.1 (3bf5ae0d25, 2021-09-20)"
   xmlns:inkscape="http://www.inkscape.org/namespaces/inkscape"
   xmlns:sodipodi="http://sodipodi.sourceforge.net/DTD/sodipodi-0.dtd"
   xmlns:xlink="http://www.w3.org/1999/xlink"
   xmlns="http://www.w3.org/2000/svg"
   xmlns:svg="http://www.w3.org/2000/svg">
  <sodipodi:namedview
     id="namedview89"
     pagecolor="#ffffff"
     bordercolor="#666666"
     borderopacity="1.0"
     inkscape:pageshadow="2"
     inkscape:pageopacity="0.0"
     inkscape:pagecheckerboard="0"
     showgrid="false"
     showguides="true"
     inkscape:guide-bbox="true"
     inkscape:zoom="3.809423"
     inkscape:cx="167.08567"
     inkscape:cy="293.35151"
     inkscape:window-width="1920"
     inkscape:window-height="1017"
     inkscape:window-x="-8"
     inkscape:window-y="-8"
     inkscape:window-maximized="1"
     inkscape:current-layer="Layer_1"
     fit-margin-top="0"
     fit-margin-left="0"
     fit-margin-right="0"
     fit-margin-bottom="0">
    <sodipodi:guide
       position="191.63007,134.6661"
       orientation="1,0"
       id="guide906" />
  </sodipodi:namedview>
  <defs
     id="defs64">
    <linearGradient
       id="linear-gradient"
       x1="423.57999"
       y1="1285.42"
       x2="474.57999"
       y2="1285.42"
       gradientUnits="userSpaceOnUse">
      <stop
         offset="0"
         stop-color="#432366"
         id="stop4" />
      <stop
         offset="1"
         stop-color="#432366"
         stop-opacity="0"
         id="stop6" />
    </linearGradient>
    <linearGradient
       id="linear-gradient-2"
       x1="279.20001"
       y1="558.84998"
       x2="279.20001"
       y2="450.81"
       xlink:href="#linear-gradient"
       gradientTransform="translate(-90,-310.985)" />
    <linearGradient
       id="linear-gradient-3"
       x1="342.17999"
       y1="400.48001"
       x2="358.64001"
       y2="400.48001"
       gradientUnits="userSpaceOnUse">
      <stop
         offset="0"
         stop-color="#f8e4cd"
         stop-opacity="0"
         id="stop10" />
      <stop
         offset="1"
         stop-color="#f8e4cd"
         id="stop12" />
    </linearGradient>
    <linearGradient
       id="linear-gradient-5"
       x1="740.29999"
       y1="644.34003"
       x2="740.29999"
       y2="585.21997"
       gradientTransform="rotate(-90,740.3,614.78)"
       gradientUnits="userSpaceOnUse">
      <stop
         offset="0"
         stop-color="#432366"
         id="stop15" />
      <stop
         offset=".18"
         stop-color="#432366"
         stop-opacity=".88"
         id="stop17" />
      <stop
         offset=".52"
         stop-color="#432366"
         stop-opacity=".56"
         id="stop19" />
      <stop
         offset=".96"
         stop-color="#432366"
         stop-opacity=".05"
         id="stop21" />
      <stop
         offset="1"
         stop-color="#432366"
         stop-opacity="0"
         id="stop23" />
    </linearGradient>
    <linearGradient
       id="linear-gradient-6"
       x1="794.51001"
       y1="491.29001"
       x2="849.46997"
       y2="491.29001"
       gradientUnits="userSpaceOnUse">
      <stop
         offset="0"
         stop-color="#dcbba4"
         stop-opacity="0"
         id="stop26" />
      <stop
         offset=".02"
         stop-color="#dcbba4"
         stop-opacity=".04"
         id="stop28" />
      <stop
         offset=".17"
         stop-color="#debda5"
         stop-opacity=".29"
         id="stop30" />
      <stop
         offset=".32"
         stop-color="#dfbfa5"
         stop-opacity=".51"
         id="stop32" />
      <stop
         offset=".46"
         stop-color="#e0c0a5"
         stop-opacity=".69"
         id="stop34" />
      <stop
         offset=".6"
         stop-color="#e1c1a6"
         stop-opacity=".82"
         id="stop36" />
      <stop
         offset=".74"
         stop-color="#e2c1a6"
         stop-opacity=".92"
         id="stop38" />
      <stop
         offset=".87"
         stop-color="#e2c2a6"
         stop-opacity=".98"
         id="stop40" />
      <stop
         offset=".99"
         stop-color="#e2c2a6"
         id="stop42" />
    </linearGradient>
    <linearGradient
       id="linear-gradient-7"
       x1="631.63"
       y1="491.29001"
       x2="686.59003"
       y2="491.29001"
       gradientUnits="userSpaceOnUse">
      <stop
         offset=".01"
         stop-color="#e2c2a6"
         id="stop45" />
      <stop
         offset=".13"
         stop-color="#e2c2a6"
         stop-opacity=".98"
         id="stop47" />
      <stop
         offset=".26"
         stop-color="#e2c1a6"
         stop-opacity=".92"
         id="stop49" />
      <stop
         offset=".4"
         stop-color="#e1c1a6"
         stop-opacity=".82"
         id="stop51" />
      <stop
         offset=".54"
         stop-color="#e0c0a5"
         stop-opacity=".69"
         id="stop53" />
      <stop
         offset=".68"
         stop-color="#dfbfa5"
         stop-opacity=".51"
         id="stop55" />
      <stop
         offset=".83"
         stop-color="#debda5"
         stop-opacity=".29"
         id="stop57" />
      <stop
         offset=".98"
         stop-color="#dcbba4"
         stop-opacity=".04"
         id="stop59" />
      <stop
         offset="1"
         stop-color="#dcbba4"
         stop-opacity="0"
         id="stop61" />
    </linearGradient>
    <linearGradient
       xlink:href="#linear-gradient-3"
       id="linearGradient372"
       gradientUnits="userSpaceOnUse"
       x1="342.17999"
       y1="400.48001"
       x2="358.64001"
       y2="400.48001"
       gradientTransform="translate(-90,-310.985)" />
    <linearGradient
       xlink:href="#linear-gradient-3"
       id="linearGradient374"
       gradientUnits="userSpaceOnUse"
       x1="342.17999"
       y1="400.48001"
       x2="358.64001"
       y2="400.48001"
       gradientTransform="translate(-90,-310.985)" />
    <style
       id="style2">.cls-1{fill:#231f20}.cls-2,.cls-7{fill:#f8e4cd}.cls-3{fill:#69625b;opacity:.4}.cls-4{fill:#401d5a}.cls-7{opacity:.2}.cls-8{fill:#e2c2a6}.cls-10{fill:none;stroke:#e2c2a6;stroke-miterlimit:10;stroke-width:3.72px}.cls-11{fill:url(#linear-gradient-3)}</style>
  </defs>
  <rect
     class="cls-2"
     x="74.524185"
     y="340.72256"
     width="233.77086"
     height="38.599998"
     rx="13.924752"
     id="rect184"
     style="fill:#f8e4cd;stroke-width:1"
     ry="13.924751" />
  <g
     aria-label="FOOTBALL CLUB"
     id="text8492"
     style="font-size:15.9357px;line-height:1.25;font-family:'CheGuevara Barry';-inkscape-font-specification:'CheGuevara Barry';letter-spacing:5.76px;word-spacing:0px;fill:#401d5a;stroke-width:1.6">
    <path
       d="m 88.394954,366.09027 h -6.575032 v -2.59111 h 1.136041 v -5.6413 h -1.174947 v -2.5911 h 10.660112 v 3.56374 H 89.56212 v -0.97264 h -2.419923 v 1.66516 h 1.867465 v 2.20205 h -1.867465 v 1.77409 h 1.252757 z"
       style="font-family:'Rockwell Extra Bold';-inkscape-font-specification:'Rockwell Extra Bold, Normal'"
       id="path888" />
    <path
       d="m 103.9358,360.65128 q 0,1.80522 0.35015,2.43548 0.33459,0.63806 1.05045,0.63806 0.70808,0 1.05823,-0.61471 0.35015,-0.62249 0.35015,-2.45883 0,-1.78187 -0.34237,-2.4277 -0.33459,-0.63806 -1.06601,-0.63806 -0.7003,0 -1.05045,0.61471 -0.35015,0.61471 -0.35015,2.45105 z m -4.699785,0 q 0,-1.35391 0.661394,-2.62223 0.653611,-1.26054 2.030871,-2.12424 0.49021,-0.30347 1.00376,-0.48243 0.52133,-0.17897 1.12826,-0.27234 0.60693,-0.10116 1.2761,-0.10116 2.91013,0 4.50526,1.70407 0.79367,0.84036 1.19829,1.82077 0.40462,0.98042 0.40462,2.07756 0,2.2643 -1.6496,3.93724 -1.64959,1.67294 -4.45857,1.67294 -2.7156,0 -4.4041,-1.57179 -1.696285,-1.564 -1.696285,-4.03839 z"
       style="font-family:'Rockwell Extra Bold';-inkscape-font-specification:'Rockwell Extra Bold, Normal'"
       id="path890" />
    <path
       d="m 123.48392,360.65128 q 0,1.80522 0.35015,2.43548 0.33459,0.63806 1.05045,0.63806 0.70808,0 1.05823,-0.61471 0.35015,-0.62249 0.35015,-2.45883 0,-1.78187 -0.34237,-2.4277 -0.33459,-0.63806 -1.06601,-0.63806 -0.7003,0 -1.05045,0.61471 -0.35015,0.61471 -0.35015,2.45105 z m -4.69979,0 q 0,-1.35391 0.6614,-2.62223 0.65361,-1.26054 2.03086,-2.12424 0.49021,-0.30347 1.00377,-0.48243 0.52133,-0.17897 1.12826,-0.27234 0.60692,-0.10116 1.2761,-0.10116 2.91013,0 4.50526,1.70407 0.79367,0.84036 1.19829,1.82077 0.40461,0.98042 0.40461,2.07756 0,2.2643 -1.64959,3.93724 -1.64959,1.67294 -4.45857,1.67294 -2.71561,0 -4.40411,-1.57179 -1.69628,-1.564 -1.69628,-4.03839 z"
       style="font-family:'Rockwell Extra Bold';-inkscape-font-specification:'Rockwell Extra Bold, Normal'"
       id="path892" />
    <path
       d="m 145.8488,366.09027 h -6.07705 v -2.59111 h 0.93374 v -5.6413 h -1.24498 v 1.96862 h -2.03087 v -4.55972 h 10.73014 v 4.55972 h -2.03086 v -1.96862 h -1.2372 v 5.6413 h 0.95708 z"
       style="font-family:'Rockwell Extra Bold';-inkscape-font-specification:'Rockwell Extra Bold, Normal'"
       id="path894" />
    <path
       d="m 160.36254,361.58501 v 2.13202 h 0.94151 q 0.90261,0 1.29945,-0.23343 0.38905,-0.23343 0.38905,-0.8248 0,-0.55245 -0.35015,-0.81701 -0.35015,-0.25678 -1.35391,-0.25678 z m 0,-3.94502 v 1.9764 h 0.92595 q 0.94151,0 1.2372,-0.27234 0.28012,-0.27233 0.28012,-0.71586 0,-0.38127 -0.25678,-0.68473 -0.25678,-0.30347 -1.40838,-0.30347 z m 0.99598,8.45028 h -6.12373 v -2.59111 h 0.94152 v -5.6413 h -0.94152 v -2.5911 h 6.61394 q 1.94528,0 3.01129,0.22565 1.05045,0.23343 1.64959,0.92595 0.59915,0.70808 0.59915,1.64959 0,0.91817 -0.56802,1.46285 -0.58359,0.56024 -1.41617,0.77811 1.14383,0.34237 1.75853,1.05823 0.62249,0.73142 0.62249,1.64181 0,1.08936 -0.7003,1.85191 -0.7003,0.75476 -1.92193,0.9882 -1.20607,0.24121 -3.52484,0.24121 z"
       style="font-family:'Rockwell Extra Bold';-inkscape-font-specification:'Rockwell Extra Bold, Normal'"
       id="path896" />
    <path
       d="m 179.07029,358.01349 -1.01933,2.99572 h 1.9375 z m -1.01933,8.07678 h -4.28738 v -2.59111 h 0.82479 l 2.03087,-5.6413 h -0.87148 v -2.5911 h 7.7811 v 2.5911 h -0.87148 l 2.06977,5.6413 h 0.79367 v 2.59111 h -5.64908 v -2.37324 h 0.9493 l -0.4124,-1.36169 h -2.77007 l -0.47465,1.36169 h 0.88704 z"
       style="font-family:'Rockwell Extra Bold';-inkscape-font-specification:'Rockwell Extra Bold, Normal'"
       id="path898" />
    <path
       d="m 202.32221,366.09027 h -10.30218 v -2.59111 h 0.97264 v -5.6413 h -0.97264 v -2.5911 h 6.18598 v 2.5911 h -1.02711 v 5.6413 h 2.55999 v -1.73518 h 2.58332 z"
       style="font-family:'Rockwell Extra Bold';-inkscape-font-specification:'Rockwell Extra Bold, Normal'"
       id="path900" />
    <path
       d="m 219.20919,366.09027 h -10.30218 v -2.59111 h 0.97264 v -5.6413 h -0.97264 v -2.5911 h 6.18598 v 2.5911 h -1.02711 v 5.6413 h 2.55998 v -1.73518 h 2.58333 z"
       style="font-family:'Rockwell Extra Bold';-inkscape-font-specification:'Rockwell Extra Bold, Normal'"
       id="path902" />
    <path
       d="m 244.26831,361.32045 2.80897,0.9882 q -0.35793,1.73519 -1.64181,2.84011 -1.29944,1.1127 -3.57931,1.1127 -3.11244,0 -4.60641,-1.62626 -1.50175,-1.61846 -1.50175,-3.9528 0,-2.34989 1.47063,-3.9917 1.47062,-1.64182 3.82052,-1.64182 1.90637,0 3.10466,0.94152 v -0.72364 h 2.59889 v 3.9528 h -2.70005 q -0.21009,-0.73921 -0.70808,-1.16717 -0.49799,-0.42018 -1.13604,-0.42018 -1.75853,0 -1.75853,3.02685 0,3.03463 1.82078,3.03463 1.59513,0 2.00753,-2.37324 z"
       style="font-family:'Rockwell Extra Bold';-inkscape-font-specification:'Rockwell Extra Bold, Normal'"
       id="path904" />
    <path
       d="m 264.37666,366.09027 h -10.30218 v -2.59111 h 0.97264 v -5.6413 h -0.97264 v -2.5911 h 6.18598 v 2.5911 h -1.02711 v 5.6413 h 2.55999 v -1.73518 h 2.58332 z"
       style="font-family:'Rockwell Extra Bold';-inkscape-font-specification:'Rockwell Extra Bold, Normal'"
       id="path906" />
    <path
       d="m 271.69288,357.85786 h -0.83257 v -2.5911 h 5.54014 v 2.5911 h -0.51355 v 3.64934 q 0,1.30723 0.24899,1.78187 0.249,0.46687 0.89483,0.46687 0.5369,0 0.77811,-0.39684 0.24122,-0.38905 0.24122,-1.59512 v -3.90612 h -0.54468 v -2.5911 h 4.06952 v 2.5911 h -0.85593 v 3.92168 q 0,1.50175 -0.43574,2.45883 -0.43574,0.94929 -1.44728,1.48619 -1.01155,0.5369 -2.48996,0.5369 -1.1905,0 -2.10867,-0.28791 -0.93374,-0.28012 -1.47841,-0.85592 -0.54468,-0.56802 -0.80146,-1.37725 -0.26456,-0.78589 -0.26456,-2.41214 z"
       style="font-family:'Rockwell Extra Bold';-inkscape-font-specification:'Rockwell Extra Bold, Normal'"
       id="path908" />
    <path
       d="m 293.59868,361.58501 v 2.13202 h 0.94152 q 0.90261,0 1.29944,-0.23343 0.38906,-0.23343 0.38906,-0.8248 0,-0.55245 -0.35015,-0.81701 -0.35015,-0.25678 -1.35391,-0.25678 z m 0,-3.94502 v 1.9764 h 0.92596 q 0.94151,0 1.23719,-0.27234 0.28012,-0.27233 0.28012,-0.71586 0,-0.38127 -0.25678,-0.68473 -0.25677,-0.30347 -1.40838,-0.30347 z m 0.99599,8.45028 h -6.12373 v -2.59111 h 0.94151 v -5.6413 h -0.94151 v -2.5911 h 6.61394 q 1.94527,0 3.01128,0.22565 1.05045,0.23343 1.6496,0.92595 0.59914,0.70808 0.59914,1.64959 0,0.91817 -0.56802,1.46285 -0.58358,0.56024 -1.41616,0.77811 1.14382,0.34237 1.75853,1.05823 0.62249,0.73142 0.62249,1.64181 0,1.08936 -0.7003,1.85191 -0.7003,0.75476 -1.92193,0.9882 -1.20608,0.24121 -3.52484,0.24121 z"
       style="font-family:'Rockwell Extra Bold';-inkscape-font-specification:'Rockwell Extra Bold, Normal'"
       id="path910" />
  </g>
  <rect
     class="cls-2"
     x="0"
     y="253.395"
     width="379.25"
     height="92.949997"
     rx="46.48"
     id="rect186"
     style="fill:#f8e4cd"
     ry="46.48" />
  <path
     class="cls-1"
     id="rect188"
     style="fill:#231f20"
     d="M 45.26,6.1950002 H 340.2 V 304.915 H 45.26 Z" />
  <path
     id="rect190"
     style="fill:url(#linear-gradient-2)"
     d="m 45.83,139.825 h 286.74 v 108.03 H 45.83 Z" />
  <rect
     class="cls-1"
     x="0"
     y="247.19501"
     width="379.25"
     height="92.949997"
     rx="46.48"
     id="rect192"
     style="fill:#231f20"
     ry="46.48" />
  <path
     class="cls-7"
     d="m 141.54,87.635 a 117.77,117.77 0 0 0 198.66,85.67 V 6.1950002 H 174.3 A 117.41,117.41 0 0 0 141.54,87.635 Z"
     id="path194"
     style="opacity:0.2;fill:#f8e4cd" />
  <circle
     class="cls-7"
     cx="121.441"
     cy="245.37199"
     r="80.660004"
     transform="rotate(-45)"
     id="circle196"
     style="opacity:0.2;fill:#f8e4cd" />
  <circle
     class="cls-7"
     cx="121.441"
     cy="245.37199"
     r="62.07"
     transform="rotate(-45)"
     id="circle198"
     style="opacity:0.2;fill:#f8e4cd" />
  <circle
     class="cls-2"
     cx="259.38"
     cy="87.635002"
     r="43.48"
     id="circle200"
     style="fill:#f8e4cd" />
  <ellipse
     class="cls-8"
     cx="259.82001"
     cy="111.505"
     rx="5.6300001"
     ry="7.77"
     id="ellipse202"
     style="fill:#e2c2a6" />
  <ellipse
     class="cls-8"
     cx="285.23001"
     cy="95.574997"
     rx="10.66"
     ry="14.69"
     id="ellipse204"
     style="fill:#e2c2a6" />
  <ellipse
     class="cls-8"
     cx="276.48001"
     cy="68.824997"
     rx="6.4299998"
     ry="7.5100002"
     id="ellipse206"
     style="fill:#e2c2a6" />
  <path
     id="polyline208"
     style="fill:none;stroke:#231f20;stroke-width:12.39px;stroke-linecap:round;stroke-linejoin:round"
     d="M 43.43,253.745 V 6.1950002 H 340.2 V 253.745" />
  <path
     class="cls-1"
     id="polyline210"
     style="fill:#231f20"
     d="m 44.65,226.155 64.44,4.96 17.35,17.35 87.99,-19.83 125.16,40.9 -296.18,-7.44" />
  <path
     class="cls-3"
     d="m 44.36,99.455 h 150.71 c 0,0 -45.77,-15.63 -101.59,-11.16 0,0 65.67,-21.9 153,-10 0,0 -102.71,-34.61 -199.84,6.7"
     id="path212"
     style="opacity:0.4;fill:#69625b" />
  <path
     class="cls-3"
     d="m 43.12,53.515 h 80.47 a 149.28,149.28 0 0 0 -54.24,-6 c 0,0 35.06,-11.69 81.66,-5.37 0,0 -54.84,-18.47 -106.7,3.58"
     id="path214"
     style="opacity:0.4;fill:#69625b" />
  <path
     class="cls-3"
     d="m 51.12,193.625 h 80.47 a 149.23,149.23 0 0 0 -54.24,-6 c 0,0 35.06,-11.61 81.65,-5.32 0,0 -54.83,-18.48 -106.69,3.57"
     id="path216"
     style="opacity:0.4;fill:#69625b" />
  <path
     class="cls-1"
     id="polygon218"
     style="fill:#231f20"
     d="m 334.76,74.715 -5.31,-5.31 -3.13,-3.13 -1.34,-6.26 -0.9,-10.72 -2.23,-14.75 -8.04,-3.13 -8.5,-6.26 -2.78,-1.29 -4.29,-0.08 9.31,8.97 8.94,8.49 3.57,13.86 -1.79,8.04 -4.91,-0.44 -4.02,-8.05 -3.58,-5.36 -8.04,-5.81 -8.94,-1.34 h -4.92 l -3.13,2.23 9.83,1.79 12.97,8.94 4.91,10.28 6.71,7.15 9.38,0.89 6.9,5.56 -0.51,0.66 v 39.04 l -11.16,4.65 -12.08,0.93 -18.58,7.43 -19.52,2.79 -4.76,-1.26 h -2.89 l -4.54,-3.72 -2.89,2.89 1.65,6.2 -16.53,-2.07 -9.08,0.41 -0.83,2.89 3.72,3.72 h 13.63 l 13.22,0.23 h 9.3 l 16.73,-1.86 11.15,-6.5 12.08,-2.79 7.44,9.29 v 11.16 l -3.72,6.5 h -13.01 l -26.02,1.86 -13.95,2.79 -8.36,-2.79 -10.22,0.93 -12.08,2.79 -5.58,6.5 28.81,-3.71 7.77,6.55 -12.42,1.81 h -6.5 l -9.3,1.86 9.3,5.58 h 19.51 l 9.3,-9.3 11.15,-4.33 16.73,-2.17 27.58,4.64 4.64,27.88 -6.2,22.31 1.86,31.6 13.94,-1.86 -0.93,-191.45 -1.86,10.22 z" />
  <g
     id="_8lvMbs"
     data-name="8lvMbs"
     transform="translate(-90,-310.985)">
    <path
       d="m 313.65,447.56 c -0.11,0.08 -0.24,0.06 -0.36,0.09 a 6.15,6.15 0 0 0 -3.38,1.73 4.8,4.8 0 0 0 -1.4,3.33 6.06,6.06 0 0 0 0.76,3 c 0,0.06 0.11,0.12 0.06,0.18 -0.05,0.06 -0.12,0 -0.18,-0.05 a 5.37,5.37 0 0 0 -3.45,-0.2 7,7 0 0 0 -3.42,2 4.91,4.91 0 0 0 -1.31,2.58 4.07,4.07 0 0 0 0.44,2.49 c 0,0.08 0.09,0.17 0.14,0.26 a 0.09,0.09 0 0 1 -0.11,0 4,4 0 0 0 -2.14,-0.35 5.82,5.82 0 0 0 -2.68,0.9 4,4 0 0 0 -1.49,1.52 2.67,2.67 0 0 0 -0.05,2.49 3.84,3.84 0 0 0 0.33,0.59 c 0,0 0.09,0.08 0,0.13 -0.09,0.05 -0.09,0 -0.14,0 a 3,3 0 0 1 -0.66,-0.28 1.85,1.85 0 0 0 -1.08,-0.21 4,4 0 0 0 -0.9,0.26 6,6 0 0 0 -1.37,0.85 0.83,0.83 0 0 0 -0.25,0.5 c -0.06,0.34 -0.09,0.68 -0.16,1 a 0.93,0.93 0 0 1 -1.39,0.65 4.83,4.83 0 0 1 -0.76,-0.59 l -0.1,-0.09 a 1.15,1.15 0 0 0 -1.22,-0.24 4.22,4.22 0 0 0 -2.34,1.85 v 0.09 h -0.05 c -0.05,0 0,0 0,-0.06 l -0.06,-0.3 a 2.79,2.79 0 0 0 -2.51,-2.31 5.53,5.53 0 0 0 -4.62,1.63 3,3 0 0 0 -0.73,1.07 l -0.05,0.09 c -0.1,-0.25 -0.17,-0.52 -0.28,-0.76 a 4.64,4.64 0 0 0 -3.65,-2.84 6.3,6.3 0 0 0 -4.69,1.05 6.93,6.93 0 0 0 -1.4,1.46 l -0.41,0.49 c 0,0 -0.08,0.12 -0.15,0.11 -0.07,-0.01 -0.06,-0.11 -0.07,-0.17 a 6.08,6.08 0 0 0 -1,-2.14 5,5 0 0 0 -3.57,-2.14 6,6 0 0 0 -3.89,0.92 l -0.14,0.08 c 0,-0.08 0,-0.14 0.05,-0.21 a 11.94,11.94 0 0 1 1.32,-2.56 c 0.73,-1.13 1.43,-2.28 2.24,-3.37 a 8.36,8.36 0 0 1 4.37,-3.05 9.39,9.39 0 0 1 2.74,-0.48 9.56,9.56 0 0 1 2.85,0.47 28.14,28.14 0 0 1 3.28,1.33 23.45,23.45 0 0 0 5.4,1.79 18.16,18.16 0 0 0 2.32,0.29 h 1.69 c 0.1,0 0.1,-0.05 0.07,-0.12 a 1.82,1.82 0 0 0 -0.54,-0.82 7.83,7.83 0 0 1 -0.68,-0.73 2.46,2.46 0 0 1 -0.42,-0.8 c -0.06,-0.19 0,-0.21 0.15,-0.18 a 5.76,5.76 0 0 0 1.1,0.05 h 0.46 c 0.08,0 0.12,-0.05 0.16,-0.11 a 2.83,2.83 0 0 1 2.2,-1.28 2.43,2.43 0 0 1 0.81,0.08 0.42,0.42 0 0 0 0.4,-0.08 10.92,10.92 0 0 0 1.1,-0.94 c 0.11,-0.12 0.13,-0.12 0.17,0.05 a 2.66,2.66 0 0 1 0.1,0.75 v 1.29 a 2,2 0 0 0 0.25,0.73 c 0,0.09 0.11,0 0.16,0 a 6.19,6.19 0 0 0 1.46,-1 13.05,13.05 0 0 0 2.86,-3.58 c 0.71,-1.27 1.3,-2.6 1.94,-3.9 a 16.54,16.54 0 0 1 2.39,-3.8 9,9 0 0 1 5.16,-2.95 10.91,10.91 0 0 1 4.72,0.27 28.74,28.74 0 0 1 3.93,1.41 l 1.59,0.66 c 0,0 0.05,0.07 0.08,0.13 z"
       id="path220" />
  </g>
  <g
     id="_8lvMbs-2"
     data-name="8lvMbs"
     transform="translate(-90,-310.985)">
    <path
       d="m 334.53,385.7 a 1.66,1.66 0 0 1 -0.69,0.16 11.6,11.6 0 0 0 -6.4,3.29 9.11,9.11 0 0 0 -2.65,6.32 11.52,11.52 0 0 0 1.44,5.74 c 0.06,0.1 0.21,0.23 0.11,0.34 -0.1,0.11 -0.23,-0.05 -0.33,-0.09 a 10.18,10.18 0 0 0 -6.56,-0.38 13,13 0 0 0 -6.45,3.82 9,9 0 0 0 -2.48,4.88 7.48,7.48 0 0 0 0.83,4.71 l 0.25,0.5 a 0.15,0.15 0 0 1 -0.19,0 7.62,7.62 0 0 0 -4.07,-0.66 11.16,11.16 0 0 0 -5.09,1.7 7.67,7.67 0 0 0 -2.83,2.88 5.09,5.09 0 0 0 -0.09,4.71 7.08,7.08 0 0 0 0.64,1.14 c 0.05,0.07 0.15,0.15 0.1,0.23 -0.05,0.08 -0.19,0 -0.28,0 a 6,6 0 0 1 -1.25,-0.53 3.5,3.5 0 0 0 -2,-0.4 6.85,6.85 0 0 0 -1.71,0.5 11.9,11.9 0 0 0 -2.59,1.6 1.49,1.49 0 0 0 -0.47,1 c -0.12,0.63 -0.18,1.27 -0.31,1.91 a 1.75,1.75 0 0 1 -2.63,1.23 9.26,9.26 0 0 1 -1.45,-1.13 l -0.19,-0.15 a 2.19,2.19 0 0 0 -2.31,-0.47 8.09,8.09 0 0 0 -4.43,3.51 l -0.11,0.18 a 0.2,0.2 0 0 1 -0.09,0.07 c -0.07,0 -0.07,-0.06 -0.08,-0.11 -0.01,-0.05 -0.07,-0.38 -0.1,-0.57 a 5.31,5.31 0 0 0 -4.77,-4.39 10.5,10.5 0 0 0 -8.68,3 6.11,6.11 0 0 0 -1.39,2 1.09,1.09 0 0 1 -0.08,0.15 l -0.08,0.05 c -0.19,-0.48 -0.31,-1 -0.52,-1.45 a 8.8,8.8 0 0 0 -6.92,-5.38 12,12 0 0 0 -8.89,2 12.85,12.85 0 0 0 -2.65,2.76 c -0.26,0.31 -0.52,0.62 -0.79,0.92 -0.07,0.09 -0.14,0.24 -0.27,0.21 -0.13,-0.03 -0.12,-0.19 -0.15,-0.3 a 11.56,11.56 0 0 0 -1.81,-4.07 9.46,9.46 0 0 0 -6.77,-4.06 11.42,11.42 0 0 0 -7.39,1.76 l -0.26,0.15 h -0.06 c -0.06,-0.15 0,-0.28 0.08,-0.4 a 23.52,23.52 0 0 1 2.5,-4.86 c 1.39,-2.15 2.73,-4.33 4.25,-6.4 a 15.81,15.81 0 0 1 8.29,-5.78 17.25,17.25 0 0 1 5.19,-0.9 17.76,17.76 0 0 1 5.41,0.88 55.65,55.65 0 0 1 6.21,2.52 45.22,45.22 0 0 0 10.25,3.41 34.46,34.46 0 0 0 4.41,0.53 c 0.95,0.06 1.89,0 2.84,0 h 0.36 c 0.18,0 0.18,-0.1 0.14,-0.25 a 3.5,3.5 0 0 0 -1,-1.54 15.59,15.59 0 0 1 -1.3,-1.39 4.6,4.6 0 0 1 -0.79,-1.52 c -0.11,-0.35 -0.08,-0.4 0.28,-0.34 a 12.09,12.09 0 0 0 2.08,0.11 c 0.29,0 0.58,-0.05 0.88,-0.06 a 0.37,0.37 0 0 0 0.3,-0.21 5.34,5.34 0 0 1 4.19,-2.44 4.33,4.33 0 0 1 1.52,0.16 0.78,0.78 0 0 0 0.75,-0.15 17.93,17.93 0 0 0 2.09,-1.79 c 0.22,-0.22 0.25,-0.22 0.32,0.09 a 5.75,5.75 0 0 1 0.21,1.43 v 2.45 c 0,0.54 0.32,0.93 0.47,1.39 0.06,0.17 0.21,0 0.31,0 a 12.79,12.79 0 0 0 2.77,-1.83 25,25 0 0 0 5.43,-6.8 c 1.33,-2.41 2.45,-4.92 3.67,-7.39 a 31.53,31.53 0 0 1 4.53,-7.2 17.1,17.1 0 0 1 9.79,-5.61 20.67,20.67 0 0 1 8.95,0.52 54.57,54.57 0 0 1 7.45,2.66 l 3,1.27 c -0.04,0.04 0.06,0.05 0.11,0.16 z"
       id="path233" />
  </g>
  <path
     class="cls-2"
     d="m 66.07,310.395 a 2.32,2.32 0 0 1 0.37,2.15 4,4 0 0 1 -1.57,1.81 12.7,12.7 0 0 1 -2.93,1.43 36,36 0 0 1 -7.52,1.74 28.62,28.62 0 0 1 -3.45,0.24 24,24 0 0 0 -2.76,-1 c -0.85,-0.23 -1.67,-0.41 -2.46,-0.55 -0.79,-0.14 -1.6,-0.28 -2.4,-0.44 a 21.27,21.27 0 0 1 -2.42,-0.65 29.87,29.87 0 0 1 -5.12,-6.12 17.5,17.5 0 0 1 -2.46,-6.45 31,31 0 0 1 -0.17,-5.74 37.57,37.57 0 0 1 0.82,-6 35,35 0 0 1 1.81,-5.88 30.9,30.9 0 0 1 2.8,-5.39 13,13 0 0 1 3,-3.11 27.64,27.64 0 0 1 4.41,-2.87 26,26 0 0 1 4.85,-2 10.43,10.43 0 0 1 4.37,-0.45 13.91,13.91 0 0 0 2.66,0.07 22.88,22.88 0 0 1 3.52,0.14 9.87,9.87 0 0 1 3,0.82 2.12,2.12 0 0 1 1.3,2 2,2 0 0 1 -0.72,1.47 1.77,1.77 0 0 0 -0.72,1.26 c 0,0.09 0.08,0.13 0.24,0.1 a 1.69,1.69 0 0 1 0.45,0 0.47,0.47 0 0 1 0.3,0.17 c 0.07,0.1 0,0.3 -0.1,0.62 -0.1,0.32 -0.18,0.43 -0.27,0.61 a 6,6 0 0 1 -0.31,0.55 6,6 0 0 0 -0.31,0.55 12.32,12.32 0 0 1 -1,1.53 c -0.39,0.53 -0.76,1 -1.12,1.4 l -1.3,1.44 a 0.93,0.93 0 0 1 -1.2,0.37 4.45,4.45 0 0 1 -1.4,-1.19 c -0.5,-0.59 -1,-1.29 -1.6,-2.09 a 16.45,16.45 0 0 0 -1.88,-2.18 9,9 0 0 0 -2.19,-1.57 3.65,3.65 0 0 0 -2.46,-0.31 3.35,3.35 0 0 0 -2.63,1.23 12.12,12.12 0 0 0 -2.05,3.21 20.62,20.62 0 0 0 -1.3,4 17.33,17.33 0 0 0 -0.44,3.49 29.1,29.1 0 0 0 0.79,6.66 23,23 0 0 0 2.42,6.25 18.12,18.12 0 0 0 4.13,5 12.47,12.47 0 0 0 5.85,2.7 c 0.36,0.09 0.77,-0.09 1.22,-0.55 0.45,-0.46 0.9,-0.91 1.34,-1.36 a 10.2,10.2 0 0 1 1.12,-1.06 c 0.32,-0.25 0.53,-0.15 0.62,0.3 1,0.55 1.57,1.14 1.71,1.78 a 0.39,0.39 0 0 1 0,0.34 2.07,2.07 0 0 1 -0.27,0.41 1.93,1.93 0 0 0 -0.24,0.38 c 0,0.11 0,0.17 0.07,0.17 a 1.48,1.48 0 0 0 0.78,-0.1 l 0.86,-0.35 a 2.64,2.64 0 0 1 0.78,-0.2 0.61,0.61 0 0 1 0.58,0.24 z"
     id="path236"
     style="fill:#f8e4cd" />
  <path
     class="cls-2"
     d="m 122.91,278.765 a 4.32,4.32 0 0 1 -0.28,2.18 c -0.27,0.69 -0.59,1.39 -0.95,2.12 -0.36,0.73 -0.73,1.47 -1.1,2.22 a 6.22,6.22 0 0 0 -0.61,2.43 q -0.61,2.73 -1.23,5.67 a 36.21,36.21 0 0 0 -0.74,5.63 11.41,11.41 0 0 0 0.54,4.23 q 0.69,2.12 1.47,4.2 a 35.09,35.09 0 0 1 1.3,4.17 9.3,9.3 0 0 1 0.1,4.13 2,2 0 0 1 -1.16,1.54 6.52,6.52 0 0 1 -2.25,0.55 c -0.87,0.06 -1.77,0.1 -2.7,0.1 a 18.42,18.42 0 0 0 -2.49,0.14 c -0.1,0 -0.2,-0.19 -0.31,-0.55 -0.11,-0.36 -0.24,-0.78 -0.38,-1.23 a 12.81,12.81 0 0 1 -0.48,-1.78 q -2.17,3.15 -4.71,3.66 a 10.83,10.83 0 0 1 -6.28,-1.13 1,1 0 0 0 -0.89,0 2.92,2.92 0 0 0 -0.72,0.51 c -0.2,0.21 -0.39,0.4 -0.55,0.58 a 0.62,0.62 0 0 1 -0.44,0.28 5,5 0 0 1 -3,-1.51 30.12,30.12 0 0 1 -3.42,-3.51 32.39,32.39 0 0 1 -2.9,-4.1 9.23,9.23 0 0 1 -1.37,-3.32 1.07,1.07 0 0 1 0,-0.37 1.62,1.62 0 0 0 0,-0.38 c 0.14,-0.59 0.31,-1.19 0.51,-1.81 0.2,-0.62 0.39,-1.23 0.55,-1.84 0.16,-0.61 0.28,-1.22 0.38,-1.81 a 5.45,5.45 0 0 0 0,-1.71 11.6,11.6 0 0 0 0.58,-4.54 18.3,18.3 0 0 0 -1,-4.55 25.21,25.21 0 0 0 -2,-4.33 q -1.2,-2.08 -2.43,-3.93 a 7.32,7.32 0 0 1 0.72,-3.21 11.56,11.56 0 0 1 1.85,-2.77 15.63,15.63 0 0 1 2.49,-2.25 23.17,23.17 0 0 1 2.66,-1.68 c 0.14,0 0.2,0 0.17,0.28 a 4.94,4.94 0 0 1 -0.13,0.75 4.59,4.59 0 0 0 -0.14,0.78 c 0,0.25 0,0.38 0.1,0.38 a 5.07,5.07 0 0 0 2.09,-0.72 l 2.18,-1.23 a 7.59,7.59 0 0 1 1.92,-0.78 1,1 0 0 1 1.26,0.68 13.84,13.84 0 0 1 1.23,6 39.21,39.21 0 0 1 -0.68,6.39 c -0.41,2.16 -0.87,4.34 -1.37,6.52 a 32.27,32.27 0 0 0 -0.82,6.42 17.4,17.4 0 0 0 0.61,3.76 35.08,35.08 0 0 0 1.54,4.71 13,13 0 0 0 2.05,3.56 c 0.75,0.86 1.45,1 2.08,0.34 a 8.71,8.71 0 0 0 3.45,-3 17.62,17.62 0 0 0 2.16,-4.44 29.9,29.9 0 0 0 1.19,-5.4 c 0.25,-1.94 0.46,-3.87 0.62,-5.81 0.16,-1.94 0.29,-3.81 0.41,-5.63 0.12,-1.82 0.28,-3.46 0.51,-4.92 a 0.57,0.57 0 0 0 -0.21,-0.41 c -0.13,-0.14 -0.16,-0.25 -0.06,-0.34 a 4.23,4.23 0 0 0 0.88,-2 c 0.19,-0.87 0.37,-1.73 0.55,-2.6 a 8.11,8.11 0 0 1 0.79,-2.26 1.65,1.65 0 0 1 1.53,-0.95 1.94,1.94 0 0 1 1.27,0.58 2.59,2.59 0 0 0 1.6,0.65 c 0.18,0 0.35,-0.05 0.51,-0.28 a 3.36,3.36 0 0 0 0.41,-0.75 4.71,4.71 0 0 1 0.35,-0.68 c 0.11,-0.18 0.24,-0.23 0.37,-0.14 a 1.11,1.11 0 0 1 0.24,0.79 c 0,0.3 -0.06,0.61 -0.1,1 -0.04,0.39 -0.09,0.67 -0.14,1 a 1.46,1.46 0 0 0 0.14,0.88 18.21,18.21 0 0 0 1.54,2.57 5.23,5.23 0 0 1 1.14,2.27 z"
     id="path238"
     style="fill:#f8e4cd" />
  <path
     class="cls-2"
     d="m 182.81,312.505 a 18.38,18.38 0 0 1 -1.84,1.74 15.67,15.67 0 0 1 -2.7,1.88 12,12 0 0 1 -3,1.2 3.23,3.23 0 0 1 -2.6,-0.31 c -0.18,-0.09 -0.35,0 -0.51,0.17 a 4.78,4.78 0 0 0 -0.44,0.69 c -0.14,0.25 -0.28,0.47 -0.41,0.68 -0.13,0.21 -0.28,0.24 -0.41,0.1 a 28.23,28.23 0 0 1 -4.2,-4.78 47.42,47.42 0 0 1 -3.11,-5.16 c -0.91,-1.75 -1.77,-3.48 -2.56,-5.19 -0.79,-1.71 -1.65,-3.34 -2.56,-4.88 -0.23,-0.37 -0.45,-0.39 -0.65,-0.07 a 3.83,3.83 0 0 0 -0.48,1.43 9.67,9.67 0 0 0 -0.14,2 4.23,4.23 0 0 0 0.38,1.78 c -0.82,0.59 -1.16,1.22 -1,1.88 a 9.73,9.73 0 0 0 0.72,2.08 12.53,12.53 0 0 1 0.79,2.22 2.34,2.34 0 0 1 -0.82,2.22 11.5,11.5 0 0 1 -1.81,1.37 c -0.62,0.36 -1.21,0.75 -1.78,1.16 a 7.3,7.3 0 0 0 -1.57,1.57 8.12,8.12 0 0 0 -1.2,2.59 c 0,0.05 -0.13,0 -0.41,0 -0.28,0 -0.58,-0.16 -0.92,-0.27 -0.34,-0.11 -0.65,-0.23 -0.92,-0.34 a 2.23,2.23 0 0 0 -0.48,-0.17 6.54,6.54 0 0 1 -1.64,-1.44 17.1,17.1 0 0 1 -1.67,-2.29 21.6,21.6 0 0 1 -1.37,-2.53 6.68,6.68 0 0 1 -0.65,-2 6.36,6.36 0 0 1 0.38,-2.73 c 0.34,-1 0.76,-2.12 1.26,-3.35 0.5,-1.23 1,-2.57 1.61,-4 a 30.55,30.55 0 0 0 1.4,-4.85 c 0.18,-1 0.38,-2 0.61,-3.14 a 32,32 0 0 0 0.51,-3.73 28.74,28.74 0 0 0 0,-4.27 23.08,23.08 0 0 0 -0.82,-4.71 0.63,0.63 0 0 0 -0.62,-0.44 3.59,3.59 0 0 0 -1.09,0.1 c -0.41,0.09 -0.84,0.2 -1.3,0.34 a 4.38,4.38 0 0 1 -1.3,0.2 c -0.72,0.28 -1.16,0.35 -1.29,0.21 -0.13,-0.14 -0.1,-0.14 0,-0.27 a 12.83,12.83 0 0 0 1.5,-2.33 q 0.62,-1.23 1.23,-2.28 a 7.34,7.34 0 0 1 1.47,-1.82 3.92,3.92 0 0 1 2.29,-0.88 31.14,31.14 0 0 1 5.05,-1.27 33.88,33.88 0 0 1 6.12,-0.48 36.72,36.72 0 0 1 6.28,0.62 18,18 0 0 1 5.57,2 11.41,11.41 0 0 1 4,3.76 10.28,10.28 0 0 1 1.54,5.77 20.65,20.65 0 0 1 -0.31,3.62 10.19,10.19 0 0 1 -1.16,3.31 9.21,9.21 0 0 1 -2.35,2.74 9.82,9.82 0 0 1 -3.83,1.74 11.93,11.93 0 0 0 1,5.09 17.51,17.51 0 0 0 2.39,3.89 24.8,24.8 0 0 0 2.66,2.84 11.07,11.07 0 0 1 1.84,2 q 2.59,3.82 3.62,3.82 a 1.2,1.2 0 0 0 0.69,-0.24 c 0.23,-0.15 0.38,-0.19 0.48,-0.1 a 2.35,2.35 0 0 1 0.47,0.75 0.85,0.85 0 0 1 0.06,0.76 z m -16.39,-32 a 2.15,2.15 0 0 0 -0.48,-3.11 4,4 0 0 0 -1.64,-0.71 4.72,4.72 0 0 0 -2,0 4.89,4.89 0 0 0 -1.78,0.95 7.63,7.63 0 0 0 -1.43,1.61 10,10 0 0 0 -1,2 11.19,11.19 0 0 0 -0.62,2 5.12,5.12 0 0 1 -0.07,2.76 c -0.27,1.07 -0.54,2.12 -0.82,3.14 a 10.58,10.58 0 0 0 -0.41,2.6 c 0,0.71 0.37,1.06 1.1,1.06 a 9.57,9.57 0 0 0 4.67,-1 7.6,7.6 0 0 0 2.94,-2.73 10.34,10.34 0 0 0 1.4,-3.93 19,19 0 0 0 0.14,-4.61 z"
     id="path240"
     style="fill:#f8e4cd" />
  <path
     class="cls-2"
     d="m 234.94,280.015 a 6.1,6.1 0 0 1 0,1.94 7.26,7.26 0 0 1 -0.65,2.12 6.25,6.25 0 0 1 -1.12,1.67 1.51,1.51 0 0 1 -1.4,0.55 22.59,22.59 0 0 1 -4.77,-1.28 c -1.41,-0.55 -2.67,-1.08 -3.79,-1.6 l -2.93,-1.4 a 5.37,5.37 0 0 0 -2.29,-0.62 1.28,1.28 0 0 0 -1.23,-0.27 5.7,5.7 0 0 0 -1.81,0.61 5.17,5.17 0 0 0 -1.57,1.23 2.14,2.14 0 0 0 -0.58,1.64 2.67,2.67 0 0 0 1,1.81 10.1,10.1 0 0 0 2.53,1.57 27.06,27.06 0 0 0 3.58,1.33 c 1.35,0.42 2.75,0.8 4.2,1.17 a 15.78,15.78 0 0 1 5.57,2.56 9.32,9.32 0 0 1 3.14,3.89 8.51,8.51 0 0 1 0.45,4.89 14.35,14.35 0 0 1 -2.46,5.53 7.78,7.78 0 0 1 -1,5.33 9.61,9.61 0 0 1 -3.86,3.38 18.69,18.69 0 0 1 -5.77,1.74 36.25,36.25 0 0 1 -6.69,0.34 7.39,7.39 0 0 1 -3,0.31 17.61,17.61 0 0 1 -3.86,-0.68 15.8,15.8 0 0 1 -3.68,-1.61 6,6 0 0 1 -2.4,-2.39 0.7,0.7 0 0 0 -0.3,-0.41 1.09,1.09 0 0 0 -0.34,-0.07 0.72,0.72 0 0 0 -0.28,0 c -0.07,0 -0.1,0 -0.1,-0.11 a 3.89,3.89 0 0 1 0.38,-1.53 11.94,11.94 0 0 1 0.71,-1.4 0.76,0.76 0 0 1 0.55,-0.52 0.8,0.8 0 0 0 0.55,-0.71 9.74,9.74 0 0 0 0.65,-1.33 4,4 0 0 1 0.78,-1.34 c 0.09,-0.18 0.22,-0.12 0.38,0.17 a 0.59,0.59 0 0 0 0.65,0.38 3.18,3.18 0 0 0 1,-0.82 l 1.06,-1.2 a 6.81,6.81 0 0 1 1,-1 0.7,0.7 0 0 1 0.93,0 5.81,5.81 0 0 1 1.12,1.64 l 0.89,1.92 a 11.38,11.38 0 0 0 1,1.77 3,3 0 0 0 1.53,1.16 11.14,11.14 0 0 0 3.32,0.58 11.73,11.73 0 0 0 3.75,-0.37 5.75,5.75 0 0 0 2.77,-1.57 2.66,2.66 0 0 0 0.34,-2.94 8.13,8.13 0 0 0 -2.46,-3.45 24.05,24.05 0 0 0 -4,-2.77 q -2.19,-1.23 -4.51,-2.29 a 36.82,36.82 0 0 1 -4.1,-2.15 3.59,3.59 0 0 0 -1.7,-1.29 c -0.6,-0.19 -1.17,-0.33 -1.71,-0.45 a 4.55,4.55 0 0 1 -1.57,-0.65 3.45,3.45 0 0 1 -1.23,-2 8.1,8.1 0 0 1 -0.31,-5.81 14.81,14.81 0 0 1 3.21,-5.49 25.43,25.43 0 0 1 5.57,-4.62 30.7,30.7 0 0 1 6.92,-3.09 21.49,21.49 0 0 1 6.69,-1.13 10,10 0 0 1 5.5,1.44 c 1,0 1.45,0.26 1.47,0.64 a 3.06,3.06 0 0 1 -0.34,1.4 c -0.25,0.55 -0.49,1.1 -0.72,1.64 a 1.15,1.15 0 0 0 0.41,1.44 c -0.09,0.41 0.1,0.68 0.58,0.82 a 13.8,13.8 0 0 0 1.64,0.34 10.29,10.29 0 0 1 1.77,0.41 1.27,1.27 0 0 1 0.94,1 z"
     id="path242"
     style="fill:#f8e4cd" />
  <path
     class="cls-2"
     d="m 289.45,308.685 a 4,4 0 0 1 -0.44,2.56 10,10 0 0 1 -1.71,2.25 20.48,20.48 0 0 1 -2.36,2 c -0.86,0.64 -1.64,1.25 -2.32,1.84 a 1.38,1.38 0 0 1 -1.54,0.21 5.67,5.67 0 0 0 -1.88,-0.34 c -2.5,0 -5.05,0 -7.65,-0.07 -2.6,-0.07 -5.17,-0.07 -7.72,-0.07 a 15.78,15.78 0 0 1 -2.32,0.51 c -0.77,0.12 -1.27,0 -1.5,-0.37 0.18,0 0.29,-0.14 0.34,-0.41 0.05,-0.27 0,-0.41 -0.07,-0.41 a 5,5 0 0 0 -1.77,0.51 c -0.64,0.3 -1.27,0.56 -1.88,0.78 a 6.85,6.85 0 0 1 -1.71,0.42 1.19,1.19 0 0 1 -1.2,-0.69 2.73,2.73 0 0 1 -0.3,-2 10.37,10.37 0 0 1 0.78,-2.22 c 0.37,-0.78 0.73,-1.55 1.09,-2.33 a 7.25,7.25 0 0 0 0.69,-2.32 q 0.19,-3.13 0.27,-6.11 a 32.15,32.15 0 0 0 -0.34,-5.64 0.37,0.37 0 0 0 -0.41,-0.27 3,3 0 0 0 -0.75,0.1 6.42,6.42 0 0 1 -0.75,0.14 c -0.23,0 -0.34,0 -0.34,-0.17 a 0.69,0.69 0 0 1 0.34,-0.57 6,6 0 0 1 0.75,-0.45 c 0.27,-0.14 0.53,-0.28 0.78,-0.44 a 1,1 0 0 0 0.45,-0.65 23.48,23.48 0 0 0 0.37,-2.87 c 0.07,-1 0.13,-1.89 0.17,-2.8 0.04,-0.91 0.13,-1.79 0.24,-2.63 a 9,9 0 0 1 0.65,-2.36 2.75,2.75 0 0 1 1.57,-1.43 5.22,5.22 0 0 0 1.92,-1.3 2,2 0 0 0 0.2,-0.82 c 0,-0.41 0,-0.62 -0.2,-0.62 a 4.37,4.37 0 0 0 -1.61,0.18 c -0.52,0.16 -1.05,0.33 -1.57,0.51 a 14.57,14.57 0 0 1 -1.5,0.44 2.65,2.65 0 0 1 -1.4,0 c -0.23,-0.05 -0.3,-0.18 -0.21,-0.41 a 4.07,4.07 0 0 1 0.41,-0.75 c 0.18,-0.28 0.37,-0.56 0.55,-0.86 a 1.08,1.08 0 0 0 0.2,-0.78 c 0,-0.14 -0.13,-0.21 -0.41,-0.21 h -1.74 c -0.25,0 -0.33,0 -0.24,-0.14 a 11,11 0 0 1 2,-1.67 5.63,5.63 0 0 0 1.78,-1.88 0.59,0.59 0 0 1 0.65,-0.27 1.1,1.1 0 0 0 0.78,-0.14 6.6,6.6 0 0 0 1.51,-1.4 2.47,2.47 0 0 1 1.36,-1 7.26,7.26 0 0 1 2.84,0.17 7.29,7.29 0 0 0 2.63,0.24 83.7,83.7 0 0 0 4.68,-0.41 41.62,41.62 0 0 1 4.75,-0.27 29,29 0 0 1 3.75,0.24 c 1.23,0.16 2.44,0.26 3.62,0.31 l 2.19,-0.62 a 13,13 0 0 1 1.43,-0.17 c 0.41,0 0.6,0.1 0.55,0.38 a 3.4,3.4 0 0 1 -0.75,1.7 10.06,10.06 0 0 1 -1.47,1.44 c -0.57,0.45 -1.15,0.9 -1.74,1.33 a 10.17,10.17 0 0 0 -1.57,1.4 1.24,1.24 0 0 0 -0.24,0.68 8,8 0 0 0 0,0.86 v 0.78 a 0.41,0.41 0 0 1 -0.31,0.41 3.05,3.05 0 0 1 -2.22,-0.17 6,6 0 0 0 -2.36,-0.51 9.62,9.62 0 0 1 -2.18,-0.27 c -0.78,-0.18 -1.55,-0.33 -2.32,-0.45 a 9.39,9.39 0 0 0 -2.16,-0.07 2.21,2.21 0 0 0 -1.6,0.93 8.18,8.18 0 0 0 -1.33,2.49 9.61,9.61 0 0 0 -0.55,3 8.32,8.32 0 0 0 0.41,2.84 3.79,3.79 0 0 0 1.47,2 4.57,4.57 0 0 0 3.48,0.68 25.88,25.88 0 0 0 4,-1 32.06,32.06 0 0 1 4,-1.06 4.5,4.5 0 0 1 3.49,0.65 c 0.59,0.36 0.75,0.8 0.48,1.3 a 5.25,5.25 0 0 1 -1.3,1.47 21.62,21.62 0 0 1 -1.91,1.36 6.55,6.55 0 0 0 -1.37,1.06 10.9,10.9 0 0 0 -1.2,1.57 14.3,14.3 0 0 1 -1.26,1.71 c -0.23,0.23 -0.51,0.23 -0.85,0 a 1.9,1.9 0 0 0 -1.06,-0.34 9,9 0 0 1 -1.78,-0.21 c -0.68,-0.13 -1.37,-0.25 -2.05,-0.34 a 6.57,6.57 0 0 0 -1.88,0 1.52,1.52 0 0 0 -1.19,0.75 17.74,17.74 0 0 0 -1.1,2.84 15.06,15.06 0 0 0 -0.58,3.21 10,10 0 0 0 0.28,3.07 4.45,4.45 0 0 0 1.4,2.36 3.76,3.76 0 0 0 2.66,1 17,17 0 0 0 3.31,-0.35 l 3.52,-0.65 a 7.82,7.82 0 0 1 3.35,0.11 c -0.5,0.23 -0.57,0.48 -0.2,0.75 a 7.06,7.06 0 0 0 2.35,-0.48 c 0.89,-0.32 1.75,-0.61 2.6,-0.89 a 7.41,7.41 0 0 1 2.22,-0.41 1,1 0 0 1 1.06,1 z"
     id="path244"
     style="fill:#f8e4cd" />
  <path
     class="cls-2"
     d="m 341.16,280.015 a 6.37,6.37 0 0 1 0,1.94 7.26,7.26 0 0 1 -0.65,2.12 6.27,6.27 0 0 1 -1.13,1.67 1.5,1.5 0 0 1 -1.4,0.55 22.49,22.49 0 0 1 -4.71,-1.23 63.2,63.2 0 0 1 -3.79,-1.6 c -1.11,-0.52 -2.1,-1 -2.94,-1.4 a 5.3,5.3 0 0 0 -2.29,-0.62 1.28,1.28 0 0 0 -1.23,-0.27 5.87,5.87 0 0 0 -1.81,0.61 5.29,5.29 0 0 0 -1.57,1.23 2.22,2.22 0 0 0 -0.58,1.64 2.73,2.73 0 0 0 1,1.81 9.84,9.84 0 0 0 2.52,1.57 27.77,27.77 0 0 0 3.59,1.33 c 1.34,0.42 2.74,0.8 4.2,1.17 a 15.86,15.86 0 0 1 5.57,2.56 9.32,9.32 0 0 1 3.14,3.89 8.6,8.6 0 0 1 0.45,4.89 14.35,14.35 0 0 1 -2.46,5.53 7.78,7.78 0 0 1 -1,5.33 9.67,9.67 0 0 1 -3.86,3.38 18.77,18.77 0 0 1 -5.77,1.74 36.31,36.31 0 0 1 -6.7,0.34 7.36,7.36 0 0 1 -3,0.31 17.51,17.51 0 0 1 -3.86,-0.68 16.06,16.06 0 0 1 -3.69,-1.61 6,6 0 0 1 -2.39,-2.39 0.67,0.67 0 0 0 -0.31,-0.41 1,1 0 0 0 -0.34,-0.07 0.7,0.7 0 0 0 -0.27,0 c -0.07,0 -0.1,0 -0.1,-0.11 a 3.86,3.86 0 0 1 0.37,-1.53 10.48,10.48 0 0 1 0.72,-1.4 c 0,-0.23 0.23,-0.4 0.55,-0.52 a 0.79,0.79 0 0 0 0.54,-0.71 8.68,8.68 0 0 0 0.65,-1.33 4,4 0 0 1 0.79,-1.34 c 0.09,-0.18 0.21,-0.12 0.37,0.17 a 0.59,0.59 0 0 0 0.65,0.38 3.2,3.2 0 0 0 1,-0.82 l 1.06,-1.2 a 6.81,6.81 0 0 1 1,-1 0.69,0.69 0 0 1 0.92,0 5.83,5.83 0 0 1 1.13,1.64 l 0.89,1.92 a 10.6,10.6 0 0 0 1,1.77 3.07,3.07 0 0 0 1.54,1.16 11.07,11.07 0 0 0 3.31,0.58 11.76,11.76 0 0 0 3.76,-0.37 5.84,5.84 0 0 0 2.77,-1.57 2.68,2.68 0 0 0 0.34,-2.94 8.31,8.31 0 0 0 -2.46,-3.45 24.93,24.93 0 0 0 -4,-2.77 q -2.19,-1.23 -4.51,-2.29 a 36,36 0 0 1 -4.1,-2.15 3.66,3.66 0 0 0 -1.71,-1.29 c -0.59,-0.19 -1.16,-0.33 -1.71,-0.45 a 4.64,4.64 0 0 1 -1.57,-0.65 3.55,3.55 0 0 1 -1.23,-2 8.1,8.1 0 0 1 -0.3,-5.81 14.81,14.81 0 0 1 3.21,-5.49 25.6,25.6 0 0 1 5.56,-4.62 30.92,30.92 0 0 1 6.73,-3.17 21.55,21.55 0 0 1 6.7,-1.13 10,10 0 0 1 5.5,1.44 c 0.95,0 1.44,0.26 1.47,0.64 a 3.08,3.08 0 0 1 -0.35,1.4 c -0.25,0.55 -0.49,1.1 -0.71,1.64 a 1.14,1.14 0 0 0 0.41,1.44 c -0.1,0.41 0.1,0.68 0.58,0.82 a 13.39,13.39 0 0 0 1.64,0.34 10.53,10.53 0 0 1 1.74,0.41 1.27,1.27 0 0 1 1.13,1.03 z"
     id="path246"
     style="fill:#f8e4cd" />
  <path
     class="cls-1"
     id="polyline346"
     style="fill:#231f20"
     d="m 254.5,132.395 1.25,-7.38 3.64,-1.43 0.36,10.43" />
</svg>
