<?xml version="1.0" encoding="UTF-8" standalone="no"?>
<svg
   id="Layer_1"
   data-name="Layer 1"
   viewBox="0 0 276.92828 450.59"
   version="1.1"
   sodipodi:docname="DAL.svg"
   width="276.92828"
   height="450.59"
   inkscape:version="1.1.1 (3bf5ae0d25, 2021-09-20)"
   xmlns:inkscape="http://www.inkscape.org/namespaces/inkscape"
   xmlns:sodipodi="http://sodipodi.sourceforge.net/DTD/sodipodi-0.dtd"
   xmlns="http://www.w3.org/2000/svg"
   xmlns:svg="http://www.w3.org/2000/svg"
   xmlns:rdf="http://www.w3.org/1999/02/22-rdf-syntax-ns#"
   xmlns:cc="http://creativecommons.org/ns#"
   xmlns:dc="http://purl.org/dc/elements/1.1/">
  <metadata
     id="metadata273">
    <rdf:RDF>
      <cc:Work
         rdf:about="">
        <dc:format>image/svg+xml</dc:format>
        <dc:type
           rdf:resource="http://purl.org/dc/dcmitype/StillImage" />
        <dc:title />
      </cc:Work>
    </rdf:RDF>
  </metadata>
  <sodipodi:namedview
     pagecolor="#ffffff"
     bordercolor="#666666"
     borderopacity="1"
     objecttolerance="10"
     gridtolerance="10"
     guidetolerance="10"
     inkscape:pageopacity="0"
     inkscape:pageshadow="2"
     inkscape:window-width="1920"
     inkscape:window-height="1017"
     id="namedview271"
     showgrid="false"
     inkscape:zoom="1.2586667"
     inkscape:cx="23.4375"
     inkscape:cy="231.59428"
     inkscape:window-x="-8"
     inkscape:window-y="-8"
     inkscape:window-maximized="1"
     inkscape:current-layer="Layer_1"
     inkscape:pagecheckerboard="0"
     inkscape:object-nodes="true"
     showguides="true"
     inkscape:guide-bbox="true">
    <sodipodi:guide
       position="32.574152,249.1864"
       orientation="1,0"
       id="guide2344" />
    <sodipodi:guide
       position="244.70339,263.48724"
       orientation="1,0"
       id="guide2346" />
  </sodipodi:namedview>
  <defs
     id="defs4">
    <style
       id="style2">.cls-1,.cls-9{fill:#be2026;}.cls-2,.cls-7{fill:#2b2e81;}.cls-3,.cls-6{fill:#fff;}.cls-3{stroke:#231f20;}.cls-10,.cls-11,.cls-12,.cls-13,.cls-14,.cls-3,.cls-5,.cls-7,.cls-8,.cls-9{stroke-miterlimit:10;}.cls-4{fill:#d5a833;}.cls-10,.cls-11,.cls-12,.cls-13,.cls-14,.cls-5,.cls-8{fill:none;}.cls-13,.cls-5{stroke:#2b2e81;}.cls-5,.cls-7,.cls-8{stroke-width:10px;}.cls-7,.cls-8{stroke:#be2026;}.cls-10,.cls-11,.cls-12,.cls-14,.cls-9{stroke:#fff;}.cls-10,.cls-9{stroke-width:6.44px;}.cls-11{stroke-width:3px;}.cls-12{stroke-width:2.49px;}.cls-13,.cls-14{stroke-width:0.71px;}</style>
  </defs>
  <polyline
     class="cls-5"
     points="293.83 382.27 293.83 368.42 286.08 368.42 286.08 348.26 281.08 348.26 281.08 293.27 271.08 293.27 271.08 283.27 237.08 283.27 237.08 293.27 227.08 293.27 227.08 348.26 222.08 348.26 222.08 368.42 214.33 368.42 214.33 383.27"
     id="polyline122"
     style="fill:none;stroke:#2b2e81;stroke-width:10px;stroke-miterlimit:10"
     transform="matrix(2.3762163,0,0,2.1151246,-466.25256,-576.496)" />
  <rect
     class="cls-1"
     x="32.45808"
     y="244.82997"
     width="212"
     height="60"
     id="rect124"
     style="fill:#be2026" />
  <rect
     class="cls-2"
     x="32.45808"
     y="314.88998"
     width="212"
     height="60"
     id="rect126"
     style="fill:#2b2e81" />
  <path
     class="cls-6"
     d="m 196.39808,295.17 -4.06,3 c -9.67,7.1 -19.31,14.25 -29,21.27 -1.84,1.32 -2.28,2.46 -1.54,4.7 4.06,12.16 7.92,24.39 11.84,36.59 0.23,0.71 0.44,1.43 0.67,2.19 -0.93,0.2 -1.34,-0.45 -1.85,-0.82 -10.73,-7.72 -21.48,-15.43 -32.16,-23.23 -1.33,-1 -2.23,-1 -3.55,-0.08 q -16,11.55 -32.06,23 c -0.67,0.48 -1.36,0.94 -2.56,1.77 1,-3.3 1.9,-6 2.78,-8.78 3.34,-10.39 6.64,-20.79 10.07,-31.15 0.58,-1.75 0.29,-2.72 -1.2,-3.79 Q 97.828076,308.24 81.978076,296.5 c -0.58,-0.43 -1.36,-0.67 -1.71,-1.86 h 12.42 c 9.860004,0 19.730004,-0.08 29.590004,0 a 2.49,2.49 0 0 0 2.87,-2.09 c 4,-12.51 8.07,-25 12.14,-37.48 0.25,-0.77 0.27,-1.67 1.26,-2.33 2,6.23 4.07,12.37 6.07,18.51 2.32,7.12 4.68,14.22 6.88,21.37 0.51,1.65 1.32,2 2.92,2 13.23,0 26.46,0 39.69,0.1 0.68,0.01 1.49,-0.29 2.29,0.45 z"
     id="path128"
     inkscape:connector-curvature="0"
     style="fill:#ffffff" />
  <circle
     class="cls-4"
     cx="137.27808"
     cy="315.66"
     r="15.17"
     id="circle130"
     style="fill:#d5a833" />
  <line
     class="cls-7"
     x1="169.78809"
     y1="390.38004"
     x2="243.40808"
     y2="390.38004"
     id="line132"
     style="fill:#2b2e81;stroke:#be2026;stroke-width:10px;stroke-miterlimit:10" />
  <line
     class="cls-7"
     x1="126.78809"
     y1="390.38004"
     x2="147.45807"
     y2="390.38004"
     id="line134"
     style="fill:#2b2e81;stroke:#be2026;stroke-width:10px;stroke-miterlimit:10" />
  <line
     class="cls-7"
     x1="31.918074"
     y1="390.38004"
     x2="107.12808"
     y2="390.38004"
     id="line136"
     style="fill:#2b2e81;stroke:#be2026;stroke-width:10px;stroke-miterlimit:10" />
  <path
     class="cls-8"
     d="m 92.128076,390.57 a 45.67,45.67 0 1 0 91.330004,0"
     id="path146"
     inkscape:connector-curvature="0"
     style="fill:none;stroke:#be2026;stroke-width:10px;stroke-miterlimit:10" />
  <line
     class="cls-7"
     x1="137.12808"
     y1="391.56003"
     x2="137.12808"
     y2="401.56003"
     id="line148"
     style="fill:#2b2e81;stroke:#be2026;stroke-width:10px;stroke-miterlimit:10" />
  <line
     class="cls-7"
     x1="137.12808"
     y1="421.57999"
     x2="137.12808"
     y2="450.59"
     id="line150"
     style="fill:#2b2e81;stroke:#be2026;stroke-width:10px;stroke-miterlimit:10" />
  <path
     class="cls-1"
     d="m 19.878076,378.94 a 1,1 0 0 1 0.3,0 1.15,1.15 0 0 1 0.56,0.38 l 1.84,2.17 a 1.37,1.37 0 0 1 0.32,0.69 1.1,1.1 0 0 1 0,0.31 v 12.29 c 0,0.36 -0.16,0.54 -0.46,0.54 H 0.46807638 c -0.31,0 -0.46,-0.18 -0.46,-0.54 v -12.25 a 1.9,1.9 0 0 1 0,-0.35 1.37,1.37 0 0 1 0.33,-0.65 l 1.84000002,-2.17 a 1.08,1.08 0 0 1 0.56,-0.38 0.88,0.88 0 0 1 0.29,0 z M 4.8080764,389.73 H 18.108076 v -4.41 l -0.46,-0.54 a 0.43,0.43 0 0 0 -0.23,-0.11 H 5.6280764 a 0.09,0.09 0 0 0 -0.07,0 0.29,0.29 0 0 1 -0.1,0.07 l -0.55,0.66 a 0.31,0.31 0 0 0 -0.1,0.27 z"
     id="path152"
     inkscape:connector-curvature="0"
     style="fill:#be2026" />
  <path
     class="cls-1"
     d="M 0.46807638,342.44 11.468076,338.62 q 5.49,-1.89 11,-3.83 c 0.11,0 0.21,0 0.31,0.14 a 0.75,0.75 0 0 1 0.15,0.44 v 4.41 a 0.66,0.66 0 0 1 -0.15,0.42 0.85,0.85 0 0 1 -0.31,0.27 l -2.66,0.93 v 7.77 l 2.66,0.93 a 0.85,0.85 0 0 1 0.31,0.27 0.68,0.68 0 0 1 0.15,0.42 v 4.41 a 0.75,0.75 0 0 1 -0.15,0.44 c -0.1,0.14 -0.2,0.19 -0.31,0.13 L 0.46807638,348.12 v 0 c -0.31,-0.15 -0.46,-0.33 -0.46,-0.54 v -4.59 c 0,-0.24 0.15,-0.42 0.46,-0.55 z m 14.90999962,0.51 -6.7299996,2.32 6.7299996,2.35 z"
     id="path154"
     inkscape:connector-curvature="0"
     style="fill:#be2026" />
  <path
     class="cls-1"
     d="m 18.258076,295.19 a 0.43,0.43 0 0 1 0.31,-0.17 h 3.9 a 0.42,0.42 0 0 1 0.33,0.17 0.71,0.71 0 0 1 0.13,0.41 v 15.45 a 0.71,0.71 0 0 1 -0.13,0.41 0.42,0.42 0 0 1 -0.33,0.17 H 0.46807638 v 0 q -0.36,-0.08 -0.36,-0.54 v -4.56 a 0.48,0.48 0 0 1 0.36,-0.54 H 18.138076 V 295.6 a 0.61,0.61 0 0 1 0.12,-0.41 z"
     id="path156"
     inkscape:connector-curvature="0"
     style="fill:#be2026" />
  <path
     class="cls-1"
     d="m 18.258076,255.44 a 0.41,0.41 0 0 1 0.31,-0.18 h 3.9 a 0.4,0.4 0 0 1 0.33,0.18 0.68,0.68 0 0 1 0.13,0.4 v 15.46 a 0.68,0.68 0 0 1 -0.13,0.4 0.4,0.4 0 0 1 -0.33,0.18 H 0.46807638 v 0 q -0.36,-0.08 -0.36,-0.54 v -4.61 q 0,-0.46 0.36,-0.54 H 18.138076 v -10.35 a 0.59,0.59 0 0 1 0.12,-0.4 z"
     id="path158"
     inkscape:connector-curvature="0"
     style="fill:#be2026" />
  <path
     class="cls-1"
     d="M 0.46807638,218.73 Q 5.9880764,216.79 11.468076,214.91 l 11,-3.83 c 0.11,-0.05 0.21,0 0.31,0.14 a 0.75,0.75 0 0 1 0.15,0.44 v 4.4 a 0.68,0.68 0 0 1 -0.15,0.43 0.85,0.85 0 0 1 -0.31,0.27 l -2.66,0.93 v 7.76 l 2.66,0.93 a 0.85,0.85 0 0 1 0.31,0.27 0.68,0.68 0 0 1 0.15,0.43 v 4.4 a 0.78,0.78 0 0 1 -0.15,0.45 c -0.1,0.14 -0.2,0.18 -0.31,0.13 L 0.46807638,224.41 v 0 c -0.31,-0.15 -0.46,-0.33 -0.46,-0.54 v -4.6 c 0,-0.23 0.15,-0.41 0.46,-0.54 z m 14.90999962,0.5 -6.7299996,2.32 6.7299996,2.36 z"
     id="path160"
     inkscape:connector-curvature="0"
     style="fill:#be2026" />
  <path
     class="cls-1"
     d="m 3.0480764,170.8 v 0 h 3.42 a 0.39,0.39 0 0 1 0.33,0.17 0.65,0.65 0 0 1 0.13,0.41 v 4.55 c 0,0.37 -0.15,0.54 -0.46,0.54 h -1.64 v 4.8 a 0.39,0.39 0 0 0 0.1,0.27 l 0.52,0.61 c 0.09,0.11 0.15,0.16 0.19,0.16 0.04,0 0.07,0 0.07,0 h 2.64 v 0 h 0.12 c 0,0 0.1,0 0.17,-0.12 l 0.45,-0.54 v -7.22 a 1.65,1.65 0 0 1 0,-0.31 1.45,1.45 0 0 1 0.32,-0.7 l 1.8399996,-2.16 a 1.18,1.18 0 0 1 0.6,-0.39 1.09,1.09 0 0 1 0.26,0 h 7.78 a 1.39,1.39 0 0 1 0.3,0 1.17,1.17 0 0 1 0.56,0.39 l 1.84,2.16 a 1.45,1.45 0 0 1 0.32,0.7 1.1,1.1 0 0 1 0,0.31 v 10 a 1.18,1.18 0 0 1 0,0.34 1.4,1.4 0 0 1 -0.32,0.66 l -1.84,2.16 a 1.11,1.11 0 0 1 -0.56,0.39 0.51,0.51 0 0 1 -0.3,0 h -0.06 -3.19 a 0.42,0.42 0 0 1 -0.33,-0.17 0.74,0.74 0 0 1 -0.13,-0.41 v -4.56 q 0,-0.54 0.45,-0.54 h 1.46 v -4.87 a 0.39,0.39 0 0 0 -0.1,-0.19 l -0.52,-0.66 a 0.13,0.13 0 0 1 -0.08,-0.08 0.11,0.11 0 0 0 -0.09,0 h -2.6 -0.08 a 0.5,0.5 0 0 1 -0.12,0.08 l -0.52,0.66 a 0.32,0.32 0 0 0 -0.1,0.19 v 7 a 1.72,1.72 0 0 1 0,0.34 1.33,1.33 0 0 1 -0.33,0.66 l -1.84,2.16 a 1.07,1.07 0 0 1 -0.56,0.39 0.48,0.48 0 0 1 -0.29,0 v 0 H 3.0680764 v 0 a 0.39,0.39 0 0 1 -0.26,0 1.1,1.1 0 0 1 -0.59,-0.39 l -1.84000002,-2.16 a 1.52,1.52 0 0 1 -0.33,-0.66 1.72,1.72 0 0 1 0,-0.34 v -10 a 1.63,1.63 0 0 1 0,-0.31 1.56,1.56 0 0 1 0.33,-0.7 l 1.85000002,-2.16 a 1.16,1.16 0 0 1 0.59,-0.39 h 0.27 z"
     id="path162"
     inkscape:connector-curvature="0"
     style="fill:#be2026" />
  <path
     class="cls-2"
     d="m 273.80808,187.85 v 0 h -3.4 a 0.42,0.42 0 0 1 -0.33,-0.17 0.65,0.65 0 0 1 -0.13,-0.41 v -4.54 c 0,-0.36 0.15,-0.54 0.46,-0.54 h 1.64 v -4.79 a 0.39,0.39 0 0 0 -0.1,-0.27 l -0.52,-0.62 c -0.08,-0.1 -0.15,-0.15 -0.19,-0.15 -0.04,0 -0.07,0 -0.07,0 h -2.7 v 0 0 c -0.05,0 -0.1,0 -0.17,0.11 l -0.45,0.54 v 7.23 a 1.71,1.71 0 0 1 0,0.31 1.53,1.53 0 0 1 -0.33,0.69 l -1.84,2.17 a 1.14,1.14 0 0 1 -0.59,0.38 0.84,0.84 0 0 1 -0.27,0 h -7.78 a 1,1 0 0 1 -0.3,0 1.12,1.12 0 0 1 -0.55,-0.38 l -1.84,-2.17 a 1.35,1.35 0 0 1 -0.33,-0.69 1.71,1.71 0 0 1 0,-0.31 v -10 a 1.9,1.9 0 0 1 0,-0.35 1.3,1.3 0 0 1 0.33,-0.65 l 1.84,-2.17 a 1.12,1.12 0 0 1 0.55,-0.38 0.51,0.51 0 0 1 0.3,0 h 0.07 3.18 a 0.39,0.39 0 0 1 0.33,0.17 0.65,0.65 0 0 1 0.13,0.41 v 4.56 q 0,0.54 -0.45,0.54 h -1.45 v 4.87 a 0.35,0.35 0 0 0 0.09,0.19 l 0.53,0.65 a 0.29,0.29 0 0 1 0.08,0.08 c 0,0 0,0 0.08,0 h 2.61 0.08 l 0.11,-0.08 0.52,-0.65 a 0.32,0.32 0 0 0 0.1,-0.19 v -7 a 1.9,1.9 0 0 1 0,-0.35 1.49,1.49 0 0 1 0.33,-0.65 l 1.84,-2.17 a 1.15,1.15 0 0 1 0.56,-0.38 0.51,0.51 0 0 1 0.3,0 v 0 h 7.78 v 0 a 0.39,0.39 0 0 1 0.26,0 1.1,1.1 0 0 1 0.59,0.38 l 1.84,2.17 a 1.3,1.3 0 0 1 0.33,0.65 1.9,1.9 0 0 1 0,0.35 v 10 a 1.71,1.71 0 0 1 0,0.31 1.35,1.35 0 0 1 -0.33,0.69 l -1.85,2.17 a 1.1,1.1 0 0 1 -0.59,0.38 0.84,0.84 0 0 1 -0.27,0 z"
     id="path164"
     inkscape:connector-curvature="0"
     style="fill:#2b2e81" />
  <path
     class="cls-2"
     d="m 276.46808,225.56 h -22 a 0.42,0.42 0 0 1 -0.31,-0.15 0.53,0.53 0 0 1 -0.15,-0.39 v -6.1 a 0.68,0.68 0 0 1 0.15,-0.43 0.78,0.78 0 0 1 0.31,-0.27 l 11,-4.71 h -11 a 0.39,0.39 0 0 1 -0.31,-0.18 0.53,0.53 0 0 1 -0.15,-0.36 v -4.6 a 0.54,0.54 0 0 1 0.15,-0.39 0.42,0.42 0 0 1 0.31,-0.15 h 22 c 0.3,0 0.46,0.18 0.46,0.54 v 5.76 a 0.53,0.53 0 0 1 -0.46,0.54 v 0 l -12.68,5.1 -0.36,0.07 h 13 a 0.4,0.4 0 0 1 0.33,0.18 0.63,0.63 0 0 1 0.13,0.36 v 4.6 c 0.03,0.4 -0.13,0.58 -0.42,0.58 z"
     id="path166"
     inkscape:connector-curvature="0"
     style="fill:#2b2e81" />
  <path
     class="cls-2"
     d="m 276.31808,250.73 h -21.93 c -0.31,0 -0.46,-0.18 -0.46,-0.54 v -4.6 c 0,-0.36 0.15,-0.54 0.46,-0.54 h 21.93 c 0.31,0 0.47,0.18 0.47,0.54 v 4.6 c 0,0.31 -0.16,0.54 -0.47,0.54 z"
     id="path168"
     inkscape:connector-curvature="0"
     style="fill:#2b2e81" />
  <path
     class="cls-2"
     d="m 265.46808,286.8 v 0 0 a 1.29,1.29 0 0 1 -0.29,0 1.13,1.13 0 0 1 -0.56,-0.39 l -1.87,-2.16 a 1.38,1.38 0 0 1 -0.33,-0.7 0.81,0.81 0 0 1 0,-0.31 v -7.15 h -8 a 0.38,0.38 0 0 1 -0.31,-0.17 0.61,0.61 0 0 1 -0.15,-0.41 v -4.56 a 0.52,0.52 0 0 1 0.15,-0.38 0.4,0.4 0 0 1 0.31,-0.16 h 22 c 0.3,0 0.46,0.18 0.46,0.54 v 12.29 a 1.65,1.65 0 0 1 0,0.31 c 0,0.1 -0.05,0.21 -0.08,0.33 a 1,1 0 0 1 -0.21,0.37 l -1.87,2.16 a 1.2,1.2 0 0 1 -0.59,0.39 h -0.27 z m 1.74,-10.74 v 4.06 a 0.37,0.37 0 0 0 0.09,0.23 l 0.53,0.66 a 0.15,0.15 0 0 1 0.08,0.08 c 0,0 0,0 0.08,0 h 3.23 0.07 a 0.24,0.24 0 0 1 0.09,-0.08 l 0.56,-0.66 0.06,-0.13 a 0.26,0.26 0 0 0 0,-0.1 v -4.06 z"
     id="path170"
     inkscape:connector-curvature="0"
     style="fill:#2b2e81" />
  <path
     class="cls-2"
     d="m 267.81808,312.23 v 6.84 c 0,0.36 -0.16,0.54 -0.46,0.54 h -3.89 c -0.31,0 -0.46,-0.18 -0.46,-0.54 v -6.84 h -4.24 v 8.92 a 0.6,0.6 0 0 1 -0.13,0.37 0.39,0.39 0 0 1 -0.33,0.17 h -3.9 a 0.37,0.37 0 0 1 -0.33,-0.17 0.6,0.6 0 0 1 -0.13,-0.37 v -14.06 c 0,-0.36 0.15,-0.54 0.46,-0.54 h 22 c 0.31,0 0.46,0.18 0.46,0.54 v 14.06 a 0.6,0.6 0 0 1 -0.13,0.37 0.38,0.38 0 0 1 -0.33,0.17 h -3.9 a 0.37,0.37 0 0 1 -0.33,-0.17 0.6,0.6 0 0 1 -0.13,-0.37 v -8.92 z"
     id="path172"
     inkscape:connector-curvature="0"
     style="fill:#2b2e81" />
  <path
     class="cls-2"
     d="m 265.46808,358.05 a 0.85,0.85 0 0 1 -0.29,0 l -0.27,-0.09 a 0.88,0.88 0 0 1 -0.29,-0.25 l -1.88,-2.21 -0.06,-0.11 -8.24,3.94 c -0.11,0.05 -0.22,0 -0.32,-0.14 a 0.75,0.75 0 0 1 -0.14,-0.4 v -5.18 a 0.71,0.71 0 0 1 0.14,-0.42 0.87,0.87 0 0 1 0.32,-0.27 l 8,-3.79 v -1.78 h -8 a 0.45,0.45 0 0 1 -0.32,-0.15 0.6,0.6 0 0 1 -0.14,-0.39 v -4.6 a 0.56,0.56 0 0 1 0.14,-0.36 0.43,0.43 0 0 1 0.32,-0.18 h 22 a 0.39,0.39 0 0 1 0.33,0.18 0.55,0.55 0 0 1 0.13,0.36 v 12.29 a 1.63,1.63 0 0 1 0,0.31 c 0,0.1 -0.05,0.21 -0.08,0.33 a 1,1 0 0 1 -0.21,0.36 l -1.88,2.21 a 0.8,0.8 0 0 1 -0.33,0.25 l -0.29,0.09 a 1.13,1.13 0 0 1 -0.3,0 z m 1.74,-10.74 v 4.06 a 0.39,0.39 0 0 0 0.1,0.27 l 0.53,0.62 a 0.23,0.23 0 0 0 0.16,0.11 h 3.25 a 0.26,0.26 0 0 0 0.2,-0.11 l 0.52,-0.62 a 0.36,0.36 0 0 0 0.1,-0.23 v -4.1 z"
     id="path174"
     inkscape:connector-curvature="0"
     style="fill:#2b2e81" />
  <path
     class="cls-2"
     d="m 273.80808,395.49 v 0 h -3.4 a 0.42,0.42 0 0 1 -0.33,-0.17 0.65,0.65 0 0 1 -0.13,-0.41 v -4.56 c 0,-0.36 0.15,-0.54 0.46,-0.54 h 1.64 v -4.79 a 0.39,0.39 0 0 0 -0.1,-0.27 l -0.52,-0.62 c -0.08,-0.1 -0.15,-0.15 -0.19,-0.15 -0.04,0 -0.07,0 -0.07,0 h -2.7 v 0 0 c -0.05,0 -0.1,0 -0.17,0.11 l -0.45,0.54 v 7.23 a 1.71,1.71 0 0 1 0,0.31 1.48,1.48 0 0 1 -0.33,0.69 l -1.84,2.17 a 1.14,1.14 0 0 1 -0.59,0.38 0.84,0.84 0 0 1 -0.27,0 h -7.78 a 1,1 0 0 1 -0.3,0 1.12,1.12 0 0 1 -0.55,-0.38 l -1.84,-2.17 a 1.31,1.31 0 0 1 -0.33,-0.69 1.71,1.71 0 0 1 0,-0.31 v -10 a 1.9,1.9 0 0 1 0,-0.35 1.3,1.3 0 0 1 0.33,-0.65 l 1.84,-2.17 a 1.12,1.12 0 0 1 0.55,-0.38 0.51,0.51 0 0 1 0.3,0 h 0.07 3.18 a 0.42,0.42 0 0 1 0.33,0.17 0.65,0.65 0 0 1 0.13,0.41 v 4.56 q 0,0.54 -0.45,0.54 h -1.45 v 4.87 a 0.35,0.35 0 0 0 0.09,0.19 l 0.53,0.66 a 0.19,0.19 0 0 1 0.08,0.07 c 0,0 0,0 0.08,0 h 2.61 0.08 l 0.11,-0.07 0.52,-0.66 a 0.32,0.32 0 0 0 0.1,-0.19 v -7 a 1.9,1.9 0 0 1 0,-0.35 1.49,1.49 0 0 1 0.33,-0.65 l 1.84,-2.17 a 1.15,1.15 0 0 1 0.56,-0.38 0.51,0.51 0 0 1 0.3,0 v 0 h 7.78 v 0 a 0.39,0.39 0 0 1 0.26,0 1.1,1.1 0 0 1 0.59,0.38 l 1.84,2.17 a 1.3,1.3 0 0 1 0.33,0.65 1.9,1.9 0 0 1 0,0.35 v 10 a 1.71,1.71 0 0 1 0,0.31 1.31,1.31 0 0 1 -0.33,0.69 l -1.85,2.17 a 1.1,1.1 0 0 1 -0.59,0.38 0.84,0.84 0 0 1 -0.27,0 z"
     id="path176"
     inkscape:connector-curvature="0"
     style="fill:#2b2e81" />
  <ellipse
     class="cls-5"
     cx="137.49646"
     cy="162.25354"
     id="circle178"
     style="fill:none;stroke:#2b2e81;stroke-width:22.4187px;stroke-miterlimit:10"
     rx="27.326487"
     ry="24.323933" />
</svg>
