<?xml version="1.0" encoding="UTF-8" standalone="no"?>
<svg
   id="Layer_1"
   data-name="Layer 1"
   viewBox="0 0 291.88 369.70776"
   version="1.1"
   sodipodi:docname="JAX.svg"
   width="291.88"
   height="369.70776"
   inkscape:version="1.1.1 (3bf5ae0d25, 2021-09-20)"
   xmlns:inkscape="http://www.inkscape.org/namespaces/inkscape"
   xmlns:sodipodi="http://sodipodi.sourceforge.net/DTD/sodipodi-0.dtd"
   xmlns="http://www.w3.org/2000/svg"
   xmlns:svg="http://www.w3.org/2000/svg"
   xmlns:rdf="http://www.w3.org/1999/02/22-rdf-syntax-ns#"
   xmlns:cc="http://creativecommons.org/ns#"
   xmlns:dc="http://purl.org/dc/elements/1.1/">
  <metadata
     id="metadata394">
    <rdf:RDF>
      <cc:Work
         rdf:about="">
        <dc:format>image/svg+xml</dc:format>
        <dc:type
           rdf:resource="http://purl.org/dc/dcmitype/StillImage" />
        <dc:title />
      </cc:Work>
    </rdf:RDF>
  </metadata>
  <sodipodi:namedview
     pagecolor="#ffffff"
     bordercolor="#666666"
     borderopacity="1"
     objecttolerance="10"
     gridtolerance="10"
     guidetolerance="10"
     inkscape:pageopacity="0"
     inkscape:pageshadow="2"
     inkscape:window-width="1920"
     inkscape:window-height="1017"
     id="namedview392"
     showgrid="false"
     inkscape:zoom="2.2250293"
     inkscape:cx="240.67098"
     inkscape:cy="187.63797"
     inkscape:window-x="-8"
     inkscape:window-y="-8"
     inkscape:window-maximized="1"
     inkscape:current-layer="Layer_1"
     inkscape:pagecheckerboard="0" />
  <defs
     id="defs7">
    <style
       id="style2">.cls-1,.cls-12,.cls-17,.cls-19,.cls-20,.cls-21,.cls-24,.cls-25,.cls-6{fill:none;}.cls-2{opacity:0.2;}.cls-3{fill:#a6a6a6;}.cls-4{fill:#fff;}.cls-18,.cls-22,.cls-5{fill:#2e3147;}.cls-17,.cls-21,.cls-6{stroke:#28c628;}.cls-11,.cls-12,.cls-17,.cls-18,.cls-19,.cls-20,.cls-21,.cls-22,.cls-25,.cls-6{stroke-miterlimit:10;}.cls-6{stroke-width:4.23px;}.cls-7{clip-path:url(#clip-path);}.cls-11,.cls-23,.cls-8{fill:#f47c06;}.cls-16,.cls-9{fill:#3784d1;}.cls-10{fill:#93c6f9;}.cls-11,.cls-19,.cls-22,.cls-25{stroke:#f47c06;}.cls-11{stroke-width:1.76px;}.cls-12{stroke:#93c6f9;stroke-width:5.29px;}.cls-13{fill:#28c628;}.cls-14{fill:#108910;}.cls-15{fill:#90e260;}.cls-16{opacity:0.3;}.cls-17{stroke-width:3.94px;}.cls-18,.cls-23,.cls-24{stroke:#2e3147;}.cls-18{stroke-width:9.27px;}.cls-19,.cls-20,.cls-21{stroke-width:5.1px;}.cls-20{stroke:#3e83c4;}.cls-22,.cls-25{stroke-width:4.22px;}.cls-23,.cls-24{stroke-linecap:round;stroke-linejoin:round;stroke-width:5.06px;}</style>
    <clipPath
       id="clip-path">
      <path
         class="cls-1"
         d="M 618.16,282.82 H 374.7 l -0.36,163.73 a 73.54,73.54 0 0 0 73.52,73.52 h 96.43 a 73.54,73.54 0 0 0 73.52,-73.52 z"
         id="path4"
         inkscape:connector-curvature="0"
         style="fill:none" />
    </clipPath>
  </defs>
  <path
     class="cls-5"
     d="M 14.11,77.977759 H 291.88 V 268.50776 a 95.21,95.21 0 0 1 -95.21,95.2 H 95.21 A 95.21,95.21 0 0 1 0,268.50776 V 77.977759 Z"
     id="path183"
     inkscape:connector-curvature="0"
     style="fill:#2e3147" />
  <path
     class="cls-5"
     d="M 14.11,83.927759 H 291.88 V 274.49776 a 95.22,95.22 0 0 1 -95.21,95.21 H 95.21 A 95.22,95.22 0 0 1 0,274.49776 V 83.927759 Z"
     id="path185"
     inkscape:connector-curvature="0"
     style="fill:#2e3147" />
  <path
     class="cls-6"
     d="M 148.88,89.537759 H 55.4 l -1.83,11.090001 -8.69,-6.160001 0.26,12.350001 -11.31,-8.510001 1.92,13.390001 -11.48,-9.3 4.05,18.39 -11.3,-4.23 3.78,12.25 -9.24,-0.71 v 141.35 a 82.71,82.71 0 0 0 82.7,82.7 h 56"
     id="path187"
     inkscape:connector-curvature="0"
     style="fill:none;stroke:#28c628;stroke-width:4.23000002px;stroke-miterlimit:10" />
  <g
     class="cls-7"
     clip-path="url(#clip-path)"
     id="g193"
     transform="translate(-350.12,-180.07224)">
    <path
       class="cls-5"
       d="m 295.46,426.13 a 7.17,7.17 0 0 1 -8.25,-7.15 c 0.11,-4.31 3.61,-8.93 8.25,-9.43 q 14.7,-2 29.43,-3.69 v -6.7 c -3.66,0.42 -5.49,0.64 -9.14,1.08 a 4.65,4.65 0 0 1 -5.36,-4.71 6.25,6.25 0 0 1 5.36,-6 l 5.39,-0.65 q 5.06,-10.72 10.12,-21.46 a 6.27,6.27 0 0 1 3.84,-3.31 772.15,772.15 0 0 1 77,-17.74 q 0,-27.31 0,-54.64 a 4.2,4.2 0 0 1 3.92,-4.14 c 3.5,-0.19 5.25,-0.29 8.74,-0.46 a 3.71,3.71 0 0 1 3.93,3.74 v 52.73 c 23.3,-3.44 46.84,-6 70.42,-6 23.58,0 47.11,2.53 70.43,6 q 0,-26.4 0,-52.78 a 3.71,3.71 0 0 1 3.93,-3.74 c 3.5,0.17 5.25,0.27 8.74,0.46 a 4.21,4.21 0 0 1 3.93,4.14 v 54.64 a 771.13,771.13 0 0 1 77,17.74 6.27,6.27 0 0 1 3.84,3.31 q 5.07,10.72 10.13,21.46 l 5.39,0.65 a 6.26,6.26 0 0 1 5.36,6 4.65,4.65 0 0 1 -5.36,4.71 c -3.66,-0.44 -5.49,-0.66 -9.14,-1.08 v 6.7 q 14.73,1.72 29.43,3.69 c 4.34,0.81 8.31,4.84 8.24,9.43 a 7.21,7.21 0 0 1 -8.24,7.15 1534.8,1534.8 0 0 0 -407.33,0.05 z m 367.19,-21.48 v -7.22 q -38.1,-5.9 -76.5,-9.53 v 2.45 c 0.64,3.22 1,4.83 1.61,8 q 37.52,2.32 74.89,6.3 z M 579.76,398 c -0.54,-2.71 -0.8,-4.06 -1.34,-6.77 l -1.16,-0.06 -1.33,6.63 z m -11.83,-0.59 1.65,-8.16 v -2.75 c -23.43,-1.82 -46.93,-3.15 -70.44,-3.17 -23.51,-0.02 -47,1.35 -70.42,3.17 v 3 c 0.65,3.15 1,4.73 1.61,7.88 q 68.79,-3.02 137.6,-0.01 z m -145.6,0.39 c -0.53,-2.65 -0.8,-4 -1.34,-6.63 l -1.16,0.06 c -0.53,2.71 -0.8,4.06 -1.33,6.77 z m -11.83,0.65 1.65,-8.34 v -2.21 q -38.38,3.68 -76.53,9.53 v 7.22 q 37.38,-3.99 74.88,-6.24 z m 167.82,-15.07 v -6.1 l -0.23,-0.21 -0.68,-0.06 v 6.32 z m -157.43,0 V 377 l -0.7,0.07 -0.21,0.18 v 6.13 z m 224.87,-6.38 -1.42,-1.55 v 1.35 z m -293.24,0 1.41,-0.2 v -1.35 z m 9.25,-1.29 1,-0.13 c -0.39,-0.34 -0.58,-0.52 -1,-0.87 z m 274.74,0 v -1 l -1,0.87 z M 380.86,373.27 383,373 v -3.15 z m 236.56,0 -2.16,-3.4 V 373 Z m -226.56,-1.16 3.28,-0.36 -3.28,-3.87 z m 216.55,0 v -4.23 l -3.28,3.87 z m -198.64,-1.88 3.38,-0.32 V 365 Z m 180.74,0 -3.36,-5.23 v 4.9 z m -19.93,-1.77 c 0,-1.74 0,-2.61 0,-4.34 l -2.83,4.11 z m -140.86,0 3.24,-0.26 c -1.29,-2.2 -1.94,-3.31 -3.24,-5.51 z m 18.28,-1.33 3,-0.19 v -5.09 z m 104.19,0 -3,-5.28 v 5.09 z m -10.83,-0.64 v -4.87 l -2.75,4.73 z m -82.53,0 2.75,-0.14 -2.75,-4.73 z m 64.19,-0.8 -2.95,-5.93 v 5.83 z m -45.84,0 2.95,-0.1 v -5.83 z m 10.81,-0.3 2.85,-0.05 -2.84,-5.66 z m 19.18,-0.08 5,0.08 v -8.07 c -1.94,3.19 -2.94,4.79 -4.96,7.99 z m 123.6,4.41 3,-2.74 -3,-0.72 z m -261.34,0 v -3.46 c -1,0.23 -2,0.48 -3,0.72 z m -21.23,2 0.11,-0.12 h -0.11 z m 303.8,0 v -0.09 h -0.11 z m -274.73,-5.4 1.39,-2.2 -1.39,0.32 z m 245.65,0 v -1.88 l -1.38,-0.31 z m -21.25,-3.08 2.41,-2.85 -2.41,-0.48 z m -203.14,0 v -3.34 l -2.42,0.48 z m 165.27,-3.47 c 1.58,-2.31 2.38,-3.46 4,-5.76 l -4,-0.57 z m -157.42,1.56 c 0.85,-1.34 1.28,-2 2.13,-3.33 l -2.13,0.39 z m 187.44,0 v -2.94 L 590.68,358 Z m -91.25,-3.48 5.87,-9.34 c -2,-0.05 -4,-0.09 -5.87,-0.1 z M 443.3,358 c 1.35,-2.42 2,-3.63 3.39,-6.05 l -3.39,0.42 z m 90.39,-0.63 4,-6.95 -4,-0.37 z m -98.26,0.94 v -4.87 l -2.63,0.38 z m 29.16,-0.94 V 350 l -4,0.37 z M 555,358 v -5.63 l -3.4,-0.42 z m -82.53,-2.27 3.25,-6.53 -3.25,0.22 z m 53.38,0 v -6.31 l -3.25,-0.22 z m -32.08,-0.23 v -7.06 l -3.51,0.08 c 1.38,2.78 2.08,4.18 3.49,6.97 z m 84.55,-53.61 c 0,-2.68 0,-4 0,-6.7 h -0.88 v 6.7 z m -157.43,0 v -6.7 H 420 v 6.7 z"
       id="path189"
       inkscape:connector-curvature="0"
       style="fill:#2e3147" />
    <path
       class="cls-8"
       d="m 582.22,289.31 a 2.32,2.32 0 0 1 2.16,2.28 v 56.21 a 771.71,771.71 0 0 1 78.48,18 4.18,4.18 0 0 1 2.58,2.22 q 5.31,11.25 10.61,22.49 l 6.48,0.77 a 4.2,4.2 0 0 1 3.6,4.06 3.13,3.13 0 0 1 -3.6,3.17 q -5.44,-0.66 -10.9,-1.29 v 10.23 q 15.61,1.8 31.19,3.9 a 7.76,7.76 0 0 1 6.49,7.41 5.55,5.55 0 0 1 -6.49,5.63 1534.8,1534.8 0 0 0 -407.36,0 5.55,5.55 0 0 1 -6.5,-5.63 7.76,7.76 0 0 1 6.5,-7.41 q 15.57,-2.1 31.19,-3.9 v -10.26 q -5.46,0.63 -10.9,1.29 a 3.13,3.13 0 0 1 -3.61,-3.17 4.21,4.21 0 0 1 3.61,-4.06 l 6.47,-0.77 q 5.29,-11.25 10.61,-22.49 a 4.22,4.22 0 0 1 2.59,-2.22 774.64,774.64 0 0 1 78.49,-18 q 0,-28.1 0,-56.2 a 2.32,2.32 0 0 1 2.16,-2.28 l 8.74,-0.45 a 2,2 0 0 1 2.17,2.05 v 54.74 c 23.87,-3.6 48,-6.29 72.18,-6.26 24.18,0.03 48.3,2.65 72.19,6.26 q 0,-27.37 0,-54.74 a 2,2 0 0 1 2.16,-2.05 c 3.5,0.17 5.25,0.26 8.74,0.45 m -6.58,14.2 4.42,0.23 v -10.21 l -4.42,-0.23 v 10.23 m -157.42,0.23 4.41,-0.23 v -10.23 l -4.41,0.23 v 10.23 m 161.84,7.4 v -3.08 l -2,-0.11 2,3.19 m -161.84,0 2,-3.18 -2,0.11 v 3.07 m 2.36,4.12 2.06,-0.11 v -3.07 c -0.83,1.27 -1.24,1.91 -2.06,3.18 m 155.06,-0.11 2.06,0.11 c -0.82,-1.27 -1.23,-1.91 -2.06,-3.18 v 3.07 m 4.43,7.64 v -3.09 l -2.06,-0.1 2.06,3.19 m -161.85,0 2,-3.17 -2,0.1 v 3.07 m 2.36,4.13 2.06,-0.11 v -3.11 c -0.82,1.27 -1.24,1.91 -2.06,3.19 m 155.07,-0.11 2.05,0.11 -2.05,-3.18 v 3.07 m 4.42,7.64 v -3.09 l -2.06,-0.11 2.06,3.2 m -161.85,0 2,-3.18 -2,0.11 v 3.07 m 2.36,4.12 2.06,-0.1 v -3.09 l -2.06,3.19 m 155.07,-0.1 2.05,0.1 -2.05,-3.17 v 3.07 m 4.42,7.64 V 343 l -2.06,-0.11 2.06,3.2 m -161.85,0 2,-3.18 -2,0.11 V 346 m 81.6,18 q 5.37,-8.58 10.78,-17.16 c -3.59,-0.13 -7.19,-0.2 -10.78,-0.21 V 364 m -4.34,-1 v -16.36 c -2.6,0 -5.32,0.1 -8.1,0.2 q 4.06,8.06 8.1,16.11 m -24.83,0.27 7.95,-16 c -2.58,0.15 -5.24,0.33 -7.95,0.53 v 15.45 m 56.91,0 v -15.43 c -2.7,-0.2 -5.36,-0.38 -7.94,-0.53 q 4,8 7.94,16 m -61.24,0.74 v -15.86 c -2.83,0.24 -5.75,0.51 -8.72,0.82 q 4.37,7.5 8.72,15 m 65.57,0 8.73,-15 c -3,-0.31 -5.89,-0.58 -8.73,-0.82 V 364 m -90.39,0.74 8.37,-14.92 c -2.73,0.32 -5.53,0.67 -8.37,1 v 13.88 m 115.22,0 v -13.88 c -2.84,-0.37 -5.64,-0.72 -8.37,-1 l 8.37,14.92 m -119.55,0.17 v -13.5 c -2.4,0.33 -4.84,0.68 -7.28,1 q 3.65,6.19 7.28,12.41 m 123.87,0.63 8.82,-12.81 c -3,-0.45 -5.92,-0.88 -8.82,-1.28 V 365.5 M 513,367.19 v -16 L 503,367 c 3.32,0 6.65,0.08 10,0.15 m 11.94,0.36 q -3.8,-7.65 -7.61,-15.28 v 15 c 2.45,0.07 5,0.15 7.61,0.25 m -39.69,-0.36 c 2.61,-0.05 5.12,-0.1 7.47,-0.12 l -7.47,-14.85 v 15 m -11.93,0.36 c 2.6,-0.1 5.16,-0.18 7.6,-0.25 v -15 l -7.6,15.28 m 106.75,-9.85 v -3.1 l -2.07,-0.11 2.07,3.21 m -161.86,0 2,-3.18 -2,0.11 v 3.07 m -14.57,9.58 7.5,-11.69 c -2.48,0.44 -5,0.9 -7.5,1.38 v 10.31 m 191,0 v -10.33 c -2.5,-0.48 -5,-0.94 -7.5,-1.38 q 3.75,5.83 7.5,11.69 m -40.29,1.85 -7.83,-13.94 v 13.44 c 2.56,0.15 5.18,0.32 7.83,0.5 m -12.16,-0.75 V 355 l -7.54,13 7.52,0.39 m -86.07,0 7.52,-0.39 q -3.75,-6.46 -7.52,-12.93 v 13.32 M 444,369.1 c 2.64,-0.18 5.27,-0.35 7.83,-0.5 v -13.44 q -3.93,7 -7.83,13.94 m -17,1.26 c 2.66,-0.22 5.33,-0.42 8,-0.62 q -4,-6.81 -8,-13.6 v 14.22 m -27.63,-2.22 v -10.37 c -2.47,0.49 -5,1 -7.5,1.51 l 7.5,8.86 m 199.62,0 7.5,-8.86 c -2.53,-0.52 -5,-1 -7.5,-1.51 v 10.37 m -27.61,2.23 v -12 l -7.83,11.37 c 2.61,0.2 5.22,0.4 7.83,0.62 m -166,2 c 2.83,-0.28 5.67,-0.56 8.53,-0.82 v -12.48 l -8.53,13.27 m 15.2,-10.54 2.07,-0.1 v -3.1 l -2.07,3.2 m 172.31,10.54 -8.51,-13.24 v 12.42 l 8.51,0.82 m -17.24,-10.64 2.05,0.1 -2.05,-3.17 v 3.07 m -201.1,10.59 6.81,-10.76 c -2.27,0.5 -4.55,1 -6.81,1.53 v 9.23 m 249.18,0 v -9.23 c -2.27,-0.52 -4.55,-1 -6.81,-1.53 l 6.81,10.76 m -253.5,1.55 v -9.77 c -2.82,0.66 -5.66,1.35 -8.47,2 l 8.47,7.73 m 257.82,0 q 4.23,-3.87 8.47,-7.73 c -2.81,-0.69 -5.65,-1.38 -8.47,-2 v 9.77 m -18.87,0.25 V 363 q -4.3,5.07 -8.6,10.15 c 2.9,0.31 5.78,0.62 8.6,0.95 m -220.08,0 c 2.82,-0.33 5.69,-0.64 8.6,-0.95 Q 393.41,368 389.1,363 v 11.1 m 231.71,1.37 q -3.64,-5.77 -7.31,-11.53 v 10.65 l 7.31,0.88 m -243.35,0 7.32,-0.88 v -10.68 l -7.32,11.54 m -32,0.7 q 3.48,-3.86 7,-7.7 c -2.4,0.63 -4.74,1.25 -7,1.86 v 5.84 m 307.32,0 v -5.84 c -2.27,-0.62 -4.61,-1.24 -7,-1.85 l 7,7.69 M 341.15,375.4 v -3.91 l -2.34,0.65 2.34,3.26 m 315.94,0 2.33,-3.26 -2.33,-0.65 v 3.91 m -77,-6.06 v -3.1 l -2.07,-0.11 2.07,3.21 m -161.86,0 2,-3.18 -2,0.11 v 3.07 m 232,10.1 q -3.81,-4.2 -7.63,-8.39 v 7.29 l 7.63,1.1 m -11.94,-1.69 v -7.1 c -2.72,2.47 -4.08,3.7 -6.8,6.19 2.34,0.3 4.61,0.61 6.8,0.91 m -278.26,0 c 2.19,-0.3 4.45,-0.61 6.79,-0.91 -2.72,-2.49 -4.07,-3.72 -6.79,-6.19 v 7.1 m -11.95,1.69 7.63,-1.1 V 371 q -3.82,4.19 -7.63,8.39 m 316.14,2.12 -2.35,-5 c -1.19,1.65 -1.78,2.48 -3,4.13 l 5.31,0.83 m -330.12,0 5.31,-0.83 c -1.19,-1.65 -1.78,-2.48 -3,-4.13 l -2.35,5 m 88.23,-10.77 h 0.34 v -0.51 l -0.34,0.54 m 153.66,0 c -0.13,-0.2 -0.2,-0.3 -0.32,-0.5 v 0.47 h 0.32 m -149,6.85 c 24,-1.91 48.09,-3.3 72.18,-3.31 24.09,-0.01 48.19,1.4 72.2,3.31 v -2.92 c -24,-1.93 -48.1,-3.32 -72.2,-3.34 -24.1,-0.02 -48.09,1.43 -72.09,3.36 v 2.92 m -8.74,7.58 4.44,-0.23 v -9.91 l -3.3,0.29 v 0.06 a 2.33,2.33 0 0 1 -1.09,0.9 v 8.89 m 157.33,-0.19 4.45,0.23 v -8.88 a 2.29,2.29 0 0 1 -1.11,-0.91 l -0.05,-0.06 -3.27,-0.29 c 0,3.3 0,6.61 0,9.91 m -174.15,-7.55 a 2.12,2.12 0 0 1 -1.11,-0.24 c -22.91,2.44 -45.76,5.4 -68.51,9 -0.58,1.22 -0.87,1.83 -1.44,3.05 q 41.57,-6.6 83.49,-10.51 v -2.91 q -5.6,0.53 -11.18,1.09 a 2.24,2.24 0 0 1 -1.25,0.49 m 266.36,11.84 c -0.58,-1.22 -0.87,-1.83 -1.44,-3.05 q -34.14,-5.43 -68.52,-9 a 2.08,2.08 0 0 1 -1.11,0.24 2.27,2.27 0 0 1 -1.25,-0.49 q -5.56,-0.57 -11.15,-1.09 v 2.91 q 41.89,4 83.47,10.51 m -239,9.95 q 70.23,-3.13 140.49,0 c 0.65,-3.24 1.31,-6.49 2,-9.73 v -4.63 c -24,-1.9 -48.11,-3.29 -72.21,-3.31 -24.1,-0.02 -48.15,1.36 -72.15,3.27 v 4.91 l 1.93,9.45 m -95,7.41 q 39,-4.22 78.09,-6.53 c 0.66,-3.31 1.31,-6.62 2,-9.94 V 386 q -40.17,3.79 -80.06,10 v 10.67 m 252.45,-6.53 q 39.13,2.32 78.1,6.53 v -10.73 q -39.84,-6.22 -80,-10 v 4.45 c 0.78,3.86 1.16,5.79 1.93,9.65 m -12.53,-0.67 c 3.25,0.16 4.88,0.25 8.13,0.43 -0.72,-3.66 -1.08,-5.49 -1.81,-9.16 v -1.17 l -4.45,-0.23 v 0.89 l -1.85,9.24 M 416.5,399.8 c 3.25,-0.18 4.88,-0.27 8.14,-0.43 -0.73,-3.58 -1.09,-5.37 -1.82,-9 v -1.17 l -4.44,0.23 v 0.82 0.07 l -1.85,9.44 M 582.22,285.78 c -3.49,-0.19 -5.24,-0.28 -8.74,-0.45 a 5.38,5.38 0 0 0 -5.69,5.42 q 0,25.41 0,50.82 c -22.74,-3.3 -45.66,-5.68 -68.66,-5.7 -23,-0.02 -45.93,2.4 -68.65,5.7 v -50.82 a 5.39,5.39 0 0 0 -5.7,-5.42 l -8.74,0.45 a 6.11,6.11 0 0 0 -5.69,6 q 0,26.54 0,53.08 a 773.12,773.12 0 0 0 -75.6,17.5 8.33,8.33 0 0 0 -5.09,4.4 q -4.83,10.22 -9.64,20.44 l -4.3,0.52 a 8.37,8.37 0 0 0 -7.12,8 6.27,6.27 0 0 0 7.12,6.26 l 7.38,-0.89 v 3.18 q -13.85,1.63 -27.67,3.49 c -5.62,0.6 -9.74,6.09 -10,11.44 0.18,5.1 4.6,9.69 10,8.66 a 1534.8,1534.8 0 0 1 407.36,0 c 5,0.5 10.3,-3.15 10,-8.66 0.16,-5.65 -4.74,-10.46 -10,-11.44 q -13.83,-1.86 -27.68,-3.49 v -3.18 l 7.39,0.89 a 6.28,6.28 0 0 0 7.12,-6.26 8.37,8.37 0 0 0 -7.12,-8 l -4.3,-0.52 q -4.82,-10.23 -9.64,-20.44 a 8.32,8.32 0 0 0 -5.11,-4.4 C 638.6,355.2 613.32,349.5 587.89,344.86 v -53.07 a 6.12,6.12 0 0 0 -5.7,-6 z m -78.84,65.92 v -1.52 h 0.95 l -0.95,1.51 z m 6,11.9 0.09,-0.15 v 0.15 z m -78.9,24.49 c 22.83,-1.75 45.74,-3 68.65,-3 22.91,0 45.83,1.28 68.67,3 V 389 c -0.53,2.64 -0.79,4 -1.33,6.6 q -67.33,-2.9 -134.7,0 c -0.52,-2.53 -0.77,-3.79 -1.29,-6.32 v -1.14 z m -93.11,10.84 q 36.38,-5.58 73,-9.1 V 390 c -0.53,2.69 -0.8,4 -1.33,6.73 q -35.91,2.19 -71.68,6 v -3.77 z m 250.54,-8.65 v -0.44 q 36.6,3.56 73,9.09 v 3.77 q -35.77,-3.78 -71.69,-6 c -0.51,-2.58 -0.77,-3.87 -1.28,-6.45 z"
       id="path191"
       inkscape:connector-curvature="0"
       style="fill:#f47c06" />
  </g>
  <path
     class="cls-9"
     d="m 45.76,318.45776 a 73,73 0 0 0 52,21.54 h 65.93 v -67.9 l -78.34,-1 c 0,0 -25.05,3.39 -32.56,-12.73 -7.51,-16.12 -28.55,-11.27 -28.55,-11.27 v 19.42 a 73,73 0 0 0 21.52,51.94 z"
     id="path195"
     inkscape:connector-curvature="0"
     style="fill:#3784d1" />
  <path
     class="cls-10"
     d="m 68.36,292.37776 c -8.71,-0.63 -20.15,-4.88 -23.71,-14.79 -2.14,-6 -6.25,-13.74 -13.69,-17 a 16.43,16.43 0 0 0 -6.74,-1.4 v 5.28 c 2.59,-0.07 10.44,0.93 15.45,14.89 4.42,12.3 18,17.53 28.31,18.27 1,0.07 2,0.11 2.91,0.11 9.74,0 17.79,-3.61 20.95,-9.56 l -4.67,-2.48 c -2.45,4.63 -10.02,7.31 -18.81,6.68 z"
     id="path197"
     inkscape:connector-curvature="0"
     style="fill:#93c6f9" />
  <path
     class="cls-10"
     d="m 50.31,310.61776 a 64.41,64.41 0 0 1 -17.07,-8.81 72.52,72.52 0 0 0 6.85,10.3 69.06,69.06 0 0 0 8.37,3.47 53.4,53.4 0 0 0 17,2.91 45.86,45.86 0 0 0 26.46,-8.4 l -3,-4.35 c -11.47,7.94 -24.47,9.58 -38.61,4.88 z"
     id="path199"
     inkscape:connector-curvature="0"
     style="fill:#93c6f9" />
  <path
     class="cls-10"
     d="m 77.49,337.17776 a 71.83,71.83 0 0 0 11.8,2.33 c 0.64,-0.22 1.3,-0.46 2,-0.71 10.27,-4 17.09,-9.45 20.29,-16.36 l -4.8,-2.22 c -5.53,11.88 -24.42,16.07 -29.29,16.96 z"
     id="path201"
     inkscape:connector-curvature="0"
     style="fill:#93c6f9" />
  <path
     class="cls-9"
     d="m 246.15,318.45776 a 73,73 0 0 1 -52,21.54 h -65.91 v -67.9 l 78.34,-1 c 0,0 25,3.39 32.56,-12.73 7.56,-16.12 28.55,-11.27 28.55,-11.27 v 19.42 a 73,73 0 0 1 -21.54,51.94 z"
     id="path203"
     inkscape:connector-curvature="0"
     style="fill:#3784d1" />
  <path
     class="cls-5"
     d="m 24.26,50.537759 h 10.47 v 7 a 11.55,11.55 0 0 1 -2.76,1.84 9,9 0 0 1 -4,0.92 8.06,8.06 0 0 1 -4,-1 9.4,9.4 0 0 1 -3.12,-2.85 14.52,14.52 0 0 1 -2.09,-4.56 22,22 0 0 1 -0.76,-6 v -0.11 a 19.93,19.93 0 0 1 0.78,-5.65 15.47,15.47 0 0 1 2.11,-4.54 10.18,10.18 0 0 1 3,-2.93 6.61,6.61 0 0 1 3.6,-1 8.5,8.5 0 0 1 4.32,1 14.33,14.33 0 0 1 3.4,2.86 l 1.49,1.67 5.6,-6.61 -1.55,-1.24 a 34.3,34.3 0 0 0 -3.22,-2.32 21.89,21.89 0 0 0 -3.65,-1.79 20.67,20.67 0 0 0 -4.18,-1.14 28.78,28.78 0 0 0 -4.82,-0.37 21.2,21.2 0 0 0 -8.87,1.83 21.48,21.48 0 0 0 -6.84,4.9 21.93,21.93 0 0 0 -4.38,7.11 23.68,23.68 0 0 0 -1.53,8.4 v 0.12 a 24.39,24.39 0 0 0 1.5,8.54 21.3,21.3 0 0 0 4.36,7.07 20.34,20.34 0 0 0 6.94,4.78 22.92,22.92 0 0 0 9.05,1.74 24,24 0 0 0 9.82,-1.95 27.8,27.8 0 0 0 7.25,-4.57 l 0.64,-0.58 v -18.46 H 27.79 Z"
     id="path205"
     inkscape:connector-curvature="0"
     style="fill:#2e3147" />
  <path
     class="cls-5"
     d="m 67.95,24.577759 -20,43.63 h 8.81 l 4.59,-10.21 h 19 l 4.53,10.21 h 15.81 l -20,-43.63 z m -2.54,24.83 6,-12.82 6.05,12.82 z"
     id="path207"
     inkscape:connector-curvature="0"
     style="fill:#2e3147" />
  <polygon
     class="cls-5"
     points="466.07,248.28 480.04,248.28 480.04,213.11 490.94,213.11 494.47,205.16 456.26,205.16 456.26,213.11 466.07,213.11 "
     id="polygon209"
     style="fill:#2e3147"
     transform="translate(-350.12,-180.07224)" />
  <path
     class="cls-5"
     d="m 186.47,30.427759 a 21.55,21.55 0 0 0 -15.87,-6.66 22,22 0 0 0 -9,1.8 21.17,21.17 0 0 0 -7,4.9 22.27,22.27 0 0 0 -4.49,7.09 22.76,22.76 0 0 0 -1.6,8.46 v 0.11 a 23.09,23.09 0 0 0 1.56,8.45 21.35,21.35 0 0 0 4.48,7.06 22.6,22.6 0 0 0 24.82,4.82 21.1,21.1 0 0 0 7,-4.89 22.65,22.65 0 0 0 6.09,-15.55 v -0.09 a 23,23 0 0 0 -1.56,-8.39 21.89,21.89 0 0 0 -4.43,-7.11 z m -21.17,25.84 a 14.89,14.89 0 0 1 -2.25,-4.55 19.21,19.21 0 0 1 -0.83,-5.7 v -0.09 a 19.64,19.64 0 0 1 0.8,-5.68 14.62,14.62 0 0 1 2.22,-4.51 10.8,10.8 0 0 1 3.28,-2.92 7.88,7.88 0 0 1 4,-1 7.71,7.71 0 0 1 3.94,1 11.2,11.2 0 0 1 3.35,3 14.7,14.7 0 0 1 2.27,4.53 19.32,19.32 0 0 1 0.83,5.71 v 0.11 a 19,19 0 0 1 -0.83,5.68 15,15 0 0 1 -2.25,4.52 10.64,10.64 0 0 1 -3.28,2.91 7.86,7.86 0 0 1 -4,1 7.66,7.66 0 0 1 -4,-1 10.83,10.83 0 0 1 -3.25,-3.01 z"
     id="path211"
     inkscape:connector-curvature="0"
     style="fill:#2e3147" />
  <path
     class="cls-5"
     d="m 234.16,50.607759 a 14.1,14.1 0 0 0 3.94,-2.77 12.74,12.74 0 0 0 2.61,-4 13.3,13.3 0 0 0 0.95,-5.14 v -0.11 a 13.36,13.36 0 0 0 -0.94,-5 12.26,12.26 0 0 0 -2.67,-4.06 14.86,14.86 0 0 0 -5.36,-3.34 20.33,20.33 0 0 0 -7.14,-1.18 h -24.42 v 43.11 h 13.92 v -15.19 h 7.18 l 11.36,15.26 h 11.4 l -12.64,-16.8 a 16,16 0 0 0 1.81,-0.78 z m -19.11,-17.62 h 10.16 c 2.72,0 4.8,0.55 6.2,1.65 a 4.85,4.85 0 0 1 1.9,4.15 v 0.14 a 5.55,5.55 0 0 1 -0.54,2.51 5.38,5.38 0 0 1 -1.56,1.9 7.48,7.48 0 0 1 -2.54,1.27 12.31,12.31 0 0 1 -3.52,0.46 h -10.1 z"
     id="path213"
     inkscape:connector-curvature="0"
     style="fill:#2e3147" />
  <path
     class="cls-5"
     d="m 287.17,50.817759 a 12.79,12.79 0 0 0 -2.85,-3.52 16,16 0 0 0 -3.78,-2.41 31.51,31.51 0 0 0 -3.89,-1.52 27.6,27.6 0 0 0 -3.66,-0.92 l -2.51,-0.45 -1.94,-0.5 h -0.07 a 10.94,10.94 0 0 1 -3.79,-1.39 8.42,8.42 0 0 1 -1.93,-1.71 3.33,3.33 0 0 1 -0.74,-1.51 4.38,4.38 0 0 1 0.34,-2.23 5.11,5.11 0 0 1 1.53,-1.73 7,7 0 0 1 3.68,-1 15.24,15.24 0 0 1 5.14,0.42 22.83,22.83 0 0 1 4.23,1.56 17.56,17.56 0 0 1 3.67,2.42 l 1.35,1.18 5.3,-5.18 -1.68,-1.37 a 28.93,28.93 0 0 0 -8.55,-4.92 29.56,29.56 0 0 0 -9.89,-1.6 22.76,22.76 0 0 0 -6.34,0.85 16.6,16.6 0 0 0 -5.16,2.48 11.94,11.94 0 0 0 -3.54,4 11.18,11.18 0 0 0 -1.3,5.36 v 0.12 a 10.08,10.08 0 0 0 4.07,8.46 c 2.46,1.85 6.11,3.23 11.17,4.22 l 2.37,0.56 a 11.55,11.55 0 0 1 3.73,1.45 8.79,8.79 0 0 1 1.82,1.61 2.86,2.86 0 0 1 0.6,1.49 3.72,3.72 0 0 1 -0.4,2.16 4.48,4.48 0 0 1 -0.65,0.85 5.2,5.2 0 0 1 -1.11,0.85 7.13,7.13 0 0 1 -1.76,0.72 15.05,15.05 0 0 1 -2.63,0.47 15.33,15.33 0 0 1 -7.22,-1.13 14.71,14.71 0 0 1 -2.59,-1.44 18.39,18.39 0 0 1 -2,-1.56 l -1.31,-1.22 -5.57,5.1 1.43,1.44 a 15.35,15.35 0 0 0 3,2.21 33.61,33.61 0 0 0 3.89,2 34.42,34.42 0 0 0 4.36,1.61 20,20 0 0 0 4.1,0.81 4.2,4.2 0 0 0 0.86,0.07 c 0.61,0 1.49,0.07 2.7,0.09 h 0.44 a 36.41,36.41 0 0 0 3.79,-0.14 32.11,32.11 0 0 0 4.71,-0.89 16.94,16.94 0 0 0 4.66,-2 11.52,11.52 0 0 0 3.66,-3.69 10.6,10.6 0 0 0 1.46,-5.67 10.11,10.11 0 0 0 -1.2,-4.86 z"
     id="path215"
     inkscape:connector-curvature="0"
     style="fill:#2e3147" />
  <path
     class="cls-11"
     d="m 7.88,2.1577591 h 1.66 v 8.6099999 c 0,3.41 -1.68,4.46 -3.89,4.46 a 5.14,5.14 0 0 1 -1.77,-0.3 l 0.25,-1.35 a 4,4 0 0 0 1.39,0.25 c 1.49,0 2.36,-0.67 2.36,-3.19 z"
     id="path217"
     inkscape:connector-curvature="0"
     style="fill:#f47c06;stroke:#f47c06;stroke-width:1.75999999px;stroke-miterlimit:10" />
  <path
     class="cls-11"
     d="m 25.88,10.977759 -1.34,4 H 22.83 L 27.19,2.1177591 h 2 l 4.38,12.8599999 h -1.79 l -1.37,-4 z m 4.21,-1.2999999 -1.26,-3.7 c -0.28,-0.84 -0.47,-1.6 -0.66,-2.35 v 0 c -0.19,0.77 -0.4,1.55 -0.65,2.33 l -1.26,3.72 z"
     id="path219"
     inkscape:connector-curvature="0"
     style="fill:#f47c06;stroke:#f47c06;stroke-width:1.75999999px;stroke-miterlimit:10" />
  <path
     class="cls-11"
     d="m 55.58,14.597759 a 8.16,8.16 0 0 1 -3.4,0.61 c -3.62,0 -6.35,-2.29 -6.35,-6.4999999 a 6.4,6.4 0 0 1 6.71,-6.76 6.77,6.77 0 0 1 3,0.58 l -0.4,1.35 a 6.07,6.07 0 0 0 -2.59,-0.53 c -3,0 -5,1.92 -5,5.3 0,3.1499999 1.82,5.1699999 4.94,5.1699999 a 6.5,6.5 0 0 0 2.71,-0.54 z"
     id="path221"
     inkscape:connector-curvature="0"
     style="fill:#f47c06;stroke:#f47c06;stroke-width:1.75999999px;stroke-miterlimit:10" />
  <path
     class="cls-11"
     d="m 69.09,2.1577591 h 1.66 v 6.2 h 0.06 c 0.34,-0.49 0.69,-1 1,-1.37 l 3.93,-4.83 h 2.06 l -4.65,5.46 5,7.3999999 h -2 L 71.91,8.7077591 70.69,10.117759 v 4.9 h -1.66 z"
     id="path223"
     inkscape:connector-curvature="0"
     style="fill:#f47c06;stroke:#f47c06;stroke-width:1.75999999px;stroke-miterlimit:10" />
  <path
     class="cls-11"
     d="m 90.64,12.997759 a 5.84,5.84 0 0 0 3,0.84 c 1.7,0 2.69,-0.9 2.69,-2.2 0,-1.3 -0.68,-1.8799999 -2.42,-2.5499999 -2.1,-0.75 -3.39,-1.83 -3.39,-3.65 0,-2 1.66,-3.49 4.15,-3.49 a 5.91,5.91 0 0 1 2.85,0.63 l -0.46,1.36 a 5.11,5.11 0 0 0 -2.44,-0.61 c -1.76,0 -2.42,1 -2.42,1.92 0,1.21 0.78,1.8 2.55,2.48 2.18,0.84 3.28,1.89 3.28,3.7799999 0,1.89 -1.47,3.7 -4.5,3.7 a 6.63,6.63 0 0 1 -3.28,-0.82 z"
     id="path225"
     inkscape:connector-curvature="0"
     style="fill:#f47c06;stroke:#f47c06;stroke-width:1.75999999px;stroke-miterlimit:10" />
  <path
     class="cls-11"
     d="m 122.7,8.4577591 c 0,4.4199999 -2.69,6.7699999 -6,6.7699999 -3.31,0 -5.78,-2.63 -5.78,-6.5199999 0,-4.09 2.53,-6.76 6,-6.76 3.47,0 5.78,2.69 5.78,6.51 z m -10,0.21 c 0,2.7499999 1.49,5.2099999 4.1,5.2099999 2.61,0 4.12,-2.43 4.12,-5.3499999 0,-2.55 -1.33,-5.22 -4.1,-5.22 -2.77,0 -4.1,2.54 -4.1,5.36 z"
     id="path227"
     inkscape:connector-curvature="0"
     style="fill:#f47c06;stroke:#f47c06;stroke-width:1.75999999px;stroke-miterlimit:10" />
  <path
     class="cls-11"
     d="M 136.29,15.017759 V 2.1577591 h 1.81 l 4.12,6.51 a 36.9,36.9 0 0 1 2.31,4.1799999 v 0 c -0.16,-1.72 -0.19,-3.2799999 -0.19,-5.2899999 v -5.38 h 1.56 V 15.037759 h -1.68 l -4.08,-6.5199999 a 38.86,38.86 0 0 1 -2.4,-4.29 h -0.06 c 0.09,1.63 0.13,3.17 0.13,5.31 v 5.4899999 z"
     id="path229"
     inkscape:connector-curvature="0"
     style="fill:#f47c06;stroke:#f47c06;stroke-width:1.75999999px;stroke-miterlimit:10" />
  <path
     class="cls-11"
     d="M 163.1,15.017759 158.88,2.1577591 h 1.79 l 2,6.34 c 0.55,1.7299999 1,3.2999999 1.37,4.7999999 v 0 c 0.36,-1.48 0.89,-3.11 1.47,-4.7799999 l 2.17,-6.36 h 1.78 l -4.6,12.8599999 z"
     id="path231"
     inkscape:connector-curvature="0"
     style="fill:#f47c06;stroke:#f47c06;stroke-width:1.75999999px;stroke-miterlimit:10" />
  <path
     class="cls-11"
     d="M 184.02,2.1577591 V 15.017759 h -1.66 V 2.1577591 Z"
     id="path233"
     inkscape:connector-curvature="0"
     style="fill:#f47c06;stroke:#f47c06;stroke-width:1.75999999px;stroke-miterlimit:10" />
  <path
     class="cls-11"
     d="m 198.35,2.1577591 h 1.66 V 13.627759 h 5.5 v 1.39 h -7.16 z"
     id="path235"
     inkscape:connector-curvature="0"
     style="fill:#f47c06;stroke:#f47c06;stroke-width:1.75999999px;stroke-miterlimit:10" />
  <path
     class="cls-11"
     d="m 218.8,2.1577591 h 1.65 V 13.627759 h 5.5 v 1.39 h -7.15 z"
     id="path237"
     inkscape:connector-curvature="0"
     style="fill:#f47c06;stroke:#f47c06;stroke-width:1.75999999px;stroke-miterlimit:10" />
  <path
     class="cls-11"
     d="m 245.88,8.9877591 h -5 v 4.6399999 h 5.56 v 1.39 h -7.22 V 2.1577591 h 6.94 v 1.4 h -5.28 v 4.06 h 5 z"
     id="path239"
     inkscape:connector-curvature="0"
     style="fill:#f47c06;stroke:#f47c06;stroke-width:1.75999999px;stroke-miterlimit:10" />
  <path
     class="cls-12"
     d="m 262.12,260.92776 c 0,0 -16.61,1.15 -21.14,15 -4.53,13.85 -28.27,10.8 -28.27,10.8"
     id="path241"
     inkscape:connector-curvature="0"
     style="fill:none;stroke:#93c6f9;stroke-width:5.28999996px;stroke-miterlimit:10" />
  <path
     class="cls-5"
     d="m 267.88,315.55776 c 0,0 -34.72,9.73 -63,9.87 0,0 -42.73,-7.52 -60.72,-0.91 0,0 -17.42,7 -27.39,-8.25 0,0 -20.58,-10.79 -13,-30 7.58,-19.21 24.16,-11.22 24.16,-11.22 l 28.09,-11.38 c 0,0 6.72,-16.32 22.38,-17 l 22.48,-3.34 c 0,0 19.7,-3.77 27.78,-9.94 l 18.66,-6.81 3.64,4.46 28,-13.24 -4.15,85.13 z"
     id="path243"
     inkscape:connector-curvature="0"
     style="fill:#2e3147" />
  <path
     class="cls-13"
     d="m 128.88,318.43776 c 0,0 -4.21,-0.86 -4,-4.79 l 0.73,-4.09 c 0,0 -5.84,-0.08 -9.49,-3.33 -3.65,-3.25 -8.95,-9.09 -6.25,-16.9 2.7,-7.81 17.21,-6.2 33.86,-4.68 l -9.49,-6.09 c 0,0 17.64,-6.63 36.76,-12.63 l -6.94,-1.24 c 0,0 4.57,-11.87 19.42,-10.35 l -2.67,10.42 c 0,0 7.08,-13.22 31.93,-6.66 l -8.71,-6.76 c 0,0 5.73,-2.77 20.08,-5.17 l 17.88,-8.24 2.73,6.95 19.26,-9 3.13,7.51 -0.72,33.18 c 0,0 -12.57,11.92 -7,29.57 l -6.51,-9.59 1.17,11.55 -10.64,3.91 -0.46,-15.5 -7.2,16.61 c 0,0 -19.4,4.24 -27.87,3 0,0 17.36,1.62 31.43,-28.43 0,0 -22.33,27.57 -55.49,25.37 0,0 -21.72,-3.63 -32.85,-1.15 z"
     id="path245"
     inkscape:connector-curvature="0"
     style="fill:#28c628" />
  <path
     class="cls-14"
     d="m 178.52,272.92776 c 0,0 21.62,19.77 35.88,-9.9"
     id="path247"
     inkscape:connector-curvature="0"
     style="fill:#108910" />
  <ellipse
     class="cls-5"
     cx="-268.42041"
     cy="174.3774"
     rx="3.49"
     ry="5.3600001"
     transform="rotate(-79.86)"
     id="ellipse249"
     style="fill:#2e3147" />
  <path
     class="cls-5"
     d="m 120.4,312.21776 -1,-4 c 0.11,0 10.32,-2.71 14.58,-4.85 l 1.19,-0.6 2.35,1.91 2,-11.35 6.91,6.9 8.71,-2.69 0.82,1.27 1.69,-9.44 7,9.27 1.89,-2.53 5.45,-0.87 1.94,-10.9 6.37,9.85 6.07,-14 6,9 a 29.53,29.53 0 0 0 18.1,-5.26 c 9.22,-6.63 15.51,-10.48 25.12,-8.18 l -1,4 c -7.25,-1.74 -11.79,0.35 -21.75,7.52 a 33.13,33.13 0 0 1 -21.96,5.98 l -0.93,-0.12 -2.87,-4.31 -6.09,14.11 -4.87,-7.53 -0.63,3.5 -6.68,1.03 -4.17,5.59 -4.61,-6.12 -1.87,10.42 -4.79,-7.41 -8.11,2.5 -3.09,-3.09 -1.87,10.49 -5.74,-4.68 a 122.09,122.09 0 0 1 -14.16,4.59 z"
     id="path251"
     inkscape:connector-curvature="0"
     style="fill:#2e3147" />
  <path
     class="cls-8"
     d="m 191.06,275.19776 c 0,0 8.19,2.9 10.36,-5.15 l 2.66,-6.83 c 0,0 -15.62,2.43 -18.79,8.24"
     id="path253"
     inkscape:connector-curvature="0"
     style="fill:#f47c06" />
  <path
     class="cls-5"
     d="m 178.52,272.92776 12.54,2.24 c 0,0 -3.72,-2.55 -3.35,-4.64 l 6.37,-3.18 3.06,4.73 1,-5.75 4,-0.49 -0.75,4.18 13,-7 c 0,0 -22.51,-5.87 -35.87,9.91 z"
     id="path255"
     inkscape:connector-curvature="0"
     style="fill:#2e3147" />
  <path
     class="cls-15"
     d="m 143.74,284.64776 c -16.65,-1.52 -31.16,-3.13 -33.86,4.68 -2.7,7.81 2.6,13.64 6.25,16.9 a 11.26,11.26 0 0 0 2.57,1.68 v 0 c 0,0 -7.95,-11.48 -0.29,-19.73 z"
     id="path257"
     inkscape:connector-curvature="0"
     style="fill:#90e260" />
  <polygon
     class="cls-15"
     points="484.38,458.63 490.84,462.92 521.12,446 "
     id="polygon259"
     style="fill:#90e260"
     transform="translate(-350.12,-180.07224)" />
  <polyline
     class="cls-5"
     points="558.31 470.14 584.7 459.87 579.84 458.12 572.65 458.57 563.61 464.77"
     id="polyline261"
     style="fill:#2e3147"
     transform="translate(-350.12,-180.07224)" />
  <polygon
     class="cls-14"
     points="592.11,418 574.23,426.24 594.84,424.95 "
     id="polygon263"
     style="fill:#108910"
     transform="translate(-350.12,-180.07224)" />
  <polygon
     class="cls-14"
     points="614.1,415.97 594.84,424.95 617.23,423.49 "
     id="polygon265"
     style="fill:#108910"
     transform="translate(-350.12,-180.07224)" />
  <polygon
     class="cls-14"
     points="587.72,435.03 569.84,443.27 590.45,441.98 "
     id="polygon267"
     style="fill:#108910"
     transform="translate(-350.12,-180.07224)" />
  <polygon
     class="cls-14"
     points="609.71,433 590.45,441.98 612.84,440.52 "
     id="polygon269"
     style="fill:#108910"
     transform="translate(-350.12,-180.07224)" />
  <path
     class="cls-15"
     d="m 264.71,278.47776 -25.4,9.18 c -14.07,30 -31.43,28.43 -31.43,28.43 8.47,1.27 27.87,-3 27.87,-3 l 7.2,-16.61 0.46,15.5 10.64,-3.91 -1.17,-11.52 6.49,9.61 a 29.59,29.59 0 0 1 5.34,-27.68 z"
     id="path271"
     inkscape:connector-curvature="0"
     style="fill:#90e260" />
  <path
     class="cls-6"
     d="m 142.99,89.537759 h 93.52 l 1.83,11.090001 8.74,-6.160001 -0.26,12.350001 11.31,-8.510001 -1.92,13.390001 11.48,-9.3 -4,18.39 11.3,-4.23 -3.78,12.25 9.24,-0.71 v 141.35 a 82.71,82.71 0 0 1 -82.7,82.7 h -56"
     id="path273"
     inkscape:connector-curvature="0"
     style="fill:none;stroke:#28c628;stroke-width:4.23000002px;stroke-miterlimit:10" />
  <path
     class="cls-9"
     d="m 85.72,280.84776 c 0,0 -13.17,37 38.65,49 l -15.23,-13.52 -10.2,-13.09 v -19.18"
     id="path297"
     inkscape:connector-curvature="0"
     style="fill:#3784d1" />
</svg>
