<?xml version="1.0" encoding="UTF-8" standalone="no"?>
<svg
   id="Layer_1"
   data-name="Layer 1"
   viewBox="0 0 295.83026 344.79645"
   version="1.1"
   sodipodi:docname="KC.svg"
   width="295.83026"
   height="344.79645"
   inkscape:version="1.1.1 (3bf5ae0d25, 2021-09-20)"
   xmlns:inkscape="http://www.inkscape.org/namespaces/inkscape"
   xmlns:sodipodi="http://sodipodi.sourceforge.net/DTD/sodipodi-0.dtd"
   xmlns="http://www.w3.org/2000/svg"
   xmlns:svg="http://www.w3.org/2000/svg"
   xmlns:rdf="http://www.w3.org/1999/02/22-rdf-syntax-ns#"
   xmlns:cc="http://creativecommons.org/ns#"
   xmlns:dc="http://purl.org/dc/elements/1.1/">
  <metadata
     id="metadata398">
    <rdf:RDF>
      <cc:Work
         rdf:about="">
        <dc:format>image/svg+xml</dc:format>
        <dc:type
           rdf:resource="http://purl.org/dc/dcmitype/StillImage" />
        <dc:title />
      </cc:Work>
    </rdf:RDF>
  </metadata>
  <sodipodi:namedview
     pagecolor="#ffffff"
     bordercolor="#666666"
     borderopacity="1"
     objecttolerance="10"
     gridtolerance="10"
     guidetolerance="10"
     inkscape:pageopacity="0"
     inkscape:pageshadow="2"
     inkscape:window-width="1920"
     inkscape:window-height="1017"
     id="namedview396"
     showgrid="false"
     inkscape:zoom="11.866823"
     inkscape:cx="164.36581"
     inkscape:cy="327.42546"
     inkscape:window-x="-8"
     inkscape:window-y="-8"
     inkscape:window-maximized="1"
     inkscape:current-layer="Layer_1"
     inkscape:pagecheckerboard="0" />
  <defs
     id="defs4">
    <style
       id="style2">.cls-1,.cls-16{fill:#912200;}.cls-2,.cls-7{fill:#ffb600;}.cls-3,.cls-6{fill:#d4731d;}.cls-10,.cls-4{fill:#fff;}.cls-4{stroke:#afafaf;}.cls-12,.cls-15,.cls-16,.cls-4{stroke-miterlimit:10;}.cls-13,.cls-5,.cls-8{fill:#ad3000;}.cls-13,.cls-14,.cls-6,.cls-7,.cls-8{stroke:#ffb600;stroke-linecap:round;stroke-linejoin:round;}.cls-6,.cls-7,.cls-8{stroke-width:4.45px;}.cls-9{fill:#6b1400;}.cls-11{fill:#c14721;}.cls-12,.cls-15{fill:none;stroke:#000;}.cls-12{stroke-width:6.35px;}.cls-13{stroke-width:6.29px;}.cls-14{stroke-width:6.12px;}.cls-15{stroke-width:9.25px;}.cls-16{stroke:#912200;stroke-width:2.24px;}</style>
    <clipPath
       clipPathUnits="userSpaceOnUse"
       id="clipPath1231">
      <path
         id="path1233"
         style="fill:#ff0000;fill-opacity:1;fill-rule:nonzero;stroke:none"
         d="m 63.279297,0 v 344.79688 h 68.869143 c -0.39801,-0.0496 -0.79586,-0.1056 -1.19141,-0.16993 -0.45564,-0.0755 -0.90728,-0.16566 -1.35937,-0.25976 -0.43462,-0.091 -0.86818,-0.18905 -1.30078,-0.28907 -0.42257,-0.0979 -0.84396,-0.20108 -1.26563,-0.30273 -0.41557,-0.1 -0.83056,-0.20064 -1.24609,-0.30078 -0.41933,-0.101 -0.83845,-0.20207 -1.25782,-0.30273 -0.42024,-0.10125 -0.84107,-0.20129 -1.26172,-0.30079 -0.41965,-0.0986 -0.8402,-0.19777 -1.25976,-0.29687 -0.4128,-0.0981 -0.82552,-0.19662 -1.23828,-0.29492 -0.40208,-0.0957 -0.80421,-0.18875 -1.20703,-0.28125 -0.40249,-0.0921 -0.80586,-0.18033 -1.20899,-0.26953 -0.40227,-0.0886 -0.80447,-0.17648 -1.20703,-0.26368 l 0.50781,-2.34179 c -0.22529,-0.006 -0.45059,-0.0117 -0.67578,-0.0176 -0.48746,-0.0127 -0.97543,-0.0247 -1.46289,-0.0371 -0.48989,-0.0123 -0.97889,-0.0242 -1.46875,-0.0371 -0.49052,-0.0131 -0.98018,-0.0261 -1.4707,-0.0391 -0.32271,-0.009 -0.16244,-0.004 -0.48438,-0.0117 l 0.0879,-3.34766 c -0.10153,-0.003 -0.20306,-0.006 -0.30468,-0.01 -0.31706,-0.0126 -0.63445,-0.0275 -0.95117,-0.0449 -0.27663,-0.0149 -0.55363,-0.0291 -0.83008,-0.0469 -0.24008,-0.0156 -0.47898,-0.0329 -0.71875,-0.0527 -0.17499,-0.0145 -0.35042,-0.0302 -0.52539,-0.0449 -0.13667,-0.0113 -0.27354,-0.0212 -0.41016,-0.0332 -0.12837,-0.0111 -0.25677,-0.0222 -0.38477,-0.0371 -0.10695,-0.0134 -0.21413,-0.0282 -0.32031,-0.0469 l 0.60352,-3.48633 c -0.0189,2e-5 -0.0378,-3e-5 -0.0566,0 -0.36353,0 -0.72634,10e-4 -1.08985,-0.004 -0.27257,-0.005 -0.54611,-0.0108 -0.81836,-0.0254 -0.14395,-0.008 -0.28801,-0.0184 -0.43164,-0.0312 l 0.21485,-2.30859 c -0.48306,-0.0518 -0.96593,-0.10317 -1.44922,-0.15625 -0.58951,-0.0644 -1.17992,-0.12791 -1.76953,-0.19141 -0.50679,-0.0539 -1.01424,-0.10675 -1.52149,-0.15625 -0.44161,-0.0429 -0.8822,-0.0844 -1.32422,-0.12305 -0.40778,-0.0358 -0.816558,-0.0704 -1.224606,-0.10351 -0.375135,-0.0308 -0.749529,-0.0615 -1.125,-0.0879 -0.344625,-0.0246 -0.690294,-0.0492 -1.035156,-0.0703 -0.306961,-0.019 -0.612838,-0.0359 -0.919922,-0.0527 -0.255898,-0.0137 -0.51168,-0.0254 -0.767578,-0.0391 -0.176748,-0.009 -0.354467,-0.0174 -0.53125,-0.0254 -0.08552,-0.004 -0.170309,-0.009 -0.255859,-0.0117 -0.01882,-6.7e-4 -0.03781,-1e-5 -0.05664,0 v -5.66016 c -0.209739,-0.0184 -0.419136,-0.0359 -0.628906,-0.0547 -0.212036,-0.019 -0.424692,-0.0376 -0.636719,-0.0566 -0.207855,-0.0189 -0.415376,-0.0378 -0.623047,-0.0586 -0.18139,-0.0182 -0.363621,-0.0356 -0.544922,-0.0547 -0.163542,-0.0169 -0.326741,-0.0335 -0.490234,-0.0508 -0.149923,-0.0165 -0.299436,-0.035 -0.449219,-0.0527 -0.122529,-0.0152 -0.244788,-0.0287 -0.367187,-0.0449 -0.127494,-0.0176 -0.25448,-0.036 -0.38086,-0.0606 -0.120611,-0.0238 -0.24066,-0.0519 -0.359375,-0.084 l 1.580079,-5.74414 c -0.182171,-0.0456 0.113647,0.0242 -0.08789,-0.0215 -0.02405,-0.005 0.01632,-0.001 0.06445,0.008 0.0938,0.0115 0.18746,0.0236 0.28125,0.0352 0.123156,0.0143 0.245897,0.0275 0.369141,0.041 0.150062,0.0158 0.301073,0.0315 0.451171,0.0469 0.176346,0.0186 0.352863,0.037 0.529297,0.0547 0.189201,0.019 0.377039,0.0355 0.566407,0.0527 0.08336,0.007 0.166642,0.0159 0.25,0.0234 l -0.06641,-2.73828 c 0.138149,-0.003 0.276057,0.002 0.414063,0.008 0.140081,0.006 0.279857,0.0135 0.419922,0.0195 0.188848,0.009 0.377676,0.0184 0.566406,0.0293 0.217726,0.0134 0.434777,0.0292 0.652344,0.0449 0.225564,0.0165 0.452269,0.035 0.677734,0.0527 0.236146,0.0191 0.472879,0.039 0.708984,0.0586 0.25437,0.0201 0.507651,0.0428 0.761719,0.0664 0.276388,0.0253 0.551975,0.0524 0.828125,0.0801 0.298211,0.0306 0.596116,0.0594 0.894532,0.0879 0.336258,0.0324 0.673316,0.0633 1.009766,0.0937 0.36803,0.0326 0.73736,0.0641 1.10547,0.0957 0.38612,0.0329 0.77204,0.0653 1.1582,0.0976 0.39979,0.0328 0.79944,0.065 1.19922,0.0977 0.40748,0.0334 0.81502,0.0666 1.22266,0.0976 0.42709,0.0335 0.85411,0.0648 1.28125,0.0977 0.44639,0.0343 0.89333,0.0669 1.33984,0.0996 0.46808,0.0342 0.93607,0.0675 1.4043,0.0996 0.31789,0.0216 0.1582,0.01 0.47656,0.0312 l -0.0273,0.40234 c 0.4641,0.0301 0.92847,0.0592 1.39258,0.0879 0.54937,0.034 1.09895,0.0676 1.64843,0.0996 0.55796,0.0325 1.11582,0.0627 1.67383,0.0937 0.5628,0.0313 1.12462,0.062 1.6875,0.0918 0.56201,0.03 1.12536,0.0585 1.6875,0.0859 0.56213,0.0274 1.12337,0.0537 1.68555,0.0801 0.56359,0.0269 1.12769,0.0504 1.69141,0.0742 0.58126,0.0244 1.16281,0.0477 1.74414,0.0703 0.60658,0.0236 1.21367,0.0467 1.82031,0.0684 0.63074,0.0225 1.2598,0.0443 1.89062,0.0645 0.64762,0.0207 1.29562,0.0398 1.94336,0.0566 0.66292,0.0167 1.32727,0.0322 1.99024,0.0469 0.66388,0.0148 1.32626,0.0271 1.99023,0.0371 0.66064,0.0102 1.32172,0.0184 1.98242,0.0234 0.65541,0.005 1.31137,0.007 1.9668,0.008 0.65451,9.9e-4 1.30841,-0.003 1.96289,-0.008 0.66678,-0.005 1.33326,-0.0144 2,-0.0234 0.68502,-0.0102 1.37163,-0.0185 2.05664,-0.0293 0.69422,-0.0114 1.38782,-0.0233 2.08203,-0.0352 0.6886,-0.0121 1.37785,-0.0247 2.06641,-0.0391 0.67703,-0.0146 1.35232,-0.0319 2.0293,-0.0488 0.65774,-0.0164 1.317,-0.0335 1.97461,-0.0547 0.64031,-0.0206 1.27986,-0.045 1.91992,-0.0723 0.6263,-0.0267 1.25301,-0.0589 1.8789,-0.0937 0.61819,-0.0342 1.23582,-0.0731 1.85352,-0.11524 0.60735,-0.041 1.2137,-0.0881 1.82031,-0.13867 0.6004,-0.0499 1.20104,-0.10686 1.80078,-0.16406 0.58711,-0.0554 1.17322,-0.11478 1.75977,-0.17578 0.56685,-0.0584 1.13296,-0.12165 1.69922,-0.18555 0.54375,-0.0611 1.08615,-0.12601 1.6289,-0.19531 0.52203,-0.0663 1.04402,-0.14105 1.56446,-0.21875 0.51793,-0.0782 1.03558,-0.15899 1.55273,-0.24219 0.50918,-0.0823 1.01677,-0.16818 1.52539,-0.25391 0.50584,-0.0851 1.01178,-0.17055 1.51758,-0.25585 0.49322,-0.0822 0.98582,-0.16676 1.47852,-0.25196 0.4924,-0.0849 0.98631,-0.17181 1.47851,-0.25781 0.49482,-0.0866 0.98948,-0.17171 1.48438,-0.25781 0.49172,-0.0855 0.98312,-0.17102 1.47461,-0.25781 0.49366,-0.0868 0.98687,-0.17432 1.48047,-0.26172 0.49627,-0.0881 0.9918,-0.17472 1.48828,-0.26172 0.49461,-0.0864 0.98988,-0.17462 1.48437,-0.26172 0.48896,-0.0858 0.97813,-0.17237 1.4668,-0.25977 0.48278,-0.0862 0.9648,-0.17567 1.44726,-0.26367 0.47851,-0.0865 0.9574,-0.17527 1.43555,-0.26367 0.49037,-0.0908 0.97979,-0.17978 1.4707,-0.26758 0.50584,-0.0905 1.01274,-0.17857 1.51954,-0.26367 0.52682,-0.0894 1.05546,-0.16915 1.58398,-0.24805 0.0319,-0.005 0.0638,-0.009 0.0957,-0.0137 0.17811,-0.0878 0.35436,-0.17731 0.5293,-0.27148 0.16128,-0.0866 0.32133,-0.17574 0.47852,-0.26954 0.14509,-0.0859 0.28963,-0.17267 0.43164,-0.26367 0.12753,-0.081 0.25536,-0.16384 0.38086,-0.24804 0.0979,-0.0654 0.19546,-0.13117 0.29296,-0.19727 0.0155,-0.0105 0.0971,-0.0694 0.0801,-0.0547 -0.12133,0.097 -0.23546,0.2034 -0.33594,0.32227 l 0.71485,0.61914 c 0.15565,-0.0213 0.3113,-0.0433 0.46679,-0.0644 0.4251,-0.058 0.85012,-0.11538 1.2754,-0.17188 l 0.24609,1.85938 c 0.0689,-0.0258 0.1382,-0.0503 0.20703,-0.0762 0.39908,-0.15 0.799,-0.29904 1.19727,-0.45117 0.35749,-0.13611 0.71427,-0.2742 1.07031,-0.41406 0.33282,-0.13069 0.66545,-0.26135 0.99805,-0.39258 0.31683,-0.12494 0.63491,-0.24972 0.95312,-0.37109 0.29962,-0.11341 0.5985,-0.22481 0.90039,-0.33203 0.26907,-0.0946 0.53932,-0.18921 0.8086,-0.28321 0.26646,-0.092 0.53134,-0.18433 0.79882,-0.27343 0.25764,-0.0862 0.51636,-0.17201 0.77539,-0.25391 0.13952,-0.0439 0.27959,-0.0874 0.41797,-0.13477 0.0235,-0.009 0.0898,-0.043 0.0703,-0.0273 -0.0548,0.0441 -0.24701,0.067 -0.25,0.12891 l 2.9746,5.16406 c -0.22506,0.13003 -0.46632,0.22551 -0.70898,0.31641 -0.23557,0.0864 -0.47557,0.16102 -0.71484,0.23632 -0.22526,0.0713 -0.44975,0.14571 -0.67383,0.22071 -0.24886,0.0829 -0.49623,0.1683 -0.74414,0.2539 -0.25872,0.0905 -0.51684,0.18254 -0.77539,0.27344 -0.2575,0.0918 -0.51386,0.18836 -0.76953,0.28516 -0.0626,0.0239 -0.12499,0.0482 -0.1875,0.0723 0.0273,9.4e-4 0.0547,8e-4 0.082,0.002 0.15755,0.007 0.31528,0.0129 0.47265,0.0234 0.0537,0.004 0.10686,0.005 0.16016,0.0117 l -0.12891,2.75196 c 0.35343,0.12405 0.69586,0.27655 1.02735,0.45898 0.93955,0.59296 1.45446,1.26893 1.83593,2.30859 0.23002,0.72267 0.20654,1.4653 0.10547,2.20508 -0.0998,0.67136 -0.35588,1.29437 -0.66992,1.89063 -0.26606,0.48426 -0.59471,0.92957 -0.9375,1.36132 -0.30999,0.38427 -0.64706,0.74514 -0.98828,1.10157 -0.33978,0.35251 -0.69627,0.68859 -1.05859,1.01757 -0.38005,0.34362 -0.7784,0.6653 -1.1836,0.97852 -0.42387,0.32708 -0.86812,0.62407 -1.32031,0.91016 -0.43437,0.2688 -0.87961,0.51933 -1.32813,0.76367 -0.45606,0.24623 -0.92415,0.47025 -1.39453,0.6875 -0.46444,0.21165 -0.93489,0.40694 -1.4082,0.59765 -0.43372,0.17325 -0.86971,0.34363 -1.30469,0.51368 -0.41828,0.16357 -0.837,0.3262 -1.25586,0.48828 -0.40549,0.15682 -0.81031,0.31538 -1.21484,0.47461 -0.39948,0.15747 -0.7968,0.31862 -1.19531,0.47851 -0.4021,0.1612 -0.80409,0.32139 -1.20703,0.48047 -0.41221,0.16196 -0.82589,0.32017 -1.24024,0.47656 -0.40422,0.15225 -0.80948,0.30196 -1.21484,0.45118 -0.40781,0.15134 -0.81776,0.29634 -1.22852,0.43945 -0.41906,0.14515 -0.84159,0.28385 -1.26367,0.41992 -0.4253,0.13595 -0.85298,0.26444 -1.28125,0.39063 -0.42377,0.12359 -0.84923,0.23848 -1.27539,0.35351 -0.42274,0.11444 -0.8481,0.22191 -1.27344,0.32617 -0.42925,0.10454 -0.85959,0.20178 -1.29101,0.29688 -0.44375,0.0983 -0.8899,0.18634 -1.33594,0.27344 -0.46031,0.089 -0.92289,0.1696 -1.38477,0.25 -0.46263,0.0806 -0.92511,0.15742 -1.38867,0.23242 -0.46321,0.0742 -0.92675,0.14494 -1.39062,0.21484 -0.4564,0.0685 -0.91387,0.13457 -1.3711,0.19727 -0.26399,0.036 -0.52859,0.0649 -0.79297,0.0957 l -0.002,4.74024 h 55.79297 V 0 Z m 47.712893,323.9668 c 0.0267,0.002 0.0534,0.005 0.0801,0.008 v -0.004 c -0.0267,-10e-4 -0.0534,-0.003 -0.0801,-0.004 z m 79.38672,0.0918 1.09961,3.79883 c -0.11085,0.0321 -0.22349,0.0582 -0.33594,0.084 -0.16001,0.0365 -0.3222,0.0632 -0.48438,0.0879 -0.14116,0.0215 -0.28231,0.0402 -0.42382,0.0586 -0.15317,0.0199 -0.30586,0.0408 -0.45899,0.0605 -0.17965,0.022 -0.35951,0.0456 -0.53906,0.0684 -0.19475,0.0246 -0.38933,0.0489 -0.58399,0.0742 -0.22233,0.0295 -0.44548,0.0578 -0.66796,0.0859 -0.0658,0.008 -0.13154,0.0155 -0.19727,0.0234 l 0.0977,1.10742 c 0.311,-0.12483 0.62177,-0.25016 0.93359,-0.37304 0.41523,-0.16344 0.82989,-0.32733 1.24609,-0.48829 0.41245,-0.1596 0.82445,-0.31746 1.23633,-0.47851 0.4159,-0.16259 0.8333,-0.3267 1.24805,-0.49219 0.38239,-0.15399 0.76308,-0.31042 1.13867,-0.48047 0.35108,-0.16186 0.70024,-0.32694 1.04102,-0.50976 0.33577,-0.18268 0.66975,-0.36917 0.99609,-0.56836 0.29432,-0.1854 0.58355,-0.37746 0.85937,-0.58985 0.28071,-0.21648 0.55868,-0.4365 0.82227,-0.67382 0.17462,-0.15831 0.34274,-0.32401 0.51172,-0.48829 -0.11988,-0.006 -0.23948,-0.0137 -0.35938,-0.0195 -0.51972,-0.0259 -1.03878,-0.0521 -1.55859,-0.0762 -0.53425,-0.0243 -1.06924,-0.0486 -1.60352,-0.0723 -0.54081,-0.0232 -1.08211,-0.0465 -1.62304,-0.0664 -0.5473,-0.0192 -1.09517,-0.0372 -1.64258,-0.0527 -0.25078,-0.007 -0.50137,-0.0132 -0.75195,-0.0195 z M 157.9082,344.5 l 0.0879,0.29688 h 10.53516 c -0.63084,-0.004 -1.26204,-0.009 -1.89258,-0.0176 -0.76296,-0.0108 -1.52624,-0.0245 -2.28906,-0.043 -0.74897,-0.0181 -1.49729,-0.0382 -2.24609,-0.0625 -0.7322,-0.0241 -1.46338,-0.0509 -2.19532,-0.082 -0.66657,-0.0284 -1.33356,-0.0591 -2,-0.0918 z" />
    </clipPath>
  </defs>
  <path
     class="cls-5"
     d="M 293.36018,17.26 H 2.4401839 A 2.46,2.46 0 0 0 1.8390834e-4,19.75 V 191.17 C 0.40018391,200.29 1.1201839,211.84 2.3001839,218.67 c 0.16,0.81 0.33,1.64 0.51,2.5 0.08,0.35 0.16,0.69 0.22,1 a 177.49,177.49 0 0 0 16.1700001,45 c 10.09,19.09 23.32,34.48 39.34,45.74 17.62,12.39 38.56,19.69 62.269996,21.71 a 2.41,2.41 0 0 0 1.57,0.58 h 49.44 a 2.38,2.38 0 0 0 1.63,-0.64 c 23.52,-1.77 44.37,-8.68 62,-20.56 16.17,-10.91 29.6,-25.94 39.92,-44.68 a 178.49,178.49 0 0 0 19.21,-56.86 c 0.74,-0.43 1.25,-12.71 1.25,-13.64 V 19.75 a 2.47,2.47 0 0 0 -2.47,-2.49 z"
     id="path142"
     inkscape:connector-curvature="0"
     style="fill:#ad3000" />
  <path
     class="cls-6"
     d="M 285.06018,27.99 H 10.720184 v 169.89 0 c 0.33,4.31 10,118 121.539996,119.62 v 0.19 h 32.85 v 0 c 112.14,-2.77 119.94,-119.71 119.94,-119.71 l -0.2,-0.05 h 0.2 z"
     id="path144"
     inkscape:connector-curvature="0"
     style="fill:#d4731d;stroke:#ffb600;stroke-width:4.44999981px;stroke-linecap:round;stroke-linejoin:round" />
  <path
     class="cls-7"
     d="m 10.730184,197.88 c 0.33,4.31 10,118 121.539996,119.62 v 0.19 h 32.85 v 0 a 145.56,145.56 0 0 0 20.9,-2 V 246.17 H 63.250184 c -34.21,-2.59 -52.52,-48.29 -52.52,-48.29 z"
     id="path146"
     inkscape:connector-curvature="0"
     style="fill:#ffb600;stroke:#ffb600;stroke-width:4.44999981px;stroke-linecap:round;stroke-linejoin:round" />
  <path
     class="cls-8"
     d="m 35.320184,162.17 c 0,0 0.56,-21.93 23.45,-41.63 22.89,-19.7 9.58,-43.61 -10.53,-35.72 -20.11,7.89 -26.09,22.69 -12.92,77.35 z"
     id="path148"
     inkscape:connector-curvature="0"
     style="fill:#ad3000;stroke:#ffb600;stroke-width:4.44999981px;stroke-linecap:round;stroke-linejoin:round" />
  <path
     class="cls-8"
     d="m 83.030184,77.54 c 0,0 -3.54,-18.64 -28.59,-13.37 -25.05,5.27 -26.48,-10.84 -14.2,-20.26 12.28,-9.42 45.73,-5.46 42.79,33.63 z"
     id="path150"
     inkscape:connector-curvature="0"
     style="fill:#ad3000;stroke:#ffb600;stroke-width:4.44999981px;stroke-linecap:round;stroke-linejoin:round" />
  <path
     class="cls-8"
     d="m 75.890184,232.24 c 0,0 -14.4,-11.17 -16.9,-34.76 -2.5,-23.59 -24.71,-27.31 -28.81,-11.25 -4.1,16.06 2.98,26.99 45.71,46.01 z"
     id="path152"
     inkscape:connector-curvature="0"
     style="fill:#ad3000;stroke:#ffb600;stroke-width:4.44999981px;stroke-linecap:round;stroke-linejoin:round" />
  <path
     class="cls-8"
     d="m 247.54018,84.86 c -20.11,-7.89 -33.41,16 -10.53,35.72 22.88,19.72 23.43,41.59 23.43,41.59 13.19,-54.66 7.21,-69.42 -12.9,-77.31 z"
     id="path154"
     inkscape:connector-curvature="0"
     style="fill:#ad3000;stroke:#ffb600;stroke-width:4.44999981px;stroke-linecap:round;stroke-linejoin:round" />
  <path
     class="cls-8"
     d="m 255.50018,43.95 c 12.29,9.42 10.81,25.57 -14.19,20.26 -25,-5.31 -28.55,13.33 -28.55,13.33 -2.95,-39.09 30.46,-43.01 42.74,-33.59 z"
     id="path156"
     inkscape:connector-curvature="0"
     style="fill:#ad3000;stroke:#ffb600;stroke-width:4.44999981px;stroke-linecap:round;stroke-linejoin:round" />
  <path
     class="cls-8"
     d="m 265.61018,186.23 c -4.11,-16.08 -26.32,-12.34 -28.82,11.25 -2.5,23.59 -16.9,34.76 -16.9,34.76 42.74,-19.02 49.82,-29.93 45.72,-46.01 z"
     id="path158"
     inkscape:connector-curvature="0"
     style="fill:#ad3000;stroke:#ffb600;stroke-width:4.44999981px;stroke-linecap:round;stroke-linejoin:round" />
  <path
     class="cls-7"
     d="m 285.05018,197.88 c -0.33,4.31 -10,118 -121.53,119.62 v 0.19 h -32.86 v 0 a 145.55,145.55 0 0 1 -20.89,-2 v -69.52 h 122.76 c 34.21,-2.59 52.52,-48.29 52.52,-48.29 z"
     id="path160"
     inkscape:connector-curvature="0"
     style="fill:#ffb600;stroke:#ffb600;stroke-width:4.44999981px;stroke-linecap:round;stroke-linejoin:round" />
  <path
     class="cls-2"
     d="m 226.65018,160.99 v 0 a 46.19,46.19 0 0 0 -4.9,-19.08 106.28,106.28 0 0 0 -8.62,-14.18 c -1.58,-2.29 -3.07,-4.46 -3.9,-6 l -1.22,-2.24 -0.32,-0.58 c -6.62,-12.13 -14.12,-25.88 -14.49,-36.38 V 60.17 l 1.46,-2.45 a 23,23 0 0 0 4.45,-13.55 v -14.3 l 0.41,-22.2 V 0 H 89.970184 v 7.59 l 0.31,22.26 v 14.32 a 22.94,22.94 0 0 0 5.16,14.45 l 1.29,2.15 v 21.74 c -0.37,10.53 -7.87,24.28 -14.49,36.41 l -0.11,0.19 -1.43,2.63 c -0.83,1.52 -2.32,3.69 -3.9,6 a 107.28,107.28 0 0 0 -8.62,14.16 46.43,46.43 0 0 0 -4.9,19.09 c 0,0.21 0,0.42 0,0.62 v 99.81 a 22.84,22.84 0 0 0 0.87,6.25 36.86,36.86 0 0 0 31,28.56 51.79,51.79 0 0 0 103.419996,-0.74 36.83,36.83 0 0 0 27.19,-27.77 23,23 0 0 0 0.88,-6.3 v -99.81 c 0.02,-0.2 0.02,-0.44 0.01,-0.62 z"
     id="path162"
     inkscape:connector-curvature="0"
     style="fill:#ffb600"
     clip-path="url(#clipPath1231)" />
  <path
     d="m 221.25018,161.17 c -0.34,-12.53 -7.12,-22.41 -12.57,-30.35 -1.66,-2.42 -3.23,-4.7 -4.2,-6.48 l -1.53,-2.81 c -6.92,-12.69 -14.77,-27.06 -15.15,-38.88 V 58.69 l 2.37,-4 a 17.42,17.42 0 0 0 3.54,-10.52 V 29.82 l 0.41,-22.23 V 5.41 H 95.370184 v 2.18 l 0.31,22.23 v 14.35 a 17.5,17.5 0 0 0 4.16,11.31 l 2.269996,3.79 v 23.34 c -0.38,11.82 -8.229996,26.19 -15.149996,38.88 l -1.52,2.82 c -1,1.78 -2.54,4.06 -4.19,6.48 -5.46,7.94 -12.24,17.82 -12.58,30.35 0,0.16 0,0.32 0,0.47 v 99.81 a 17.57,17.57 0 0 0 0.71,5 31.47,31.47 0 0 0 30.719996,24.75 h 89.71 a 31.47,31.47 0 0 0 30.74,-24.8 17.57,17.57 0 0 0 0.71,-5 v -99.76 c 0,-0.15 0,-0.31 -0.01,-0.44 z"
     id="path164"
     inkscape:connector-curvature="0" />
  <path
     class="cls-1"
     d="m 189.13018,130.43 c -8,-14.74 -18.36,-32.64 -18.8,-49.79 v -30 l 6.54,-8.65 V 23.27 c 0,0 1.88,-6.74 -8.24,-6.74 h -46.19 c -12.55,0 -10.23,6.74 -10.23,6.74 v 18.69 l 7.38,8.68 v 30 c -0.44,17.15 -10.8,35 -18.8,49.79 -0.44,0.81 -0.929996,1.63 -1.439996,2.46 -2.76,4.44 -6.42,9.15 -9.19,14.08 a 37.81,37.81 0 0 0 -2.64,5.64 21.46,21.46 0 0 0 -1.39,6.78 v 54.78 H 203.79018 v -54.78 c -0.28,-10.49 -9.95,-20.3 -14.66,-28.96 z"
     id="path168"
     inkscape:connector-curvature="0"
     style="fill:#912200" />
  <path
     class="cls-9"
     d="m 189.13018,130.43 c -8,-14.74 -18.36,-32.64 -18.8,-49.79 v -30 l 6.54,-8.65 V 23.27 c 0,0 1.88,-6.74 -8.24,-6.74 h -46.19 c -12.55,0 -10.23,6.74 -10.23,6.74 v 18.69 l 7.38,8.68 v 30 c -0.44,17.15 -10.8,35 -18.8,49.79 -0.44,0.81 -0.929996,1.63 -1.439996,2.46 -2.76,4.44 -6.42,9.15 -9.19,14.08 a 37.81,37.81 0 0 0 -2.64,5.64 21.46,21.46 0 0 0 -1.39,6.78 v 54.78 h 59.999996 l 26.46,-38 c 8.43,-9.23 -2.28,-31.11 -2.28,-31.11 -13.93,-19.62 -14.57,-63.62 -14.57,-63.62 l 12.29,-2.67 v 1.79 c 0.38,17.15 9.44,35 16.44,49.79 4.11,8.66 12.57,18.47 12.81,29 v 54.82 h 6.49 v -54.78 c -0.26,-10.49 -9.93,-20.3 -14.64,-28.96 z"
     id="path170"
     inkscape:connector-curvature="0"
     style="fill:#6b1400" />
  <path
     class="cls-10"
     d="m 170.37018,81.52 h -2.29 c 0.66,16.88 9.53,34.42 16.41,48.91 4.11,8.66 12.57,18.47 12.81,29 v 54.74 h 6.49 v -54.78 c -0.28,-10.49 -10,-20.3 -14.66,-29 -7.86,-14.45 -18,-31.99 -18.76,-48.87 z"
     id="path172"
     inkscape:connector-curvature="0"
     style="fill:#ffffff" />
  <path
     class="cls-1"
     d="m 184.49018,130.43 c -7,-14.74 -16.06,-32.64 -16.44,-49.79 v -30 l 5.72,-8.65 V 23.27 c 0,0 1.63,-6.74 -7.21,-6.74 h -40.4 c -11,0 -8.94,6.74 -8.94,6.74 v 18.69 l 6.45,8.68 v 30 c -0.38,17.15 -9.44,35 -16.44,49.79 -0.38,0.81 -0.81,1.63 -1.26,2.46 -2.41,4.44 -5.61,9.15 -7.999996,14.08 a 41.34,41.34 0 0 0 -2.32,5.64 24.73,24.73 0 0 0 -1.21,6.78 v 54.78 H 197.30018 v -54.78 c -0.24,-10.49 -8.7,-20.3 -12.81,-28.96 z"
     id="path174"
     inkscape:connector-curvature="0"
     style="fill:#912200" />
  <path
     class="cls-11"
     d="m 197.30018,159.39 c -0.24,-10.49 -8.7,-20.3 -12.81,-29 -7,-14.74 -16.06,-32.64 -16.44,-49.79 v -1.79 l -12.29,2.67 c 0,0 0.64,44 14.57,63.62 0,0 10.71,21.88 2.28,31.11 l -26.46,38 h 51.15 z"
     id="path176"
     inkscape:connector-curvature="0"
     style="fill:#c14721" />
  <path
     d="m 172.61018,176.25 a 32.74,32.74 0 0 1 -55.78,0 H 86.120184 v 81 H 204.12018 v -81 z"
     id="path178"
     inkscape:connector-curvature="0" />
  <path
     class="cls-9"
     d="M 86.120184,257.29 H 203.79018 v 0.21 a 14,14 0 0 1 -14,14 h -89.69 a 14,14 0 0 1 -13.999996,-14 v -0.21 z"
     id="path180"
     inkscape:connector-curvature="0"
     style="fill:#6b1400" />
  <path
     class="cls-1"
     d="M 94.310184,257.29 H 203.79018 V 258 a 13.48,13.48 0 0 1 -13.48,13.48 h -82.51 A 13.48,13.48 0 0 1 94.320184,258 v -0.71 z"
     id="path182"
     inkscape:connector-curvature="0"
     style="fill:#912200" />
  <path
     d="m 168.63018,16.53 h -46.19 c -12.55,0 -10.23,6.74 -10.23,6.74 v 18.69 l 7.38,8.68 v 30.88 h 50.75 V 50.61 l 6.54,-8.65 V 23.27 c 0,0 1.87,-6.74 -8.25,-6.74 z"
     id="path184"
     inkscape:connector-curvature="0" />
  <rect
     class="cls-2"
     x="119.58018"
     y="68.550003"
     width="50.75"
     height="4.8000002"
     id="rect186"
     style="fill:#ffb600" />
  <rect
     class="cls-2"
     x="86.440186"
     y="243.58"
     width="117.67"
     height="5.1199999"
     id="rect188"
     style="fill:#ffb600" />
  <path
     class="cls-11"
     d="m 146.15018,266.96 h 43.66 c 7.72,0 14,-4.26 14,-9.52 v -0.15 h -57.66 z"
     id="path190"
     inkscape:connector-curvature="0"
     style="fill:#c14721" />
  <path
     class="cls-10"
     d="m 189.81018,271.48 a 14,14 0 0 0 14,-14 v -0.21 h -6.49 c 0,0 0.64,12.51 -7.51,14.21 z"
     id="path192"
     inkscape:connector-curvature="0"
     style="fill:#ffffff" />
  <rect
     class="cls-10"
     x="107.97018"
     y="15.830004"
     width="72.360001"
     height="4.48"
     id="rect208"
     style="fill:#ffffff" />
  <polyline
     class="cls-10"
     points="282.6 281.87 286.96 307.67 287.89 280.26"
     id="polyline210"
     style="fill:#ffffff"
     transform="translate(-107.55982,-262.83)" />
  <path
     class="cls-10"
     d="m 114.44018,205.47 v 17.63 l -1.16,1.88 1.16,2.13 v 7.2 h 5 v -10.26 h 5 v 10.26 h 5 v -35 h -8.79 a 6.18,6.18 0 0 0 -6.21,6.16 z m 10,13.59 h -5 v -13.59 a 1.2,1.2 0 0 1 1.18,-1.19 h 3.82 z"
     id="path212"
     inkscape:connector-curvature="0"
     style="fill:#ffffff" />
  <path
     class="cls-10"
     d="m 148.44018,229.05 h -3.79 a 1.2,1.2 0 0 1 -1.21,-1.18 v -25.28 h -5 v 20.19 l -1.36,2.2 1.36,2.5 v 0.39 a 6.18,6.18 0 0 0 6.18,6.18 h 8.82 v -31.46 h -5 z"
     id="path214"
     inkscape:connector-curvature="0"
     style="fill:#ffffff" />
  <path
     class="cls-10"
     d="m 162.30018,205.41 v 17.37 l -1.36,2.2 1.36,2.5 v 0.39 a 6.18,6.18 0 0 0 6.18,6.18 h 8.66 v -8.17 h -5 v 3.17 h -3.7 a 1.2,1.2 0 0 1 -1.19,-1.18 v -22.46 a 1.21,1.21 0 0 1 1.19,-1.19 h 3.66 v 3.95 h 5 v -8.95 h -8.66 a 6.19,6.19 0 0 0 -6.14,6.19 z"
     id="path216"
     inkscape:connector-curvature="0"
     style="fill:#ffffff" />
  <path
     class="cls-10"
     d="m 205.09018,224.98 -1.3,-2.11 v -3 h -5 v 9.3 h -5.35 a 2.11,2.11 0 0 1 -2.11,-2.12 v -13.19 h 7.57 v -5 h -7.57 v -9.69 a 2.1,2.1 0 0 1 2.11,-2.11 h 5.76 v 5.56 h 5 v -10.59 h -10.76 a 7.12,7.12 0 0 0 -7.11,7.11 v 2.9 l -1.16,1.88 1.16,2.13 V 227 a 7.12,7.12 0 0 0 7.11,7.11 h 10.37 v -6.74 z"
     id="path218"
     inkscape:connector-curvature="0"
     style="fill:#ffffff" />
  <path
     class="cls-10"
     d="m 104.76018,222.87 v -6.81 a 7.14,7.14 0 0 0 -2.43,-5.35 l -0.23,-0.2 -9.329996,-4.8 c -0.19,-0.18 -0.4,-0.36 -0.48,-0.46 a 0.62,0.62 0 0 1 0,-0.16 v -5.92 a 2.11,2.11 0 0 1 2.11,-2.11 h 5.37 v 5.37 h 4.999996 v -5.34 a 4.8,4.8 0 0 0 -1,-3.5 4.48,4.48 0 0 0 -3.59,-1.53 h -5.739996 a 7.12,7.12 0 0 0 -7.11,7.11 v 3.67 l -1.16,1.88 1.39,2.56 v -0.4 a 6.15,6.15 0 0 0 2,2.71 l 0.35,0.31 9.27,4.77 a 2.09,2.09 0 0 1 0.55,1.42 v 10.94 a 2.12,2.12 0 0 1 -2.11,2.12 h -5.37 v -9.22 h -5 v 14.21 h 10.37 a 7.12,7.12 0 0 0 7.099996,-6.72 l 1.31,-2.41 z"
     id="path220"
     inkscape:connector-curvature="0"
     style="fill:#ffffff" />
  <path
     class="cls-1"
     d="m 160.94018,81.52 c 0,0 -0.24,33.9 12,54 12.24,20.1 13.43,23.6 13,40.75 h -13.33 l -24,-59.55 2.65,-28.59 -2.65,-6.59"
     id="path222"
     inkscape:connector-curvature="0"
     style="fill:#912200" />
  <path
     class="cls-11"
     d="m 167.97018,158.84 v -3 a 6.73,6.73 0 0 0 -6.72,-6.72 h -2.92 v -5.47 a 6.54,6.54 0 0 0 -2.2,-5.21 8.18,8.18 0 0 0 -6,-1.62 h -2.47 l 8.86,-16.78 -5.08,-2.69 -10.29,19.47 h -6.58 v -18.13 h -5.76 v 40.15 h 5.76 v -16.26 h 16 0.21 a 2.77,2.77 0 0 1 1.63,0.26 1.3,1.3 0 0 1 0.19,0.84 v 5.49 h -5.84 a 6.73,6.73 0 0 0 -6.72,6.72 v 17.28 a 6.72,6.72 0 0 0 6.72,6.72 h 14.52 a 6.73,6.73 0 0 0 6.72,-6.72 v -5 h -5.76 v 5 a 1,1 0 0 1 -1,1 h -14.51 a 1,1 0 0 1 -1,-1 v -17.33 a 1,1 0 0 1 1,-1 h 5.84 v 4 h 5.76 v -4 h 2.92 a 1,1 0 0 1 1,1 v 3 z"
     id="path224"
     inkscape:connector-curvature="0"
     style="fill:#c14721" />
  <path
     class="cls-9"
     d="m 163.49018,157.24 v -3 a 6.74,6.74 0 0 0 -6.73,-6.72 h -2.91 v -5.47 a 6.54,6.54 0 0 0 -2.2,-5.21 8.18,8.18 0 0 0 -6,-1.62 h -2.47 l 8.86,-16.78 -5.09,-2.69 -10.29,19.47 h -6.58 v -18.13 h -5.76 v 40.15 h 5.76 v -16.26 h 16 0.21 a 2.85,2.85 0 0 1 1.63,0.27 1.3,1.3 0 0 1 0.19,0.84 v 5.47 h -5.84 a 6.74,6.74 0 0 0 -6.73,6.72 v 17.35 a 6.73,6.73 0 0 0 6.73,6.72 h 14.51 a 6.73,6.73 0 0 0 6.73,-6.72 v -5 h -5.76 v 5 a 1,1 0 0 1 -1,1 h -14.5 a 1,1 0 0 1 -1,-1 v -17.39 a 1,1 0 0 1 1,-1 h 5.84 v 4 h 5.76 v -4 h 2.91 a 1,1 0 0 1 1,1 v 3 z"
     id="path226"
     inkscape:connector-curvature="0"
     style="fill:#6b1400" />
  <path
     class="cls-1"
     d="m 165.73018,157.24 v -3 a 6.73,6.73 0 0 0 -6.72,-6.72 h -2.92 v -5.47 a 6.54,6.54 0 0 0 -2.2,-5.21 8.18,8.18 0 0 0 -6,-1.62 h -2.45 l 8.86,-16.78 -5.09,-2.69 -10.29,19.47 h -6.58 v -18.13 h -5.76 v 40.15 h 5.76 v -16.26 h 16 0.21 a 2.85,2.85 0 0 1 1.63,0.27 1.3,1.3 0 0 1 0.19,0.84 v 5.47 h -5.84 a 6.73,6.73 0 0 0 -6.72,6.72 v 17.35 a 6.72,6.72 0 0 0 6.72,6.72 h 14.52 a 6.73,6.73 0 0 0 6.72,-6.72 v -5 h -5.76 v 5 a 1,1 0 0 1 -1,1 h -14.52 a 1,1 0 0 1 -1,-1 v -17.39 a 1,1 0 0 1 1,-1 h 5.84 v 4 h 5.76 v -4 h 2.92 a 1,1 0 0 1 1,1 v 3 z"
     id="path228"
     inkscape:connector-curvature="0"
     style="fill:#912200" />
  <polyline
     class="cls-9"
     points="231.97 401.95 229.49 406.29 231.97 410.51"
     id="polyline230"
     style="fill:#6b1400"
     transform="translate(-107.55982,-262.83)" />
  <polyline
     class="cls-11"
     points="252.67 422.6 255.16 426.93 252.67 431.15"
     id="polyline232"
     style="fill:#c14721"
     transform="translate(-107.55982,-262.83)" />
  <path
     class="cls-11"
     d="m 146.03018,60.83 c 0,0 -16.18,1.21 -16.18,-17.47 l 3.67,0.54 a 21.41,21.41 0 0 1 3.75,-6.45 12.2,12.2 0 0 0 3.34,-8.61 l 6.69,11.63 2.06,10"
     id="path234"
     inkscape:connector-curvature="0"
     style="fill:#c14721" />
  <path
     class="cls-2"
     d="m 146.03018,60.83 c 0,0 -13.63,-2.44 -12.44,-13.38 l 3.55,2.58 a 17.44,17.44 0 0 1 2.92,-11.49 c 3.85,-5.82 0.55,-9.7 0.55,-9.7 0,0 9.27,2.91 8.74,10.94 0,0 2.43,-0.55 2.67,-4.15 0,0 4.4,9.55 0,15.78 l 4.38,-2.37 c 0,0 -0.41,10.13 -10.37,11.79 z"
     id="path236"
     inkscape:connector-curvature="0"
     style="fill:#ffb600" />
</svg>
