<?xml version="1.0" encoding="UTF-8" standalone="no"?>
<svg
   id="Layer_1"
   data-name="Layer 1"
   viewBox="0 0 266.46008 342.8996"
   version="1.1"
   sodipodi:docname="LAE.svg"
   width="266.46008"
   height="342.8996"
   inkscape:version="1.1.1 (3bf5ae0d25, 2021-09-20)"
   xmlns:inkscape="http://www.inkscape.org/namespaces/inkscape"
   xmlns:sodipodi="http://sodipodi.sourceforge.net/DTD/sodipodi-0.dtd"
   xmlns="http://www.w3.org/2000/svg"
   xmlns:svg="http://www.w3.org/2000/svg"
   xmlns:rdf="http://www.w3.org/1999/02/22-rdf-syntax-ns#"
   xmlns:cc="http://creativecommons.org/ns#"
   xmlns:dc="http://purl.org/dc/elements/1.1/">
  <metadata
     id="metadata381">
    <rdf:RDF>
      <cc:Work
         rdf:about="">
        <dc:format>image/svg+xml</dc:format>
        <dc:type
           rdf:resource="http://purl.org/dc/dcmitype/StillImage" />
        <dc:title />
      </cc:Work>
    </rdf:RDF>
  </metadata>
  <sodipodi:namedview
     pagecolor="#ffffff"
     bordercolor="#666666"
     borderopacity="1"
     objecttolerance="10"
     gridtolerance="10"
     guidetolerance="10"
     inkscape:pageopacity="0"
     inkscape:pageshadow="2"
     inkscape:window-width="1920"
     inkscape:window-height="1017"
     id="namedview379"
     showgrid="false"
     inkscape:zoom="2.5173333"
     inkscape:cx="217.8893"
     inkscape:cy="149.56303"
     inkscape:window-x="-8"
     inkscape:window-y="-8"
     inkscape:window-maximized="1"
     inkscape:current-layer="Layer_1"
     inkscape:pagecheckerboard="0" />
  <defs
     id="defs4">
    <style
       id="style2">.cls-1,.cls-10{fill:#6b6b6b;}.cls-2{fill:#010101;}.cls-3{fill:#d63f27;}.cls-12,.cls-4{fill:#f15d24;}.cls-13,.cls-14,.cls-5{fill:none;}.cls-12,.cls-13,.cls-5{stroke:#010101;}.cls-10,.cls-12,.cls-13,.cls-14,.cls-15,.cls-5,.cls-7,.cls-9{stroke-miterlimit:10;}.cls-5{stroke-width:13.15px;}.cls-6{fill:#a09f9f;}.cls-11,.cls-7,.cls-9{fill:#fff;}.cls-7,.cls-9{stroke:#231f20;}.cls-7{stroke-width:4.93px;}.cls-15,.cls-8{fill:#231f20;}.cls-9{stroke-width:0.99px;}.cls-10{stroke:#6b6b6b;stroke-width:2px;}.cls-12,.cls-13,.cls-14{stroke-width:7.36px;}.cls-14{stroke:#a09f9f;}.cls-15{stroke:#fff;stroke-width:2.1px;}.cls-16{fill:#dedddd;}</style>
  </defs>
  <rect
     class="cls-1"
     x="123.6"
     y="25.650013"
     width="15.29"
     height="11.83"
     id="rect6"
     style="fill:#6b6b6b" />
  <rect
     class="cls-1"
     x="167.98"
     y="12.830006"
     width="11.34"
     height="17.75"
     id="rect8"
     style="fill:#6b6b6b" />
  <rect
     class="cls-1"
     x="242.44002"
     y="56.710011"
     width="20.709999"
     height="11.83"
     id="rect10"
     style="fill:#6b6b6b" />
  <rect
     class="cls-1"
     x="5.0600009"
     y="40.420002"
     width="139.39"
     height="80.209999"
     id="rect12"
     style="fill:#6b6b6b" />
  <polyline
     class="cls-1"
     points="121.26 353.6 139.47 334.68 147.51 331.37 151.29 328.77 156.49 328.77 161.22 330.9 166.19 330.9 177.07 329 185.82 329 191.73 330.42 202.37 330.66 209.46 330.9 226.49 342.72 228.62 348.87 231.69 356.44 239.49 362.82 244.46 370.86 245.4 382.44 121.97 382.44"
     id="polyline14"
     style="fill:#6b6b6b"
     transform="translate(-119.98,-328.77)" />
  <polyline
     class="cls-1"
     points="282.84 358.01 292.92 352.54 294.68 339.38 310.68 339.17 321.85 366.34 369.63 396.81 369.63 439.11 310.46 437.57 278.46 372.26"
     id="polyline16"
     style="fill:#6b6b6b"
     transform="translate(-119.98,-328.77)" />
  <path
     class="cls-1"
     d="m 256.02,157.97 a 133.23,133.23 0 1 0 10.44,51.7 132.49,132.49 0 0 0 -10.44,-51.7 z"
     id="path18"
     inkscape:connector-curvature="0"
     style="fill:#6b6b6b" />
  <polygon
     class="cls-1"
     points="333.28,359.73 333.28,348.14 316.04,348.14 316.04,334.67 291.32,334.67 291.32,351.77 266.75,351.77 266.75,359 237.54,359 232.41,353.87 225.44,360.84 233.46,368.86 276.61,368.86 276.61,361.63 301.18,361.63 301.18,344.54 306.18,344.54 306.18,358 323.42,358 323.42,369.6 344.97,369.6 344.97,398.18 376.53,398.18 376.53,535.21 131.29,535.21 131.29,377.74 121.43,377.74 121.43,545.07 386.4,545.07 386.4,388.32 354.84,388.32 354.84,359.73 "
     id="polygon20"
     style="fill:#6b6b6b"
     transform="translate(-119.98,-328.77)" />
  <circle
     class="cls-2"
     cx="133.60001"
     cy="209.67"
     r="127.88"
     id="circle22"
     style="fill:#010101" />
  <path
     class="cls-3"
     d="m 133.6,311.23 a 101.59,101.59 0 1 1 71.83,-29.75 101,101 0 0 1 -71.83,29.75 z"
     id="path24"
     inkscape:connector-curvature="0"
     style="fill:#d63f27" />
  <path
     class="cls-4"
     d="m 133.6,285.01 c -27.13,0 -52.64,-9.2 -71.83,-25.91 -19.19,-16.71 -29.75,-38.87 -29.75,-62.55 0,-23.68 10.57,-45.85 29.75,-62.55 19.18,-16.7 44.7,-25.91 71.83,-25.91 27.13,0 52.65,9.2 71.83,25.91 19.18,16.71 29.76,38.92 29.76,62.55 0,23.63 -10.57,45.84 -29.76,62.55 -19.19,16.71 -44.69,25.91 -71.83,25.91 z"
     id="path26"
     inkscape:connector-curvature="0"
     style="fill:#f15d24" />
  <polygon
     class="cls-2"
     points="381.31,393.25 377.18,393.11 376.84,389.11 376.36,389.11 376.08,391.11 375.53,391.11 374.98,392.18 372.67,392.18 372.22,392.63 371.05,392.63 371.05,392.13 368.73,392.13 368.23,391.63 366.95,391.63 365.82,392.76 365.82,393.52 362.99,393.52 362.99,405.71 361.2,405.71 361.2,399.93 360.51,399.93 360.51,397.79 360.31,397.59 360.31,394.9 359.89,394.9 359.89,394.35 359.27,394.35 359.27,393.52 357.55,390.83 355.83,390.83 353.28,394 353.28,395.11 352.87,395.11 352.87,397.31 352.52,397.65 352.52,400.06 351.77,400.06 351.77,400.89 351.21,400.89 351.21,409.02 350.66,409.02 350.66,404.27 349.91,404.27 349.77,403.85 347.63,403.85 347.36,403.16 347.5,368.18 346.32,368.18 346.32,364.66 328.35,364.46 328.28,368.45 327.52,368.45 327.45,354.06 320.01,353.99 320.01,352.33 319.6,352.33 318.36,354.19 317.6,354.19 317.26,352.13 316.92,352.13 316.36,354.54 313.33,354.54 312.99,383.4 311.54,383.4 311.54,383.19 311.06,383.19 311.06,383.47 309.68,383.47 309.68,383.88 309.34,383.88 309.34,371.34 308.37,371.14 308.17,364.25 307.13,363.77 307,349.79 305.34,349.3 305.27,342.9 304.72,342.07 303,341.8 302.66,341.31 298.32,341.31 298.11,341.87 297.36,342 297.15,341.66 296.8,341.66 296.25,342.14 296.12,346.76 295.84,346.82 295.22,349.44 294.05,349.65 294.05,351.16 293.7,351.16 293.63,364.32 292.81,365.14 291.29,365.14 290.19,364.87 290.19,360.32 287.99,360.32 287.37,359.84 285.99,359.84 285.71,360.32 283.3,360.39 283.17,359.91 282.55,359.91 282.34,360.46 271.66,360.6 271.73,367.42 267.74,367.42 267.74,367.07 267.32,367.07 267.32,366.59 263.81,366.59 263.81,367.49 259.47,367.49 259.47,368.31 258.85,368.31 258.85,367.9 257.13,367.9 257.13,364.04 252.93,364.04 252.93,362.39 251.76,361.36 249.56,362.53 249.56,363.97 238.19,364.11 238.12,393.38 236.54,393.38 236.54,393.94 235.85,393.94 235.85,393.38 234.06,393.38 233.16,395.8 230.96,395.8 229.03,399.65 228,399.65 228,399.31 227.45,399.31 227.45,399.72 222.82,399.79 222.82,405.85 220.28,405.85 220.28,381.26 214.29,380.09 210.09,380.37 204.99,381.19 204.99,384.29 194.39,384.29 194.39,400.96 189.29,400.96 189.29,398.62 184.88,398.69 184.88,397.59 173.93,397.59 173.93,398.83 169.45,398.83 169.45,400 168.49,400 166.84,401.37 164.84,401.37 164.84,378.58 158.43,378.58 158.36,378.85 158.02,378.85 157.81,378.51 151.13,378.58 151.13,378.92 150.79,378.92 150.72,378.51 143.9,378.51 143.97,404.13 143.56,403.58 140.32,403.58 139.97,403.72 139.97,395.04 139.49,394.35 130.88,394.35 130.88,406.75 125.37,406.75 125.49,470.45 381.46,470.45 381.46,403.23 381.31,403.23 "
     id="polygon28"
     style="fill:#010101"
     transform="translate(-119.98,-328.77)" />
  <rect
     class="cls-2"
     x="-261.48001"
     y="-211.37"
     width="255.98"
     height="69.690002"
     transform="scale(-1)"
     id="rect30"
     style="fill:#010101" />
  <rect
     class="cls-6"
     x="32.350002"
     y="147.39"
     width="201.85001"
     height="50.48"
     id="rect38"
     style="fill:#a09f9f" />
  <rect
     class="cls-1"
     x="32.350002"
     y="191.8"
     width="201.85001"
     height="6.0700002"
     id="rect40"
     style="fill:#6b6b6b" />
  <polygon
     class="cls-7"
     points="281.63,503.26 281.53,503.15 281.63,503.03 280.84,502.33 261.42,479.48 278.1,456.49 254.43,454.52 233.72,477.2 239.63,482.29 257.49,502.98 240.51,522.97 239.84,523.56 239.93,523.65 239.63,524 240.65,524.49 257.98,544.57 238.38,563.81 243.72,568.66 234.51,584.09 240.61,598.2 233.23,612.31 248.3,597.23 243.81,586.97 252.06,576.28 266.67,589.43 274.92,596.91 261.63,568.37 281.85,544.94 263.97,523.49 281.3,503.42 "
     id="polygon42"
     style="fill:#ffffff;stroke:#231f20;stroke-width:4.92999983px;stroke-miterlimit:10"
     transform="translate(-119.98,-328.77)" />
  <rect
     class="cls-8"
     x="28.930004"
     y="112.93002"
     width="212.03"
     height="37"
     id="rect44"
     style="fill:#231f20" />
  <rect
     class="cls-1"
     x="207.3"
     y="24.300007"
     width="4.4000001"
     height="69.860001"
     id="rect46"
     style="fill:#6b6b6b" />
  <rect
     class="cls-1"
     x="227.68001"
     y="36.309986"
     width="4.4000001"
     height="59.610001"
     id="rect48"
     style="fill:#6b6b6b" />
  <rect
     class="cls-1"
     x="150.12999"
     y="26.550007"
     width="3.1300001"
     height="37.099998"
     id="rect50"
     style="fill:#6b6b6b" />
  <rect
     class="cls-1"
     x="135.89"
     y="31.809986"
     width="3.1300001"
     height="40.860001"
     id="rect52"
     style="fill:#6b6b6b" />
  <rect
     class="cls-1"
     x="100.91999"
     y="64.110008"
     width="4.4400001"
     height="24.16"
     id="rect54"
     style="fill:#6b6b6b" />
  <rect
     class="cls-1"
     x="70.900002"
     y="54.620014"
     width="4.1999998"
     height="30.299999"
     id="rect56"
     style="fill:#6b6b6b" />
  <rect
     class="cls-1"
     x="44.710003"
     y="67.55999"
     width="3.9400001"
     height="31.02"
     id="rect58"
     style="fill:#6b6b6b" />
  <polyline
     class="cls-8"
     points="229.25 474.72 223.34 489.51 233.53 501.68 225.31 516.47 226.63 502.33 213.8 489.18 219.72 472.75"
     id="polyline60"
     style="fill:#231f20"
     transform="translate(-119.98,-328.77)" />
  <polyline
     class="cls-8"
     points="294.04 476.38 287.14 489.69 297.99 502.02 293.06 515.82 305.39 523.22 299.47 513.36 308.84 498.07 298.98 488.21 307.85 475.88"
     id="polyline62"
     style="fill:#231f20"
     transform="translate(-119.98,-328.77)" />
  <g
     id="_03yP8M"
     data-name="03yP8M"
     transform="translate(-119.98,-328.77)">
    <path
       class="cls-1"
       d="m 175.31,350.35 c 0.72,3.89 1.41,7.68 2.1,11.4 h 2.64 l 0.57,-3.16 h 0.19 l 0.56,3.18 H 184 l 2.12,-11.58 h -2.45 l -1.2,5.81 h -0.2 l -0.91,-5.74 H 180 l -0.89,5.77 h -0.19 l -1.24,-5.84 h -4.88 l -1.23,3.16 c -0.2,-0.51 -0.36,-0.86 -0.49,-1.22 -0.77,-2.06 -0.77,-2.06 -3,-1.95 0,0 -0.09,0.06 -0.2,0.12 a 36.25,36.25 0 0 1 2.15,5.56 36.13,36.13 0 0 1 0.37,5.89 h 2.6 c -0.91,-4.13 0.47,-7.75 2.31,-11.4 z m 27.29,11.34 c 1.57,0 3,0 4.52,0 0.64,0 1.95,-1.43 2,-2.07 0,-2.44 0,-4.87 0,-7.31 0,-0.57 -1.26,-2.1 -1.81,-2.11 -1.56,0 -3.11,0 -4.67,0 z m -56.93,1 v -11.52 h -2.4 v 4.51 h -1.62 v -4.52 h -2.36 v 11.53 h 2.38 c 0,-1.31 0,-2.54 0,-3.77 0,-0.57 0.19,-0.8 0.75,-0.74 l 0.9,0.06 v 4.48 z m 8,-5.75 c 0,-1.2 0,-2.4 0,-3.61 a 1.63,1.63 0 0 0 -0.27,-0.92 2.76,2.76 0 0 0 -2.88,-1.35 6.85,6.85 0 0 1 -1.11,0 2.84,2.84 0 0 0 -2.24,2.27 c 0,2.38 0,4.75 0,7.13 a 1.46,1.46 0 0 0 0.16,0.78 3.84,3.84 0 0 0 5.7,0.54 1.91,1.91 0 0 0 0.67,-1.61 c -0.04,-1.04 0.01,-2.12 0.01,-3.17 z m 39.45,0 v -1.75 c 0,-0.59 0,-1.18 0,-1.76 a 1.92,1.92 0 0 0 -0.27,-1 2.71,2.71 0 0 0 -2.86,-1.38 8,8 0 0 1 -1.2,0 3,3 0 0 0 -2.18,2.15 c 0,2.46 0,4.93 0,7.4 a 1.13,1.13 0 0 0 0.2,0.67 c 0.77,0.89 1.56,1.75 2.94,1.45 a 11,11 0 0 1 1.29,0 1.62,1.62 0 0 0 0.74,-0.27 2.94,2.94 0 0 0 1.37,-2.89 17.19,17.19 0 0 1 0.01,-2.56 z m 8,0 v 0 c 0,-1.23 0,-2.46 0,-3.7 a 1.54,1.54 0 0 0 -0.26,-0.84 c -0.73,-0.91 -1.55,-1.66 -2.87,-1.37 a 6.85,6.85 0 0 1 -1.11,0 2.82,2.82 0 0 0 -2.27,2.24 c 0,2.41 0,4.81 0,7.22 a 1.39,1.39 0 0 0 0.2,0.76 c 0.76,0.91 1.56,1.75 2.94,1.45 0.36,-0.08 0.75,0.05 1.11,0 a 2.94,2.94 0 0 0 1.11,-0.46 2.64,2.64 0 0 0 1.18,-2.69 20.32,20.32 0 0 1 -0.03,-2.55 z m -45.94,5.88 h 5.65 v -2.39 c -0.84,0 -1.61,0 -2.37,0 -0.76,0 -0.89,-0.23 -0.87,-0.9 0,-2 0,-4.07 0,-6.1 v -2.1 h -2.42 z m 12.34,-2.39 c -0.85,0 -1.59,0 -2.32,0 -0.73,0 -1,-0.18 -0.95,-0.92 0,-2.47 0,-4.93 0,-7.4 0,-0.26 0,-0.52 -0.06,-0.77 h -2.32 v 11.46 h 5.64 z"
       id="path64"
       inkscape:connector-curvature="0"
       style="fill:#6b6b6b" />
    <path
       class="cls-6"
       d="m 175.31,350.35 c -1.84,3.65 -3.22,7.27 -2.35,11.41 h -2.52 a 36.13,36.13 0 0 0 -0.37,-5.89 36.25,36.25 0 0 0 -2.15,-5.56 c 0.11,-0.06 0.16,-0.12 0.2,-0.12 2.19,-0.11 2.19,-0.11 3,1.95 0.13,0.36 0.29,0.71 0.49,1.22 l 1.23,-3.16 h 4.92 L 179,356 h 0.19 l 0.89,-5.77 h 1.32 l 0.91,5.74 h 0.2 l 1.21,-5.79 h 2.45 L 184,361.79 h -2.64 l -0.56,-3.18 h -0.19 l -0.57,3.16 h -2.64 c -0.68,-3.77 -1.4,-7.53 -2.09,-11.42 z"
       id="path66"
       inkscape:connector-curvature="0"
       style="fill:#a09f9f" />
    <path
       class="cls-6"
       d="m 209.08,352.3 c 0,-0.57 -1.26,-2.1 -1.81,-2.11 -1.56,0 -3.11,0 -4.67,0 v 11.52 c 1.57,0 3,0 4.52,0 0.64,0 1.95,-1.43 2,-2.07 -0.03,-2.47 -0.03,-4.9 -0.04,-7.34 z m -2.5,6.9 H 205 V 354 c 0,-1.46 0,-1.46 1.57,-1.31 z"
       id="path68"
       inkscape:connector-curvature="0"
       style="fill:#a09f9f" />
    <path
       class="cls-6"
       d="m 145.67,362.72 h -2.36 v -4.48 l -0.9,-0.06 c -0.56,-0.06 -0.76,0.17 -0.75,0.74 0,1.23 0,2.46 0,3.77 h -2.38 v -11.53 h 2.36 v 4.52 h 1.62 v -4.51 h 2.4 z"
       id="path70"
       inkscape:connector-curvature="0"
       style="fill:#a09f9f" />
    <path
       class="cls-6"
       d="m 153.71,357 c 0,1.08 -0.05,2.16 0,3.24 a 1.91,1.91 0 0 1 -0.67,1.61 3.84,3.84 0 0 1 -5.7,-0.54 1.46,1.46 0 0 1 -0.16,-0.78 c 0,-2.38 0,-4.75 0,-7.13 a 2.84,2.84 0 0 1 2.24,-2.27 6.85,6.85 0 0 0 1.11,0 2.76,2.76 0 0 1 2.88,1.35 1.63,1.63 0 0 1 0.27,0.92 c 0.05,1.17 0.03,2.37 0.03,3.6 z m -2.5,-3.31 c -1.57,-0.26 -1.57,-0.26 -1.58,1.21 v 4.1 c 0,1.42 0.09,1.48 1.58,1.14 z"
       id="path72"
       inkscape:connector-curvature="0"
       style="fill:#a09f9f" />
    <path
       class="cls-6"
       d="m 193.16,357 a 17.19,17.19 0 0 0 0,2.59 2.94,2.94 0 0 1 -1.37,2.89 1.62,1.62 0 0 1 -0.74,0.27 11,11 0 0 0 -1.29,0 c -1.38,0.3 -2.17,-0.56 -2.94,-1.45 a 1.13,1.13 0 0 1 -0.2,-0.67 c 0,-2.47 0,-4.94 0,-7.4 a 3,3 0 0 1 2.18,-2.15 8,8 0 0 0 1.2,0 2.71,2.71 0 0 1 2.86,1.38 1.92,1.92 0 0 1 0.27,1 c 0,0.58 0,1.17 0,1.76 z m -2.51,-3.37 c -1.57,-0.18 -1.57,-0.18 -1.57,1.29 V 359 c 0,1.47 0,1.47 1.57,1.2 z"
       id="path74"
       inkscape:connector-curvature="0"
       style="fill:#a09f9f" />
    <path
       class="cls-6"
       d="m 201.12,357 a 20.32,20.32 0 0 0 0,2.59 2.64,2.64 0 0 1 -1.18,2.69 2.94,2.94 0 0 1 -1.11,0.46 c -0.36,0.08 -0.75,-0.05 -1.11,0 -1.38,0.3 -2.18,-0.54 -2.94,-1.45 a 1.39,1.39 0 0 1 -0.2,-0.76 c 0,-2.41 0,-4.81 0,-7.22 a 2.82,2.82 0 0 1 2.27,-2.24 6.85,6.85 0 0 0 1.11,0 c 1.32,-0.29 2.14,0.46 2.87,1.37 a 1.54,1.54 0 0 1 0.26,0.84 c 0,1.24 0,2.47 0,3.7 z m -2.48,-3.37 c -1.59,-0.19 -1.59,-0.19 -1.59,1.28 0,1.47 0,2.78 0,4.16 0,1.38 0.19,1.49 1.59,1.07 z"
       id="path76"
       inkscape:connector-curvature="0"
       style="fill:#a09f9f" />
    <path
       class="cls-6"
       d="M 155.18,362.88 V 351.4 h 2.42 v 2.1 c 0,2 0,4.07 0,6.1 0,0.67 0.16,0.95 0.87,0.9 0.71,-0.05 1.53,0 2.37,0 v 2.39 z"
       id="path78"
       inkscape:connector-curvature="0"
       style="fill:#a09f9f" />
    <path
       class="cls-6"
       d="m 167.52,360.49 v 2.38 h -5.64 v -11.46 h 2.32 c 0,0.25 0.06,0.51 0.06,0.77 0,2.47 0,4.93 0,7.4 0,0.74 0.23,1 0.95,0.92 0.72,-0.08 1.46,-0.01 2.31,-0.01 z"
       id="path80"
       inkscape:connector-curvature="0"
       style="fill:#a09f9f" />
  </g>
  <polygon
     class="cls-9"
     points="138.34,449.47 138.34,455.73 138.34,460.74 138.34,465.14 138.34,466.99 151.91,466.99 153.92,460.74 147.08,460.74 147.08,455.73 153.92,455.73 153.92,449.47 147.08,449.47 147.08,444.87 153.92,444.87 153.92,438.61 147.08,438.61 138.34,438.61 138.34,444.87 "
     id="polygon83"
     style="fill:#ffffff;stroke:#231f20;stroke-width:0.99000001px;stroke-miterlimit:10"
     transform="translate(-119.98,-328.77)" />
  <polygon
     class="cls-9"
     points="230.96,438.61 222.22,445.45 222.22,467.06 230.96,467.06 230.96,455.45 234.49,455.45 234.49,467.06 243.23,467.06 243.23,438.61 234.49,438.61 234.49,449.69 230.96,449.69 "
     id="polygon85"
     style="fill:#ffffff;stroke:#231f20;stroke-width:0.99000001px;stroke-miterlimit:10"
     transform="translate(-119.98,-328.77)" />
  <polygon
     class="cls-9"
     points="277.99,438.61 269.25,438.61 269.25,459.42 277.81,466.9 277.81,467.11 290.09,467.11 290.09,467.06 290.26,467.06 290.26,438.61 281.52,438.61 281.52,461.35 277.99,461.35 "
     id="polygon87"
     style="fill:#ffffff;stroke:#231f20;stroke-width:0.99000001px;stroke-miterlimit:10"
     transform="translate(-119.98,-328.77)" />
  <path
     class="cls-9"
     d="m 45.2,109.84 -8.74,4 v 24.43 h 8.74 v -11.59 h 3.53 v 11.61 h 8.74 v -28.45 z m 0,11.08 v -4.93 h 3.53 v 4.93 z"
     id="path89"
     inkscape:connector-curvature="0"
     style="fill:#ffffff;stroke:#231f20;stroke-width:0.99000001px;stroke-miterlimit:10" />
  <path
     class="cls-9"
     d="m 181.89,110.14 -8.75,4 v 24.44 h 8.75 v -11.6 h 3.52 v 11.62 h 8.75 v -28.46 z m 0,11.08 v -4.93 h 3.52 v 4.94 z"
     id="path91"
     inkscape:connector-curvature="0"
     style="fill:#ffffff;stroke:#231f20;stroke-width:0.99000001px;stroke-miterlimit:10" />
  <path
     class="cls-9"
     d="m 146.72,109.84 h -12.27 l -8.74,4 v 24.43 h 12.31 l 3.66,-1.68 3.31,4.48 h 11.45 l -9.68,-9.69 z m -12.27,22.31 v -16.16 h 3.57 v 16.16 z"
     id="path93"
     inkscape:connector-curvature="0"
     style="fill:#ffffff;stroke:#231f20;stroke-width:0.99000001px;stroke-miterlimit:10" />
  <path
     class="cls-9"
     d="m 68.74,109.84 h -8.72 v 28.45 h 8.75 v -11.61 h 3.52 v 11.61 h 8.73 v -10.47 l -4.37,-3.75 4.37,-4.46 v -5.75 l -8.75,-4 z m 3.52,11.08 h -3.52 v -4.93 h 3.52 z"
     id="path95"
     inkscape:connector-curvature="0"
     style="fill:#ffffff;stroke:#231f20;stroke-width:0.99000001px;stroke-miterlimit:10" />
  <polygon
     class="cls-9"
     points="203.28,444.87 207.1,444.87 207.1,467.28 215.84,467.28 215.84,444.87 218.66,444.87 226.7,438.61 203.28,438.61 "
     id="polygon97"
     style="fill:#ffffff;stroke:#231f20;stroke-width:0.99000001px;stroke-miterlimit:10"
     transform="translate(-119.98,-328.77)" />
  <polygon
     class="cls-9"
     points="316.52,438.61 316.52,467.06 325.26,467.06 325.26,461.27 330.05,467.05 335.37,467.05 335.37,462.4 328.25,452.98 335.37,443.56 335.37,438.9 330.05,438.9 325.26,444.69 325.26,438.61 "
     id="polygon99"
     style="fill:#ffffff;stroke:#231f20;stroke-width:0.99000001px;stroke-miterlimit:10"
     transform="translate(-119.98,-328.77)" />
  <polygon
     class="cls-9"
     points="338.84,438.9 338.84,438.91 337.71,438.91 337.71,445.17 337.71,449.77 337.71,456.03 337.71,461.04 337.71,465.44 337.71,467.29 351.28,467.29 353.29,461.04 346.45,461.04 346.45,456.03 353.29,456.03 353.29,449.77 346.45,449.77 346.45,445.17 353.29,445.17 353.29,438.91 346.45,438.91 338.89,438.91 338.89,438.9 "
     id="polygon101"
     style="fill:#ffffff;stroke:#231f20;stroke-width:0.99000001px;stroke-miterlimit:10"
     transform="translate(-119.98,-328.77)" />
  <polygon
     class="cls-9"
     points="371.38,449.87 364.54,449.87 364.54,445.26 371.38,445.26 371.38,439.01 359.82,439.01 355.89,445.12 355.8,445.12 355.8,449.87 355.8,450.33 355.8,456.13 362.7,456.13 362.7,461.14 356.4,461.14 354.39,467.39 369.37,467.39 371.35,461.25 371.44,461.25 371.44,456.04 371.38,456.04 "
     id="polygon103"
     style="fill:#ffffff;stroke:#231f20;stroke-width:0.99000001px;stroke-miterlimit:10"
     transform="translate(-119.98,-328.77)" />
  <g
     id="SlHar6-3"
     data-name="SlHar6"
     transform="translate(-119.98,-328.77)">
    <path
       class="cls-4"
       d="m 150.51,429.93 a 31.64,31.64 0 0 1 -3.84,-2.66 c -1.6,-1.15 -1.59,-1.18 -3.19,0 -1.29,0.91 -2.57,1.85 -3.89,2.81 -0.17,-0.33 0,-0.57 0.08,-0.8 0.53,-1.65 1.06,-3.3 1.63,-4.94 a 0.88,0.88 0 0 0 -0.37,-1.17 c -1.48,-1 -2.92,-2.13 -4.38,-3.2 -0.13,-0.1 -0.25,-0.22 -0.53,-0.47 h 2.33 c 1.32,0 2.65,0 4,-0.07 a 0.7,0.7 0 0 0 0.75,-0.59 c 0.61,-2 1.26,-3.89 2,-6 0.55,1.66 1.07,3.13 1.52,4.62 0.61,2 0.59,2.05 2.75,2.05 h 4.84 l -2.44,1.79 c -0.89,0.66 -1.76,1.33 -2.66,2 a 0.72,0.72 0 0 0 -0.3,1 c 0.57,1.67 1.1,3.34 1.63,5 0.07,0.23 0.11,0.47 0.16,0.71 z"
       id="path217"
       inkscape:connector-curvature="0"
       style="fill:#f15d24" />
    <path
       class="cls-4"
       d="m 150.53,429.91 0.06,0.08 -0.08,-0.06 z"
       id="path219"
       inkscape:connector-curvature="0"
       style="fill:#f15d24" />
  </g>
</svg>
