<?xml version="1.0" encoding="UTF-8" standalone="no"?>
<svg
   id="Layer_1"
   data-name="Layer 1"
   version="1.1"
   width="427.683"
   height="351.04"
   sodipodi:docname="MEM.svg"
   inkscape:version="1.1.1 (3bf5ae0d25, 2021-09-20)"
   xmlns:inkscape="http://www.inkscape.org/namespaces/inkscape"
   xmlns:sodipodi="http://sodipodi.sourceforge.net/DTD/sodipodi-0.dtd"
   xmlns="http://www.w3.org/2000/svg"
   xmlns:svg="http://www.w3.org/2000/svg">
  <sodipodi:namedview
     id="namedview59"
     pagecolor="#a2a2a2"
     bordercolor="#666666"
     borderopacity="1.0"
     inkscape:pageshadow="2"
     inkscape:pageopacity="0"
     inkscape:pagecheckerboard="true"
     showgrid="false"
     showguides="true"
     inkscape:guide-bbox="true"
     inkscape:zoom="1.5006681"
     inkscape:cx="293.81642"
     inkscape:cy="164.42631"
     inkscape:window-width="1920"
     inkscape:window-height="1017"
     inkscape:window-x="-8"
     inkscape:window-y="-8"
     inkscape:window-maximized="1"
     inkscape:current-layer="Layer_1">
    <sodipodi:guide
       position="318.64205,238.03268"
       orientation="1,0"
       id="guide2292" />
    <sodipodi:guide
       position="215.803,257.64001"
       orientation="0,-1"
       id="guide2552" />
  </sodipodi:namedview>
  <defs
     id="defs4">
    <inkscape:path-effect
       effect="spiro"
       id="path-effect16040"
       is_visible="true"
       lpeversion="1" />
    <inkscape:path-effect
       effect="spiro"
       id="path-effect15699"
       is_visible="true"
       lpeversion="1" />
    <inkscape:path-effect
       effect="spiro"
       id="path-effect15415"
       is_visible="true"
       lpeversion="1" />
    <inkscape:path-effect
       effect="spiro"
       id="path-effect15247"
       is_visible="true"
       lpeversion="1" />
    <inkscape:path-effect
       effect="spiro"
       id="path-effect15036"
       is_visible="true"
       lpeversion="1" />
    <inkscape:path-effect
       effect="spiro"
       id="path-effect14641"
       is_visible="true"
       lpeversion="1" />
    <inkscape:path-effect
       effect="spiro"
       id="path-effect1771"
       is_visible="true"
       lpeversion="1" />
    <style
       id="style2">.cls-10,.cls-5,.cls-6,.cls-8,.cls-9{fill:none}.cls-5,.cls-6{stroke:#fff}.cls-10,.cls-5,.cls-6,.cls-7,.cls-8,.cls-9{stroke-linecap:round;stroke-linejoin:round}.cls-5{stroke-width:2.65px}.cls-6{stroke-width:3.97px}.cls-7,.cls-8{stroke:#f65d32;stroke-width:4.41px}.cls-9{stroke:#f2d425;stroke-width:4.47px}.cls-10{stroke:#00aedc;stroke-width:4.44px}</style>
    <clipPath
       clipPathUnits="userSpaceOnUse"
       id="clipPath14823">
      <path
         id="path14825"
         style="fill:#ff0000;fill-opacity:1;fill-rule:nonzero;stroke:none"
         d="M 173.0332,4.890625 V 194.06055 H 353.38281 V 17.707031 l -5.36328,5.228516 c -0.01,-0.0083 -0.009,-0.01 -0.043,-0.04687 -0.01,-0.0073 -0.0446,-0.03544 -0.0664,-0.05273 -0.0666,-0.05304 -0.13408,-0.105854 -0.20118,-0.158204 -0.0793,-0.06235 -0.16013,-0.122203 -0.24023,-0.183593 -0.10604,-0.08222 -0.21186,-0.164464 -0.31836,-0.246094 -0.15095,-0.115764 -0.29898,-0.234377 -0.44727,-0.353516 -0.17632,-0.140645 -0.35005,-0.285066 -0.52148,-0.43164 -0.178,-0.152856 -0.35343,-0.309316 -0.52734,-0.466797 -0.17694,-0.159302 -0.35012,-0.321155 -0.52344,-0.484375 -0.15957,-0.149702 -0.31778,-0.300635 -0.47656,-0.451172 -0.16247,-0.153626 -0.32613,-0.306982 -0.48828,-0.460938 -0.15565,-0.148898 -0.31328,-0.29635 -0.47071,-0.443359 -0.14756,-0.138113 -0.29464,-0.275437 -0.44531,-0.410156 -0.16347,-0.145704 -0.32851,-0.288401 -0.49414,-0.431641 -0.16677,-0.145474 -0.33729,-0.288651 -0.50781,-0.429687 -0.18664,-0.153873 -0.37343,-0.30811 -0.5625,-0.458985 -0.18951,-0.151347 -0.38004,-0.299403 -0.57227,-0.447265 -0.19643,-0.15154 -0.39632,-0.301597 -0.5957,-0.449219 -0.17902,-0.133709 -0.36051,-0.260582 -0.54492,-0.386719 -0.20173,-0.138101 -0.40881,-0.271386 -0.61524,-0.402344 -0.22636,-0.143885 -0.45678,-0.281223 -0.6875,-0.417968 -0.25499,-0.150429 -0.50995,-0.299453 -0.76758,-0.445313 -0.24552,-0.139249 -0.49247,-0.274684 -0.74218,-0.40625 -0.25359,-0.1342 -0.51147,-0.261376 -0.76954,-0.386719 -0.28736,-0.13928 -0.57712,-0.274631 -0.86718,-0.408203 -0.31094,-0.142998 -0.62317,-0.284017 -0.93555,-0.423828 -0.32695,-0.145736 -0.65381,-0.291109 -0.98047,-0.4375 -0.32329,-0.145062 -0.64568,-0.288049 -0.96875,-0.433594 -0.32952,-0.147998 -0.65828,-0.299957 -0.98633,-0.451171 -0.32394,-0.148833 -0.64635,-0.300996 -0.96875,-0.453126 -0.31468,-0.148584 -0.62964,-0.298627 -0.94336,-0.449218 -0.31248,-0.150017 -0.62403,-0.301102 -0.93554,-0.453125 -0.30091,-0.147313 -0.60158,-0.293809 -0.90235,-0.441407 C 327.57018,9.9708436 327.23967,9.8037685 326.91208,9.6328215 326.5136,9.4280951 326.12683,9.2024888 325.74606,8.9668059 325.28198,8.6795162 324.85671,8.3419251 324.457,7.9707121 324.34632,7.8679243 324.2359,7.7636803 324.14059,7.6464934 323.88867,7.3367057 323.65909,7.0096667 323.41794,6.6914152 322.97951,5.8813603 322.85826,5.7027174 322.6738,4.890634 Z m 171.13086,0 c 0.1733,0.1000196 0.3473,0.1988372 0.51953,0.3007812 0.33413,0.1985 0.6663,0.4005933 0.99414,0.609375 0.3224,0.2052505 0.64396,0.4124587 0.95899,0.6289063 0.30127,0.2070779 0.5995,0.416197 0.89258,0.6347656 0.25758,0.1908977 0.51566,0.3842544 0.76953,0.5800781 0.25134,0.1935972 0.50032,0.3877988 0.74805,0.5859376 0.23811,0.1909579 0.47583,0.3834629 0.71093,0.578125 0.23767,0.1966992 0.47427,0.3951454 0.70703,0.5976562 0.21829,0.1890377 0.43512,0.3797867 0.65039,0.5722656 0.20873,0.1875654 0.41643,0.3763664 0.6211,0.5683594 0.18161,0.16959 0.36333,0.340042 0.54297,0.511719 0.16098,0.152957 0.32313,0.304339 0.48437,0.457031 0.14815,0.140692 0.29447,0.281958 0.44336,0.421875 0.0582,0.05481 0.11735,0.108046 0.17578,0.162109 V 4.890625 Z" />
    </clipPath>
    <clipPath
       clipPathUnits="userSpaceOnUse"
       id="clipPath15857">
      <path
         id="path15859"
         style="fill:#ff0000;fill-opacity:1;fill-rule:nonzero;stroke:none"
         d="M 0,0 V 351.03906 H 427.68359 V 152.86133 c -0.8388,1.22058 -1.6778,2.44114 -2.54101,3.64453 -1.58296,2.26199 -3.40833,4.32748 -5.32422,6.30859 -2.47819,2.57141 -5.4135,4.57682 -8.48047,6.36719 -3.28754,1.86919 -6.90222,2.90341 -10.5918,3.5957 -1.94325,0.32247 -3.91125,0.43566 -5.87695,0.50586 -1.23991,0.0447 -2.48013,0.0539 -3.7207,0.0469 -1.45475,-0.004 -2.90754,-0.0833 -4.35742,-0.19531 -0.38385,-0.0278 -0.75772,-0.12193 -1.13672,-0.18165 l -2.10157,3.14844 c -0.11078,-0.0739 -0.0564,-0.0364 -0.16601,-0.10937 -0.16811,-0.11148 -0.33695,-0.22177 -0.50586,-0.33203 -0.17125,-0.11118 -0.34131,-0.22257 -0.51367,-0.33204 -0.1869,-0.11833 -0.37422,-0.23819 -0.56055,-0.35742 -0.21017,-0.13461 -0.42082,-0.26941 -0.62695,-0.41015 -0.21706,-0.14982 -0.43149,-0.30213 -0.64063,-0.46289 -0.1895,-0.14474 -0.37826,-0.29048 -0.56445,-0.43946 -0.18691,-0.14954 -0.37246,-0.30021 -0.55664,-0.45312 -0.19835,-0.16591 -0.39512,-0.3352 -0.58594,-0.50977 -0.16655,-0.15235 -0.33236,-0.30555 -0.49609,-0.46093 -0.15772,-0.14966 -0.31512,-0.29932 -0.47071,-0.45118 -0.15998,-0.156 -0.3182,-0.31305 -0.47461,-0.47265 -0.10554,-0.1074 -0.21098,-0.21481 -0.3164,-0.32227 -0.73908,-0.27638 -1.47878,-0.55403 -2.20508,-0.86328 -1.7782,-0.77007 -3.44774,-1.75107 -5.07812,-2.79102 -1.07148,-0.68983 -2.02312,-1.53699 -2.99805,-2.35351 -0.065,-0.0235 -0.12935,-0.0477 -0.19336,-0.0742 l 0.0234,-0.0586 c -0.42068,-0.35578 -0.8885,-0.65185 -1.29883,-1.01954 -1.50966,-1.35122 -2.8206,-2.89444 -4.07031,-4.48242 -1.3159,-1.69389 -2.37325,-3.55662 -3.33985,-5.46484 -0.90898,-1.80742 -1.56115,-3.72105 -2.13281,-5.65625 -0.61621,-2.12364 -0.89679,-4.31549 -1.06055,-6.51367 -0.12468,-1.83537 -0.014,-3.66916 0.16211,-5.4961 0.0786,-0.72852 0.1973,-1.45177 0.32031,-2.17382 l 32.60547,5.69531 c 0.0848,-0.2169 0.16478,-0.43556 0.25,-0.65235 0.35767,-0.91389 0.72902,-1.82305 1.10743,-2.72851 0.38568,-0.91845 0.78423,-1.83136 1.1875,-2.74219 0.39959,-0.90346 0.8116,-1.80078 1.22656,-2.69726 0.41415,-0.89283 0.83947,-1.77982 1.26758,-2.66602 0.21927,-0.45358 0.44634,-0.90366 0.66992,-1.35547 -0.39006,-0.14686 -0.77915,-0.2972 -1.18164,-0.40625 -1.2933,0.31867 -2.56379,0.72702 -3.7168,1.41406 -0.78578,0.49046 -1.48679,1.00129 -2.15234,1.63282 -0.082,0.10413 -0.15633,0.21475 -0.24414,0.3125 -0.0417,0.0464 0.16403,-0.18051 0.10742,-0.1543 -0.0326,0.0151 -0.60769,0.68339 0.0976,-0.125 0.0126,-0.0121 0.0264,-0.0212 0.0391,-0.0332 0.15549,-0.19739 0.31226,-0.39539 0.46093,-0.59375 0.84575,-1.15452 1.63209,-2.3501 2.45118,-3.52344 0.82411,-1.20795 1.63556,-2.42442 2.42968,-3.65235 0.73299,-1.13571 1.4563,-2.27947 2.15039,-3.43945 0.48482,-0.81326 0.96616,-1.6307 1.38477,-2.48047 0.29037,-0.54682 0.52765,-1.12342 0.74023,-1.70312 0.29242,-0.56876 0.32851,-1.26184 0.50586,-1.86719 0.18607,-0.83234 0.28703,-1.68259 0.36133,-2.53125 0.10656,-1.21527 0.15988,-2.43652 0.17578,-3.65625 0.0175,-1.27206 0.0146,-2.54364 -0.0508,-3.81445 -0.0519,-1.10654 -0.14265,-2.21238 -0.28906,-3.310549 -0.12463,-0.981703 -0.29985,-1.959006 -0.51953,-2.923829 -0.16539,-0.744011 -0.34495,-1.484745 -0.5957,-2.205078 -0.27549,-0.892322 -0.68125,-1.741896 -1.04102,-2.601562 -0.53778,-1.215574 -1.10402,-2.418101 -1.68164,-3.615234 -0.61621,-1.284999 -1.23679,-2.56853 -1.87695,-3.841797 -0.63541,-1.265712 -1.27685,-2.528403 -1.9336,-3.783203 -0.59782,-1.138899 -1.20825,-2.271373 -1.8457,-3.388672 -0.61751,-1.087883 -1.24637,-2.167978 -1.90039,-3.234375 -0.62489,-1.019056 -1.26708,-2.02971 -1.93164,-3.023438 -0.68192,-1.023954 -1.37783,-2.037149 -2.0918,-3.039062 -0.73832,-1.03844 -1.48507,-2.071813 -2.24609,-3.09375 -0.72572,-0.971588 -1.46338,-1.934039 -2.21875,-2.882813 -0.70697,-0.891125 -1.42733,-1.771953 -2.16407,-2.638672 -0.62138,-0.730807 -1.25939,-1.446773 -1.92187,-2.140625 -0.64004,-0.672607 -1.29671,-1.330211 -1.97266,-1.966797 -0.54507,-0.518138 -1.10853,-1.017306 -1.69336,-1.490234 -0.64412,-0.530892 -1.31731,-1.02487 -1.99218,-1.515625 -0.67479,-0.487313 -1.35982,-0.962602 -2.05664,-1.417969 -0.69873,-0.460727 -1.41602,-0.892415 -2.13282,-1.324218 -0.84711,-0.504847 -1.69837,-1.001672 -2.55273,-1.494141 -0.81304,-0.467154 -1.62908,-0.928223 -2.44922,-1.382813 -0.72346,-0.399413 -1.45696,-0.781388 -2.19141,-1.160156 -0.89446,-0.460892 -1.79492,-0.910417 -2.6875,-1.375 -0.95953,-0.497402 -1.91921,-0.994174 -2.86914,-1.509766 -0.86642,-0.47162 -1.72892,-0.950051 -2.58984,-1.43164 -0.85564,-0.479962 -1.70946,-0.96369 -2.55859,-1.455078 -0.81951,-0.472805 -1.63875,-0.946116 -2.45313,-1.427735 -0.66477,-0.390421 -1.32996,-0.77933 -1.99805,-1.164062 -0.57737,-0.332293 -1.16087,-0.654385 -1.74609,-0.972656 -0.68839,-0.380482 -1.37392,-0.766336 -2.0625,-1.146485 -1.03295,-0.583282 -2.05744,-1.180123 -3.05273,-1.826172 -1.39858,-0.922755 -2.76919,-1.891622 -4.03711,-2.990234 -1.01602,-0.885091 -2.01344,-1.791028 -2.94532,-2.765625 -0.70526,-0.734477 -1.40269,-1.477194 -2.06836,-2.248047 -0.59486,-0.690529 -1.18196,-1.387897 -1.74414,-2.105469 -0.47385,-0.604574 -0.93989,-1.215305 -1.39257,-1.835937 -0.46296,-0.636031 -0.91832,-1.27813 -1.35352,-1.933594 -0.38389,-0.575781 -0.76207,-1.154122 -1.12695,-1.742187 -0.36537,-0.593358 -0.72822,-1.189991 -1.07422,-1.794922 -0.44377,-0.784891 -0.87633,-1.57699 -1.26172,-2.392578 -0.30997,-0.644699 -0.61174,-1.292848 -0.88281,-1.955079 C 315.53378,9.8992731 315.21148,9.0645316 314.9375,8.2128906 314.43981,6.5823531 314.00987,4.9305665 313.80273,3.234375 313.69688,2.3953353 313.59952,1.555172 313.54492,0.7109375 313.52911,0.47425693 313.52707,0.23686635 313.51367,0 Z m 410.72266,0 c -0.31094,0.71493909 -0.61904,1.4311032 -0.9336,2.1445312 -0.52308,1.1838455 -1.05737,2.3631371 -1.59375,3.5410157 -0.53756,1.176688 -1.08984,2.3470415 -1.64062,3.5175781 -0.52383,1.109762 -1.04682,2.218098 -1.57422,3.326172 -0.5057,1.061089 -1.01475,2.121043 -1.52149,3.181641 -0.53666,1.126897 -1.08857,2.247797 -1.63671,3.36914 -0.004,0.0079 -0.008,0.01558 -0.0117,0.02344 0.38775,0.350191 0.79868,0.673922 1.18164,1.029296 1.31433,1.225761 2.57991,2.502432 3.82617,3.796876 1.27068,1.320651 2.48789,2.689715 3.68359,4.078124 1.11703,1.305774 2.20044,2.63883 3.27149,3.982422 1.04669,1.313346 2.06923,2.64823 3.07617,3.992188 0.98573,1.320034 1.95025,2.654427 2.90625,3.996094 0.98856,1.385057 1.94873,2.790576 2.89453,4.205078 0.98916,1.476622 1.93837,2.977497 2.87109,4.490234 0.74384,1.20875 1.4535,2.438187 2.16211,3.667969 V 0 Z" />
    </clipPath>
  </defs>
  <path
     style="fill:#ffffff;stroke:#ffffff;stroke-width:1px;stroke-linecap:butt;stroke-linejoin:miter;stroke-opacity:1"
     d="m 376.00772,169.28434 c 2.52614,1.28671 4.63852,3.37107 5.95886,5.8798 0.55701,1.05835 0.97586,2.1893 1.2426,3.35515 0.6948,3.03679 0.32338,6.30663 -1.03482,9.11023 -1.3582,2.80359 -3.69393,5.12182 -6.50765,6.45891 -2.81372,1.33709 -6.08627,1.68392 -9.11775,0.96631 -3.03148,-0.7176 -5.80124,-2.49475 -7.71693,-4.95137 -1.91568,-2.45662 -2.96424,-5.57598 -2.92141,-8.69094 0.0428,-3.11496 1.17674,-6.20431 3.15923,-8.60734 1.9825,-2.40303 4.80007,-4.10336 7.85013,-4.73735 3.05007,-0.634 6.31184,-0.19733 9.08774,1.2166 z"
     id="path16038"
     inkscape:path-effect="#path-effect16040"
     inkscape:original-d="m 376.00772,169.28434 c -2.40148,-3.07931 3.97357,3.92087 5.95886,5.8798 1.98528,1.95893 0.8294,2.23776 1.2426,3.35515 0.4132,1.11738 -4.79997,-6.15563 -7.20146,-9.23495 z" />
  <path
     style="fill:#ffffff;stroke:#ffffff;stroke-width:72.27212598;stroke-linecap:butt;stroke-linejoin:miter;stroke-miterlimit:4;stroke-dasharray:none;stroke-opacity:1"
     d="m 308.34343,40.077701 c -7.1348,4.806731 -13.56108,10.720897 -18.63354,17.669298 -4.40544,6.034704 -7.7589,12.801982 -10.2383,19.850256 -4.40523,12.522901 -6.05012,26.233885 -3.10823,39.178935 3.96553,17.44931 15.72645,31.9807 27.72448,45.25665 1.57099,1.73832 3.16001,3.47467 4.98118,4.94883 1.82117,1.47415 3.89632,2.68684 6.17338,3.23891 3.55355,0.86155 7.3549,0.0431 10.62733,-1.58817 4.19957,-2.09349 7.63325,-5.43172 10.8676,-8.83144 11.51982,-12.10884 21.73223,-26.28314 25.04333,-42.66505 1.96179,-9.70609 1.39957,-19.823227 -0.84256,-29.468416 -2.92674,-12.590254 -8.77501,-24.583173 -17.45578,-34.160463 -4.96178,-5.474218 -10.78724,-10.114578 -16.93667,-14.209803 -1.54496,-1.02887 -3.1351,-2.03592 -4.90479,-2.595982 -1.63327,-0.516887 -3.3872,-0.634813 -5.08057,-0.375521 -3.00147,0.45959 -5.69859,2.055402 -8.21686,3.751966 z"
     id="path15695"
     inkscape:path-effect="#path-effect15699"
     inkscape:original-d="m 308.34343,40.077701 c -0.80427,0.110174 -9.40343,9.101398 -18.63354,17.669298 -9.2301,8.567902 -7.90713,14.77347 -10.2383,19.850256 -2.33118,5.076788 -2.07127,26.120065 -3.10823,39.178935 -1.03697,13.05887 18.48386,30.17187 27.72448,45.25665 9.24062,15.08478 7.43726,5.45926 11.15456,8.18774 3.7173,2.72848 7.08577,-1.05799 10.62733,-1.58817 3.54157,-0.53015 7.24596,-5.88685 10.8676,-8.83144 3.62166,-2.9446 16.69645,-28.44262 25.04333,-42.66505 8.34689,-14.22247 -0.56083,-19.644849 -0.84256,-29.468416 -0.28172,-9.823568 -11.6363,-22.772871 -17.45578,-34.160463 -5.81946,-11.387591 -11.29023,-9.472431 -16.93667,-14.209803 -5.64644,-4.73737 -2.61808,-1.805494 -4.90479,-2.595982 -2.2867,-0.790491 -4.03706,-0.173967 -5.08057,-0.375521 -1.04352,-0.201554 -7.41258,3.641793 -8.21686,3.751966 z"
     sodipodi:nodetypes="sssssssssssssss" />
  <path
     d="M392.793 199.56a48.42 48.42 0 0 0-9.63-2.08 33.42 33.42 0 0 0 1.47-9.57 30.81 30.81 0 0 0-3.53-14.5 92.66 92.66 0 0 0 46.58-80.37A92.71 92.71 0 0 0 336.093.45c-3.3-.38-13.47-.45-13.58-.45h-127.44a26.93 26.93 0 0 0-26.9 26.9v112.86a43.47 43.47 0 0 0-7.4-9.45c-8.89-8.55-21.17-13.06-35.49-13.06-11.41 0-23.1 3.66-34.75 10.88q-2.67 1.67-5.39 3.61a39.23 39.23 0 0 0-29-10.52 28.33 28.33 0 0 0-21.66 11.33 30.11 30.11 0 0 0-4.75 25.58 28.54 28.54 0 0 0 6.44 11.62c-.9 4.07-3.12 10.77-6.61 20-3.85 10.1-9.89 22.62-12.92 28.57-3.42 5.51-6.12 9.87-8.23 13.78-12.61 22.42-7.37 42.26-7.14 43.09a3.09 3.09 0 0 0 .14.43l.83 2.18c1.13 3.41 5.37 12.09 20.54 21.83 15.17 9.74 36.06 14.89 62.54 15.56v13.39a22.51 22.51 0 0 0 22.44 22.46h221.36a22.52 22.52 0 0 0 22.5-22.49v-15.22c21.55-3.11 38-10.29 51.6-22.43 6.9-6.17 14.68-13.6 19.51-23.58 5.92-12.24 6.1-25.35.53-39a50.49 50.49 0 0 0-30.47-28.76z"
     id="path170"
     style="fill:#ffffff"
     clip-path="url(#clipPath15857)" />
  <rect
     x="90.133"
     y="292.83"
     width="256.64"
     height="53.36"
     rx="17.64"
     id="rect172" />
  <rect
     x="173.033"
     y="4.89"
     width="180.35"
     height="189.17"
     rx="22.05"
     id="rect174"
     clip-path="url(#clipPath14823)"
     style="stroke:#000000" />
  <path
     style="fill:#000000;stroke:#000000;stroke-width:63.2;stroke-linecap:butt;stroke-linejoin:miter;stroke-miterlimit:4;stroke-dasharray:none;stroke-opacity:1"
     d="m 308.34343,40.077701 c -7.1348,4.806731 -13.56108,10.720897 -18.63354,17.669298 -4.40544,6.034704 -7.7589,12.801982 -10.2383,19.850256 -4.40523,12.522901 -6.05012,26.233885 -3.10823,39.178935 3.96553,17.44931 15.72645,31.9807 27.72448,45.25665 1.57099,1.73832 3.16001,3.47467 4.98118,4.94883 1.82117,1.47415 3.89632,2.68684 6.17338,3.23891 3.55355,0.86155 7.3549,0.0431 10.62733,-1.58817 4.19957,-2.09349 7.63325,-5.43172 10.8676,-8.83144 11.51982,-12.10884 21.73223,-26.28314 25.04333,-42.66505 1.96179,-9.70609 1.39957,-19.823227 -0.84256,-29.468416 -2.92674,-12.590254 -8.77501,-24.583173 -17.45578,-34.160463 -4.96178,-5.474218 -10.78724,-10.114578 -16.93667,-14.209803 -1.54496,-1.02887 -3.1351,-2.03592 -4.90479,-2.595982 -1.63327,-0.516887 -3.3872,-0.634813 -5.08057,-0.375521 -3.00147,0.45959 -5.69859,2.055402 -8.21686,3.751966 z"
     id="path14637"
     inkscape:path-effect="#path-effect14641"
     inkscape:original-d="m 308.34343,40.077701 c -0.80427,0.110174 -9.40343,9.101398 -18.63354,17.669298 -9.2301,8.567902 -7.90713,14.77347 -10.2383,19.850256 -2.33118,5.076788 -2.07127,26.120065 -3.10823,39.178935 -1.03697,13.05887 18.48386,30.17187 27.72448,45.25665 9.24062,15.08478 7.43726,5.45926 11.15456,8.18774 3.7173,2.72848 7.08577,-1.05799 10.62733,-1.58817 3.54157,-0.53015 7.24596,-5.88685 10.8676,-8.83144 3.62166,-2.9446 16.69645,-28.44262 25.04333,-42.66505 8.34689,-14.22247 -0.56083,-19.644849 -0.84256,-29.468416 -0.28172,-9.823568 -11.6363,-22.772871 -17.45578,-34.160463 -5.81946,-11.387591 -11.29023,-9.472431 -16.93667,-14.209803 -5.64644,-4.73737 -2.61808,-1.805494 -4.90479,-2.595982 -2.2867,-0.790491 -4.03706,-0.173967 -5.08057,-0.375521 -1.04352,-0.201554 -7.41258,3.641793 -8.21686,3.751966 z"
     sodipodi:nodetypes="sssssssssssssss" />
  <path
     d="M418.763 230.17a44.17 44.17 0 0 0-42.48-28.13c2.38-5.31 3.49-9.82 3.49-14.1 0-15-11.86-26.25-27.59-26.25-8.75 0-17.25 4.32-23.33 11.86a36.68 36.68 0 0 0-5.09 8.43c-6-3.36-13.26-5.07-21.59-5.07-11.17 0-23 4.14-33.39 11.7a25 25 0 0 0-21.39-11.7 27.69 27.69 0 0 0-18.74 7 25.51 25.51 0 0 0-16.82-6.93 31.63 31.63 0 0 0 1.5-9.3c0-14.21-11.33-25.35-25.8-25.35-6.93 0-13.67 3.1-19.63 9a39.88 39.88 0 0 0-10.49-17.45c-8-7.66-19.08-11.71-32.13-11.71-10.49 0-21.32 3.41-32.19 10.15a102.73 102.73 0 0 0-8.45 5.91 34.81 34.81 0 0 0-28.34-12.19 23.5 23.5 0 0 0-18 9.39 25.3 25.3 0 0 0-3.94 21.48c1.16 4.57 3.8 7.86 6.65 11.08l.24.52c-.85 6.12-5.63 18.71-7.23 22.91-4 10.41-10.16 23.24-13.22 29.23-3.45 5.57-6.16 9.94-8.21 13.74-11.81 20.95-6.72 39.46-6.72 39.46l.87 2.29c1 3.08 5.09 10.69 18.59 19.36 15.36 9.87 37.53 14.87 65.88 14.87 4.45 0 8.66-.07 12.52-.2h192.76c3.54 0 7.16.05 11 .1h.13c3.87.05 7.87.11 12 .11 28.31 0 57.64-2.8 80.36-23.12 6.56-5.87 13.94-12.9 18.38-22.09 5.26-10.91 5.42-22.69.4-35z"
     id="path178" />
  <path
     d="M402.233 236.93a27.58 27.58 0 0 0-16.48-15.78c-6.55-2.14-13.55-1.41-20.24.6-1.35-3-2.88-5.86-4.35-8.58a81.25 81.25 0 0 1-5.18-10.86c4.15-7.17 5.94-11.5 5.94-14.4 0-5.1-3.83-8.4-9.74-8.4-6.58 0-13.91 7.68-13.91 18.7v1.66c-6.19 13.65-11 22.61-16.4 30.84-1.32 2-2.45 3.74-3.4 5.3a36.43 36.43 0 0 1-27.94 12.62c-5.76 0-11.91-2.5-11.91-9.52v-1.72c11.61-1.85 22.23-5.43 30.05-10.12 8.62-5.17 13.37-11.46 13.37-17.72 0-9.27-7.43-14.81-19.89-14.81-9.25 0-19.81 4.76-28.24 12.72a45.74 45.74 0 0 0-13.9 24.46c-7.49 11.4-14.24 17.9-18.61 17.9-1.14 0-3-1.49-3-5.49 0-7.59 4.18-17.35 8.27-25.92 6.52-10.47 7.86-14.28 7.86-16.77 0-4-3-6.9-7.2-6.9-5.72 0-9.62 3.68-13.46 12.69-3.68 8.58-8.71 20.33-14 27.87-4.38 6.35-10.06 13.63-15.1 13.63-.86 0-2.5-1-2.5-4.6 0-7.59 4.17-17.35 8.27-25.92 5.79-9.31 7.85-13.66 7.85-16.62 0-4.15-3.14-7.05-7.64-7.05-5.44 0-9.36 3.73-14.45 13.76a142 142 0 0 0-9.68 23c-7.44 11.38-14.51 18.15-19 18.15-2.94 0-3.26-3.74-3.26-5.35 0-7.31 4-20 12-37.73l.58-1c11.16-19 18.48-31.93 18.48-38 0-4.41-3.26-7.49-7.94-7.49-4.23 0-9.59 5.27-14 13.75-5.07 9.72-19.36 38-24.73 57.7a27.27 27.27 0 0 1-15.05 9.7c.42-1.56.15-2.39-.62-2.66a43.1 43.1 0 0 0 2-12.93 28.73 28.73 0 0 0-5.49-17.15c13.83-11.48 22.35-27.74 22.35-42.86 0-16.33-9.75-25.7-26.75-25.7-14.3 0-30.43 10-48 29.77.08-1 .13-2.09.13-3.17a24.9 24.9 0 0 0-6-16.46 17 17 0 0 0-14.31-6.19c-4.56.19-6.42 4.43-5.36 8.61.41 1.57 6.06 7 5.9 7.56l-.2.73.3-.82a14.37 14.37 0 0 1 1.58 7c0 6.93-3.41 17.32-8.53 30.79-4.63 12.16-11.9 26.91-14.35 31.68-9.33 15-11 18-11 22.83 0 5.38 3.5 9 8.69 9 5.63 0 8.92-4.9 12.41-12.83s9-19.67 14.47-30.59a130.31 130.31 0 0 1 18.56-28.72 162.09 162.09 0 0 1 23.05-23.2c8.58-6.81 16-10.41 21.56-10.41 7 0 8.47 5.5 8.47 10.11 0 10.82-6.05 23.45-15.51 32.54a49.93 49.93 0 0 0-22.67-5c-13.2 0-22.42 6.15-22.42 15 0 7 5.57 14.51 21.23 14.51a54.53 54.53 0 0 0 22.23-5 20 20 0 0 1 1.47 7.85 33.16 33.16 0 0 1-5.06 17.72c-11.89-.2-29-4.27-36.77-10.72-3.54-3-6.88-4.35-10.83-4.35-2.68 0-8.51.92-9.78 8.69v.25c0 .24-.07.49-.1.74-.54 4.64-2.22 24.34 7.95 30.61h-38.5s7.5 24.07 67.48 24.07c4.51 0 8.56-.07 12.21-.2h193c30.4 0 67 3.61 91.58-18.36 12.36-11.04 20.82-20.74 14.16-37.04zm-100.8-29.14c.24 0 2.35 0 2.35 1 0 5.49-8.51 11.22-21.13 14.49 4.97-9.39 13.23-15.49 18.78-15.49zm-208.69 1.58c-3 0-4.3-.76-4.3-1.16 0-.8 2-1.61 6.39-1.61a32.05 32.05 0 0 1 7.77.9 28.55 28.55 0 0 1-9.86 1.87zm241.22 30.24c1-1.39 2-2.84 3-4.35a7.47 7.47 0 0 0 1.06-2.56c2.87-4.5 5.5-9 8-13.52a73.82 73.82 0 0 1 3.93 9.37 101.91 101.91 0 0 0-13 8.5 17.11 17.11 0 0 0-3.26 3.27c.07-.22.16-.46.27-.71zm17.48.63c-.68 5.46-4.6 9.14-10 9.14a10.13 10.13 0 0 1-3.85-.71 7.18 7.18 0 0 0 1-.11 15 15 0 0 0 6-3.16c2.31-1.69 4.55-3.48 6.85-5.16zm-256.33 16.05a22.5 22.5 0 0 1-6.1.85c-8.56 0-16-4.12-18.21-9.73a74.68 74.68 0 0 0 24.31 8.88zm256.57 12.17h-239.93a52.19 52.19 0 0 0 12.14-11.21c9.4-1 17.25-3.13 23.76-6.59 2.25 7.66 8.62 11.92 18.23 11.92 7.55 0 14.57-3.93 20.56-9.14a15.33 15.33 0 0 0 3.08 4.37c3.16 3.12 7.68 4.77 13.08 4.77 6.28 0 12.8-3.71 19.43-11 2.47 6.82 9 11 17.6 11 8.41 0 16.15-4.78 22.76-11.18 4.45 7.22 13.58 11.18 26.5 11.18a54.28 54.28 0 0 0 28.14-7.5c.57-.34 1.15-.7 1.71-1.07 4 4.95 11.42 8.57 22.84 8.57 17 0 27.95-9.68 27.95-24.66a29.77 29.77 0 0 0-.37-4.65 18.26 18.26 0 0 1 13.42 6.2c16.63 19.82-13.03 28.99-30.9 28.99z"
     id="path180"
     style="fill:#00aedc" />
  <path
     class="cls-5"
     id="line182"
     style="fill:none;stroke:#fff;stroke-width:2.6500001px;stroke-linecap:round;stroke-linejoin:round"
     d="m64.473 193.75-29.55 55.56" />
  <path
     class="cls-5"
     d="M64.473 157.15s4.33 7.7 3.39 20.8"
     id="path184"
     style="fill:none;stroke:#fff;stroke-width:2.6500001px;stroke-linecap:round;stroke-linejoin:round" />
  <path
     class="cls-5"
     d="M64.873 192.64a100.16 100.16 0 0 1 37.86-38.07c6.35-3.6 13.34-6.55 20.64-6.54 7.3.01 14.94 3.55 18.16 10.1 2.16 4.4 2.12 9.57 1.38 14.42a50 50 0 0 1-19.47 31.94c-9.35 7.11-27.1 15.36-39.05 10.88-10.57-4-2.21-12.65 4.17-14.3 5.27-1.37 16-2.52 20.05 2.36"
     id="path186"
     style="fill:none;stroke:#fff;stroke-width:2.6500001px;stroke-linecap:round;stroke-linejoin:round" />
  <path
     class="cls-5"
     d="M124.143 219.55c.4 12 .26 26-7.64 35.55-15.38 18.61-47.9 12.62-55.8-9.82-.61-1.74-1-3.9.27-5.24a4.81 4.81 0 0 1 3-1.22c6.48-.85 12.56 1.77 18.32 4.36a97.57 97.57 0 0 0 21.23 6.76"
     id="path188"
     style="fill:none;stroke:#fff;stroke-width:2.6500001px;stroke-linecap:round;stroke-linejoin:round" />
  <path
     class="cls-5"
     d="M185.623 171.09s-25.69 37-28.42 64.73c-2.73 27.73 12.72 19 15.81 18.57 0 0 8.95-4.42 12.48-9.71"
     id="path190"
     style="fill:none;stroke:#fff;stroke-width:2.6500001px;stroke-linecap:round;stroke-linejoin:round" />
  <path
     class="cls-5"
     d="M208.443 204.11s-15 21.17-15 40.57 30 16.76 52-40.57"
     id="path192"
     style="fill:none;stroke:#fff;stroke-width:2.6500001px;stroke-linecap:round;stroke-linejoin:round" />
  <path
     class="cls-5"
     d="M228.823 243.93a23.18 23.18 0 0 0 0 4.08c1.18 13.64 20.62 9.3 26.38 1.52"
     id="path194"
     style="fill:none;stroke:#fff;stroke-width:2.6500001px;stroke-linecap:round;stroke-linejoin:round" />
  <path
     class="cls-5"
     d="M276.343 231.45s19.41-2.64 32.64-12.34 0-24.26-18.08-15c-18.08 9.26-26.46 34-20.73 45.42 5.73 11.42 32.19 9.26 41.89 0"
     id="path196"
     style="fill:none;stroke:#fff;stroke-width:2.6500001px;stroke-linecap:round;stroke-linejoin:round" />
  <path
     class="cls-5"
     d="M319.783 244.9s12.84-11.86 17.64-25.57a133.69 133.69 0 0 1 12.34-25.14"
     id="path198"
     style="fill:none;stroke:#fff;stroke-width:2.6500001px;stroke-linecap:round;stroke-linejoin:round" />
  <path
     class="cls-5"
     d="M349.983 207.64s3.53 12.35 7.06 19.84c2.58 5.56 4.58 12.49 3.18 18.63-1.81 7.79-10.23 10.64-17.36 11-3.22.14-8 .36-10.41-2.25-2.68-3-.74-5.61 1.22-8.38 5.06-7.14 19.64-12.71 17.2-12.79"
     id="path200"
     style="fill:none;stroke:#fff;stroke-width:2.6500001px;stroke-linecap:round;stroke-linejoin:round" />
  <path
     class="cls-5"
     d="M74.293 283.47a104.41 104.41 0 0 0 14.21.9h215.18l34-2.21"
     id="path202"
     style="fill:none;stroke:#fff;stroke-width:2.6500001px;stroke-linecap:round;stroke-linejoin:round" />
  <path
     class="cls-5"
     d="M331.143 275.11H51.463s3.44 3.62 12.92 6.33"
     id="path204"
     style="fill:none;stroke:#fff;stroke-width:2.6500001px;stroke-linecap:round;stroke-linejoin:round" />
  <path
     class="cls-5"
     d="M371.153 226.6s17.6-.6 23.85 14.54c0 0 6.58 36.61-50.31 34"
     id="path206"
     style="fill:none;stroke:#fff;stroke-width:2.6500001px;stroke-linecap:round;stroke-linejoin:round" />
  <path
     class="cls-5"
     d="M130.393 249.53s13.76-2.68 22.8-12.67"
     id="path208"
     style="fill:none;stroke:#fff;stroke-width:2.6500001px;stroke-linecap:round;stroke-linejoin:round" />
  <path
     class="cls-6"
     id="line210"
     style="fill:none;stroke:#fff;stroke-width:3.97000003px;stroke-linecap:round;stroke-linejoin:round"
     d="M135.103 323.04v7.28" />
  <path
     class="cls-6"
     id="polyline212"
     style="fill:none;stroke:#fff;stroke-width:3.97000003px;stroke-linecap:round;stroke-linejoin:round"
     transform="translate(-279.377 -184.96)"
     d="M397.29 515.27v-18.52l8.82 12.35 8.37-12.35" />
  <path
     class="cls-6"
     id="polyline214"
     style="fill:none;stroke:#fff;stroke-width:3.97000003px;stroke-linecap:round;stroke-linejoin:round"
     transform="translate(-279.377 -184.96)"
     d="m464.75 496.75 8.82 12.35 8.38-12.35v18.52" />
  <path
     class="cls-6"
     id="line216"
     style="fill:none;stroke:#fff;stroke-width:3.97000003px;stroke-linecap:round;stroke-linejoin:round"
     d="M185.373 330.32v-7.28" />
  <path
     class="cls-6"
     id="polyline218"
     style="fill:none;stroke:#fff;stroke-width:3.97000003px;stroke-linecap:round;stroke-linejoin:round"
     transform="translate(-279.377 -184.96)"
     d="M446.89 515.5h-12.34v-18.52h12.34" />
  <path
     class="cls-6"
     id="line220"
     style="fill:none;stroke:#fff;stroke-width:3.97000003px;stroke-linecap:round;stroke-linejoin:round"
     d="M161.173 321.27h5.46" />
  <path
     class="cls-6"
     d="M223.073 330.54v-18.5h6.18s7-.45 7 5.29c0 0 .44 5.73-7 5.73h.09"
     id="path222"
     style="fill:none;stroke:#fff;stroke-width:3.97000003px;stroke-linecap:round;stroke-linejoin:round" />
  <path
     class="cls-6"
     id="line224"
     style="fill:none;stroke:#fff;stroke-width:3.97000003px;stroke-linecap:round;stroke-linejoin:round"
     d="M253.943 311.57v18.97" />
  <path
     class="cls-6"
     id="line226"
     style="fill:none;stroke:#fff;stroke-width:3.97000003px;stroke-linecap:round;stroke-linejoin:round"
     d="M268.493 311.57v18.97" />
  <path
     class="cls-6"
     id="line228"
     style="fill:none;stroke:#fff;stroke-width:3.97000003px;stroke-linecap:round;stroke-linejoin:round"
     d="M254.383 321.28h7.72" />
  <path
     class="cls-6"
     id="line230"
     style="fill:none;stroke:#fff;stroke-width:3.97000003px;stroke-linecap:round;stroke-linejoin:round"
     d="M287.893 311.57v18.97" />
  <path
     class="cls-6"
     d="M319.983 324.04a5.32 5.32 0 0 0-3-2.49s-8.34-.94-9.13-4.66c-.79-3.72 4.51-7.69 12-3.28"
     id="path232"
     style="fill:none;stroke:#fff;stroke-width:3.97000003px;stroke-linecap:round;stroke-linejoin:round" />
  <path
     class="cls-6"
     d="M306.623 327.67s2.21 2.65 7.5 2.65a6.92 6.92 0 0 0 2.78-.59"
     id="path234"
     style="fill:none;stroke:#fff;stroke-width:3.97000003px;stroke-linecap:round;stroke-linejoin:round" />
  <path
     class="cls-7"
     id="line236"
     style="stroke:#f65d32;stroke-width:4.40999985px;stroke-linecap:round;stroke-linejoin:round"
     d="M283.703 157.65h-67.9" />
  <path
     class="cls-8"
     id="line238"
     style="fill:none;stroke:#f65d32;stroke-width:4.40999985px;stroke-linecap:round;stroke-linejoin:round"
     d="M258.243 179.07h-42.44" />
  <path
     class="cls-8"
     id="line240"
     style="fill:none;stroke:#f65d32;stroke-width:4.40999985px;stroke-linecap:round;stroke-linejoin:round"
     d="M331.333 179.07h-73.09" />
  <path
     class="cls-7"
     id="line242"
     style="stroke:#f65d32;stroke-width:4.40999985px;stroke-linecap:round;stroke-linejoin:round"
     d="M266.073 136.23h-50.27" />
  <path
     class="cls-7"
     id="line244"
     style="stroke:#f65d32;stroke-width:4.40999985px;stroke-linecap:round;stroke-linejoin:round"
     d="M257.253 114.81h-41.45" />
  <path
     class="cls-7"
     id="line246"
     style="stroke:#f65d32;stroke-width:4.40999985px;stroke-linecap:round;stroke-linejoin:round"
     d="M232.113 93.4h-16.31" />
  <path
     class="cls-7"
     id="line248"
     style="stroke:#f65d32;stroke-width:4.41001px;stroke-linecap:round;stroke-linejoin:round"
     d="M 264.65427,71.98 H 215.803" />
  <path
     class="cls-7"
     id="line250"
     style="stroke:#f65d32;stroke-width:4.41001px;stroke-linecap:round;stroke-linejoin:round"
     d="M 276.0224,50.56 H 215.803" />
  <path
     class="cls-8"
     d="M193.533 144.23V43.92c0-11.29 7.27-14 11.61-14.63l10.66-.15h72.31"
     id="path252"
     style="fill:none;stroke:#f65d32;stroke-width:4.41;stroke-linecap:round;stroke-linejoin:round;stroke-miterlimit:4;stroke-dasharray:none" />
  <path
     class="cls-9"
     id="line268"
     style="fill:none;stroke:#f2d425;stroke-width:4.47px;stroke-linecap:round;stroke-linejoin:round"
     d="m 309.69326,113.4 h 17.73" />
  <path
     class="cls-9"
     id="line270"
     style="fill:none;stroke:#f2d425;stroke-width:4.47px;stroke-linecap:round;stroke-linejoin:round"
     d="M 318.64206,57.898315 V 119.39086" />
  <path
     class="cls-10"
     d="m 322.45082,130.29816 h -10.33381 l -0.6822,-5.24604 h 13.33007 l 0.38762,3.0559 0.71321,4.34864 1.70938,11.85993 v 1.68806 a 2.2171561,2.2612922 0 0 1 -0.77523,1.18599 c -1.20936,0.94879 -3.19782,0.39533 -4.43819,-1.2611 -1.24037,-1.65644 -1.26362,-3.74774 -0.0543,-4.69653 a 2.372202,2.4194245 0 0 1 1.93808,-0.39534"
     id="path274"
     style="fill:none;stroke:#00aedc;stroke-width:2.44;stroke-linecap:round;stroke-linejoin:round;stroke-miterlimit:4;stroke-dasharray:none" />
  <path
     class="cls-10"
     d="m 312.71782,133.17616 1.7055,11.85993 v 1.65248 a 2.2636699,2.3087319 0 0 1 -0.77523,1.18599 c -1.21323,0.9488 -3.19782,0.39533 -4.43819,-1.26506 -1.24036,-1.66039 -1.25975,-3.7675 -0.0581,-4.70443 a 2.3838305,2.4312844 0 0 1 1.93807,-0.39533"
     id="path276"
     style="fill:none;stroke:#00aedc;stroke-width:2.44;stroke-linecap:round;stroke-linejoin:round;stroke-miterlimit:4;stroke-dasharray:none" />
  <path
     style="fill:none;stroke:#00aedc;stroke-width:4.39999;stroke-linecap:butt;stroke-linejoin:miter;stroke-miterlimit:4;stroke-dasharray:none;stroke-opacity:1"
     d="m 308.34343,40.077701 c -7.1348,4.806731 -13.56108,10.720897 -18.63354,17.669298 -4.40544,6.034704 -7.7589,12.801982 -10.2383,19.850256 -4.40523,12.522901 -6.05012,26.233885 -3.10823,39.178935 3.96553,17.44931 15.72645,31.9807 27.72448,45.25665 1.57099,1.73832 3.16001,3.47467 4.98118,4.94883 1.82117,1.47415 3.89632,2.68684 6.17338,3.23891 3.55355,0.86155 7.3549,0.0431 10.62733,-1.58817 4.19957,-2.09349 7.63325,-5.43172 10.8676,-8.83144 11.51982,-12.10884 21.73223,-26.28314 25.04333,-42.66505 1.96179,-9.70609 1.39957,-19.823227 -0.84256,-29.468416 -2.92674,-12.590254 -8.77501,-24.583173 -17.45578,-34.160463 -4.96178,-5.474218 -10.78724,-10.114578 -16.93667,-14.209803 -1.54496,-1.02887 -3.1351,-2.03592 -4.90479,-2.595982 -1.63327,-0.516887 -3.3872,-0.634813 -5.08057,-0.375521 -3.00147,0.45959 -5.69859,2.055402 -8.21686,3.751966 z"
     id="path1769"
     inkscape:path-effect="#path-effect1771"
     inkscape:original-d="m 308.34343,40.077701 c -0.80427,0.110174 -9.40343,9.101398 -18.63354,17.669298 -9.2301,8.567902 -7.90713,14.77347 -10.2383,19.850256 -2.33118,5.076788 -2.07127,26.120065 -3.10823,39.178935 -1.03697,13.05887 18.48386,30.17187 27.72448,45.25665 9.24062,15.08478 7.43726,5.45926 11.15456,8.18774 3.7173,2.72848 7.08577,-1.05799 10.62733,-1.58817 3.54157,-0.53015 7.24596,-5.88685 10.8676,-8.83144 3.62166,-2.9446 16.69645,-28.44262 25.04333,-42.66505 8.34689,-14.22247 -0.56083,-19.644849 -0.84256,-29.468416 -0.28172,-9.823568 -11.6363,-22.772871 -17.45578,-34.160463 -5.81946,-11.387591 -11.29023,-9.472431 -16.93667,-14.209803 -5.64644,-4.73737 -2.61808,-1.805494 -4.90479,-2.595982 -2.2867,-0.790491 -4.03706,-0.173967 -5.08057,-0.375521 -1.04352,-0.201554 -7.41258,3.641793 -8.21686,3.751966 z"
     sodipodi:nodetypes="sssssssssssssss" />
  <path
     class="cls-9"
     id="path2431"
     style="fill:none;stroke:#f2d425;stroke-width:4.47px;stroke-linecap:round;stroke-linejoin:round"
     d="m 309.69326,103.4 h 17.73" />
  <path
     class="cls-9"
     id="path2433"
     style="fill:none;stroke:#f2d425;stroke-width:4.47px;stroke-linecap:round;stroke-linejoin:round"
     d="m 309.69326,93.399999 h 17.73" />
  <path
     class="cls-9"
     id="path2435"
     style="fill:none;stroke:#f2d425;stroke-width:4.47px;stroke-linecap:round;stroke-linejoin:round"
     d="m 309.69326,83.399999 h 17.73" />
  <path
     class="cls-9"
     id="path2437"
     style="fill:none;stroke:#f2d425;stroke-width:4.47px;stroke-linecap:round;stroke-linejoin:round"
     d="m 309.69326,73.399999 h 17.73" />
  <path
     class="cls-9"
     id="path2439"
     style="fill:none;stroke:#f2d425;stroke-width:4.47px;stroke-linecap:round;stroke-linejoin:round"
     d="m 309.69326,63.399999 h 17.73" />
  <path
     class="cls-8"
     id="path2554"
     style="fill:none;stroke:#f65d32;stroke-width:4.41px;stroke-linecap:round;stroke-linejoin:round"
     d="m 331.333,29.07 h -73.09" />
  <path
     class="cls-7"
     id="path2556"
     style="stroke:#f65d32;stroke-width:4.41px;stroke-linecap:round;stroke-linejoin:round"
     d="m 257.253,93.4 h -41.45" />
</svg>
