<?xml version="1.0" encoding="UTF-8" standalone="no"?>
<svg
   id="Layer_1"
   data-name="Layer 1"
   viewBox="0 0 284.98001 317.31"
   version="1.1"
   sodipodi:docname="MIL.svg"
   width="284.98001"
   height="317.31"
   inkscape:version="1.1.1 (3bf5ae0d25, 2021-09-20)"
   xmlns:inkscape="http://www.inkscape.org/namespaces/inkscape"
   xmlns:sodipodi="http://sodipodi.sourceforge.net/DTD/sodipodi-0.dtd"
   xmlns="http://www.w3.org/2000/svg"
   xmlns:svg="http://www.w3.org/2000/svg"
   xmlns:rdf="http://www.w3.org/1999/02/22-rdf-syntax-ns#"
   xmlns:cc="http://creativecommons.org/ns#"
   xmlns:dc="http://purl.org/dc/elements/1.1/">
  <metadata
     id="metadata337">
    <rdf:RDF>
      <cc:Work
         rdf:about="">
        <dc:format>image/svg+xml</dc:format>
        <dc:type
           rdf:resource="http://purl.org/dc/dcmitype/StillImage" />
        <dc:title />
      </cc:Work>
    </rdf:RDF>
  </metadata>
  <sodipodi:namedview
     pagecolor="#ffffff"
     bordercolor="#666666"
     borderopacity="1"
     objecttolerance="10"
     gridtolerance="10"
     guidetolerance="10"
     inkscape:pageopacity="0"
     inkscape:pageshadow="2"
     inkscape:window-width="1920"
     inkscape:window-height="1017"
     id="namedview335"
     showgrid="false"
     inkscape:zoom="2.2250293"
     inkscape:cx="181.79536"
     inkscape:cy="155.27885"
     inkscape:window-x="-8"
     inkscape:window-y="-8"
     inkscape:window-maximized="1"
     inkscape:current-layer="Layer_1"
     inkscape:pagecheckerboard="0" />
  <defs
     id="defs4">
    <style
       id="style2">.cls-1{opacity:0.2;}.cls-2{fill:#a6a6a6;}.cls-3{fill:#fff;}.cls-4{fill:#fdc05f;}.cls-5{fill:#003600;}.cls-6{fill:#fc882c;}.cls-7{fill:#f06b17;}.cls-8{fill:#c8c8c8;}.cls-9{fill:#007800;}.cls-10,.cls-11,.cls-12{fill:none;stroke-miterlimit:10;}.cls-10{stroke:#f06b17;stroke-width:9.11px;}.cls-11,.cls-12{stroke:#fdc05f;}.cls-11{stroke-width:8.09px;}.cls-12{stroke-width:6.96px;}</style>
  </defs>
  <path
     class="cls-5"
     d="M 280.725,50.995 A 46.75,46.75 0 0 1 233.975,4.2450001 v -0.2 H 50.585 A 46.74,46.74 0 0 1 4.0450001,50.175 v 217.35 h 0.2 A 46.76,46.76 0 0 1 50.985,313.265 h 183.41 c 0,-0.34 0,-0.68 0,-1 a 46.75,46.75 0 0 1 46.54,-46.75 V 50.995 Z"
     id="path220"
     inkscape:connector-curvature="0"
     style="fill:#003600" />
  <rect
     class="cls-9"
     x="3.9749994"
     y="140.08502"
     width="280"
     height="42"
     id="rect222"
     style="fill:#007800" />
  <polygon
     class="cls-4"
     points="361.7,903.71 376.04,903.71 363.81,918.05 349.46,918.05 "
     id="polygon224"
     style="fill:#fdc05f"
     transform="translate(-116.415,-753.005)" />
  <path
     class="cls-6"
     d="m 259.585,150.705 c 0,0 7.27,5 3.46,14.35 h -15.65 z"
     id="path226"
     inkscape:connector-curvature="0"
     style="fill:#fc882c" />
  <polygon
     class="cls-4"
     points="158.09,906.55 143.75,906.55 155.99,920.89 170.33,920.89 "
     id="polygon228"
     style="fill:#fdc05f"
     transform="translate(-116.415,-753.005)" />
  <path
     class="cls-6"
     d="m 27.335,153.545 c 0,0 -7.27,5 -3.45,14.34 h 15.7 z"
     id="path230"
     inkscape:connector-curvature="0"
     style="fill:#fc882c" />
  <path
     class="cls-5"
     d="m 199.795,104.605 a 79.66,79.66 0 0 0 -77.46,-20.45 l -16.36,4.5 1.18,1.42 a 79.6,79.6 0 0 0 -19.92,127.09 79,79 0 0 0 56.28,23.31 80,80 0 0 0 19.26,-2.35 l 5.22,-1.29 0.25,0.9 3.58,-1.86 3.91,-1 -0.4,-0.85 4.78,-2.47 a 79.61,79.61 0 0 0 43,-70.7 79.05,79.05 0 0 0 -23.32,-56.25 z"
     id="path232"
     inkscape:connector-curvature="0"
     style="fill:#003600" />
  <path
     class="cls-4"
     d="m 143.515,92.225 a 68.87,68.87 0 0 0 -18.28,2.46 2.4,2.4 0 0 1 0.61,1.55 c 0,2.21 -3.58,4 -8,4 a 13.64,13.64 0 0 1 -4.9,-0.84 68.68,68.68 0 0 0 47.2,128.13 8,8 0 1 1 14.94,-5.64 68.67,68.67 0 0 0 -31.56,-129.66 z"
     id="path234"
     inkscape:connector-curvature="0"
     style="fill:#fdc05f" />
  <circle
     class="cls-5"
     cx="80.974998"
     cy="189.08502"
     r="6"
     id="circle236"
     style="fill:#003600" />
  <path
     class="cls-6"
     d="m 162.005,94.745 a 136,136 0 0 0 -2,132.8 h 0.1 a 8,8 0 1 1 14.94,-5.64 68.68,68.68 0 0 0 -13.07,-127.14 z"
     id="path238"
     inkscape:connector-curvature="0"
     style="fill:#fc882c" />
  <ellipse
     class="cls-4"
     cx="158.265"
     cy="107.15498"
     rx="8.0100002"
     ry="4.0100002"
     id="ellipse246"
     style="fill:#fdc05f" />
  <ellipse
     class="cls-6"
     cx="130.40501"
     cy="127.01502"
     rx="6.3699999"
     ry="8.1999998"
     id="ellipse248"
     style="fill:#fc882c" />
  <circle
     class="cls-4"
     cx="150.985"
     cy="201.505"
     r="8.0100002"
     id="circle250"
     style="fill:#fdc05f" />
  <ellipse
     class="cls-7"
     cx="164.645"
     cy="121.91499"
     rx="6.7399998"
     ry="3.0999999"
     id="ellipse252"
     style="fill:#f06b17" />
  <circle
     class="cls-7"
     cx="158.63499"
     cy="175.27502"
     r="4.3699999"
     id="circle254"
     style="fill:#f06b17" />
  <circle
     class="cls-7"
     cx="156.81502"
     cy="142.85498"
     r="2.55"
     id="circle256"
     style="fill:#f06b17" />
  <circle
     class="cls-6"
     cx="141.145"
     cy="103.15498"
     r="2.55"
     id="circle258"
     style="fill:#fc882c" />
  <circle
     class="cls-6"
     cx="131.675"
     cy="177.46497"
     r="5.0999999"
     id="circle260"
     style="fill:#fc882c" />
  <ellipse
     class="cls-6"
     cx="121.84499"
     cy="209.51501"
     rx="4.0100002"
     ry="6.5599999"
     id="ellipse262"
     style="fill:#fc882c" />
  <ellipse
     class="cls-7"
     cx="193.08501"
     cy="174.71497"
     rx="3.8900001"
     ry="5.4899998"
     id="ellipse264"
     style="fill:#f06b17" />
  <circle
     class="cls-7"
     cx="195.97502"
     cy="138.30499"
     r="7.0999999"
     id="circle266"
     style="fill:#f06b17" />
  <circle
     class="cls-6"
     cx="88.334999"
     cy="140.30499"
     r="5.0999999"
     id="circle268"
     style="fill:#fc882c" />
  <ellipse
     class="cls-6"
     cx="91.245003"
     cy="177.27502"
     rx="8.0100002"
     ry="4.5500002"
     id="ellipse270"
     style="fill:#fc882c" />
  <path
     class="cls-3"
     d="m 222.745,229.715 1.62,-1.94 13.32,4.94 -15.1,-12.55 3.1,-3.75 22.38,18.58 -3.86,4.65 -13.62,-5.07 7.51,12.47 -3.86,4.65 -22.39,-18.6 3.11,-3.74 15.11,12.56 z"
     id="path272"
     inkscape:connector-curvature="0"
     style="fill:#ffffff" />
  <path
     class="cls-3"
     d="m 189.095,255.915 5.3,-2.77 -1.81,-6.15 4.41,-2.31 7.41,29 -4.2,2.2 -19.62,-22.62 4.41,-2.31 z m 3,3.73 6.35,7.74 -2.75,-9.63 z"
     id="path274"
     inkscape:connector-curvature="0"
     style="fill:#ffffff" />
  <path
     class="cls-3"
     d="m 154.495,275.995 -8.91,-15.27 5.29,-0.64 5.86,10.08 1.77,-4.45 -0.79,-6.47 4.75,-0.58 3.53,28.89 -4.75,0.58 -1.6,-13.14 -5.19,14 -5.32,0.65 z"
     id="path276"
     inkscape:connector-curvature="0"
     style="fill:#ffffff" />
  <path
     class="cls-3"
     d="m 126.835,259.255 -6.66,28.33 -13.59,-3.19 1.08,-4.59 8.83,2.08 1.66,-7.05 -6.57,-1.54 1.08,-4.59 6.56,1.55 1.77,-7.53 -8.84,-2.08 1.08,-4.59 z"
     id="path278"
     inkscape:connector-curvature="0"
     style="fill:#ffffff" />
  <path
     class="cls-3"
     d="m 95.175,248.355 -15.83,24.42 -10.54,-6.78 -0.71,-3.29 7.09,-10.92 3.28,-0.7 4.18,-10.81 4,2.6 -4.18,10.81 2.44,1.58 6.17,-9.51 z m -16.73,8.27 -0.76,0.2 -3.92,6 0.16,0.74 3.92,2.54 4.52,-7 z"
     id="path280"
     inkscape:connector-curvature="0"
     style="fill:#ffffff" />
  <path
     class="cls-3"
     d="m 45.915,231.485 -2.45,1.84 -0.11,0.81 2.23,3 0.8,0.12 4.84,-3.64 0.11,-0.8 -4.09,-5.45 0.47,-3.33 9.91,-7.46 3.33,0.47 5.94,7.9 -0.47,3.33 -4.84,3.57 -2.89,-3.85 2.48,-1.86 0.11,-0.81 -2.23,-3 -0.81,-0.12 -5.26,4 -0.12,0.81 4.08,5.41 -0.47,3.33 -9.52,7.16 -3.32,-0.47 -5.94,-7.9 0.47,-3.32 4.8,-3.62 z"
     id="path282"
     inkscape:connector-curvature="0"
     style="fill:#ffffff" />
  <path
     class="cls-3"
     d="m 59.425,101.355 -18.71,-15.6 -0.3,-3.35 6.28,-7.53 3.34,-0.3 4.62,3.85 -3.07,3.74 -2.35,-2 -0.81,0.07 -2.35,2.82 0.07,0.81 14.18,11.83 0.81,-0.08 2.35,-2.82 -0.07,-0.81 -2.35,-2 3.11,-3.74 4.62,3.85 0.3,3.35 -6.28,7.53 z"
     id="path284"
     inkscape:connector-curvature="0"
     style="fill:#ffffff" />
  <path
     class="cls-3"
     d="m 75.405,51.295 6,10.43 4.75,-2.73 -6,-10.42 4.22,-2.43 14.5,25.24 -4.21,2.42 -6.17,-10.72 -4.75,2.72 6.17,10.73 -4.23,2.46 -14.5,-25.23 z"
     id="path286"
     inkscape:connector-curvature="0"
     style="fill:#ffffff" />
  <path
     class="cls-3"
     d="m 117.905,64.625 -5.07,-28.63 13.75,-2.47 0.82,4.64 -8.94,1.58 1.26,7.13 6.64,-1.17 0.82,4.64 -6.64,1.17 1.35,7.62 8.94,-1.58 0.82,4.64 z"
     id="path288"
     inkscape:connector-curvature="0"
     style="fill:#ffffff" />
  <path
     class="cls-3"
     d="m 151.345,62.215 4.85,-28.7 13.75,2.33 -0.78,4.64 -8.95,-1.49 -1.21,7.14 6.64,1.12 -0.78,4.64 -6.65,-1.12 -1.29,7.63 9,1.51 -0.78,4.65 z"
     id="path290"
     inkscape:connector-curvature="0"
     style="fill:#ffffff" />
  <path
     class="cls-3"
     d="m 202.015,57.625 1.5,-2.67 -0.23,-0.79 -3.24,-1.81 -0.78,0.22 -2.95,5.29 0.22,0.78 5.95,3.35 0.92,3.23 -6.05,10.84 -3.24,0.91 -8.63,-4.82 -0.91,-3.23 2.93,-5.25 4.25,2.37 -1.51,2.71 0.22,0.78 3.24,1.81 0.78,-0.22 3.22,-5.75 -0.22,-0.78 -5.9,-3.33 -0.92,-3.23 5.81,-10.4 3.23,-0.92 8.63,4.82 0.92,3.23 -2.96,5.23 z"
     id="path292"
     inkscape:connector-curvature="0"
     style="fill:#ffffff" />
  <path
     class="cls-3"
     d="m 211.585,90.745 22,-19.14 9.17,10.5 -3.55,3.1 -6,-6.84 -5.46,4.76 4.44,5.08 -3.55,3.1 -4.44,-5.08 -5.82,5.08 6,6.84 -3.55,3.1 z"
     id="path294"
     inkscape:connector-curvature="0"
     style="fill:#ffffff" />
  <path
     class="cls-11"
     d="M 280.725,50.995 A 46.75,46.75 0 0 1 233.975,4.2450001 v -0.2 H 50.585 A 46.74,46.74 0 0 1 4.0450001,50.175 v 217.35 h 0.2 A 46.76,46.76 0 0 1 50.985,313.265 h 183.41 c 0,-0.34 0,-0.68 0,-1 a 46.75,46.75 0 0 1 46.54,-46.75 V 50.995 Z"
     id="path296"
     inkscape:connector-curvature="0"
     style="fill:none;stroke:#fdc05f;stroke-width:8.09000015px;stroke-miterlimit:10" />
  <circle
     class="cls-5"
     cx="210.47502"
     cy="189.08502"
     r="12"
     id="circle298"
     style="fill:#003600" />
  <circle
     class="cls-5"
     cx="185.22502"
     cy="103.33503"
     r="6.75"
     id="circle300"
     style="fill:#003600" />
</svg>
