<?xml version="1.0" encoding="UTF-8" standalone="no"?>
<svg
   id="Layer_1"
   data-name="Layer 1"
   viewBox="0 0 346.45999 351.03"
   version="1.1"
   sodipodi:docname="MIN.svg"
   width="346.45999"
   height="351.03"
   inkscape:version="1.1.1 (3bf5ae0d25, 2021-09-20)"
   xmlns:inkscape="http://www.inkscape.org/namespaces/inkscape"
   xmlns:sodipodi="http://sodipodi.sourceforge.net/DTD/sodipodi-0.dtd"
   xmlns="http://www.w3.org/2000/svg"
   xmlns:svg="http://www.w3.org/2000/svg"
   xmlns:rdf="http://www.w3.org/1999/02/22-rdf-syntax-ns#"
   xmlns:cc="http://creativecommons.org/ns#"
   xmlns:dc="http://purl.org/dc/elements/1.1/">
  <metadata
     id="metadata400">
    <rdf:RDF>
      <cc:Work
         rdf:about="">
        <dc:format>image/svg+xml</dc:format>
        <dc:type
           rdf:resource="http://purl.org/dc/dcmitype/StillImage" />
        <dc:title />
      </cc:Work>
    </rdf:RDF>
  </metadata>
  <sodipodi:namedview
     pagecolor="#ffffff"
     bordercolor="#666666"
     borderopacity="1"
     objecttolerance="10"
     gridtolerance="10"
     guidetolerance="10"
     inkscape:pageopacity="0"
     inkscape:pageshadow="2"
     inkscape:window-width="1920"
     inkscape:window-height="1017"
     id="namedview398"
     showgrid="false"
     inkscape:zoom="2.5173333"
     inkscape:cx="200.01324"
     inkscape:cy="174.58952"
     inkscape:window-x="1272"
     inkscape:window-y="-8"
     inkscape:window-maximized="1"
     inkscape:current-layer="Layer_1"
     inkscape:pagecheckerboard="0"
     showguides="true"
     inkscape:guide-bbox="true">
    <sodipodi:guide
       position="396.45128,213.98021"
       orientation="1,0"
       id="guide10274" />
    <sodipodi:guide
       position="165.44726,261.42444"
       orientation="0,-1"
       id="guide10402" />
    <sodipodi:guide
       position="372.61653,108.31283"
       orientation="1,0"
       id="guide1029" />
  </sodipodi:namedview>
  <defs
     id="defs19">
    <style
       id="style2">.cls-1{fill:#dcdbdb;}.cls-2{fill:#6b4fa0;}.cls-3{fill:#36296d;}.cls-14,.cls-4{fill:#fff;}.cls-5,.cls-9{fill:#8accdc;}.cls-15,.cls-16,.cls-6{fill:none;}.cls-15,.cls-6{stroke:#dcdbdb;}.cls-10,.cls-14,.cls-15,.cls-16,.cls-6,.cls-9{stroke-miterlimit:10;}.cls-6{stroke-width:3.24px;}.cls-7{fill:#4f2d88;}.cls-8{fill:#59595a;}.cls-10,.cls-14,.cls-9{stroke:#fff;stroke-width:4.06px;}.cls-10,.cls-17{fill:#55a8b4;}.cls-11{fill:#ed9a22;}.cls-12{fill:#898989;}.cls-13{fill:url(#linear-gradient);}.cls-15{stroke-width:11.69px;}.cls-16{stroke:#898989;stroke-width:6.68px;}.cls-18{fill:#3d2971;}</style>
    <linearGradient
       id="linear-gradient"
       x1="251.02"
       y1="532.25"
       x2="251.02"
       y2="520.22998"
       gradientUnits="userSpaceOnUse"
       gradientTransform="translate(0,-17.55595)">
      <stop
         offset="0"
         stop-color="#6e7070"
         stop-opacity="0"
         id="stop4" />
      <stop
         offset="0.06"
         stop-color="#6e7070"
         stop-opacity="0.11"
         id="stop6" />
      <stop
         offset="0.24"
         stop-color="#6e7070"
         stop-opacity="0.43"
         id="stop8" />
      <stop
         offset="0.43"
         stop-color="#6d7070"
         stop-opacity="0.68"
         id="stop10" />
      <stop
         offset="0.62"
         stop-color="#6d7070"
         stop-opacity="0.86"
         id="stop12" />
      <stop
         offset="0.81"
         stop-color="#6d7070"
         stop-opacity="0.96"
         id="stop14" />
      <stop
         offset="1"
         stop-color="#6d7070"
         id="stop16" />
    </linearGradient>
    <clipPath
       clipPathUnits="userSpaceOnUse"
       id="clipPath945">
      <path
         id="path947"
         style="fill:#ff0000;fill-opacity:1;fill-rule:nonzero;stroke:none;stroke-width:0.937516"
         d="m 149.13065,515.99049 v 19.46021 h 96.69989 v -19.46021 z m 38.43771,4.86975 c 0.0338,-9.6e-4 0.0678,8.8e-4 0.10153,0.004 l 0.057,0.008 c 0.0252,0.002 0.0497,0.004 0.0748,0.008 0.0254,0.003 0.0513,0.008 0.0766,0.0113 0.0258,0.005 0.0509,0.0102 0.0766,0.015 0.027,0.006 0.0551,0.0112 0.0819,0.017 0.0302,0.007 0.0593,0.0158 0.0891,0.0245 0.0275,0.008 0.0545,0.0139 0.0819,0.0226 0.0277,0.009 0.0561,0.0176 0.0837,0.0263 0.0275,0.009 0.0544,0.0176 0.0819,0.0263 0.0301,0.01 0.0607,0.0205 0.0908,0.0301 0.0322,0.0101 0.064,0.0198 0.0962,0.0301 0.0339,0.0109 0.0676,0.0229 0.10153,0.0339 0.0352,0.0114 0.0718,0.0224 0.10687,0.0339 0.0353,0.0117 0.0699,0.0239 0.10509,0.0358 0.0346,0.0115 0.0688,0.0225 0.10331,0.0339 0.0433,0.0144 0.0855,0.029 0.12825,0.0452 0.0436,0.0167 0.0871,0.0362 0.13002,0.0546 0.0406,0.0174 0.0808,0.0346 0.12112,0.0527 0.0436,0.0196 0.0871,0.0392 0.13003,0.0602 0.0434,0.0213 0.0872,0.0435 0.13002,0.0659 0.0432,0.0225 0.0855,0.0461 0.12825,0.0697 0.0415,0.0229 0.0834,0.0463 0.12468,0.0697 0.0388,0.022 0.077,0.0439 0.11577,0.0659 0.0391,0.0221 0.0785,0.0455 0.11756,0.0678 0.0394,0.0225 0.0782,0.0451 0.11755,0.0678 0.04,0.023 0.081,0.0449 0.12113,0.0677 0.0433,0.0245 0.0852,0.0503 0.12824,0.0753 0.0427,0.0247 0.0857,0.0487 0.12825,0.0734 0.0407,0.0236 0.0803,0.0481 0.12112,0.0715 0.0381,0.022 0.0772,0.043 0.11577,0.064 0.0387,0.0211 0.0784,0.0402 0.11756,0.0602 0.0384,0.0199 0.0768,0.0401 0.11578,0.0584 0.043,0.0202 0.0866,0.0389 0.13002,0.0583 0.0477,0.0213 0.0947,0.0431 0.1425,0.064 0.0485,0.0214 0.0973,0.0415 0.14606,0.0622 0.0491,0.0209 0.0982,0.0423 0.14782,0.0622 0.0511,0.0205 0.10345,0.0392 0.15497,0.0583 0.0545,0.0202 0.10887,0.0393 0.16387,0.0583 0.0574,0.0198 0.11532,0.0391 0.17278,0.0584 0.0544,0.0184 0.10905,0.0358 0.16387,0.0527 0.055,0.0171 0.11029,0.0332 0.16564,0.049 0.058,0.0164 0.11628,0.0317 0.17455,0.047 0.0614,0.0161 0.12191,0.0316 0.18346,0.047 0.0647,0.0162 0.1311,0.0316 0.19594,0.047 0.0684,0.0163 0.13634,0.0334 0.20483,0.049 0.0716,0.0163 0.14365,0.032 0.21553,0.047 0.0749,0.0158 0.14928,0.0295 0.22442,0.0433 0.078,0.0144 0.15696,0.0268 0.23511,0.0395 0.0827,0.0136 0.1646,0.0277 0.24759,0.0395 0.0887,0.0127 0.17825,0.0226 0.26717,0.0339 0.0924,0.0119 0.18362,0.0231 0.27609,0.0339 0.0907,0.0107 0.18169,0.0205 0.27252,0.0301 0.0885,0.009 0.17862,0.0168 0.26718,0.0245 0.0874,0.008 0.17426,0.0149 0.26183,0.0207 0.0883,0.006 0.17702,0.01 0.26539,0.0132 0.0898,0.004 0.17903,0.008 0.26895,0.01 0.0907,0.002 0.18178,0.002 0.27252,0.002 0.0752,1.3e-4 0.15098,5.1e-4 0.22622,0 l 0.007,1.19721 c -0.0783,5.3e-4 -0.15677,1.3e-4 -0.23511,0 -0.0981,0 -0.19577,4e-5 -0.2939,-0.002 -0.098,-0.002 -0.19593,-0.007 -0.29389,-0.0113 -0.0957,-0.005 -0.19291,-0.009 -0.28855,-0.015 -0.0946,-0.006 -0.18876,-0.013 -0.28321,-0.0207 -0.0945,-0.008 -0.18879,-0.0166 -0.2832,-0.0263 -0.096,-0.01 -0.19272,-0.0207 -0.28855,-0.032 -0.0962,-0.0113 -0.19072,-0.0217 -0.28677,-0.0339 -0.0943,-0.012 -0.18908,-0.026 -0.28321,-0.0395 -0.0896,-0.0128 -0.17958,-0.0249 -0.26895,-0.0395 -0.0856,-0.014 -0.17113,-0.0295 -0.25649,-0.0452 -0.0836,-0.0154 -0.16789,-0.0314 -0.25115,-0.049 -0.0779,-0.0163 -0.15572,-0.0332 -0.23333,-0.0508 -0.0723,-0.0164 -0.1433,-0.0318 -0.21553,-0.049 -0.0688,-0.0164 -0.13803,-0.0336 -0.20661,-0.0508 -0.066,-0.0165 -0.13187,-0.0335 -0.19771,-0.0508 -0.0647,-0.0171 -0.12967,-0.0344 -0.19415,-0.0527 -0.064,-0.0182 -0.12702,-0.0367 -0.19058,-0.0565 -0.0627,-0.0195 -0.12653,-0.0391 -0.18881,-0.0602 -0.0605,-0.0203 -0.11953,-0.0413 -0.1799,-0.0621 -0.0626,-0.0216 -0.1267,-0.0429 -0.1888,-0.0659 -0.0605,-0.0224 -0.11999,-0.0456 -0.1799,-0.0697 -0.0561,-0.0225 -0.11171,-0.046 -0.16743,-0.0697 -0.0532,-0.0224 -0.10563,-0.0445 -0.15853,-0.0677 -0.0498,-0.0218 -0.0999,-0.0438 -0.14961,-0.0659 -0.0504,-0.0225 -0.10134,-0.0442 -0.15141,-0.0678 -0.0502,-0.0237 -0.10018,-0.0479 -0.14961,-0.0734 -0.0472,-0.0243 -0.0941,-0.0498 -0.14072,-0.0753 -0.046,-0.0251 -0.0917,-0.051 -0.13715,-0.0772 -0.0429,-0.0247 -0.0855,-0.0486 -0.12824,-0.0734 -0.042,-0.0245 -0.0845,-0.0491 -0.12647,-0.0734 -0.0401,-0.0233 -0.0807,-0.0468 -0.12112,-0.0697 -0.0416,-0.0236 -0.0833,-0.0476 -0.12468,-0.0715 -0.0384,-0.0221 -0.0756,-0.0441 -0.11399,-0.0659 -0.0378,-0.0216 -0.0761,-0.0426 -0.114,-0.064 -0.0394,-0.0223 -0.0782,-0.0454 -0.11755,-0.0678 -0.0373,-0.0212 -0.0746,-0.0412 -0.11222,-0.0621 -0.0357,-0.0197 -0.0725,-0.0396 -0.10865,-0.0584 -0.0345,-0.018 -0.0685,-0.0356 -0.10331,-0.0527 -0.0316,-0.0156 -0.0641,-0.0307 -0.0962,-0.0452 -0.0341,-0.0153 -0.0672,-0.0305 -0.10153,-0.0452 -0.0294,-0.0126 -0.0592,-0.0243 -0.0891,-0.0358 -0.0279,-0.0108 -0.0554,-0.0205 -0.0837,-0.0302 -0.0355,-0.0118 -0.0714,-0.0239 -0.10688,-0.0358 -0.0335,-0.0113 -0.0679,-0.0228 -0.10153,-0.0339 -0.0336,-0.0111 -0.0677,-0.0229 -0.10152,-0.0339 -0.0331,-0.0108 -0.0648,-0.0214 -0.098,-0.032 -0.0313,-0.0101 -0.0629,-0.0203 -0.0944,-0.0301 -0.0304,-0.01 -0.0605,-0.0186 -0.0908,-0.0282 -0.0273,-0.009 -0.0547,-0.0176 -0.0819,-0.0263 -0.0223,-0.007 -0.0452,-0.014 -0.0677,-0.0207 -0.0195,-0.006 -0.0392,-0.013 -0.0588,-0.0188 -0.0148,-0.005 -0.0296,-0.008 -0.0445,-0.0113 -0.0161,-0.004 -0.0318,-0.007 -0.0481,-0.01 -0.0155,-0.003 -0.0307,-0.007 -0.0463,-0.01 -0.0139,-0.003 -0.0287,-0.004 -0.0428,-0.006 -0.0137,-0.002 -0.0272,-0.005 -0.041,-0.006 l -0.0516,-0.006 c 0.009,4.6e-4 0.0178,5.4e-4 0.0267,0 0.0182,0 0.0355,-0.003 0.0534,-0.006 l -0.17455,-1.18215 c 0.0329,-0.006 0.0665,-0.007 0.0997,-0.008 z" />
    </clipPath>
  </defs>
  <circle
     class="cls-1"
     cx="171.25999"
     cy="260.59"
     r="90.440002"
     id="circle21"
     style="fill:#dcdbdb" />
  <path
     class="cls-2"
     d="m 99.58,281.37 -3.24,1.42 0.32,0.73 -2.86,1.23 -2.07,-4.79 2.86,-1.23 0.31,0.73 7,-3 -0.32,-0.73 2.84,-1.23 1.69,3.9 -3.77,4.92 6.11,0.69 1.69,3.9 -2.8,1.23 -0.32,-0.73 -7,3 0.31,0.73 -2.85,1.23 -2.08,-4.79 2.86,-1.23 0.31,0.73 3.29,-1.42 -5.74,-0.67 z"
     id="path23"
     inkscape:connector-curvature="0"
     style="fill:#6b4fa0" />
  <path
     class="cls-2"
     d="m 102.82,301.73 2.5,-1.86 0.47,0.64 6.08,-4.52 -0.47,-0.64 2.49,-1.85 3.11,4.19 -2.49,1.85 -0.47,-0.64 -6.08,4.52 0.47,0.64 -2.5,1.86 z"
     id="path25"
     inkscape:connector-curvature="0"
     style="fill:#6b4fa0" />
  <path
     class="cls-2"
     d="m 119.74,311.77 -2.05,2.27 0.59,0.53 -2.09,2.31 -3.87,-3.5 2.09,-2.3 0.59,0.53 5.08,-5.63 -0.59,-0.53 2.07,-2.3 3.19,2.88 -1.53,7.12 2.15,-2.39 -0.59,-0.53 2.08,-2.3 3.87,3.5 -2.08,2.3 -0.58,-0.53 -5.08,5.62 0.58,0.53 -2.08,2.31 -3.25,-2.93 z"
     id="path27"
     inkscape:connector-curvature="0"
     style="fill:#6b4fa0" />
  <path
     class="cls-2"
     d="m 136.42,323.73 -1.37,2.73 0.71,0.36 -1.4,2.78 -4.66,-2.33 1.4,-2.78 0.71,0.35 3.4,-6.77 -0.71,-0.36 1.39,-2.76 3.84,1.93 0.41,7.26 1.45,-2.87 -0.71,-0.35 1.39,-2.77 4.66,2.34 -1.39,2.78 -0.71,-0.36 -3.4,6.78 0.7,0.35 -1.39,2.78 -3.91,-2 z"
     id="path29"
     inkscape:connector-curvature="0"
     style="fill:#6b4fa0" />
  <path
     class="cls-2"
     d="m 157.42,334.56 0.12,-0.54 2.91,0.65 -0.8,3.57 -9.48,-2.12 0.68,-3 0.77,0.17 1.65,-7.4 -0.77,-0.17 0.67,-3 9.49,2.12 -0.79,3.55 -2.91,-0.65 0.12,-0.53 -2.26,-0.5 -0.49,2.19 0.52,0.12 0.12,-0.53 2.89,0.64 -0.91,4.09 -2.89,-0.65 0.12,-0.53 -0.53,-0.12 -0.49,2.18 z"
     id="path31"
     inkscape:connector-curvature="0"
     style="fill:#6b4fa0" />
  <path
     class="cls-2"
     d="m 179.41,328.47 h -0.67 l 3.16,7.47 h 0.79 l 0.11,3.11 -5.07,0.18 -0.11,-3.11 h 0.43 l -0.21,-0.62 -3.5,0.12 -0.19,0.64 h 0.43 l 0.11,3.11 -5.06,0.18 -0.1,-3.11 h 0.79 l 2.64,-7.67 h -0.57 l -0.11,-3.1 7,-0.24 z m -2.58,4.41 -0.92,-2.15 -0.76,2.21 z"
     id="path33"
     inkscape:connector-curvature="0"
     style="fill:#6b4fa0" />
  <path
     class="cls-2"
     d="m 195.27,331.01 0.63,2 0.76,-0.24 0.92,3 -5,1.56 -0.92,-3 0.75,-0.24 -2.26,-7.24 -0.76,0.24 -0.92,-3 7.81,-2.44 2.67,1.47 1.24,4 -1.36,2.73 z m 0.8,-3.49 0.27,-0.55 -0.44,-1.41 -0.56,-0.29 -1.72,0.54 0.7,2.26 z"
     id="path35"
     inkscape:connector-curvature="0"
     style="fill:#6b4fa0" />
  <path
     class="cls-2"
     d="m 206.14,317.32 4.93,-3.1 2.95,0.74 5,7.94 -0.61,3 -4.92,3.11 -3,-0.74 -5,-7.94 z m 4.94,0.55 -1.64,1 -0.12,0.61 3.57,5.67 0.6,0.13 1.63,-1 0.12,-0.58 -3.57,-5.67 z"
     id="path37"
     inkscape:connector-curvature="0"
     style="fill:#6b4fa0" />
  <path
     class="cls-2"
     d="m 228.82,313.01 1.62,-1.74 -0.6,-0.57 2,-2.17 2.88,2.68 -6.68,7.15 -2.24,-2.09 0.54,-0.58 -5.54,-5.17 -0.54,0.58 -2.26,-2.11 3.55,-3.82 2.27,2.12 -0.54,0.57 z"
     id="path39"
     inkscape:connector-curvature="0"
     style="fill:#6b4fa0" />
  <path
     class="cls-2"
     d="m 240.34,303.47 -2.69,-1.57 0.4,-0.69 -6.54,-3.83 -0.4,0.68 -2.67,-1.56 2.64,-4.5 2.67,1.56 -0.4,0.68 6.54,3.84 0.4,-0.68 2.68,1.57 z"
     id="path41"
     inkscape:connector-curvature="0"
     style="fill:#6b4fa0" />
  <path
     class="cls-2"
     d="m 242.87,286.52 -2.73,1.35 -3.88,-1.22 -1.47,-2.67 1.75,-5.55 2.73,-1.35 2.59,0.81 -1.09,3.46 -1.31,-0.41 -0.55,0.26 -0.58,1.85 0.29,0.54 1.33,0.42 0.56,-0.28 1.16,-3.69 2.73,-1.35 3.82,1.2 1.47,2.67 -1.75,5.55 -2.73,1.36 -2.53,-0.8 1.09,-3.46 1.25,0.39 0.54,-0.28 0.58,-1.84 -0.29,-0.53 -1.26,-0.39 -0.55,0.26 z"
     id="path43"
     inkscape:connector-curvature="0"
     style="fill:#6b4fa0" />
  <path
     class="cls-1"
     d="m 0,0 v 117.48 h 45.57 l 10.09,156.53 h 52.28 a 66.22,66.22 0 0 0 126.87,0 h 55.74 l 9.09,-156.53 h 46.82 V 0 Z"
     id="path45"
     inkscape:connector-curvature="0"
     style="fill:#dcdbdb" />
  <path
     class="cls-3"
     d="M 339.56,6.9 H 6.89 v 103.69 h 45.2 l 10.09,156.52 h 51.16 a 59.32,59.32 0 0 0 116.15,0 h 54.55 l 9.09,-156.52 h 46.47 z"
     id="path47"
     inkscape:connector-curvature="0"
     style="fill:#36296d" />
  <path
     class="cls-4"
     d="m 55.34,75.44 -7,7 H 21.08 v -9.92 h 2.63 V 29.06 H 21.08 V 19.2 h 27.26 l 7,7 v 20.9 l -2.91,2.9 2.91,2.9 z M 41.83,29.06 h -6 v 16 h 6 l 1.43,-1.43 v -13.2 z m 0,25.91 h -6 v 17.57 h 10.81 l -3.41,-11 v -5.12 z"
     id="path49"
     inkscape:connector-curvature="0"
     style="fill:#ffffff" />
  <path
     class="cls-4"
     d="m 75.77,72.54 h 7.91 v -2.63 h 9.91 V 82.46 H 61.05 v -9.92 h 2.64 V 29.06 H 61.05 V 19.2 h 17.36 v 9.86 h -2.64 z"
     id="path51"
     inkscape:connector-curvature="0"
     style="fill:#ffffff" />
  <path
     class="cls-4"
     d="m 98.66,82.46 v -9.92 h 2.68 V 29.06 H 98.71 V 19.2 h 17.35 v 9.86 h -2.72 v 43.48 h 2.64 v 9.92 z"
     id="path53"
     inkscape:connector-curvature="0"
     style="fill:#ffffff" />
  <path
     class="cls-4"
     d="m 144.75,72.54 v -2.63 h 9.92 v 12.55 h -32.86 v -8.33 l 17.14,-45.07 h -7.22 v 2.64 h -9.92 V 19.2 h 32.86 v 8.33 l -17.14,45 z"
     id="path55"
     inkscape:connector-curvature="0"
     style="fill:#ffffff" />
  <path
     class="cls-4"
     d="m 183.41,72.54 v -2.63 h 9.93 v 12.55 h -32.87 v -8.33 l 17.14,-45.07 h -7.27 v 2.64 h -9.91 V 19.2 h 32.91 v 8.33 l -17.14,45 z"
     id="path57"
     inkscape:connector-curvature="0"
     style="fill:#ffffff" />
  <path
     class="cls-4"
     d="m 232.88,29.06 h -2.21 l 9.67,43.48 h 2.63 v 9.92 h -16.89 v -9.92 h 1.42 l -0.63,-11.67 h -11.66 l -0.68,11.67 h 1.42 v 9.92 h -16.82 v -9.92 h 2.63 l 9.66,-43.48 h -1.9 V 19.2 h 23.36 z m -8.1,23.43 -3.77,-18.88 -3.44,18.88 z"
     id="path59"
     inkscape:connector-curvature="0"
     style="fill:#ffffff" />
  <path
     class="cls-4"
     d="m 265.34,72.54 v 9.92 h -17.32 v -9.92 h 2.63 V 29.06 h -2.63 V 19.2 h 27.21 l 7,7 v 20.9 l -2.91,2.9 2.91,2.9 v 19.63 h 2.63 v 9.92 H 270.17 V 56.39 l -1.43,-1.42 h -6 v 17.57 z m 3.37,-27.43 1.43,-1.43 v -13.2 l -1.43,-1.42 h -9.23 l 3.22,10.7 v 5.35 z"
     id="path61"
     inkscape:connector-curvature="0"
     style="fill:#ffffff" />
  <path
     class="cls-4"
     d="m 317.85,19.2 7,7 v 49.23 l -7,7 h -27.22 v -9.92 h 2.64 V 29.06 h -2.64 V 19.2 Z m -1.34,53.34 -3.73,-11 v -31 l -1.44,-1.48 h -6 v 43.48 z"
     id="path63"
     inkscape:connector-curvature="0"
     style="fill:#ffffff" />
  <polygon
     class="cls-5"
     points="372.93,366.79 372.93,388.57 385.01,388.57 385.01,366.79 391.02,366.79 392.44,368.21 392.44,388.57 404.52,388.57 404.52,363.94 397.5,356.93 370.29,356.93 370.29,366.79 "
     id="polygon65"
     style="fill:#8accdc"
     transform="translate(-79.66,-337.73)" />
  <path
     class="cls-5"
     d="m 248.02,19.2 v 9.86 h 2.63 v 21.78 h 29.52 l -0.83,-0.83 2.91,-2.9 v -20.9 l -7,-7 z m 22.15,24.48 -1.43,1.43 h -6 v -5.35 l -3.22,-10.7 h 9.23 l 1.43,1.42 z"
     id="path67"
     inkscape:connector-curvature="0"
     style="fill:#8accdc" />
  <polygon
     class="cls-5"
     points="289.18,366.79 291.08,366.79 286.24,388.57 297.54,388.57 300.67,371.34 304.11,388.57 315.16,388.57 310.33,366.79 312.54,366.79 312.54,356.93 289.18,356.93 "
     id="polygon69"
     style="fill:#8accdc"
     transform="translate(-79.66,-337.73)" />
  <polygon
     class="cls-5"
     points="250.04,366.79 257.27,366.79 248.99,388.57 264.11,388.57 272.99,365.26 272.99,356.93 240.13,356.93 240.13,369.43 250.04,369.43 "
     id="polygon71"
     style="fill:#8accdc"
     transform="translate(-79.66,-337.73)" />
  <polygon
     class="cls-5"
     points="211.38,366.79 218.61,366.79 210.33,388.57 225.45,388.57 234.33,365.26 234.33,356.93 201.47,356.93 201.47,369.43 211.38,369.43 "
     id="polygon73"
     style="fill:#8accdc"
     transform="translate(-79.66,-337.73)" />
  <polygon
     class="cls-5"
     points="180.95,388.57 193.03,388.57 193.03,366.79 195.67,366.79 195.67,356.93 178.32,356.93 178.32,366.79 180.95,366.79 "
     id="polygon75"
     style="fill:#8accdc"
     transform="translate(-79.66,-337.73)" />
  <polygon
     class="cls-5"
     points="143.35,388.57 155.43,388.57 155.43,366.79 158.06,366.79 158.06,356.93 140.71,356.93 140.71,366.79 143.35,366.79 "
     id="polygon77"
     style="fill:#8accdc"
     transform="translate(-79.66,-337.73)" />
  <path
     class="cls-5"
     d="m 21.08,19.2 v 9.86 h 2.63 v 21.78 h 29.52 l -0.83,-0.83 2.91,-2.9 v -20.9 l -7,-7 z m 22.15,24.48 -1.43,1.43 h -6 v -16 h 6 l 1.43,1.42 z"
     id="path79"
     inkscape:connector-curvature="0"
     style="fill:#8accdc" />
  <polyline
     class="cls-4"
     points="103.37 366.79 111.18 390.42 103.46 390.42"
     id="polyline81"
     style="fill:#ffffff"
     transform="translate(-79.66,-337.73)" />
  <polyline
     class="cls-4"
     points="143.39 366.9 151.2 390.52 143.47 390.52"
     id="polyline83"
     style="fill:#ffffff"
     transform="translate(-79.66,-337.73)" />
  <polyline
     class="cls-4"
     points="181.05 366.68 188.86 390.31 181.13 390.31"
     id="polyline85"
     style="fill:#ffffff"
     transform="translate(-79.66,-337.73)" />
  <polyline
     class="cls-4"
     points="330.18 367.11 337.99 390.74 330.26 390.74"
     id="polyline87"
     style="fill:#ffffff"
     transform="translate(-79.66,-337.73)" />
  <polyline
     class="cls-4"
     points="372.88 366.68 380.69 390.31 372.96 390.31"
     id="polyline89"
     style="fill:#ffffff"
     transform="translate(-79.66,-337.73)" />
  <polyline
     class="cls-4"
     points="218.6 367 217.39 390.63 209.66 390.63"
     id="polyline91"
     style="fill:#ffffff"
     transform="translate(-79.66,-337.73)" />
  <polyline
     class="cls-4"
     points="257.23 367 256.01 390.63 248.29 390.63"
     id="polyline93"
     style="fill:#ffffff"
     transform="translate(-79.66,-337.73)" />
  <polyline
     class="cls-4"
     points="291.02 366.9 293.67 390.52 285.95 390.52"
     id="polyline95"
     style="fill:#ffffff"
     transform="translate(-79.66,-337.73)" />
  <rect
     class="cls-2"
     x="20.149998"
     y="91.750008"
     width="305.76999"
     height="5.79"
     id="rect97"
     style="fill:#6b4fa0" />
  <rect
     class="cls-4"
     x="69.470001"
     y="186.72002"
     width="204.39"
     height="64.169998"
     id="rect99"
     style="fill:#ffffff" />
  <polyline
     class="cls-4"
     points="149.13 524.45 149.13 515.99 170.88 517.81 199.47 525.11 221.37 520.85 245.83 520.85 245.83 535.45"
     id="polyline101"
     style="fill:#ffffff"
     transform="matrix(1.0965385,0,0,1.0375737,-94.056791,-357.84886)"
     clip-path="url(#clipPath945)" />
  <polyline
     class="cls-4"
     points="353.73 524.45 353.73 515.99 331.43 517.81 302.12 525.11 279.67 520.85 254.6 520.85 254.6 535.45"
     id="polyline103"
     style="fill:#ffffff"
     transform="translate(-79.66,-337.73)" />
  <line
     class="cls-6"
     x1="119.81"
     y1="187.37999"
     x2="138.81"
     y2="201.81999"
     id="line105"
     style="fill:none;stroke:#dcdbdb;stroke-width:3.24000001px;stroke-miterlimit:10" />
  <line
     class="cls-6"
     x1="222.45999"
     y1="187.37999"
     x2="259.66"
     y2="195.33"
     id="line107"
     style="fill:none;stroke:#dcdbdb;stroke-width:3.24000001px;stroke-miterlimit:10" />
  <path
     class="cls-6"
     d="m 69.47,178.27 c 0,0 23.15,0.61 35.92,4.87 12.77,4.26 12.17,6.69 25.55,1.82 13.38,-4.87 37.92,-2.45 37.92,-2.45 0,0 17.1,0.63 24.13,0.63 7.03,0 15.81,0 23.11,3 7.3,3 19.82,-5.48 58,-7.91"
     id="path109"
     inkscape:connector-curvature="0"
     style="fill:none;stroke:#dcdbdb;stroke-width:3.24000001px;stroke-miterlimit:10" />
  <path
     class="cls-7"
     d="m 278.74,225.75 c 0,0 -21.49,8.92 -28,28 h 26.36"
     id="path111"
     inkscape:connector-curvature="0"
     style="fill:#4f2d88" />
  <path
     class="cls-8"
     d="m 159.91,215.2 v 16 h 23.52 v -16 a 20.79,20.79 0 0 0 -23.52,0 z"
     id="path113"
     inkscape:connector-curvature="0"
     style="fill:#59595a" />
  <rect
     style="fill:#ffcc00;fill-opacity:1;stroke:#ffcc00;stroke-width:1.47013;stroke-miterlimit:10;stroke-opacity:1"
     id="rect1273"
     width="3.9262867"
     height="42.281879"
     x="169.40334"
     y="158.25847" />
  <polygon
     class="cls-12"
     points="256.04,520.23 257.67,558.7 244.21,558.7 245.83,520.23 "
     id="polygon123"
     style="fill:#898989"
     transform="matrix(1,0,0,0.54364574,-79.66,-82.764873)" />
  <path
     class="cls-12"
     d="m 164.55,220.97 a 11.54,11.54 0 0 0 13.46,0 l -7.36,-2.93"
     id="path127"
     inkscape:connector-curvature="0"
     style="fill:#898989" />
  <path
     class="cls-4"
     d="m 85.09,165.99 c -0.56,0.85 -0.56,0.85 -1.35,0.33 l -1,-0.65 a 0.26,0.26 0 0 0 -0.14,0 c 0,0.57 -0.1,1.14 -0.11,1.71 a 0.79,0.79 0 0 0 0.22,0.49 c 0.39,0.38 0.8,0.73 1.26,1.13 l -2.24,2.12 -2.21,-2.11 c 0.4,-0.37 0.75,-0.73 1.13,-1.05 a 0.91,0.91 0 0 0 0.36,-0.82 c 0,-0.5 0,-1 0,-1.6 l -2,1.14 -0.63,-0.78 c 0.72,-0.66 1.41,-1.31 2.12,-1.93 a 1,1 0 0 0 0.41,-1 17.89,17.89 0 0 1 0,-2 c -0.81,0.45 -1.56,0.84 -2.29,1.26 -0.09,0.05 -0.12,0.24 -0.16,0.37 -0.2,0.79 -0.43,1.58 -0.57,2.39 -0.1,0.53 -0.33,0.63 -0.79,0.47 -0.09,0 -0.2,0 -0.33,-0.07 v -2.12 c -0.6,0.32 -1.16,0.61 -1.71,0.93 a 0.72,0.72 0 0 0 -0.18,0.36 c -0.15,0.51 -0.28,1 -0.44,1.61 l -3,-0.74 0.76,-2.92 c 0.54,0.13 1,0.28 1.55,0.36 a 1.26,1.26 0 0 0 0.72,-0.1 c 0.48,-0.25 0.92,-0.57 1.44,-0.9 l -2,-1 0.35,-0.93 c 1,0.26 1.94,0.53 2.91,0.75 a 1.15,1.15 0 0 0 0.77,-0.12 c 0.6,-0.32 1.16,-0.71 1.82,-1.13 -0.76,-0.45 -1.45,-0.88 -2.16,-1.28 -0.12,-0.07 -0.34,0 -0.5,0 -0.82,0.23 -1.65,0.46 -2.46,0.73 -0.37,0.12 -0.52,0 -0.66,-0.32 -0.14,-0.32 -0.14,-0.56 0.26,-0.73 0.4,-0.17 1,-0.52 1.54,-0.82 -0.6,-0.36 -1.11,-0.69 -1.65,-1 a 0.78,0.78 0 0 0 -0.5,0 l -1.58,0.43 -0.84,-2.9 2.94,-0.82 c 0.16,0.53 0.29,1 0.48,1.55 a 1,1 0 0 0 0.43,0.52 c 0.46,0.28 1,0.5 1.47,0.77 v -2.16 a 0.21,0.21 0 0 1 0.1,-0.06 c 0.83,-0.18 0.83,-0.18 1.06,0.67 0.17,0.67 0.37,1.34 0.53,2 a 0.92,0.92 0 0 0 0.57,0.68 c 0.61,0.27 1.19,0.59 1.93,1 0,-0.9 0,-1.7 0,-2.5 0,-0.14 -0.17,-0.3 -0.29,-0.41 -0.72,-0.69 -1.45,-1.37 -2.17,-2 0,-0.06 0,-0.1 0,-0.12 0.56,-0.71 0.56,-0.71 1.32,-0.25 l 1.23,0.73 c 0,-0.71 0,-1.31 0,-1.92 a 0.89,0.89 0 0 0 -0.27,-0.42 c -0.36,-0.4 -0.74,-0.79 -1.13,-1.2 l 2.14,-2.06 2.2,2.1 a 10.11,10.11 0 0 1 -0.79,0.71 1.54,1.54 0 0 0 -0.64,1.64 10.66,10.66 0 0 1 0.08,1.08 l 1.89,-1.17 0.61,0.69 c -0.69,0.71 -1.36,1.42 -2,2.1 a 1,1 0 0 0 -0.34,0.83 c 0.06,0.66 0.07,1.32 0.11,2.08 0.77,-0.41 1.49,-0.78 2.19,-1.19 0.13,-0.07 0.19,-0.28 0.23,-0.44 0.2,-0.78 0.41,-1.56 0.56,-2.35 0.09,-0.51 0.32,-0.65 0.78,-0.49 l 0.34,0.07 v 2.06 A 2.59,2.59 0 0 0 89,152.44 l 3.07,0.75 -0.76,2.93 c -0.56,-0.14 -1.06,-0.29 -1.57,-0.37 a 1.26,1.26 0 0 0 -0.72,0.11 c -0.48,0.26 -0.92,0.57 -1.43,0.9 0.54,0.27 1,0.53 1.47,0.72 0.47,0.19 0.57,0.44 0.33,0.87 -0.06,0.1 -0.1,0.21 -0.17,0.35 -1,-0.25 -1.9,-0.53 -2.85,-0.73 a 1.35,1.35 0 0 0 -0.86,0.13 c -0.6,0.33 -1.16,0.72 -1.8,1.12 0.75,0.47 1.45,0.92 2.17,1.34 a 0.7,0.7 0 0 0 0.45,0 l 2.32,-0.64 c 0.67,-0.18 0.67,-0.18 0.91,0.49 0,0.08 0,0.16 0.09,0.28 l -2,1 c 0.57,0.36 1.08,0.7 1.61,1 a 0.86,0.86 0 0 0 0.55,0 c 0.49,-0.12 1,-0.26 1.54,-0.41 l 0.79,2.92 -3,0.78 c -0.15,-0.51 -0.26,-1 -0.44,-1.5 a 1.3,1.3 0 0 0 -0.47,-0.61 c -0.43,-0.28 -0.91,-0.5 -1.43,-0.77 v 2.17 l -0.95,0.16 a 22.85,22.85 0 0 1 -0.6,-2.37 1.66,1.66 0 0 0 -1.12,-1.41 c -0.44,-0.17 -0.84,-0.43 -1.35,-0.69 -0.06,0.89 -0.13,1.71 -0.15,2.54 0,0.12 0.16,0.26 0.27,0.37 z"
     id="path129"
     inkscape:connector-curvature="0"
     style="fill:#ffffff" />
  <path
     class="cls-4"
     d="m 103.14,135.37 c -0.56,0.85 -0.56,0.85 -1.36,0.33 l -1,-0.65 c 0,0 -0.07,0 -0.14,0 0,0.57 -0.1,1.14 -0.11,1.71 a 0.79,0.79 0 0 0 0.22,0.49 c 0.39,0.38 0.8,0.73 1.26,1.14 l -2.25,2.11 -2.21,-2.11 c 0.4,-0.37 0.76,-0.73 1.14,-1.05 a 0.92,0.92 0 0 0 0.36,-0.82 c 0,-0.5 0,-1 0,-1.6 l -2,1.14 -0.63,-0.78 c 0.72,-0.66 1.4,-1.31 2.12,-1.93 a 1,1 0 0 0 0.41,-1 17.74,17.74 0 0 1 0,-1.95 c -0.82,0.44 -1.56,0.83 -2.29,1.25 -0.09,0.05 -0.12,0.24 -0.16,0.37 -0.2,0.79 -0.43,1.59 -0.57,2.39 -0.1,0.53 -0.33,0.63 -0.79,0.47 a 2.19,2.19 0 0 0 -0.33,-0.06 v -2.19 c -0.6,0.32 -1.16,0.61 -1.71,0.93 -0.1,0.06 -0.14,0.23 -0.18,0.36 -0.15,0.51 -0.29,1 -0.44,1.61 l -3,-0.74 0.75,-2.92 c 0.55,0.13 1,0.28 1.56,0.36 a 1.18,1.18 0 0 0 0.72,-0.1 c 0.48,-0.25 0.92,-0.57 1.44,-0.9 l -2,-1 0.39,-0.96 c 1,0.26 1.95,0.54 2.92,0.76 a 1.22,1.22 0 0 0 0.77,-0.13 c 0.59,-0.32 1.16,-0.71 1.82,-1.13 -0.76,-0.45 -1.45,-0.88 -2.16,-1.27 a 0.73,0.73 0 0 0 -0.5,0 c -0.83,0.23 -1.65,0.45 -2.46,0.72 -0.38,0.12 -0.52,0 -0.66,-0.32 -0.14,-0.32 -0.14,-0.55 0.25,-0.73 0.39,-0.18 1,-0.52 1.54,-0.82 -0.59,-0.36 -1.1,-0.69 -1.64,-1 a 0.78,0.78 0 0 0 -0.5,0 l -1.58,0.43 -0.84,-2.89 2.94,-0.83 c 0.16,0.53 0.29,1 0.47,1.55 a 1.14,1.14 0 0 0 0.44,0.53 c 0.46,0.27 0.95,0.49 1.47,0.76 v -2.16 c 0,0 0.05,0 0.09,-0.06 0.84,-0.18 0.84,-0.18 1.06,0.67 0.18,0.67 0.38,1.35 0.54,2 a 0.9,0.9 0 0 0 0.57,0.67 c 0.6,0.28 1.19,0.59 1.93,1 0,-0.9 0,-1.7 0,-2.5 0,-0.14 -0.17,-0.3 -0.29,-0.41 -0.72,-0.69 -1.45,-1.37 -2.17,-2 0,-0.06 0,-0.1 0,-0.12 0.55,-0.71 0.55,-0.71 1.32,-0.24 l 1.22,0.72 c 0,-0.71 0,-1.31 0,-1.92 0,-0.14 -0.16,-0.29 -0.27,-0.42 -0.37,-0.4 -0.74,-0.79 -1.14,-1.2 l 2.15,-2.06 2.2,2.1 c -0.28,0.25 -0.51,0.51 -0.79,0.72 a 1.52,1.52 0 0 0 -0.64,1.63 c 0.05,0.33 0.05,0.66 0.08,1.08 l 1.86,-1.13 0.62,0.69 c -0.69,0.71 -1.36,1.42 -2.05,2.11 a 0.93,0.93 0 0 0 -0.34,0.82 c 0.05,0.66 0.07,1.33 0.1,2.09 0.78,-0.42 1.5,-0.79 2.2,-1.2 0.13,-0.07 0.19,-0.28 0.23,-0.44 0.2,-0.78 0.41,-1.56 0.55,-2.35 0.1,-0.51 0.33,-0.64 0.79,-0.49 l 0.34,0.08 v 2.09 a 2.6,2.6 0 0 0 2.23,-2.83 l 3.06,0.75 -0.75,2.93 c -0.56,-0.13 -1.06,-0.28 -1.57,-0.37 a 1.31,1.31 0 0 0 -0.73,0.11 c -0.47,0.26 -0.91,0.57 -1.42,0.9 0.54,0.27 1,0.54 1.47,0.72 0.47,0.18 0.57,0.44 0.33,0.87 -0.06,0.1 -0.1,0.21 -0.17,0.35 -1,-0.25 -1.9,-0.52 -2.85,-0.73 a 1.39,1.39 0 0 0 -0.87,0.13 c -0.6,0.33 -1.16,0.72 -1.79,1.12 0.75,0.47 1.45,0.92 2.17,1.34 a 0.67,0.67 0 0 0 0.44,0 l 2.33,-0.64 c 0.67,-0.18 0.67,-0.18 0.91,0.49 a 2.55,2.55 0 0 1 0.08,0.28 l -2,1 c 0.57,0.36 1.08,0.7 1.61,1 a 0.93,0.93 0 0 0 0.55,0 c 0.49,-0.11 1,-0.26 1.54,-0.41 l 0.79,2.92 -3,0.78 c -0.14,-0.51 -0.25,-1 -0.43,-1.5 a 1.36,1.36 0 0 0 -0.37,-0.61 c -0.44,-0.28 -0.91,-0.5 -1.43,-0.77 v 2.19 l -1,0.16 c -0.2,-0.79 -0.47,-1.57 -0.6,-2.37 a 1.63,1.63 0 0 0 -1.11,-1.41 c -0.44,-0.17 -0.84,-0.43 -1.36,-0.69 -0.05,0.89 -0.12,1.71 -0.15,2.54 0,0.12 0.17,0.26 0.27,0.37 z"
     id="path131"
     inkscape:connector-curvature="0"
     style="fill:#ffffff" />
  <path
     class="cls-4"
     d="m 107.34,157.6 c -0.35,0.52 -0.35,0.52 -0.85,0.2 l -0.63,-0.41 h -0.09 c 0,0.36 -0.06,0.71 -0.07,1.07 a 0.49,0.49 0 0 0 0.14,0.3 c 0.24,0.24 0.5,0.46 0.79,0.72 l -1.4,1.32 -1.39,-1.32 c 0.25,-0.23 0.48,-0.46 0.71,-0.66 a 0.57,0.57 0 0 0 0.23,-0.51 c 0,-0.31 0,-0.62 0,-1 l -1.23,0.72 -0.39,-0.49 c 0.45,-0.42 0.87,-0.82 1.32,-1.21 a 0.65,0.65 0 0 0 0.25,-0.61 c 0,-0.38 0,-0.77 0,-1.23 l -1.39,0.78 c -0.06,0 -0.07,0.15 -0.1,0.24 -0.12,0.49 -0.27,1 -0.36,1.49 0,0.33 -0.2,0.39 -0.48,0.29 h -0.21 v -1.36 c -0.38,0.2 -0.73,0.38 -1.07,0.58 a 0.38,0.38 0 0 0 -0.11,0.22 c -0.1,0.33 -0.18,0.65 -0.28,1 l -1.84,-0.46 0.46,-1.83 c 0.35,0.08 0.66,0.18 1,0.23 a 0.78,0.78 0 0 0 0.45,-0.07 c 0.29,-0.15 0.57,-0.35 0.9,-0.55 l -1.25,-0.64 0.22,-0.58 c 0.62,0.16 1.21,0.33 1.82,0.47 a 0.74,0.74 0 0 0 0.48,-0.08 c 0.37,-0.2 0.72,-0.44 1.13,-0.7 -0.47,-0.29 -0.9,-0.56 -1.34,-0.8 a 0.48,0.48 0 0 0 -0.31,0 c -0.52,0.14 -1,0.28 -1.54,0.45 -0.24,0.08 -0.33,0 -0.41,-0.2 -0.08,-0.2 -0.09,-0.35 0.16,-0.45 0.25,-0.1 0.61,-0.33 1,-0.52 -0.37,-0.22 -0.69,-0.43 -1,-0.61 a 0.47,0.47 0 0 0 -0.31,0 l -1,0.27 -0.52,-1.81 1.83,-0.52 c 0.1,0.34 0.18,0.66 0.3,1 a 0.67,0.67 0 0 0 0.27,0.33 c 0.29,0.17 0.59,0.31 0.92,0.47 v -1.34 a 0.15,0.15 0 0 1 0.06,0 c 0.52,-0.11 0.52,-0.11 0.66,0.42 0.14,0.53 0.23,0.84 0.33,1.26 a 0.55,0.55 0 0 0 0.36,0.42 l 1.21,0.6 c 0,-0.56 0,-1.06 0,-1.56 0,-0.09 -0.11,-0.18 -0.18,-0.25 l -1.36,-1.28 c 0,0 0,-0.06 0,-0.07 0.35,-0.45 0.35,-0.45 0.83,-0.16 l 0.76,0.46 c 0,-0.44 0,-0.82 0,-1.2 0,-0.09 -0.1,-0.19 -0.17,-0.26 l -0.71,-0.76 1.35,-1.28 1.37,1.31 c -0.18,0.16 -0.32,0.32 -0.5,0.45 a 1,1 0 0 0 -0.4,1 5.93,5.93 0 0 1 0.06,0.68 l 1.17,-0.74 0.38,0.43 c -0.43,0.45 -0.84,0.89 -1.28,1.32 a 0.59,0.59 0 0 0 -0.21,0.51 c 0,0.42 0,0.83 0.07,1.31 l 1.37,-0.75 c 0.08,0 0.12,-0.18 0.14,-0.28 0.13,-0.48 0.26,-1 0.35,-1.46 0.06,-0.32 0.2,-0.41 0.49,-0.31 l 0.21,0.05 v 1.3 a 1.6,1.6 0 0 0 1.39,-1.76 l 1.92,0.47 -0.47,1.83 c -0.35,-0.09 -0.66,-0.18 -1,-0.23 a 0.73,0.73 0 0 0 -0.46,0.07 9.09,9.09 0 0 0 -0.88,0.56 c 0.33,0.16 0.61,0.33 0.91,0.45 0.3,0.12 0.36,0.27 0.21,0.54 a 1.5,1.5 0 0 0 -0.11,0.22 c -0.6,-0.16 -1.18,-0.33 -1.78,-0.46 a 0.78,0.78 0 0 0 -0.54,0.09 c -0.37,0.2 -0.72,0.44 -1.12,0.69 0.47,0.29 0.91,0.58 1.36,0.84 0.06,0 0.19,0 0.27,0 l 1.46,-0.4 c 0.41,-0.12 0.41,-0.12 0.56,0.3 0,0.05 0,0.1 0.06,0.18 l -1.23,0.64 c 0.36,0.23 0.68,0.44 1,0.62 a 0.5,0.5 0 0 0 0.34,0 l 1,-0.25 0.49,1.82 -1.84,0.49 c -0.09,-0.32 -0.16,-0.63 -0.28,-0.94 a 0.83,0.83 0 0 0 -0.43,-0.45 c -0.27,-0.18 -0.57,-0.31 -0.89,-0.48 v 1.37 l -0.6,0.1 c -0.13,-0.5 -0.29,-1 -0.37,-1.48 a 1,1 0 0 0 -0.7,-0.88 c -0.28,-0.11 -0.53,-0.27 -0.85,-0.43 0,0.55 -0.07,1.07 -0.09,1.58 0,0.08 0.1,0.16 0.17,0.23 z"
     id="path133"
     inkscape:connector-curvature="0"
     style="fill:#ffffff" />
  <path
     class="cls-4"
     d="m 102.64,174.44 c -0.27,0.41 -0.27,0.41 -0.66,0.16 l -0.5,-0.32 h -0.06 c 0,0.28 -0.05,0.56 -0.06,0.84 a 0.34,0.34 0 0 0 0.11,0.23 c 0.19,0.19 0.39,0.36 0.61,0.56 l -1.09,1 -1.08,-1 0.55,-0.51 a 0.45,0.45 0 0 0 0.18,-0.4 c 0,-0.24 0,-0.49 0,-0.78 l -1,0.56 -0.3,-0.39 c 0.35,-0.32 0.68,-0.64 1,-0.94 a 0.47,0.47 0 0 0 0.2,-0.48 c 0,-0.3 0,-0.6 0,-1 l -1.11,0.61 c 0,0 -0.07,0.12 -0.08,0.18 -0.1,0.39 -0.21,0.78 -0.28,1.17 -0.07,0.39 -0.16,0.31 -0.39,0.23 h -0.16 v -1.07 c -0.29,0.16 -0.57,0.3 -0.83,0.46 -0.05,0 -0.07,0.11 -0.09,0.17 -0.08,0.25 -0.14,0.51 -0.22,0.79 l -1.44,-0.36 0.36,-1.43 c 0.27,0.06 0.52,0.14 0.77,0.18 a 0.6,0.6 0 0 0 0.35,-0.05 c 0.23,-0.13 0.45,-0.28 0.7,-0.44 l -1,-0.5 0.17,-0.45 c 0.48,0.12 0.95,0.26 1.42,0.36 a 0.62,0.62 0 0 0 0.38,-0.05 c 0.29,-0.16 0.56,-0.35 0.89,-0.56 -0.37,-0.22 -0.71,-0.43 -1.06,-0.62 -0.06,0 -0.16,0 -0.24,0 -0.41,0.12 -0.81,0.23 -1.21,0.36 -0.18,0.06 -0.25,0 -0.32,-0.16 -0.07,-0.16 -0.07,-0.27 0.13,-0.36 0.2,-0.09 0.47,-0.25 0.75,-0.4 -0.29,-0.17 -0.54,-0.33 -0.8,-0.47 a 0.36,0.36 0 0 0 -0.25,0 l -0.77,0.21 -0.41,-1.42 1.44,-0.4 c 0.07,0.26 0.14,0.52 0.23,0.76 a 0.53,0.53 0 0 0 0.21,0.26 c 0.22,0.13 0.46,0.24 0.72,0.37 v -1.07 c 0.41,-0.09 0.41,-0.09 0.52,0.32 0.11,0.41 0.19,0.66 0.26,1 a 0.45,0.45 0 0 0 0.28,0.33 l 0.95,0.47 c 0,-0.44 0,-0.83 0,-1.22 0,-0.07 -0.08,-0.15 -0.14,-0.2 l -1.06,-1 c 0,0 0,-0.05 0,-0.06 0.27,-0.34 0.27,-0.34 0.65,-0.12 l 0.6,0.36 c 0,-0.35 0,-0.64 0,-0.94 0,-0.07 -0.08,-0.15 -0.13,-0.21 l -0.56,-0.58 1.05,-1 1.08,1 c -0.14,0.12 -0.25,0.25 -0.39,0.35 a 0.74,0.74 0 0 0 -0.31,0.8 c 0,0.16 0,0.32 0,0.52 l 0.92,-0.57 0.3,0.34 -1,1 a 0.47,0.47 0 0 0 -0.17,0.4 c 0,0.32 0,0.65 0.05,1 l 1.08,-0.58 a 0.38,0.38 0 0 0 0.11,-0.22 c 0.09,-0.38 0.2,-0.76 0.27,-1.15 0.07,-0.39 0.16,-0.31 0.38,-0.24 h 0.17 v 1 a 1.26,1.26 0 0 0 1.09,-1.38 l 1.5,0.37 -0.37,1.43 c -0.28,-0.07 -0.52,-0.14 -0.77,-0.18 a 0.6,0.6 0 0 0 -0.35,0 c -0.24,0.13 -0.45,0.28 -0.7,0.44 a 7.84,7.84 0 0 0 0.72,0.35 c 0.23,0.09 0.28,0.22 0.16,0.43 a 1.38,1.38 0 0 0 -0.08,0.17 c -0.47,-0.12 -0.93,-0.26 -1.4,-0.36 a 0.62,0.62 0 0 0 -0.42,0.07 c -0.29,0.16 -0.57,0.35 -0.88,0.55 l 1.06,0.65 a 0.34,0.34 0 0 0 0.22,0 l 1.14,-0.31 c 0.32,-0.09 0.32,-0.09 0.44,0.23 a 0.47,0.47 0 0 1 0,0.14 l -1,0.51 c 0.28,0.17 0.52,0.34 0.78,0.48 a 0.42,0.42 0 0 0 0.27,0 l 0.76,-0.19 0.38,1.42 -1.44,0.38 c -0.07,-0.25 -0.13,-0.49 -0.21,-0.73 a 0.76,0.76 0 0 0 -0.23,-0.3 c -0.22,-0.14 -0.45,-0.24 -0.7,-0.38 v 1.07 l -0.47,0.08 c -0.1,-0.39 -0.23,-0.77 -0.29,-1.16 a 0.81,0.81 0 0 0 -0.55,-0.69 6.75,6.75 0 0 1 -0.66,-0.33 c 0,0.43 -0.06,0.84 -0.07,1.24 0,0.06 0.08,0.13 0.13,0.18 z"
     id="path135"
     inkscape:connector-curvature="0"
     style="fill:#ffffff" />
  <path
     class="cls-4"
     d="m 78.49,136.89 c -0.41,0.61 -0.4,0.6 -1,0.23 l -0.73,-0.47 h -0.1 c 0,0.41 -0.07,0.82 -0.08,1.23 a 0.52,0.52 0 0 0 0.16,0.35 c 0.28,0.28 0.58,0.53 0.9,0.83 l -1.61,1.52 -1.6,-1.52 c 0.29,-0.27 0.55,-0.53 0.82,-0.76 a 0.64,0.64 0 0 0 0.26,-0.59 c 0,-0.36 0,-0.72 0,-1.16 l -1.42,0.83 -0.45,-0.57 c 0.52,-0.47 1,-0.94 1.52,-1.38 a 0.74,0.74 0 0 0 0.3,-0.72 13.07,13.07 0 0 1 0,-1.41 c -0.59,0.32 -1.13,0.6 -1.65,0.9 -0.07,0 -0.09,0.17 -0.12,0.27 -0.14,0.57 -0.31,1.14 -0.41,1.73 -0.07,0.38 -0.24,0.45 -0.57,0.33 h -0.24 v -1.58 c -0.43,0.23 -0.84,0.44 -1.23,0.67 -0.07,0 -0.11,0.17 -0.13,0.26 -0.11,0.37 -0.21,0.75 -0.32,1.16 l -2.13,-0.53 0.54,-2.11 c 0.39,0.1 0.75,0.2 1.12,0.26 a 0.84,0.84 0 0 0 0.52,-0.07 c 0.35,-0.18 0.66,-0.41 1,-0.65 l -1.44,-0.73 0.25,-0.68 c 0.72,0.19 1.41,0.39 2.1,0.55 a 0.84,0.84 0 0 0 0.56,-0.09 c 0.43,-0.24 0.84,-0.51 1.31,-0.82 -0.54,-0.32 -1,-0.63 -1.55,-0.92 a 0.51,0.51 0 0 0 -0.36,0 c -0.6,0.16 -1.2,0.32 -1.78,0.52 -0.27,0.09 -0.37,0 -0.47,-0.23 -0.1,-0.23 -0.11,-0.4 0.18,-0.53 0.29,-0.13 0.7,-0.37 1.11,-0.59 -0.43,-0.26 -0.8,-0.5 -1.19,-0.71 a 0.56,0.56 0 0 0 -0.36,0 c -0.37,0.09 -0.73,0.2 -1.14,0.31 l -0.6,-2.09 2.12,-0.6 c 0.11,0.39 0.2,0.77 0.34,1.13 a 0.8,0.8 0 0 0 0.31,0.37 c 0.33,0.2 0.69,0.36 1.06,0.55 v -1.55 a 0.12,0.12 0 0 1 0.07,0 c 0.61,-0.13 0.6,-0.13 0.77,0.48 0.17,0.61 0.27,1 0.38,1.46 a 0.7,0.7 0 0 0 0.41,0.49 c 0.44,0.19 0.86,0.42 1.4,0.69 0,-0.65 0,-1.23 0,-1.81 a 0.57,0.57 0 0 0 -0.21,-0.29 l -1.56,-1.47 a 0.2,0.2 0 0 1 0,-0.09 c 0.41,-0.51 0.41,-0.51 1,-0.18 l 0.88,0.53 c 0,-0.51 0,-0.95 0,-1.39 0,-0.1 -0.11,-0.21 -0.19,-0.3 l -0.82,-0.87 1.55,-1.49 1.58,1.52 c -0.2,0.18 -0.37,0.37 -0.57,0.52 a 1.12,1.12 0 0 0 -0.46,1.18 7.78,7.78 0 0 1 0.06,0.78 l 1.36,-0.85 0.44,0.5 c -0.5,0.51 -1,1 -1.48,1.52 a 0.69,0.69 0 0 0 -0.24,0.59 c 0,0.48 0.05,1 0.07,1.51 0.56,-0.3 1.08,-0.57 1.59,-0.86 0.09,-0.05 0.13,-0.21 0.16,-0.32 0.15,-0.57 0.3,-1.13 0.4,-1.7 0.07,-0.36 0.23,-0.46 0.57,-0.35 l 0.24,0.05 v 1.51 a 1.87,1.87 0 0 0 1.61,-2 l 2.21,0.55 -0.54,2.11 c -0.4,-0.1 -0.77,-0.21 -1.13,-0.27 a 1,1 0 0 0 -0.53,0.08 c -0.34,0.18 -0.66,0.41 -1,0.65 0.38,0.19 0.71,0.39 1.05,0.52 0.34,0.13 0.42,0.32 0.24,0.62 l -0.12,0.26 c -0.69,-0.18 -1.37,-0.38 -2.06,-0.53 a 1,1 0 0 0 -0.62,0.1 c -0.43,0.23 -0.84,0.52 -1.29,0.81 0.54,0.33 1,0.66 1.56,1 0.08,0.05 0.22,0 0.32,0 l 1.68,-0.45 c 0.48,-0.14 0.48,-0.14 0.66,0.35 0,0.05 0,0.11 0.06,0.2 l -1.42,0.74 c 0.42,0.26 0.78,0.51 1.17,0.72 a 0.58,0.58 0 0 0 0.39,0 c 0.36,-0.08 0.71,-0.18 1.12,-0.29 l 0.57,2.11 -2.13,0.56 c -0.11,-0.37 -0.19,-0.74 -0.32,-1.09 a 1,1 0 0 0 -0.34,-0.44 c -0.31,-0.2 -0.66,-0.35 -1,-0.55 v 1.58 l -0.69,0.12 c -0.15,-0.58 -0.34,-1.14 -0.43,-1.72 a 1.16,1.16 0 0 0 -0.81,-1 c -0.31,-0.12 -0.6,-0.31 -1,-0.5 0,0.64 -0.09,1.24 -0.11,1.83 0,0.09 0.12,0.19 0.19,0.27 z"
     id="path137"
     inkscape:connector-curvature="0"
     style="fill:#ffffff" />
  <path
     class="cls-4"
     d="m 79.25,112.01 c -0.29,0.44 -0.29,0.44 -0.71,0.17 L 78,111.84 h -0.07 c 0,0.3 -0.05,0.6 -0.06,0.9 a 0.45,0.45 0 0 0 0.12,0.26 c 0.2,0.2 0.42,0.38 0.66,0.6 l -1.18,1.11 -1.13,-1.12 0.6,-0.56 a 0.47,0.47 0 0 0 0.19,-0.43 c 0,-0.26 0,-0.52 0,-0.84 l -1,0.6 -0.33,-0.41 c 0.38,-0.35 0.74,-0.69 1.12,-1 a 0.53,0.53 0 0 0 0.21,-0.52 c 0,-0.32 0,-0.65 0,-1 -0.43,0.23 -0.82,0.44 -1.2,0.66 -0.05,0 -0.07,0.12 -0.09,0.19 -0.1,0.42 -0.23,0.84 -0.3,1.27 -0.05,0.27 -0.18,0.33 -0.42,0.24 h -0.17 v -1.16 l -0.9,0.5 a 0.35,0.35 0 0 0 -0.1,0.19 c -0.08,0.27 -0.15,0.54 -0.23,0.85 l -1.56,-0.4 0.4,-1.54 c 0.28,0.07 0.55,0.15 0.82,0.2 a 0.63,0.63 0 0 0 0.38,-0.06 c 0.25,-0.13 0.48,-0.3 0.76,-0.47 l -1.18,-0.63 0.19,-0.49 c 0.52,0.14 1,0.28 1.54,0.4 a 0.57,0.57 0 0 0 0.4,-0.07 c 0.32,-0.17 0.61,-0.37 1,-0.59 -0.4,-0.24 -0.76,-0.47 -1.13,-0.68 a 0.51,0.51 0 0 0 -0.27,0 c -0.44,0.12 -0.87,0.24 -1.3,0.38 -0.2,0.07 -0.27,0 -0.35,-0.17 -0.08,-0.17 -0.07,-0.29 0.14,-0.38 0.21,-0.09 0.51,-0.28 0.81,-0.44 -0.31,-0.19 -0.58,-0.36 -0.87,-0.51 a 0.39,0.39 0 0 0 -0.26,0 l -0.83,0.23 -0.45,-1.53 1.55,-0.43 c 0.09,0.28 0.16,0.55 0.25,0.82 a 0.67,0.67 0 0 0 0.23,0.27 7.11,7.11 0 0 0 0.78,0.4 v -1.13 c 0,0 0,0 0.05,0 0.44,-0.1 0.44,-0.1 0.56,0.35 0.12,0.45 0.2,0.71 0.28,1.07 a 0.47,0.47 0 0 0 0.3,0.35 l 1,0.51 c 0,-0.48 0,-0.9 0,-1.32 0,-0.08 -0.08,-0.16 -0.15,-0.22 l -1.14,-1.07 a 0.15,0.15 0 0 1 0,-0.07 c 0.29,-0.37 0.29,-0.37 0.7,-0.12 l 0.64,0.38 c 0,-0.38 0,-0.7 0,-1 a 0.54,0.54 0 0 0 -0.15,-0.23 l -0.59,-0.63 1.13,-1.09 1.16,1.11 c -0.15,0.13 -0.27,0.27 -0.42,0.38 a 0.81,0.81 0 0 0 -0.34,0.86 c 0,0.17 0,0.35 0.05,0.57 l 1,-0.62 0.32,0.37 c -0.36,0.37 -0.71,0.75 -1.08,1.11 a 0.5,0.5 0 0 0 -0.18,0.43 c 0,0.35 0,0.7 0.06,1.1 0.41,-0.22 0.79,-0.41 1.16,-0.63 0.06,0 0.1,-0.15 0.12,-0.23 0.1,-0.41 0.21,-0.82 0.29,-1.24 0.05,-0.27 0.17,-0.34 0.41,-0.26 h 0.18 v 1.11 a 1.37,1.37 0 0 0 1.18,-1.5 l 1.62,0.4 -0.4,1.55 c -0.3,-0.08 -0.56,-0.15 -0.83,-0.2 a 0.63,0.63 0 0 0 -0.38,0.06 c -0.25,0.13 -0.48,0.3 -0.75,0.47 a 7.78,7.78 0 0 0 0.77,0.38 c 0.25,0.1 0.3,0.24 0.18,0.46 a 0.67,0.67 0 0 0 -0.09,0.19 c -0.51,-0.14 -1,-0.28 -1.51,-0.39 a 0.71,0.71 0 0 0 -0.45,0.07 c -0.32,0.17 -0.62,0.38 -0.95,0.59 0.39,0.25 0.77,0.49 1.15,0.71 a 0.37,0.37 0 0 0 0.23,0 l 1.23,-0.34 c 0.35,-0.1 0.35,-0.1 0.48,0.26 v 0.15 l -1,0.54 c 0.3,0.19 0.57,0.37 0.85,0.52 a 0.36,0.36 0 0 0 0.29,0 c 0.26,-0.05 0.51,-0.13 0.81,-0.21 l 0.42,1.54 -1.56,0.41 c -0.08,-0.27 -0.13,-0.53 -0.23,-0.79 a 0.72,0.72 0 0 0 -0.25,-0.32 c -0.23,-0.15 -0.48,-0.26 -0.75,-0.41 v 1.16 l -0.51,0.08 a 11.4,11.4 0 0 1 -0.31,-1.25 0.85,0.85 0 0 0 -0.59,-0.74 c -0.23,-0.09 -0.45,-0.23 -0.72,-0.37 0,0.47 -0.06,0.91 -0.08,1.34 0,0.07 0.09,0.14 0.15,0.2 z"
     id="path139"
     inkscape:connector-curvature="0"
     style="fill:#ffffff" />
  <path
     class="cls-4"
     d="m 102.14,106.52 c -0.46,0.68 -0.46,0.68 -1.11,0.26 l -0.82,-0.53 h -0.11 c 0,0.46 -0.08,0.92 -0.09,1.39 a 0.59,0.59 0 0 0 0.18,0.39 c 0.31,0.31 0.65,0.6 1,0.93 l -1.82,1.71 -1.79,-1.71 c 0.32,-0.3 0.61,-0.59 0.92,-0.85 a 0.74,0.74 0 0 0 0.29,-0.66 c 0,-0.41 0,-0.82 0,-1.31 l -1.59,0.93 -0.51,-0.63 c 0.58,-0.54 1.14,-1.06 1.72,-1.56 a 0.86,0.86 0 0 0 0.33,-0.81 13.71,13.71 0 0 1 0,-1.59 c -0.66,0.36 -1.26,0.68 -1.85,1 -0.08,0 -0.1,0.19 -0.13,0.3 -0.16,0.65 -0.35,1.29 -0.47,1.94 -0.07,0.43 -0.26,0.51 -0.63,0.38 a 1.86,1.86 0 0 0 -0.27,0 v -1.83 c -0.49,0.27 -0.94,0.5 -1.39,0.76 -0.08,0.05 -0.12,0.19 -0.15,0.29 -0.12,0.42 -0.23,0.84 -0.35,1.31 l -2.4,-0.6 0.61,-2.37 c 0.44,0.11 0.85,0.23 1.26,0.29 a 1,1 0 0 0 0.59,-0.08 c 0.38,-0.2 0.74,-0.46 1.16,-0.73 l -1.61,-0.82 0.28,-0.76 c 0.8,0.21 1.58,0.43 2.36,0.61 a 0.9,0.9 0 0 0 0.62,-0.1 c 0.49,-0.26 0.95,-0.58 1.48,-0.91 -0.61,-0.37 -1.17,-0.72 -1.75,-1 -0.1,-0.06 -0.27,0 -0.4,0 -0.67,0.19 -1.34,0.37 -2,0.59 -0.3,0.1 -0.42,0 -0.53,-0.26 -0.11,-0.26 -0.12,-0.45 0.2,-0.59 0.32,-0.14 0.8,-0.42 1.25,-0.67 -0.48,-0.29 -0.9,-0.55 -1.33,-0.79 a 0.72,0.72 0 0 0 -0.41,0 c -0.41,0.1 -0.82,0.22 -1.28,0.35 l -0.68,-2.35 2.38,-0.67 c 0.13,0.43 0.24,0.86 0.39,1.26 a 0.9,0.9 0 0 0 0.35,0.42 c 0.37,0.23 0.77,0.41 1.19,0.62 v -1.74 c 0,0 0,-0.05 0.08,-0.05 0.68,-0.15 0.68,-0.15 0.86,0.54 0.14,0.54 0.3,1.09 0.43,1.64 a 0.75,0.75 0 0 0 0.47,0.55 c 0.49,0.22 1,0.48 1.56,0.78 0,-0.74 0,-1.39 0,-2 0,-0.11 -0.13,-0.23 -0.23,-0.33 l -1.76,-1.65 a 0.56,0.56 0 0 1 0,-0.1 c 0.45,-0.57 0.45,-0.57 1.07,-0.19 l 1,0.58 c 0,-0.57 0,-1.06 0,-1.55 a 0.71,0.71 0 0 0 -0.22,-0.34 c -0.3,-0.33 -0.61,-0.64 -0.93,-1 l 1.75,-1.67 1.78,1.7 a 8.19,8.19 0 0 1 -0.64,0.58 1.23,1.23 0 0 0 -0.52,1.33 c 0,0.27 0,0.54 0.07,0.88 l 1.52,-1 0.5,0.57 c -0.56,0.57 -1.1,1.15 -1.66,1.7 a 0.8,0.8 0 0 0 -0.28,0.67 c 0.05,0.54 0.06,1.08 0.09,1.69 0.63,-0.33 1.21,-0.63 1.78,-1 0.1,-0.06 0.15,-0.23 0.19,-0.36 0.16,-0.64 0.33,-1.27 0.44,-1.91 0.08,-0.41 0.27,-0.52 0.64,-0.4 0.08,0 0.17,0 0.28,0.07 v 1.69 a 2.08,2.08 0 0 0 1.8,-2.29 l 2.49,0.61 -0.61,2.37 c -0.45,-0.11 -0.86,-0.23 -1.27,-0.29 a 1,1 0 0 0 -0.59,0.09 c -0.39,0.2 -0.74,0.46 -1.15,0.72 a 13,13 0 0 0 1.18,0.59 c 0.38,0.15 0.47,0.36 0.27,0.7 a 2.73,2.73 0 0 0 -0.13,0.29 c -0.78,-0.21 -1.55,-0.43 -2.32,-0.6 a 1.21,1.21 0 0 0 -0.7,0.11 c -0.49,0.26 -0.94,0.59 -1.45,0.91 0.6,0.38 1.17,0.74 1.76,1.09 0.08,0.05 0.24,0 0.36,0 l 1.88,-0.52 c 0.55,-0.15 0.55,-0.15 0.74,0.4 l 0.07,0.23 -1.59,0.83 c 0.47,0.29 0.88,0.57 1.31,0.81 a 0.73,0.73 0 0 0 0.44,0 c 0.4,-0.09 0.8,-0.21 1.25,-0.33 l 0.65,2.37 -2.4,0.63 c -0.12,-0.41 -0.21,-0.83 -0.35,-1.22 a 1.11,1.11 0 0 0 -0.39,-0.49 c -0.35,-0.23 -0.74,-0.41 -1.16,-0.63 v 1.78 l -0.77,0.13 c -0.17,-0.65 -0.38,-1.28 -0.49,-1.93 a 1.32,1.32 0 0 0 -0.9,-1.14 9.56,9.56 0 0 1 -1.1,-0.56 c 0,0.72 -0.1,1.39 -0.12,2.06 0,0.1 0.13,0.21 0.22,0.3 0.56,0.62 1.14,1.18 1.71,1.75 z"
     id="path141"
     inkscape:connector-curvature="0"
     style="fill:#ffffff" />
  <path
     class="cls-4"
     d="m 257.04,165.59 c 0.56,0.84 0.56,0.84 1.36,0.32 l 1,-0.65 c 0,0 0.07,0 0.14,0 0,0.57 0.1,1.14 0.11,1.71 a 0.76,0.76 0 0 1 -0.22,0.49 c -0.39,0.38 -0.8,0.73 -1.26,1.14 l 2.24,2.11 2.22,-2.1 c -0.4,-0.38 -0.76,-0.74 -1.14,-1.06 a 0.88,0.88 0 0 1 -0.36,-0.81 c 0,-0.5 0,-1 0,-1.61 l 2,1.14 0.63,-0.78 c -0.72,-0.66 -1.41,-1.31 -2.12,-1.92 a 1,1 0 0 1 -0.41,-1 18,18 0 0 0 0,-2 c 0.82,0.44 1.56,0.83 2.29,1.25 0.09,0.05 0.12,0.24 0.16,0.37 0.2,0.8 0.43,1.59 0.57,2.4 0.1,0.52 0.33,0.62 0.79,0.46 a 2.19,2.19 0 0 1 0.33,-0.06 v -2.19 c 0.6,0.32 1.16,0.61 1.71,0.93 a 0.72,0.72 0 0 1 0.18,0.36 c 0.15,0.52 0.28,1 0.44,1.61 l 3,-0.74 -0.75,-2.92 c -0.55,0.13 -1.05,0.28 -1.56,0.37 a 1.26,1.26 0 0 1 -0.72,-0.11 c -0.48,-0.25 -0.92,-0.57 -1.44,-0.9 l 2,-1 -0.34,-0.94 c -1,0.26 -1.95,0.54 -2.92,0.76 a 1.22,1.22 0 0 1 -0.77,-0.12 c -0.59,-0.33 -1.16,-0.72 -1.82,-1.14 0.76,-0.45 1.45,-0.88 2.16,-1.27 a 0.73,0.73 0 0 1 0.5,0 c 0.82,0.23 1.65,0.45 2.46,0.72 0.37,0.13 0.52,0 0.66,-0.32 0.14,-0.32 0.14,-0.55 -0.25,-0.72 -0.39,-0.17 -1,-0.52 -1.55,-0.83 0.6,-0.36 1.11,-0.69 1.65,-1 a 0.78,0.78 0 0 1 0.5,0 c 0.51,0.12 1,0.27 1.58,0.42 l 0.84,-2.89 -2.94,-0.83 c -0.16,0.54 -0.29,1.06 -0.48,1.56 a 1,1 0 0 1 -0.43,0.52 c -0.46,0.28 -0.95,0.5 -1.47,0.76 v -2.15 a 0.23,0.23 0 0 0 -0.09,-0.06 c -0.84,-0.18 -0.84,-0.18 -1.06,0.66 -0.18,0.68 -0.38,1.35 -0.54,2 a 0.9,0.9 0 0 1 -0.57,0.67 c -0.61,0.28 -1.19,0.59 -1.93,1 0,-0.91 0,-1.71 0,-2.51 0,-0.14 0.17,-0.29 0.29,-0.41 0.72,-0.69 1.45,-1.36 2.17,-2 0,-0.06 0,-0.1 0,-0.12 -0.56,-0.71 -0.55,-0.71 -1.32,-0.24 l -1.22,0.72 c 0,-0.7 0,-1.31 0,-1.91 0,-0.15 0.16,-0.3 0.27,-0.43 0.37,-0.4 0.74,-0.79 1.14,-1.2 l -2.15,-2.06 -2.2,2.1 a 8.59,8.59 0 0 0 0.79,0.72 1.53,1.53 0 0 1 0.64,1.64 c -0.05,0.32 -0.05,0.66 -0.08,1.08 l -1.88,-1.18 -0.62,0.69 c 0.69,0.71 1.36,1.42 2,2.11 a 0.93,0.93 0 0 1 0.34,0.82 c -0.06,0.66 -0.07,1.33 -0.11,2.09 -0.77,-0.42 -1.49,-0.79 -2.19,-1.19 a 0.75,0.75 0 0 1 -0.23,-0.45 c -0.2,-0.78 -0.41,-1.56 -0.55,-2.35 -0.1,-0.5 -0.33,-0.64 -0.79,-0.49 l -0.34,0.08 v 2.09 a 2.6,2.6 0 0 1 -2.23,-2.83 l -3.07,0.76 0.76,2.92 c 0.56,-0.13 1.06,-0.28 1.57,-0.36 a 1.19,1.19 0 0 1 0.72,0.11 c 0.48,0.25 0.92,0.57 1.43,0.9 -0.54,0.26 -1,0.53 -1.47,0.72 -0.47,0.19 -0.57,0.43 -0.33,0.86 0.06,0.1 0.1,0.22 0.17,0.35 1,-0.25 1.9,-0.52 2.85,-0.73 a 1.33,1.33 0 0 1 0.87,0.14 c 0.59,0.32 1.15,0.72 1.79,1.12 -0.75,0.46 -1.45,0.91 -2.17,1.33 -0.11,0.07 -0.3,0 -0.45,0 l -2.32,-0.63 c -0.67,-0.19 -0.67,-0.19 -0.91,0.48 0,0.08 -0.05,0.17 -0.09,0.28 l 2,1 c -0.57,0.37 -1.08,0.71 -1.61,1 a 0.86,0.86 0 0 1 -0.55,0 c -0.49,-0.11 -1,-0.25 -1.54,-0.4 l -0.79,2.92 2.95,0.77 c 0.15,-0.5 0.26,-1 0.44,-1.5 a 1.42,1.42 0 0 1 0.47,-0.61 c 0.43,-0.28 0.91,-0.49 1.43,-0.77 v 2.19 l 0.95,0.17 a 23,23 0 0 0 0.6,-2.38 1.66,1.66 0 0 1 1.12,-1.41 13.37,13.37 0 0 0 1.35,-0.69 c 0.06,0.89 0.13,1.72 0.16,2.54 0,0.12 -0.17,0.26 -0.28,0.37 -0.75,0.77 -1.46,1.47 -2.16,2.17 z"
     id="path143"
     inkscape:connector-curvature="0"
     style="fill:#ffffff" />
  <path
     class="cls-4"
     d="m 238.99,134.97 c 0.56,0.84 0.56,0.84 1.36,0.32 l 1,-0.65 c 0,0 0.06,0 0.13,0 0,0.57 0.1,1.14 0.11,1.71 a 0.76,0.76 0 0 1 -0.22,0.49 c -0.39,0.38 -0.8,0.73 -1.26,1.14 l 2.23,2.09 2.21,-2.1 c -0.4,-0.38 -0.76,-0.73 -1.14,-1.06 a 0.91,0.91 0 0 1 -0.36,-0.81 c 0,-0.5 0,-1 0,-1.61 l 2,1.15 0.63,-0.79 c -0.72,-0.66 -1.4,-1.31 -2.11,-1.92 a 1,1 0 0 1 -0.41,-1 c 0.06,-0.61 0,-1.23 0,-2 0.82,0.44 1.56,0.83 2.29,1.25 0.09,0.06 0.13,0.24 0.16,0.37 0.2,0.8 0.43,1.59 0.58,2.4 0.09,0.52 0.32,0.63 0.78,0.47 a 1.47,1.47 0 0 1 0.33,-0.07 v -2.19 c 0.6,0.32 1.16,0.62 1.71,0.94 0.1,0.05 0.15,0.22 0.18,0.35 0.15,0.52 0.29,1 0.44,1.61 l 3,-0.74 -0.75,-2.92 c -0.55,0.13 -1,0.28 -1.56,0.37 a 1.26,1.26 0 0 1 -0.72,-0.11 c -0.48,-0.25 -0.92,-0.56 -1.44,-0.89 l 2,-1 -0.35,-0.94 c -1,0.27 -1.95,0.54 -2.92,0.76 a 1.22,1.22 0 0 1 -0.77,-0.12 c -0.59,-0.33 -1.16,-0.72 -1.82,-1.13 0.76,-0.46 1.45,-0.89 2.16,-1.28 0.12,-0.07 0.34,0 0.5,0 0.83,0.23 1.65,0.45 2.47,0.72 0.37,0.13 0.51,0 0.65,-0.32 0.14,-0.32 0.14,-0.55 -0.25,-0.72 -0.39,-0.17 -1,-0.52 -1.54,-0.83 0.59,-0.36 1.1,-0.69 1.64,-1 a 0.78,0.78 0 0 1 0.5,0 c 0.51,0.12 1,0.27 1.58,0.43 l 0.84,-2.9 -2.94,-0.83 c -0.16,0.54 -0.29,1.06 -0.47,1.56 a 1.12,1.12 0 0 1 -0.44,0.52 c -0.46,0.28 -0.95,0.5 -1.46,0.76 v -2.15 a 0.44,0.44 0 0 0 -0.1,-0.06 c -0.84,-0.18 -0.84,-0.18 -1.06,0.66 -0.18,0.68 -0.38,1.35 -0.54,2 a 0.94,0.94 0 0 1 -0.57,0.68 c -0.6,0.27 -1.19,0.58 -1.93,1 0,-0.91 0,-1.71 0,-2.51 0,-0.14 0.17,-0.29 0.29,-0.41 l 2.17,-2 a 0.31,0.31 0 0 0 0,-0.13 c -0.55,-0.71 -0.55,-0.7 -1.32,-0.24 l -1.22,0.72 c 0,-0.7 0,-1.31 0,-1.91 0,-0.15 0.16,-0.3 0.27,-0.42 0.37,-0.41 0.74,-0.79 1.14,-1.21 l -2.15,-2.06 -2.2,2.1 a 8.59,8.59 0 0 0 0.79,0.72 1.52,1.52 0 0 1 0.64,1.64 c -0.05,0.32 -0.05,0.66 -0.08,1.08 l -1.88,-1.18 -0.61,0.69 c 0.68,0.72 1.35,1.43 2,2.11 a 0.93,0.93 0 0 1 0.34,0.82 c -0.05,0.67 -0.07,1.33 -0.1,2.09 -0.78,-0.42 -1.5,-0.79 -2.2,-1.19 a 0.78,0.78 0 0 1 -0.23,-0.45 c -0.2,-0.78 -0.41,-1.56 -0.55,-2.35 -0.09,-0.5 -0.32,-0.64 -0.79,-0.49 a 2.14,2.14 0 0 1 -0.34,0.08 v 2.19 a 2.59,2.59 0 0 1 -2.23,-2.83 l -3.06,0.76 0.75,2.92 c 0.56,-0.13 1.06,-0.28 1.57,-0.36 a 1.22,1.22 0 0 1 0.73,0.11 c 0.47,0.25 0.91,0.57 1.42,0.9 -0.53,0.26 -1,0.53 -1.47,0.72 -0.47,0.19 -0.57,0.44 -0.33,0.86 a 3.08,3.08 0 0 1 0.17,0.36 c 1,-0.26 1.9,-0.53 2.85,-0.74 a 1.39,1.39 0 0 1 0.87,0.14 c 0.6,0.32 1.16,0.72 1.79,1.12 -0.75,0.46 -1.45,0.91 -2.17,1.33 a 0.61,0.61 0 0 1 -0.44,0 c -0.78,-0.2 -1.55,-0.42 -2.33,-0.63 -0.78,-0.21 -0.67,-0.19 -0.91,0.48 a 2.81,2.81 0 0 0 -0.08,0.29 l 2,1 c -0.58,0.36 -1.08,0.7 -1.61,1 a 0.89,0.89 0 0 1 -0.56,0 c -0.49,-0.11 -1,-0.25 -1.54,-0.4 l -0.79,2.92 3,0.78 c 0.14,-0.51 0.25,-1 0.43,-1.51 a 1.42,1.42 0 0 1 0.47,-0.61 c 0.44,-0.28 0.91,-0.49 1.43,-0.77 v 2.16 l 1,0.17 c 0.2,-0.8 0.47,-1.58 0.6,-2.38 a 1.63,1.63 0 0 1 1.12,-1.41 c 0.43,-0.17 0.83,-0.42 1.35,-0.69 0.05,0.89 0.12,1.72 0.15,2.55 0,0.11 -0.16,0.25 -0.27,0.36 z"
     id="path145"
     inkscape:connector-curvature="0"
     style="fill:#ffffff" />
  <path
     class="cls-4"
     d="m 234.77,157.19 c 0.35,0.53 0.35,0.53 0.85,0.2 l 0.63,-0.4 h 0.09 c 0,0.35 0.06,0.71 0.07,1.06 a 0.52,0.52 0 0 1 -0.14,0.31 c -0.24,0.24 -0.5,0.46 -0.78,0.71 l 1.4,1.32 1.38,-1.31 c -0.25,-0.24 -0.47,-0.46 -0.71,-0.66 a 0.57,0.57 0 0 1 -0.23,-0.51 c 0,-0.32 0,-0.63 0,-1 l 1.23,0.72 0.4,-0.49 c -0.45,-0.41 -0.88,-0.82 -1.33,-1.2 a 0.65,0.65 0 0 1 -0.29,-0.67 c 0,-0.38 0,-0.77 0,-1.22 l 1.43,0.78 c 0.06,0 0.08,0.15 0.1,0.23 0.12,0.5 0.27,1 0.36,1.5 0.06,0.32 0.2,0.39 0.49,0.29 h 0.2 v -1.38 c 0.38,0.2 0.73,0.38 1.07,0.58 a 0.41,0.41 0 0 1 0.11,0.23 c 0.1,0.32 0.18,0.65 0.28,1 l 1.85,-0.46 -0.47,-1.82 c -0.35,0.08 -0.66,0.17 -1,0.22 a 0.7,0.7 0 0 1 -0.45,-0.06 c -0.29,-0.16 -0.57,-0.35 -0.9,-0.56 l 1.25,-0.64 -0.22,-0.58 c -0.62,0.16 -1.21,0.33 -1.82,0.47 a 0.73,0.73 0 0 1 -0.48,-0.07 c -0.37,-0.21 -0.72,-0.45 -1.13,-0.71 0.47,-0.28 0.9,-0.55 1.34,-0.8 a 0.51,0.51 0 0 1 0.32,0 c 0.51,0.15 1,0.29 1.53,0.45 0.24,0.08 0.33,0 0.41,-0.2 0.08,-0.2 0.09,-0.34 -0.15,-0.45 -0.24,-0.11 -0.62,-0.33 -1,-0.52 0.37,-0.22 0.69,-0.42 1,-0.6 a 0.47,0.47 0 0 1 0.31,0 l 1,0.27 0.52,-1.81 -1.83,-0.52 c -0.1,0.34 -0.18,0.66 -0.3,1 a 0.7,0.7 0 0 1 -0.27,0.32 c -0.29,0.18 -0.59,0.31 -0.92,0.48 v -1.35 a 0.1,0.1 0 0 0 -0.06,0 c -0.52,-0.12 -0.52,-0.12 -0.66,0.41 -0.14,0.53 -0.23,0.84 -0.33,1.27 a 0.57,0.57 0 0 1 -0.36,0.42 c -0.38,0.17 -0.74,0.37 -1.21,0.6 0,-0.57 0,-1.07 0,-1.57 0,-0.08 0.11,-0.18 0.18,-0.25 l 1.36,-1.27 c 0,0 0,-0.07 0,-0.08 -0.35,-0.44 -0.35,-0.44 -0.83,-0.15 l -0.76,0.45 c 0,-0.44 0,-0.82 0,-1.2 0,-0.09 0.1,-0.18 0.17,-0.26 l 0.71,-0.75 -1.34,-1.29 -1.38,1.31 a 5.07,5.07 0 0 0 0.5,0.45 1,1 0 0 1 0.4,1 4.36,4.36 0 0 0 -0.05,0.67 l -1.18,-0.74 -0.38,0.44 c 0.43,0.44 0.84,0.88 1.28,1.31 a 0.6,0.6 0 0 1 0.21,0.52 c 0,0.41 0,0.83 -0.07,1.3 -0.48,-0.26 -0.93,-0.49 -1.37,-0.75 -0.08,0 -0.12,-0.17 -0.14,-0.27 -0.13,-0.49 -0.26,-1 -0.35,-1.47 -0.06,-0.32 -0.2,-0.4 -0.49,-0.31 l -0.21,0.05 v 1.31 a 1.62,1.62 0 0 1 -1.39,-1.77 l -1.92,0.47 0.47,1.83 c 0.35,-0.08 0.67,-0.18 1,-0.23 a 0.78,0.78 0 0 1 0.45,0.07 c 0.29,0.16 0.57,0.36 0.89,0.56 -0.34,0.17 -0.62,0.33 -0.92,0.45 -0.3,0.12 -0.36,0.28 -0.21,0.54 0,0.07 0.07,0.14 0.11,0.22 0.6,-0.16 1.18,-0.33 1.78,-0.46 a 0.91,0.91 0 0 1 0.54,0.09 c 0.37,0.2 0.72,0.45 1.12,0.7 -0.47,0.29 -0.91,0.57 -1.36,0.83 -0.06,0 -0.18,0 -0.27,0 l -1.46,-0.4 c -0.41,-0.11 -0.41,-0.11 -0.56,0.31 0,0.05 0,0.1 -0.06,0.17 l 1.23,0.65 c -0.36,0.22 -0.68,0.43 -1,0.62 a 0.56,0.56 0 0 1 -0.34,0 l -1,-0.25 -0.49,1.82 1.85,0.48 c 0.08,-0.31 0.16,-0.63 0.27,-0.93 a 0.74,0.74 0 0 1 0.29,-0.38 c 0.27,-0.18 0.57,-0.31 0.89,-0.49 v 1.37 l 0.6,0.1 a 12.81,12.81 0 0 0 0.37,-1.48 1,1 0 0 1 0.7,-0.88 6.8,6.8 0 0 0 0.85,-0.43 c 0,0.56 0.07,1.07 0.09,1.59 0,0.07 -0.1,0.16 -0.17,0.23 z"
     id="path147"
     inkscape:connector-curvature="0"
     style="fill:#ffffff" />
  <path
     class="cls-4"
     d="m 239.49,174.03 c 0.27,0.42 0.27,0.41 0.66,0.16 l 0.5,-0.32 h 0.06 c 0,0.28 0.05,0.56 0.06,0.84 a 0.38,0.38 0 0 1 -0.11,0.24 l -0.61,0.56 1.09,1 1.08,-1 c -0.19,-0.18 -0.37,-0.36 -0.55,-0.52 a 0.44,0.44 0 0 1 -0.18,-0.4 c 0,-0.24 0,-0.49 0,-0.78 l 1,0.56 0.3,-0.38 c -0.35,-0.33 -0.68,-0.64 -1,-0.94 a 0.49,0.49 0 0 1 -0.2,-0.49 c 0,-0.29 0,-0.6 0,-1 0.4,0.22 0.76,0.41 1.12,0.62 0,0 0.06,0.11 0.07,0.18 0.1,0.39 0.21,0.77 0.28,1.17 0.07,0.4 0.17,0.31 0.39,0.23 a 0.65,0.65 0 0 1 0.16,0 v -1.07 l 0.83,0.45 a 0.26,0.26 0 0 1 0.09,0.18 c 0.08,0.25 0.14,0.5 0.22,0.78 l 1.44,-0.36 -0.36,-1.43 c -0.27,0.07 -0.51,0.14 -0.76,0.18 a 0.62,0.62 0 0 1 -0.36,-0.05 c -0.23,-0.12 -0.45,-0.28 -0.7,-0.44 l 1,-0.49 -0.17,-0.46 c -0.49,0.13 -1,0.26 -1.43,0.37 a 0.63,0.63 0 0 1 -0.38,-0.06 c -0.29,-0.16 -0.56,-0.35 -0.88,-0.55 0.36,-0.23 0.7,-0.44 1.05,-0.63 a 0.4,0.4 0 0 1 0.24,0 c 0.41,0.11 0.81,0.22 1.21,0.35 0.18,0.06 0.25,0 0.32,-0.16 0.07,-0.16 0.07,-0.27 -0.13,-0.35 -0.2,-0.08 -0.47,-0.26 -0.75,-0.4 0.29,-0.18 0.54,-0.34 0.8,-0.48 a 0.43,0.43 0 0 1 0.25,0 l 0.77,0.21 0.41,-1.41 -1.43,-0.41 c -0.08,0.27 -0.15,0.52 -0.24,0.76 a 0.49,0.49 0 0 1 -0.21,0.26 c -0.22,0.13 -0.46,0.24 -0.72,0.37 v -1.05 c 0,0 0,0 0,0 -0.41,-0.09 -0.41,-0.09 -0.52,0.32 -0.11,0.41 -0.19,0.66 -0.26,1 a 0.47,0.47 0 0 1 -0.28,0.33 c -0.3,0.13 -0.58,0.28 -0.95,0.47 0,-0.45 0,-0.84 0,-1.23 0,-0.07 0.08,-0.14 0.14,-0.2 l 1.06,-1 c 0,0 0,-0.05 0,-0.06 -0.27,-0.35 -0.27,-0.35 -0.65,-0.12 l -0.6,0.35 c 0,-0.34 0,-0.64 0,-0.94 0,-0.07 0.08,-0.14 0.13,-0.2 0.05,-0.06 0.37,-0.39 0.56,-0.59 l -1.05,-1 -1.08,1 c 0.14,0.12 0.25,0.25 0.39,0.35 a 0.74,0.74 0 0 1 0.31,0.8 c 0,0.16 0,0.32 0,0.53 l -0.92,-0.58 -0.3,0.34 c 0.34,0.35 0.67,0.7 1,1 a 0.5,0.5 0 0 1 0.16,0.4 c 0,0.33 0,0.65 -0.05,1 -0.38,-0.2 -0.73,-0.38 -1.08,-0.58 -0.06,0 -0.09,-0.14 -0.11,-0.22 -0.09,-0.38 -0.2,-0.76 -0.27,-1.14 -0.07,-0.38 -0.15,-0.32 -0.38,-0.24 h -0.17 v 1 a 1.27,1.27 0 0 1 -1.09,-1.39 l -1.5,0.37 0.37,1.43 c 0.28,-0.06 0.52,-0.14 0.77,-0.18 a 0.63,0.63 0 0 1 0.36,0.06 c 0.23,0.12 0.44,0.28 0.69,0.44 a 7.84,7.84 0 0 1 -0.72,0.35 c -0.23,0.09 -0.27,0.21 -0.16,0.42 0,0.05 0.05,0.11 0.08,0.17 0.47,-0.12 0.93,-0.25 1.4,-0.35 a 0.68,0.68 0 0 1 0.42,0.06 c 0.29,0.16 0.57,0.35 0.88,0.55 -0.37,0.23 -0.71,0.45 -1.06,0.65 a 0.34,0.34 0 0 1 -0.22,0 l -1.14,-0.31 c -0.32,-0.09 -0.32,-0.09 -0.44,0.24 a 0.47,0.47 0 0 0 0,0.14 l 0.95,0.5 c -0.28,0.18 -0.52,0.34 -0.78,0.49 a 0.49,0.49 0 0 1 -0.27,0 l -0.76,-0.2 -0.38,1.43 1.44,0.38 c 0.07,-0.25 0.13,-0.5 0.22,-0.74 a 0.68,0.68 0 0 1 0.23,-0.3 c 0.21,-0.13 0.44,-0.24 0.69,-0.37 v 1.07 l 0.47,0.08 c 0.1,-0.39 0.23,-0.77 0.29,-1.16 a 0.81,0.81 0 0 1 0.55,-0.69 7,7 0 0 0 0.66,-0.34 c 0,0.44 0.06,0.84 0.07,1.24 0,0.06 -0.07,0.13 -0.13,0.18 z"
     id="path149"
     inkscape:connector-curvature="0"
     style="fill:#ffffff" />
  <path
     class="cls-4"
     d="m 263.64,136.48 c 0.41,0.61 0.41,0.61 1,0.23 l 0.7,-0.44 h 0.1 c 0,0.41 0.07,0.82 0.08,1.24 a 0.56,0.56 0 0 1 -0.16,0.35 c -0.28,0.27 -0.58,0.53 -0.9,0.82 l 1.61,1.52 1.6,-1.52 c -0.29,-0.27 -0.55,-0.52 -0.82,-0.76 a 0.63,0.63 0 0 1 -0.26,-0.58 c 0,-0.37 0,-0.73 0,-1.16 l 1.42,0.82 0.45,-0.56 c -0.52,-0.48 -1,-0.95 -1.52,-1.39 a 0.75,0.75 0 0 1 -0.3,-0.72 13,13 0 0 0 0,-1.41 c 0.59,0.32 1.13,0.6 1.66,0.91 0.06,0 0.09,0.17 0.11,0.26 0.14,0.58 0.31,1.15 0.42,1.73 0.06,0.38 0.23,0.45 0.56,0.34 a 1.44,1.44 0 0 1 0.24,-0.05 v -1.58 c 0.43,0.24 0.84,0.45 1.23,0.68 a 0.4,0.4 0 0 1 0.13,0.25 c 0.11,0.38 0.21,0.75 0.32,1.17 l 2.13,-0.54 -0.54,-2.11 c -0.39,0.1 -0.75,0.21 -1.12,0.27 a 0.92,0.92 0 0 1 -0.52,-0.08 c -0.34,-0.18 -0.66,-0.41 -1,-0.64 l 1.44,-0.74 -0.25,-0.67 c -0.72,0.19 -1.4,0.38 -2.1,0.54 a 0.9,0.9 0 0 1 -0.56,-0.08 c -0.43,-0.24 -0.83,-0.52 -1.31,-0.82 0.54,-0.33 1,-0.64 1.55,-0.92 a 0.6,0.6 0 0 1 0.37,0 c 0.59,0.17 1.19,0.33 1.77,0.52 0.27,0.09 0.38,0 0.48,-0.23 0.1,-0.23 0.1,-0.4 -0.19,-0.52 -0.29,-0.12 -0.7,-0.38 -1.11,-0.6 0.43,-0.26 0.8,-0.49 1.19,-0.7 a 0.56,0.56 0 0 1 0.36,0 c 0.37,0.08 0.73,0.19 1.14,0.3 l 0.61,-2.08 -2.13,-0.6 c -0.11,0.39 -0.2,0.76 -0.34,1.12 a 0.77,0.77 0 0 1 -0.31,0.38 c -0.33,0.2 -0.69,0.36 -1.06,0.55 v -1.56 h -0.07 c -0.6,-0.13 -0.6,-0.13 -0.77,0.48 -0.17,0.61 -0.27,1 -0.38,1.46 a 0.66,0.66 0 0 1 -0.41,0.49 c -0.44,0.2 -0.86,0.42 -1.4,0.69 0,-0.65 0,-1.23 0,-1.8 a 0.55,0.55 0 0 1 0.21,-0.3 c 0.52,-0.5 1.05,-1 1.57,-1.47 a 0.64,0.64 0 0 0 0,-0.09 c -0.4,-0.51 -0.4,-0.51 -1,-0.17 l -0.88,0.52 c 0,-0.51 0,-1 0,-1.38 0,-0.11 0.11,-0.22 0.2,-0.31 0.26,-0.29 0.53,-0.57 0.81,-0.87 l -1.55,-1.48 -1.58,1.51 a 5.37,5.37 0 0 0 0.57,0.52 1.1,1.1 0 0 1 0.46,1.18 c 0,0.24 0,0.48 -0.06,0.78 l -1.36,-0.85 -0.44,0.5 c 0.5,0.52 1,1 1.48,1.52 a 0.65,0.65 0 0 1 0.24,0.6 c 0,0.47 -0.05,0.95 -0.07,1.5 -0.56,-0.3 -1.08,-0.57 -1.59,-0.86 -0.09,0 -0.13,-0.2 -0.16,-0.32 -0.15,-0.56 -0.3,-1.12 -0.4,-1.69 -0.07,-0.37 -0.23,-0.47 -0.57,-0.36 a 1.2,1.2 0 0 1 -0.24,0.06 v 1.51 a 1.88,1.88 0 0 1 -1.61,-2.05 l -2.21,0.55 0.54,2.11 c 0.41,-0.1 0.77,-0.2 1.14,-0.26 a 0.86,0.86 0 0 1 0.52,0.08 c 0.34,0.18 0.66,0.41 1,0.64 a 10.16,10.16 0 0 1 -1.05,0.52 c -0.34,0.14 -0.41,0.32 -0.24,0.63 0,0.07 0.07,0.15 0.12,0.25 0.69,-0.18 1.37,-0.38 2.06,-0.53 a 1,1 0 0 1 0.62,0.1 c 0.43,0.24 0.84,0.52 1.29,0.81 -0.53,0.34 -1,0.66 -1.56,1 a 0.44,0.44 0 0 1 -0.32,0 l -1.68,-0.46 c -0.48,-0.13 -0.48,-0.13 -0.66,0.35 0,0.06 0,0.12 -0.06,0.2 l 1.42,0.75 c -0.42,0.26 -0.78,0.5 -1.17,0.71 a 0.64,0.64 0 0 1 -0.39,0 l -1.12,-0.3 -0.57,2.11 2.14,0.56 c 0.1,-0.36 0.18,-0.73 0.31,-1.08 a 0.93,0.93 0 0 1 0.34,-0.44 c 0.31,-0.21 0.66,-0.36 1,-0.56 v 1.58 l 0.69,0.12 c 0.15,-0.57 0.34,-1.14 0.43,-1.71 a 1.19,1.19 0 0 1 0.81,-1 c 0.31,-0.12 0.6,-0.31 1,-0.5 0,0.64 0.09,1.24 0.11,1.84 0,0.08 -0.11,0.18 -0.19,0.26 z"
     id="path151"
     inkscape:connector-curvature="0"
     style="fill:#ffffff" />
  <path
     class="cls-4"
     d="m 262.88,111.6 c 0.29,0.45 0.29,0.45 0.71,0.17 l 0.54,-0.34 h 0.07 c 0,0.3 0.05,0.6 0.06,0.9 a 0.37,0.37 0 0 1 -0.12,0.26 c -0.2,0.2 -0.42,0.39 -0.66,0.6 l 1.18,1.12 1.17,-1.11 c -0.21,-0.2 -0.4,-0.39 -0.6,-0.56 a 0.49,0.49 0 0 1 -0.19,-0.43 c 0,-0.26 0,-0.53 0,-0.85 l 1,0.61 0.33,-0.42 c -0.38,-0.35 -0.74,-0.69 -1.11,-1 a 0.54,0.54 0 0 1 -0.22,-0.53 8.65,8.65 0 0 0 0,-1 l 1.21,0.66 c 0,0 0.06,0.13 0.08,0.2 0.1,0.42 0.23,0.84 0.3,1.26 0.07,0.42 0.18,0.33 0.42,0.25 h 0.17 v -1.15 c 0.32,0.17 0.61,0.32 0.9,0.49 a 0.35,0.35 0 0 1 0.1,0.19 c 0.08,0.27 0.15,0.55 0.23,0.85 l 1.56,-0.39 -0.4,-1.54 c -0.28,0.07 -0.55,0.15 -0.82,0.19 a 0.71,0.71 0 0 1 -0.38,-0.05 c -0.25,-0.14 -0.48,-0.3 -0.76,-0.48 l 1.06,-0.53 -0.19,-0.5 c -0.52,0.14 -1,0.29 -1.54,0.4 a 0.62,0.62 0 0 1 -0.4,-0.06 c -0.32,-0.17 -0.61,-0.38 -1,-0.6 0.4,-0.24 0.76,-0.47 1.14,-0.67 0.06,0 0.18,0 0.26,0 0.44,0.12 0.87,0.24 1.3,0.39 0.2,0.06 0.27,0 0.35,-0.17 0.08,-0.17 0.07,-0.3 -0.14,-0.39 -0.21,-0.09 -0.51,-0.27 -0.81,-0.43 0.31,-0.19 0.58,-0.36 0.87,-0.52 a 0.46,0.46 0 0 1 0.26,0 c 0.27,0.06 0.53,0.14 0.83,0.22 l 0.45,-1.52 -1.55,-0.44 c -0.09,0.28 -0.15,0.56 -0.25,0.82 a 0.58,0.58 0 0 1 -0.23,0.28 c -0.24,0.14 -0.5,0.26 -0.78,0.4 v -1.21 0 c -0.44,-0.09 -0.44,-0.09 -0.56,0.35 -0.12,0.44 -0.2,0.71 -0.28,1.07 a 0.48,0.48 0 0 1 -0.3,0.36 c -0.32,0.14 -0.63,0.31 -1,0.5 0,-0.47 0,-0.9 0,-1.32 0,-0.07 0.09,-0.15 0.15,-0.21 l 1.14,-1.08 c 0,0 0,0 0,-0.06 -0.29,-0.38 -0.29,-0.38 -0.7,-0.13 l -0.64,0.38 c 0,-0.37 0,-0.69 0,-1 a 0.46,0.46 0 0 1 0.15,-0.22 l 0.6,-0.64 -1.14,-1.08 -1.16,1.1 a 3.61,3.61 0 0 0 0.42,0.38 0.83,0.83 0 0 1 0.34,0.87 c 0,0.17 0,0.34 -0.05,0.57 l -1,-0.62 -0.32,0.36 c 0.36,0.38 0.71,0.75 1.08,1.11 a 0.52,0.52 0 0 1 0.18,0.44 c 0,0.35 0,0.7 -0.06,1.1 l -1.16,-0.63 a 0.42,0.42 0 0 1 -0.12,-0.24 c -0.1,-0.41 -0.21,-0.82 -0.29,-1.24 -0.05,-0.26 -0.17,-0.34 -0.41,-0.25 h -0.18 v 1.1 a 1.37,1.37 0 0 1 -1.18,-1.49 l -1.62,0.4 0.4,1.54 c 0.3,-0.07 0.56,-0.15 0.83,-0.19 a 0.71,0.71 0 0 1 0.38,0.05 c 0.25,0.14 0.48,0.31 0.75,0.48 -0.28,0.14 -0.52,0.28 -0.77,0.38 -0.25,0.1 -0.3,0.23 -0.17,0.45 0,0.06 0.05,0.12 0.08,0.19 0.51,-0.13 1,-0.28 1.51,-0.39 a 0.7,0.7 0 0 1 0.45,0.08 c 0.32,0.17 0.62,0.37 0.95,0.59 -0.39,0.24 -0.76,0.48 -1.14,0.7 -0.06,0 -0.16,0 -0.24,0 l -1.23,-0.34 c -0.35,-0.09 -0.35,-0.09 -0.48,0.26 0,0 0,0.09 0,0.15 l 1,0.54 c -0.3,0.19 -0.57,0.37 -0.85,0.53 a 0.48,0.48 0 0 1 -0.29,0 l -0.81,-0.21 -0.42,1.54 1.56,0.41 c 0.08,-0.27 0.14,-0.54 0.23,-0.8 a 0.72,0.72 0 0 1 0.25,-0.32 c 0.23,-0.15 0.48,-0.26 0.75,-0.4 v 1.18 l 0.51,0.09 a 11,11 0 0 0 0.31,-1.26 0.88,0.88 0 0 1 0.59,-0.74 8,8 0 0 0 0.72,-0.36 c 0,0.47 0.06,0.9 0.08,1.34 0,0.06 -0.09,0.13 -0.15,0.19 q -0.53,0.53 -1.09,1.07 z"
     id="path153"
     inkscape:connector-curvature="0"
     style="fill:#ffffff" />
  <path
     class="cls-4"
     d="m 240,106.11 c 0.45,0.69 0.45,0.69 1.1,0.27 l 0.82,-0.53 h 0.11 c 0,0.47 0.08,0.93 0.09,1.39 a 0.64,0.64 0 0 1 -0.18,0.4 c -0.31,0.31 -0.65,0.59 -1,0.92 l 1.8,1.71 1.8,-1.71 c -0.33,-0.31 -0.62,-0.6 -0.93,-0.86 a 0.73,0.73 0 0 1 -0.29,-0.66 c 0,-0.41 0,-0.81 0,-1.3 l 1.59,0.93 0.51,-0.64 c -0.58,-0.54 -1.14,-1.06 -1.72,-1.56 a 0.84,0.84 0 0 1 -0.33,-0.8 13.78,13.78 0 0 0 0,-1.59 c 0.66,0.36 1.26,0.67 1.85,1 0.08,0.05 0.1,0.2 0.13,0.3 0.16,0.65 0.35,1.29 0.47,1.95 0.07,0.42 0.26,0.51 0.63,0.38 a 1.81,1.81 0 0 1 0.27,-0.06 v -1.77 c 0.49,0.26 0.94,0.5 1.39,0.76 0.08,0 0.12,0.18 0.15,0.28 0.12,0.42 0.23,0.85 0.35,1.31 l 2.4,-0.6 -0.61,-2.37 c -0.44,0.11 -0.85,0.23 -1.26,0.3 a 1,1 0 0 1 -0.59,-0.09 c -0.38,-0.2 -0.74,-0.46 -1.16,-0.72 l 1.62,-0.83 -0.29,-0.76 c -0.8,0.22 -1.58,0.44 -2.36,0.62 a 1,1 0 0 1 -0.62,-0.1 c -0.49,-0.27 -0.95,-0.58 -1.48,-0.92 0.61,-0.37 1.17,-0.72 1.75,-1 a 0.63,0.63 0 0 1 0.4,0 c 0.67,0.19 1.34,0.37 2,0.59 0.3,0.1 0.42,0 0.53,-0.26 0.11,-0.26 0.12,-0.45 -0.2,-0.59 -0.32,-0.14 -0.8,-0.43 -1.25,-0.67 0.48,-0.29 0.9,-0.56 1.33,-0.79 a 0.64,0.64 0 0 1 0.41,0 l 1.28,0.35 0.68,-2.35 -2.38,-0.67 c -0.13,0.44 -0.24,0.86 -0.39,1.26 a 0.87,0.87 0 0 1 -0.35,0.43 c -0.37,0.22 -0.77,0.4 -1.19,0.62 v -1.75 a 0.18,0.18 0 0 0 -0.08,0 c -0.68,-0.15 -0.68,-0.14 -0.86,0.54 -0.18,0.68 -0.3,1.09 -0.43,1.64 a 0.73,0.73 0 0 1 -0.47,0.55 c -0.49,0.22 -1,0.48 -1.56,0.78 0,-0.73 0,-1.38 0,-2 0,-0.11 0.13,-0.24 0.23,-0.33 l 1.76,-1.65 a 0.56,0.56 0 0 0 0,-0.1 c -0.45,-0.58 -0.45,-0.58 -1.07,-0.2 l -1,0.59 c 0,-0.58 0,-1.07 0,-1.56 0,-0.12 0.12,-0.24 0.22,-0.34 0.29,-0.32 0.6,-0.64 0.92,-1 l -1.75,-1.67 -1.78,1.71 c 0.23,0.2 0.42,0.42 0.64,0.58 a 1.23,1.23 0 0 1 0.52,1.33 c 0,0.26 0,0.53 -0.07,0.87 l -1.52,-0.95 -0.5,0.56 c 0.56,0.58 1.1,1.15 1.66,1.71 a 0.77,0.77 0 0 1 0.28,0.67 c -0.05,0.53 -0.06,1.07 -0.09,1.69 -0.63,-0.34 -1.21,-0.64 -1.78,-1 -0.1,-0.06 -0.15,-0.23 -0.19,-0.36 -0.16,-0.63 -0.33,-1.26 -0.44,-1.9 -0.08,-0.41 -0.26,-0.53 -0.64,-0.4 l -0.27,0.06 v 1.7 a 2.09,2.09 0 0 1 -1.81,-2.3 l -2.49,0.62 0.61,2.37 c 0.45,-0.11 0.86,-0.23 1.28,-0.3 a 1,1 0 0 1 0.58,0.09 c 0.39,0.21 0.74,0.46 1.16,0.73 -0.44,0.22 -0.8,0.43 -1.19,0.58 -0.39,0.15 -0.46,0.36 -0.27,0.7 0.05,0.09 0.08,0.18 0.13,0.29 0.78,-0.2 1.55,-0.43 2.32,-0.59 a 1.07,1.07 0 0 1 0.7,0.11 c 0.49,0.26 0.94,0.58 1.45,0.91 -0.6,0.37 -1.17,0.74 -1.76,1.08 -0.08,0.05 -0.24,0 -0.36,0 -0.63,-0.16 -1.25,-0.34 -1.88,-0.51 -0.63,-0.17 -0.55,-0.15 -0.74,0.39 l -0.07,0.23 1.59,0.83 c -0.47,0.3 -0.88,0.57 -1.31,0.81 a 0.73,0.73 0 0 1 -0.44,0 c -0.4,-0.09 -0.8,-0.2 -1.25,-0.32 l -0.65,2.36 2.4,0.63 c 0.12,-0.41 0.21,-0.82 0.36,-1.21 a 1.05,1.05 0 0 1 0.38,-0.5 c 0.35,-0.23 0.74,-0.4 1.16,-0.62 v 1.77 l 0.77,0.14 c 0.17,-0.65 0.38,-1.28 0.49,-1.93 a 1.32,1.32 0 0 1 0.9,-1.14 c 0.36,-0.14 0.68,-0.35 1.1,-0.56 0,0.72 0.1,1.39 0.12,2.06 0,0.1 -0.13,0.21 -0.22,0.3 z"
     id="path155"
     inkscape:connector-curvature="0"
     style="fill:#ffffff" />
  <path
     class="cls-4"
     d="m 269.95,94.6 c 0.65,1 0.65,1 1.56,0.37 0.39,-0.26 0.79,-0.5 1.18,-0.75 0,0 0.07,0 0.15,0 0.05,0.66 0.12,1.31 0.13,2 a 0.81,0.81 0 0 1 -0.25,0.56 c -0.45,0.45 -0.93,0.85 -1.45,1.32 l 2.59,2.44 2.55,-2.43 c -0.46,-0.43 -0.87,-0.85 -1.31,-1.22 a 1,1 0 0 1 -0.42,-0.94 c 0,-0.58 0,-1.16 0,-1.85 l 2.27,1.32 0.73,-0.91 c -0.84,-0.76 -1.63,-1.51 -2.45,-2.22 a 1.19,1.19 0 0 1 -0.47,-1.14 20.93,20.93 0 0 0 0,-2.26 c 0.94,0.5 1.8,1 2.64,1.44 0.11,0.06 0.14,0.28 0.18,0.43 0.23,0.92 0.5,1.83 0.67,2.76 0.11,0.61 0.38,0.73 0.9,0.54 l 0.38,-0.07 v -2.53 c 0.7,0.38 1.35,0.71 2,1.08 a 0.73,0.73 0 0 1 0.21,0.41 c 0.17,0.6 0.33,1.2 0.51,1.87 l 3.41,-0.86 -0.87,-3.38 c -0.63,0.16 -1.2,0.33 -1.79,0.43 a 1.51,1.51 0 0 1 -0.84,-0.12 c -0.55,-0.29 -1.06,-0.66 -1.66,-1 l 2.31,-1.17 -0.41,-1.08 c -1.14,0.3 -2.24,0.62 -3.36,0.87 a 1.38,1.38 0 0 1 -0.89,-0.14 c -0.69,-0.38 -1.34,-0.83 -2.1,-1.31 0.87,-0.52 1.67,-1 2.49,-1.47 a 0.9,0.9 0 0 1 0.58,0 c 0.95,0.27 1.91,0.53 2.84,0.84 0.43,0.14 0.6,0 0.76,-0.37 0.16,-0.37 0.16,-0.64 -0.29,-0.84 -0.45,-0.2 -1.13,-0.6 -1.78,-0.95 0.68,-0.42 1.28,-0.8 1.89,-1.13 a 1,1 0 0 1 0.59,0 l 1.82,0.5 1,-3.34 -3.4,-1 c -0.18,0.62 -0.33,1.22 -0.55,1.8 a 1.25,1.25 0 0 1 -0.49,0.6 c -0.53,0.32 -1.1,0.57 -1.7,0.88 v -2.49 c 0,0 -0.06,-0.06 -0.11,-0.07 -1,-0.21 -1,-0.2 -1.23,0.77 -0.2,0.78 -0.43,1.56 -0.61,2.34 a 1.07,1.07 0 0 1 -0.66,0.78 c -0.7,0.32 -1.38,0.68 -2.23,1.11 0,-1 0,-2 0,-2.89 0,-0.16 0.19,-0.34 0.33,-0.47 0.84,-0.8 1.68,-1.58 2.51,-2.36 0,-0.07 0,-0.11 0,-0.14 -0.64,-0.82 -0.64,-0.81 -1.53,-0.28 l -1.41,0.84 c 0,-0.82 0,-1.52 0,-2.21 0,-0.17 0.19,-0.35 0.32,-0.49 0.42,-0.47 0.85,-0.91 1.31,-1.39 l -2.51,-2.36 -2.54,2.42 a 9.78,9.78 0 0 0 0.91,0.83 1.77,1.77 0 0 1 0.74,1.89 c -0.06,0.38 -0.06,0.77 -0.09,1.25 l -2.18,-1.39 -0.7,0.8 c 0.79,0.82 1.56,1.64 2.36,2.43 a 1.1,1.1 0 0 1 0.39,1 c -0.06,0.76 -0.08,1.53 -0.12,2.4 -0.9,-0.48 -1.73,-0.9 -2.54,-1.37 a 0.86,0.86 0 0 1 -0.26,-0.52 c -0.23,-0.9 -0.47,-1.8 -0.64,-2.71 -0.11,-0.58 -0.37,-0.74 -0.91,-0.57 a 2.53,2.53 0 0 1 -0.39,0.09 v 2.42 a 3,3 0 0 1 -2.57,-3.27 l -3.54,0.88 0.87,3.37 c 0.64,-0.15 1.22,-0.32 1.81,-0.42 a 1.43,1.43 0 0 1 0.84,0.13 c 0.55,0.29 1.05,0.66 1.64,1 -0.62,0.31 -1.13,0.62 -1.69,0.84 -0.56,0.22 -0.66,0.5 -0.38,1 a 4,4 0 0 1 0.19,0.41 c 1.11,-0.29 2.19,-0.6 3.29,-0.84 a 1.57,1.57 0 0 1 1,0.15 c 0.69,0.38 1.34,0.83 2.07,1.3 -0.86,0.53 -1.67,1.05 -2.5,1.54 a 0.85,0.85 0 0 1 -0.52,0 l -2.68,-0.74 c -0.77,-0.21 -0.77,-0.21 -1.05,0.56 l -0.1,0.33 2.26,1.19 c -0.66,0.42 -1.24,0.81 -1.86,1.15 a 1,1 0 0 1 -0.63,0 c -0.57,-0.13 -1.13,-0.3 -1.78,-0.47 l -0.92,3.37 3.42,0.9 c 0.16,-0.58 0.29,-1.17 0.5,-1.73 a 1.59,1.59 0 0 1 0.54,-0.71 c 0.5,-0.32 1.05,-0.57 1.65,-0.89 v 2.53 l 1.1,0.19 c 0.24,-0.92 0.55,-1.82 0.7,-2.74 a 1.89,1.89 0 0 1 1.29,-1.63 15.55,15.55 0 0 0 1.56,-0.8 c 0.07,1 0.14,2 0.17,2.94 0,0.14 -0.18,0.3 -0.31,0.42 z"
     id="path157"
     inkscape:connector-curvature="0"
     style="fill:#ffffff" />
  <path
     class="cls-4"
     d="m 72.21,91.44 c 0.67,1 0.66,1 1.61,0.39 l 1.21,-0.77 a 0.45,0.45 0 0 1 0.16,0 c 0.05,0.68 0.12,1.36 0.13,2 a 0.91,0.91 0 0 1 -0.26,0.58 c -0.46,0.45 -0.95,0.87 -1.49,1.35 l 2.66,2.52 2.63,-2.51 c -0.47,-0.45 -0.89,-0.87 -1.35,-1.26 a 1.05,1.05 0 0 1 -0.43,-1 c 0,-0.6 0,-1.2 0,-1.91 l 2.34,1.36 0.75,-0.93 C 79.31,90.47 78.49,89.7 77.65,88.97 a 1.22,1.22 0 0 1 -0.49,-1.18 22.23,22.23 0 0 0 0,-2.33 c 1,0.53 1.86,1 2.72,1.49 0.11,0.07 0.15,0.29 0.19,0.44 0.24,0.95 0.52,1.89 0.69,2.85 0.11,0.63 0.39,0.75 0.93,0.56 a 3,3 0 0 1 0.39,-0.08 v -2.6 c 0.71,0.38 1.38,0.73 2,1.11 a 0.71,0.71 0 0 1 0.22,0.42 c 0.18,0.62 0.34,1.24 0.52,1.92 l 3.52,-0.88 -0.89,-3.48 c -0.65,0.16 -1.25,0.34 -1.85,0.44 a 1.48,1.48 0 0 1 -0.86,-0.13 c -0.57,-0.3 -1.09,-0.67 -1.71,-1.06 l 2.37,-1.21 -0.41,-1.11 c -1.18,0.31 -2.32,0.63 -3.47,0.89 A 1.37,1.37 0 0 1 80.61,84.89 C 79.9,84.5 79.23,84.04 78.44,83.54 79.34,83.01 80.16,82.49 81,82.03 a 0.9,0.9 0 0 1 0.6,0 c 1,0.28 2,0.54 2.93,0.86 0.44,0.15 0.61,0 0.78,-0.38 0.17,-0.38 0.17,-0.65 -0.3,-0.86 -0.47,-0.21 -1.17,-0.62 -1.83,-1 0.7,-0.43 1.31,-0.82 1.95,-1.16 a 1,1 0 0 1 0.6,0 c 0.6,0.15 1.2,0.32 1.87,0.51 l 1,-3.44 -3.5,-1 c -0.19,0.64 -0.34,1.26 -0.57,1.85 a 1.29,1.29 0 0 1 -0.51,0.62 c -0.55,0.33 -1.13,0.6 -1.75,0.91 v -2.56 a 0.26,0.26 0 0 0 -0.11,-0.07 c -1,-0.22 -1,-0.22 -1.26,0.79 -0.22,0.8 -0.45,1.6 -0.64,2.41 a 1.08,1.08 0 0 1 -0.68,0.8 c -0.72,0.33 -1.41,0.7 -2.29,1.14 0,-1.07 0,-2 0,-3 0,-0.16 0.2,-0.34 0.34,-0.48 0.86,-0.82 1.73,-1.63 2.58,-2.42 a 0.38,0.38 0 0 0 0,-0.15 c -0.66,-0.84 -0.66,-0.84 -1.57,-0.29 l -1.46,0.86 c 0,-0.84 0,-1.56 0,-2.28 0,-0.17 0.19,-0.35 0.32,-0.5 l 1.35,-1.43 -2.51,-2.31 -2.61,2.5 a 10.37,10.37 0 0 0 0.93,0.85 1.82,1.82 0 0 1 0.77,2 11.31,11.31 0 0 0 -0.1,1.28 l -2.24,-1.39 -0.73,0.82 c 0.82,0.84 1.61,1.69 2.44,2.5 a 1.13,1.13 0 0 1 0.4,1 C 75.13,79.8 75.12,80.59 75.07,81.49 74.15,81 73.29,80.56 72.46,80.07 72.31,79.99 72.24,79.74 72.19,79.55 71.95,78.62 71.7,77.69 71.53,76.75 71.42,76.15 71.15,75.99 70.6,76.17 a 3,3 0 0 1 -0.4,0.09 v 2.49 a 3.07,3.07 0 0 1 -2.65,-3.37 l -3.65,0.9 0.9,3.48 c 0.66,-0.16 1.26,-0.34 1.86,-0.43 a 1.41,1.41 0 0 1 0.86,0.13 c 0.57,0.3 1.09,0.68 1.7,1.07 -0.64,0.31 -1.17,0.63 -1.75,0.85 -0.58,0.22 -0.67,0.52 -0.39,1 0.07,0.12 0.12,0.26 0.2,0.42 1.14,-0.3 2.26,-0.62 3.39,-0.87 a 1.61,1.61 0 0 1 1,0.16 c 0.71,0.38 1.38,0.86 2.13,1.33 -0.89,0.56 -1.72,1.09 -2.58,1.59 -0.13,0.08 -0.36,0 -0.53,0 l -2.76,-0.76 c -0.8,-0.22 -0.8,-0.22 -1.08,0.58 a 2.71,2.71 0 0 0 -0.1,0.33 l 2.32,1.23 c -0.68,0.43 -1.28,0.83 -1.91,1.18 a 1,1 0 0 1 -0.65,0 c -0.59,-0.13 -1.17,-0.3 -1.84,-0.48 l -0.94,3.47 3.51,0.93 c 0.17,-0.6 0.31,-1.21 0.52,-1.79 a 1.66,1.66 0 0 1 0.56,-0.72 c 0.52,-0.34 1.09,-0.59 1.7,-0.92 v 2.61 l 1.14,0.19 c 0.24,-0.95 0.56,-1.87 0.71,-2.82 a 2,2 0 0 1 1.33,-1.68 16.43,16.43 0 0 0 1.61,-0.82 c 0.07,1.06 0.14,2 0.18,3 0,0.15 -0.2,0.31 -0.33,0.44 -0.77,0.8 -1.62,1.64 -2.45,2.46 z"
     id="path159"
     inkscape:connector-curvature="0"
     style="fill:#ffffff" />
  <path
     class="cls-1"
     d="m 69.87,251.16 h 67.72 C 84.06,238.28 80.82,179.1 80.82,179.1 l -11.36,-0.8"
     id="path161"
     inkscape:connector-curvature="0"
     style="fill:#dcdbdb" />
  <path
     class="cls-1"
     d="m 273.97,251.16 h -67.73 c 53.53,-12.88 56.78,-72.06 56.78,-72.06 l 11.32,-0.83"
     id="path163"
     inkscape:connector-curvature="0"
     style="fill:#dcdbdb" />
  <path
     class="cls-3"
     d="m 59.97,212.38 c 0,0 31.51,19.53 40,47.5 l -36.81,0.74"
     id="path165"
     inkscape:connector-curvature="0"
     style="fill:#36296d" />
  <path
     class="cls-3"
     d="m 285.8,212.38 c 0,0 -31.5,19.53 -39.95,47.5 l 36.81,0.74"
     id="path167"
     inkscape:connector-curvature="0"
     style="fill:#36296d" />
  <path
     class="cls-4"
     d="m 196,266.85 a 2.78,2.78 0 0 1 -1.76,0 c -1.69,-0.94 -3.3,-2 -5.15,-3.19 l 6.25,-3.29 c -0.12,-0.38 -0.18,-0.65 -0.27,-0.9 -0.77,-2.15 -0.77,-2.15 -2.91,-1.56 -2.48,0.68 -5,1.38 -7.44,2 a 2.13,2.13 0 0 1 -1.42,0.06 c -1.57,-0.92 -3.12,-1.88 -4.71,-2.87 h -16 c -1.58,1 -3,2 -4.53,2.79 a 3.81,3.81 0 0 1 -2.45,0.39 c -3.1,-0.71 -6.16,-1.58 -9.33,-2.42 l -1.11,3 6.38,3.26 c -1.66,1 -3.08,2.06 -4.61,2.86 a 3.86,3.86 0 0 1 -2.3,0.34 c -1.63,-0.27 -3.23,-0.75 -5,-1.17 -0.82,3.19 -1.6,6.2 -2.41,9.34 l 9.47,2.38 c 0.49,-1.84 0.93,-3.51 1.4,-5.16 0.12,-0.41 0.27,-1 0.59,-1.14 1.75,-1 3.55,-2 5.47,-3 v 7 a 7.77,7.77 0 0 1 1,0.21 c 1.46,0.51 2.21,0.19 2.51,-1.5 0.46,-2.58 1.2,-5.11 1.84,-7.66 0.11,-0.42 0.21,-1 0.51,-1.18 2.33,-1.34 4.71,-2.6 7.32,-4 a 58.21,58.21 0 0 0 0.06,6.26 3.28,3.28 0 0 1 -1.31,3.17 c -2.28,2 -4.47,4 -6.78,6.16 0.73,0.9 1.35,1.67 2,2.51 l 6.3,-3.66 c 0,1.92 -0.08,3.53 0,5.13 a 2.88,2.88 0 0 1 -1.16,2.6 c -1.22,1 -2.35,2.18 -3.63,3.39 l 7.07,6.74 7.17,-6.77 c -1.45,-1.3 -2.78,-2.42 -4,-3.64 a 2.42,2.42 0 0 1 -0.71,-1.56 c 0,-1.83 0.23,-3.65 0.36,-5.48 0.22,0 0.34,0 0.42,0.06 1.09,0.69 2.18,1.38 3.26,2.08 2.55,1.66 2.55,1.67 4.35,-1 -2.25,-2.23 -4.52,-4.48 -6.78,-6.74 -0.35,-0.35 -0.88,-0.79 -0.86,-1.17 0.08,-2.65 0.29,-5.29 0.48,-8.14 a 48.29,48.29 0 0 0 4.32,2.21 5.25,5.25 0 0 1 3.58,4.51 c 0.41,2.56 1.26,5 1.92,7.6 l 3.05,-0.53 v -7 c 1.66,0.87 3.19,1.56 4.58,2.46 a 4.25,4.25 0 0 1 1.5,2 c 0.58,1.54 0.94,3.18 1.4,4.8 l 9.45,-2.49 c -0.87,-3.22 -1.69,-6.26 -2.53,-9.34 -1.71,0.44 -3.27,0.89 -4.85,1.25 z"
     id="path173"
     inkscape:connector-curvature="0"
     style="fill:#ffffff" />
  <rect
     class="cls-4"
     x="162.33"
     y="248.31999"
     width="16.49"
     height="10.27"
     id="rect175"
     style="fill:#ffffff" />
  <path
     class="cls-6"
     d="m 138.65,237.27 c 0,0 29.8,-17 65.69,0"
     id="path177"
     inkscape:connector-curvature="0"
     style="fill:none;stroke:#dcdbdb;stroke-width:3.24000001px;stroke-miterlimit:10" />
  <rect
     style="fill:#ffcc00;fill-opacity:1;stroke:#ffcc00;stroke-width:1.04469;stroke-linecap:square;stroke-linejoin:miter;stroke-miterlimit:10;stroke-dasharray:none;stroke-opacity:1"
     id="rect10156"
     width="67.133949"
     height="2.6207092"
     x="137.7791"
     y="155.66374" />
  <rect
     style="fill:#ffcc00;fill-opacity:1;stroke:#ffcc00;stroke-width:1.63487;stroke-linecap:round;stroke-linejoin:round;stroke-miterlimit:10;stroke-dasharray:none;stroke-opacity:1"
     id="rect10298"
     width="2.1083817"
     height="67.464493"
     x="138.06467"
     y="90.422546" />
  <rect
     style="fill:#ffcc00;fill-opacity:1;stroke:#ffcc00;stroke-width:1.63559;stroke-linecap:round;stroke-linejoin:round;stroke-miterlimit:10;stroke-dasharray:none;stroke-opacity:1"
     id="rect10298-5"
     width="2.1089892"
     height="67.504684"
     x="202.51329"
     y="90.365593" />
  <polygon
     class="cls-13"
     points="255.93,520.23 256.39,532.04 245.64,532.25 245.83,520.23 "
     id="polygon125"
     style="fill:url(#linear-gradient)"
     transform="translate(-79.66,-320.17405)" />
</svg>
