<?xml version="1.0" encoding="UTF-8" standalone="no"?>
<svg
   id="Layer_1"
   data-name="Layer 1"
   viewBox="0 0 403.57001 407.15503"
   version="1.1"
   sodipodi:docname="NYC.svg"
   width="403.57001"
   height="407.15503"
   inkscape:version="1.1.1 (3bf5ae0d25, 2021-09-20)"
   xmlns:inkscape="http://www.inkscape.org/namespaces/inkscape"
   xmlns:sodipodi="http://sodipodi.sourceforge.net/DTD/sodipodi-0.dtd"
   xmlns:xlink="http://www.w3.org/1999/xlink"
   xmlns="http://www.w3.org/2000/svg"
   xmlns:svg="http://www.w3.org/2000/svg"
   xmlns:rdf="http://www.w3.org/1999/02/22-rdf-syntax-ns#"
   xmlns:cc="http://creativecommons.org/ns#"
   xmlns:dc="http://purl.org/dc/elements/1.1/">
  <metadata
     id="metadata466">
    <rdf:RDF>
      <cc:Work
         rdf:about="">
        <dc:format>image/svg+xml</dc:format>
        <dc:type
           rdf:resource="http://purl.org/dc/dcmitype/StillImage" />
        <dc:title />
      </cc:Work>
    </rdf:RDF>
  </metadata>
  <sodipodi:namedview
     pagecolor="#ffffff"
     bordercolor="#666666"
     borderopacity="1"
     objecttolerance="10"
     gridtolerance="10"
     guidetolerance="10"
     inkscape:pageopacity="0"
     inkscape:pageshadow="2"
     inkscape:window-width="1920"
     inkscape:window-height="1017"
     id="namedview464"
     showgrid="false"
     inkscape:zoom="1.7800234"
     inkscape:cx="129.21178"
     inkscape:cy="245.78329"
     inkscape:window-x="1272"
     inkscape:window-y="-8"
     inkscape:window-maximized="1"
     inkscape:current-layer="Layer_1"
     inkscape:pagecheckerboard="0" />
  <defs
     id="defs13">
    <inkscape:path-effect
       effect="spiro"
       id="path-effect25388"
       is_visible="true"
       lpeversion="1" />
    <inkscape:path-effect
       effect="skeletal"
       id="path-effect25201"
       is_visible="true"
       lpeversion="1"
       pattern="M 0,18.867925 C 0,8.4528302 8.4528302,0 18.867925,0 c 10.415094,0 18.867924,8.4528302 18.867924,18.867925 0,10.415094 -8.45283,18.867924 -18.867924,18.867924 C 8.4528302,37.735849 0,29.283019 0,18.867925 Z"
       copytype="single_stretched"
       prop_scale="1"
       scale_y_rel="false"
       spacing="0"
       normal_offset="0"
       tang_offset="0"
       prop_units="false"
       vertical_pattern="false"
       hide_knot="false"
       fuse_tolerance="0" />
    <inkscape:path-effect
       effect="spiro"
       id="path-effect24917"
       is_visible="true"
       lpeversion="1" />
    <inkscape:path-effect
       effect="skeletal"
       id="path-effect1618"
       is_visible="true"
       lpeversion="1"
       pattern="M 0,18.867925 C 0,8.4528302 8.4528302,0 18.867925,0 c 10.415094,0 18.867924,8.4528302 18.867924,18.867925 0,10.415094 -8.45283,18.867924 -18.867924,18.867924 C 8.4528302,37.735849 0,29.283019 0,18.867925 Z"
       copytype="single_stretched"
       prop_scale="1"
       scale_y_rel="false"
       spacing="0"
       normal_offset="0"
       tang_offset="0"
       prop_units="false"
       vertical_pattern="false"
       hide_knot="false"
       fuse_tolerance="0" />
    <inkscape:path-effect
       effect="skeletal"
       id="path-effect1614"
       is_visible="true"
       lpeversion="1"
       pattern="M 0,18.867925 C 0,8.4528302 8.4528302,0 18.867925,0 c 10.415094,0 18.867924,8.4528302 18.867924,18.867925 0,10.415094 -8.45283,18.867924 -18.867924,18.867924 C 8.4528302,37.735849 0,29.283019 0,18.867925 Z"
       copytype="single_stretched"
       prop_scale="1"
       scale_y_rel="false"
       spacing="0"
       normal_offset="0"
       tang_offset="0"
       prop_units="false"
       vertical_pattern="false"
       hide_knot="false"
       fuse_tolerance="0" />
    <inkscape:path-effect
       effect="skeletal"
       id="path-effect1275"
       is_visible="true"
       lpeversion="1"
       pattern="M 0,18.867925 C 0,8.4528302 8.4528302,0 18.867925,0 c 10.415094,0 18.867924,8.4528302 18.867924,18.867925 0,10.415094 -8.45283,18.867924 -18.867924,18.867924 C 8.4528302,37.735849 0,29.283019 0,18.867925 Z"
       copytype="single_stretched"
       prop_scale="1"
       scale_y_rel="false"
       spacing="0"
       normal_offset="0"
       tang_offset="0"
       prop_units="false"
       vertical_pattern="false"
       hide_knot="false"
       fuse_tolerance="0" />
    <inkscape:path-effect
       effect="skeletal"
       id="path-effect961"
       is_visible="true"
       lpeversion="1"
       pattern="M 0,18.867925 C 0,8.4528302 8.4528302,0 18.867925,0 c 10.415094,0 18.867924,8.4528302 18.867924,18.867925 0,10.415094 -8.45283,18.867924 -18.867924,18.867924 C 8.4528302,37.735849 0,29.283019 0,18.867925 Z"
       copytype="single_stretched"
       prop_scale="1"
       scale_y_rel="false"
       spacing="0"
       normal_offset="0"
       tang_offset="0"
       prop_units="false"
       vertical_pattern="false"
       hide_knot="false"
       fuse_tolerance="0" />
    <style
       id="style2">.cls-1,.cls-19,.cls-2,.cls-20,.cls-5{fill:#2074bb;}.cls-1,.cls-15,.cls-18,.cls-19,.cls-20,.cls-4,.cls-5,.cls-6{stroke:#ff8500;}.cls-1,.cls-15{stroke-linecap:round;stroke-linejoin:round;}.cls-1,.cls-15,.cls-19{stroke-width:8.49px;}.cls-14,.cls-16,.cls-18,.cls-3,.cls-31{fill:#ff8500;}.cls-10,.cls-11,.cls-12,.cls-13,.cls-17,.cls-24,.cls-30,.cls-32,.cls-35,.cls-4,.cls-9{fill:none;}.cls-10,.cls-11,.cls-12,.cls-13,.cls-14,.cls-16,.cls-17,.cls-18,.cls-19,.cls-20,.cls-24,.cls-30,.cls-31,.cls-32,.cls-33,.cls-34,.cls-35,.cls-4,.cls-5,.cls-6,.cls-9{stroke-miterlimit:10;}.cls-4{stroke-width:2px;}.cls-14,.cls-5,.cls-6{stroke-width:11.33px;}.cls-15,.cls-25,.cls-6{fill:#125e91;}.cls-7{fill:#0b4f75;}.cls-8{fill:#073e51;}.cls-10,.cls-11,.cls-12,.cls-9{stroke-width:9.07px;}.cls-9{stroke:url(#linear-gradient);}.cls-10{stroke:url(#linear-gradient-2);}.cls-11{stroke:url(#linear-gradient-3);}.cls-12{stroke:url(#linear-gradient-4);}.cls-13{stroke-width:6.04px;stroke:url(#linear-gradient-5);}.cls-14{stroke:#2074bb;}.cls-16,.cls-17,.cls-31,.cls-32,.cls-33,.cls-34,.cls-35{stroke:#fff;}.cls-16,.cls-17{stroke-width:4px;}.cls-18{stroke-width:17px;}.cls-20{stroke-width:6.37px;}.cls-21{fill:#ddad92;}.cls-22,.cls-33,.cls-34{fill:#fff;}.cls-23{fill:#edc4a9;}.cls-24{stroke:#073e51;stroke-width:0.59px;}.cls-26{fill:#cc9b83;}.cls-27{fill:#c69379;}.cls-28{fill:#e0e0e0;}.cls-29{fill:#827a87;}.cls-30{stroke:#0b4f75;stroke-width:3.83px;}.cls-31,.cls-32{stroke-width:2.87px;}.cls-33{stroke-width:1.04px;}.cls-34{stroke-width:1.04px;}.cls-35{stroke-width:3px;}</style>
    <linearGradient
       id="linear-gradient"
       x1="723.26001"
       y1="499.54999"
       x2="723.26001"
       y2="457.25"
       gradientUnits="userSpaceOnUse">
      <stop
         offset="0"
         stop-color="#ff8500"
         id="stop4" />
      <stop
         offset="1"
         stop-color="#ff8500"
         stop-opacity="0"
         id="stop6" />
    </linearGradient>
    <linearGradient
       id="linear-gradient-2"
       x1="761.06"
       y1="499.54999"
       x2="761.06"
       y2="457.25"
       xlink:href="#linear-gradient" />
    <linearGradient
       id="linear-gradient-3"
       x1="730.82001"
       y1="443.60001"
       x2="730.82001"
       y2="423.98001"
       xlink:href="#linear-gradient" />
    <linearGradient
       id="linear-gradient-4"
       x1="753.5"
       y1="443.60001"
       x2="753.5"
       y2="423.98001"
       xlink:href="#linear-gradient" />
    <linearGradient
       id="linear-gradient-5"
       x1="744.25"
       y1="395.16"
       x2="744.25"
       y2="354.23999"
       xlink:href="#linear-gradient" />
    <clipPath
       clipPathUnits="userSpaceOnUse"
       id="clipPath24967">
      <path
         id="path24969"
         style="fill:#ff0000;fill-opacity:1;fill-rule:nonzero;stroke:none"
         d="M 47.007812,-23.441406 V 36.5625 c 0.0053,-0.0084 0.01034,-0.01698 0.01563,-0.02539 1.305956,-2.078252 2.623272,-4.150264 3.96289,-6.207031 1.391318,-2.132262 2.786218,-4.262274 4.21875,-6.367187 1.480285,-2.166166 2.972026,-4.323819 4.507813,-6.451172 1.584883,-2.195721 3.183299,-4.381871 4.835937,-6.527344 1.722974,-2.2237539 3.468848,-4.4294533 5.296875,-6.5683594 1.730838,-2.0216265 3.485062,-4.0235413 5.289063,-5.9804687 1.7663,-1.9127317 3.552838,-3.8079838 5.382812,-5.6601563 1.768957,-1.7865587 3.551123,-3.5598746 5.363281,-5.3027346 1.8887,-1.810323 3.785939,-3.611335 5.736329,-5.355468 2.025715,-1.803189 4.070488,-3.587002 6.177734,-5.294922 0.111617,-0.09005 0.228117,-0.173765 0.339844,-0.263672 z m 248.111328,0 c 1.42866,0.843824 2.87274,1.66227 4.25977,2.574218 2.14608,1.418935 4.26891,2.87418 6.33203,4.41211 1.95798,1.464886 3.89514,2.955193 5.79101,4.5 1.70437,1.390119 3.40283,2.7904142 5.0918,4.1992186 1.82572,1.5250911 3.64394,3.058669 5.42773,4.6328125 1.82547,1.6220589 3.63601,3.26160891 5.38282,4.96875 1.59783,1.566781 3.17784,3.150914 4.70703,4.7851563 1.28397,1.3707728 2.56822,2.7410986 3.83594,4.1269526 1.34779,1.474599 2.68538,2.958563 4,4.462891 1.34585,1.545552 2.68579,3.097241 3.98828,4.679688 1.32103,1.606199 2.63126,3.221248 3.91015,4.861328 1.38283,1.786677 2.74836,3.587049 4.05078,5.433593 1.2902,1.839277 2.56359,3.690502 3.77344,5.583985 1.25935,1.977991 2.50348,3.967447 3.66016,6.007812 0.617,1.099797 1.14584,2.245335 1.72851,3.363282 V -23.441406 Z M 184.35938,2.1074219 c -1.59945,0.00569 -3.19253,0.1184236 -4.78516,0.2539062 -1.81129,0.1776782 -3.61361,0.4321942 -5.41406,0.6953125 -1.96941,0.2932579 -3.93054,0.6401884 -5.88868,1 -1.83637,0.3369534 -3.66136,0.7293255 -5.48046,1.1484375 -1.66383,0.3885527 -3.30958,0.843294 -4.94922,1.3222657 -1.46129,0.4371289 -2.89345,0.9612369 -4.32032,1.4980468 -1.317,0.5136922 -2.59626,1.1137662 -3.87109,1.7226563 -1.44618,0.7076851 -2.86065,1.4778071 -4.26758,2.2597651 -1.4068,0.78759 -2.77254,1.644217 -4.13086,2.511719 -1.37571,0.887181 -2.70923,1.834999 -4.0332,2.796875 -1.41004,1.032304 -2.77773,2.120742 -4.13672,3.21875 -1.39943,1.14036 -2.75416,2.332345 -4.10156,3.533203 -1.43512,1.28934 -2.83033,2.621927 -4.22266,3.957032 -1.458,1.404135 -2.8907,2.832753 -4.31445,4.271484 -1.36938,1.387787 -2.70549,2.809289 -4.02734,4.242187 -1.32605,1.439986 -2.61268,2.91474 -3.88477,4.402344 -1.23134,1.44451 -2.40312,2.936667 -3.56445,4.4375 -1.2632,1.646347 -2.48326,3.325088 -3.69727,5.007813 -1.25377,1.737059 -2.4714,3.500707 -3.67969,5.269531 -1.20659,1.776594 -2.381247,3.574484 -3.554684,5.373047 -1.164156,1.788219 -2.308291,3.58971 -3.443359,5.396484 -1.099623,1.749874 -2.171853,3.514932 -3.238281,5.285157 -0.991714,1.653849 -1.951626,3.326011 -2.898438,5.005859 -0.877923,1.557807 -1.70717,3.142654 -2.517578,4.736328 -0.787402,1.565847 -1.524206,3.155122 -2.246094,4.751953 -0.717471,1.607037 -1.378562,3.238154 -2.029297,4.873047 -0.687019,1.738658 -1.331215,3.493299 -1.964843,5.251953 -0.62126,1.736586 -1.201093,3.488459 -1.765625,5.244142 -0.541296,1.70361 -1.039219,3.419 -1.519532,5.14062 -0.428679,1.53802 -0.788037,3.09413 -1.125,4.6543 -0.344352,1.62677 -0.627179,3.26508 -0.892578,4.90625 -0.254035,1.61361 -0.440783,3.23484 -0.607422,4.85938 -0.165629,1.66372 -0.256124,3.33423 -0.333984,5.0039 -0.06649,1.64033 -0.04957,3.28093 -0.02539,4.92188 0.02887,1.61084 0.145328,3.21889 0.273438,4.82422 0.140273,1.6291 0.351279,3.2486 0.580078,4.86718 0.253451,1.71797 0.568772,3.42543 0.894531,5.13086 0.326353,1.69879 0.716805,3.38531 1.123047,5.06641 0.401361,1.65799 0.868579,3.29657 1.353516,4.93164 0.461224,1.5373 0.998097,3.04992 1.554687,4.55469 0.587805,1.58127 1.253339,3.13072 1.933594,4.67383 0.727333,1.62184 1.523311,3.21153 2.326172,4.79687 0.898218,1.75311 1.834023,3.48679 2.779297,5.21484 0.932142,1.68895 1.906717,3.35338 2.888672,5.01368 1.011349,1.68757 2.053344,3.35543 3.099609,5.02148 1.062045,1.67863 2.145387,3.34591 3.236328,5.00586 1.078749,1.63105 2.181582,3.24386 3.289063,4.85547 1.027375,1.49533 2.098423,2.95994 3.177733,4.41797 1.13379,1.53592 2.29848,3.04999 3.4707,4.55664 1.15967,1.49017 2.34248,2.95969 3.53711,4.42187 1.14778,1.41054 2.33104,2.79345 3.52149,4.16797 1.09819,1.26654 2.23426,2.49803 3.38281,3.71875 1.14458,1.20945 2.32381,2.38602 3.50781,3.55664 1.05285,1.03416 2.14125,2.02933 3.24219,3.01172 1.02896,0.90708 2.09539,1.77102 3.16992,2.62305 1.11662,0.87679 2.26664,1.70849 3.42188,2.5332 1.33187,0.94349 2.68378,1.85826 4.03515,2.77344 1.30677,0.88449 2.63167,1.73892 3.96289,2.58594 1.40971,0.89836 2.83037,1.77932 4.25586,2.65234 1.44077,0.8801 2.89058,1.74664 4.3418,2.60937 1.31737,0.78725 2.65168,1.54599 3.99219,2.29297 1.32694,0.7337 2.66949,1.43713 4.01562,2.13477 1.33266,0.68685 2.68334,1.33853 4.03711,1.98242 1.44701,0.68232 2.90402,1.34442 4.36328,2 1.39986,0.62575 2.80547,1.23728 4.21875,1.83203 0.87046,0.35989 0.42212,0.17594 1.33985,0.55274 l -16.93164,41.21679 h 94.14648 l -1.80273,-19.82226 c -0.41866,0.0317 -0.83356,0.0975 -1.2461,0.17187 -0.0449,0.008 -0.0878,0.0353 -0.13281,0.0274 -0.014,-0.002 0.0271,-0.007 0.041,-0.01 0.17116,-0.0364 0.34151,-0.0767 0.51172,-0.11719 0.16048,-0.0407 0.32052,-0.0823 0.48047,-0.125 0.14795,-0.0413 0.29443,-0.0863 0.44141,-0.13086 0.27664,-0.0818 0.55116,-0.17266 0.82617,-0.25976 0.24083,-0.0775 0.48161,-0.15363 0.7207,-0.23633 0.27688,-0.0958 0.55339,-0.19318 0.82813,-0.29492 0.30674,-0.11251 0.61082,-0.23197 0.91406,-0.35352 0.38486,-0.15322 0.76675,-0.3117 1.14844,-0.47265 0.43013,-0.18069 0.85794,-0.36726 1.28516,-0.55469 0.4447,-0.19541 0.88591,-0.3983 1.32617,-0.60352 0.55693,-0.26061 1.11142,-0.52743 1.66601,-0.79297 0.62676,-0.30219 1.25346,-0.60527 1.87891,-0.91015 0.61824,-0.30293 1.23011,-0.61564 1.84375,-0.92774 0.66073,-0.33549 1.31791,-0.68016 1.97461,-1.02343 0.72486,-0.37899 1.44882,-0.76014 2.17187,-1.14258 0.74979,-0.39747 1.49969,-0.79513 2.24805,-1.19531 0.73339,-0.39506 1.46651,-0.7892 2.19922,-1.18555 0.71848,-0.38632 1.43406,-0.77999 2.14844,-1.17383 0.70764,-0.38954 1.40981,-0.7866 2.11328,-1.18359 0.69668,-0.39694 1.39289,-0.79545 2.08789,-1.19532 0.68815,-0.39392 1.37532,-0.79049 2.06054,-1.18945 0.59434,-0.3452 1.18409,-0.69661 1.76954,-1.05664 0.52013,-0.32454 1.03059,-0.66347 1.53906,-1.00586 0.54944,-0.37633 1.08962,-0.76559 1.6289,-1.15625 0.58468,-0.4282 1.16124,-0.86766 1.73633,-1.30859 0.6231,-0.47345 1.24081,-0.95461 1.85352,-1.44141 0.60742,-0.48218 1.20629,-0.97467 1.80078,-1.47266 0.66002,-0.55277 1.30701,-1.12083 1.95508,-1.6875 0.74808,-0.65796 1.49442,-1.31773 2.23828,-1.98046 0.79627,-0.70898 1.58817,-1.42354 2.37891,-2.13868 0.83486,-0.75499 1.66706,-1.514 2.49609,-2.27539 0.87124,-0.80271 1.73745,-1.60773 2.60351,-2.41601 0.87802,-0.81853 1.74676,-1.64969 2.60938,-2.48438 0.87494,-0.84717 1.73209,-1.71177 2.58398,-2.58203 0.85409,-0.87611 1.68021,-1.77745 2.5,-2.68555 0.5607,-0.6251 1.09471,-1.27315 1.63477,-1.91601 l -2.45508,-3.9668 c -1.24846,0.76194 -2.41682,1.6428 -3.51953,2.60157 -0.48347,0.44752 0.10144,-0.1103 0.18164,-0.1875 0.27428,-0.26411 0.54912,-0.52768 0.81836,-0.79688 0.33104,-0.33382 0.65519,-0.67425 0.98047,-1.01367 0.41562,-0.43091 0.82039,-0.87093 1.22461,-1.3125 0.45119,-0.50386 0.89773,-1.01331 1.3418,-1.52344 0.47985,-0.54804 0.94236,-1.11073 1.40429,-1.67383 0.50426,-0.62414 0.99052,-1.26111 1.48047,-1.89648 0.46339,-0.60619 0.9042,-1.22999 1.34375,-1.85352 0.34656,-0.50498 0.66548,-1.02703 0.98242,-1.55078 0.35537,-0.60442 0.67621,-1.22797 0.9961,-1.85156 0.42564,-0.84501 0.8124,-1.70734 1.19531,-2.57227 0.44954,-1.02329 0.85312,-2.06559 1.25195,-3.10937 0.43207,-1.1453 0.82839,-2.30297 1.20703,-3.4668 0.34107,-1.04339 0.60799,-2.10886 0.8711,-3.17383 0.30311,-1.25257 0.54611,-2.51813 0.77929,-3.78515 0.23601,-1.34388 0.41136,-2.6952 0.58008,-4.04883 0.19976,-1.64618 0.36467,-3.29655 0.52149,-4.94727 0.16047,-1.75632 0.29795,-3.5149 0.43164,-5.27343 0.14306,-1.83259 0.26184,-3.66769 0.38086,-5.50196 0.11888,-1.85445 0.22079,-3.70898 0.32226,-5.56445 0.10655,-1.91484 0.20017,-3.83055 0.29297,-5.74609 0.096,-1.94294 0.17892,-3.88654 0.26172,-5.83008 0.0843,-1.99231 0.16695,-3.98412 0.24805,-5.97657 0.0815,-2.02669 0.15974,-4.05348 0.24414,-6.08007 0.085,-2.04502 0.16941,-4.09184 0.25781,-6.13672 0.0916,-2.10767 0.19701,-4.21351 0.30664,-6.32031 0.11523,-2.09286 0.23966,-4.1852 0.36719,-6.27735 0.1265,-2.01531 0.25732,-4.02979 0.38672,-6.04492 0.12168,-1.87984 0.24335,-3.75996 0.35156,-5.64063 0.0993,-1.63096 0.16618,-3.26315 0.20898,-4.89648 0.0357,-1.25751 -1.4e-4,-2.51542 -0.0566,-3.77148 -0.0774,-1.37922 -0.21134,-2.7526 -0.34765,-4.12696 -0.16228,-1.58728 -0.36244,-3.17156 -0.56641,-4.7539 -0.20566,-1.532715 -0.43938,-3.061564 -0.6875,-4.587894 -0.26375,-1.628417 -0.5511,-3.251932 -0.8457,-4.875 -0.29863,-1.638774 -0.61102,-3.275174 -0.92969,-4.910156 -0.26552,-1.370776 -0.56941,-2.733177 -0.89063,-4.091797 -0.32141,-1.313879 -0.6799,-2.618183 -1.04687,-3.919922 -0.31584,-1.124359 -0.68242,-2.232876 -1.07031,-3.333984 -0.32925,-0.914062 -0.72106,-1.800989 -1.1211,-2.685547 -0.40441,-0.875047 -0.87993,-1.714043 -1.35351,-2.552734 -0.65985,-1.138802 -1.3649,-2.249784 -2.07227,-3.359375 -0.76125,-1.184953 -1.56559,-2.341847 -2.375,-3.494141 -0.80047,-1.124745 -1.64085,-2.219542 -2.48633,-3.310547 -0.94229,-1.202259 -1.90634,-2.386991 -2.87695,-3.566406 -0.96864,-1.175339 -1.96645,-2.326304 -2.9668,-3.474609 -1.01891,-1.16381 -2.05577,-2.311687 -3.0996,-3.453126 -1.11515,-1.218366 -2.24589,-2.423491 -3.375,-3.628906 -0.98122,-1.048472 -1.99948,-2.060081 -3.0254,-3.064453 -1.09326,-1.061757 -2.22957,-2.076518 -3.36914,-3.087891 -1.35992,-1.194572 -2.74347,-2.359462 -4.13281,-3.519531 -1.52118,-1.268548 -3.0509,-2.529509 -4.58594,-3.78125 -1.28356,-1.044687 -2.59597,-2.050976 -3.92187,-3.041015 -1.18945,-0.882278 -2.41615,-1.712615 -3.65234,-2.527344 -1.1862,-0.770169 -2.41078,-1.47467 -3.64063,-2.171875 -1.45317,-0.809829 -2.93269,-1.569698 -4.41406,-2.326172 -1.61396,-0.818476 -3.24605,-1.603185 -4.88086,-2.378906 -1.66564,-0.781016 -3.34333,-1.534479 -5.02539,-2.279297 -1.73894,-0.767834 -3.48753,-1.512294 -5.24024,-2.248047 -1.68867,-0.707444 -3.39044,-1.38181 -5.09765,-2.042969 -1.71733,-0.662542 -3.45007,-1.287363 -5.18555,-1.90039 -1.69878,-0.603175 -3.41515,-1.1532374 -5.13477,-1.6933598 -1.69672,-0.5326624 -3.41027,-1.0055803 -5.12695,-1.46875 -1.76371,-0.4743414 -3.54315,-0.8861857 -5.32422,-1.2890624 -1.86378,-0.4140979 -3.73729,-0.7809626 -5.61328,-1.1347657 -1.92655,-0.3561952 -3.8605,-0.6656504 -5.79687,-0.9628906 -2.0137,-0.3117321 -4.03487,-0.5809503 -6.05664,-0.8339844 -1.99738,-0.2504365 -3.99958,-0.4536919 -6.00391,-0.6386719 -1.998,-0.1820011 -4.00094,-0.3088985 -6.00391,-0.4199218 -1.83787,-0.097164 -3.6776,-0.1182275 -5.51757,-0.1171875 z M 47.007812,218.66992 v 71.98828 h 76.632808 c -0.4059,-0.22053 -0.81875,-0.42813 -1.22265,-0.65234 -1.79305,-1.00042 -3.57661,-2.01805 -5.33985,-3.07031 -1.66419,-0.98947 -3.32654,-1.98241 -4.97851,-2.99219 -1.70071,-1.04203 -3.39403,-2.09422 -5.07617,-3.16602 -1.78019,-1.13359 -3.55317,-2.28141 -5.30078,-3.46484 -1.741146,-1.17929 -3.479832,-2.36081 -5.193363,-3.58008 -1.92786,-1.37864 -3.842071,-2.77927 -5.701172,-4.25 -1.924598,-1.53028 -3.824454,-3.08822 -5.662109,-4.72265 -1.806307,-1.61584 -3.588598,-3.25893 -5.314454,-4.96094 -1.666962,-1.64935 -3.322475,-3.31148 -4.93164,-5.01758 -1.673321,-1.78089 -3.327626,-3.58041 -4.927734,-5.42773 -1.541554,-1.78114 -3.068946,-3.57383 -4.556641,-5.4004 -1.476129,-1.80776 -2.937893,-3.62665 -4.371094,-5.46874 -1.448629,-1.86279 -2.885173,-3.73451 -4.287109,-5.63282 -1.468117,-1.98497 -2.920493,-3.98225 -4.31836,-6.01758 -1.32677,-1.93104 -2.648872,-3.86676 -3.939453,-5.82226 -0.510211,-0.77659 -1.005879,-1.56247 -1.511719,-2.3418 z m 314.050778,15.49805 c -0.73466,1.63779 -1.48019,3.2714 -2.29882,4.86914 -0.93049,1.80405 -1.89248,3.59376 -2.94532,5.33008 -0.98263,1.612 -1.9959,3.20522 -3.08203,4.75 -0.89816,1.27195 -1.80745,2.53582 -2.75781,3.76953 -0.83658,1.08472 -1.67306,2.16855 -2.54102,3.22851 -0.80953,0.98608 -1.62329,1.96893 -2.46289,2.92969 -0.75442,0.86609 -1.51268,1.72804 -2.28515,2.57813 -0.68871,0.75132 -1.38335,1.4997 -2.08985,2.23437 -0.6205,0.64744 -1.2397,1.29474 -1.875,1.92774 -0.50785,0.50567 -1.02004,1.00572 -1.53711,1.50195 -0.49679,0.47776 -0.99478,0.95541 -1.50586,1.41797 -1.41342,1.26957 -2.90921,2.44873 -4.53125,3.44336 l -11.74804,-18.97656 c -0.84437,0.85685 -1.69008,1.71193 -2.55469,2.54882 -0.98375,0.95163 -1.9735,1.89863 -2.97461,2.83203 -0.921,0.8595 -1.84487,1.71686 -2.77148,2.57032 -0.88172,0.8097 -1.7664,1.617 -2.6543,2.41992 -0.84252,0.76195 -1.6848,1.52193 -2.5332,2.27734 -0.80909,0.7208 -1.61969,1.43896 -2.4336,2.1543 -0.79878,0.69834 -1.5984,1.39716 -2.41211,2.07812 -0.78066,0.65342 -1.56784,1.30063 -2.36523,1.9336 -0.73898,0.58666 -1.48139,1.16709 -2.23242,1.73828 -0.77712,0.59551 -1.55841,1.18498 -2.34961,1.76172 -0.80143,0.5803 -1.60466,1.15775 -2.42383,1.71289 -0.83059,0.5585 -1.66805,1.11041 -2.51953,1.63672 -0.77407,0.47507 -1.55238,0.94055 -2.33789,1.39648 -0.72689,0.42317 -1.45561,0.84383 -2.18555,1.26172 -0.76239,0.43861 -1.52653,0.87561 -2.29101,1.31055 -0.78454,0.44274 -1.56824,0.88592 -2.35743,1.32031 -0.78005,0.43003 -1.56129,0.85921 -2.3457,1.28125 -0.7722,0.41766 -1.54536,0.83187 -2.31836,1.24805 -0.78568,0.42011 -1.57216,0.83862 -2.35937,1.25586 -0.76342,0.40378 -1.52763,0.80492 -2.29297,1.20507 -0.74915,0.39157 -1.4982,0.78531 -2.25196,1.16797 -0.24811,0.12619 -0.49781,0.24918 -0.74609,0.375 h 93.37109 z" />
    </clipPath>
  </defs>
  <circle
     class="cls-18"
     cx="96.179993"
     cy="337.73999"
     r="29.370001"
     id="circle205"
     style="fill:#ff8500;stroke:#ff8500;stroke-width:17px;stroke-miterlimit:10" />
  <circle
     class="cls-18"
     cx="304.98001"
     cy="335.83002"
     r="29.370001"
     id="circle207"
     style="fill:#ff8500;stroke:#ff8500;stroke-width:17px;stroke-miterlimit:10" />
  <circle
     class="cls-19"
     cx="200.45999"
     cy="256.91003"
     r="146"
     id="circle209"
     style="fill:#2074bb;stroke:#ff8500;stroke-width:8.48999977px;stroke-miterlimit:10" />
  <path
     class="cls-15"
     d="M 303.06,95.59 A 145.49,145.49 0 0 0 200.5,53.44 c -41.37,0 -77.75,17.21 -104.31,44.85 v 257.3 h 206.87 z"
     id="path211"
     inkscape:connector-curvature="0"
     style="fill:#125e91;stroke:#ff8500;stroke-width:8.48999977px;stroke-linecap:round;stroke-linejoin:round" />
  <line
     class="cls-20"
     x1="97.460007"
     y1="151.25999"
     x2="97.460007"
     y2="362.54999"
     id="line213"
     style="fill:#2074bb;stroke:#ff8500;stroke-width:6.36999989px;stroke-miterlimit:10" />
  <line
     class="cls-20"
     x1="72.619995"
     y1="191.06999"
     x2="72.619995"
     y2="326.98999"
     id="line215"
     style="fill:#2074bb;stroke:#ff8500;stroke-width:6.36999989px;stroke-miterlimit:10" />
  <line
     class="cls-20"
     x1="328.29999"
     y1="191.06999"
     x2="328.29999"
     y2="322.20001"
     id="line217"
     style="fill:#2074bb;stroke:#ff8500;stroke-width:6.36999989px;stroke-miterlimit:10" />
  <line
     class="cls-20"
     x1="303.45999"
     y1="156.36"
     x2="303.45999"
     y2="361.70001"
     id="line219"
     style="fill:#2074bb;stroke:#ff8500;stroke-width:6.36999989px;stroke-miterlimit:10" />
  <rect
     class="cls-7"
     x="139.28"
     y="212.59001"
     width="19.16"
     height="137.92"
     id="rect221"
     style="fill:#0b4f75" />
  <rect
     class="cls-7"
     x="168.00999"
     y="212.59001"
     width="19.16"
     height="137.92"
     id="rect223"
     style="fill:#0b4f75" />
  <polygon
     class="cls-7"
     points="291.4,501.7 301.62,490.21 310.56,501.7 310.56,639.63 291.4,639.63 "
     id="polygon225"
     style="fill:#0b4f75"
     transform="translate(-75.5,-289.11)" />
  <rect
     class="cls-7"
     x="254.20999"
     y="219.23"
     width="19.16"
     height="131.28999"
     id="rect227"
     style="fill:#0b4f75" />
  <rect
     class="cls-7"
     x="116.28999"
     y="275.17004"
     width="26.18"
     height="75.839996"
     id="rect229"
     style="fill:#0b4f75" />
  <rect
     class="cls-7"
     x="157.16"
     y="245.16002"
     width="20.43"
     height="40.23"
     id="rect231"
     style="fill:#0b4f75" />
  <rect
     class="cls-7"
     x="198.01999"
     y="231.74998"
     width="26.82"
     height="80.459999"
     id="rect233"
     style="fill:#0b4f75" />
  <rect
     class="cls-7"
     x="269.54001"
     y="229.18999"
     width="21.07"
     height="121.32"
     id="rect235"
     style="fill:#0b4f75" />
  <rect
     class="cls-7"
     x="147.77"
     y="260.48004"
     width="114.1"
     height="90.669998"
     id="rect237"
     style="fill:#0b4f75" />
  <line
     class="cls-20"
     x1="129.53999"
     y1="357.17999"
     x2="129.53999"
     y2="381.13"
     id="line239"
     style="fill:#2074bb;stroke:#ff8500;stroke-width:6.36999989px;stroke-miterlimit:10" />
  <line
     class="cls-20"
     x1="158.28"
     y1="357.17999"
     x2="158.28"
     y2="399.33002"
     id="line241"
     style="fill:#2074bb;stroke:#ff8500;stroke-width:6.36999989px;stroke-miterlimit:10" />
  <line
     class="cls-20"
     x1="187.01001"
     y1="357.17999"
     x2="187.01001"
     y2="399.33002"
     id="line243"
     style="fill:#2074bb;stroke:#ff8500;stroke-width:6.36999989px;stroke-miterlimit:10" />
  <line
     class="cls-20"
     x1="215.75"
     y1="357.17999"
     x2="215.75"
     y2="399.33002"
     id="line245"
     style="fill:#2074bb;stroke:#ff8500;stroke-width:6.36999989px;stroke-miterlimit:10" />
  <line
     class="cls-20"
     x1="244.48001"
     y1="357.17999"
     x2="244.48001"
     y2="399.33002"
     id="line247"
     style="fill:#2074bb;stroke:#ff8500;stroke-width:6.36999989px;stroke-miterlimit:10" />
  <line
     class="cls-20"
     x1="273.22"
     y1="357.17999"
     x2="273.22"
     y2="380.17004"
     id="line249"
     style="fill:#2074bb;stroke:#ff8500;stroke-width:6.36999989px;stroke-miterlimit:10" />
  <ellipse
     class="cls-21"
     cx="203.54999"
     cy="130.81001"
     rx="42.040001"
     ry="39.439999"
     id="ellipse251"
     style="fill:#ddad92" />
  <polygon
     class="cls-22"
     points="232.3,640.6 321.77,640.6 327.66,495.07 226.41,495.07 "
     id="polygon253"
     style="fill:#ffffff"
     transform="translate(-75.5,-289.11)" />
  <path
     class="cls-8"
     d="m 150.03,202.43 -49.79,20.32 -25.93,93.14 c 0,0 -6.48,25.92 4.72,34.17 11.2,8.25 13.55,17.09 41.83,1.18 h 42.42 z"
     id="path255"
     inkscape:connector-curvature="0"
     style="fill:#073e51" />
  <path
     class="cls-8"
     d="m 252.07,202.43 49.79,20.32 25.93,93.14 c 0,0 6.48,25.92 -4.72,34.17 -11.2,8.25 -13.55,17.09 -41.83,1.18 h -42.42 z"
     id="path257"
     inkscape:connector-curvature="0"
     style="fill:#073e51" />
  <path
     class="cls-23"
     d="m 149.25,171.61 c 0,0 0.32,23.86 1.26,30.5 0.94,6.64 18.67,33.53 51.25,36.55 0,0 36.06,-2.11 50,-35.94 0,0 2.85,-22.05 2.85,-30.21 0,0 11.7,-12.08 13.28,-16.61 1.58,-4.53 2.22,-15.41 -12.33,-18.43 0,0 -4.11,-21.74 -18.67,-23.25 0,0 -14.23,-19.64 -33.21,-18.73 a 45.83,45.83 0 0 0 -38,19 c 0,0 -15.82,2.72 -18.35,23.86 0,0 -15.5,1.51 -12,16.31 0,0.03 10.44,16.95 13.92,16.95 z"
     id="path259"
     inkscape:connector-curvature="0"
     style="fill:#edc4a9" />
  <path
     class="cls-22"
     d="m 128.5,286.98 c 0,0 0.29,25.92 12.08,39.47 l 6.48,-4.12 -0.88,-16.79 -12.38,-21.51 z"
     id="path261"
     inkscape:connector-curvature="0"
     style="fill:#ffffff" />
  <path
     class="cls-7"
     d="m 128.81,292.89 -47.13,28.87 c 0,0 2.94,-9.43 13.55,-16.2 l 33.58,-21.51 z"
     id="path263"
     inkscape:connector-curvature="0"
     style="fill:#0b4f75" />
  <path
     class="cls-7"
     d="m 74.31,315.89 c 0,0 27.11,-43.31 26.22,-77.78 l -0.29,-15.32"
     id="path265"
     inkscape:connector-curvature="0"
     style="fill:#0b4f75" />
  <path
     class="cls-21"
     d="m 255.5,137.47 c 0,0 -4.11,-21.74 -18.67,-23.25 a 56.87,56.87 0 0 0 -16.26,-14.33 60.85,60.85 0 0 0 -6.62,-0.85 c -15.9,-1.18 -15.32,8.25 -15.32,8.25 l -15.9,4.13 15.32,0.59 -2.36,10 c -8,2.87 -1.64,9.44 -3.89,13.58 -3.76,6.89 -12.47,11.23 -12.47,11.23 l 14,14.67 11.17,24.73 v 52.12 c 8.69,-1.28 35.62,-7.46 47.21,-35.62 0,0 2.85,-22.05 2.85,-30.21 0,0 11.7,-12.08 13.28,-16.61 1.58,-4.53 2.25,-15.41 -12.34,-18.43 z"
     id="path267"
     inkscape:connector-curvature="0"
     style="fill:#ddad92" />
  <polygon
     class="cls-7"
     points="224.35,541.62 210.21,554.88 224.94,591.7 231.71,642.37 221.7,594.65 206.38,553.7 214.33,544.27 202.25,541.91 224.35,494.48 209.62,540.44 "
     id="polygon269"
     style="fill:#0b4f75"
     transform="translate(-75.5,-289.11)" />
  <polyline
     class="cls-2"
     points="272.07 548.69 257.34 640.31 297.11 640.31 284.45 547.51"
     id="polyline273"
     style="fill:#2074bb"
     transform="translate(-75.5,-289.11)" />
  <circle
     class="cls-25"
     cx="119.09"
     cy="341.38"
     r="4.52"
     id="circle275"
     style="fill:#125e91" />
  <circle
     class="cls-25"
     cx="129.7"
     cy="332.54004"
     r="4.52"
     id="circle277"
     style="fill:#125e91" />
  <path
     class="cls-7"
     d="m 98.6,228.63 c 5.4,-3.48 16.32,-9.42 29.72,-10.79 19.25,-2 21.71,-15.41 21.71,-15.41 l -49.79,20.32 z"
     id="path279"
     inkscape:connector-curvature="0"
     style="fill:#0b4f75" />
  <path
     class="cls-22"
     d="m 273.58,286.98 c 0,0 -0.29,25.91 -12.08,39.47 l -6.48,-4.12 0.88,-16.79 12.38,-21.51 z"
     id="path281"
     inkscape:connector-curvature="0"
     style="fill:#ffffff" />
  <path
     class="cls-7"
     d="m 273.29,292.89 47.13,28.87 c 0,0 -2.94,-9.43 -13.55,-16.2 l -33.58,-21.51 z"
     id="path283"
     inkscape:connector-curvature="0"
     style="fill:#0b4f75" />
  <path
     class="cls-7"
     d="m 327.79,315.89 c 0,0 -27.11,-43.31 -26.22,-77.78 l 0.29,-15.32"
     id="path285"
     inkscape:connector-curvature="0"
     style="fill:#0b4f75" />
  <path
     style="fill:#ff8500;fill-opacity:1;stroke:#125e91;stroke-width:1;stroke-miterlimit:4;stroke-dasharray:none;stroke-opacity:1"
     d="m 198.72686,298.71998 c -13.81417,-0.97549 -28.07434,-6.11421 -37.94728,-13.67449 -7.48744,-5.73356 -12.76594,-11.3646 -13.04347,-13.91461 -0.0455,-0.4177 -0.13749,-0.89093 -0.20452,-1.05163 -0.88286,-2.11661 -0.90153,-4.95134 -0.0413,-6.25331 1.74612,-2.64242 10.37736,-10.77744 14.74506,-13.89732 27.51125,-19.65158 67.05326,-15.41648 89.82861,9.62096 3.77966,4.15508 4.45758,5.55164 3.88682,8.00706 -0.11906,0.51216 -0.21648,1.15974 -0.21648,1.43903 0,0.28454 -0.11412,0.7901 -0.25955,1.14989 -0.14277,0.35315 -0.32059,0.91959 -0.39514,1.25878 -0.66095,3.00649 -7.35654,10.05593 -14.00752,14.74777 -12.44528,8.77936 -28.50342,13.54533 -42.34535,12.56787 z m -18.03405,-51.74425 c 0.0411,-0.0611 0.21319,-0.11334 0.38226,-0.11604 0.34157,-0.005 0.80514,-1.80731 0.49064,-1.90701 -0.13731,-0.0435 -0.18083,-0.34811 -0.0451,-0.31531 0.21183,0.0512 3.02956,-0.78204 3.2653,-0.96556 0.18679,-0.14542 0.26347,0.004 0.26347,0.514 0,0.87858 0.56691,1.66971 0.9615,1.34181 0.10307,-0.0857 0.28466,-0.14075 0.40354,-0.12244 0.11887,0.0183 0.25353,-0.0226 0.29923,-0.091 0.0632,-0.0946 0.0835,-0.0933 0.0847,0.006 0.003,0.20194 0.18865,0.15316 0.24869,-0.0652 0.0296,-0.10741 -0.0166,-0.58224 -0.10245,-1.0552 -0.15021,-0.82717 -0.13687,-1.16874 0.044,-1.1234 0.24848,0.0623 2.6028,-0.34434 3.41813,-0.59044 0.16858,-0.0509 0.20826,0.0255 0.27432,0.5284 0.1455,1.10747 0.70564,1.93798 1.04489,1.54926 0.075,-0.086 0.31625,-0.15391 0.54688,-0.15391 0.55379,0 0.65432,-0.83158 0.2291,-1.89513 -0.15493,-0.38753 -0.0293,-0.46687 0.86339,-0.54542 0.45136,-0.0398 1.1407,-0.11915 1.53188,-0.17654 1.27141,-0.18651 1.96955,-0.1969 1.96955,-0.0293 0,0.082 -0.0739,0.14904 -0.16413,0.14904 -0.27763,0 -0.20885,0.85899 0.11611,1.45 0.29444,0.53551 0.59386,0.75915 0.59679,0.44575 9.7e-4,-0.10143 0.0365,-0.1338 0.0821,-0.0747 0.0443,0.0572 0.16497,0.11031 0.26836,0.11796 0.10339,0.008 0.31068,0.0432 0.46066,0.0789 0.37898,0.0904 0.50689,-0.18116 0.54889,-1.16547 0.0188,-0.44023 0.0402,-0.93159 0.0474,-1.09191 0.0129,-0.28247 0.0311,-0.2911 0.58777,-0.2783 0.31595,0.007 1.17763,-0.003 1.91484,-0.0211 0.73722,-0.0189 1.34215,-0.0341 1.3443,-0.0339 0.002,3.1e-4 0.0462,0.44532 0.098,0.98901 0.13826,1.45269 0.18221,1.51342 1.10502,1.52665 0.92407,0.0132 0.91737,0.0255 0.81319,-1.48856 -0.0717,-1.04269 -0.065,-1.09718 0.12836,-1.04132 0.11224,0.0324 0.54872,0.0863 0.96998,0.11985 0.42128,0.0334 1.01215,0.087 1.31304,0.11888 0.3009,0.0319 0.83055,0.0648 1.17697,0.0731 0.62988,0.0151 0.62988,0.0151 0.6061,0.84752 -0.0374,1.30913 0.14472,1.75663 0.68671,1.6875 0.29105,-0.0371 0.40642,-0.0187 0.35721,0.057 -0.0447,0.0689 -0.008,0.0882 0.0961,0.0503 0.0929,-0.0339 0.22434,-0.009 0.29228,0.0559 0.30628,0.29126 0.47445,-0.17065 0.49,-1.34591 0.0126,-0.94744 0.0413,-1.12268 0.17908,-1.08925 0.22079,0.0536 1.81976,0.30374 2.29781,0.35949 1.63659,0.19083 1.50081,0.0638 1.55288,1.45288 0.0318,0.84691 0.0898,1.26988 0.17786,1.29782 0.072,0.0228 0.11053,0.0726 0.0858,0.11061 -0.0247,0.0381 0.11038,0.0739 0.30023,0.0798 0.34408,0.0106 0.62243,0.067 0.96174,0.19509 0.28516,0.10764 0.46774,-0.81329 0.37552,-1.89414 -0.0754,-0.88354 -0.0754,-0.88354 0.77929,-0.83034 1.02681,0.0638 1.21726,0.094 2.03468,0.32145 0.34809,0.0969 0.67529,0.15121 0.72711,0.12075 0.0518,-0.0305 0.12244,0.0146 0.15695,0.10012 0.0345,0.0855 0.015,0.15548 -0.0433,0.15548 -0.0583,0 -0.10598,0.096 -0.10598,0.21342 0,0.20646 -0.0116,0.20508 -0.35562,-0.0425 -0.31166,-0.22423 -0.55427,-0.3094 -1.55922,-0.54735 -0.12036,-0.0285 0.19969,0.18281 0.71123,0.46959 0.65287,0.36599 1.00344,0.50397 1.17625,0.46295 0.23915,-0.0568 0.24644,-0.035 0.2546,0.75927 0.015,1.46253 0.12105,1.62638 1.06787,1.65073 0.977,0.0251 1.06141,-0.0878 0.95958,-1.2833 -0.0357,-0.41936 -0.0185,-0.84484 0.038,-0.94552 0.0687,-0.12205 0.0473,-0.38611 -0.0643,-0.79234 -0.092,-0.33511 -0.17332,-0.85326 -0.18067,-1.15144 -0.0164,-0.66485 -1.32839,-1.23441 -1.74645,-0.75817 -0.22187,0.25276 -0.29993,0.24872 -2.40283,-0.12483 -1.32473,-0.23532 -1.39174,-0.25932 -1.42245,-0.50953 -0.0324,-0.26396 -0.0261,-0.26082 -1.52356,-0.75989 -0.0379,-0.0126 -0.19768,0.10797 -0.35509,0.26801 -0.24905,0.25321 -0.33842,0.28164 -0.6888,0.21913 -0.22144,-0.0395 -1.04587,-0.1476 -1.83208,-0.2402 -1.26679,-0.14921 -1.43391,-0.19191 -1.46866,-0.37522 -0.0572,-0.30152 -0.13217,-0.34889 -0.73305,-0.46302 -0.29879,-0.0567 -0.65266,-0.13279 -0.78635,-0.16899 -0.19081,-0.0516 -0.27107,-0.008 -0.37317,0.20569 -0.15313,0.3196 -0.52899,0.34496 -2.41621,0.16298 -0.619,-0.0597 -1.37344,-0.13206 -1.67649,-0.1608 -0.51366,-0.0487 -0.55076,-0.0713 -0.5471,-0.33371 0.004,-0.27794 -0.006,-0.28183 -0.79949,-0.31221 -0.8797,-0.0336 -1.11142,0.0622 -1.11142,0.45973 0,0.2474 0,0.2474 -1.50454,0.24882 -0.82747,0.002 -1.60893,0.0281 -1.73657,0.0607 -0.18634,0.0475 -0.24733,0.002 -0.30958,-0.23451 -0.1343,-0.50889 -1.75806,-0.7185 -1.8886,-0.24379 -0.0315,0.11446 -0.1229,0.20811 -0.20315,0.20811 -0.0803,0 -0.18559,0.0674 -0.23406,0.14976 -0.0687,0.11669 -3.39936,0.68269 -4.01734,0.68269 -0.1247,0 -0.0606,-0.29571 0.0734,-0.3386 0.23907,-0.0765 -0.12985,-0.39423 -0.39548,-0.3406 -0.12852,0.0259 -0.47988,0.0737 -0.78078,0.10614 -0.593,0.0639 -0.93007,0.32309 -0.93007,0.71517 0,0.20315 -0.1513,0.25492 -1.69183,0.57872 -1.83803,0.38634 -1.88054,0.38676 -1.83023,0.0179 0.0765,-0.56042 -1.87966,-0.13562 -1.97015,0.42785 -0.0388,0.2414 -0.32774,0.34238 -2.15965,0.75472 -1.25083,0.28154 -1.25083,0.28154 -1.44125,0.0415 -0.19042,-0.24007 -0.19042,-0.24007 -0.99228,0.004 -0.9555,0.29142 -0.96216,0.29924 -0.96429,1.13201 -9.7e-4,0.42449 -0.0637,0.74403 -0.1784,0.9105 -0.0972,0.14106 -0.12708,0.25648 -0.0664,0.25648 0.15672,0 0.22566,0.21489 0.4025,1.2547 0.23512,1.38249 0.6621,1.90863 1.0644,1.31159 z"
     id="path2548" />
  <path
     style="fill:none;stroke:#125e91;stroke-width:1px;stroke-linecap:butt;stroke-linejoin:miter;stroke-opacity:1;fill-opacity:1;opacity:0.37587007"
     d="m 147.17956,268.73676 c 35.04154,11.32724 73.68894,11.18593 108.64671,-0.39724 0.19874,-0.0659 0.39737,-0.13206 0.59587,-0.19863"
     id="path25386"
     inkscape:path-effect="#path-effect25388"
     inkscape:original-d="m 147.17956,268.73676 c 36.21657,-0.13141 72.43214,-0.26383 108.64671,-0.39724 36.21458,-0.13342 0.39825,-0.13142 0.59587,-0.19863" />
  <polygon
     class="cls-7"
     points="328.75,541.62 342.89,554.88 328.16,591.7 321.39,642.37 331.4,594.65 346.72,553.7 338.77,544.27 350.85,541.91 328.75,494.48 343.48,540.44 "
     id="polygon287"
     style="fill:#0b4f75"
     transform="translate(-75.5,-289.11)" />
  <circle
     class="cls-25"
     cx="283.01001"
     cy="341.38"
     r="4.52"
     id="circle289"
     style="fill:#125e91" />
  <circle
     class="cls-25"
     cx="272.39999"
     cy="332.54004"
     r="4.52"
     id="circle291"
     style="fill:#125e91" />
  <path
     class="cls-7"
     d="m 273.78,217.89 c 13.4,1.37 24.32,7.31 29.72,10.79 l -1.64,-5.88 -49.79,-20.32 c 0,0 2.43,13.41 21.71,15.41 z"
     id="path293"
     inkscape:connector-curvature="0"
     style="fill:#0b4f75" />
  <path
     class="cls-21"
     d="m 152.09,152.05 c 0,0 10,5.3 21.8,-2.36 l -13,12.38 1.17,16.49 z"
     id="path295"
     inkscape:connector-curvature="0"
     style="fill:#ddad92" />
  <path
     class="cls-21"
     d="m 143.5,139.32 c -4.34,1.54 -10.46,5.5 -8.14,15.37 0,0 6.89,11.16 11.34,15.35 l 2.58,1.57 -2.17,-31.34 z"
     id="path297"
     inkscape:connector-curvature="0"
     style="fill:#ddad92" />
  <path
     class="cls-26"
     d="m 147.67,154.11 c 0,0 -3.24,-5.59 -8.54,-2.65 0,0 1.47,-7.07 8.83,-3.53"
     id="path299"
     inkscape:connector-curvature="0"
     style="fill:#cc9b83" />
  <path
     class="cls-27"
     d="m 252.25,152.05 c 0,0 -10,5.3 -21.8,-2.36 l 13,12.38 -1.17,16.49 z"
     id="path301"
     inkscape:connector-curvature="0"
     style="fill:#c69379" />
  <path
     class="cls-27"
     d="m 198.98,153.89 c -8.06,0 -15.2,-2.79 -19.65,-7.1 a 10.76,10.76 0 0 0 -0.14,1.71 c 0,8.13 9.23,14.73 20.62,14.73 11.39,0 20.63,-6.6 20.63,-14.73 a 10.67,10.67 0 0 0 -0.48,-3.14 c -4.25,5.13 -12.05,8.53 -20.98,8.53 z"
     id="path303"
     inkscape:connector-curvature="0"
     style="fill:#c69379" />
  <path
     class="cls-21"
     d="m 182.14,203.89 a 48.68,48.68 0 0 0 37.12,0 c 0,0 -15.91,22.4 -37.12,0 z"
     id="path305"
     inkscape:connector-curvature="0"
     style="fill:#ddad92" />
  <rect
     class="cls-21"
     x="193.92001"
     y="192.12001"
     width="16.5"
     height="6.6799998"
     rx="3.3399999"
     id="rect307"
     style="fill:#ddad92" />
  <polyline
     class="cls-23"
     points="278.46 489.48 289.06 491.44 277.67 492.62"
     id="polyline309"
     style="fill:#edc4a9"
     transform="translate(-75.5,-289.11)" />
  <path
     class="cls-8"
     d="m 167.6,163.15 c 0,0 32.58,22.05 66.43,0 0,0 -5.38,25.07 -32.59,24.77 0,0 -23.09,1.81 -34.16,-22 z"
     id="path311"
     inkscape:connector-curvature="0"
     style="fill:#073e51" />
  <path
     class="cls-22"
     d="m 220.63,176.01 h -36.92 c -4.26,0 -5.75,1.85 -6.22,3.54 a 36.09,36.09 0 0 0 23.95,8.34 c 10.34,0.11 17.52,-3.44 22.46,-7.88 a 7.64,7.64 0 0 0 -3.27,-4 z"
     id="path313"
     inkscape:connector-curvature="0"
     style="fill:#ffffff" />
  <path
     class="cls-28"
     d="m 222.5,178.4 a 6.73,6.73 0 0 0 -1.89,-1.8 h -36.9 a 6.83,6.83 0 0 0 -4.83,1.51 c 2,1.71 4.37,2.25 7.21,2.92 7.46,1.75 27.48,4.51 36.41,-2.63 z"
     id="path315"
     inkscape:connector-curvature="0"
     style="fill:#e0e0e0" />
  <path
     class="cls-22"
     d="m 226.79,167.22 c -22.15,10.63 -42.77,4.06 -52.81,-0.61 0.65,0.3 2.1,5.84 2.78,6.79 2.48,3.43 5.44,4 9.33,4.87 9.54,2 39.62,5.56 40.83,-10.11 a 2.41,2.41 0 0 0 -0.13,-0.94 z"
     id="path317"
     inkscape:connector-curvature="0"
     style="fill:#ffffff" />
  <path
     class="cls-8"
     d="m 169.98,109.4 c 0,0 -9.94,10 -11.31,23.73 l -9.32,23.49 a 59.68,59.68 0 0 1 -2,-20.75 c 0.81,-11.83 6,-30.73 22.63,-26.47 z"
     id="path319"
     inkscape:connector-curvature="0"
     style="fill:#073e51" />
  <path
     class="cls-8"
     d="m 234.88,109.4 c 0,0 9.93,10 11.31,23.73 l 9.31,23.49 a 59.68,59.68 0 0 0 2.06,-20.73 C 256.7,124.04 251.5,105.14 234.88,109.4 Z"
     id="path321"
     inkscape:connector-curvature="0"
     style="fill:#073e51" />
  <path
     class="cls-29"
     d="m 188.7,124.82 c 0,0 -5.17,-3.76 -10.38,-4.24 -5.21,-0.48 -8.91,-1.88 -7.91,-6.23 a 21.39,21.39 0 0 0 6.43,3.14 c 3.13,0.73 10.92,0.33 11.86,7.33 z"
     id="path323"
     inkscape:connector-curvature="0"
     style="fill:#827a87" />
  <path
     class="cls-29"
     d="m 213.26,124.82 c 0,0 5.18,-3.76 10.38,-4.24 5.2,-0.48 8.92,-1.88 7.91,-6.23 a 21.28,21.28 0 0 1 -6.42,3.14 c -3.13,0.73 -10.92,0.33 -11.87,7.33 z"
     id="path325"
     inkscape:connector-curvature="0"
     style="fill:#827a87" />
  <polyline
     class="cls-27"
     points="301.24 416.41 314.5 416.41 303.6 420.24"
     id="polyline327"
     style="fill:#c69379"
     transform="translate(-75.5,-289.11)" />
  <polyline
     class="cls-23"
     points="274.92 393.83 286.12 393.24 274.92 391.08"
     id="polyline329"
     style="fill:#edc4a9"
     transform="translate(-75.5,-289.11)" />
  <path
     class="cls-27"
     d="m 211.3,131.58 c 0,0 1.92,14.14 22.1,6.33 0,0 2.65,-2.95 0.14,-2.95 -2.51,0 -3.83,1 -5.74,1 -1.91,0 -11.05,2.07 -13.4,-3.38 -2.35,-5.45 0.44,-2.36 0.44,-2.36 l -3.24,-0.44"
     id="path331"
     inkscape:connector-curvature="0"
     style="fill:#c69379" />
  <path
     class="cls-21"
     d="m 192.2,131.58 c 0,0 -1.92,14.14 -22.1,6.33 0,0 -2.65,-2.95 -0.14,-2.95 2.51,0 3.83,1 5.74,1 1.91,0 11.05,2.07 13.41,-3.38 2.36,-5.45 -0.45,-2.36 -0.45,-2.36 l 3.24,-0.44"
     id="path333"
     inkscape:connector-curvature="0"
     style="fill:#ddad92" />
  <ellipse
     class="cls-22"
     cx="221.60999"
     cy="129.81001"
     rx="10.02"
     ry="3.3900001"
     id="ellipse335"
     style="fill:#ffffff" />
  <circle
     class="cls-3"
     cx="222.39999"
     cy="130.24998"
     r="2.95"
     id="circle337"
     style="fill:#ff8500" />
  <polyline
     class="cls-21"
     points="251.75 415.82 242.61 417.89 249.98 420.24"
     id="polyline339"
     style="fill:#ddad92"
     transform="translate(-75.5,-289.11)" />
  <ellipse
     class="cls-22"
     cx="182.14001"
     cy="129.81001"
     rx="10.02"
     ry="3.3900001"
     id="ellipse341"
     style="fill:#ffffff" />
  <circle
     class="cls-3"
     cx="182.32999"
     cy="130.24998"
     r="2.95"
     id="circle343"
     style="fill:#ff8500" />
  <path
     class="cls-21"
     d="m 272.35,295.19 a 43.18,43.18 0 0 1 -8.56,18.87 c 0,0 -1.82,1.28 -5.09,0.16 -3.27,-1.12 -14.91,-15.85 -16.2,-16.21 0,0 -8.21,-1.06 -12.83,-1.35 -4.62,-0.29 -11.46,0.76 -13.53,-1.07 -2.07,-1.83 -2.13,-4.52 -1.76,-5.12 0.37,-0.6 5.32,-1.45 8.36,-1.31 3.04,0.14 15.46,-2.18 16.11,-2.86 0.65,-0.68 2,-1 0.21,-3.43 -1.79,-2.43 -8.43,-8.83 -8.43,-8.83 0,0 -8.66,-3 -9.49,-4.36 -0.83,-1.36 -1.2,-5.95 -1.2,-5.95 0,0 0.44,-4.72 4.05,-1.81 0,0 6.65,3.85 10.42,4.39 3.77,0.54 7.33,0.77 7.33,0.77 0,0 1.49,-5.37 -5.82,-8.5 -5.33,-2.28 -10.49,-5.47 -11.54,-8.59 -1.05,-3.12 -0.83,-6.54 0.66,-6.68 0,0 1.4,-1.88 7.39,2.65 0,0 -6,-3.19 -6.78,-7.6 0,0 -1.88,-5.14 3.46,-4.45 l 2.33,0.41 3.71,3.86 4.18,4.21 c 0,0 6.28,2.18 10.94,10.48 4.66,8.3 9,16.26 9.73,19.46 0.73,3.2 12.35,22.86 12.35,22.86 z"
     id="path357"
     inkscape:connector-curvature="0"
     style="fill:#ddad92" />
  <path
     class="cls-27"
     d="m 229.56,243.97 9.71,5.49 -13.6,-11.1 c 0.43,2.29 2.24,4.25 3.89,5.61 z"
     id="path359"
     inkscape:connector-curvature="0"
     style="fill:#c69379" />
  <path
     class="cls-27"
     d="m 244.68,267.27 c 0.45,-10.37 -10.37,-14 -14.87,-15.33 -3.25,-1 -5.21,-3.82 -6.05,-5.33 a 12.48,12.48 0 0 0 0.64,3.38 c 1.05,3.12 6.21,6.31 11.54,8.59 7.31,3.13 5.82,8.5 5.82,8.5 z"
     id="path361"
     inkscape:connector-curvature="0"
     style="fill:#c69379" />
  <path
     class="cls-27"
     d="m 238.93,286.24 8.23,-1.62 c -2,-7.89 -15.32,-13.3 -19.16,-13.75 -3.84,-0.45 -7.52,-3.92 -7.65,-4 a 10.06,10.06 0 0 0 0.81,2.85 c 0.83,1.35 9.49,4.36 9.49,4.36 0,0 6.6,6.37 8.43,8.83 1.83,2.46 0.53,2.69 -0.15,3.33 z"
     id="path363"
     inkscape:connector-curvature="0"
     style="fill:#c69379" />
  <path
     class="cls-27"
     d="m 243.56,293.41 c 0,0 -20.21,2.13 -28.39,1 a 5.92,5.92 0 0 0 1,1.17 c 2.07,1.83 8.92,0.78 13.53,1.07 4.61,0.29 12.8,1.36 12.8,1.36 a 2.81,2.81 0 0 1 0.77,0.61 c 3.07,-0.76 6.89,-1.83 7,-2.5 0.23,-1.13 -6.71,-2.71 -6.71,-2.71 z"
     id="path365"
     inkscape:connector-curvature="0"
     style="fill:#c69379" />
  <path
     class="cls-23"
     d="m 131.1,294.14 a 43.43,43.43 0 0 0 8.6,19 c 0,0 1.83,1.28 5.12,0.16 3.29,-1.12 15,-15.92 16.25,-16.28 0,0 8.25,-1.07 12.88,-1.36 4.63,-0.29 11.52,0.76 13.61,-1.08 2.09,-1.84 2.14,-4.53 1.76,-5.14 -0.38,-0.61 -5.35,-1.45 -8.4,-1.31 -3.05,0.14 -15.53,-2.2 -16.19,-2.88 -0.66,-0.68 -2,-1 -0.21,-3.45 1.79,-2.45 8.47,-8.87 8.47,-8.87 0,0 8.7,-3 9.53,-4.37 0.83,-1.37 1.22,-6 1.22,-6 0,0 -0.45,-4.74 -4.08,-1.82 0,0 -6.67,3.87 -10.46,4.41 -3.79,0.54 -7.36,0.77 -7.36,0.77 0,0 -1.51,-5.39 5.84,-8.54 5.35,-2.29 10.54,-5.49 11.59,-8.62 1.05,-3.13 0.84,-6.58 -0.66,-6.72 0,0 -1.41,-1.89 -7.43,2.67 0,0 6,-3.21 6.81,-7.65 0,0 1.9,-5.15 -3.47,-4.47 l -2.34,0.42 -3.68,3.88 -4.2,4.23 c 0,0 -6.3,2.19 -11,10.52 -4.7,8.33 -9,16.34 -9.78,19.56 -0.78,3.22 -12.42,22.94 -12.42,22.94 z"
     id="path367"
     inkscape:connector-curvature="0"
     style="fill:#edc4a9" />
  <path
     class="cls-21"
     d="m 174.09,242.68 -9.76,5.52 13.66,-11.16 c -0.42,2.31 -2.24,4.28 -3.9,5.64 z"
     id="path369"
     inkscape:connector-curvature="0"
     style="fill:#ddad92" />
  <path
     class="cls-21"
     d="m 158.9,266.09 c -0.46,-10.42 10.41,-14 14.94,-15.4 3.27,-1 5.23,-3.83 6.08,-5.36 a 12.79,12.79 0 0 1 -0.65,3.41 c -1.05,3.13 -6.24,6.33 -11.59,8.62 -7.35,3.15 -5.84,8.54 -5.84,8.54 z"
     id="path371"
     inkscape:connector-curvature="0"
     style="fill:#ddad92" />
  <path
     class="cls-21"
     d="m 164.67,285.15 -8.27,-1.62 c 2,-7.93 15.4,-13.37 19.25,-13.82 3.85,-0.45 7.56,-3.94 7.69,-4.06 a 9.87,9.87 0 0 1 -0.82,2.87 c -0.83,1.35 -9.53,4.37 -9.53,4.37 0,0 -6.63,6.4 -8.47,8.87 -1.84,2.47 -0.52,2.74 0.15,3.39 z"
     id="path373"
     inkscape:connector-curvature="0"
     style="fill:#ddad92" />
  <path
     class="cls-21"
     d="m 160.03,292.36 c 0,0 20.3,2.13 28.51,1 a 5.3,5.3 0 0 1 -1,1.17 c -2.09,1.84 -9,0.79 -13.61,1.08 -4.61,0.29 -12.88,1.36 -12.88,1.36 a 3,3 0 0 0 -0.78,0.61 c -3.08,-0.76 -6.92,-1.84 -7.06,-2.52 -0.2,-1.12 6.82,-2.7 6.82,-2.7 z"
     id="path375"
     inkscape:connector-curvature="0"
     style="fill:#ddad92" />
  <path
     class="cls-8"
     d="m 2.02,156.68 c 0.5,-2.22 2.32,-3.07 5.2,-2.41 l 3.29,0.74 a 4.15,4.15 0 0 1 3.07,2.31 4,4 0 0 1 3.81,-1 l 3.79,0.86 c 2.88,0.65 4.16,2.2 3.66,4.42 L 22.78,170.72 0,165.6 Z m 9,2.66 c 0.07,-0.32 -0.11,-0.54 -0.52,-0.63 l -3.8,-0.86 c -0.41,-0.09 -0.67,0 -0.74,0.34 l -1.09,4.83 5.06,1.15 z m 9.53,1.95 c 0.08,-0.32 -0.11,-0.54 -0.52,-0.63 l -4.3,-1 c -0.41,-0.1 -0.67,0 -0.74,0.34 l -1.14,5 5.65,1.31 z"
     id="path377"
     inkscape:connector-curvature="0"
     style="fill:#073e51" />
  <path
     class="cls-8"
     d="m 26.72,138.09 4.46,3 -1.42,3.53 -19.53,-14 1.62,-4 23.8,3.4 -1.47,3.66 -5.3,-0.91 z m -11.37,-7.7 7.74,5.24 1.48,-3.66 z"
     id="path379"
     inkscape:connector-curvature="0"
     style="fill:#073e51" />
  <path
     class="cls-8"
     d="m 29.69,92.64 20,12.15 -1.82,3 -17.17,-2.3 13.55,8.25 -1.77,2.9 -19.98,-12.15 2,-3.21 16.6,2.24 -13.11,-8 z"
     id="path381"
     inkscape:connector-curvature="0"
     style="fill:#073e51" />
  <path
     class="cls-8"
     d="m 55.17,81.25 -0.86,1 7.47,6.43 -2.35,2.73 -17.7,-15.24 2.35,-2.73 7.08,6.1 0.88,-1 -3.89,-9.8 2.68,-3.11 4.76,12 13.1,3.07 -2.75,3.2 z"
     id="path383"
     inkscape:connector-curvature="0"
     style="fill:#073e51" />
  <path
     class="cls-8"
     d="m 73.23,44.89 2.77,3.26 -6.22,5.29 3.26,3.83 5,-4.29 2.73,3.21 -5,4.29 3.59,4.22 6.23,-5.3 2.77,3.26 -9,7.63 -15.09,-17.8 z"
     id="path385"
     inkscape:connector-curvature="0"
     style="fill:#073e51" />
  <path
     class="cls-8"
     d="m 109.17,48.43 -7,-5.86 -2.47,1.52 4.54,7.38 -3.07,1.88 -12.22,-19.9 7.86,-4.82 c 1.93,-1.19 3.81,-0.48 5.35,2 l 2.94,4.78 c 1.27,2.07 1.35,3.81 0.24,5 l 7.14,5.94 z M 101.8,37.89 c 0.28,-0.17 0.31,-0.45 0.09,-0.81 L 99.26,32.8 c -0.22,-0.36 -0.49,-0.47 -0.77,-0.3 l -4.28,2.63 3.31,5.39 z"
     id="path387"
     inkscape:connector-curvature="0"
     style="fill:#073e51" />
  <path
     class="cls-8"
     d="m 127.11,19.11 c -0.16,-0.39 -0.41,-0.53 -0.71,-0.41 l -4,1.65 c -0.3,0.12 -0.38,0.4 -0.22,0.79 l 1.07,2.58 c 0.27,0.66 0.53,0.76 1.21,0.69 l 4.79,-0.58 c 2.27,-0.27 4,0.24 5.11,2.93 l 1.56,3.78 c 1.13,2.73 0.61,4.66 -1.49,5.53 l -5.31,2.2 c -2.1,0.87 -3.84,-0.12 -5,-2.85 l -1.12,-2.7 3.23,-1.34 1,2.4 c 0.16,0.39 0.41,0.53 0.71,0.41 l 4.29,-1.78 c 0.3,-0.13 0.38,-0.4 0.22,-0.79 l -1.17,-2.82 c -0.28,-0.66 -0.53,-0.76 -1.21,-0.69 l -4.79,0.58 c -2.27,0.27 -4,-0.24 -5.11,-2.93 l -1.47,-3.54 c -1.12,-2.73 -0.6,-4.66 1.5,-5.53 l 5,-2.07 c 2.1,-0.87 3.84,0.13 5,2.85 l 1,2.46 -3.23,1.34 z"
     id="path389"
     inkscape:connector-curvature="0"
     style="fill:#073e51" />
  <path
     class="cls-8"
     d="m 174.5,25.35 c -2.25,0.29 -3.67,-1.12 -4.05,-4 L 168.6,7.2 c -0.39,-2.93 0.62,-4.66 2.88,-5 l 6.07,-0.79 c 2.26,-0.3 3.68,1.12 4.06,4 l 1.89,14.19 c 0.38,2.92 -0.63,4.66 -2.88,5 z m -0.54,-4.9 c 0.06,0.41 0.26,0.62 0.58,0.57 l 4.89,-0.63 c 0.32,-0.05 0.46,-0.29 0.41,-0.71 L 178.09,6.3 c -0.05,-0.42 -0.26,-0.62 -0.58,-0.58 l -4.88,0.64 c -0.33,0 -0.47,0.29 -0.41,0.71 z"
     id="path391"
     inkscape:connector-curvature="0"
     style="fill:#073e51" />
  <path
     class="cls-8"
     d="m 200.68,0 11.77,0.27 -0.09,4.28 -8.17,-0.19 -0.12,5.22 6.62,0.15 -0.09,4.22 -6.63,-0.15 -0.21,9.63 -3.6,-0.09 z"
     id="path393"
     inkscape:connector-curvature="0"
     style="fill:#073e51" />
  <path
     class="cls-8"
     d="m 265.64,10.25 -6.56,22.42 -3.36,-1 -2.22,-17.17 -4.45,15.22 -3.26,-0.95 6.55,-22.42 3.6,1.06 2.15,16.61 4.31,-14.72 z"
     id="path395"
     inkscape:connector-curvature="0"
     style="fill:#073e51" />
  <path
     class="cls-8"
     d="m 295.2,22.7 -1.84,3.86 -7.38,-3.52 -2.17,4.53 6,2.86 -1.82,3.81 -6,-2.86 -2.39,5 7.38,3.53 -1.84,3.86 -10.64,-5.08 10.07,-21.07 z"
     id="path397"
     inkscape:connector-curvature="0"
     style="fill:#073e51" />
  <path
     class="cls-8"
     d="m 308.84,58.66 6.83,-14.09 -11.11,11 -3.23,-2.31 9.8,-21.7 3.05,2.18 -7.68,15.87 12.48,-12.37 2.48,1.77 -7.6,15.88 12.48,-12.37 2.93,2.09 -17.34,16.28 z"
     id="path399"
     inkscape:connector-curvature="0"
     style="fill:#073e51" />
  <path
     class="cls-8"
     d="m 341.74,89.89 6.3,-5.06 8.33,-14 2.45,3 -5.87,9.37 10.41,-3.72 2.41,3 -15.48,5.13 -6.29,5.06 z"
     id="path401"
     inkscape:connector-curvature="0"
     style="fill:#073e51" />
  <path
     class="cls-8"
     d="m 357.13,111.69 c -1.13,-2 -0.37,-3.82 2.19,-5.3 l 12.36,-7.14 c 2.55,-1.47 4.54,-1.21 5.68,0.76 l 3.06,5.3 c 1.14,2 0.37,3.83 -2.18,5.3 l -12.36,7.14 c -2.56,1.48 -4.55,1.21 -5.69,-0.76 z m 4.32,-2.38 c -0.36,0.21 -0.47,0.48 -0.31,0.76 l 2.46,4.26 c 0.16,0.28 0.45,0.32 0.81,0.11 l 11.69,-6.75 c 0.36,-0.21 0.47,-0.47 0.31,-0.76 l -2.46,-4.26 c -0.16,-0.28 -0.45,-0.32 -0.81,-0.11 z"
     id="path403"
     inkscape:connector-curvature="0"
     style="fill:#073e51" />
  <path
     class="cls-8"
     d="m 372.2,143.41 7.06,-5.79 -1,-2.71 -8.09,3.08 -1.28,-3.36 21.82,-8.32 3.28,8.62 c 0.81,2.12 -0.24,3.83 -3,4.89 l -5.24,2 c -2.27,0.87 -4,0.62 -5,-0.69 l -7.16,5.91 z m 11.7,-5.29 c 0.11,0.31 0.39,0.39 0.78,0.24 l 4.7,-1.79 c 0.39,-0.15 0.54,-0.4 0.43,-0.7 l -1.79,-4.7 -5.91,2.26 z"
     id="path405"
     inkscape:connector-curvature="0"
     style="fill:#073e51" />
  <path
     class="cls-8"
     d="m 388.5,164.81 -0.27,-1.3 -9.65,2 -0.73,-3.53 22.87,-4.72 0.73,3.53 -9.15,1.89 0.27,1.32 10.17,2.89 0.83,4 -12.39,-3.54 -10.43,8.54 -0.85,-4.14 z"
     id="path407"
     inkscape:connector-curvature="0"
     style="fill:#073e51" />
  <path
     class="cls-22"
     d="m 166.35,107.89 c -8.84,1.34 -15.17,7 -18.33,16.46 a 43.54,43.54 0 0 0 -2.12,12.8 c -4.82,0.88 -8.31,2.94 -10.39,6.13 -3.42,5.25 -1.64,11.55 -1.56,11.81 l 0.05,0.14 c 5.48,13.48 11.22,16.76 13.84,17.56 l 0.72,28.68 -49.49,20.21 -9.57,30.5 -14.67,53.33 c -4.68,17 -5.33,30.11 -2,40.17 1.4,4.2 6.93,8.52 12.35,11.9 a 28.24,28.24 0 0 0 10.06,2.3 c -6.67,-3.34 -17.94,-9.89 -19.68,-15.11 -3.17,-9.5 -2.5,-22.09 2,-38.5 l 14.64,-53.28 9.21,-29.16 50.09,-20.45 -0.8,-31.81 -0.07,-1.31 -1.31,-0.09 c -0.06,0 -6.36,-0.6 -12.62,-15.94 -0.15,-0.6 -1.3,-5.51 1.24,-9.4 1.78,-2.72 5,-4.41 9.61,-5 l 1.31,-0.17 -0.06,-1.31 c 0,-0.26 -0.9,-25.2 18.56,-27.67 l 0.64,-0.08 0.37,-0.54 c 0.12,-0.19 12.9,-18.66 35.1,-17.23 l 0.19,-2.87 c -21.93,-1.46 -34.93,14.69 -37.31,17.93 z"
     id="path457"
     inkscape:connector-curvature="0"
     style="fill:#ffffff" />
  <path
     class="cls-8"
     d="m 237.43,107.89 c 8.71,1.34 14.95,7 18.06,16.46 a 44.19,44.19 0 0 1 2.08,12.8 c 4.75,0.88 8.19,2.94 10.24,6.13 3.37,5.25 1.61,11.55 1.54,11.81 l -0.05,0.14 c -5.4,13.48 -11.05,16.76 -13.64,17.56 l -0.71,28.68 48.75,20.21 9.48,30.5 14.45,53.33 c 4.61,17 5.25,30.11 1.94,40.17 -1.37,4.2 -6.81,8.52 -12.15,11.9 a 27.51,27.51 0 0 1 -9.92,2.31 c 6.57,-3.34 17.68,-9.89 19.39,-15.11 3.12,-9.5 2.47,-22.09 -2,-38.5 l -14.39,-53.29 -9.07,-29.16 -49.33,-20.45 0.79,-31.81 0.07,-1.31 1.29,-0.09 c 0.06,0 6.26,-0.6 12.42,-15.94 0.16,-0.6 1.29,-5.51 -1.21,-9.4 -1.76,-2.72 -4.94,-4.41 -9.47,-5 l -1.28,-0.17 0.05,-1.31 c 0,-0.26 0.89,-25.2 -18.28,-27.67 l -0.63,-0.08 -0.36,-0.54 C 235.36,109.87 222.78,91.4 200.91,92.83 l -0.21,-2.94 c 21.59,-1.39 34.39,14.76 36.73,18 z"
     id="path459"
     inkscape:connector-curvature="0"
     style="fill:#073e51" />
</svg>
