<?xml version="1.0" encoding="UTF-8" standalone="no"?>
<svg
   id="Layer_1"
   data-name="Layer 1"
   version="1.1"
   width="322.98"
   height="393.694"
   sodipodi:docname="OKC.svg.2021_12_07_17_48_58.0.svg"
   inkscape:version="1.1.1 (3bf5ae0d25, 2021-09-20)"
   xmlns:inkscape="http://www.inkscape.org/namespaces/inkscape"
   xmlns:sodipodi="http://sodipodi.sourceforge.net/DTD/sodipodi-0.dtd"
   xmlns="http://www.w3.org/2000/svg"
   xmlns:svg="http://www.w3.org/2000/svg">
  <sodipodi:namedview
     id="namedview38"
     pagecolor="#ffffff"
     bordercolor="#666666"
     borderopacity="1.0"
     inkscape:pageshadow="2"
     inkscape:pageopacity="0.0"
     inkscape:pagecheckerboard="0"
     showgrid="false"
     showguides="true"
     inkscape:guide-bbox="true"
     inkscape:zoom="2.1133164"
     inkscape:cx="131.3102"
     inkscape:cy="217.90395"
     inkscape:window-width="1920"
     inkscape:window-height="1017"
     inkscape:window-x="1272"
     inkscape:window-y="-8"
     inkscape:window-maximized="1"
     inkscape:current-layer="Layer_1">
    <sodipodi:guide
       position="120.66343,24.605875"
       orientation="0,-1"
       id="guide3891" />
    <sodipodi:guide
       position="116.10474,92.055895"
       orientation="1,0"
       id="guide4315" />
    <sodipodi:guide
       position="206.2783,83.523703"
       orientation="1,0"
       id="guide37388" />
  </sodipodi:namedview>
  <defs
     id="defs4">
    <inkscape:path-effect
       effect="spiro"
       id="path-effect28018"
       is_visible="true"
       lpeversion="1" />
    <inkscape:path-effect
       effect="spiro"
       id="path-effect23601"
       is_visible="true"
       lpeversion="1" />
    <inkscape:path-effect
       effect="spiro"
       id="path-effect1287"
       is_visible="true"
       lpeversion="1" />
    <inkscape:path-effect
       effect="spiro"
       id="path-effect1103"
       is_visible="true"
       lpeversion="1" />
    <inkscape:path-effect
       effect="spiro"
       id="path-effect1033"
       is_visible="true"
       lpeversion="1" />
    <inkscape:path-effect
       effect="spiro"
       id="path-effect996"
       is_visible="true"
       lpeversion="1" />
    <inkscape:path-effect
       effect="spiro"
       id="path-effect910"
       is_visible="true"
       lpeversion="1" />
    <style
       id="style2">.cls-4{fill:#e4dfcf}.cls-7{stroke:#610000;stroke-miterlimit:10}.cls-10,.cls-7,.cls-8{fill:#610000}.cls-7{stroke-width:6.74px}.cls-10{stroke:#e4dfcf;stroke-linecap:round;stroke-linejoin:round;stroke-width:6.49px}</style>
  </defs>
  <path
     class="cls-4"
     d="M301.3 176.16c-4-7.6-7.87-14.78-10.43-21.65-4.57-12.3-4-23.12 1.84-33.08a45.93 45.93 0 0 1 11.73-13.18l18.54-11.42-51.94-93.94-21.24 13.74c-15.18 9.82-31.66 12.42-49 7.74a77 77 0 0 1-24-11.24L161.36 0l-15.58 13.19A76.17 76.17 0 0 1 123.29 24c-17.84 5.21-34.78 2.74-50.37-7.35L51.68 2.91 0 96.36l18.4 12a45.83 45.83 0 0 1 10.9 11.93c6.46 10.28 7.29 21.48 2.54 34.25-2.56 6.87-6.38 14.05-10.43 21.65-6.84 12.86-14.6 27.44-17.8 44.15-3.06 16-.33 33.86 7.67 50.43 7.86 16.28 19.95 29.53 34 37.32 14.92 8.25 29.61 13.39 43.8 18.37 21.33 7.47 39.74 13.93 54.19 29.52l7 7.55h22.06l7-7.55c14.45-15.59 32.87-22.05 54.19-29.52 14.2-5 28.88-10.12 43.81-18.37 14.09-7.79 26.18-21 34-37.32 8-16.57 10.72-34.47 7.67-50.43-3.09-16.74-10.85-31.34-17.7-44.18z"
     id="path174"
     style="fill:#e4dfcf" />
  <path
     d="M160.63 339.9c-29.18-31.48-68.08-32.72-103.89-52.5-20.24-11.18-34.34-39.74-29.95-62.65 4.21-22 19.42-41.16 27.17-62 17.78-47.82-22.68-74.18-22.68-74.18l28.81-52.11c52.11 33.72 100.54-4.9 100.54-4.9l.73-.61.72.61s48.43 38.62 100.54 4.9l28.82 52.11s-40.47 26.36-22.69 74.18c7.76 20.86 23 40 27.18 62 4.38 22.91-9.72 51.47-30 62.65-35.81 19.78-74.72 21-103.9 52.5z"
     id="path176"
     style="fill:#e4dfcf;stroke:#610000;stroke-width:15.93999958px;stroke-miterlimit:10" />
  <path
     id="line178"
     style="fill:none;stroke:#610000;stroke-width:15.93999958px;stroke-miterlimit:10"
     d="M57.29 127.36h208.13" />
  <path
     class="cls-7"
     d="M142.86 240.91c0 4.37-.86 13.53-2.57 17.43a32.79 32.79 0 0 1-17.09 17.17 31.29 31.29 0 0 1-24.86 0 32.85 32.85 0 0 1-17.1-17.14c-1.7-3.89-2.56-13-2.56-17.4v-50.11a31 31 0 0 1 2.56-12.54 33.28 33.28 0 0 1 6.92-10.2 31.86 31.86 0 0 1 10.18-6.85 31.09 31.09 0 0 1 12.35-2.5 31.54 31.54 0 0 1 12.51 2.5 32.09 32.09 0 0 1 10.18 6.85 33.25 33.25 0 0 1 6.91 10.2 30.88 30.88 0 0 1 2.57 12.54 4.28 4.28 0 0 1-1.38 3.2 4.51 4.51 0 0 1-3.22 1.32 4.26 4.26 0 0 1-3.14-1.32 4.4 4.4 0 0 1-1.3-3.2 22.38 22.38 0 0 0-1.8-8.88 22.72 22.72 0 0 0-12.27-12.22 22.82 22.82 0 0 0-9.06-1.8 22.45 22.45 0 0 0-8.91 1.8A22.72 22.72 0 0 0 89.56 182a22.37 22.37 0 0 0-1.79 8.88l.13 27.69a31.59 31.59 0 0 1 10.25-7.2 30.83 30.83 0 0 1 12.59-2.61 31.37 31.37 0 0 1 12.51 2.5 32 32 0 0 1 10.18 6.87 33.27 33.27 0 0 1 6.91 10.23 31 31 0 0 1 2.52 12.55zm-9 .07a22.68 22.68 0 0 0-1.8-9 23 23 0 0 0-21.33-14 22.62 22.62 0 0 0-8.91 1.79A22.78 22.78 0 0 0 89.56 232a22.67 22.67 0 0 0-1.79 9c0 3.12.59 11.1 1.79 13.9a22.78 22.78 0 0 0 12.27 12.23 22.62 22.62 0 0 0 8.91 1.79 22.89 22.89 0 0 0 21.33-14c1.15-2.84 1.75-10.82 1.75-13.92z"
     id="path180"
     style="fill:#610000;stroke:#610000;stroke-width:6.73999977px;stroke-miterlimit:10" />
  <path
     class="cls-7"
     d="M244.62 240.91c0 4.37-.86 13.53-2.56 17.43a33.42 33.42 0 0 1-6.92 10.23 33 33 0 0 1-10.18 6.94 31.29 31.29 0 0 1-24.86 0 32.78 32.78 0 0 1-17.09-17.14c-1.71-3.89-2.56-13-2.56-17.4v-50.11a30.88 30.88 0 0 1 2.56-12.54 33.25 33.25 0 0 1 6.91-10.2 32 32 0 0 1 10.18-6.85 31.13 31.13 0 0 1 12.36-2.5 31.46 31.46 0 0 1 12.5 2.5 31.86 31.86 0 0 1 10.18 6.85 33.28 33.28 0 0 1 6.92 10.2 31 31 0 0 1 2.56 12.54 4.28 4.28 0 0 1-1.38 3.2 4.5 4.5 0 0 1-3.21 1.32 4.25 4.25 0 0 1-3.14-1.32 4.4 4.4 0 0 1-1.3-3.2 22.38 22.38 0 0 0-1.8-8.88 23 23 0 0 0-21.33-14 22.45 22.45 0 0 0-8.91 1.8A22.72 22.72 0 0 0 191.28 182a22.38 22.38 0 0 0-1.8 8.88l.13 27.69a31.63 31.63 0 0 1 10.26-7.2 30.79 30.79 0 0 1 12.59-2.61 31.29 31.29 0 0 1 12.5 2.5 31.76 31.76 0 0 1 10.18 6.87 33.3 33.3 0 0 1 6.92 10.23 31.12 31.12 0 0 1 2.56 12.55zm-9 .07a22.92 22.92 0 0 0-6.73-16.35 23 23 0 0 0-16.4-6.7 22.62 22.62 0 0 0-8.91 1.79 22.78 22.78 0 0 0-12.3 12.28 22.68 22.68 0 0 0-1.8 9c0 3.12.6 11.1 1.8 13.9a23 23 0 0 0 21.18 14 23 23 0 0 0 16.4-6.7 22.76 22.76 0 0 0 4.93-7.32c1.2-2.8 1.77-10.78 1.77-13.88z"
     id="path182"
     style="fill:#610000;stroke:#610000;stroke-width:6.73999977px;stroke-miterlimit:10" />
  <path
     class="cls-8"
     d="M87.94 74.28v26.39l-2.57 2.58H74.74l-2.57-2.58V74.28l2.57-2.58h10.63zm-5.93 2.57h-4l-.58.58v20.13l.58.58h4l.62-.58V77.43z"
     id="path184"
     style="fill:#610000" />
  <path
     class="cls-8"
     d="m104.56 85.65 7.55 17.6h-5.76l-5-11.63-2.5 4.57v7.06h-5.18V71.7h5.18v14.4l7.43-14.4h5.81z"
     id="path186"
     style="fill:#610000" />
  <path
     class="cls-8"
     d="M130.81 103.25h-14.48V71.7h5.31v26.44h9.17z"
     id="path188"
     style="fill:#610000" />
  <path
     class="cls-8"
     d="M147.29 96.44h-6.48l-1.41 6.81h-5.39l7.47-31.55h5.14l7.47 31.55h-5.39zm-1-5.11-2.2-10.62-2.2 10.62z"
     id="path190"
     style="fill:#610000" />
  <path
     class="cls-8"
     d="M163.76 71.7v13h5.94v-13h5.27v31.55h-5.27V89.84h-5.94v13.41h-5.27V71.7z"
     id="path192"
     style="fill:#610000" />
  <path
     class="cls-8"
     d="M196.47 74.28v26.39l-2.58 2.58h-10.62l-2.57-2.58V74.28l2.57-2.58h10.62zm-5.91 2.57h-4l-.58.58v20.13l.58.58h4l.62-.58V77.43z"
     id="path194"
     style="fill:#610000" />
  <path
     class="cls-8"
     d="M215.31 96.48h-2.75L207.46 82v21.3h-5.27V71.7h6.56l5.19 14.9 5.19-14.9h6.55v31.55h-5.27V82z"
     id="path196"
     style="fill:#610000" />
  <path
     class="cls-8"
     d="M243.36 96.44h-6.47l-1.41 6.81h-5.4l7.48-31.55h5.15l7.47 31.55h-5.39zm-1-5.11-2.2-10.62-2.2 10.62z"
     id="path198"
     style="fill:#610000" />
  <path
     id="polyline200"
     style="fill:#e4dfcf;stroke:#e4dfcf;stroke-width:1.67px;stroke-miterlimit:10"
     d="m 117.49215,284.66826 -1.38741,70.59464 45.4295,47.02675 44.74406,-47.00495 -1.36264,-66.11434" />
  <path
     class="cls-8"
     id="polygon208"
     style="fill:#610000"
     d="m 138.91659,361.68813 -1.34,-26.78 -8.68,-4.99 -1.35,31.77 5.68,7.4 z" />
  <path
     style="fill:#610000;stroke:#610000;stroke-width:20.5;stroke-linecap:round;stroke-linejoin:round;stroke-opacity:1;stroke-miterlimit:4;stroke-dasharray:none;fill-opacity:1"
     d="m 161.49754,258.96258 c -0.8114,-0.0862 -1.63357,-0.0706 -2.4411,0.0464 -2.75515,0.3992 -5.22127,1.95624 -7.29035,3.81879 -3.34611,3.01211 -5.83488,6.84321 -8.16453,10.69574 -3.86634,6.39374 -7.45373,13.10296 -8.98504,20.41621 -0.25564,1.2209 -0.45275,2.45383 -0.59962,3.69253 -0.61261,5.16666 -0.34718,10.41306 0.46085,15.55278 0.82015,5.21678 2.20762,10.3703 4.46898,15.14248 2.19782,4.63809 5.18479,8.84921 8.11098,13.06581 1.48959,2.14648 2.97597,4.31173 4.78401,6.1978 1.80803,1.88607 3.97094,3.49765 6.45772,4.29901 2.45555,0.7913 5.21923,0.73627 7.54563,-0.37897 2.37862,-1.14028 4.12144,-3.24943 5.81765,-5.26956 3.60202,-4.28988 7.37628,-8.50293 10.07942,-13.40911 1.94991,-3.53907 3.30504,-7.37587 4.42505,-11.25824 0.97153,-3.36768 1.77431,-6.79322 2.17245,-10.27555 0.2672,-2.33709 0.3513,-4.69399 0.28115,-7.04526 -0.1918,-6.42892 -1.54449,-12.8149 -3.90433,-18.79812 -1.15983,-2.94066 -2.56125,-5.78588 -4.18324,-8.49915 -2.81312,-4.70581 -6.29616,-9.01665 -10.35594,-12.70127 -2.20849,-2.00441 -4.63238,-3.84934 -7.42801,-4.88836 -0.41109,-0.15279 -0.82887,-0.28759 -1.25173,-0.40391 z"
     id="path28014"
     inkscape:path-effect="#path-effect28018"
     inkscape:original-d="m 161.49754,258.96258 c -0.41827,-0.13563 -0.012,-1.22757 -2.4411,0.0464 -2.4291,1.27391 -4.85922,2.54684 -7.29035,3.81879 -2.43114,1.27195 -5.44201,7.13147 -8.16453,10.69574 -2.72252,3.56426 -5.989,13.61179 -8.98504,20.41621 -2.99603,6.80444 -0.39872,2.46268 -0.59962,3.69253 -0.20089,1.22986 0.30822,10.36951 0.46085,15.55278 0.15263,5.18328 2.98034,10.09597 4.46898,15.14248 1.48864,5.04651 5.40834,8.71152 8.11098,13.06581 2.70265,4.35429 7.49551,6.99885 11.24173,10.49681 3.74623,3.49795 5.03144,-0.25167 7.54563,-0.37897 2.51418,-0.12727 3.87945,-3.51205 5.81765,-5.26956 1.9382,-1.75749 6.72063,-8.93842 10.07942,-13.40911 3.35878,-4.47068 2.95105,-7.50451 4.42505,-11.25824 1.474,-3.75373 1.44932,-6.84939 2.17245,-10.27555 0.72313,-3.42617 0.18845,-4.69586 0.28115,-7.04526 0.0927,-2.34941 -2.60187,-12.53111 -3.90433,-18.79812 -1.30247,-6.26702 -2.7878,-5.66512 -4.18324,-8.49915 -1.39542,-2.83403 -6.90293,-8.46654 -10.35594,-12.70127 -3.453,-4.23474 -4.95098,-3.25792 -7.42801,-4.88836 -2.47702,-1.63043 -0.83347,-0.26829 -1.25173,-0.40391 z" />
  <path
     class="cls-4"
     id="polygon210"
     style="fill:#e4dfcf"
     d="m 132.57659,338.10813 h -1.94 v 16.15 l 2.6,-6.64 2.59,6.64 0.01,-16.15 h -1.74 l -0.86,-3.85 z" />
  <path
     class="cls-8"
     id="polygon212"
     style="fill:#610000"
     d="m 152.73,375.1 -1.34,-26.77 -8.68,-5 -1.35,31.77 5.68,7.4 z" />
  <path
     class="cls-4"
     id="polygon214"
     style="fill:#e4dfcf"
     d="m 146.39,351.52 h -1.94 v 16.15 l 2.6,-6.63 2.59,6.63 v -16.15 h -1.73 l -0.86,-3.84 z" />
  <path
     class="cls-8"
     id="polygon216"
     style="fill:#610000"
     d="m 166.7,383.09 -1.33,-26.77 -8.69,-5 -1.35,31.77 5.69,9.54 z" />
  <path
     class="cls-4"
     id="polygon218"
     style="fill:#e4dfcf"
     d="m 160.37,359.51 h -1.94 l -0.01,16.15 2.6,-6.63 2.6,6.63 v -16.15 h -1.73 l -0.86,-3.84 z" />
  <path
     class="cls-8"
     id="polygon220"
     style="fill:#610000"
     d="m 180.69,375.61 -1.34,-26.78 -8.68,-4.99 -1.35,31.77 5.68,7.4 z" />
  <path
     class="cls-4"
     id="polygon222"
     style="fill:#e4dfcf"
     d="m 174.35,352.03 h -1.94 l -0.01,16.15 2.6,-6.64 2.6,6.64 v -16.15 h -1.73 l -0.86,-3.85 z" />
  <path
     class="cls-8"
     id="polygon224"
     style="fill:#610000"
     d="m 193.18043,361.99681 -1.34,-26.77 -8.68,-5 -1.35,31.77 5.68,7.4 z" />
  <path
     class="cls-4"
     id="polygon226"
     style="fill:#e4dfcf"
     d="m 186.84043,338.41681 h -1.94 v 16.15 l 2.6,-6.63 2.59,6.63 0.01,-16.15 h -1.74 l -0.86,-3.84 z" />
  <path
     style="fill:none;stroke:#e4dfcf;stroke-width:7;stroke-linecap:round;stroke-linejoin:round;stroke-opacity:1;stroke-miterlimit:4;stroke-dasharray:none"
     d="m 161.49754,258.96258 c -0.8114,-0.0862 -1.63357,-0.0706 -2.4411,0.0464 -2.75515,0.3992 -5.22127,1.95624 -7.29035,3.81879 -3.34611,3.01211 -5.83488,6.84321 -8.16453,10.69574 -3.86634,6.39374 -7.45373,13.10296 -8.98504,20.41621 -0.25564,1.2209 -0.45275,2.45383 -0.59962,3.69253 -0.61261,5.16666 -0.34718,10.41306 0.46085,15.55278 0.82015,5.21678 2.20762,10.3703 4.46898,15.14248 2.19782,4.63809 5.18479,8.84921 8.11098,13.06581 1.48959,2.14648 2.97597,4.31173 4.78401,6.1978 1.80803,1.88607 3.97094,3.49765 6.45772,4.29901 2.45555,0.7913 5.21923,0.73627 7.54563,-0.37897 2.37862,-1.14028 4.12144,-3.24943 5.81765,-5.26956 3.60202,-4.28988 7.37628,-8.50293 10.07942,-13.40911 1.94991,-3.53907 3.30504,-7.37587 4.42505,-11.25824 0.97153,-3.36768 1.77431,-6.79322 2.17245,-10.27555 0.2672,-2.33709 0.3513,-4.69399 0.28115,-7.04526 -0.1918,-6.42892 -1.54449,-12.8149 -3.90433,-18.79812 -1.15983,-2.94066 -2.56125,-5.78588 -4.18324,-8.49915 -2.81312,-4.70581 -6.29616,-9.01665 -10.35594,-12.70127 -2.20849,-2.00441 -4.63238,-3.84934 -7.42801,-4.88836 -0.41109,-0.15279 -0.82887,-0.28759 -1.25173,-0.40391 z"
     id="path908"
     inkscape:path-effect="#path-effect910"
     inkscape:original-d="m 161.49754,258.96258 c -0.41827,-0.13563 -0.012,-1.22757 -2.4411,0.0464 -2.4291,1.27391 -4.85922,2.54684 -7.29035,3.81879 -2.43114,1.27195 -5.44201,7.13147 -8.16453,10.69574 -2.72252,3.56426 -5.989,13.61179 -8.98504,20.41621 -2.99603,6.80444 -0.39872,2.46268 -0.59962,3.69253 -0.20089,1.22986 0.30822,10.36951 0.46085,15.55278 0.15263,5.18328 2.98034,10.09597 4.46898,15.14248 1.48864,5.04651 5.40834,8.71152 8.11098,13.06581 2.70265,4.35429 7.49551,6.99885 11.24173,10.49681 3.74623,3.49795 5.03144,-0.25167 7.54563,-0.37897 2.51418,-0.12727 3.87945,-3.51205 5.81765,-5.26956 1.9382,-1.75749 6.72063,-8.93842 10.07942,-13.40911 3.35878,-4.47068 2.95105,-7.50451 4.42505,-11.25824 1.474,-3.75373 1.44932,-6.84939 2.17245,-10.27555 0.72313,-3.42617 0.18845,-4.69586 0.28115,-7.04526 0.0927,-2.34941 -2.60187,-12.53111 -3.90433,-18.79812 -1.30247,-6.26702 -2.7878,-5.66512 -4.18324,-8.49915 -1.39542,-2.83403 -6.90293,-8.46654 -10.35594,-12.70127 -3.453,-4.23474 -4.95098,-3.25792 -7.42801,-4.88836 -2.47702,-1.63043 -0.83347,-0.26829 -1.25173,-0.40391 z" />
  <path
     style="fill:none;stroke:#e4dfcf;stroke-width:2.5;stroke-linecap:round;stroke-linejoin:miter;stroke-miterlimit:4;stroke-dasharray:none;stroke-opacity:1"
     d="m 160.63583,287.69517 0.0243,33.30817"
     id="path3420" />
  <path
     style="fill:none;stroke:#e4dfcf;stroke-width:2.5;stroke-linecap:round;stroke-linejoin:miter;stroke-miterlimit:4;stroke-dasharray:none;stroke-opacity:1"
     d="m 156.74374,286.73358 8.04506,-0.0202"
     id="path3601" />
  <path
     style="fill:none;stroke:#e4dfcf;stroke-width:2.5;stroke-linecap:round;stroke-linejoin:miter;stroke-miterlimit:4;stroke-dasharray:none;stroke-opacity:1"
     d="m 156.74374,292.73358 8.04506,-0.0202"
     id="path3893" />
  <path
     style="fill:none;stroke:#e4dfcf;stroke-width:2.5;stroke-linecap:round;stroke-linejoin:miter;stroke-miterlimit:4;stroke-dasharray:none;stroke-opacity:1"
     d="m 156.74374,298.73358 8.04506,-0.0202"
     id="path3897" />
  <path
     style="fill:none;stroke:#e4dfcf;stroke-width:2.5;stroke-linecap:round;stroke-linejoin:miter;stroke-miterlimit:4;stroke-dasharray:none;stroke-opacity:1"
     d="m 156.74374,304.73358 8.04506,-0.0202"
     id="path3901" />
  <path
     style="fill:none;stroke:#e4dfcf;stroke-width:2.5;stroke-linecap:round;stroke-linejoin:miter;stroke-miterlimit:4;stroke-dasharray:none;stroke-opacity:1"
     d="m 156.74374,310.73358 8.04506,-0.0202"
     id="path3905" />
  <path
     style="fill:none;stroke:#e4dfcf;stroke-width:2.5;stroke-linecap:round;stroke-linejoin:miter;stroke-miterlimit:4;stroke-dasharray:none;stroke-opacity:1"
     d="m 156.74374,316.73358 8.04506,-0.0202"
     id="path3909" />
  <path
     style="fill:none;stroke:#e4dfcf;stroke-width:2.5;stroke-linecap:round;stroke-linejoin:miter;stroke-miterlimit:4;stroke-dasharray:none;stroke-opacity:1"
     d="m 156.74374,322.73358 8.04506,-0.0202"
     id="path3913" />
  <path
     style="fill:none;stroke:#e4dfcf;stroke-width:7.1;stroke-linecap:round;stroke-linejoin:round;stroke-opacity:1;stroke-miterlimit:4;stroke-dasharray:none"
     d="m 161.49754,258.96258 c -0.8114,-0.0862 -1.63357,-0.0706 -2.4411,0.0464 -2.75515,0.3992 -5.22127,1.95624 -7.29035,3.81879 -3.34611,3.01211 -5.83488,6.84321 -8.16453,10.69574 -3.86634,6.39374 -7.45373,13.10296 -8.98504,20.41621 -0.25564,1.2209 -0.45275,2.45383 -0.59962,3.69253 -0.61261,5.16666 -0.34718,10.41306 0.46085,15.55278 0.82015,5.21678 2.20762,10.3703 4.46898,15.14248 2.19782,4.63809 5.18479,8.84921 8.11098,13.06581 1.48959,2.14648 2.97597,4.31173 4.78401,6.1978 1.80803,1.88607 3.97094,3.49765 6.45772,4.29901 2.45555,0.7913 5.21923,0.73627 7.54563,-0.37897 2.37862,-1.14028 4.12144,-3.24943 5.81765,-5.26956 3.60202,-4.28988 7.37628,-8.50293 10.07942,-13.40911 1.94991,-3.53907 3.30504,-7.37587 4.42505,-11.25824 0.97153,-3.36768 1.77431,-6.79322 2.17245,-10.27555 0.2672,-2.33709 0.3513,-4.69399 0.28115,-7.04526 -0.1918,-6.42892 -1.54449,-12.8149 -3.90433,-18.79812 -1.15983,-2.94066 -2.56125,-5.78588 -4.18324,-8.49915 -2.81312,-4.70581 -6.29616,-9.01665 -10.35594,-12.70127 -2.20849,-2.00441 -4.63238,-3.84934 -7.42801,-4.88836 -0.41109,-0.15279 -0.82887,-0.28759 -1.25173,-0.40391 z"
     id="path23597"
     inkscape:path-effect="#path-effect23601"
     inkscape:original-d="m 161.49754,258.96258 c -0.41827,-0.13563 -0.012,-1.22757 -2.4411,0.0464 -2.4291,1.27391 -4.85922,2.54684 -7.29035,3.81879 -2.43114,1.27195 -5.44201,7.13147 -8.16453,10.69574 -2.72252,3.56426 -5.989,13.61179 -8.98504,20.41621 -2.99603,6.80444 -0.39872,2.46268 -0.59962,3.69253 -0.20089,1.22986 0.30822,10.36951 0.46085,15.55278 0.15263,5.18328 2.98034,10.09597 4.46898,15.14248 1.48864,5.04651 5.40834,8.71152 8.11098,13.06581 2.70265,4.35429 7.49551,6.99885 11.24173,10.49681 3.74623,3.49795 5.03144,-0.25167 7.54563,-0.37897 2.51418,-0.12727 3.87945,-3.51205 5.81765,-5.26956 1.9382,-1.75749 6.72063,-8.93842 10.07942,-13.40911 3.35878,-4.47068 2.95105,-7.50451 4.42505,-11.25824 1.474,-3.75373 1.44932,-6.84939 2.17245,-10.27555 0.72313,-3.42617 0.18845,-4.69586 0.28115,-7.04526 0.0927,-2.34941 -2.60187,-12.53111 -3.90433,-18.79812 -1.30247,-6.26702 -2.7878,-5.66512 -4.18324,-8.49915 -1.39542,-2.83403 -6.90293,-8.46654 -10.35594,-12.70127 -3.453,-4.23474 -4.95098,-3.25792 -7.42801,-4.88836 -2.47702,-1.63043 -0.83347,-0.26829 -1.25173,-0.40391 z" />
</svg>
