<?xml version="1.0" encoding="UTF-8" standalone="no"?>
<svg
   id="Layer_1"
   data-name="Layer 1"
   viewBox="0 0 279.20999 408.58499"
   version="1.1"
   sodipodi:docname="ORL.svg"
   width="279.20999"
   height="408.58499"
   inkscape:version="1.1.1 (3bf5ae0d25, 2021-09-20)"
   xmlns:inkscape="http://www.inkscape.org/namespaces/inkscape"
   xmlns:sodipodi="http://sodipodi.sourceforge.net/DTD/sodipodi-0.dtd"
   xmlns="http://www.w3.org/2000/svg"
   xmlns:svg="http://www.w3.org/2000/svg"
   xmlns:rdf="http://www.w3.org/1999/02/22-rdf-syntax-ns#"
   xmlns:cc="http://creativecommons.org/ns#"
   xmlns:dc="http://purl.org/dc/elements/1.1/">
  <metadata
     id="metadata337">
    <rdf:RDF>
      <cc:Work
         rdf:about="">
        <dc:format>image/svg+xml</dc:format>
        <dc:type
           rdf:resource="http://purl.org/dc/dcmitype/StillImage" />
        <dc:title />
      </cc:Work>
    </rdf:RDF>
  </metadata>
  <sodipodi:namedview
     pagecolor="#ffffff"
     bordercolor="#666666"
     borderopacity="1"
     objecttolerance="10"
     gridtolerance="10"
     guidetolerance="10"
     inkscape:pageopacity="0"
     inkscape:pageshadow="2"
     inkscape:window-width="1920"
     inkscape:window-height="1017"
     id="namedview335"
     showgrid="false"
     inkscape:zoom="1.5733333"
     inkscape:cx="48.622882"
     inkscape:cy="182.09746"
     inkscape:window-x="-8"
     inkscape:window-y="-8"
     inkscape:window-maximized="1"
     inkscape:current-layer="Layer_1"
     inkscape:pagecheckerboard="0" />
  <defs
     id="defs4">
    <style
       id="style2">.cls-1{opacity:0.2;}.cls-2{fill:#a6a6a6;}.cls-3{fill:#fff;}.cls-15,.cls-16,.cls-18,.cls-21,.cls-4{stroke:#f58e5d;}.cls-15,.cls-16,.cls-18,.cls-19,.cls-21,.cls-4,.cls-5{stroke-miterlimit:10;}.cls-15,.cls-4{stroke-width:11.49px;}.cls-11,.cls-17,.cls-19,.cls-5{fill:#dc5000;}.cls-17,.cls-19,.cls-5{stroke:#dc5000;}.cls-5{stroke-width:9.43px;}.cls-6{fill:#a62b00;}.cls-15,.cls-20,.cls-21,.cls-7{fill:none;}.cls-20,.cls-7{stroke:#0b7648;}.cls-17,.cls-20,.cls-7{stroke-linecap:round;stroke-linejoin:round;}.cls-7{stroke-width:12.57px;}.cls-8{fill:#f58e5d;}.cls-9{fill:#ffc0a6;}.cls-10{fill:#0b7648;}.cls-12{fill:#e66a30;}.cls-13{fill:#228959;}.cls-14{fill:#bd3c00;}.cls-16{stroke-width:9.96px;}.cls-17{stroke-width:1.19px;}.cls-18,.cls-21{stroke-width:11.22px;}.cls-19{stroke-width:9.21px;}.cls-20{stroke-width:12.28px;}</style>
  </defs>
  <path
     class="cls-4"
     d="M 5.7449999,5.7449999 H 273.465 V 205.105 h -0.32 c 0.2,3 0.32,6 0.32,9.11 a 133.86,133.86 0 0 1 -267.7200001,0 c 0,-3.06 0.12,-6.1 0.32,-9.11 h -0.32 z"
     id="path170"
     inkscape:connector-curvature="0"
     style="stroke:#f58e5d;stroke-width:11.48999977px;stroke-miterlimit:10" />
  <circle
     class="cls-5"
     cx="138.81499"
     cy="214.685"
     r="89.709999"
     id="circle172"
     style="fill:#dc5000;stroke:#dc5000;stroke-width:9.43000031px;stroke-miterlimit:10" />
  <polyline
     class="cls-7"
     points="496.22 294.28 496.22 280.43 496.22 272.88"
     id="polyline178"
     style="fill:none;stroke:#0b7648;stroke-width:12.56999969px;stroke-linecap:round;stroke-linejoin:round"
     transform="translate(-356.795,-168.995)" />
  <circle
     class="cls-8"
     cx="142.65501"
     cy="385.495"
     r="23.09"
     id="circle180"
     style="fill:#f58e5d" />
  <polygon
     class="cls-8"
     points="482.24,539.04 499.46,516.08 516.68,539.04 499.46,556.26 "
     id="polygon182"
     style="fill:#f58e5d"
     transform="translate(-356.795,-168.995)" />
  <path
     class="cls-9"
     d="m 142.885,371.835 h 0.25 c 6.52,0 11.81,5.79 11.81,12.94 0,7.15 -5.29,12.93 -11.81,12.93 h -0.25 z"
     id="path184"
     inkscape:connector-curvature="0"
     style="fill:#ffc0a6" />
  <path
     class="cls-10"
     d="m 133.205,103.495 c 0,-0.21 0,-0.42 0,-0.64 0,-16.66 14.8,-30.17 33,-30.17 18.2,0 33,13.51 33,30.17 0,0.22 0,0.43 0,0.64 z"
     id="path186"
     inkscape:connector-curvature="0"
     style="fill:#0b7648" />
  <path
     class="cls-11"
     d="m 241.795,82.105 c -0.19,0 -0.37,0 -0.56,0 -14.58,0 -26.4,12.94 -26.4,28.91 0,15.97 11.82,28.91 26.4,28.91 0.19,0 0.37,0 0.56,0 z"
     id="path188"
     inkscape:connector-curvature="0"
     style="fill:#dc5000" />
  <path
     class="cls-12"
     d="m 241.795,92.225 v 37.51 c -9,-0.54 -16.19,-8.73 -16.19,-18.75 0,-10.02 7.17,-18.21 16.19,-18.76 z"
     id="path190"
     inkscape:connector-curvature="0"
     style="fill:#e66a30" />
  <path
     class="cls-11"
     d="m 38.565,82.105 c 0.19,0 0.37,0 0.56,0 14.58,0 26.4,12.94 26.4,28.91 0,15.97 -11.82,28.91 -26.4,28.91 -0.19,0 -0.37,0 -0.56,0 z"
     id="path192"
     inkscape:connector-curvature="0"
     style="fill:#dc5000" />
  <path
     class="cls-12"
     d="m 38.565,92.225 v 37.51 c 9,-0.54 16.19,-8.73 16.19,-18.75 0,-10.02 -7.16,-18.21 -16.19,-18.76 z"
     id="path194"
     inkscape:connector-curvature="0"
     style="fill:#e66a30" />
  <path
     class="cls-10"
     d="m 120.515,102.805 c 0,-0.13 0,-0.26 0,-0.4 0,-10.31 -9.16,-18.67 -20.45,-18.67 -11.29,0 -20.45,8.36 -20.45,18.67 0,0.14 0,0.27 0,0.4 z"
     id="path196"
     inkscape:connector-curvature="0"
     style="fill:#0b7648" />
  <path
     class="cls-13"
     d="m 185.985,103.105 c 0,-0.13 0,-0.26 0,-0.39 0,-10.16 -9,-18.39 -20.13,-18.39 -11.13,0 -20.14,8.23 -20.14,18.39 0,0.13 0,0.26 0,0.39 z"
     id="path198"
     inkscape:connector-curvature="0"
     style="fill:#228959" />
  <ellipse
     class="cls-12"
     cx="185.37498"
     cy="216.57501"
     rx="25.809999"
     ry="43.439999"
     id="ellipse200"
     style="fill:#e66a30" />
  <circle
     class="cls-8"
     cx="174.79503"
     cy="172.39502"
     r="4.0900002"
     id="circle206"
     style="fill:#f58e5d" />
  <circle
     class="cls-9"
     cx="195.12498"
     cy="182.405"
     r="4.0900002"
     id="circle208"
     style="fill:#ffc0a6" />
  <circle
     class="cls-8"
     cx="174.79503"
     cy="195.13501"
     r="4.0900002"
     id="circle210"
     style="fill:#f58e5d" />
  <circle
     class="cls-9"
     cx="195.12498"
     cy="205.14502"
     r="4.0900002"
     id="circle212"
     style="fill:#ffc0a6" />
  <circle
     class="cls-8"
     cx="174.79503"
     cy="217.88501"
     r="4.0900002"
     id="circle214"
     style="fill:#f58e5d" />
  <circle
     class="cls-9"
     cx="195.12498"
     cy="227.89502"
     r="4.0900002"
     id="circle216"
     style="fill:#ffc0a6" />
  <circle
     class="cls-8"
     cx="174.79503"
     cy="240.63501"
     r="4.0900002"
     id="circle218"
     style="fill:#f58e5d" />
  <circle
     class="cls-8"
     cx="174.79503"
     cy="263.60501"
     r="4.0900002"
     id="circle220"
     style="fill:#f58e5d" />
  <circle
     class="cls-3"
     cx="215.46501"
     cy="195.13501"
     r="4.0900002"
     id="circle222"
     style="fill:#ffffff" />
  <circle
     class="cls-3"
     cx="215.46501"
     cy="217.88501"
     r="4.0900002"
     id="circle224"
     style="fill:#ffffff" />
  <circle
     class="cls-3"
     cx="215.46501"
     cy="240.63501"
     r="4.0900002"
     id="circle226"
     style="fill:#ffffff" />
  <circle
     class="cls-9"
     cx="195.12498"
     cy="250.64502"
     r="4.0900002"
     id="circle228"
     style="fill:#ffc0a6" />
  <path
     class="cls-15"
     d="M 5.7449999,5.7449999 H 273.465 V 205.105 h -0.32 c 0.2,3 0.32,6 0.32,9.11 a 133.86,133.86 0 0 1 -267.7200001,0 c 0,-3.06 0.12,-6.1 0.32,-9.11 h -0.32 z"
     id="path230"
     inkscape:connector-curvature="0"
     style="fill:none;stroke:#f58e5d;stroke-width:11.48999977px;stroke-miterlimit:10" />
  <path
     class="cls-9"
     d="m 64.205,45.265 a 16.77,16.77 0 0 1 -16.91,16.74 c -9.63,0 -17.28,-7.36 -17.28,-16.65 a 16.85,16.85 0 0 1 5.42,-12.39 17.37,17.37 0 0 1 12.06,-4.5 c 9.53,-0.04 16.71,7.17 16.71,16.8 z m -26.18,0 a 9.13,9.13 0 1 0 18.25,0.15 c 0,-5.52 -3.88,-9.68 -9.05,-9.68 -5.17,0 -9.22,4.01 -9.22,9.48 z"
     id="path232"
     inkscape:connector-curvature="0"
     style="fill:#ffc0a6" />
  <path
     class="cls-9"
     d="m 76.735,61.335 h -7.85 v -32.28 h 10.46 c 4.26,0 7.36,0.77 9.48,2.42 2.12,1.65 3.49,4.64 3.49,8.18 0,4.89 -2.08,8.18 -6.24,9.82 l 7.13,11.86 h -9.39 l -7.06,-12.49 z m 2.47,-16.89 c 3.25,0 5.13,-1.65 5.13,-4.45 a 4.31,4.31 0 0 0 -4.64,-4.51 h -3 v 9 z"
     id="path234"
     inkscape:connector-curvature="0"
     style="fill:#ffc0a6" />
  <path
     class="cls-9"
     d="m 116.375,55.005 v 6.34 h -18.34 v -32.29 h 7.84 v 25.95 z"
     id="path236"
     inkscape:connector-curvature="0"
     style="fill:#ffc0a6" />
  <path
     class="cls-9"
     d="m 128.205,56.685 -1.4,4.65 h -8.38 l 10.65,-32.28 h 10 l 10.6,32.28 h -8.61 l -1.41,-4.65 z m 5.71,-18.39 -3.71,12.05 h 7.55 z"
     id="path238"
     inkscape:connector-curvature="0"
     style="fill:#ffc0a6" />
  <path
     class="cls-9"
     d="m 160.575,61.335 h -7.85 v -32.28 h 7.85 l 11.76,18.15 v -18.15 h 7.87 v 32.28 h -7.84 l -11.76,-18.39 z"
     id="path240"
     inkscape:connector-curvature="0"
     style="fill:#ffc0a6" />
  <path
     class="cls-9"
     d="m 186.325,29.055 h 9.44 c 5.56,0 9,1 12,3.53 a 15.64,15.64 0 0 1 5.28,12.29 17.19,17.19 0 0 1 -5.13,12.73 c -2.66,2.42 -6.58,3.73 -11.23,3.73 h -10.36 z m 7.88,25.84 h 1.21 c 5.71,0 9.68,-4 9.68,-9.77 a 10.55,10.55 0 0 0 -3,-7.46 10.08,10.08 0 0 0 -6.44,-2.32 h -1.45 z"
     id="path242"
     inkscape:connector-curvature="0"
     style="fill:#ffc0a6" />
  <path
     class="cls-9"
     d="m 250.455,45.265 a 16.76,16.76 0 0 1 -16.89,16.74 c -9.63,0 -17.28,-7.36 -17.28,-16.65 a 16.85,16.85 0 0 1 5.42,-12.39 17.37,17.37 0 0 1 12.06,-4.5 c 9.53,-0.04 16.69,7.17 16.69,16.8 z m -26.18,0 a 9.13,9.13 0 1 0 18.25,0.15 c 0,-5.52 -3.87,-9.68 -9.05,-9.68 -5.18,0 -9.2,4.01 -9.2,9.48 z"
     id="path244"
     inkscape:connector-curvature="0"
     style="fill:#ffc0a6" />
</svg>
