<?xml version="1.0" encoding="UTF-8" standalone="no"?>
<svg
   id="Layer_1"
   data-name="Layer 1"
   viewBox="0 0 337.72128 435.23999"
   version="1.1"
   sodipodi:docname="PHI.svg"
   width="337.72128"
   height="435.23999"
   inkscape:version="1.1.1 (3bf5ae0d25, 2021-09-20)"
   xmlns:inkscape="http://www.inkscape.org/namespaces/inkscape"
   xmlns:sodipodi="http://sodipodi.sourceforge.net/DTD/sodipodi-0.dtd"
   xmlns="http://www.w3.org/2000/svg"
   xmlns:svg="http://www.w3.org/2000/svg"
   xmlns:rdf="http://www.w3.org/1999/02/22-rdf-syntax-ns#"
   xmlns:cc="http://creativecommons.org/ns#"
   xmlns:dc="http://purl.org/dc/elements/1.1/">
  <metadata
     id="metadata403">
    <rdf:RDF>
      <cc:Work
         rdf:about="">
        <dc:format>image/svg+xml</dc:format>
        <dc:type
           rdf:resource="http://purl.org/dc/dcmitype/StillImage" />
        <dc:title />
      </cc:Work>
    </rdf:RDF>
  </metadata>
  <sodipodi:namedview
     pagecolor="#ffffff"
     bordercolor="#666666"
     borderopacity="1"
     objecttolerance="10"
     gridtolerance="10"
     guidetolerance="10"
     inkscape:pageopacity="0"
     inkscape:pageshadow="2"
     inkscape:window-width="1920"
     inkscape:window-height="1017"
     id="namedview401"
     showgrid="false"
     inkscape:zoom="2.5173333"
     inkscape:cx="135.65943"
     inkscape:cy="223.84799"
     inkscape:window-x="-8"
     inkscape:window-y="-8"
     inkscape:window-maximized="1"
     inkscape:current-layer="Layer_1"
     inkscape:pagecheckerboard="0" />
  <defs
     id="defs4">
    <style
       id="style2">.cls-1,.cls-2,.cls-24,.cls-28{fill:#3a3a3a;}.cls-13,.cls-2,.cls-20,.cls-21,.cls-23,.cls-24,.cls-28{stroke:#3a3a3a;}.cls-13,.cls-16,.cls-17,.cls-18,.cls-2,.cls-20,.cls-21,.cls-23,.cls-25,.cls-26,.cls-27,.cls-28{stroke-miterlimit:10;}.cls-2,.cls-26{stroke-width:2.2px;}.cls-3{fill:#bee6f6;}.cls-4{fill:#ffe67b;}.cls-18,.cls-20,.cls-25,.cls-5{fill:#ed8222;}.cls-6{fill:#676767;}.cls-7{fill:#a84f25;}.cls-26,.cls-27,.cls-8{fill:#f6cf32;}.cls-13,.cls-15,.cls-16,.cls-17,.cls-19,.cls-21,.cls-23,.cls-9{fill:none;}.cls-19,.cls-26,.cls-27,.cls-9{stroke:#f6cf32;}.cls-15,.cls-19,.cls-24,.cls-9{stroke-linecap:round;stroke-linejoin:round;}.cls-9{stroke-width:7.64px;}.cls-10{fill:#fff;}.cls-11{fill:#dbdbda;}.cls-12{fill:#e1bb78;}.cls-13{stroke-width:3.32px;}.cls-14{fill:#d18529;}.cls-15{stroke:#752f16;stroke-width:4.75px;}.cls-16{stroke:#40a448;}.cls-16,.cls-17{stroke-width:6.33px;}.cls-17{stroke:#e12e26;}.cls-18,.cls-25{stroke:#ed8222;}.cls-18{stroke-width:0.74px;}.cls-19{stroke-width:8.31px;}.cls-20,.cls-21{stroke-width:3.61px;}.cls-22{fill:#f2f1f1;}.cls-23{stroke-width:7px;}.cls-24{stroke-width:0.93px;}.cls-27,.cls-28{stroke-width:3px;}</style>
  </defs>
  <path
     class="cls-5"
     d="m 72.04,26.91 c 0,0 34.7,-2.46 48.45,7.46 h 6.87 l -29.78,13"
     id="path154"
     inkscape:connector-curvature="0"
     style="fill:#ed8222" />
  <path
     class="cls-5"
     d="m 261.84,26.91 c 0,0 -34.7,-2.46 -48.45,7.46 h -6.87 l 29.78,13"
     id="path156"
     inkscape:connector-curvature="0"
     style="fill:#ed8222" />
  <path
     class="cls-9"
     d="m 230.47,354.47 c -39.09,46.17 -54.93,76.95 -54.93,76.95 h -13.83 c 0,0 -15.89,-30.92 -55.11,-77.16"
     id="path158"
     inkscape:connector-curvature="0"
     style="fill:none;stroke:#f6cf32;stroke-width:7.63999987px;stroke-linecap:round;stroke-linejoin:round" />
  <path
     class="cls-9"
     d="M 56.5,214.79 36.44,130.63 31.04,106 10.46,81.74 C 47.54,56.36 140.57,41.62 167.79,3.8199999 h 1.63 C 196.64,41.62 289.67,56.36 326.75,81.74 l -21,23 -5,25.89 -19,79.75"
     id="path160"
     inkscape:connector-curvature="0"
     style="fill:none;stroke:#f6cf32;stroke-width:7.63999987px;stroke-linecap:round;stroke-linejoin:round" />
  <polygon
     class="cls-3"
     points="252.14,651.88 252.14,318.81 275.05,305.05 296.43,318.81 296.43,651.88 275.3,679.39 "
     id="polygon162"
     style="fill:#bee6f6"
     transform="translate(-105.96,-273.74)" />
  <path
     class="cls-3"
     d="m 229.48,54.05 v 156 h 36.65 l 7.64,-26 V 69.5 C 259.21,64.67 240.88,58.15 229.48,54.05 Z"
     id="path164"
     inkscape:connector-curvature="0"
     style="fill:#bee6f6" />
  <path
     class="cls-3"
     d="m 108.69,54.05 v 156 H 72.04 L 64.39,184.84 V 69.5 C 78.97,64.67 97.3,58.15 108.69,54.05 Z"
     id="path166"
     inkscape:connector-curvature="0"
     style="fill:#bee6f6" />
  <path
     class="cls-10"
     d="m 63.96,208.69 c 0,0 108.82,-56.34 214.48,0 l -51.77,112.67 -12.63,30.18 c 0,0 -49.66,4 -85.58,0 -35.92,-4 -64.5,-142.85 -64.5,-142.85 z"
     id="path168"
     inkscape:connector-curvature="0"
     style="fill:#ffffff" />
  <ellipse
     class="cls-11"
     cx="169.23"
     cy="329.72003"
     rx="136.25999"
     ry="13.75"
     id="ellipse170"
     style="fill:#dbdbda" />
  <path
     class="cls-12"
     d="m 236.55,330.73 c 12.38,-1.86 24.87,-5.55 34.58,-13.46 a 47.57,47.57 0 0 0 17.17,-38.83 c -21,-6.41 -43.39,-6.34 -65.36,-6.21 L 85.43,273 c -8.27,0 -16.7,0.12 -24.54,2.76 -5.77,1.94 -11.52,5.86 -12.89,11.79 -1.63,7 3.37,13.77 8.41,18.93 8.75,8.95 19,17 31,20.34 7.22,2 14.8,2.3 22.29,2.57 l 75.06,2.67 c 17.28,0.62 34.69,1.2 51.79,-1.33 z"
     id="path172"
     inkscape:connector-curvature="0"
     style="fill:#e1bb78" />
  <path
     class="cls-4"
     d="m 214.85,309.52 c -0.33,-1.25 -0.65,-2.5 -1,-3.75 a 14.9,14.9 0 0 0 -12.59,2.14 17.5,17.5 0 0 0 -16.73,-3.42 l -0.81,-3.49 -5.77,2.12 a 7.58,7.58 0 0 1 2.25,5.58 c -2.58,-0.76 -5.31,0.4 -8,0.54 -2.69,0.14 -6,-1.78 -5.37,-4.39 l -20.6,-1.48 a 7,7 0 0 1 -3.27,-0.78 14.24,14.24 0 0 1 -2.43,-2.59 c -3.27,-3.45 -10.13,-1.81 -11.48,2.75 a 4.46,4.46 0 0 1 0.8,8.72 c -1.82,0.54 -3.78,-0.12 -5.67,0.06 -1.89,0.18 -3.92,2.1 -3,3.75 -2,1.34 -4.81,-0.61 -5.69,-2.89 -0.88,-2.28 -0.74,-4.87 -1.69,-7.12 a 8.08,8.08 0 0 0 -9.39,-4.44 26.27,26.27 0 0 0 -2.15,8.16 l -6.89,-6.73 a 14.89,14.89 0 0 1 -3.22,-3.92 l -5.81,-0.08 c 0.71,0.85 0.11,2.24 -0.87,2.75 a 6,6 0 0 1 -3.25,0.32 65.16,65.16 0 0 0 -19.74,1.38 c -1.76,0.4 -4,2.07 -2.84,3.48 -9,2 -19,-5.22 -19.88,-14.44 a 3.52,3.52 0 0 1 0.21,-1.88 c 0.56,-1.16 2,-1.46 3.32,-1.61 48,-5.88 96.39,-6.36 144.7,-6.83 l 87.4,-0.86 c 6.11,-0.06 12.41,-0.08 18,2.26 4.28,1.77 8.4,6.15 6.89,10.52 -0.9,2.59 -3.63,4.64 -3.33,7.36 -3.93,2.5 -8.43,-6.51 -12.28,-3.92 0.19,1.37 -1.29,2.48 -2.67,2.52 a 10.3,10.3 0 0 1 -3.95,-1.15 c -7.08,-2.8 -15.05,-0.79 -22.67,-1.08 -5,-0.19 -9.91,-1.38 -14.88,-1.11 -4.97,0.27 -10.29,2.47 -12.36,7 a 10.91,10.91 0 0 1 -12.34,14.6 30.44,30.44 0 0 1 1.94,-8.09 z"
     id="path174"
     inkscape:connector-curvature="0"
     style="fill:#ffe67b" />
  <path
     class="cls-7"
     d="m 184.93,260.82 c 36.25,0 72.56,-0.1 108.64,3.32 3.08,0.29 6.25,0.63 9,2.1 5.77,3.12 7.82,11.55 4.14,17 -2.63,3.86 -7.37,5.84 -12,6.38 -4.63,0.54 -9.33,-0.12 -14,-0.44 -12.53,-0.85 -25.06,0.82 -37.57,2 -60.61,5.44 -121.71,-2.08 -182.49,1.12 a 1,1 0 1 0 -1,0.09 c 0.22,-2 -2.9,-2.32 -4.9,-1.81 -5.45,1.39 -11.26,2.15 -16.65,0.54 -5.39,-1.61 -10.22,-6.06 -10.86,-11.65 -0.71,-6.25 4,-12.11 9.67,-14.8 5.67,-2.69 12.2,-2.88 18.49,-3 31.19,-0.64 62.4,-0.69 93.6,-0.73 z"
     id="path176"
     inkscape:connector-curvature="0"
     style="fill:#a84f25" />
  <path
     class="cls-5"
     d="m 205.63,273.83 c -5.51,0.45 -9.37,6.71 -14.89,6.68 -4,0 -7.12,-3.37 -10.59,-5.39 -3.94,-2.28 -8.59,-2.92 -13.1,-3.52 -7.93,-1 -17.4,-1.5 -22.37,4.76 a 7.42,7.42 0 0 1 -1.65,1.79 c -1.83,1.18 -4.19,0 -6.16,-1 -6,-2.86 -12.9,-2.9 -19.55,-2.87 l -23.28,0.08 -18,0.06 a 82.49,82.49 0 0 1 -15.79,-1 13.36,13.36 0 0 1 -4.47,-1.51 c -1.33,-0.8 -2.4,-2 -3.75,-2.71 -1.88,-1 -4.31,-1.28 -5.58,-3 -1.86,-2.54 0.15,-6 2.18,-8.44 2.48,-3 5.19,-5.93 8.77,-7.37 3,-1.21 6.27,-1.24 9.47,-1.26 61.74,-0.32 123.52,0.16 185.14,-3.56 10.68,-0.65 21.87,-1.33 31.6,3.1 2.18,1 4.52,2.71 4.42,5.09 -0.07,1.48 -1.1,2.85 -0.88,4.31 0.22,1.46 1.65,2.44 2.36,3.75 a 4.22,4.22 0 0 1 -6.59,5.09 15.39,15.39 0 0 1 -12.95,7 c -4.57,-0.06 -9,-2.19 -13.56,-1.74 -4.14,0.41 -7.85,2.93 -12,3.3 -8.74,0.79 -17.4,-8 -25.36,-4.28 -1.91,0.89 -3.52,2.43 -5.56,2.92 -2.56,0.68 -5.23,-0.49 -7.86,-0.28 z"
     id="path178"
     inkscape:connector-curvature="0"
     style="fill:#ed8222" />
  <path
     class="cls-13"
     d="m 44.84,262.94 c 0,0 1.7,10.11 49.21,11.42 47.51,1.31 53.63,0.8 61.77,-1.75 8.14,-2.55 31.71,4.34 31.71,4.34 0,0 16.53,-0.83 26,-2.78 9.47,-1.95 30.92,1.36 30.92,1.36 9.14,0.65 38.76,-5.25 43.95,-8.32"
     id="path180"
     inkscape:connector-curvature="0"
     style="fill:none;stroke:#3a3a3a;stroke-width:3.31999993px;stroke-miterlimit:10" />
  <path
     class="cls-4"
     d="m 183.04,265.62 c -4.62,0.4 -6,-6.93 -10.35,-8.47 -1.86,-0.66 -3.92,-0.12 -5.89,-0.29 -5.41,-0.47 -9.49,-6.21 -14.91,-6 -6.46,0.3 -10.7,9 -17.11,8.1 1.52,2.84 -0.69,6.52 -3.67,7.74 -2.98,1.22 -6.36,0.68 -9.53,0.12 -0.41,-3.4 -2.31,-7 -5.61,-7.88 -3.3,-0.88 -7.35,2.5 -6,5.65 a 26.54,26.54 0 0 0 -16.78,-3.7 c -3.62,0.42 -7.41,1.57 -10.79,0.22 a 33.27,33.27 0 0 0 -3.7,-1.7 10.83,10.83 0 0 0 -3.64,-0.14 l -16.11,1.25 c -5.51,0.42 -12.69,-0.24 -14.15,-5.57 -0.79,-2.86 0.69,-6 2.95,-7.88 2.26,-1.88 5.2,-2.83 8.08,-3.54 10.43,-2.56 21.27,-2.86 32,-3 58.09,-0.56 116.34,4.18 174.18,-1.21 6.42,-0.6 13,-1.3 19.22,0.48 6.22,1.78 12,6.75 12.57,13.17 -1.71,1.69 -3.73,3.51 -6.14,3.37 -3,-0.18 -5,-3.28 -7.9,-4 -3.82,-1 -7.23,2.32 -10.64,4.29 -9.64,5.59 -21.63,0.82 -32.69,-0.54 a 102.68,102.68 0 0 0 -17.71,-0.12 l -19.06,1 c -3.53,0.18 -7.35,0.47 -10,2.83 -2.18,2.05 -3.62,5.56 -6.62,5.82 z"
     id="path182"
     inkscape:connector-curvature="0"
     style="fill:#ffe67b" />
  <path
     class="cls-14"
     d="m 69.41,218.57 c 29.93,-19.42 66.82,-21.5 102,-22.84 a 211.39,211.39 0 0 1 23.48,0 c 17.66,1.29 34.74,6.95 51.62,12.57 9.3,3.09 18.74,6.26 26.8,12 8.06,5.74 14.69,14.63 15.65,24.84 a 2.54,2.54 0 0 1 -0.17,1.5 2.45,2.45 0 0 1 -2.14,0.9 q -110.43,6 -221.08,4.64 c -6.36,-0.08 -13.44,-0.48 -17.86,-5.29 2.79,-6.56 5.65,-13.24 10.19,-18.62 a 51.6,51.6 0 0 1 11.51,-9.7 z"
     id="path184"
     inkscape:connector-curvature="0"
     style="fill:#d18529" />
  <path
     class="cls-15"
     d="m 46.57,282.35 c 0,0 12.26,-4.75 21,-0.39 8.74,4.36 13.45,2.77 16.61,1.58"
     id="path186"
     inkscape:connector-curvature="0"
     style="fill:none;stroke:#752f16;stroke-width:4.75px;stroke-linecap:round;stroke-linejoin:round" />
  <path
     class="cls-15"
     d="m 129.64,284.73 c 0,0 2.77,-2.38 7.13,0.79 4.36,3.17 13.05,0.79 14.24,-2.77"
     id="path188"
     inkscape:connector-curvature="0"
     style="fill:none;stroke:#752f16;stroke-width:4.75px;stroke-linecap:round;stroke-linejoin:round" />
  <path
     class="cls-15"
     d="m 225.38,281.56 a 14.1,14.1 0 0 0 14.24,3.17 c 8.7,-2.77 15.82,-3.57 19,-2.38"
     id="path190"
     inkscape:connector-curvature="0"
     style="fill:none;stroke:#752f16;stroke-width:4.75px;stroke-linecap:round;stroke-linejoin:round" />
  <polyline
     class="cls-12"
     points="194.75 490 236 506.64 204.25 482.5"
     id="polyline192"
     style="fill:#e1bb78"
     transform="translate(-105.96,-273.74)" />
  <polyline
     class="cls-12"
     points="253.5 476.75 310.37 502.69 269.75 474.75"
     id="polyline194"
     style="fill:#e1bb78"
     transform="translate(-105.96,-273.74)" />
  <polyline
     class="cls-12"
     points="319.87 474.2 358.63 506.64 337.27 476.58"
     id="polyline196"
     style="fill:#e1bb78"
     transform="translate(-105.96,-273.74)" />
  <path
     class="cls-16"
     d="m 59.93,260.48 a 29.17,29.17 0 0 0 17.72,9.42 c 11.49,1.6 28.22,7.66 28.22,7.66"
     id="path198"
     inkscape:connector-curvature="0"
     style="fill:none;stroke:#40a448;stroke-width:6.32999992px;stroke-miterlimit:10" />
  <path
     class="cls-17"
     d="m 236.35,258.93 a 29.2,29.2 0 0 0 17,10.61 c 11.36,2.39 27.63,9.58 27.63,9.58"
     id="path200"
     inkscape:connector-curvature="0"
     style="fill:none;stroke:#e12e26;stroke-width:6.32999992px;stroke-miterlimit:10" />
  <path
     class="cls-17"
     d="m 113.53,264 c 0,0 14.43,5.48 20.26,7.4 5.83,1.92 18.74,7.39 18.74,7.39"
     id="path202"
     inkscape:connector-curvature="0"
     style="fill:none;stroke:#e12e26;stroke-width:6.32999992px;stroke-miterlimit:10" />
  <path
     class="cls-16"
     d="m 168.04,266.4 a 19.75,19.75 0 0 0 19.51,10.55 c 14.24,-1.06 25.85,7.91 25.85,7.91"
     id="path204"
     inkscape:connector-curvature="0"
     style="fill:none;stroke:#40a448;stroke-width:6.32999992px;stroke-miterlimit:10" />
  <path
     class="cls-10"
     d="M 169.38,98.54 A 232,232 0 0 1 125.22,94.26 C 85.47,86.53 59.64,71.26 58.56,70.6 l 8.63,-14.42 -4.31,7.21 4.3,-7.21 c 0.25,0.14 24.84,14.61 61.87,21.71 49.23,9.43 96,2.09 139.11,-21.84 l 8.16,14.68 A 218.11,218.11 0 0 1 169.38,98.54 Z"
     id="path206"
     inkscape:connector-curvature="0"
     style="fill:#ffffff" />
  <path
     class="cls-4"
     d="m 282.41,56.74 c -74.62,45.73 -156,45.73 -230.67,0 l 20.3,-29.83 c 62.4,37.28 127.68,37.31 190.12,0 z"
     id="path208"
     inkscape:connector-curvature="0"
     style="fill:#ffe67b" />
  <path
     class="cls-1"
     d="m 84.78,56.88 c -0.27,1 -0.41,1.45 -0.67,2.41 h 0.09 l 1.27,-2.2 c 2.26,-2.44 3.38,-3.67 5.57,-6.15 0.76,0.31 1.15,0.46 1.91,0.75 -0.1,3.32 -0.14,5 -0.16,8.31 l -0.55,2.45 h 0.09 c 0.48,-0.9 0.72,-1.35 1.21,-2.24 1.83,-2.65 2.73,-4 4.51,-6.65 1.19,0.43 1.79,0.64 3,1 -3.49,4.78 -5.28,7.14 -9,11.8 l -2.1,-0.77 c 0,-3.35 0,-5 0,-8.35 0.16,-0.86 0.24,-1.28 0.41,-2.14 h -0.11 l -1.21,1.93 c -2.23,2.46 -3.36,3.68 -5.66,6.09 l -2.19,-0.91 c 0.47,-5.93 0.76,-8.89 1.46,-14.76 1.25,0.56 1.88,0.84 3.14,1.37 -0.41,3.22 -0.62,4.83 -1.01,8.06 z"
     id="path210"
     inkscape:connector-curvature="0"
     style="fill:#3a3a3a" />
  <path
     class="cls-1"
     d="m 101.23,62.13 a 7.73,7.73 0 0 1 3.37,-4.59 6.71,6.71 0 0 1 5.35,-0.34 8,8 0 0 1 2.71,1.32 5.68,5.68 0 0 1 1.66,2 6.27,6.27 0 0 1 0.63,2.55 10,10 0 0 1 -0.34,3 7.27,7.27 0 0 1 -3.15,4.75 6.92,6.92 0 0 1 -5.61,0.4 8.59,8.59 0 0 1 -2.91,-1.42 5.64,5.64 0 0 1 -1.69,-2.08 6.19,6.19 0 0 1 -0.54,-2.59 9.89,9.89 0 0 1 0.52,-3 z m 3.23,1 a 8.25,8.25 0 0 0 -0.38,1.92 4.44,4.44 0 0 0 0.18,1.66 3.2,3.2 0 0 0 0.79,1.29 3.56,3.56 0 0 0 1.49,0.81 3.28,3.28 0 0 0 2.91,-0.35 5.7,5.7 0 0 0 1.9,-3.32 8.67,8.67 0 0 0 0.31,-1.88 5.14,5.14 0 0 0 -0.17,-1.65 3,3 0 0 0 -0.77,-1.29 3.32,3.32 0 0 0 -1.46,-0.81 3.17,3.17 0 0 0 -2.83,0.38 6,6 0 0 0 -1.97,3.27 z"
     id="path212"
     inkscape:connector-curvature="0"
     style="fill:#3a3a3a" />
  <path
     class="cls-1"
     d="m 120.68,60.47 c 0.35,0 0.73,0.06 1.13,0.11 0.4,0.05 0.8,0.1 1.19,0.16 l 1.15,0.19 1,0.2 a 13.7,13.7 0 0 1 2.1,0.62 6.82,6.82 0 0 1 1.77,1 3.65,3.65 0 0 1 1.11,1.45 3.44,3.44 0 0 1 0.15,2 4.17,4.17 0 0 1 -1.42,2.59 4.79,4.79 0 0 1 -2.74,1 l 1,0.84 c 1.06,2.38 1.62,3.57 2.76,5.95 -1.5,-0.27 -2.25,-0.41 -3.74,-0.7 -1.08,-2.45 -1.61,-3.67 -2.61,-6.13 l -1.6,-0.61 c -0.5,2.24 -0.75,3.36 -1.24,5.61 -1.29,-0.29 -1.93,-0.43 -3.22,-0.74 z m 4.21,3.1 -0.94,-0.18 a 3.72,3.72 0 0 0 -0.72,-0.08 l -0.87,4 1.32,0.29 a 3.75,3.75 0 0 0 2.18,-0.08 1.91,1.91 0 0 0 1.11,-1.53 1.71,1.71 0 0 0 -0.35,-1.51 3,3 0 0 0 -1.73,-0.91 z"
     id="path214"
     inkscape:connector-curvature="0"
     style="fill:#3a3a3a" />
  <path
     class="cls-1"
     d="m 144.64,78.65 c -4.23,-0.47 -6.34,-0.75 -10.55,-1.41 0.87,-5.54 1.31,-8.31 2.18,-13.85 1.23,0.2 1.84,0.29 3.06,0.46 -0.66,4.59 -1,6.88 -1.64,11.46 2.88,0.41 4.32,0.59 7.21,0.91 z"
     id="path216"
     inkscape:connector-curvature="0"
     style="fill:#3a3a3a" />
  <path
     class="cls-1"
     d="m 150.04,65.11 c 0.32,0 0.68,0 1.08,0 h 1.22 l 1.23,0.07 1.06,0.07 a 11.51,11.51 0 0 1 3.54,0.73 6.44,6.44 0 0 1 2.35,1.58 5.81,5.81 0 0 1 1.28,2.29 9.39,9.39 0 0 1 -0.17,5.6 5.91,5.91 0 0 1 -1.51,2.29 7.09,7.09 0 0 1 -2.71,1.52 11,11 0 0 1 -4.1,0.36 c -0.25,0 -0.59,-0.05 -1,-0.09 L 151,79.38 149.7,79.2 a 8.2,8.2 0 0 1 -0.93,-0.15 c 0.46,-5.56 0.72,-8.35 1.27,-13.94 z m 4.67,2.62 -1,-0.05 h -0.76 c -0.29,3.75 -0.44,5.62 -0.73,9.36 l 0.32,0.06 0.49,0.05 0.49,0.06 h 0.36 a 5.32,5.32 0 0 0 2.31,-0.26 3.69,3.69 0 0 0 1.5,-1 3.9,3.9 0 0 0 0.82,-1.53 7.87,7.87 0 0 0 0.3,-1.82 7.17,7.17 0 0 0 -0.11,-1.66 3.73,3.73 0 0 0 -0.6,-1.52 3.64,3.64 0 0 0 -1.27,-1.15 4.83,4.83 0 0 0 -2.16,-0.54 z"
     id="path218"
     inkscape:connector-curvature="0"
     style="fill:#3a3a3a" />
  <path
     class="cls-1"
     d="m 165.36,67.07 a 1.17,1.17 0 0 1 0.46,-0.93 2,2 0 0 1 2.4,0.15 1.74,1.74 0 0 1 0.47,1.26 3,3 0 0 1 -0.29,1.36 3.32,3.32 0 0 1 -0.69,0.93 3.57,3.57 0 0 1 -0.86,0.57 5.79,5.79 0 0 1 -0.75,0.3 l -0.74,-1.11 a 2.88,2.88 0 0 0 0.82,-0.47 1.09,1.09 0 0 0 0.41,-0.76 1.17,1.17 0 0 1 -0.84,-0.32 1.22,1.22 0 0 1 -0.39,-0.98 z"
     id="path220"
     inkscape:connector-curvature="0"
     style="fill:#3a3a3a" />
  <path
     class="cls-1"
     d="m 180.45,75.96 a 1.22,1.22 0 0 0 -0.6,-1 7,7 0 0 0 -1.42,-0.67 c -0.56,-0.2 -1.17,-0.4 -1.82,-0.61 a 10.36,10.36 0 0 1 -1.82,-0.81 4.61,4.61 0 0 1 -1.39,-1.24 3.33,3.33 0 0 1 -0.58,-1.94 3.79,3.79 0 0 1 0.36,-1.77 3.57,3.57 0 0 1 1.07,-1.28 5.2,5.2 0 0 1 1.66,-0.78 9.17,9.17 0 0 1 2.15,-0.32 15.67,15.67 0 0 1 2.59,0.09 7.35,7.35 0 0 1 2,0.49 c -0.33,0.94 -0.5,1.41 -0.84,2.36 a 5.9,5.9 0 0 0 -1.53,-0.43 10,10 0 0 0 -2.16,-0.13 3.16,3.16 0 0 0 -1.66,0.44 1.19,1.19 0 0 0 0,2 5.81,5.81 0 0 0 1.39,0.69 q 0.83,0.31 1.8,0.63 a 10.71,10.71 0 0 1 1.83,0.78 4.88,4.88 0 0 1 1.45,1.17 3.17,3.17 0 0 1 0.67,1.84 4.05,4.05 0 0 1 -0.32,1.95 3.75,3.75 0 0 1 -1.15,1.42 5.5,5.5 0 0 1 -1.9,0.91 11,11 0 0 1 -2.49,0.37 14.93,14.93 0 0 1 -3.18,-0.19 10.17,10.17 0 0 1 -2,-0.52 c 0.41,-0.94 0.61,-1.42 1,-2.36 a 6.05,6.05 0 0 0 0.68,0.25 c 0.27,0.08 0.59,0.16 0.94,0.23 0.35,0.07 0.72,0.13 1.11,0.17 a 7.94,7.94 0 0 0 1.2,0 4.61,4.61 0 0 0 2.2,-0.5 1.34,1.34 0 0 0 0.76,-1.24 z"
     id="path222"
     inkscape:connector-curvature="0"
     style="fill:#3a3a3a" />
  <path
     class="cls-1"
     d="m 214.22,64.51 a 4.07,4.07 0 0 1 0.07,1.05 2.75,2.75 0 0 1 -0.29,1 3.43,3.43 0 0 1 -0.73,0.93 4.06,4.06 0 0 1 -1.23,0.77 v 0.12 a 6.92,6.92 0 0 1 1.37,0.07 3.55,3.55 0 0 1 1.21,0.42 3.29,3.29 0 0 1 0.94,0.85 3.68,3.68 0 0 1 0.56,1.33 3.2,3.2 0 0 1 -0.14,1.95 4.1,4.1 0 0 1 -1.18,1.56 7.17,7.17 0 0 1 -1.91,1.14 11.6,11.6 0 0 1 -2.35,0.7 l -1,0.19 -1.36,0.21 c -0.48,0.06 -1,0.12 -1.48,0.16 a 13.87,13.87 0 0 1 -1.4,0.05 l -2.2,-13.64 0.95,-0.28 c 0.36,-0.1 0.74,-0.2 1.15,-0.29 0.41,-0.09 0.83,-0.2 1.27,-0.29 l 1.29,-0.25 a 16,16 0 0 1 2.15,-0.26 7.53,7.53 0 0 1 1.94,0.15 3.48,3.48 0 0 1 1.52,0.77 2.89,2.89 0 0 1 0.85,1.59 z m -6.18,3.89 0.73,-0.15 c 0.28,-0.07 0.51,-0.13 0.69,-0.19 a 4.23,4.23 0 0 0 1.36,-1 1.48,1.48 0 0 0 0.38,-1.34 1.51,1.51 0 0 0 -0.39,-0.79 1.71,1.71 0 0 0 -0.7,-0.41 2.82,2.82 0 0 0 -0.89,-0.11 6,6 0 0 0 -1,0.1 l -1.07,0.22 c -0.33,0.07 -0.58,0.14 -0.75,0.19 0.25,1.46 0.38,2.19 0.64,3.65 z m 2.12,5.74 a 5.18,5.18 0 0 0 1.12,-0.33 3.33,3.33 0 0 0 0.9,-0.55 2,2 0 0 0 0.55,-0.74 1.53,1.53 0 0 0 0.09,-0.93 1.59,1.59 0 0 0 -0.51,-0.95 1.94,1.94 0 0 0 -0.89,-0.42 4.23,4.23 0 0 0 -1.14,-0.06 c -0.4,0 -0.81,0.1 -1.21,0.17 l -1.68,0.3 c 0.27,1.51 0.4,2.26 0.66,3.77 a 1.78,1.78 0 0 0 0.39,0 l 0.56,-0.07 0.61,-0.09 z"
     id="path224"
     inkscape:connector-curvature="0"
     style="fill:#3a3a3a" />
  <path
     class="cls-1"
     d="m 218.39,60.26 c 3.66,-0.88 5.48,-1.35 9.1,-2.39 l 0.67,2.35 c -2.45,0.7 -3.69,1 -6.16,1.66 0.33,1.27 0.49,1.9 0.81,3.17 2.28,-0.58 3.42,-0.89 5.69,-1.53 0.26,0.94 0.4,1.41 0.66,2.35 -2.29,0.65 -3.44,1 -5.75,1.54 0.33,1.33 0.5,2 0.84,3.32 2.62,-0.66 3.93,-1 6.54,-1.76 l 0.67,2.34 c -3.91,1.12 -5.88,1.64 -9.82,2.58 z"
     id="path226"
     inkscape:connector-curvature="0"
     style="fill:#3a3a3a" />
  <path
     class="cls-1"
     d="m 241.88,64.04 a 1.23,1.23 0 0 0 -0.87,-0.8 6.73,6.73 0 0 0 -1.56,-0.24 l -1.94,-0.07 a 9.85,9.85 0 0 1 -2,-0.26 4.84,4.84 0 0 1 -1.7,-0.8 3.28,3.28 0 0 1 -1.1,-1.7 3.81,3.81 0 0 1 -0.14,-1.81 3.42,3.42 0 0 1 0.68,-1.52 5.19,5.19 0 0 1 1.39,-1.22 9.5,9.5 0 0 1 2,-0.92 17.7,17.7 0 0 1 2.55,-0.65 7.52,7.52 0 0 1 2.12,-0.1 c -0.06,1 -0.09,1.5 -0.16,2.5 a 6.24,6.24 0 0 0 -1.61,0 10.56,10.56 0 0 0 -2.14,0.49 3.27,3.27 0 0 0 -1.49,0.89 1.19,1.19 0 0 0 0.59,1.94 6.36,6.36 0 0 0 1.54,0.27 c 0.59,0 1.23,0.07 1.93,0.09 a 10.73,10.73 0 0 1 2,0.23 4.79,4.79 0 0 1 1.74,0.72 3.13,3.13 0 0 1 1.16,1.57 4.07,4.07 0 0 1 0.24,2 3.85,3.85 0 0 1 -0.73,1.69 5.81,5.81 0 0 1 -1.59,1.41 11.69,11.69 0 0 1 -2.33,1.06 15.36,15.36 0 0 1 -3.13,0.72 10.77,10.77 0 0 1 -2.11,0.07 c 0.13,-1 0.2,-1.54 0.32,-2.56 a 6.42,6.42 0 0 0 0.73,0.05 8.62,8.62 0 0 0 1,0 c 0.36,0 0.73,-0.08 1.12,-0.15 a 8.51,8.51 0 0 0 1.18,-0.3 4.8,4.8 0 0 0 2,-1.11 1.31,1.31 0 0 0 0.31,-1.49 z"
     id="path228"
     inkscape:connector-curvature="0"
     style="fill:#3a3a3a" />
  <path
     class="cls-1"
     d="m 257.04,49.62 c -1.73,0.78 -2.6,1.16 -4.34,1.9 l 4.5,10.66 c -1.23,0.52 -1.85,0.77 -3.09,1.28 l -4.35,-10.73 c -1.76,0.72 -2.64,1.06 -4.42,1.74 -0.34,-0.92 -0.52,-1.37 -0.86,-2.29 4.66,-1.77 7,-2.73 11.56,-4.79 z"
     id="path230"
     inkscape:connector-curvature="0"
     style="fill:#3a3a3a" />
  <polygon
     class="cls-6"
     points="263.61,648.76 269.58,642.94 268.17,634.72 275.55,638.6 282.94,634.72 281.53,642.94 287.5,648.76 279.25,649.96 275.55,657.45 271.86,649.96 "
     id="polygon232"
     style="fill:#676767"
     transform="translate(-105.96,-273.74)" />
  <path
     class="cls-27"
     d="m 150.04,142.26 a 23.18,23.18 0 0 1 -1.63,8.85 20.31,20.31 0 0 1 -4.6,6.85 23.72,23.72 0 0 1 -7.1,4.69 31.44,31.44 0 0 1 -9.1,2.35 1.38,1.38 0 0 1 -1,-0.26 1.27,1.27 0 0 1 -0.44,-1.1 1.77,1.77 0 0 1 0.38,-1.1 1.37,1.37 0 0 1 1,-0.55 30.6,30.6 0 0 0 8.11,-2 20.18,20.18 0 0 0 6.29,-4 17.31,17.31 0 0 0 4.06,-5.88 19.47,19.47 0 0 0 1.45,-7.7 16.63,16.63 0 0 0 -1.68,-7.66 14.55,14.55 0 0 0 -4.74,-5.49 18.56,18.56 0 0 0 -7.2,-2.93 29.4,29.4 0 0 0 -9.19,-0.21 43.29,43.29 0 0 0 -9.13,2.12 45.43,45.43 0 0 0 -8.26,3.82 42.67,42.67 0 0 0 -7,5.15 36.56,36.56 0 0 0 -5.41,6.05 28.67,28.67 0 0 0 -3.51,6.54 19.24,19.24 0 0 0 -1.25,6.69 12.29,12.29 0 0 0 0.87,4.91 8.11,8.11 0 0 0 2.32,3.16 7.16,7.16 0 0 0 3.33,1.52 10.46,10.46 0 0 0 3.94,0 16.9,16.9 0 0 0 4.36,-1.4 23.47,23.47 0 0 0 3.22,-1.89 15.43,15.43 0 0 0 2,-1.69 l 0.77,-0.83 a 1.39,1.39 0 0 1 0.91,-0.59 1,1 0 0 1 0.93,0.32 1.34,1.34 0 0 1 0.4,1 1.66,1.66 0 0 1 -0.42,1.15 c 0,0.06 -0.34,0.39 -0.89,1 a 17.83,17.83 0 0 1 -2.39,2.07 26.26,26.26 0 0 1 -3.8,2.28 19.28,19.28 0 0 1 -5.11,1.66 12.41,12.41 0 0 1 -5,0 9.49,9.49 0 0 1 -4.18,-2.05 10.88,10.88 0 0 1 -2.85,-4 15,15 0 0 1 -1.06,-5.93 22.52,22.52 0 0 1 1.34,-7.57 32.24,32.24 0 0 1 3.75,-7.37 41,41 0 0 1 5.81,-6.77 45.56,45.56 0 0 1 7.52,-5.72 48.92,48.92 0 0 1 8.87,-4.23 46,46 0 0 1 9.85,-2.33 31,31 0 0 1 10.3,0.35 20.46,20.46 0 0 1 8.07,3.54 17.17,17.17 0 0 1 5.25,6.35 20,20 0 0 1 1.84,8.83 z m -21,-8 a 1.16,1.16 0 0 1 0.94,0.33 1.39,1.39 0 0 1 0.4,1.07 1.49,1.49 0 0 1 -0.19,0.75 3.63,3.63 0 0 1 -0.48,0.65 18.17,18.17 0 0 0 -3.15,4.2 20.19,20.19 0 0 0 -1.8,4.65 29.71,29.71 0 0 0 -0.81,5.13 c -0.13,1.8 -0.19,3.67 -0.19,5.61 v 5.1 a 57.69,57.69 0 0 1 -0.78,9.63 28.52,28.52 0 0 1 -2.62,8.25 18.06,18.06 0 0 1 -4.94,6.09 16.62,16.62 0 0 1 -7.75,3.23 14.68,14.68 0 0 1 -4.12,0.14 13,13 0 0 1 -3.79,-1 12.22,12.22 0 0 1 -3.28,-2.08 13.09,13.09 0 0 1 -2.58,-3.12 1.69,1.69 0 0 1 -0.14,-0.35 1.22,1.22 0 0 1 -0.07,-0.41 2,2 0 0 1 0.36,-1.11 1.52,1.52 0 0 1 1,-0.66 0.91,0.91 0 0 1 0.65,0.09 1.49,1.49 0 0 1 0.5,0.44 12.7,12.7 0 0 0 5.07,4.42 11,11 0 0 0 6.44,0.65 14.1,14.1 0 0 0 6.75,-2.84 14.83,14.83 0 0 0 4.11,-5.41 25.45,25.45 0 0 0 2,-7.42 66.25,66.25 0 0 0 0.55,-8.77 v -5.14 c 0,-1.8 0.07,-3.68 0.21,-5.63 a 31,31 0 0 1 1,-5.79 25.15,25.15 0 0 1 2.18,-5.53 17.68,17.68 0 0 1 3.86,-4.85 l 0.35,-0.2 a 1.11,1.11 0 0 1 0.32,-0.12 z"
     id="path376"
     inkscape:connector-curvature="0"
     style="fill:#f6cf32;stroke:#f6cf32;stroke-width:3px;stroke-miterlimit:10" />
  <path
     class="cls-27"
     d="m 155.26,178.49 c 0.37,-0.93 0.81,-1.94 1.31,-3 0.5,-1.06 1,-2.19 1.59,-3.33 0.59,-1.14 1.17,-2.27 1.81,-3.39 a 35.53,35.53 0 0 1 2,-3.16 7.28,7.28 0 0 1 2.07,-2.08 3.79,3.79 0 0 1 2,-0.65 3,3 0 0 1 1.61,0.41 3.28,3.28 0 0 1 1.13,1.15 5.54,5.54 0 0 1 0.67,1.7 8.72,8.72 0 0 1 0.23,2.1 24.66,24.66 0 0 1 -0.16,2.49 c -0.1,1 -0.15,2.12 -0.15,3.26 0,0.64 0,1.29 0.08,1.92 a 8.87,8.87 0 0 0 0.32,1.7 3,3 0 0 0 0.69,1.21 1.64,1.64 0 0 0 1.21,0.47 3.08,3.08 0 0 0 1.7,-0.53 8.3,8.3 0 0 0 1.66,-1.44 17,17 0 0 0 1.56,-2 c 0.5,-0.74 0.94,-1.47 1.35,-2.2 0.41,-0.73 0.75,-1.44 1.06,-2.12 0.31,-0.68 0.56,-1.25 0.74,-1.7 a 1.23,1.23 0 0 1 1.24,-0.89 1.17,1.17 0 0 1 1,0.51 1.85,1.85 0 0 1 0.35,1.07 1.49,1.49 0 0 1 -0.11,0.6 c -0.08,0.21 -0.27,0.65 -0.54,1.32 -0.27,0.67 -0.64,1.43 -1.1,2.31 -0.46,0.88 -1,1.79 -1.61,2.75 a 19.72,19.72 0 0 1 -2,2.64 10.9,10.9 0 0 1 -2.41,2 5.22,5.22 0 0 1 -2.71,0.76 4.13,4.13 0 0 1 -2.62,-0.8 5.34,5.34 0 0 1 -1.54,-2 9.71,9.71 0 0 1 -0.74,-2.71 22.6,22.6 0 0 1 -0.2,-2.91 q 0,-0.74 0.06,-1.56 c 0,-0.55 0.07,-1.1 0.12,-1.64 0.05,-0.54 0.09,-1.05 0.12,-1.52 0.03,-0.47 0.06,-0.87 0.06,-1.19 a 3.32,3.32 0 0 0 -0.3,-1.7 0.85,0.85 0 0 0 -0.69,-0.44 2.07,2.07 0 0 0 -1.3,0.76 14,14 0 0 0 -1.52,2 q -0.79,1.23 -1.59,2.76 c -0.53,1 -1.05,2 -1.54,3.05 -0.49,1.05 -0.95,2 -1.35,2.89 l -1,2.28 a 6.35,6.35 0 0 1 -1.5,2.34 2.41,2.41 0 0 1 -1.37,0.63 1.75,1.75 0 0 1 -1.68,-0.92 4.49,4.49 0 0 1 -0.58,-2.38 v -2.55 q 0,-7.65 0,-14.58 0,-6.93 0.17,-12.92 0.16,-6 0.53,-10.83 a 62.51,62.51 0 0 1 1.12,-8.3 17.83,17.83 0 0 1 1.89,-5.35 3.5,3.5 0 0 1 2.89,-2 3.55,3.55 0 0 1 2.51,0.87 6.53,6.53 0 0 1 1.67,2.5 15.85,15.85 0 0 1 0.92,3.71 35.27,35.27 0 0 1 0.28,4.47 57,57 0 0 1 -0.76,9.37 78.37,78.37 0 0 1 -2,9 89.91,89.91 0 0 1 -3,8.6 c -1.14,2.79 -2.33,5.53 -3.58,8.19 v 7.08 c -0.09,0.78 -0.09,1.16 -0.07,1.92 z m 0,-14.93 q 1.48,-3.78 2.71,-7.36 c 0.81,-2.38 1.51,-4.76 2.09,-7.12 a 71.93,71.93 0 0 0 1.36,-7.17 56,56 0 0 0 0.49,-7.56 c 0,-0.43 0,-1.12 -0.05,-2.06 a 19,19 0 0 0 -0.32,-2.87 9.64,9.64 0 0 0 -0.81,-2.53 1.63,1.63 0 0 0 -1.54,-1.05 c -0.52,0 -1,0.43 -1.35,1.23 a 15,15 0 0 0 -1,3.27 c -0.28,1.37 -0.52,3 -0.71,4.78 -0.19,1.78 -0.34,3.74 -0.46,5.76 -0.12,2.02 -0.2,4.11 -0.26,6.25 -0.06,2.14 -0.1,4.2 -0.13,6.21 -0.03,2.01 0,3.89 0,5.65 z"
     id="path378"
     inkscape:connector-curvature="0"
     style="fill:#f6cf32;stroke:#f6cf32;stroke-width:3px;stroke-miterlimit:10" />
  <path
     class="cls-27"
     d="m 185.46,150.26 a 3.65,3.65 0 0 1 -0.94,2.57 2.81,2.81 0 0 1 -2.28,1 3,3 0 0 1 -2.28,-1.14 3.9,3.9 0 0 1 -0.94,-2.64 4,4 0 0 1 0.25,-1.43 3.43,3.43 0 0 1 0.69,-1.15 3,3 0 0 1 1,-0.76 2.68,2.68 0 0 1 1.26,-0.24 2.87,2.87 0 0 1 1.26,0.32 3.39,3.39 0 0 1 1,0.83 3.7,3.7 0 0 1 0.69,1.21 4,4 0 0 1 0.29,1.43 z m -5.73,23.51 a 106.61,106.61 0 0 1 0.63,-11.59 1.75,1.75 0 0 1 0.45,-1 1.14,1.14 0 0 1 1,-0.39 1.11,1.11 0 0 1 0.89,0.49 1.82,1.82 0 0 1 0.35,1.09 c 0,0.16 0,0.64 -0.09,1.45 -0.09,0.81 -0.13,1.77 -0.21,2.88 -0.08,1.11 -0.15,2.31 -0.21,3.56 -0.06,1.25 -0.09,2.4 -0.09,3.45 a 13.25,13.25 0 0 0 0.37,3.48 6.11,6.11 0 0 0 1,2.08 3.09,3.09 0 0 0 1.23,1 3.58,3.58 0 0 0 1.26,0.29 3.23,3.23 0 0 0 2.05,-0.71 11,11 0 0 0 2.18,-2.15 26.79,26.79 0 0 0 2.24,-3.36 q 1.14,-2 2.23,-4.41 a 1.33,1.33 0 0 1 0.5,-0.59 1.07,1.07 0 0 1 0.7,-0.17 1.22,1.22 0 0 1 0.94,0.55 1.79,1.79 0 0 1 0.37,1.08 1.55,1.55 0 0 1 -0.14,0.68 c -0.28,0.6 -0.64,1.32 -1.06,2.18 -0.42,0.86 -0.91,1.75 -1.45,2.65 -0.54,0.9 -1.14,1.81 -1.78,2.7 a 18,18 0 0 1 -2.07,2.38 10.15,10.15 0 0 1 -2.3,1.68 5,5 0 0 1 -2.45,0.57 5.25,5.25 0 0 1 -2.79,-0.89 7.17,7.17 0 0 1 -2,-2.13 10.25,10.25 0 0 1 -1.24,-3.09 17,17 0 0 1 -0.51,-3.79 z m 3.75,-23.59 a 1.48,1.48 0 0 0 -0.37,-1 1.18,1.18 0 0 0 -0.87,-0.46 1,1 0 0 0 -0.85,0.4 1.42,1.42 0 0 0 -0.35,1 1.49,1.49 0 0 0 0.35,1 1.13,1.13 0 0 0 0.85,0.43 1.08,1.08 0 0 0 0.87,-0.37 1.33,1.33 0 0 0 0.37,-1.03 z"
     id="path380"
     inkscape:connector-curvature="0"
     style="fill:#f6cf32;stroke:#f6cf32;stroke-width:3px;stroke-miterlimit:10" />
  <path
     class="cls-27"
     d="m 215.04,173.26 c -0.26,0.59 -0.58,1.28 -1,2.09 -0.42,0.81 -0.83,1.63 -1.32,2.49 a 28.31,28.31 0 0 1 -1.68,2.52 13.71,13.71 0 0 1 -2,2.21 8.86,8.86 0 0 1 -2.29,1.5 5.2,5.2 0 0 1 -2.6,0.42 5.58,5.58 0 0 1 -3.63,-1.82 13.67,13.67 0 0 1 -2.58,-4.14 30.33,30.33 0 0 1 -1.72,-5.65 c -0.43,-2.09 -0.77,-4.22 -1,-6.38 -0.23,-2.16 -0.4,-4.26 -0.48,-6.28 -0.08,-2.02 -0.13,-3.83 -0.13,-5.39 q 0,-3.4 0.2,-7 c 0.13,-2.42 0.33,-4.78 0.62,-7.08 0.29,-2.3 0.64,-4.47 1.07,-6.52 a 34.53,34.53 0 0 1 1.56,-5.35 11.54,11.54 0 0 1 2.08,-3.62 3.07,3.07 0 0 1 2.65,-1.15 4.08,4.08 0 0 1 2.1,0.82 5.45,5.45 0 0 1 1.57,2.2 15.84,15.84 0 0 1 1,3.78 36.92,36.92 0 0 1 0.36,5.58 48.33,48.33 0 0 1 -0.74,8.28 77.12,77.12 0 0 1 -2,8.48 88.84,88.84 0 0 1 -3,8.45 c -1.15,2.79 -2.39,5.52 -3.7,8.17 a 31,31 0 0 0 2.36,8.26 q 1.48,3.06 3.57,3.25 a 3.56,3.56 0 0 0 2.72,-1 13.81,13.81 0 0 0 2.39,-2.76 27.9,27.9 0 0 0 1.93,-3.33 c 0.55,-1.14 1,-2.05 1.28,-2.74 a 1.17,1.17 0 0 1 0.5,-0.57 1,1 0 0 1 0.7,-0.14 1.36,1.36 0 0 1 1,0.6 1.92,1.92 0 0 1 0.37,1.14 2.07,2.07 0 0 1 -0.16,0.68 z m -17.68,-18 c 0,1.73 0,3.39 0.11,5 0.11,1.61 0.16,3.13 0.28,4.6 q 1.48,-3.17 2.83,-6.76 1.35,-3.59 2.36,-7.27 a 72.93,72.93 0 0 0 1.64,-7.38 43.11,43.11 0 0 0 0.62,-7.08 25.11,25.11 0 0 0 -0.67,-6.9 c -0.45,-1.42 -1.05,-2.17 -1.8,-2.23 -0.5,-0.05 -1,0.3 -1.43,1 a 13.67,13.67 0 0 0 -1.29,3.09 42.78,42.78 0 0 0 -1.1,4.69 c -0.32,1.81 -0.6,3.75 -0.83,5.84 -0.23,2.09 -0.4,4.27 -0.53,6.56 -0.13,2.29 -0.24,4.53 -0.24,6.84 z"
     id="path382"
     inkscape:connector-curvature="0"
     style="fill:#f6cf32;stroke:#f6cf32;stroke-width:3px;stroke-miterlimit:10" />
  <path
     class="cls-27"
     d="m 232.59,175.84 c -0.26,0.58 -0.58,1.26 -1,2 -0.42,0.74 -0.82,1.6 -1.31,2.43 a 24,24 0 0 1 -1.65,2.46 13.42,13.42 0 0 1 -2,2.12 8.67,8.67 0 0 1 -2.29,1.39 5,5 0 0 1 -2.58,0.29 5.82,5.82 0 0 1 -3.62,-2 15,15 0 0 1 -2.57,-4.25 32.81,32.81 0 0 1 -1.71,-5.73 c -0.43,-2.12 -0.77,-4.27 -1,-6.44 -0.23,-2.17 -0.4,-4.27 -0.48,-6.3 -0.08,-2.03 -0.12,-3.84 -0.12,-5.4 0,-2.27 0.07,-4.61 0.19,-7 0.12,-2.39 0.34,-4.76 0.62,-7.05 0.28,-2.29 0.64,-4.44 1.07,-6.46 a 34,34 0 0 1 1.55,-5.28 11,11 0 0 1 2.06,-3.45 2.94,2.94 0 0 1 2.64,-1 4,4 0 0 1 2.09,0.92 5.78,5.78 0 0 1 1.57,2.27 16.45,16.45 0 0 1 1,3.83 38.72,38.72 0 0 1 0.35,5.6 46.74,46.74 0 0 1 -0.74,8.24 72.4,72.4 0 0 1 -2,8.39 85.06,85.06 0 0 1 -3,8.3 q -1.73,4.11 -3.69,8 a 32.3,32.3 0 0 0 2.36,8.38 q 1.47,3.12 3.55,3.42 a 3.39,3.39 0 0 0 2.7,-0.88 12.82,12.82 0 0 0 2.39,-2.65 24.66,24.66 0 0 0 1.91,-3.23 c 0.55,-1.11 1,-2 1.28,-2.69 a 1.13,1.13 0 0 1 0.49,-0.54 1,1 0 0 1 0.7,-0.11 1.46,1.46 0 0 1 1,0.65 2.1,2.1 0 0 1 0.37,1.16 2,2 0 0 1 -0.13,0.61 z m -17.55,-18.87 c 0,1.73 0,3.39 0.1,5 0.1,1.61 0.17,3.14 0.28,4.61 q 1.49,-3.09 2.82,-6.62 1.33,-3.53 2.36,-7.16 a 70.24,70.24 0 0 0 1.63,-7.3 42.57,42.57 0 0 0 0.62,-7.05 26,26 0 0 0 -0.67,-6.94 c -0.45,-1.44 -1,-2.21 -1.79,-2.31 -0.5,-0.07 -1,0.26 -1.43,1 a 12.8,12.8 0 0 0 -1.28,3 39.22,39.22 0 0 0 -1.09,4.64 q -0.5,2.69 -0.83,5.8 -0.33,3.11 -0.53,6.53 c -0.19,2.26 -0.19,4.54 -0.19,6.8 z"
     id="path384"
     inkscape:connector-curvature="0"
     style="fill:#f6cf32;stroke:#f6cf32;stroke-width:3px;stroke-miterlimit:10" />
  <path
     class="cls-27"
     d="m 243.21,189.61 2.48,-2.38 c 0.83,-0.81 1.65,-1.67 2.44,-2.58 a 31.92,31.92 0 0 0 2.21,-2.89 22.06,22.06 0 0 0 1.82,-3.33 1.06,1.06 0 0 1 0.49,-0.56 1,1 0 0 1 0.69,-0.06 1.56,1.56 0 0 1 1,0.71 2.17,2.17 0 0 1 0.36,1.17 1.59,1.59 0 0 1 -0.1,0.59 22.81,22.81 0 0 1 -2.47,4.24 38.78,38.78 0 0 1 -2.92,3.49 c -1,1.09 -2.05,2.13 -3.1,3.14 -1.05,1.01 -2,2 -3,3.08 -0.09,1.85 -0.09,3.71 0,5.61 0.09,1.9 0.14,3.89 0.14,6 0,1.73 0,3.45 -0.14,5.16 -0.14,1.71 -0.24,3.33 -0.45,4.86 a 32.36,32.36 0 0 1 -0.86,4.26 12.88,12.88 0 0 1 -1.37,3.31 5.91,5.91 0 0 1 -2,2 3.71,3.71 0 0 1 -2.62,0.39 5.42,5.42 0 0 1 -3.77,-2.66 11,11 0 0 1 -1.33,-5.77 24,24 0 0 1 0.33,-4.13 37.45,37.45 0 0 1 1,-4.42 c 0.44,-1.5 1,-3 1.59,-4.52 0.59,-1.52 1.29,-3 2,-4.37 a 43,43 0 0 1 2.3,-4 32.06,32.06 0 0 1 2.49,-3.31 c 0,-1.28 0.09,-2.62 0.15,-4 0.06,-1.38 0.12,-2.66 0.19,-3.83 a 6.75,6.75 0 0 1 -2.25,2.56 3.93,3.93 0 0 1 -2.95,0.59 6,6 0 0 1 -4.17,-2.8 10.58,10.58 0 0 1 -1.51,-5.91 23.35,23.35 0 0 1 0.44,-4.73 29.23,29.23 0 0 1 0.95,-3.56 15.38,15.38 0 0 1 0.92,-2.23 6.46,6.46 0 0 1 0.43,-0.72 1,1 0 0 1 1.08,-0.49 1.43,1.43 0 0 1 1,0.63 1.94,1.94 0 0 1 0.37,1.14 1.39,1.39 0 0 1 -0.21,0.77 c 0,0 -0.09,0.18 -0.33,0.61 a 12.15,12.15 0 0 0 -0.81,1.9 23.79,23.79 0 0 0 -0.8,3.06 19.72,19.72 0 0 0 -0.37,4 7.93,7.93 0 0 0 0.7,3.6 3,3 0 0 0 2.28,1.66 c 1.33,0.24 2.53,-0.67 3.6,-2.75 a 34.73,34.73 0 0 0 2.72,-9.4 1.18,1.18 0 0 1 0.42,-0.79 1,1 0 0 1 0.84,-0.18 1.56,1.56 0 0 1 0.94,0.64 1.91,1.91 0 0 1 0.38,1.17 c 0,0.08 0,0.55 -0.14,1.41 -0.14,0.86 -0.2,2 -0.33,3.43 -0.13,1.43 -0.26,3.1 -0.4,5 -0.14,1.9 -0.26,4.02 -0.35,6.19 z m -2.79,8 a 41,41 0 0 0 -2.88,5 47.54,47.54 0 0 0 -2.26,5.37 41.18,41.18 0 0 0 -1.47,5.24 22.89,22.89 0 0 0 -0.52,4.6 8.17,8.17 0 0 0 0.59,3.4 2.51,2.51 0 0 0 1.89,1.54 2.07,2.07 0 0 0 2,-0.94 10,10 0 0 0 1.5,-3.46 35.22,35.22 0 0 0 0.93,-5.71 c 0.21,-2.26 0.31,-4.83 0.31,-7.69 0,-1.16 0,-2.33 0,-3.53 0,-1.2 -0.07,-2.45 -0.09,-3.8 z"
     id="path386"
     inkscape:connector-curvature="0"
     style="fill:#f6cf32;stroke:#f6cf32;stroke-width:3px;stroke-miterlimit:10" />
  <path
     class="cls-28"
     d="m 147.04,139.4 a 23,23 0 0 1 -1.63,8.86 20.3,20.3 0 0 1 -4.59,6.89 23.88,23.88 0 0 1 -7.1,4.75 32.05,32.05 0 0 1 -9.1,2.43 1.39,1.39 0 0 1 -1,-0.26 1.29,1.29 0 0 1 -0.44,-1.1 1.74,1.74 0 0 1 0.39,-1.1 1.46,1.46 0 0 1 0.95,-0.56 30.62,30.62 0 0 0 8.11,-2.07 20.31,20.31 0 0 0 6.28,-4 17.59,17.59 0 0 0 4.03,-5.98 19.7,19.7 0 0 0 1.45,-7.71 16.58,16.58 0 0 0 -1.68,-7.65 14.49,14.49 0 0 0 -4.7,-5.37 18.42,18.42 0 0 0 -7.2,-2.88 29.47,29.47 0 0 0 -9.18,-0.13 44,44 0 0 0 -9.12,2.19 46.35,46.35 0 0 0 -8.26,3.89 43.31,43.31 0 0 0 -7,5.21 37.65,37.65 0 0 0 -5.41,6.09 28.83,28.83 0 0 0 -3.49,6.58 19,19 0 0 0 -1.26,6.69 12.21,12.21 0 0 0 0.87,4.9 8,8 0 0 0 2.32,3.15 7.23,7.23 0 0 0 3.32,1.49 10.48,10.48 0 0 0 3.94,-0.07 16.84,16.84 0 0 0 4.35,-1.44 22.8,22.8 0 0 0 3.22,-1.92 14.65,14.65 0 0 0 2,-1.7 l 0.77,-0.84 a 1.42,1.42 0 0 1 0.91,-0.6 1,1 0 0 1 0.93,0.31 1.36,1.36 0 0 1 0.4,1 1.67,1.67 0 0 1 -0.42,1.16 l -0.89,1 a 18.54,18.54 0 0 1 -2.39,2.08 24.43,24.43 0 0 1 -3.79,2.31 19.8,19.8 0 0 1 -5.11,1.71 12.38,12.38 0 0 1 -5,0 9.44,9.44 0 0 1 -4.18,-2 10.68,10.68 0 0 1 -2.85,-4 15.19,15.19 0 0 1 -1.05,-5.93 22.8,22.8 0 0 1 1.33,-7.57 32.34,32.34 0 0 1 3.76,-7.41 40.71,40.71 0 0 1 5.8,-6.81 45.54,45.54 0 0 1 7.51,-5.79 48.75,48.75 0 0 1 8.86,-4.3 46,46 0 0 1 9.84,-2.41 31,31 0 0 1 10.29,0.26 20.53,20.53 0 0 1 8.07,3.47 17,17 0 0 1 5.24,6.32 19.83,19.83 0 0 1 1.9,8.86 z m -21,-7.75 a 1.09,1.09 0 0 1 0.93,0.31 1.39,1.39 0 0 1 0.41,1.07 1.5,1.5 0 0 1 -0.2,0.75 4.19,4.19 0 0 1 -0.47,0.66 18.53,18.53 0 0 0 -3.16,4.22 20.88,20.88 0 0 0 -1.79,4.66 30,30 0 0 0 -0.81,5.15 c -0.13,1.8 -0.2,3.67 -0.2,5.61 v 5.1 a 57.8,57.8 0 0 1 -0.77,9.63 29,29 0 0 1 -2.62,8.27 18.54,18.54 0 0 1 -4.93,6.14 16.88,16.88 0 0 1 -7.75,3.29 14.64,14.64 0 0 1 -4.11,0.17 13.28,13.28 0 0 1 -3.79,-1 12.4,12.4 0 0 1 -3.28,-2.06 12.54,12.54 0 0 1 -2.57,-3.1 1.69,1.69 0 0 1 -0.14,-0.35 1.18,1.18 0 0 1 -0.07,-0.41 2,2 0 0 1 0.36,-1.11 1.51,1.51 0 0 1 1,-0.67 0.93,0.93 0 0 1 0.64,0.08 1.66,1.66 0 0 1 0.51,0.44 12.48,12.48 0 0 0 5.06,4.38 10.89,10.89 0 0 0 6.43,0.6 14.29,14.29 0 0 0 6.75,-2.9 15.09,15.09 0 0 0 4.1,-5.44 25.69,25.69 0 0 0 2,-7.43 66.63,66.63 0 0 0 0.55,-8.78 v -5.14 c 0,-1.81 0.07,-3.68 0.21,-5.63 a 31.23,31.23 0 0 1 1,-5.8 25.3,25.3 0 0 1 2.18,-5.55 17.91,17.91 0 0 1 3.85,-4.88 l 0.35,-0.2 a 1.08,1.08 0 0 1 0.33,-0.08 z"
     id="path388"
     inkscape:connector-curvature="0"
     style="fill:#3a3a3a;stroke:#3a3a3a;stroke-width:3px;stroke-miterlimit:10" />
  <path
     class="cls-28"
     d="m 152.24,175.62 c 0.38,-0.93 0.81,-1.95 1.31,-3 0.5,-1.05 1,-2.2 1.59,-3.35 0.59,-1.15 1.17,-2.27 1.81,-3.4 a 35.93,35.93 0 0 1 2,-3.18 7.33,7.33 0 0 1 2.07,-2.09 3.83,3.83 0 0 1 2,-0.67 2.94,2.94 0 0 1 1.61,0.4 3.25,3.25 0 0 1 1.13,1.14 5.48,5.48 0 0 1 0.67,1.69 8.78,8.78 0 0 1 0.23,2.1 24.66,24.66 0 0 1 -0.16,2.49 c -0.1,1 -0.16,2.13 -0.16,3.26 q 0,1 0.09,1.92 a 8.72,8.72 0 0 0 0.32,1.7 2.92,2.92 0 0 0 0.69,1.21 1.63,1.63 0 0 0 1.21,0.46 3.11,3.11 0 0 0 1.7,-0.55 8.06,8.06 0 0 0 1.66,-1.45 18.39,18.39 0 0 0 1.56,-2 c 0.49,-0.73 0.94,-1.47 1.35,-2.21 0.41,-0.74 0.75,-1.44 1.06,-2.12 0.31,-0.68 0.56,-1.26 0.74,-1.71 a 1.24,1.24 0 0 1 1.24,-0.9 1.13,1.13 0 0 1 1,0.5 1.84,1.84 0 0 1 0.35,1.06 1.51,1.51 0 0 1 -0.11,0.61 c -0.08,0.21 -0.27,0.65 -0.54,1.32 -0.27,0.67 -0.64,1.44 -1.1,2.32 -0.46,0.88 -1,1.8 -1.61,2.76 a 20.9,20.9 0 0 1 -2,2.67 11,11 0 0 1 -2.41,2 5.15,5.15 0 0 1 -2.71,0.78 4.06,4.06 0 0 1 -2.62,-0.77 5.26,5.26 0 0 1 -1.54,-2 9.55,9.55 0 0 1 -0.74,-2.7 22.36,22.36 0 0 1 -0.2,-2.91 c 0,-0.48 0,-1 0.06,-1.55 0.06,-0.55 0.07,-1.1 0.12,-1.64 0.05,-0.54 0.09,-1 0.12,-1.52 0.03,-0.52 0.06,-0.88 0.06,-1.2 a 3.27,3.27 0 0 0 -0.3,-1.69 0.83,0.83 0 0 0 -0.69,-0.44 2.07,2.07 0 0 0 -1.3,0.78 14,14 0 0 0 -1.52,2 c -0.53,0.83 -1.06,1.75 -1.59,2.78 -0.53,1.03 -1,2 -1.54,3.06 -0.54,1.06 -1,2 -1.35,2.9 l -1,2.29 a 6.49,6.49 0 0 1 -1.5,2.35 2.53,2.53 0 0 1 -1.37,0.65 1.76,1.76 0 0 1 -1.68,-0.91 4.49,4.49 0 0 1 -0.58,-2.38 v -2.55 c 0,-5.09 0,-10 0,-14.58 0,-4.58 0.07,-8.94 0.17,-12.92 0.1,-3.98 0.29,-7.6 0.54,-10.83 a 61,61 0 0 1 1.11,-8.31 18.15,18.15 0 0 1 1.89,-5.37 3.5,3.5 0 0 1 2.89,-2 3.45,3.45 0 0 1 2.51,0.85 6.45,6.45 0 0 1 1.67,2.48 15.76,15.76 0 0 1 0.92,3.7 35.39,35.39 0 0 1 0.28,4.47 57.17,57.17 0 0 1 -0.76,9.38 78.71,78.71 0 0 1 -2,9 90.29,90.29 0 0 1 -3,8.62 c -1.13,2.8 -2.33,5.54 -3.58,8.22 v 7.08 c -0.09,0.76 -0.08,1.14 -0.07,1.9 z m 0,-14.93 q 1.49,-3.8 2.71,-7.38 1.22,-3.58 2.09,-7.14 a 72.12,72.12 0 0 0 1.36,-7.18 56.16,56.16 0 0 0 0.49,-7.56 c 0,-0.44 0,-1.12 -0.05,-2.07 a 20.35,20.35 0 0 0 -0.32,-2.86 9.33,9.33 0 0 0 -0.81,-2.52 1.61,1.61 0 0 0 -1.54,-1 c -0.52,0 -1,0.43 -1.35,1.24 a 15.44,15.44 0 0 0 -1,3.28 c -0.28,1.37 -0.52,3 -0.71,4.78 -0.19,1.78 -0.34,3.74 -0.46,5.77 -0.12,2.03 -0.2,4.11 -0.26,6.24 -0.06,2.13 -0.1,4.21 -0.13,6.22 -0.03,2.01 0,3.89 0,5.65 z"
     id="path390"
     inkscape:connector-curvature="0"
     style="fill:#3a3a3a;stroke:#3a3a3a;stroke-width:3px;stroke-miterlimit:10" />
  <path
     class="cls-28"
     d="m 182.44,147.11 a 3.68,3.68 0 0 1 -0.94,2.58 2.83,2.83 0 0 1 -2.28,1 3,3 0 0 1 -2.28,-1.13 3.85,3.85 0 0 1 -0.94,-2.62 4,4 0 0 1 0.25,-1.44 3.57,3.57 0 0 1 0.69,-1.16 3,3 0 0 1 1,-0.76 2.82,2.82 0 0 1 1.26,-0.26 3,3 0 0 1 1.26,0.32 3.36,3.36 0 0 1 1,0.82 3.76,3.76 0 0 1 0.69,1.2 4,4 0 0 1 0.29,1.45 z m -5.73,23.56 a 106.93,106.93 0 0 1 0.63,-11.6 1.78,1.78 0 0 1 0.45,-1 1.18,1.18 0 0 1 1,-0.4 1.11,1.11 0 0 1 0.89,0.49 1.77,1.77 0 0 1 0.36,1.1 c 0,0.16 0,0.64 -0.09,1.45 -0.09,0.81 -0.13,1.77 -0.21,2.89 -0.08,1.12 -0.15,2.3 -0.21,3.55 -0.06,1.25 -0.09,2.41 -0.09,3.46 a 13.12,13.12 0 0 0 0.37,3.47 5.87,5.87 0 0 0 1,2.07 3,3 0 0 0 1.23,1 3.81,3.81 0 0 0 1.26,0.29 3.32,3.32 0 0 0 2.05,-0.73 11.11,11.11 0 0 0 2.18,-2.17 27.48,27.48 0 0 0 2.25,-3.38 c 0.75,-1.32 1.49,-2.8 2.23,-4.42 a 1.23,1.23 0 0 1 0.49,-0.6 1.1,1.1 0 0 1 0.71,-0.18 1.22,1.22 0 0 1 0.94,0.55 1.85,1.85 0 0 1 0.37,1.07 1.52,1.52 0 0 1 -0.14,0.68 c -0.29,0.6 -0.64,1.34 -1.07,2.2 -0.43,0.86 -0.9,1.75 -1.45,2.66 -0.55,0.91 -1.13,1.81 -1.78,2.71 a 18.82,18.82 0 0 1 -2.07,2.4 9.91,9.91 0 0 1 -2.3,1.69 4.73,4.73 0 0 1 -2.44,0.59 5.23,5.23 0 0 1 -2.8,-0.86 7.1,7.1 0 0 1 -2,-2.11 10.25,10.25 0 0 1 -1.24,-3.09 17,17 0 0 1 -0.52,-3.78 z m 3.75,-23.62 a 1.48,1.48 0 0 0 -0.37,-1 1.17,1.17 0 0 0 -0.87,-0.45 1.06,1.06 0 0 0 -0.85,0.4 1.46,1.46 0 0 0 -0.35,1 1.44,1.44 0 0 0 0.35,1 1.15,1.15 0 0 0 0.85,0.42 1.13,1.13 0 0 0 0.87,-0.38 1.33,1.33 0 0 0 0.37,-0.99 z"
     id="path392"
     inkscape:connector-curvature="0"
     style="fill:#3a3a3a;stroke:#3a3a3a;stroke-width:3px;stroke-miterlimit:10" />
  <path
     class="cls-28"
     d="m 211.98,169.88 c -0.26,0.59 -0.58,1.29 -1,2.1 -0.42,0.81 -0.83,1.64 -1.32,2.5 a 26.41,26.41 0 0 1 -1.66,2.55 13.87,13.87 0 0 1 -2,2.23 9.21,9.21 0 0 1 -2.29,1.52 5.12,5.12 0 0 1 -2.6,0.44 5.52,5.52 0 0 1 -3.64,-1.79 14,14 0 0 1 -2.58,-4.11 29.72,29.72 0 0 1 -1.71,-5.64 63.73,63.73 0 0 1 -1,-6.38 q -0.36,-3.24 -0.48,-6.28 c -0.08,-2 -0.12,-3.82 -0.12,-5.39 0,-2.26 0.06,-4.61 0.19,-7 0.13,-2.39 0.34,-4.78 0.62,-7.08 0.28,-2.3 0.64,-4.48 1.08,-6.53 a 33.6,33.6 0 0 1 1.56,-5.36 11.87,11.87 0 0 1 2.06,-3.57 3.13,3.13 0 0 1 2.65,-1.17 4,4 0 0 1 2.11,0.81 5.37,5.37 0 0 1 1.57,2.18 15.59,15.59 0 0 1 1,3.78 36.69,36.69 0 0 1 0.36,5.57 48.54,48.54 0 0 1 -0.74,8.29 75.13,75.13 0 0 1 -2,8.49 88.13,88.13 0 0 1 -3,8.47 q -1.73,4.21 -3.71,8.2 a 31.17,31.17 0 0 0 2.37,8.25 q 1.49,3 3.57,3.22 a 3.6,3.6 0 0 0 2.72,-1 14.62,14.62 0 0 0 2.4,-2.78 28.06,28.06 0 0 0 1.92,-3.35 c 0.55,-1.14 1,-2.06 1.29,-2.75 a 1.23,1.23 0 0 1 0.49,-0.58 1.13,1.13 0 0 1 0.7,-0.14 1.3,1.3 0 0 1 1,0.59 1.94,1.94 0 0 1 0.37,1.14 1.81,1.81 0 0 1 -0.18,0.57 z M 194.3,152.01 c 0,1.72 0,3.38 0.1,5 0.1,1.62 0.17,3.13 0.28,4.59 1,-2.12 1.94,-4.37 2.83,-6.78 0.89,-2.41 1.69,-4.83 2.37,-7.29 a 73.11,73.11 0 0 0 1.64,-7.39 43.13,43.13 0 0 0 0.62,-7.09 25.16,25.16 0 0 0 -0.67,-6.9 c -0.45,-1.41 -1.05,-2.15 -1.8,-2.21 -0.5,0 -1,0.31 -1.43,1.06 a 13.38,13.38 0 0 0 -1.29,3.1 42.78,42.78 0 0 0 -1.1,4.69 q -0.49,2.72 -0.83,5.85 -0.34,3.13 -0.53,6.56 -0.19,3.4 -0.19,6.81 z"
     id="path394"
     inkscape:connector-curvature="0"
     style="fill:#3a3a3a;stroke:#3a3a3a;stroke-width:3px;stroke-miterlimit:10" />
  <path
     class="cls-28"
     d="m 229.6,172.34 c -0.26,0.58 -0.58,1.26 -1,2.05 -0.42,0.79 -0.82,1.6 -1.31,2.44 a 29.48,29.48 0 0 1 -1.65,2.47 13.09,13.09 0 0 1 -2,2.13 8.29,8.29 0 0 1 -2.28,1.41 4.91,4.91 0 0 1 -2.59,0.31 5.77,5.77 0 0 1 -3.62,-2 14.42,14.42 0 0 1 -2.57,-4.24 30.72,30.72 0 0 1 -1.71,-5.71 c -0.44,-2.12 -0.77,-4.26 -1,-6.43 -0.23,-2.17 -0.39,-4.27 -0.47,-6.3 -0.08,-2.03 -0.13,-3.83 -0.13,-5.4 q 0,-3.39 0.2,-7 0.2,-3.61 0.61,-7.05 c 0.29,-2.29 0.64,-4.45 1.08,-6.48 a 32.54,32.54 0 0 1 1.58,-5.28 11.3,11.3 0 0 1 2.06,-3.48 3,3 0 0 1 2.64,-1 4.1,4.1 0 0 1 2.09,0.91 5.66,5.66 0 0 1 1.57,2.26 16.22,16.22 0 0 1 1,3.82 37.06,37.06 0 0 1 0.36,5.59 47.82,47.82 0 0 1 -0.74,8.25 72.13,72.13 0 0 1 -2,8.4 84.64,84.64 0 0 1 -3,8.33 q -1.73,4.13 -3.7,8 a 32.8,32.8 0 0 0 2.36,8.36 c 1,2.08 2.17,3.21 3.56,3.39 a 3.39,3.39 0 0 0 2.71,-0.9 13.27,13.27 0 0 0 2.39,-2.67 26.06,26.06 0 0 0 1.91,-3.25 c 0.55,-1.11 1,-2 1.28,-2.69 a 1.16,1.16 0 0 1 0.49,-0.55 1,1 0 0 1 0.7,-0.11 1.41,1.41 0 0 1 1,0.64 2.07,2.07 0 0 1 0.37,1.15 2,2 0 0 1 -0.19,0.63 z m -17.62,-18.73 c 0,1.73 0,3.39 0.11,5 0.11,1.61 0.16,3.14 0.28,4.61 q 1.49,-3.1 2.82,-6.64 c 0.89,-2.36 1.68,-4.75 2.36,-7.19 a 70.42,70.42 0 0 0 1.63,-7.31 42.6,42.6 0 0 0 0.62,-7.06 25.79,25.79 0 0 0 -0.67,-6.92 c -0.45,-1.44 -1,-2.21 -1.79,-2.31 -0.5,-0.06 -1,0.27 -1.43,1 a 12.68,12.68 0 0 0 -1.29,3 41.84,41.84 0 0 0 -1.09,4.64 c -0.33,1.8 -0.6,3.74 -0.83,5.81 -0.23,2.07 -0.39,4.26 -0.52,6.54 -0.13,2.28 -0.2,4.57 -0.2,6.83 z"
     id="path396"
     inkscape:connector-curvature="0"
     style="fill:#3a3a3a;stroke:#3a3a3a;stroke-width:3px;stroke-miterlimit:10" />
  <path
     class="cls-28"
     d="m 240.24,186.02 2.47,-2.4 c 0.84,-0.82 1.65,-1.69 2.44,-2.6 a 31.89,31.89 0 0 0 2.22,-2.91 22.29,22.29 0 0 0 1.82,-3.35 1.06,1.06 0 0 1 0.49,-0.56 1.1,1.1 0 0 1 0.7,-0.07 1.5,1.5 0 0 1 1,0.7 2.1,2.1 0 0 1 0.37,1.18 1.5,1.5 0 0 1 -0.11,0.58 22.86,22.86 0 0 1 -2.47,4.27 38.81,38.81 0 0 1 -2.92,3.51 c -1,1.1 -2.06,2.15 -3.1,3.17 -1.04,1.02 -2.05,2.05 -3,3.1 a 52.49,52.49 0 0 0 0,5.61 q 0.13,2.83 0.14,6 c 0,1.73 -0.05,3.45 -0.14,5.16 -0.09,1.71 -0.25,3.33 -0.46,4.87 a 31.43,31.43 0 0 1 -0.86,4.26 12.61,12.61 0 0 1 -1.38,3.32 5.87,5.87 0 0 1 -1.95,2 3.74,3.74 0 0 1 -2.63,0.41 5.35,5.35 0 0 1 -3.83,-2.61 11,11 0 0 1 -1.33,-5.75 24,24 0 0 1 0.37,-4.11 38.07,38.07 0 0 1 1,-4.43 46.26,46.26 0 0 1 1.6,-4.53 c 0.61,-1.52 1.29,-3 2,-4.39 a 42.52,42.52 0 0 1 2.31,-4 33.53,33.53 0 0 1 2.48,-3.33 c 0.05,-1.28 0.1,-2.61 0.16,-4 0.06,-1.39 0.12,-2.66 0.19,-3.83 a 6.82,6.82 0 0 1 -2.25,2.58 4,4 0 0 1 -3,0.61 6,6 0 0 1 -4.17,-2.76 10.55,10.55 0 0 1 -1.51,-5.9 23.35,23.35 0 0 1 0.44,-4.73 28.94,28.94 0 0 1 0.95,-3.57 14.09,14.09 0 0 1 0.92,-2.24 5.89,5.89 0 0 1 0.43,-0.72 1,1 0 0 1 1.08,-0.51 1.47,1.47 0 0 1 1,0.63 2,2 0 0 1 0.36,1.14 1.41,1.41 0 0 1 -0.21,0.77 3.37,3.37 0 0 1 -0.33,0.61 12.49,12.49 0 0 0 -0.8,1.91 22.14,22.14 0 0 0 -0.81,3.06 19.82,19.82 0 0 0 -0.37,4 7.85,7.85 0 0 0 0.7,3.59 3,3 0 0 0 2.28,1.64 c 1.33,0.23 2.53,-0.69 3.61,-2.78 a 34.8,34.8 0 0 0 2.72,-9.42 1.18,1.18 0 0 1 0.42,-0.79 1,1 0 0 1 0.84,-0.19 1.56,1.56 0 0 1 0.94,0.63 1.92,1.92 0 0 1 0.39,1.17 c 0,0.08 -0.05,0.55 -0.14,1.41 -0.09,0.86 -0.21,2 -0.33,3.44 -0.12,1.44 -0.27,3.09 -0.41,5 -0.14,1.91 -0.24,3.98 -0.33,6.15 z m -2.8,8 a 43.54,43.54 0 0 0 -2.89,5 50.5,50.5 0 0 0 -2.25,5.39 39.93,39.93 0 0 0 -1.48,5.26 22.89,22.89 0 0 0 -0.52,4.6 8.14,8.14 0 0 0 0.59,3.4 2.49,2.49 0 0 0 1.9,1.52 2.06,2.06 0 0 0 2,-1 9.77,9.77 0 0 0 1.51,-3.47 34.44,34.44 0 0 0 0.92,-5.71 q 0.31,-3.41 0.32,-7.7 c 0,-1.16 0,-2.33 -0.05,-3.53 -0.05,-1.2 -0.03,-2.36 -0.05,-3.72 z"
     id="path398"
     inkscape:connector-curvature="0"
     style="fill:#3a3a3a;stroke:#3a3a3a;stroke-width:3px;stroke-miterlimit:10" />
</svg>
