<?xml version="1.0" encoding="UTF-8" standalone="no"?>
<svg
   id="Layer_1"
   data-name="Layer 1"
   version="1.1"
   width="347.81"
   height="288.99"
   sodipodi:docname="POR.svg"
   inkscape:version="1.1.1 (3bf5ae0d25, 2021-09-20)"
   xmlns:inkscape="http://www.inkscape.org/namespaces/inkscape"
   xmlns:sodipodi="http://sodipodi.sourceforge.net/DTD/sodipodi-0.dtd"
   xmlns="http://www.w3.org/2000/svg"
   xmlns:svg="http://www.w3.org/2000/svg">
  <sodipodi:namedview
     id="namedview43"
     pagecolor="#ffffff"
     bordercolor="#666666"
     borderopacity="1.0"
     inkscape:pageshadow="2"
     inkscape:pageopacity="0.0"
     inkscape:pagecheckerboard="0"
     showgrid="false"
     showguides="true"
     inkscape:guide-bbox="true"
     inkscape:zoom="2.577944"
     inkscape:cx="156.13217"
     inkscape:cy="206.17205"
     inkscape:window-width="1920"
     inkscape:window-height="1017"
     inkscape:window-x="-8"
     inkscape:window-y="-8"
     inkscape:window-maximized="1"
     inkscape:current-layer="Layer_1">
    <sodipodi:guide
       position="173.20004,64.3924"
       orientation="1,0"
       id="guide9952" />
    <sodipodi:guide
       position="166.90606,58.311279"
       orientation="1,0"
       id="guide852" />
  </sodipodi:namedview>
  <defs
     id="defs4">
    <style
       id="style2">.cls-1{fill:#1e1e1e}.cls-14,.cls-15{stroke-miterlimit:10}.cls-3{fill:#e41d34}.cls-15{fill:none}.cls-14{stroke:#56b947;fill:#56b947}.cls-15{stroke:#1e1e1e}.cls-10{fill:#fff}.cls-11{fill:#e7a9cc}.cls-14{stroke-width:6.18px}.cls-15{stroke-width:5.43px}</style>
  </defs>
  <path
     class="cls-1"
     id="rect6"
     style="fill:#1e1e1e"
     d="M10.87 41.66h325.16v236.4H10.87z" />
  <text
     xml:space="preserve"
     style="font-style:normal;font-variant:normal;font-weight:normal;font-stretch:normal;font-size:23.237px;line-height:1.25;font-family:'DEATHE MAACH NCV';-inkscape-font-specification:'DEATHE MAACH NCV, Normal';font-variant-ligatures:normal;font-variant-caps:normal;font-variant-numeric:normal;font-variant-east-asian:normal;letter-spacing:13.16px;fill:#ffffff;fill-opacity:1;stroke-width:1"
     x="77.928543"
     y="265.90317"
     id="text2402"><tspan
       sodipodi:role="line"
       id="tspan2400"
       x="77.928543"
       y="265.90317"
       style="font-style:normal;font-variant:normal;font-weight:normal;font-stretch:normal;font-size:23.237px;font-family:'DEATHE MAACH NCV';-inkscape-font-specification:'DEATHE MAACH NCV, Normal';font-variant-ligatures:normal;font-variant-caps:normal;font-variant-numeric:normal;font-variant-east-asian:normal;fill:#ffffff;fill-opacity:1;stroke-width:1">FOOTBALL</tspan></text>
  <ellipse
     class="cls-1"
     cx="166.2"
     cy="43.02"
     rx="82.87"
     ry="43.02"
     id="ellipse8"
     style="fill:#1e1e1e" />
  <path
     class="cls-11"
     d="M65.64 210.29h-18.8V66.5h30.61q18.79 0 28.6 10.73 9 10.33 9 29.65 0 19.71-9 29.86-9.6 10.92-28.6 10.92H65.64zm0-81.16h11.81q7.8 0 10.6-1.76a16.65 16.65 0 0 0 3.6-2.73q4.4-4.48 4.4-17.76a43.29 43.29 0 0 0-1.2-11.31 15.14 15.14 0 0 0-3.5-6.64 11.44 11.44 0 0 0-5.8-3.12 37.6 37.6 0 0 0-8.1-.78H65.64z"
     id="path54"
     style="fill:#e7a9cc" />
  <path
     class="cls-11"
     d="M285.41 139.63a34.28 34.28 0 0 1 8.3 12.1 41.46 41.46 0 0 1 2.91 16v42.53h-19v-42.53q0-18.93-18.8-18.93h-11.83v61.46h-18.8V66.46h30.61q19 0 28.6 10.93 8.8 9.94 8.81 30.05 0 19.89-8.81 30.24c-.26.26-.57.58-.9 1a4.81 4.81 0 0 1-1.09.95zm-26.6-9.37q7.59 0 10.5-1.75a16.22 16.22 0 0 0 3.7-2.73q4.4-5.46 4.4-18.34a45.44 45.44 0 0 0-1.2-11.61 15.93 15.93 0 0 0-3.5-6.83 11.09 11.09 0 0 0-5.8-3.22 37.6 37.6 0 0 0-8.1-.78h-11.82v45.26h11.81z"
     id="path56"
     style="fill:#e7a9cc" />
  <path
     class="cls-3"
     d="M134.64 37.67v64.61a32.59 32.59 0 0 0 65.18 0V37.67z"
     id="path58"
     style="fill:#e41d34" />
  <path
     id="rect60"
     style="fill:#56b947"
     d="M162.34 150.98h9.78v80.19h-9.78z" />
  <path
     d="M147.3 190.45s-18.1-33.31-62.31-10.86c0 0 15.24 32.59 62.31 10.86z"
     id="path62"
     style="fill:#56b947;stroke:#56b947;stroke-width:9.77999973px;stroke-miterlimit:10" />
  <path
     class="cls-14"
     id="polygon64"
     style="fill:#56b947;stroke:#56b947;stroke-width:6.17999983px;stroke-miterlimit:10"
     transform="translate(-577.01 -361.01)"
     d="m760.11 540.61-8.24-5.03v8.23z" />
  <path
     class="cls-14"
     id="polygon66"
     style="fill:#56b947;stroke:#56b947;stroke-width:6.17999983px;stroke-miterlimit:10"
     transform="translate(-577.01 -361.01)"
     d="m730.13 578.84 8.24-5.04v8.24z" />
  <path
     class="cls-15"
     id="line68"
     style="fill:none;stroke:#1e1e1e;stroke-width:5.42999983px;stroke-miterlimit:10"
     d="m157.81 194.07-61.92-12.31" />
  <path
     class="cls-1"
     id="polyline70"
     style="fill:#1e1e1e"
     transform="translate(-577.01 -361.01)"
     d="m672.27 545.12-6.25-4.61h7.61" />
  <path
     class="cls-15"
     d="M201.26 54.3h-14.48s-28.25-4.34-28.25 25.35v29s2.18 18.83-19.55 18.83"
     id="path72"
     style="fill:none;stroke:#1e1e1e;stroke-width:5.42999983px;stroke-miterlimit:10" />
  <path
     class="cls-3"
     id="polyline74"
     style="fill:#e41d34"
     transform="translate(-577.01 -361.01)"
     d="M767.41 418.94h23.89l-15.93 28.24" />
  <path
     class="cls-3"
     id="polyline76"
     style="fill:#e41d34"
     transform="translate(-577.01 -361.01)"
     d="M714.91 398.68H699.7l18.83 41.98" />
  <path
     class="cls-3"
     id="polyline78"
     style="fill:#e41d34"
     transform="translate(-577.01 -361.01)"
     d="m776.82 412.6 7.6-10.32h-22.81" />
  <ellipse
     cx="167.23"
     cy="33.3"
     rx="43.81"
     ry="13.4"
     id="ellipse80"
     style="fill:#e41d34;stroke:#1e1e1e;stroke-width:5.42999983px;stroke-miterlimit:10" />
  <path
     class="cls-15"
     d="M193.29 35.74s-35.3-7.55-47.25 1.78c0 0-7.62 3.11 5.43 7.55"
     id="path82"
     style="fill:none;stroke:#1e1e1e;stroke-width:5.42999983px;stroke-miterlimit:10" />
  <path
     class="cls-1"
     d="M206.46 196.65s36-4.43 49.23 28.21"
     id="path84"
     style="fill:#1e1e1e" />
  <path
     d="M186.05 220.07s13.06-24 44.9-7.83c.04 0-10.96 23.49-44.9 7.83z"
     id="path86"
     style="fill:#56b947;stroke:#56b947;stroke-width:7.05000019px;stroke-miterlimit:10" />
  <path
     class="cls-15"
     id="line88"
     style="fill:none;stroke:#1e1e1e;stroke-width:5.42999983px;stroke-miterlimit:10"
     d="m177.72 222.68 41.28-7.61" />
  <path
     class="cls-1"
     id="polyline90"
     style="fill:#1e1e1e"
     transform="translate(-577.01 -361.01)"
     d="M794.93 573.91h7.24l-6.52 5.07" />
  <path
     class="cls-11"
     id="polyline92"
     style="fill:#e7a9cc"
     transform="translate(-577.01 -361.01)"
     d="m625.01 459.49-15.4 11.77 19.02 10.87" />
  <path
     class="cls-11"
     id="polyline94"
     style="fill:#e7a9cc"
     transform="translate(-577.01 -361.01)"
     d="m625.01 526.57-15.4 11.77 19.02 10.87" />
  <path
     class="cls-11"
     id="polyline96"
     style="fill:#e7a9cc"
     transform="translate(-577.01 -361.01)"
     d="m872.27 459.49 15.39 11.77-19.02 10.87" />
  <path
     class="cls-11"
     id="polyline98"
     style="fill:#e7a9cc"
     transform="translate(-577.01 -361.01)"
     d="m872.27 526.57 15.39 11.77-19.02 10.87" />
  <path
     class="cls-1"
     id="polyline284"
     style="fill:#1e1e1e"
     transform="translate(-577.01 -361.01)"
     d="m591.5 493.24-14.49 12.68 14.49 11.78" />
  <path
     class="cls-1"
     id="polyline286"
     style="fill:#1e1e1e"
     transform="translate(-577.01 -361.01)"
     d="m910.33 493.24 14.49 12.68-14.49 11.78" />
  <path
     class="cls-1"
     id="polyline288"
     style="fill:#1e1e1e"
     transform="translate(-577.01 -361.01)"
     d="m738 638 12 12 14-13" />
</svg>
