<?xml version="1.0" encoding="UTF-8" standalone="no"?>
<svg
   id="Layer_1"
   data-name="Layer 1"
   version="1.1"
   width="347.81"
   height="288.99"
   sodipodi:docname="POR2.svg"
   inkscape:version="1.1.1 (3bf5ae0d25, 2021-09-20)"
   xmlns:inkscape="http://www.inkscape.org/namespaces/inkscape"
   xmlns:sodipodi="http://sodipodi.sourceforge.net/DTD/sodipodi-0.dtd"
   xmlns="http://www.w3.org/2000/svg"
   xmlns:svg="http://www.w3.org/2000/svg">
  <sodipodi:namedview
     id="namedview43"
     pagecolor="#ffffff"
     bordercolor="#666666"
     borderopacity="1.0"
     inkscape:pageshadow="2"
     inkscape:pageopacity="0.0"
     inkscape:pagecheckerboard="0"
     showgrid="false"
     showguides="true"
     inkscape:guide-bbox="true"
     inkscape:zoom="5.155888"
     inkscape:cx="165.73285"
     inkscape:cy="206.65693"
     inkscape:window-width="1920"
     inkscape:window-height="1017"
     inkscape:window-x="-8"
     inkscape:window-y="-8"
     inkscape:window-maximized="1"
     inkscape:current-layer="Layer_1">
    <sodipodi:guide
       position="173.20004,64.3924"
       orientation="1,0"
       id="guide9952" />
    <sodipodi:guide
       position="167.13901,57.846489"
       orientation="1,0"
       id="guide989" />
  </sodipodi:namedview>
  <defs
     id="defs4">
    <style
       id="style2">.cls-1{fill:#1e1e1e}.cls-14,.cls-15{stroke-miterlimit:10}.cls-3{fill:#e41d34}.cls-15{fill:none}.cls-14{stroke:#56b947;fill:#56b947}.cls-15{stroke:#1e1e1e}.cls-10{fill:#fff}.cls-11{fill:#e7a9cc}.cls-14{stroke-width:6.18px}.cls-15{stroke-width:5.43px}</style>
  </defs>
  <path
     class="cls-1"
     id="rect6"
     style="fill:#1e1e1e"
     d="M10.87 41.66h325.16v236.4H10.87z" />
  <g
     aria-label="FOOTBALL"
     id="text2402"
     style="font-size:23.237px;line-height:1.25;font-family:'DEATHE MAACH NCV';-inkscape-font-specification:'DEATHE MAACH NCV, Normal';letter-spacing:13.16px;fill:#ffffff">
    <path
       d="m 83.041852,256.58921 h 1.324509 v 0.83653 h 1.812486 v -3.78763 h -1.812486 v 0.83653 h -1.324509 v -5.0889 h 1.742775 v 1.88219 h 2.55607 v -3.90381 h -8.527979 v 1.37098 l 0.371792,0.39503 v 13.36127 l -0.371792,0.39503 v 1.37099 h 4.600926 v -1.37099 l -0.371792,-0.39503 z"
       id="path853" />
    <path
       d="m 105.63601,250.17579 c 0,-0.58092 0.34855,-0.92948 0.81329,-0.92948 0.46474,0 0.8133,0.34856 0.8133,0.92948 v 11.26995 c 0,0.58092 -0.34856,0.92948 -0.8133,0.92948 -0.46474,0 -0.81329,-0.34856 -0.81329,-0.92948 z m 5.64659,5.62336 c 0,-1.74278 -0.093,-3.55526 -0.23237,-5.04243 -0.27885,-2.60254 -2.34694,-3.67145 -4.60093,-3.67145 -2.25399,0 -4.32208,1.06891 -4.60092,3.67145 -0.13943,1.48717 -0.23237,3.29965 -0.23237,5.04243 0,1.74277 0.0929,3.5785 0.23237,5.06566 0.27884,2.60255 2.34693,3.67145 4.60092,3.67145 2.25399,0 4.32208,-1.0689 4.60093,-3.67145 0.13942,-1.48716 0.23237,-3.32289 0.23237,-5.06566 z"
       id="path855" />
    <path
       d="m 130.08914,250.17579 c 0,-0.58092 0.34856,-0.92948 0.8133,-0.92948 0.46474,0 0.81329,0.34856 0.81329,0.92948 v 11.26995 c 0,0.58092 -0.34855,0.92948 -0.81329,0.92948 -0.46474,0 -0.8133,-0.34856 -0.8133,-0.92948 z m 5.64659,5.62336 c 0,-1.74278 -0.0929,-3.55526 -0.23237,-5.04243 -0.27884,-2.60254 -2.34693,-3.67145 -4.60092,-3.67145 -2.25399,0 -4.32208,1.06891 -4.60093,3.67145 -0.13942,1.48717 -0.23237,3.29965 -0.23237,5.04243 0,1.74277 0.093,3.5785 0.23237,5.06566 0.27885,2.60255 2.34694,3.67145 4.60093,3.67145 2.25399,0 4.32208,-1.0689 4.60092,-3.67145 0.13943,-1.48716 0.23237,-3.32289 0.23237,-5.06566 z"
       id="path857" />
    <path
       d="m 149.98786,247.36412 v 4.18266 l 1.23156,0.51121 0.85977,-2.41665 h 0.92948 v 12.85006 l -0.37179,0.39503 v 1.37099 h 4.60092 v -1.37099 l -0.37179,-0.39503 v -12.85006 h 0.92948 l 0.85977,2.41665 1.23156,-0.51121 v -4.18266 z"
       id="path859" />
    <path
       d="m 174.441,264.25742 h 6.22751 c 1.62659,0 3.11376,-0.90625 3.41584,-2.34694 0.1859,-0.83653 0.20914,-1.78925 0.20914,-2.64902 0,-1.76601 -0.46474,-3.36936 -2.13781,-3.85734 1.48717,-0.32532 1.81249,-1.97515 1.81249,-3.64821 0,-2.48636 -0.27885,-4.39179 -4.29885,-4.39179 H 174.441 v 1.37098 l 0.37179,0.39503 v 13.36127 l -0.37179,0.39503 z m 4.22913,-9.82926 v -5.04242 h 0.74359 c 0.74358,0 0.79005,0.99919 0.79005,2.39341 0,1.44069 -0.0465,2.64901 -0.883,2.64901 z m 0,7.80764 v -5.78602 h 0.79006 c 0.67387,0 0.76682,0.51122 0.76682,1.4407 v 3.48555 c 0,0.99919 -0.99919,0.85977 -1.55688,0.85977 z"
       id="path861" />
    <path
       d="m 201.96142,257.49545 0.72034,-7.52879 h 0.67388 l 0.67387,7.52879 z m -3.32289,4.99595 -0.3718,0.39503 v 1.37099 h 3.5785 v -1.37099 l -0.37179,-0.39503 0.30208,-2.60254 h 2.43989 l 0.20913,2.60254 -0.37179,0.39503 v 1.37099 h 4.74035 v -1.37099 l -0.3718,-0.39503 -1.60335,-13.36127 0.37179,-0.39503 v -1.37098 h -7.27318 v 1.37098 l 0.30208,0.39503 z"
       id="path863" />
    <path
       d="m 229.31918,262.2358 h -1.97514 v -13.10567 l 0.37179,-0.39503 v -1.37098 h -4.60093 v 1.37098 l 0.3718,0.39503 v 13.36127 l -0.3718,0.39503 v 1.37099 h 8.8533 v -4.97272 h -2.64902 z"
       id="path865" />
    <path
       d="m 252.7267,262.2358 h -1.97515 v -13.10567 l 0.3718,-0.39503 v -1.37098 h -4.60093 v 1.37098 l 0.37179,0.39503 v 13.36127 l -0.37179,0.39503 v 1.37099 h 8.8533 v -4.97272 h -2.64902 z"
       id="path867" />
  </g>
  <ellipse
     class="cls-1"
     cx="166.2"
     cy="43.02"
     rx="82.87"
     ry="43.02"
     id="ellipse8"
     style="fill:#1e1e1e" />
  <path
     class="cls-11"
     d="M65.64 210.29h-18.8V66.5h30.61q18.79 0 28.6 10.73 9 10.33 9 29.65 0 19.71-9 29.86-9.6 10.92-28.6 10.92H65.64zm0-81.16h11.81q7.8 0 10.6-1.76a16.65 16.65 0 0 0 3.6-2.73q4.4-4.48 4.4-17.76a43.29 43.29 0 0 0-1.2-11.31 15.14 15.14 0 0 0-3.5-6.64 11.44 11.44 0 0 0-5.8-3.12 37.6 37.6 0 0 0-8.1-.78H65.64z"
     id="path54"
     style="fill:#e7a9cc" />
  <path
     class="cls-11"
     d="M285.41 139.63a34.28 34.28 0 0 1 8.3 12.1 41.46 41.46 0 0 1 2.91 16v42.53h-19v-42.53q0-18.93-18.8-18.93h-11.83v61.46h-18.8V66.46h30.61q19 0 28.6 10.93 8.8 9.94 8.81 30.05 0 19.89-8.81 30.24c-.26.26-.57.58-.9 1a4.81 4.81 0 0 1-1.09.95zm-26.6-9.37q7.59 0 10.5-1.75a16.22 16.22 0 0 0 3.7-2.73q4.4-5.46 4.4-18.34a45.44 45.44 0 0 0-1.2-11.61 15.93 15.93 0 0 0-3.5-6.83 11.09 11.09 0 0 0-5.8-3.22 37.6 37.6 0 0 0-8.1-.78h-11.82v45.26h11.81z"
     id="path56"
     style="fill:#e7a9cc" />
  <path
     class="cls-3"
     d="M134.64 37.67v64.61a32.59 32.59 0 0 0 65.18 0V37.67z"
     id="path58"
     style="fill:#e41d34" />
  <path
     id="rect60"
     style="fill:#56b947"
     d="M162.34 150.98h9.78v80.19h-9.78z" />
  <path
     d="M147.3 190.45s-18.1-33.31-62.31-10.86c0 0 15.24 32.59 62.31 10.86z"
     id="path62"
     style="fill:#56b947;stroke:#56b947;stroke-width:9.77999973px;stroke-miterlimit:10" />
  <path
     class="cls-14"
     id="polygon64"
     style="fill:#56b947;stroke:#56b947;stroke-width:6.17999983px;stroke-miterlimit:10"
     transform="translate(-577.01 -361.01)"
     d="m760.11 540.61-8.24-5.03v8.23z" />
  <path
     class="cls-14"
     id="polygon66"
     style="fill:#56b947;stroke:#56b947;stroke-width:6.17999983px;stroke-miterlimit:10"
     transform="translate(-577.01 -361.01)"
     d="m730.13 578.84 8.24-5.04v8.24z" />
  <path
     class="cls-15"
     id="line68"
     style="fill:none;stroke:#1e1e1e;stroke-width:5.42999983px;stroke-miterlimit:10"
     d="m157.81 194.07-61.92-12.31" />
  <path
     class="cls-1"
     id="polyline70"
     style="fill:#1e1e1e"
     transform="translate(-577.01 -361.01)"
     d="m672.27 545.12-6.25-4.61h7.61" />
  <path
     class="cls-15"
     d="M201.26 54.3h-14.48s-28.25-4.34-28.25 25.35v29s2.18 18.83-19.55 18.83"
     id="path72"
     style="fill:none;stroke:#1e1e1e;stroke-width:5.42999983px;stroke-miterlimit:10" />
  <path
     class="cls-3"
     id="polyline74"
     style="fill:#e41d34"
     transform="translate(-577.01 -361.01)"
     d="M767.41 418.94h23.89l-15.93 28.24" />
  <path
     class="cls-3"
     id="polyline76"
     style="fill:#e41d34"
     transform="translate(-577.01 -361.01)"
     d="M714.91 398.68H699.7l18.83 41.98" />
  <path
     class="cls-3"
     id="polyline78"
     style="fill:#e41d34"
     transform="translate(-577.01 -361.01)"
     d="m776.82 412.6 7.6-10.32h-22.81" />
  <ellipse
     cx="167.23"
     cy="33.3"
     rx="43.81"
     ry="13.4"
     id="ellipse80"
     style="fill:#e41d34;stroke:#1e1e1e;stroke-width:5.42999983px;stroke-miterlimit:10" />
  <path
     class="cls-15"
     d="M193.29 35.74s-35.3-7.55-47.25 1.78c0 0-7.62 3.11 5.43 7.55"
     id="path82"
     style="fill:none;stroke:#1e1e1e;stroke-width:5.42999983px;stroke-miterlimit:10" />
  <path
     class="cls-1"
     d="M206.46 196.65s36-4.43 49.23 28.21"
     id="path84"
     style="fill:#1e1e1e" />
  <path
     d="M186.05 220.07s13.06-24 44.9-7.83c.04 0-10.96 23.49-44.9 7.83z"
     id="path86"
     style="fill:#56b947;stroke:#56b947;stroke-width:7.05000019px;stroke-miterlimit:10" />
  <path
     class="cls-15"
     id="line88"
     style="fill:none;stroke:#1e1e1e;stroke-width:5.42999983px;stroke-miterlimit:10"
     d="m177.72 222.68 41.28-7.61" />
  <path
     class="cls-1"
     id="polyline90"
     style="fill:#1e1e1e"
     transform="translate(-577.01 -361.01)"
     d="M794.93 573.91h7.24l-6.52 5.07" />
  <path
     class="cls-11"
     id="polyline92"
     style="fill:#e7a9cc"
     transform="translate(-577.01 -361.01)"
     d="m625.01 459.49-15.4 11.77 19.02 10.87" />
  <path
     class="cls-11"
     id="polyline94"
     style="fill:#e7a9cc"
     transform="translate(-577.01 -361.01)"
     d="m625.01 526.57-15.4 11.77 19.02 10.87" />
  <path
     class="cls-11"
     id="polyline96"
     style="fill:#e7a9cc"
     transform="translate(-577.01 -361.01)"
     d="m872.27 459.49 15.39 11.77-19.02 10.87" />
  <path
     class="cls-11"
     id="polyline98"
     style="fill:#e7a9cc"
     transform="translate(-577.01 -361.01)"
     d="m872.27 526.57 15.39 11.77-19.02 10.87" />
  <path
     class="cls-1"
     id="polyline284"
     style="fill:#1e1e1e"
     transform="translate(-577.01 -361.01)"
     d="m591.5 493.24-14.49 12.68 14.49 11.78" />
  <path
     class="cls-1"
     id="polyline286"
     style="fill:#1e1e1e"
     transform="translate(-577.01 -361.01)"
     d="m910.33 493.24 14.49 12.68-14.49 11.78" />
  <path
     class="cls-1"
     id="polyline288"
     style="fill:#1e1e1e"
     transform="translate(-577.01 -361.01)"
     d="m738 638 12 12 14-13" />
</svg>
