<?xml version="1.0" encoding="UTF-8" standalone="no"?>
<svg
   id="Layer_1"
   data-name="Layer 1"
   viewBox="0 0 548.3764 368.40002"
   version="1.1"
   sodipodi:docname="SF.svg"
   width="548.3764"
   height="368.40002"
   inkscape:version="1.1.1 (3bf5ae0d25, 2021-09-20)"
   xmlns:inkscape="http://www.inkscape.org/namespaces/inkscape"
   xmlns:sodipodi="http://sodipodi.sourceforge.net/DTD/sodipodi-0.dtd"
   xmlns="http://www.w3.org/2000/svg"
   xmlns:svg="http://www.w3.org/2000/svg"
   xmlns:rdf="http://www.w3.org/1999/02/22-rdf-syntax-ns#"
   xmlns:cc="http://creativecommons.org/ns#"
   xmlns:dc="http://purl.org/dc/elements/1.1/">
  <metadata
     id="metadata467">
    <rdf:RDF>
      <cc:Work
         rdf:about="">
        <dc:format>image/svg+xml</dc:format>
        <dc:type
           rdf:resource="http://purl.org/dc/dcmitype/StillImage" />
        <dc:title />
      </cc:Work>
    </rdf:RDF>
  </metadata>
  <sodipodi:namedview
     pagecolor="#ffffff"
     bordercolor="#666666"
     borderopacity="1"
     objecttolerance="10"
     gridtolerance="10"
     guidetolerance="10"
     inkscape:pageopacity="0"
     inkscape:pageshadow="2"
     inkscape:window-width="1920"
     inkscape:window-height="1017"
     id="namedview465"
     showgrid="false"
     inkscape:zoom="2.2250293"
     inkscape:cx="358.42224"
     inkscape:cy="170.11012"
     inkscape:window-x="-8"
     inkscape:window-y="-8"
     inkscape:window-maximized="1"
     inkscape:current-layer="Layer_1"
     inkscape:pagecheckerboard="0" />
  <defs
     id="defs4">
    <style
       id="style2">.cls-1{opacity:0.2;}.cls-2{fill:#a6a6a6;}.cls-15,.cls-3{fill:#fff;}.cls-4{fill:#d8d8d8;}.cls-5{fill:#f16567;}.cls-12,.cls-22,.cls-25,.cls-6{fill:#f3b857;}.cls-7{fill:#45dfef;}.cls-14,.cls-21,.cls-8{fill:#6c72ef;}.cls-10,.cls-11,.cls-16,.cls-20,.cls-23,.cls-9{fill:none;}.cls-13,.cls-18,.cls-19,.cls-20,.cls-22,.cls-23,.cls-9{stroke:#000;}.cls-11,.cls-12,.cls-13,.cls-14,.cls-16,.cls-17,.cls-19,.cls-20,.cls-21,.cls-22,.cls-23,.cls-24,.cls-25,.cls-9{stroke-linecap:round;stroke-linejoin:round;}.cls-9{stroke-width:6px;}.cls-10,.cls-11,.cls-14,.cls-21{stroke:#6c72ef;}.cls-10,.cls-15,.cls-18{stroke-miterlimit:10;}.cls-10{stroke-width:8.42px;}.cls-11{stroke-width:4.64px;}.cls-12,.cls-25{stroke:#f3b857;}.cls-12,.cls-14{stroke-width:3.04px;}.cls-13{stroke-width:5.06px;}.cls-15{stroke:#fff;stroke-width:0.93px;}.cls-16{stroke:#45dfef;stroke-width:3.5px;}.cls-17,.cls-24{stroke:#d8d8d8;}.cls-17{stroke-width:17.95px;}.cls-18{stroke-width:8.72px;}.cls-19,.cls-20{stroke-width:9.5px;}.cls-21{stroke-width:3.86px;}.cls-22,.cls-23{stroke-width:6.34px;}.cls-24{stroke-width:10.66px;}.cls-25{stroke-width:3.18px;}</style>
  </defs>
  <path
     class="cls-4"
     d="m 448.42593,268.30001 v 0 a 94,94 0 1 0 -118.63,96.77 93.16,93.16 0 0 0 24.75,3.33 q 3.06,0 6.15,-0.2 a 94.09,94.09 0 0 0 87.73,-99.9 z"
     id="path184"
     inkscape:connector-curvature="0"
     style="fill:#d8d8d8" />
  <path
     d="m 439.89593,268.82001 a 85.47,85.47 0 1 0 -107.84,88 85.52,85.52 0 0 0 107.84,-88 z"
     id="path186"
     inkscape:connector-curvature="0" />
  <circle
     class="cls-5"
     cx="354.6059"
     cy="276.82001"
     r="62.939999"
     id="circle188"
     style="fill:#f16567" />
  <circle
     class="cls-6"
     cx="362.69592"
     cy="278.01001"
     r="57.16"
     id="circle190"
     style="fill:#f3b857" />
  <circle
     class="cls-7"
     cx="366.71594"
     cy="279.02002"
     r="52.91"
     id="circle192"
     style="fill:#45dfef" />
  <ellipse
     class="cls-8"
     cx="129.76837"
     cy="446.39172"
     rx="46.66"
     ry="48.380001"
     transform="rotate(-36.67)"
     id="ellipse194"
     style="fill:#6c72ef" />
  <path
     d="m 350.37593,211.02001 a 65.94,65.94 0 1 1 -61.53,70.07 66,66 0 0 1 61.53,-70.07 z m 0.39,6 a 59.94,59.94 0 1 0 63.61,55.92 60,60 0 0 0 -63.65,-55.93 z"
     id="path196"
     inkscape:connector-curvature="0" />
  <path
     class="cls-4"
     d="m 538.37593,21.440007 v 0 c -5.29,-2.5 -13.66,-3.31 -23.43,7 -10.4,11 -39.1,44.45 -40.31,45.86 a 13.8,13.8 0 0 0 -1.13,1.51 c -14.6,8.37 -20.83,22 -22.37,25.880003 a 61.34,61.34 0 0 0 -16.34,21.69 q -0.12,0.27 -0.21,0.54 a 63,63 0 0 0 -15.85,17.46 l -21.52,25.56 a 14.29,14.29 0 0 0 -4.36,12.23 14.55,14.55 0 0 0 1,3.75 14.38,14.38 0 0 0 7.19,7.48 l 1.48,0.68 63.94,5.45 a 14.29,14.29 0 0 0 13.14,-2.48 69.35,69.35 0 0 0 12.77,-13.8 c 6.32,-9.15 9.27,-18.68 8.7,-27.89 a 38.28,38.28 0 0 0 13.65,-24.88 c 11.51,-10.23 13.56,-22 13.54,-29.140003 a 33.67,33.67 0 0 0 5.54,-21.7 l 13.16,-29.13 a 14.32,14.32 0 0 0 1.17,-4.13 c 1.24,-10.25 -2.36,-18.46 -9.76,-21.94 z"
     id="path206"
     inkscape:connector-curvature="0"
     style="fill:#d8d8d8" />
  <rect
     class="cls-4"
     x="216.80592"
     y="0"
     width="287.10999"
     height="238.52"
     rx="74.260002"
     id="rect208"
     style="fill:#d8d8d8" />
  <rect
     class="cls-7"
     x="32.099991"
     y="-473.95593"
     width="172.47"
     height="223.49001"
     rx="38.990002"
     transform="rotate(90)"
     id="rect210"
     style="fill:#45dfef" />
  <polygon
     class="cls-8"
     points="674.26,231.22 694.31,236.79 694.31,294.36 674.26,294.36 "
     id="polygon212"
     style="fill:#6c72ef"
     transform="translate(-216.62407,-177.17999)" />
  <polygon
     class="cls-8"
     points="464.75,272.56 640.69,280.69 640.69,284.41 465.68,290.73 "
     id="polygon214"
     style="fill:#6c72ef"
     transform="translate(-216.62407,-177.17999)" />
  <polygon
     class="cls-10"
     points="482.4,240.08 511.92,230.79 511.92,310.71 482.4,319.99 "
     id="polygon216"
     style="fill:none;stroke:#6c72ef;stroke-width:8.42000008px;stroke-miterlimit:10"
     transform="translate(-216.62407,-177.17999)" />
  <path
     class="cls-11"
     d="m 420.23593,104.72001 c -29.65,-8.430003 -43.26,-40.590003 -43.26,-40.590003 -45.89,88.240003 -81.68,-9.59 -81.68,-9.59 0,0 -6.55,37.92 -47.17,41.76"
     id="path218"
     inkscape:connector-curvature="0"
     style="fill:none;stroke:#6c72ef;stroke-width:4.63999987px;stroke-linecap:round;stroke-linejoin:round" />
  <path
     class="cls-11"
     d="m 347.45593,71.710007 c -45.9,88.230003 -81.68,-9.59 -81.68,-9.59 0,0 -5.23,20.08 -24.53,23.23"
     id="path220"
     inkscape:connector-curvature="0"
     style="fill:none;stroke:#6c72ef;stroke-width:4.63999987px;stroke-linecap:round;stroke-linejoin:round" />
  <polygon
     class="cls-10"
     points="564.08,249.67 593.6,240.38 593.6,320.3 564.08,329.58 "
     id="polygon222"
     style="fill:none;stroke:#6c72ef;stroke-width:8.42000008px;stroke-miterlimit:10"
     transform="translate(-216.62407,-177.17999)" />
  <path
     d="m 429.64593,9.2900073 h -138.58 a 65.17,65.17 0 0 0 -65,64.9999997 v 90.000003 a 65.17,65.17 0 0 0 65,65 h 138.58 a 65.18,65.18 0 0 0 65,-65 V 74.290007 a 65.18,65.18 0 0 0 -65,-64.9999997 z m 44.31,156.2900027 a 39,39 0 0 1 -39,39 h -145.5 a 39,39 0 0 1 -39,-39 V 71.090007 a 39,39 0 0 1 39,-39 h 145.52 a 39,39 0 0 1 39,39 z"
     id="path224"
     inkscape:connector-curvature="0" />
  <path
     class="cls-8"
     d="m 473.95593,110.82001 -118.14,22.62 -105.35,-16.39 v 1.84 l 36.66,92.65 174.77,-7.6 a 38.83,38.83 0 0 0 12.06,-28.12 z"
     id="path226"
     inkscape:connector-curvature="0"
     style="fill:#6c72ef" />
  <path
     d="m 429.64593,9.2900073 h -138.58 a 65.17,65.17 0 0 0 -65,64.9999997 v 90.000003 a 65.17,65.17 0 0 0 65,65 h 138.58 a 65.18,65.18 0 0 0 65,-65 V 74.290007 a 65.18,65.18 0 0 0 -65,-64.9999997 z m 44.31,156.2900027 a 39,39 0 0 1 -39,39 h -145.5 a 39,39 0 0 1 -39,-39 V 71.090007 a 39,39 0 0 1 39,-39 h 145.52 a 39,39 0 0 1 39,39 z"
     id="path228"
     inkscape:connector-curvature="0" />
  <path
     d="m 250.46593,185.28001 66,-10 c -10.22,-60.16 -66.8,-68.57 -66.8,-68.57 l -17.46,16.51 z"
     id="path230"
     inkscape:connector-curvature="0" />
  <polygon
     class="cls-12"
     points="476.06,318.36 473.84,311.35 472.88,318.99 474.61,325.41 "
     id="polygon232"
     style="fill:#f3b857;stroke:#f3b857;stroke-width:3.03999996px;stroke-linecap:round;stroke-linejoin:round"
     transform="translate(-216.62407,-177.17999)" />
  <polygon
     class="cls-12"
     points="474.45,316.8 467.44,319.02 475.09,319.99 481.5,318.26 "
     id="polygon234"
     style="fill:#f3b857;stroke:#f3b857;stroke-width:3.03999996px;stroke-linecap:round;stroke-linejoin:round"
     transform="translate(-216.62407,-177.17999)" />
  <circle
     class="cls-5"
     cx="246.38594"
     cy="123.23001"
     r="2.6700001"
     id="circle236"
     style="fill:#f16567" />
  <circle
     class="cls-7"
     cx="280.53592"
     cy="135.99002"
     r="4.6100001"
     id="circle238"
     style="fill:#45dfef" />
  <polygon
     class="cls-8"
     points="624.9,262.13 643.49,263.98 643.49,307.83 624.9,307.83 "
     id="polygon240"
     style="fill:#6c72ef"
     transform="translate(-216.62407,-177.17999)" />
  <polygon
     class="cls-8"
     points="649.23,252.54 667.82,254.4 667.82,298.25 649.23,298.25 "
     id="polygon242"
     style="fill:#6c72ef"
     transform="translate(-216.62407,-177.17999)" />
  <rect
     class="cls-8"
     x="401.06592"
     y="113.55002"
     width="66.57"
     height="27.040001"
     id="rect244"
     style="fill:#6c72ef" />
  <rect
     class="cls-8"
     x="445.44592"
     y="99.809998"
     width="22.190001"
     height="40.779999"
     id="rect246"
     style="fill:#6c72ef" />
  <path
     class="cls-3"
     d="m 430.82593,149.27001 -11.61,9.55 51.47,24 c 0,0 22.4,-17.76 14.24,-36.9"
     id="path248"
     inkscape:connector-curvature="0"
     style="fill:#ffffff" />
  <path
     class="cls-6"
     d="m 469.98593,146.82001 c -5,8.69 -24.15,21.59 -34.49,29.06 l 35.19,6.94 c 0,0 14.62,-11.59 15.93,-26.14 l -0.86,-2.58 -2.4,-4.65 2.41,-1.17 c -0.24,-0.78 -0.51,-1.57 -0.84,-2.36 z"
     id="path250"
     inkscape:connector-curvature="0"
     style="fill:#f3b857" />
  <path
     d="m 402.31593,179.41001 a 5.25,5.25 0 0 1 1.51,-6.06 l 23.68,-28.12 a 5.232325,5.232325 0 0 1 6.65,8.08 l -18.37,21.18 54,2.11 c 4.89,-4.72 15.36,-16.68 10.39,-28.54 l -0.06,-0.14 a 5.2339278,5.2339278 0 0 1 9.64,-4.08 l 0.07,0.19 c 9.42,22.48 -14.83,42.05 -15.87,42.87 a 5.21,5.21 0 0 1 -5.45,0.64 l -63.55,-5.41 a 5.27,5.27 0 0 1 -2.64,-2.72 z"
     id="path252"
     inkscape:connector-curvature="0" />
  <path
     class="cls-4"
     d="m 464.37593,155.28001 c 0,0 -10.92,17.86 -25.28,20.12 -14.36,2.26 -24.79,0 -24.79,0 l 17.55,-21 12.79,-3"
     id="path254"
     inkscape:connector-curvature="0"
     style="fill:#d8d8d8" />
  <path
     class="cls-4"
     d="m 448.10593,128.90001 c 0,0 9.49,-23 34.4,-25.6 24.91,-2.6 30.87,-9.290003 30.87,-9.290003 0,0 4.4,14.940003 -12.63,26.090003 -17.03,11.15 -31.49,2.17 -52.64,8.8 z"
     id="path256"
     inkscape:connector-curvature="0"
     style="fill:#d8d8d8" />
  <path
     class="cls-6"
     d="m 502.88593,118.54001 5.37,-5.05 a 23.4,23.4 0 0 0 5.56,-13.670003 l -30.76,8.700003 a 78.87,78.87 0 0 1 -3.85,17.65 c 7.19,-0.17 14.11,-1.21 21.52,-6.06 0.78,-0.52 1.47,-1.05 2.16,-1.57 z"
     id="path258"
     inkscape:connector-curvature="0"
     style="fill:#f3b857" />
  <path
     d="m 443.28593,130.92001 a 5.23,5.23 0 0 1 0,-4 c 0.43,-1.05 11,-25.91 38.69,-28.800003 20.28,-2.12 26.76,-7 27.55,-7.65 a 4.9,4.9 0 0 1 4.9,-1.76 5.26,5.26 0 0 1 4,3.84 c 0.22,0.76 5.26,18.810003 -14.79,32.000003 -10.91,7.14 -21.05,7 -30.85,6.92 -7.18,-0.08 -14.6,-0.16 -23.06,2.49 a 5.22,5.22 0 0 1 -5.42,-1.46 5.06,5.06 0 0 1 -1.02,-1.58 z m 64.71,-27.87 c -5.24,2.09 -13.16,4.23 -24.94,5.46 a 36.09,36.09 0 0 0 -23.94,12.84 116.81,116.81 0 0 1 13.74,-0.41 c 9.36,0.1 16.76,0.19 25,-5.22 6.36,-4.16 9.07,-8.85 10.14,-12.67 z"
     id="path260"
     inkscape:connector-curvature="0" />
  <path
     class="cls-4"
     d="m 430.82593,149.27001 c 0,0 12,-22.24 37.45,-22.26 25.45,-0.02 32.15,-6.19 32.15,-6.19 0,0 2.88,15.56 -15.5,25.05 -18.38,9.49 -32.03,-1.05 -54.1,3.4 z"
     id="path262"
     inkscape:connector-curvature="0"
     style="fill:#d8d8d8" />
  <path
     class="cls-6"
     d="m 484.92593,145.90001 c 6.82,-3.53 10.7,-7.88 12.9,-12 v -0.08 l 1,-9.43 1.75,-1.57 a 15.49,15.49 0 0 0 -0.15,-1.92 c 0,0 -4.87,4.4 -21.83,5.76 a 90.27,90.27 0 0 1 -10.52,23.36 36.12,36.12 0 0 0 16.85,-4.12 z"
     id="path264"
     inkscape:connector-curvature="0"
     style="fill:#f3b857" />
  <path
     d="m 426.00593,151.29001 a 5.23,5.23 0 0 1 0.22,-4.5 c 0.55,-1 13.8,-25 42,-25 20.78,0 27.84,-4.29 28.69,-4.86 a 4.91,4.91 0 0 1 5.06,-1.25 5.26,5.26 0 0 1 3.54,4.23 c 0.15,0.79 3.34,19.5 -18.25,30.64 -11.75,6.07 -22,4.89 -31.85,3.76 -7.26,-0.84 -14.75,-1.7 -23.6,0.1 a 5.24,5.24 0 0 1 -5.24,-2 5.44,5.44 0 0 1 -0.57,-1.12 z m 68.19,-22 c -5.5,1.58 -13.77,2.93 -25.92,2.94 a 36.92,36.92 0 0 0 -25.69,10.64 119.42,119.42 0 0 1 14.07,1 c 9.47,1.09 16.94,1.95 25.87,-2.65 6.98,-3.57 10.21,-8.12 11.67,-11.92 z"
     id="path266"
     inkscape:connector-curvature="0" />
  <path
     class="cls-6"
     d="m 518.84593,74.760007 15,-33.18 c 0,0 1.77,-14 -8.42,-3.23 -10.19,10.77 -39.86,45.35 -39.86,45.35"
     id="path268"
     inkscape:connector-curvature="0"
     style="fill:#f3b857" />
  <path
     d="m 480.73593,85.730007 a 5.24,5.24 0 0 1 0.86,-5.43 c 1.21,-1.42 29.87,-34.79 40,-45.54 2,-2.1 7.27,-7.69 12.87,-5.05 5.22,2.47 4.92,9.58 4.55,12.52 a 5.58,5.58 0 0 1 -0.42,1.5 l -15,33.18 a 5.23,5.23 0 1 1 -9.53,-4.3 l 12.63,-28 c -11.66,12.73 -36.91,42.14 -37.18,42.46 a 5.24,5.24 0 0 1 -8.8,-1.38 z"
     id="path270"
     inkscape:connector-curvature="0" />
  <path
     class="cls-4"
     d="m 464.37593,107.39001 c 0,0 7,-19.890003 28.34,-23.290003 21.34,-3.4 26.12,-9.34 26.12,-9.34 0,0 4.57,12.41 -9.54,22.66 -14.11,10.250003 -27.01,3.340003 -44.92,9.970003 z"
     id="path272"
     inkscape:connector-curvature="0"
     style="fill:#d8d8d8" />
  <path
     class="cls-6"
     d="m 482.86593,104.02001 c 9.34,-0.49 17.66,-0.23 26.44,-6.600003 14.11,-10.25 9.54,-22.66 9.54,-22.66 0,0 -4.77,5.94 -26.12,9.34 a 159,159 0 0 0 -9.86,19.920003 z"
     id="path274"
     inkscape:connector-curvature="0"
     style="fill:#f3b857" />
  <path
     d="m 459.56593,109.41001 a 5.24,5.24 0 0 1 -0.11,-3.76 c 0.33,-0.93 8.31,-22.870003 32.45,-26.710003 16.79,-2.68 22.18,-6.9 22.94,-7.57 a 4.88,4.88 0 0 1 4.74,-2 5.24,5.24 0 0 1 4.17,3.6 c 0.24,0.66 5.74,16.27 -11.38,28.700003 -9.21,6.68 -18,7.08 -26.61,7.47 -6.14,0.27 -12.5,0.56 -19.56,3.17 a 5.24,5.24 0 0 1 -5.49,-1.18 5.12,5.12 0 0 1 -1.15,-1.72 z m 54,-25.430003 a 88.1,88.1 0 0 1 -20.06,5.29 30.19,30.19 0 0 0 -18.13,10.13 c 3.52,-0.45 6.82,-0.6 9.92,-0.73 8,-0.36 14.27,-0.65 20.93,-5.49 4.32,-3.13 6.42,-6.36 7.39,-9.2 z"
     id="path276"
     inkscape:connector-curvature="0" />
  <ellipse
     class="cls-4"
     cx="287.12592"
     cy="175.29001"
     rx="29.370001"
     ry="26.040001"
     id="ellipse278"
     style="fill:#d8d8d8" />
  <path
     class="cls-4"
     d="m 519.91593,242.49001 c 6.44,-6.22 8.53,-15.78 9.19,-22.25 0,-0.44 0.06,-0.9 0.12,-1.39 a 45.38,45.38 0 0 0 0.13,-5.57 l 0.41,-0.31 c 1.11,-18.27 -5.32,-16.57 -5.32,-16.57 0.36,-40.71 -38.61,-23.26 -38.61,-23.26 h -249.61 l 0.82,-34.46 -11.54,-12.86 c -1.74,-1.93 -3.43,-3.69 -5.17,-5.36 v 0 c -18.17,-17.43 -40.67,-26.270003 -66.94,-26.270003 h -0.59 c -0.88,-0.08 -3.33,-0.24 -7,-0.24 -10.17,0 -30.33,1.34 -51.140004,10.310003 -26.73,10.79 -47.69,32 -60.62,61.32 a 169.78,169.78 0 0 0 -12.2,43.24 c -9.14,5.32 -16.5,13.74 -19.88,23.26 -3,8.35 -2.52999996,16.83 1.16,23.53 l 0.83,1.39 a 23.24,23.24 0 0 0 5,5.57 c 3.23,2.46 8.32,5 16,5.85 h 96.090004 l 0.58,-1.63 c 21.08,28.13 62.53,8 62.53,8 a 22.57,22.57 0 0 0 21.57,7 h 301 c 10.49,-2.64 7.83,-14.61 7.83,-14.61 v -19.68 z"
     id="path280"
     inkscape:connector-curvature="0"
     style="fill:#d8d8d8" />
  <path
     class="cls-3"
     d="m 160.37593,173.46001 a 34.65,34.65 0 0 0 -12.81,-2.74 c -8.54,0 -13.34,4.29 -12.94,10.43 a 13.85,13.85 0 0 0 -2.19,-0.18 c -6.09,0 -8.4,4.62 -5.67,10.61 -2.72,1 -3.53,3.66 -1.69,6.77 2.34,4 8.11,7.21 12.88,7.21 0.34,0 0.67,0 1,-0.05 v 0.05 h 27.22 c -0.8,-11.65 -3.9,-24.83 -5.8,-32.1 z"
     id="path282"
     inkscape:connector-curvature="0"
     style="fill:#ffffff" />
  <path
     class="cls-4"
     d="m 156.54593,195.62001 a 9.36,9.36 0 0 0 -9.85,-2.6 c 0,0 -0.2,-4.36 -8.06,-4.91 0,0 6.2,-3.63 11.37,0.7 0,0 4,-1.74 6.63,0.88 z"
     id="path284"
     inkscape:connector-curvature="0"
     style="fill:#d8d8d8" />
  <path
     class="cls-8"
     d="m 207.98593,139.26001 -58.74,-23.59 -75.660004,32.72 -28.54,82.2 h 28.9 l 1.36,-34.65 c 0,0 11,-58.66 73.870004,-58.66 0,0 20.54,1.11 35.49,14.7 z"
     id="path286"
     inkscape:connector-curvature="0"
     style="fill:#6c72ef" />
  <path
     d="m 271.20593,231.82001 q -2.74,2.53 -5.88,4.95 a 41.65,41.65 0 0 1 -6.46,4.13 14.41,14.41 0 0 1 -6.53,1.7 5,5 0 0 1 -3.17,-0.93 6.39,6.39 0 0 1 -1.82,-2.37 8.38,8.38 0 0 1 -0.71,-3.19 13.29,13.29 0 0 1 0.29,-3.41 l 2.77,-25.3 a 12.74,12.74 0 0 0 -0.1,-4.56 c -0.3,-1.21 -0.74,-1.82 -1.32,-1.82 -2,0 -3.62,1.27 -4.9,3.8 a 42.22,42.22 0 0 0 -3.26,9.57 q -1.33,5.78 -2.32,12.7 -0.99,6.92 -2,13.2 l -0.23,1.43 c 0,0.29 -0.36,0.51 -1,0.66 a 15.1,15.1 0 0 1 -2.17,0.33 c -0.82,0.07 -1.59,0.11 -2.32,0.11 h -1.54 c -0.29,0 -0.73,0 -1.32,-0.05 a 16.48,16.48 0 0 1 -1.79,-0.22 4.55,4.55 0 0 1 -1.55,-0.55 1.06,1.06 0 0 1 -0.57,-1.05 l 2.92,-33.33 q 0.19,-2.21 0.45,-5.77 0.26,-3.56 0.75,-9.19 a 3.43,3.43 0 0 1 2.45,-2.91 12.46,12.46 0 0 1 4.81,-0.94 11.36,11.36 0 0 1 4.87,1 c 1.41,0.66 2,1.62 1.84,2.86 -0.09,1 -0.2,2.07 -0.33,3.14 -0.13,1.07 -0.25,2.18 -0.35,3.35 l 1,-1.54 c 0.77,-1.17 1.54,-2.29 2.33,-3.35 a 12.9,12.9 0 0 1 2.77,-2.75 12.53,12.53 0 0 1 3.74,-1.82 18.82,18.82 0 0 1 5.44,-0.66 8,8 0 0 1 4,0.94 8.2,8.2 0 0 1 2.76,2.47 10.46,10.46 0 0 1 1.62,3.57 13,13 0 0 1 0.3,4.12 q -0.21,2.42 -0.75,6.71 -0.54,4.29 -1.22,9 c -0.46,3.11 -0.87,6.14 -1.24,9.07 -0.37,2.93 -0.62,5.28 -0.78,7 0,0.37 0,0.55 0.17,0.55 a 5.79,5.79 0 0 0 2.41,-1.15 c 1.17,-0.77 2.44,-1.64 3.81,-2.59 l 4,-2.8 a 18,18 0 0 1 3,-1.82 l 2.11,3.63 a 56.24,56.24 0 0 0 -4.98,4.08 z"
     id="path288"
     inkscape:connector-curvature="0" />
  <path
     d="m 295.51593,231.82001 q -2.76,2.53 -5.88,4.95 a 41.27,41.27 0 0 1 -6.47,4.13 14.34,14.34 0 0 1 -6.52,1.7 4.36,4.36 0 0 1 -3.16,-1 5.23,5.23 0 0 1 -1.42,-2.64 13.93,13.93 0 0 1 -0.3,-3.41 q 0,-1.81 0.18,-3.36 l 0.55,-6.27 c 0.16,-1.83 0.29,-3.56 0.4,-5.17 0.11,-1.61 0.21,-3.26 0.32,-4.95 0.11,-1.69 0.24,-3.59 0.39,-5.72 0.15,-2.13 0.35,-4.58 0.59,-7.37 l 0.87,-10 c 0.09,-1 0.88,-1.78 2.35,-2.25 a 15.5,15.5 0 0 1 4.84,-0.72 16.73,16.73 0 0 1 5.11,0.72 c 1.5,0.47 2.28,1.23 2.33,2.25 l -4.88,39.49 c 0,0.22 0,0.33 0.08,0.33 a 6.19,6.19 0 0 0 2.47,-1.15 c 1.2,-0.77 2.5,-1.64 3.91,-2.59 1.41,-0.95 2.75,-1.89 4,-2.8 a 18,18 0 0 1 3,-1.82 l 2.1,3.63 a 56.28,56.28 0 0 0 -4.86,4.02 z"
     id="path290"
     inkscape:connector-curvature="0" />
  <path
     d="m 338.88593,232.04001 q -2.81,2.53 -6,4.95 a 23.36,23.36 0 0 1 -3.35,2.43 33.85,33.85 0 0 1 -9.64,4 22.93,22.93 0 0 1 -5.34,0.65 c -4.11,0 -7.36,-0.7 -9.77,-2.09 a 13.23,13.23 0 0 1 -5.39,-5.66 22.18,22.18 0 0 1 -2.14,-8.25 60.3,60.3 0 0 1 0.09,-9.85 l 0.1,-1.1 a 37,37 0 0 1 2,-8.8 31.1,31.1 0 0 1 5,-9.07 28.51,28.51 0 0 1 8.49,-7.15 25,25 0 0 1 12.52,-2.92 13,13 0 0 1 3.15,0.44 8.33,8.33 0 0 1 3.11,1.54 7.21,7.21 0 0 1 2.16,3 10,10 0 0 1 0.52,4.73 6.69,6.69 0 0 1 -1.66,3.91 3.62,3.62 0 0 1 -2.21,1.37 c -0.73,0 -1.17,-0.27 -1.3,-0.82 a 10.69,10.69 0 0 1 0,-3 4.32,4.32 0 0 0 -1.09,-3.24 q -1.25,-1.49 -4.77,-1.49 a 5.82,5.82 0 0 0 -4.44,2.37 24.28,24.28 0 0 0 -3.55,5.83 42.73,42.73 0 0 0 -2.53,7.61 53.34,53.34 0 0 0 -1.26,7.5 q -0.71,8.06 1.62,12.91 2.33,4.85 9,4.85 a 9.72,9.72 0 0 0 4.45,-1.21 32.9,32.9 0 0 0 4.84,-3.08 c 1.65,-1.25 3.32,-2.6 5,-4.07 1.68,-1.47 3.42,-2.82 5.14,-4.07 l 2.1,3.63 c -1.36,1.07 -2.98,2.46 -4.85,4.15 z"
     id="path292"
     inkscape:connector-curvature="0" />
  <path
     d="m 388.70593,228.36001 a 93.37,93.37 0 0 1 -10.28,6.93 69.34,69.34 0 0 1 -11,5.17 30.83,30.83 0 0 1 -10.52,2 14.83,14.83 0 0 1 -7.9,-2.14 19.2,19.2 0 0 1 -5.83,-5.56 23.32,23.32 0 0 1 -3.41,-7.59 24.49,24.49 0 0 1 -0.71,-8.25 46.72,46.72 0 0 1 1.91,-9.24 32.86,32.86 0 0 1 4.87,-9.79 27.64,27.64 0 0 1 8.71,-7.75 q 5.38,-3.14 13.42,-3.14 a 15.72,15.72 0 0 1 6.42,1.38 14.76,14.76 0 0 1 5.47,4.18 19.13,19.13 0 0 1 3.56,7 27,27 0 0 1 0.74,9.84 c -0.08,0.81 -0.2,1.8 -0.37,3 -0.17,1.2 -0.4,2.42 -0.66,3.74 -0.26,1.32 -0.55,2.68 -0.85,4.07 -0.3,1.39 -0.62,2.64 -0.93,3.74 0,0.15 0,0.22 0.09,0.22 a 6.31,6.31 0 0 0 2.52,-1.21 c 1.24,-0.81 2.61,-1.7 4.09,-2.69 1.48,-0.99 2.88,-2 4.21,-2.92 a 18.12,18.12 0 0 1 3,-1.87 l 2.1,3.63 q -3.75,3.45 -8.65,7.25 z m -20.1,-7.25 c 0.08,-0.88 0.17,-2.11 0.27,-3.7 0.1,-1.59 0.18,-3.27 0.22,-5.07 a 50.14,50.14 0 0 0 -0.17,-5.57 27.91,27.91 0 0 0 -0.87,-5.13 11.07,11.07 0 0 0 -1.76,-3.75 3.61,3.61 0 0 0 -3,-1.49 5.89,5.89 0 0 0 -4.14,1.49 10.14,10.14 0 0 0 -2.53,3.75 23.29,23.29 0 0 0 -1.35,4.8 c -0.3,1.69 -0.51,3.23 -0.63,4.63 l -0.35,4 c -0.1,1.18 -0.2,2.94 -0.29,5.3 a 39.91,39.91 0 0 0 0.32,7 16.94,16.94 0 0 0 1.94,6.12 4.94,4.94 0 0 0 4.66,2.65 4.71,4.71 0 0 0 3.83,-1.71 12.72,12.72 0 0 0 2.23,-4.08 25.07,25.07 0 0 0 1.15,-5 c 0.24,-1.72 0.38,-3.14 0.47,-4.24 z"
     id="path294"
     inkscape:connector-curvature="0" />
  <path
     d="m 435.77593,215.32001 a 27.69,27.69 0 0 1 -3.56,4.18 19.42,19.42 0 0 1 -4.58,3.3 11.72,11.72 0 0 1 -5.5,1.32 6.38,6.38 0 0 1 -4.73,-1.87 14.4,14.4 0 0 1 -3,-4.34 19.64,19.64 0 0 1 -1.5,-4.9 15.66,15.66 0 0 1 -0.29,-3.52 23.63,23.63 0 0 1 1,-5.44 12,12 0 0 1 2.76,-4.13 c 0,-0.07 -0.06,-0.11 -0.21,-0.11 a 7,7 0 0 0 -6.19,3.52 30.85,30.85 0 0 0 -3.61,9.24 117,117 0 0 0 -2.29,13 q -0.92,7.26 -2.12,14.74 l -0.23,1.43 c 0,0.29 -0.36,0.51 -1,0.66 a 15.1,15.1 0 0 1 -2.17,0.33 c -0.81,0.07 -1.59,0.11 -2.32,0.11 h -1.54 c -0.29,0 -0.73,0 -1.31,-0.05 a 14.68,14.68 0 0 1 -1.75,-0.22 4.61,4.61 0 0 1 -1.49,-0.55 1.09,1.09 0 0 1 -0.57,-1.05 l 2.8,-33.35 q 0.19,-2.21 0.45,-5.77 0.26,-3.56 0.75,-9.19 a 3.4,3.4 0 0 1 2.23,-2.91 10.94,10.94 0 0 1 4.57,-0.93 13,13 0 0 1 2.67,0.28 9.53,9.53 0 0 1 2.33,0.72 4.79,4.79 0 0 1 1.6,1.21 2.11,2.11 0 0 1 0.52,1.59 c -0.09,1 -0.2,2.07 -0.33,3.14 -0.13,1.07 -0.25,2.18 -0.35,3.35 l 1,-1.54 c 0.76,-1.17 1.53,-2.29 2.32,-3.35 a 12.9,12.9 0 0 1 2.77,-2.75 12.65,12.65 0 0 1 3.74,-1.82 18.9,18.9 0 0 1 5.45,-0.66 8,8 0 0 1 4,0.94 8.2,8.2 0 0 1 2.76,2.47 10.46,10.46 0 0 1 1.52,3.62 12.41,12.41 0 0 1 0.3,4.12 30.6,30.6 0 0 1 -1,5.23 18.77,18.77 0 0 1 -2.21,5.17 12.66,12.66 0 0 1 -3.81,3.9 10.16,10.16 0 0 1 -5.74,1.54 h -0.11 a 4.6,4.6 0 0 0 0.71,1.87 5,5 0 0 0 1.38,1.21 4.81,4.81 0 0 0 2.54,0.55 10,10 0 0 0 6.06,-2 22.85,22.85 0 0 0 4.83,-4.84 37,37 0 0 0 3.47,-5.72 q 1.41,-2.93 2.22,-4.68 l -0.79,9 q -0.94,1.74 -2.45,3.95 z"
     id="path296"
     inkscape:connector-curvature="0" />
  <path
     d="m 480.96593,231.82001 q -2.75,2.53 -5.88,4.95 a 41.65,41.65 0 0 1 -6.46,4.13 14.41,14.41 0 0 1 -6.53,1.7 5,5 0 0 1 -3.16,-0.93 6.31,6.31 0 0 1 -1.83,-2.37 8.38,8.38 0 0 1 -0.71,-3.19 13.29,13.29 0 0 1 0.29,-3.41 l 2.77,-25.3 a 12.74,12.74 0 0 0 -0.08,-4.58 c -0.3,-1.21 -0.74,-1.82 -1.32,-1.82 -2,0 -3.62,1.27 -4.9,3.8 a 42.22,42.22 0 0 0 -3.26,9.57 q -1.32,5.78 -2.32,12.7 -1,6.92 -2,13.2 l -0.2,1.45 c 0,0.29 -0.36,0.51 -1,0.66 a 15.1,15.1 0 0 1 -2.17,0.33 c -0.81,0.07 -1.59,0.11 -2.32,0.11 h -1.54 c -0.29,0 -0.73,0 -1.32,-0.05 a 16.48,16.48 0 0 1 -1.79,-0.22 4.55,4.55 0 0 1 -1.55,-0.55 1.06,1.06 0 0 1 -0.57,-1.05 l 2.92,-33.33 q 0.2,-2.21 0.45,-5.77 0.25,-3.56 0.75,-9.19 a 3.43,3.43 0 0 1 2.45,-2.91 12.46,12.46 0 0 1 4.81,-0.94 11.36,11.36 0 0 1 4.87,1 c 1.41,0.66 2,1.62 1.84,2.86 -0.09,1 -0.2,2.07 -0.33,3.14 -0.13,1.07 -0.25,2.18 -0.35,3.35 l 1,-1.54 c 0.77,-1.17 1.54,-2.29 2.33,-3.35 a 12.9,12.9 0 0 1 2.77,-2.75 12.65,12.65 0 0 1 3.74,-1.82 18.87,18.87 0 0 1 5.44,-0.66 8,8 0 0 1 4,0.94 8.2,8.2 0 0 1 2.76,2.47 10.46,10.46 0 0 1 1.55,3.58 12.68,12.68 0 0 1 0.3,4.12 q -0.21,2.42 -0.75,6.71 -0.54,4.29 -1.29,8.96 c -0.46,3.11 -0.87,6.14 -1.24,9.07 -0.37,2.93 -0.62,5.28 -0.78,7 0,0.37 0,0.55 0.17,0.55 a 5.79,5.79 0 0 0 2.41,-1.15 c 1.17,-0.77 2.44,-1.64 3.81,-2.59 l 4,-2.8 a 18,18 0 0 1 3,-1.82 l 2.11,3.63 a 56.24,56.24 0 0 0 -4.89,4.11 z"
     id="path298"
     inkscape:connector-curvature="0" />
  <path
     d="m 211.37593,249.92001 8.14,-93 a 3.35,3.35 0 0 0 -0.38,-2.14 2.79,2.79 0 0 0 -1.23,-1.07 4.9,4.9 0 0 0 -1.48,-0.38 c -0.5,0 -0.87,-0.06 -1.12,-0.06 a 12.21,12.21 0 0 0 -4.9,1.32 37.43,37.43 0 0 0 -5.63,3.21 26.56,26.56 0 0 0 -4.69,4 6.94,6.94 0 0 0 -2.1,3.77 l -6.42,73.47 a 10.42,10.42 0 0 1 -1.51,4.21 21.87,21.87 0 0 1 -3.27,4.34 24,24 0 0 1 -4.27,3.53 12.53,12.53 0 0 1 -4.51,1.89 3.57,3.57 0 0 1 -2.19,-0.82 8.11,8.11 0 0 1 -1.84,-2 9.06,9.06 0 0 1 -1.16,-2.51 6.35,6.35 0 0 1 -0.3,-2.33 l 5.44,-62.17 a 27.38,27.38 0 0 0 -2.3,-14.09 32.41,32.41 0 0 0 -8.22,-11 38.35,38.35 0 0 0 -12.06,-7.09 40,40 0 0 0 -13.87,-2.51 49.85,49.85 0 0 0 -20.23,4 50.89,50.89 0 0 0 -15.52,10.33 51.09,51.09 0 0 0 -14.080004,26.18 h 9.700004 a 39.09,39.09 0 0 1 2.93,-7.17 50.78,50.78 0 0 1 8.87,-12.21 49,49 0 0 1 11.72,-8.87 26.75,26.75 0 0 1 12.83,-3.46 20,20 0 0 1 7.79,1.57 21,21 0 0 1 6.6,4.34 19.15,19.15 0 0 1 4.4,6.61 17.61,17.61 0 0 1 1.16,8.24 l -5.79,66.2 a 21.54,21.54 0 0 0 0.72,7.61 25.69,25.69 0 0 0 3.09,7.05 17.38,17.38 0 0 0 5.09,5.22 12,12 0 0 0 6.8,2 17.84,17.84 0 0 0 7.33,-1.7 63.26,63.26 0 0 0 7.18,-3.77 c 2.26,-1.39 4.22,-2.64 5.87,-3.78 1.65,-1.14 2.77,-1.7 3.36,-1.7 a 31.88,31.88 0 0 0 -0.08,3.84 13.61,13.61 0 0 0 0.66,3.9 6.7,6.7 0 0 0 1.94,3 5.21,5.21 0 0 0 3.61,1.2 9.86,9.86 0 0 0 3.74,-1.07 32.19,32.19 0 0 0 4.7,-2.64 21.25,21.25 0 0 0 4.08,-3.53 6.61,6.61 0 0 0 1.9,-3.71 z"
     id="path300"
     inkscape:connector-curvature="0" />
  <path
     class="cls-5"
     d="m 210.19593,130.88001 c -15.75,-15.11 -35.25,-22.77 -57.95,-22.77 h -1.26 -0.38 c 0,0 -2.25,-0.21 -6,-0.21 a 117.25,117.25 0 0 0 -45.520004,9.17 c -61.99,24.85 -64.55,103.75 -64.55,103.75 l 10.71,7.28 10.42,-7.28 10.45,-44.17 c 0,0 48.000004,-42.67 53.500004,-58.41 a 113.18,113.18 0 0 1 24.34,-2.69 c 3.29,0 5.27,0.17 5.29,0.17 l 0.74,0.07 h 1.63 c 20.74,0 38.6,7 53,20.85 1,1 1.94,1.93 2.87,2.93 l 7.21,-3.94 c -1.32,-1.6 -2.86,-3.18 -4.5,-4.75 z"
     id="path302"
     inkscape:connector-curvature="0"
     style="fill:#f16567" />
  <path
     class="cls-6"
     d="m 207.51593,139.52001 c -0.93,-1 -1.89,-2 -2.87,-2.93 -14.43,-13.84 -32.29,-20.86 -53,-20.86 h -1.63 l -0.74,-0.07 c 0,0 -2,-0.17 -5.29,-0.17 -10.49,0 -31,1.62 -50.380004,12.47 -23.45,13.11 -38,36.18 -43.38,68.56 l -3.27,37.39 12.35,-18.57 0.78,-19.79 0.21,-1.12 a 96.93,96.93 0 0 1 16.24,-36 c 12,-16.61 34.600004,-36.4 74.000004,-36.4 h 0.41 0.4 c 1.3,0.07 29.35,1.84 47.92,22 z"
     id="path304"
     inkscape:connector-curvature="0"
     style="fill:#f3b857" />
  <path
     class="cls-7"
     d="m 150.92593,122.04001 h -0.41 c -39.41,0 -62.000004,19.79 -74.000004,36.4 a 96.93,96.93 0 0 0 -16.24,36 l -0.21,1.12 -0.59,15 v 0 l -0.06,0.79 -0.16,4 h -0.2 l -0.66,7.63 h 8.19 l 1.07,-27.23 0.11,-0.56 a 89.24,89.24 0 0 1 14.8,-32.66 c 10.84,-15 31.310004,-32.86 67.260004,-32.86 h 0.41 c 1.24,0.06 25.15,1.59 41.76,18.3 l 7.23,-4 c -18.57,-20.13 -46.62,-21.9 -47.92,-22 z"
     id="path306"
     inkscape:connector-curvature="0"
     style="fill:#45dfef" />
  <path
     class="cls-8"
     d="m 235.37593,266.25001 a 0.92,0.92 0 0 1 0,-0.32 l 4.05,-0.49 v 0.14 c 0,0.59 0.21,0.8 0.82,0.8 h 2.4 c 0.62,0 0.82,-0.21 0.82,-0.8 v -0.41 c 0,-0.51 -0.2,-0.61 -1.28,-0.77 l -3.27,-0.47 c -2.52,-0.37 -3.5,-1.29 -3.5,-3.34 v -2.15 c 0,-2.34 1.26,-3.58 3.65,-3.58 h 4.77 c 2.38,0 3.65,1.24 3.65,3.58 a 1.12,1.12 0 0 1 0,0.33 l -4.06,0.49 v -0.14 c 0,-0.59 -0.2,-0.8 -0.82,-0.8 h -2.23 c -0.63,0 -0.85,0.23 -0.85,0.8 v 0.34 c 0,0.53 0.14,0.62 1.3,0.78 l 3.26,0.47 c 2.55,0.36 3.49,1.28 3.49,3.38 v 2.16 c 0,2.35 -1.27,3.59 -3.65,3.59 h -4.89 c -2.36,-0.02 -3.66,-1.24 -3.66,-3.59 z"
     id="path308"
     inkscape:connector-curvature="0"
     style="fill:#6c72ef" />
  <path
     class="cls-8"
     d="m 266.23593,266.76001 h -4.86 l -0.84,2.88 h -4.16 l 4.45,-14.58 h 6 l 4.44,14.58 h -4.18 z m -1,-3.46 -1.43,-5 -1.44,5 z"
     id="path310"
     inkscape:connector-curvature="0"
     style="fill:#6c72ef" />
  <path
     class="cls-8"
     d="m 293.37593,255.06001 v 14.58 h -3.9 l -4.73,-7.82 v 7.79 h -4.08 v -14.55 h 3.93 l 4.78,7.76 v -7.79 z"
     id="path312"
     inkscape:connector-curvature="0"
     style="fill:#6c72ef" />
  <path
     class="cls-8"
     d="m 320.06593,258.53001 v 2.42 h 5.47 v 3.47 h -5.47 v 5.22 h -4.07 v -14.58 h 10.38 v 3.47 z"
     id="path314"
     inkscape:connector-curvature="0"
     style="fill:#6c72ef" />
  <path
     class="cls-8"
     d="m 341.55593,264.64001 h -1.41 v 5 h -4.08 v -14.58 h 8.14 c 2.38,0 3.65,1.24 3.65,3.59 v 2.4 a 3.18,3.18 0 0 1 -1.8,3.25 l 3.49,5.34 h -4.75 z m -1.41,-3.46 h 2.81 c 0.62,0 0.82,-0.21 0.82,-0.8 v -1.06 c 0,-0.59 -0.2,-0.79 -0.82,-0.79 h -2.81 z"
     id="path316"
     inkscape:connector-curvature="0"
     style="fill:#6c72ef" />
  <path
     class="cls-8"
     d="m 367.97593,266.76001 h -4.86 l -0.83,2.88 h -4.18 l 4.44,-14.58 h 6 l 4.44,14.58 h -4.18 z m -1,-3.46 -1.43,-5 -1.45,5 z"
     id="path318"
     inkscape:connector-curvature="0"
     style="fill:#6c72ef" />
  <path
     class="cls-8"
     d="m 395.14593,255.06001 v 14.58 h -3.94 l -4.73,-7.82 v 7.79 h -4.1 v -14.55 h 4 l 4.73,7.79 v -7.79 z"
     id="path320"
     inkscape:connector-curvature="0"
     style="fill:#6c72ef" />
  <path
     class="cls-8"
     d="m 405.29593,266.25001 v -7.81 c 0,-2.34 1.26,-3.58 3.65,-3.58 h 4.83 c 2.38,0 3.65,1.24 3.65,3.58 a 1.29,1.29 0 0 1 0,0.33 l -4.06,0.49 v -0.14 c 0,-0.59 -0.2,-0.8 -0.81,-0.8 h -2.35 c -0.61,0 -0.81,0.21 -0.81,0.8 v 6.46 c 0,0.59 0.2,0.8 0.81,0.8 h 2.35 c 0.61,0 0.81,-0.21 0.81,-0.8 v -0.14 l 4.06,0.49 a 1.24,1.24 0 0 1 0,0.32 c 0,2.35 -1.27,3.59 -3.65,3.59 h -4.83 c -2.39,-0.02 -3.65,-1.24 -3.65,-3.59 z"
     id="path322"
     inkscape:connector-curvature="0"
     style="fill:#6c72ef" />
  <path
     class="cls-8"
     d="m 427.30593,255.06001 h 4.07 v 14.58 h -4.08 z"
     id="path324"
     inkscape:connector-curvature="0"
     style="fill:#6c72ef" />
  <path
     class="cls-8"
     d="m 441.47593,266.25001 a 0.92,0.92 0 0 1 0,-0.32 l 4.06,-0.49 v 0.14 c 0,0.59 0.2,0.8 0.81,0.8 h 2.41 c 0.61,0 0.81,-0.21 0.81,-0.8 v -0.41 c 0,-0.51 -0.2,-0.61 -1.28,-0.77 l -3.26,-0.47 c -2.53,-0.37 -3.51,-1.29 -3.51,-3.34 v -2.15 c 0,-2.34 1.26,-3.58 3.65,-3.58 h 4.77 c 2.38,0 3.65,1.24 3.65,3.58 a 1.12,1.12 0 0 1 0,0.33 l -4.06,0.49 v -0.14 c 0,-0.59 -0.2,-0.8 -0.81,-0.8 h -2.25 c -0.63,0 -0.85,0.23 -0.85,0.8 v 0.34 c 0,0.53 0.14,0.62 1.3,0.78 l 3.26,0.47 c 2.55,0.36 3.49,1.28 3.49,3.38 v 2.16 c 0,2.35 -1.26,3.59 -3.65,3.59 h -4.89 c -2.39,-0.02 -3.65,-1.24 -3.65,-3.59 z"
     id="path326"
     inkscape:connector-curvature="0"
     style="fill:#6c72ef" />
  <path
     class="cls-8"
     d="m 463.55593,266.25001 v -7.81 c 0,-2.34 1.26,-3.58 3.64,-3.58 h 4.84 c 2.38,0 3.65,1.24 3.65,3.58 a 0.87,0.87 0 0 1 0,0.33 l -4,0.49 v -0.14 c 0,-0.59 -0.21,-0.8 -0.82,-0.8 h -2.34 c -0.61,0 -0.82,0.21 -0.82,0.8 v 6.46 c 0,0.59 0.21,0.8 0.82,0.8 h 2.34 c 0.61,0 0.82,-0.21 0.82,-0.8 v -0.14 l 4,0.49 a 0.84,0.84 0 0 1 0,0.32 c 0,2.35 -1.27,3.59 -3.65,3.59 h -4.84 c -2.38,-0.02 -3.64,-1.24 -3.64,-3.59 z"
     id="path328"
     inkscape:connector-curvature="0"
     style="fill:#6c72ef" />
  <path
     class="cls-8"
     d="m 497.49593,258.44001 v 7.81 c 0,2.35 -1.27,3.59 -3.65,3.59 h -4.83 c -2.39,0 -3.65,-1.24 -3.65,-3.59 v -7.81 c 0,-2.34 1.26,-3.58 3.65,-3.58 h 4.83 c 2.38,-0.04 3.65,1.24 3.65,3.58 z m -4.9,-0.12 h -2.34 c -0.61,0 -0.82,0.21 -0.82,0.8 v 6.46 c 0,0.59 0.21,0.8 0.82,0.8 h 2.34 c 0.61,0 0.82,-0.21 0.82,-0.8 v -6.46 c -0.04,-0.59 -0.21,-0.8 -0.82,-0.8 z"
     id="path330"
     inkscape:connector-curvature="0"
     style="fill:#6c72ef" />
  <ellipse
     cx="99.992279"
     cy="526.40485"
     rx="15.57"
     ry="10.27"
     transform="rotate(-57.38)"
     id="ellipse332" />
  <path
     d="m 516.97593,214.89001 -2.44,4.12 q -1.54,2.58 -2.88,4.67 c -0.9,1.39 -1.71,2.55 -2.45,3.47 -0.74,0.92 -1.3,1.37 -1.66,1.37 -0.08,0 -0.09,-0.26 0,-0.77 l 0.09,-1.1 0.18,-2.09 a 15.06,15.06 0 0 0 -1.42,-8.25 q -1.83,-3.63 -4.24,-7.48 a 78,78 0 0 1 -4.54,-8.41 28.24,28.24 0 0 1 -2.34,-11.06 h -3 a 22,22 0 0 1 -0.65,3.08 c -0.39,1.47 -0.83,3 -1.34,4.68 -0.51,1.68 -1,3.21 -1.51,4.67 a 12.06,12.06 0 0 1 -1.24,2.86 25.09,25.09 0 0 0 -1,2.48 8.84,8.84 0 0 0 -0.39,1.92 10,10 0 0 0 0.23,2.77 17,17 0 0 0 1.32,3.74 l 7.48,12.65 a 8.32,8.32 0 0 1 0.58,3.41 7.38,7.38 0 0 1 -2,4.51 5,5 0 0 1 -3.52,1.87 5.81,5.81 0 0 1 -4.11,-1.37 9.05,9.05 0 0 1 -2.25,-3.25 11.31,11.31 0 0 1 -0.88,-3.74 21.2,21.2 0 0 1 0,-3 c 0,-0.51 0,-0.77 -0.15,-0.77 -0.67,0.07 -1.46,0.7 -2.36,1.87 a 10.27,10.27 0 0 0 -1.2,8.69 9.86,9.86 0 0 0 1.85,3.36 9.56,9.56 0 0 0 3.14,2.42 9.69,9.69 0 0 0 4.32,0.93 24.3,24.3 0 0 0 10.94,-2.47 35.12,35.12 0 0 0 9.28,-6.77 57.17,57.17 0 0 0 7.89,-10.08 c 1.09,-1.75 2.16,-3.57 3.21,-5.43 z"
     id="path334"
     inkscape:connector-curvature="0" />
  <path
     class="cls-4"
     d="m 237.04593,138.68001 c 0,0 14,21 18.46,36.16 4.46,15.16 -32.13,-2.33 -32.13,-2.33"
     id="path336"
     inkscape:connector-curvature="0"
     style="fill:#d8d8d8" />
  <polygon
     class="cls-13"
     points="508.19,347.58 502.13,336.94 503.23,349.72 508.29,359.55 "
     id="polygon338"
     style="stroke:#000000;stroke-width:5.05999994px;stroke-linecap:round;stroke-linejoin:round"
     transform="translate(-216.62407,-177.17999)" />
  <polygon
     class="cls-13"
     points="505.03,345.6 494.4,351.67 507.18,350.57 517.01,345.51 "
     id="polygon340"
     style="stroke:#000000;stroke-width:5.05999994px;stroke-linecap:round;stroke-linejoin:round"
     transform="translate(-216.62407,-177.17999)" />
  <polygon
     class="cls-14"
     points="456.9,351.51 457.88,344.21 453.75,350.73 452.59,357.27 "
     id="polygon342"
     style="fill:#6c72ef;stroke:#6c72ef;stroke-width:3.03999996px;stroke-linecap:round;stroke-linejoin:round"
     transform="translate(-216.62407,-177.17999)" />
  <polygon
     class="cls-14"
     points="456.11,349.41 448.81,348.44 455.33,352.57 461.87,353.73 "
     id="polygon344"
     style="fill:#6c72ef;stroke:#6c72ef;stroke-width:3.03999996px;stroke-linecap:round;stroke-linejoin:round"
     transform="translate(-216.62407,-177.17999)" />
  <path
     class="cls-4"
     d="m 31.485926,209.20001 c 0,0 11.09,-6.15 17.72,-1.38 0,0 15.86,-35.79 55.160004,-18.13 39.3,17.66 -72.880004,42.63 -72.880004,42.63"
     id="path346"
     inkscape:connector-curvature="0"
     style="fill:#d8d8d8" />
  <path
     class="cls-3"
     d="m 126.37593,229.82001 c 2.54,-10.57 -2.2,-18.72 -11.44,-18.72 a 17.44,17.44 0 0 0 -3.27,0.33 c -1,-10.83 -9.47,-18.4 -22.420004,-18.4 -15.71,0 -32.69,11.13 -40.34,25.71 a 15.68,15.68 0 0 0 -7.78,-1.88 c -10.69,0 -22.35,8.42 -26,18.8 -3.58,10.09 1.67,18.32 11.76,18.79 v 0 h 84.780004 v -0.09 a 12.38,12.38 0 0 0 1.51,0.09 c 7.23,0 15.11,-5.69 17.61,-12.71 1.94,-5.48 0,-10.15 -4.41,-11.92 z"
     id="path348"
     inkscape:connector-curvature="0"
     style="fill:#ffffff" />
  <path
     class="cls-4"
     d="m 66.005926,236.90001 c 0,0 17,-25 28.41,-11.13 0,0 18.650004,-10.05 22.000004,6.28 0,0 -17.850004,-6.1 -27.320004,1.57 0.02,0 0.58,-12.04 -23.09,3.28 z"
     id="path350"
     inkscape:connector-curvature="0"
     style="fill:#d8d8d8" />
  <circle
     class="cls-15"
     cx="232.23592"
     cy="156.85001"
     r="3.1700001"
     id="circle352"
     style="fill:#ffffff;stroke:#ffffff;stroke-width:0.93000001px;stroke-miterlimit:10" />
  <path
     class="cls-16"
     d="m 349.45593,146.25001 c 0,0 11.91,-14.57 22.62,1.68"
     id="path354"
     inkscape:connector-curvature="0"
     style="fill:none;stroke:#45dfef;stroke-width:3.5px;stroke-linecap:round;stroke-linejoin:round" />
  <line
     class="cls-16"
     x1="342.91589"
     y1="149.27002"
     x2="377.13593"
     y2="149.27002"
     id="line356"
     style="fill:none;stroke:#45dfef;stroke-width:3.5px;stroke-linecap:round;stroke-linejoin:round" />
</svg>
