<?xml version="1.0" encoding="UTF-8" standalone="no"?>
<svg
   id="Layer_1"
   data-name="Layer 1"
   viewBox="0 0 365.08636 388.0126"
   version="1.1"
   sodipodi:docname="TOR.svg"
   width="365.08636"
   height="388.0126"
   inkscape:version="1.1.1 (3bf5ae0d25, 2021-09-20)"
   xmlns:inkscape="http://www.inkscape.org/namespaces/inkscape"
   xmlns:sodipodi="http://sodipodi.sourceforge.net/DTD/sodipodi-0.dtd"
   xmlns="http://www.w3.org/2000/svg"
   xmlns:svg="http://www.w3.org/2000/svg"
   xmlns:rdf="http://www.w3.org/1999/02/22-rdf-syntax-ns#"
   xmlns:cc="http://creativecommons.org/ns#"
   xmlns:dc="http://purl.org/dc/elements/1.1/">
  <metadata
     id="metadata400">
    <rdf:RDF>
      <cc:Work
         rdf:about="">
        <dc:format>image/svg+xml</dc:format>
        <dc:type
           rdf:resource="http://purl.org/dc/dcmitype/StillImage" />
        <dc:title />
      </cc:Work>
    </rdf:RDF>
  </metadata>
  <sodipodi:namedview
     pagecolor="#ffffff"
     bordercolor="#666666"
     borderopacity="1"
     objecttolerance="10"
     gridtolerance="10"
     guidetolerance="10"
     inkscape:pageopacity="0"
     inkscape:pageshadow="2"
     inkscape:window-width="1920"
     inkscape:window-height="1017"
     id="namedview398"
     showgrid="false"
     inkscape:zoom="2.2250293"
     inkscape:cx="280.67046"
     inkscape:cy="279.32216"
     inkscape:window-x="-8"
     inkscape:window-y="-8"
     inkscape:window-maximized="1"
     inkscape:current-layer="Layer_1"
     inkscape:pagecheckerboard="0"
     inkscape:snap-global="true"
     showguides="true"
     inkscape:guide-bbox="true">
    <sodipodi:guide
       position="210.3343,290.93523"
       orientation="1,0"
       id="guide29071" />
    <sodipodi:guide
       position="210.3343,185.76808"
       orientation="0,-1"
       id="guide29073" />
  </sodipodi:namedview>
  <defs
     id="defs4">
    <style
       id="style2">.cls-1{opacity:0.2;}.cls-2{fill:#a6a6a6;}.cls-19,.cls-3{fill:#fff;}.cls-4{fill:#871324;}.cls-10,.cls-11,.cls-12,.cls-13,.cls-14,.cls-15,.cls-16,.cls-17,.cls-19,.cls-20,.cls-21,.cls-22,.cls-23,.cls-5,.cls-7,.cls-8{stroke:#000;}.cls-10,.cls-11,.cls-12,.cls-13,.cls-14,.cls-15,.cls-16,.cls-17,.cls-19,.cls-20,.cls-21,.cls-22,.cls-23,.cls-24,.cls-5,.cls-7,.cls-8{stroke-linecap:round;stroke-linejoin:round;}.cls-5{stroke-width:9.6px;}.cls-6{fill:#828282;}.cls-7,.cls-8{stroke-width:8.72px;}.cls-10,.cls-11,.cls-22,.cls-7{fill-rule:evenodd;}.cls-11,.cls-13,.cls-9{fill:#a0a0a0;}.cls-10,.cls-14{fill:#c6c6c6;}.cls-10,.cls-11,.cls-13{stroke-width:5.79px;}.cls-12{fill:#595959;stroke-width:5.13px;}.cls-14{stroke-width:5.2px;}.cls-15,.cls-16,.cls-20{fill:#f4ba14;}.cls-15{stroke-width:3.76px;}.cls-16,.cls-17{stroke-width:7.51px;}.cls-17,.cls-21{fill:none;}.cls-18{fill:#c9c9c9;}.cls-19{stroke-width:10.73px;}.cls-20,.cls-21{stroke-width:7.15px;}.cls-22,.cls-23{stroke-width:6.06px;}.cls-24{stroke:#871324;stroke-width:6.94px;}</style>
    <clipPath
       clipPathUnits="userSpaceOnUse"
       id="clipPath21614">
      <path
         style="fill:#871324;fill-opacity:1"
         id="path21616"
         sodipodi:type="arc"
         sodipodi:cx="224.20551"
         sodipodi:cy="275.68857"
         sodipodi:rx="191.79025"
         sodipodi:ry="85.963982"
         sodipodi:start="0"
         sodipodi:end="6.2653655"
         sodipodi:arc-type="slice"
         d="M 415.99576,275.68857 A 191.79025,85.963982 0 0 1 225.05992,361.6517 191.79025,85.963982 0 0 1 32.422865,276.45449 191.79025,85.963982 0 0 1 221.64233,189.73226 191.79025,85.963982 0 0 1 415.96531,274.15679 l -191.7598,1.53178 z" />
    </clipPath>
  </defs>
  <path
     id="path28967"
     style="fill:#871324;fill-opacity:1;stroke-width:1.05383"
     d="M 209.07617,47.332031 A 153.89407,155.7122 0 0 0 55.181641,203.04467 153.89407,155.7122 0 0 0 157.8418,349.47523 v -0.29784 c 0.0949,2e-5 0.1883,0.002 0.2832,0.002 0.0223,-6.9e-4 0.14384,10e-4 0.24609,0.002 0.17258,-0.0252 0.34646,-0.0516 0.51758,-0.0274 0.0542,0.008 0.10045,0.0159 0.15039,0.0235 0.20426,-0.064 0.44529,-0.0961 0.67774,-0.094 0.53587,0.005 1.02929,0.18798 0.94726,0.56236 -0.005,0.0206 -0.0108,0.0403 -0.0156,0.0607 0.15961,0.0791 0.32337,0.16264 0.51562,0.25865 -0.0547,0.0858 -0.11209,0.17033 -0.16992,0.25474 0.0819,0.11793 0.20335,0.31042 0.38672,0.5898 a 153.89407,155.7122 0 0 0 0.26562,0.10189 l 0.1836,-0.26257 c 3.7e-4,-0.002 0.002,-0.004 0.002,-0.006 -0.18657,-0.13092 -0.38025,-0.25239 -0.56055,-0.39189 -0.29629,-0.22926 0.79576,-0.89298 0.56055,0.39189 0,0 0.002,0.002 0.002,0.002 l -0.004,0.004 c -0.013,0.0703 -0.0294,0.14504 -0.0508,0.2273 -0.007,0.0253 -0.013,0.0511 -0.0195,0.0765 a 153.89407,155.7122 0 0 0 47.3164,7.80267 A 153.89407,155.7122 0 0 0 362.9707,203.04467 153.89407,155.7122 0 0 0 209.07617,47.332031 Z M 160.99414,350.21984 c -0.13736,-0.19775 -0.19884,-0.22209 -0.35742,-0.23515 0.0828,0.098 0.17892,0.20966 0.28711,0.33704 0.0237,-0.0338 0.047,-0.0679 0.0703,-0.10189 z m -0.0703,0.10189 c -0.0585,0.0834 -0.11888,0.1665 -0.17969,0.24886 a 153.89407,155.7122 0 0 0 0.60156,0.22729 c -0.1655,-0.17889 -0.30359,-0.3369 -0.42187,-0.47615 z" />
  <path
     id="path21508"
     clip-path="url(#clipPath21614)"
     style="fill:#871324"
     class="cls-4"
     inkscape:transform-center-y="26.067072"
     d="m 154.52539,-0.30859375 -0.11523,0.0351563 a 12.06,12.06 0 0 0 -7.0918,2.6328125 c -0.11022,0.08516 -0.20924,0.1777846 -0.32617,0.2753906 l -0.37696,0.3417969 -0.39453,0.390625 c -0.0949,0.101454 -0.18292,0.1901615 -0.25195,0.2734375 -0.069,0.08328 -0.25647,0.2963386 -0.39453,0.4628906 l -0.23047,0.2773438 A 13,13 0 0 0 144.5,5.6757812 l -0.18164,0.3359376 c -0.11415,0.211589 -0.21117,0.4083811 -0.2793,0.5644531 l -0.13867,0.3027343 a 11.23,11.23 0 0 0 -0.52734,1.484375 l -0.10352,0.3535157 -0.0644,0.2695312 -0.0234,0.1328125 a 195.86,195.86 0 0 0 -54.892578,10.1562504 11.87,11.87 0 0 0 -7.722656,12.353515 11.61,11.61 0 0 0 0.28125,1.636719 c -2.224815,0.936909 -4.401047,1.932673 -6.52539,2.996094 l -0.556641,0.271484 c -0.436939,0.214207 -0.86152,0.434102 -1.279297,0.642578 -0.417777,0.208475 -0.625409,0.312843 -0.902344,0.46875 l -0.99414,0.515625 c -0.459949,0.241967 -0.900525,0.479963 -1.367188,0.734375 L 68.65625,39.199219 C 54.571981,46.898575 43.419155,56.476973 36.410156,66.892578 l -0.189453,0.275391 c -0.295362,0.44324 -0.580608,0.882572 -0.876953,1.357422 l -0.255859,0.40039 -0.730469,1.261719 -0.05859,0.113281 -0.201172,0.341797 c -0.341464,0.60316 -0.640773,1.139545 -0.919922,1.671875 a 11.87,11.87 0 0 0 2.783204,14.396485 c 0.384774,0.34416 0.785518,0.673288 1.189453,1.011718 l 0.373047,0.306641 0.876953,0.697265 0.02148,0.06836 0.351563,0.269531 1.15625,0.865235 0.375,0.273437 0.128906,0.08594 0.08203,0.06055 a 11.87,11.87 0 0 0 11.294922,15.919921 l 34.050781,-0.375 a 155.52,155.52 0 0 0 -33.296875,80.25 c -0.343447,3.10883 -0.597111,6.24288 -0.748047,9.36719 a 55.49,55.49 0 0 0 31.59375,101.53516 c 1.216141,1.58807 2.458728,3.15778 3.730469,4.6875 a 155.14,155.14 0 0 0 75.285155,49.38085 l -0.002,-1.53906 c 0.0551,-2e-5 0.11091,3e-5 0.16601,0 0.641,-1.5e-4 1.28283,-6e-5 1.92383,0 0.7743,-10e-4 1.54805,-0.008 2.32227,0.006 0.14118,0.001 0.28264,0.003 0.42383,0.004 0.0876,5.7e-4 0.30941,-0.0735 0.26171,0 -0.009,0.0139 -0.034,0.0217 -0.0547,0.0312 0.0867,-0.0183 0.1738,-0.0342 0.26172,-0.043 0.66368,-0.0665 0.69766,-0.0353 1.34179,0.0156 0.788,0.16051 0.6655,0.12924 0.65821,0.125 0.63006,-0.0243 0.65536,-0.0203 1.37695,-0.0156 0.39498,0.0246 0.7912,0.0411 1.18555,0.0742 0.91052,0.0765 -0.33514,0.0569 0.92773,0.12109 0.75863,0.0386 1.52199,-0.028 2.28125,-0.002 1.77508,10e-4 3.55111,0.0105 5.32617,0 0.36326,-0.002 0.72663,8.5e-4 1.08985,0 0.37146,-0.0717 0.741,-0.15631 1.11523,-0.21094 6.67028,-0.97429 -1.20239,0.22498 3.50586,-0.36914 0.56098,-0.0708 1.11576,-0.18254 1.67383,-0.27344 3.13402,-0.56248 6.25645,-1.18001 9.38086,-1.79297 0.45961,-0.0888 0.92547,-0.15128 1.3789,-0.26757 2.17988,-0.55906 0.63869,-0.26213 2.29492,-0.78321 1.57893,-0.49674 3.17593,-0.84551 4.78907,-1.20312 1.24302,-0.21119 2.4288,-0.64946 3.60742,-1.08203 0.22057,-0.081 0.436,-0.17765 0.66016,-0.24805 0.48174,-0.15125 0.96966,-0.27703 1.45507,-0.41602 1.10559,-0.20169 2.14916,-0.6291 3.18946,-1.03906 0.21373,-0.0842 0.4197,-0.19481 0.64062,-0.25781 0.59096,-0.16836 1.19395,-0.29036 1.79102,-0.43555 0.36737,-0.0498 0.73748,-0.0785 1.10156,-0.14844 0.31233,-0.06 1.1592,-0.32252 1.49609,-0.41992 0.90739,-0.26227 1.8131,-0.5081 2.71094,-0.80078 0.13256,-0.0473 0.26363,-0.10228 0.39844,-0.14258 0.73151,-0.21887 0.78757,-0.22725 1.49414,-0.33593 0.0758,-0.0117 0.15238,-0.0201 0.22851,-0.0293 0.54043,-0.16161 1.07769,-0.33616 1.63086,-0.44336 0.32242,-0.0625 0.6562,-0.009 0.98438,-0.0215 0.59212,-0.0226 0.19753,-0.0378 0.76367,-0.0645 0.36178,-0.0171 0.72395,-0.0233 1.08594,-0.0351 0.69446,0.0403 1.38125,-0.075 2.06836,-0.15235 l 0.74023,6.56641 c 0.21686,-0.009 0.17802,-0.007 0.4375,-0.0176 0.61884,-0.0258 1.23572,-0.0828 1.85352,-0.12695 0.58846,-0.10658 1.17617,-0.21799 1.76562,-0.31836 1.34308,-0.22869 1.86579,-0.25645 3.27735,-0.56446 0.41925,-0.0915 0.82787,-0.22225 1.24218,-0.33398 1.43641,-0.38169 2.87653,-0.75405 4.31055,-1.14453 0.13941,-0.0379 0.27441,-0.13154 0.41797,-0.11524 0.0577,0.007 -0.005,0.19307 0.0469,0.16797 0.19525,-0.094 0.32667,-0.28365 0.49024,-0.42578 0.42725,-0.36085 0.96703,-0.8546 1.44336,-1.17773 0.0174,-0.0118 -0.009,0.04 -0.0137,0.0605 0.0743,-0.0521 0.14835,-0.10415 0.22265,-0.15625 0.17937,-0.22335 0.31768,-0.47649 0.47657,-0.71484 l 4.25,2.83203 c 0.22961,-0.0312 0.45756,-0.0725 0.6875,-0.10156 0.68512,-0.0968 1.4045,-0.17251 2.08203,-0.33399 0.53747,-0.12808 1.06317,-0.30192 1.5957,-0.44921 0.29102,-0.0805 0.58368,-0.15879 0.875,-0.23829 l 1.17773,4.32227 2.15625,0.83008 a 155.14,155.14 0 0 0 44.4668,-24.95508 l 0.01,-0.002 A 154.93,154.93 0 0 0 280.23047,66.625 157.06,157.06 0 0 0 258.56641,57.009766 l -0.0547,-0.181641 -0.1211,-0.402344 -0.0762,-0.259765 -0.16601,-0.554688 -0.13282,-0.441406 -0.0996,-0.335938 -0.14258,-0.478515 -0.16992,-0.564453 -0.20313,-0.681641 -0.61328,-2.048828 -0.78906,-2.634766 -0.58594,-1.787109 -0.11719,-0.392578 c -0.18915,-0.632315 -0.43385,-1.239078 -0.66992,-1.888672 l -0.10938,-0.363281 -0.60156,-1.5625 -0.11523,-0.382813 c -0.22273,-0.570083 -0.46398,-1.134312 -0.69727,-1.669922 l -0.17773,-0.417968 -0.0312,-0.105469 -0.58985,-1.304688 -0.0371,-0.125 -0.10546,-0.355469 -0.69922,-1.429687 -0.34961,-0.677734 -0.50195,-0.945313 c -0.19704,-0.379456 -0.40388,-0.756951 -0.61719,-1.121094 l -0.39453,-0.695312 -0.51758,-0.888672 -0.20117,-0.326172 -0.0254,-0.08594 c -0.34055,-0.545273 -0.69198,-1.087227 -1.04883,-1.617188 l -0.19531,-0.306641 c -0.66875,-0.979427 -1.36116,-1.932771 -2.06446,-2.818359 l -0.12109,-0.160156 c -0.72148,-0.911464 -1.47638,-1.793704 -2.23242,-2.611328 l -0.39649,-0.423828 -0.45703,-0.478516 -0.72266,-0.703125 -0.23242,-0.222656 -0.63476,-0.582032 -0.44532,-0.410156 -0.57617,-0.49414 -0.75,-0.623047 -0.69531,-0.542969 -0.66016,-0.501953 -0.55664,-0.396485 -0.60547,-0.414062 -0.0898,-0.05664 -0.39062,-0.259765 -0.25977,-0.171875 c -0.42506,-0.269486 -0.85906,-0.535016 -1.28125,-0.794922 l -0.27734,-0.158203 C 233.73387,16.914476 233.35808,16.702722 233,16.517578 l -0.43945,-0.21289 -0.11328,-0.06055 -0.88868,-0.421875 -0.83007,-0.367188 -0.58008,-0.234375 c -0.36865,-0.15067 -0.73811,-0.300189 -1.12305,-0.435547 l -0.25586,-0.0918 A 35.59,35.59 0 0 0 211.59766,13.119141 C 185.68984,-0.7371741 157.69204,-0.39995375 154.52539,-0.30859375 Z M 224.67773,339.68164 c -0.0281,0.005 -0.0559,0.0107 -0.084,0.0156 -0.0539,0.0199 -0.21751,0.0736 -0.16211,0.0586 0.0826,-0.0223 0.1639,-0.0503 0.24609,-0.0742 z m -55.37304,10.01953 c -0.0579,0.005 -0.0972,0.0182 -0.10742,0.041 -0.0595,0.13276 0.28415,-0.0146 0.43359,-0.0234 -0.12463,-0.0136 -0.24105,-0.0254 -0.32617,-0.0176 z" />
  <path
     id="path174"
     style="fill:#871324"
     class="cls-4"
     d="M 205.0293,47.853516 A 154.93,154.93 0 0 0 100.53711,93.220703 157.06,157.06 0 0 0 85.117188,111.2207 h -0.189454 -0.419922 -0.269531 -0.580078 -0.460937 -0.34961 -0.5 -0.589844 -0.710937 -2.138672 -2.75 l -1.880859,0.0488 h -0.410156 c -0.66,0 -1.310001,0.0596 -2,0.0996 H 71.488281 L 69.818359,111.5 h -0.40039 c -0.61,0.05 -1.220782,0.11945 -1.800781,0.18945 l -0.449219,0.0508 h -0.109375 l -1.419922,0.18946 h -0.13086 -0.36914 l -1.570313,0.25976 -0.75,0.14063 -1.050781,0.20898 c -0.42,0.08 -0.84,0.17149 -1.25,0.27149 l -0.779297,0.17968 -1,0.24024 -0.371093,0.0996 h -0.08984 c -0.62,0.17 -1.23961,0.34906 -1.84961,0.53906 l -0.349609,0.10156 c -1.13,0.36 -2.241016,0.74992 -3.291016,1.16992 l -0.189453,0.0703 c -1.08,0.43 -2.140625,0.89867 -3.140625,1.38867 l -0.519531,0.25977 -0.589844,0.30078 -0.880859,0.49023 -0.279297,0.16016 -0.740234,0.43945 -0.519532,0.31055 -0.640625,0.41015 -0.808593,0.53907 -0.720704,0.50976 -0.669921,0.49024 -0.541016,0.41992 -0.568359,0.46093 -0.08008,0.0703 -0.361329,0.29883 -0.240234,0.20117 c -0.38,0.33 -0.758906,0.67 -1.128906,1 l -0.230469,0.21875 c -0.35,0.34 -0.659453,0.63968 -0.939453,0.92969 l -0.330078,0.36132 -0.08984,0.0899 -0.660156,0.72851 -0.589844,0.69141 -0.390625,0.49023 c -0.25,0.31 -0.500234,0.61922 -0.740234,0.94922 l -0.160157,0.2207 a 35.59,35.59 0 0 0 -6.429687,16 C 8.9072872,164.49019 1.2086719,191.4107 0.38867188,194.4707 v 0.11914 a 12.06,12.06 0 0 0 0.48828124,7.55078 c 0.05,0.13 0.10992189,0.24868 0.16992188,0.38868 l 0.2207031,0.46093 0.2597657,0.49024 c 0.07,0.12 0.1294531,0.23031 0.1894531,0.32031 0.06,0.09 0.2100781,0.32977 0.3300781,0.50977 l 0.2011719,0.29883 a 13,13 0 0 0 1,1.17968 l 0.2695312,0.27149 c 0.17,0.17 0.3309375,0.31968 0.4609375,0.42968 l 0.25,0.22071 a 11.23,11.23 0 0 0 1.2695313,0.92968 l 0.3105469,0.19922 0.2382812,0.14063 0.1210938,0.0586 a 195.86,195.86 0 0 0 -6.00000005,55.5 11.87,11.87 0 0 0 9.61914065,10.94141 11.61,11.61 0 0 0 1.6503906,0.19922 c 0.26,2.4 0.59,4.76937 1,7.10937 l 0.09961,0.61133 c 0.08,0.48 0.17,0.95016 0.25,1.41016 0.08,0.46 0.121407,0.69 0.191407,1 l 0.208984,1.09961 c 0.1,0.51 0.200547,0.99953 0.310547,1.51953 l 0.128906,0.63086 c 3.34,15.7 9.321016,29.13007 17.291016,38.83007 l 0.208984,0.25977 c 0.34,0.41 0.680781,0.81047 1.050781,1.23047 l 0.310547,0.35937 1,1.06055 0.08984,0.0898 0.269531,0.28907 c 0.48,0.5 0.909844,0.93937 1.339844,1.35937 A 11.87,11.87 0 0 0 49.777344,333 c 0.44,-0.27 0.870547,-0.55961 1.310547,-0.84961 l 0.40039,-0.26953 0.919922,-0.64063 h 0.07031 l 0.359375,-0.25976 1.160156,-0.86133 0.369141,-0.2793 0.121093,-0.0996 0.08008,-0.0605 a 11.87,11.87 0 0 0 18.490235,-6.25977 l 9.398437,-32.73047 a 155.52,155.52 0 0 0 67.339849,54.90039 c 1.72748,0.73181 3.49651,1.37454 5.25585,2.03907 l -0.38085,-1.14063 c 1.12047,-0.3735 0.95965,-0.36136 2.41015,-0.58203 0.32675,-0.0497 0.6559,-0.0809 0.98633,-0.0879 0.34077,-0.008 0.57199,-0.009 0.74414,-0.006 0.51645,0.01 0.5023,0.0642 1.32812,0.13086 0.23495,0.019 0.47158,0.0223 0.70704,0.0332 1.14105,0.005 2.27509,0.19547 3.39257,0.41016 0.87195,0.16771 0.27963,0.0855 1.03907,0.17187 1.01926,0.0585 1.98599,0.42318 2.89843,0.85352 0.61476,0.28993 0.35453,0.37198 0.64649,0.24805 0.0537,0.004 0.10695,0.004 0.16016,0.0117 0.30654,0.0448 0.6113,0.11009 0.91796,0.15429 0.22906,0.033 0.46266,0.0341 0.68946,0.0801 0.28981,0.0588 0.57533,0.13572 0.86328,0.20313 0.0489,0.0177 0.0977,0.0348 0.14648,0.0527 0.002,4.6e-4 0.0139,0.002 0.0156,0.002 0.12331,0.0309 0.47768,0.17401 0.35742,0.13282 -0.12533,-0.043 -0.24868,-0.0891 -0.37305,-0.13477 -0.11973,-0.0236 -1.06413,-0.0928 -0.88281,0.0742 0.6477,0.59657 1.36628,1.10595 2.09375,1.60547 -0.0173,0.0111 -0.1467,0.0246 0.40625,0.0527 0.75863,0.0386 1.52199,-0.0279 2.28125,-0.002 1.77508,10e-4 3.55111,0.0105 5.32617,0 0.36326,-0.002 0.72663,8.5e-4 1.08985,0 0.37146,-0.0717 0.741,-0.15631 1.11523,-0.21094 6.67028,-0.97429 -1.20239,0.22498 3.50586,-0.36914 0.56098,-0.0708 1.11576,-0.18254 1.67383,-0.27344 3.13402,-0.56248 6.25645,-1.18001 9.38086,-1.79297 0.45961,-0.0888 0.92547,-0.15128 1.3789,-0.26757 2.17988,-0.55906 0.63869,-0.26213 2.29492,-0.78321 1.57894,-0.49674 3.17593,-0.84551 4.78907,-1.20312 1.24302,-0.21119 2.4288,-0.64946 3.60742,-1.08203 0.22057,-0.081 0.436,-0.17765 0.66016,-0.24805 0.48174,-0.15125 0.96966,-0.27703 1.45507,-0.41602 1.10559,-0.20169 2.14916,-0.6291 3.18946,-1.03906 0.21373,-0.0842 0.4197,-0.19481 0.64062,-0.25781 0.59096,-0.16836 1.19395,-0.29036 1.79102,-0.43555 0.36737,-0.0498 0.73748,-0.0785 1.10156,-0.14844 0.31233,-0.06 1.1592,-0.32252 1.49609,-0.41992 0.90739,-0.26227 1.8131,-0.5081 2.71094,-0.80078 0.13256,-0.0473 0.26363,-0.10228 0.39844,-0.14258 0.73151,-0.21887 0.78757,-0.22725 1.49414,-0.33593 0.0758,-0.0117 0.15241,-0.0201 0.22851,-0.0293 0.54043,-0.16161 1.07769,-0.33616 1.63086,-0.44336 0.32242,-0.0625 0.6562,-0.009 0.98438,-0.0215 0.59212,-0.0226 0.19753,-0.0378 0.76367,-0.0645 0.36178,-0.0171 0.72395,-0.0233 1.08594,-0.0351 0.69446,0.0403 1.38125,-0.075 2.06836,-0.15235 l 0.74023,6.56641 c 0.21686,-0.009 0.17802,-0.007 0.4375,-0.0176 0.61884,-0.0258 1.23572,-0.0828 1.85352,-0.12695 0.58846,-0.10658 1.17617,-0.21799 1.76562,-0.31836 1.34308,-0.22869 1.86579,-0.25645 3.27735,-0.56446 0.41925,-0.0915 0.82787,-0.22225 1.24218,-0.33398 1.43641,-0.38169 2.87653,-0.75405 4.31055,-1.14453 0.13941,-0.0379 0.27441,-0.13154 0.41797,-0.11524 0.0577,0.007 -0.005,0.19307 0.0469,0.16797 0.19525,-0.094 0.32667,-0.28365 0.49024,-0.42578 0.42725,-0.36085 0.96703,-0.8546 1.44336,-1.17773 0.0174,-0.0118 -0.009,0.04 -0.0137,0.0605 0.0743,-0.0521 0.14835,-0.10415 0.22265,-0.15625 0.17937,-0.22335 0.31768,-0.47649 0.47657,-0.71484 l 4.25,2.83203 c 0.22961,-0.0312 0.45756,-0.0725 0.6875,-0.10156 0.68512,-0.0968 1.4045,-0.17251 2.08203,-0.33399 0.53747,-0.12808 1.06317,-0.30192 1.5957,-0.44921 0.29102,-0.0805 0.58368,-0.15876 0.875,-0.23829 l 0.53906,1.97852 c 0.78513,-0.28258 1.5676,-0.57436 2.33789,-0.89648 1.97697,-0.79801 3.93247,-1.62972 5.95899,-2.30078 0.67376,-0.22312 1.35983,-0.40325 2.04297,-0.59571 3.03377,-0.8547 2.34074,-0.66748 4.84375,-1.26562 0.94105,-0.20912 1.8788,-0.42899 2.82226,-0.62696 0.61504,-0.12906 1.23484,-0.23276 1.85156,-0.35351 0.10056,-0.0197 0.20201,-0.041 0.30274,-0.0606 l -0.75977,-1.04492 c 0.75992,-0.55268 0.73085,-0.57161 1.73438,-1.06445 0.24395,-0.1198 0.49513,-0.23499 0.75781,-0.30469 1.27758,-0.3392 2.42838,-0.36872 3.73438,-0.41602 1.25212,-0.0126 2.50162,-0.0861 3.75,-0.17578 0.43991,-0.26878 0.86067,-0.56619 1.24414,-0.91797 l 0.63281,0.77344 c 0.0227,-0.003 0.0457,-0.004 0.0684,-0.008 0.30244,-0.0478 0.60016,-0.11949 0.90039,-0.17969 0.57947,-0.15032 1.16391,-0.32259 1.7168,-0.5625 a 155.14,155.14 0 0 0 1.38281,-0.87695 c 8.5e-4,-8.6e-4 9.5e-4,-0.003 0.002,-0.004 0.0318,-0.0338 0.063,-0.10064 0.0957,-0.12109 0.43403,-0.27118 0.86953,-0.53945 1.30469,-0.8086 A 155.14,155.14 0 0 0 352.9082,142.48047 v -0.01 A 154.93,154.93 0 0 0 205.0293,47.853516 Z m 19.64843,291.828124 c -0.0281,0.005 -0.0559,0.0107 -0.084,0.0156 -0.0539,0.0199 -0.21751,0.0736 -0.16211,0.0586 0.0826,-0.0223 0.1639,-0.0503 0.24609,-0.0742 z" />
  <path
     style="fill:#000000;fill-opacity:1"
     id="path30313"
     sodipodi:type="arc"
     sodipodi:cx="208.74934"
     sodipodi:cy="204.88646"
     sodipodi:rx="149.0872"
     sodipodi:ry="146.12015"
     sodipodi:start="0"
     sodipodi:end="6.2651037"
     sodipodi:arc-type="slice"
     d="M 357.83655,204.88646 A 149.0872,146.12015 0 0 1 209.42328,351.00511 149.0872,146.12015 0 0 1 59.668233,206.20749 149.0872,146.12015 0 0 1 206.7276,58.779748 149.0872,146.12015 0 0 1 357.81218,202.24452 l -149.06284,2.64194 z" />
  <path
     class="cls-4"
     d="M 41.527712,121.77 Z"
     id="path176"
     inkscape:connector-curvature="0"
     style="fill:#871324" />
  <rect
     class="cls-4"
     x="128.74773"
     y="46.089996"
     width="22.209999"
     height="26.629999"
     id="rect178"
     style="fill:#871324" />
  <rect
     class="cls-4"
     x="128.74773"
     y="53.309998"
     width="41.009998"
     height="19.42"
     id="rect180"
     style="fill:#871324" />
  <rect
     class="cls-4"
     x="104.08772"
     y="67.009995"
     width="19.4"
     height="22.370001"
     id="rect182"
     style="fill:#871324" />
  <polygon
     class="cls-4"
     points="444.32,238.48 458.74,238.48 458.74,202.01 444.32,198.2 "
     id="polygon184"
     style="fill:#871324"
     transform="translate(-286.76229,-174)" />
  <rect
     class="cls-4"
     x="244.73772"
     y="39.339996"
     width="14.42"
     height="36.470001"
     id="rect186"
     style="fill:#871324" />
  <rect
     class="cls-4"
     x="282.18771"
     y="54.490005"
     width="26.17"
     height="36.470001"
     id="rect188"
     style="fill:#871324" />
  <rect
     class="cls-4"
     x="-324.95773"
     y="-98.579987"
     width="9.75"
     height="16.450001"
     transform="scale(-1)"
     id="rect190"
     style="fill:#871324" />
  <rect
     class="cls-4"
     x="282.18771"
     y="49.380005"
     width="18.360001"
     height="5.1100001"
     id="rect192"
     style="fill:#871324" />
  <polygon
     class="cls-4"
     points="553.64,198.25 553.64,250.44 571.48,250.44 571.48,198.25 562.56,190.63 "
     id="polygon194"
     style="fill:#871324"
     transform="translate(-286.76229,-174)" />
  <path
     id="circle196"
     style="stroke:#000000;stroke-width:9.6px;stroke-linecap:round;stroke-linejoin:round"
     class="cls-5"
     d="M 216.82227,60.296875 A 142.66,142.66 0 0 0 83.277344,137.50391 142.66,142.66 0 0 0 144.82031,329.63867 142.66,142.66 0 0 0 204.8457,345.26758 c 0.40285,-0.0911 0.80408,-0.18563 1.20899,-0.27539 1.24302,-0.21119 2.4288,-0.64946 3.60742,-1.08203 0.22057,-0.081 0.436,-0.17765 0.66016,-0.24805 0.48174,-0.15125 0.96966,-0.27703 1.45507,-0.41602 1.10559,-0.20169 2.14916,-0.6291 3.18946,-1.03906 0.21373,-0.0842 0.4197,-0.19481 0.64062,-0.25781 0.59096,-0.16836 1.19395,-0.29036 1.79102,-0.43555 0.36737,-0.0498 0.73748,-0.0785 1.10156,-0.14844 0.31233,-0.06 1.1592,-0.32252 1.49609,-0.41992 0.90739,-0.26227 1.8131,-0.5081 2.71094,-0.80078 0.13256,-0.0473 0.26363,-0.10228 0.39844,-0.14258 0.73151,-0.21887 0.78757,-0.22725 1.49414,-0.33593 0.0758,-0.0117 0.15238,-0.0201 0.22851,-0.0293 0.54043,-0.16161 1.07769,-0.33616 1.63086,-0.44336 0.32242,-0.0625 0.6562,-0.009 0.98438,-0.0215 0.59212,-0.0226 0.19753,-0.0378 0.76367,-0.0645 0.36178,-0.0171 0.72395,-0.0233 1.08594,-0.0351 0.69446,0.0403 1.38125,-0.075 2.06836,-0.15235 l 0.50781,4.51563 A 142.66,142.66 0 0 0 336.95703,268.0957 142.66,142.66 0 0 0 275.41406,75.960938 142.66,142.66 0 0 0 216.82227,60.296875 Z m 7.85546,279.384765 c -0.0281,0.005 -0.0559,0.0107 -0.084,0.0156 -0.0539,0.0199 -0.21751,0.0736 -0.16211,0.0586 0.0826,-0.0223 0.1639,-0.0503 0.24609,-0.0742 z" />
  <path
     class="cls-3"
     d="m 144.51771,276 -9.52,9.77 3.93,3.83 -5.17,5.3 -14,-13.63 5.17,-5.3 3.93,3.83 9.52,-9.76 z"
     id="path198"
     inkscape:connector-curvature="0"
     style="fill:#ffffff" />
  <path
     class="cls-3"
     d="m 124.02771,248.79 c 3.26,6.15 1.93,11.62 -4.55,15.06 -6.06,3.22 -11.87,1.47 -15.14,-4.69 -3.27,-6.16 -1.94,-11.62 4.54,-15.06 6.07,-3.22 11.88,-1.47 15.15,4.69 z m -10.92,3.13 c -1.87,1 -3,2.28 -2.2,3.83 0.8,1.55 2.47,1.28 4.29,0.32 1.82,-0.96 3.07,-2.32 2.25,-3.87 -0.82,-1.55 -2.53,-1.2 -4.34,-0.28 z"
     id="path200"
     inkscape:connector-curvature="0"
     style="fill:#ffffff" />
  <path
     class="cls-3"
     d="m 113.03771,217.67 -5.12,3.33 0.16,0.76 5.51,-0.95 1.46,8.42 -20.729998,3.59 -2,-11.47 c -1,-5.71 1.31,-9 5.82,-9.79 a 6.72,6.72 0 0 1 6.489998,2.15 l 6.8,-5.28 z m -11,3.55 c -0.29,-1.11 -0.9,-1.49 -2.129998,-1.27 -1.23,0.22 -1.52,0.91 -1.28,2.27 l 0.23,1.29 3.509998,-0.61 z"
     id="path202"
     inkscape:connector-curvature="0"
     style="fill:#ffffff" />
  <path
     class="cls-3"
     d="m 113.53771,188.56 c -1,6.89 -5.34,10.5 -12.59,9.43 -6.789998,-1 -10.429998,-5.87 -9.409998,-12.76 1.02,-6.89 5.34,-10.51 12.599998,-9.43 6.79,1.01 10.42,5.87 9.4,12.76 z m -10.64,-4 c -2.1,-0.31 -3.789998,0 -3.999998,1.78 -0.21,1.78 1.229998,2.5 3.259998,2.8 2.03,0.3 3.85,0 4.11,-1.77 0.26,-1.77 -1.34,-2.47 -3.37,-2.77 z"
     id="path204"
     inkscape:connector-curvature="0"
     style="fill:#ffffff" />
  <path
     class="cls-3"
     d="m 123.52771,157 h -6.91 a 3.55,3.55 0 0 1 -1.7,-0.38 l -0.15,0.3 6.79,3.49 -3.7,7.21 -18.719998,-9.61 4.259998,-8.29 h 6.91 a 3.55,3.55 0 0 1 1.7,0.38 l 0.15,-0.3 -7,-3.58 3.7,-7.22 18.9,9.7 z"
     id="path206"
     inkscape:connector-curvature="0"
     style="fill:#ffffff" />
  <path
     class="cls-3"
     d="m 137.50771,136.52 -9.68,-9.6 -3.86,3.89 -5.26,-5.21 13.75,-13.86 5.26,5.22 -3.86,3.89 9.67,9.6 z"
     id="path208"
     inkscape:connector-curvature="0"
     style="fill:#ffffff" />
  <path
     class="cls-3"
     d="m 164.89771,116.3 c -6.18,3.21 -11.64,1.84 -15,-4.68 -3.17,-6.09 -1.36,-11.88 4.82,-15.09 6.18,-3.21 11.64,-1.84 15,4.67 3.17,6.09 1.37,11.89 -4.82,15.1 z m -3,-10.94 c -1,-1.89 -2.26,-3 -3.81,-2.23 -1.55,0.77 -1.3,2.46 -0.36,4.28 0.94,1.82 2.3,3.09 3.85,2.29 1.55,-0.8 1.24,-2.52 0.29,-4.34 z"
     id="path210"
     inkscape:connector-curvature="0"
     style="fill:#ffffff" />
  <path
     class="cls-3"
     d="m 257.74771,116.92 0.5,-6.1 -0.7,-0.34 -2.62,4.93 -7.55,-4 9.86,-18.58 10.28,5.46 c 5.11,2.72 6.31,6.56 4.16,10.61 a 6.74,6.74 0 0 1 -5.68,3.8 v 8.61 z m 3.93,-10.84 c 1.06,0.45 1.73,0.2 2.31,-0.9 0.58,-1.1 0.21,-1.76 -1,-2.41 l -1.15,-0.61 -1.68,3.15 z"
     id="path212"
     inkscape:connector-curvature="0"
     style="fill:#ffffff" />
  <path
     class="cls-3"
     d="m 280.80771,134.52 1,-1.54 -3.47,-3.38 -1.51,1.07 -6.8,-6.67 19.21,-10.61 8.49,8.28 -10.14,19.5 z m 7.53,-11.14 a 10.86,10.86 0 0 1 1.19,-1.52 l -0.24,-0.23 a 10.5,10.5 0 0 1 -1.48,1.23 l -4.4,2.91 2.12,2.07 z"
     id="path214"
     inkscape:connector-curvature="0"
     style="fill:#ffffff" />
  <path
     class="cls-3"
     d="m 299.52771,160.29 a 24,24 0 0 1 -4.19,-5.19 c -3.78,-6.36 -2.85,-12.17 3.4,-15.88 5.88,-3.5 11.91,-1.91 15.86,4.74 a 20.42,20.42 0 0 1 2.41,5.89 l -7,2.37 a 11.85,11.85 0 0 0 -1.52,-4.07 3.43,3.43 0 0 0 -5.08,-1.37 c -2,1.18 -2.62,3 -1.31,5.17 a 11.16,11.16 0 0 0 2.82,3.3 z"
     id="path216"
     inkscape:connector-curvature="0"
     style="fill:#ffffff" />
  <path
     class="cls-3"
     d="m 307.04771,182.82 a 23.83,23.83 0 0 1 -2.83,-6 c -2.17,-7.09 0.11,-12.51 7.07,-14.63 6.53,-2 12,1 14.28,8.37 a 20.84,20.84 0 0 1 0.95,6.3 l -7.38,0.63 a 11.91,11.91 0 0 0 -0.51,-4.31 3.7231304,3.7231304 0 1 0 -7.12,2.18 11.64,11.64 0 0 0 2,3.87 z"
     id="path218"
     inkscape:connector-curvature="0"
     style="fill:#ffffff" />
  <path
     class="cls-3"
     d="m 307.67771,199.1 c -0.27,-7 3.29,-11.31 10.63,-11.6 6.86,-0.27 11.33,3.83 11.61,10.79 0.28,6.96 -3.29,11.32 -10.63,11.61 -6.86,0.27 -11.33,-3.83 -11.61,-10.8 z m 11.19,1.9 c 2.12,-0.08 3.71,-0.75 3.64,-2.5 -0.07,-1.75 -1.67,-2.23 -3.72,-2.15 -2.05,0.08 -3.77,0.76 -3.71,2.51 0.06,1.75 1.74,2.24 3.79,2.14 z"
     id="path220"
     inkscape:connector-curvature="0"
     style="fill:#ffffff" />
  <path
     class="cls-3"
     d="m 304.65771,227.2 c 1.75,-6.75 6.43,-9.88 13.53,-8 6.65,1.72 9.74,6.95 8,13.69 -1.74,6.74 -6.43,9.88 -13.53,8 -6.66,-1.73 -9.75,-6.95 -8,-13.69 z m 10.16,5.07 c 2,0.54 3.77,0.36 4.21,-1.34 0.44,-1.7 -1,-2.61 -2.94,-3.13 -1.94,-0.52 -3.84,-0.37 -4.28,1.33 -0.44,1.7 1.02,2.63 3.01,3.14 z"
     id="path222"
     inkscape:connector-curvature="0"
     style="fill:#ffffff" />
  <path
     class="cls-3"
     d="m 293.45771,254.37 6.9,0.48 a 3.58,3.58 0 0 1 1.66,0.49 l 0.18,-0.29 -6.56,-3.93 4.17,-7 18,10.82 -4.79,8 -6.9,-0.48 a 3.62,3.62 0 0 1 -1.67,-0.49 l -0.17,0.29 6.73,4 -4.17,7 -18.22,-10.91 z"
     id="path224"
     inkscape:connector-curvature="0"
     style="fill:#ffffff" />
  <path
     class="cls-3"
     d="m 289.57771,274.09 a 17,17 0 0 0 -6.83,3.76 c -0.44,0.42 -0.54,0.85 -0.33,1.07 0.21,0.22 0.61,0.15 1,-0.08 4.45,-2.84 8.26,-4.06 11.38,-0.8 3.12,3.26 2.32,7.46 -1.65,11.25 -2.83,2.7 -5.61,4.7 -8.08,5.52 l -4,-5.76 a 17.81,17.81 0 0 0 6.45,-3.77 c 0.43,-0.42 0.49,-0.8 0.3,-1 -0.19,-0.2 -0.61,-0.16 -1.05,0.12 -4.88,3.31 -8.16,4.07 -11.14,1 -3.44,-3.6 -2.43,-7.77 2,-12 2.24,-2.13 5.1,-4.26 7.95,-5 z"
     id="path226"
     inkscape:connector-curvature="0"
     style="fill:#ffffff" />
  <path
     class="cls-6"
     d="m 80.737712,122.84 c -31.6,-0.86 -39.18,13.35 -39.64,26.22 -21.51,19.58 -29.18,48.48 -29.18,48.48 a 19.65,19.65 0 0 1 11.89,-5 c -14.0000005,33.94 -11.76,70.21 -11.76,70.21 a 11.16,11.16 0 0 1 10.35,-6.67 c -0.25,29.05 7.89,54 21.07,66.93 18.32,-11.5 33.4,-40.69 37.22,-76.14 1.78,-16.59 0.3,-33.57 -2.35,-50.38 -1,-6.2 -2.12,-12.38 -3.31,-18.51 -0.31,-1.63 -1,-5 -2,-8.63 20.88,-18.22 45.649998,-45.48 7.71,-46.51 z"
     id="path228"
     inkscape:connector-curvature="0"
     style="fill:#828282" />
  <path
     d="m 43.467712,327.35 a 4.37,4.37 0 0 1 -3.06,-1.25 c -13.33,-13.06 -21.51,-36.81 -22.31,-64.28 a 7.19,7.19 0 0 0 -2.1,2.75 4.36,4.36 0 0 1 -8.3000005,-1.59 c -0.09,-1.39 -1.8,-31.94 8.8900005,-63.6 a 11.46,11.46 0 0 0 -1.67,1.33 4.36,4.36 0 0 1 -7.2100005,-4.29 c 0.32,-1.21 7.9400005,-29.22 29.1400005,-49.37 0.68,-8.13 3.89,-14.71 9.55,-19.56 7.47,-6.4 19.06,-9.43 34.45,-9 v 0 c 13.23,0.36 20.839998,3.81 23.259998,10.56 2.12,5.91 -0.33,13.27 -7.499998,22.49 a 150.92,150.92 0 0 1 -18.69,19.27 c 0.7,2.73 1.15,5.05 1.4,6.32 1.41,7.27 2.47,13.21 3.33,18.67 3.21,20.37 4,36.74 2.37,51.51 -3.78,35.69 -19.23,66.81 -39.24,79.37 a 4.3,4.3 0 0 1 -2.31,0.67 z m -21.07,-75.66 a 4.37,4.37 0 0 1 4.36,4.4 c -0.22,25.35 6.36,48.32 17.32,61.17 7.31,-5.53 14,-14.2 19.53,-25.31 6.55,-13.18 10.95,-28.94 12.74,-45.58 1.51,-14 0.77,-29.63 -2.32,-49.23 -0.84,-5.35 -1.89,-11.19 -3.28,-18.36 -0.3,-1.54 -0.92,-4.75 -1.94,-8.24 a 4.36,4.36 0 0 1 1.32,-4.51 c 27.55,-24 26.3,-32.56 25.77,-34 -1,-2.81 -6.58,-4.56 -15.28,-4.79 -13.16,-0.36 -22.77,2 -28.54,6.91 -4.16,3.57 -6.39,8.65 -6.62,15.1 a 4.33,4.33 0 0 1 -1.42,3.07 c -12.68,11.54 -20.39,26.69 -24.4,36.48 a 28.08,28.08 0 0 1 3.78,-0.59 4.36,4.36 0 0 1 4.42,6 c -9.19,22.31 -11.16,45.93 -11.49,58.71 a 16.57,16.57 0 0 1 6,-1.19 z"
     id="path230"
     inkscape:connector-curvature="0" />
  <path
     class="cls-7"
     d="m 23.377712,274.22 c 2.52,21.1 9.75,38.64 20.09,48.76 a 55,55 0 0 0 12.77,-11.44 v 0 l 5.45,8.58 10.89,-37.9 c -18.18,-11.22 -37.92,-10.07 -49.2,-8 z"
     id="path232"
     inkscape:connector-curvature="0"
     style="fill-rule:evenodd;stroke:#000000;stroke-width:8.72000027px;stroke-linecap:round;stroke-linejoin:round" />
  <path
     class="cls-8"
     d="m 81.457712,230.77 a 228.88,228.88 0 0 0 -3.12,-34.31 c -0.26,-1.61 -0.52,-3.22 -0.8,-4.83 a 266.09,266.09 0 0 0 -61.45,-5.73 99.76,99.76 0 0 0 -4.17,11.64 19.65,19.65 0 0 1 11.89,-5 152.08,152.08 0 0 0 -8.57,29.26 c 18.47,-1.8 49,-2.56 66.22,8.97 z"
     id="path234"
     inkscape:connector-curvature="0"
     style="stroke:#000000;stroke-width:8.72000027px;stroke-linecap:round;stroke-linejoin:round" />
  <path
     class="cls-8"
     d="m 88.047712,154.87 c 14.219998,-15.5 21.359998,-31.26 -7.31,-32 -24.27,-0.66 -34.37,7.57 -38,17.25 12.5,0.23 30.09,3.08 45.31,14.75 z"
     id="path236"
     inkscape:connector-curvature="0"
     style="stroke:#000000;stroke-width:8.72000027px;stroke-linecap:round;stroke-linejoin:round" />
  <path
     class="cls-10"
     d="m 161.96771,184.36 6.18,113 c 0,4.25 19,7.7 42.55,7.7 23.55,0 42.56,-3.45 42.56,-7.7 l 6.18,-113 z"
     id="path244"
     inkscape:connector-curvature="0"
     style="fill:#c6c6c6;fill-rule:evenodd;stroke:#000000;stroke-width:5.78999996px;stroke-linecap:round;stroke-linejoin:round" />
  <path
     class="cls-11"
     d="m 161.96771,180.5 6.18,113 c 0,4.26 19,7.7 42.55,7.7 23.55,0 42.56,-3.44 42.56,-7.7 l 6.18,-113 z"
     id="path246"
     inkscape:connector-curvature="0"
     style="fill:#a0a0a0;fill-rule:evenodd;stroke:#000000;stroke-width:5.78999996px;stroke-linecap:round;stroke-linejoin:round" />
  <rect
     class="cls-12"
     x="195.66771"
     y="193.57999"
     width="9.6800003"
     height="89.379997"
     rx="3.9200001"
     id="rect248"
     style="fill:#595959;stroke:#000000;stroke-width:5.13000011px;stroke-linecap:round;stroke-linejoin:round" />
  <rect
     class="cls-12"
     x="215.12773"
     y="193.57999"
     width="9.6800003"
     height="89.379997"
     rx="3.9200001"
     id="rect250"
     style="fill:#595959;stroke:#000000;stroke-width:5.13000011px;stroke-linecap:round;stroke-linejoin:round" />
  <rect
     class="cls-12"
     x="176.21773"
     y="193.57999"
     width="9.2299995"
     height="85.239998"
     rx="3.73"
     id="rect252"
     style="fill:#595959;stroke:#000000;stroke-width:5.13000011px;stroke-linecap:round;stroke-linejoin:round" />
  <rect
     class="cls-12"
     x="234.57774"
     y="193.57999"
     width="9.2299995"
     height="85.239998"
     rx="3.73"
     id="rect254"
     style="fill:#595959;stroke:#000000;stroke-width:5.13000011px;stroke-linecap:round;stroke-linejoin:round" />
  <path
     class="cls-11"
     d="m 224.78771,132.13 h -26.37 a 8.72,8.72 0 0 0 -8.69,8.7 v 7.85 a 8.72,8.72 0 0 0 8.69,8.7 h 4.82 v -14.16 h 16.65 v 14.16 h 4.86 a 8.73,8.73 0 0 0 8.7,-8.7 v -7.85 a 8.73,8.73 0 0 0 -8.66,-8.7 z"
     id="path256"
     inkscape:connector-curvature="0"
     style="fill:#a0a0a0;fill-rule:evenodd;stroke:#000000;stroke-width:5.78999996px;stroke-linecap:round;stroke-linejoin:round" />
  <path
     class="cls-11"
     d="m 144.15771,201.21 v 19.22 a 9.07,9.07 0 0 0 9,9 h 13.22 a 9.07,9.07 0 0 0 9,-9 v -7 h -19.69 v -11.07 h 7.31 v -1.15 c 0,-5 -1.34,-9 -6.32,-9 h -3.44 a 9.07,9.07 0 0 0 -9.08,9 z"
     id="path258"
     inkscape:connector-curvature="0"
     style="fill:#a0a0a0;fill-rule:evenodd;stroke:#000000;stroke-width:5.78999996px;stroke-linecap:round;stroke-linejoin:round" />
  <rect
     class="cls-13"
     x="157.93773"
     y="180.97"
     width="106.85"
     height="12.35"
     rx="4.25"
     id="rect260"
     style="fill:#a0a0a0;stroke:#000000;stroke-width:5.78999996px;stroke-linecap:round;stroke-linejoin:round" />
  <rect
     x="163.55772"
     y="218.81"
     width="5.1500001"
     height="5.1500001"
     rx="2.5799999"
     id="rect262" />
  <path
     class="cls-11"
     d="m 277.07771,201.21 v 19.22 a 9.07,9.07 0 0 1 -9,9 h -13.26 a 9.07,9.07 0 0 1 -9,-9 v -7 h 19.77 v -11.07 h -7.35 v -1.15 c 0,-5 1.34,-9 6.32,-9 h 3.48 a 9.07,9.07 0 0 1 9.04,9 z"
     id="path264"
     inkscape:connector-curvature="0"
     style="fill:#a0a0a0;fill-rule:evenodd;stroke:#000000;stroke-width:5.78999996px;stroke-linecap:round;stroke-linejoin:round" />
  <rect
     x="-257.67773"
     y="-223.97"
     width="5.1500001"
     height="5.1500001"
     rx="2.5799999"
     transform="scale(-1)"
     id="rect266" />
  <line
     class="cls-14"
     x1="203.27773"
     y1="143.22"
     x2="197.68773"
     y2="143.22"
     id="line268"
     style="fill:#c6c6c6;stroke:#000000;stroke-width:5.19999981px;stroke-linecap:round;stroke-linejoin:round" />
  <line
     class="cls-14"
     x1="219.92772"
     y1="143.22"
     x2="225.25774"
     y2="143.22"
     id="line270"
     style="fill:#c6c6c6;stroke:#000000;stroke-width:5.19999981px;stroke-linecap:round;stroke-linejoin:round" />
  <ellipse
     class="cls-15"
     cx="-126.2778"
     cy="221.29619"
     rx="5.3400002"
     ry="9.8999996"
     transform="rotate(-76.8)"
     id="ellipse272"
     style="fill:#f4ba14;stroke:#000000;stroke-width:3.75999999px;stroke-linecap:round;stroke-linejoin:round" />
  <ellipse
     class="cls-15"
     cx="188.86563"
     cy="225.18584"
     rx="9.8999996"
     ry="5.3400002"
     transform="rotate(-13.83)"
     id="ellipse274"
     style="fill:#f4ba14;stroke:#000000;stroke-width:3.75999999px;stroke-linecap:round;stroke-linejoin:round" />
  <path
     class="cls-13"
     d="m 265.80771,148.83 h -11.85 a 4.5,4.5 0 0 0 -4.49,4.5 v 0.07 h -75.46 v -0.07 a 4.5,4.5 0 0 0 -4.49,-4.5 h -11.85 a 4.5,4.5 0 0 0 -4.49,4.5 v 9 a 4.51,4.51 0 0 0 4.49,4.5 h 108.14 a 4.51,4.51 0 0 0 4.49,-4.5 v -9 a 4.5,4.5 0 0 0 -4.49,-4.5 z"
     id="path276"
     inkscape:connector-curvature="0"
     style="fill:#a0a0a0;stroke:#000000;stroke-width:5.78999996px;stroke-linecap:round;stroke-linejoin:round" />
  <path
     class="cls-17"
     d="m 169.14771,331.1 c 0,0 43.19,-22.07 84,0"
     id="path284"
     inkscape:connector-curvature="0"
     style="fill:none;stroke:#000000;stroke-width:7.51000023px;stroke-linecap:round;stroke-linejoin:round" />
  <path
     d="m 178.97771,315.62 c 0,0 -4.22,8.62 6.47,5.67 l -10.6,4.91 -3.49,-9.61"
     id="path286"
     inkscape:connector-curvature="0" />
  <path
     d="m 244.61771,315.62 c 0,0 4.22,8.62 -6.46,5.67 l 10.59,4.91 3.5,-9.61"
     id="path288"
     inkscape:connector-curvature="0" />
  <path
     class="cls-4"
     d="m 209.54771,111.31 a 86.71,86.71 0 0 1 24.41,3.5 l 4.47,-114 -29.07,-0.81 -27.55,0.76 4.43,113.75 a 86,86 0 0 1 23.31,-3.2 z"
     id="path290"
     inkscape:connector-curvature="0"
     style="fill:#871324" />
  <ellipse
     class="cls-3"
     cx="210.58772"
     cy="67.009995"
     rx="15.87"
     ry="2.97"
     id="ellipse292"
     style="fill:#ffffff" />
  <ellipse
     class="cls-3"
     cx="210.58772"
     cy="57.570007"
     rx="19.950001"
     ry="3.73"
     id="ellipse294"
     style="fill:#ffffff" />
  <ellipse
     class="cls-3"
     cx="210.58772"
     cy="74.509995"
     rx="9.5600004"
     ry="1.79"
     id="ellipse296"
     style="fill:#ffffff" />
  <ellipse
     class="cls-3"
     cx="210.58772"
     cy="49.380005"
     rx="9.5600004"
     ry="1.79"
     id="ellipse298"
     style="fill:#ffffff" />
  <ellipse
     class="cls-3"
     cx="210.58772"
     cy="33.169998"
     rx="4.0700002"
     ry="1.29"
     id="ellipse300"
     style="fill:#ffffff" />
  <polygon
     class="cls-3"
     points="494.96,222.68 499.73,222.68 497.69,183.36 497.01,183.36 "
     id="polygon302"
     style="fill:#ffffff"
     transform="translate(-286.76229,-174)" />
  <polygon
     class="cls-3"
     points="488.9,296.04 494.46,254.49 494.46,296.04 "
     id="polygon304"
     style="fill:#ffffff"
     transform="translate(-286.76229,-174)" />
  <polygon
     class="cls-3"
     points="508.18,296.04 502.62,254.49 502.62,296.04 "
     id="polygon306"
     style="fill:#ffffff"
     transform="translate(-286.76229,-174)" />
  <path
     id="path1880"
     style="fill:#000000;fill-opacity:1"
     d="m 253.43945,341.25781 -2.76172,1.09766 0.4961,0.33008 c 0.74331,-0.49458 1.49571,-0.97394 2.26562,-1.42774 z" />
  <path
     id="path1882"
     style="fill:#000000;fill-opacity:1"
     d="m 247.80664,340.4375 -5.96875,3.37891 c 1.0507,-0.27673 2.10237,-0.55057 3.15039,-0.83594 0.13941,-0.0379 0.27441,-0.13154 0.41797,-0.11524 0.0577,0.007 -0.005,0.19307 0.0469,0.16797 0.19525,-0.094 0.32667,-0.28365 0.49024,-0.42578 0.42725,-0.36085 0.96703,-0.8546 1.44336,-1.17773 0.0174,-0.0118 -0.009,0.04 -0.0137,0.0605 0.0743,-0.0521 0.14835,-0.10415 0.22265,-0.15625 0.11476,-0.14289 0.21326,-0.29751 0.31055,-0.45312 -0.0337,-0.14803 -0.0649,-0.29579 -0.0996,-0.44336 z" />
  <path
     id="path1884"
     style="fill:#000000;fill-opacity:1"
     d="M 243.96289,338.72461 233.25,344.70508 c 0.16702,0.22708 0.33307,0.45465 0.5,0.68164 0.20758,-0.016 0.41538,-0.028 0.62305,-0.043 0.59461,-0.10919 1.18931,-0.21886 1.78515,-0.32031 1.34308,-0.22869 1.86579,-0.25645 3.27735,-0.56446 0.41925,-0.0915 0.82787,-0.22225 1.24218,-0.33398 1.37462,-0.36527 2.75219,-0.72346 4.125,-1.0957 -0.27265,-1.06255 -0.41771,-1.84291 -0.64648,-2.97657 -0.0645,-0.44273 -0.12889,-0.88539 -0.19336,-1.32812 z" />
  <path
     id="path1886"
     style="fill:#000000;fill-opacity:1"
     d="m 230.92383,337.7793 -2.28516,1.31445 c 0.21812,-0.007 0.43619,-0.0143 0.6543,-0.0215 0.60761,0.0353 1.20932,-0.0477 1.81055,-0.1211 -0.0688,-0.38906 -0.12756,-0.77973 -0.17969,-1.17187 z m 0.67187,3.2207 0.50586,4.48633 c 0.21686,-0.009 0.17802,-0.007 0.4375,-0.0176 0.15129,-0.006 0.30203,-0.0219 0.45313,-0.0312 -0.2534,-0.68647 -0.49373,-1.37759 -0.7168,-2.07422 -0.27971,-0.87352 -0.46852,-1.57339 -0.67969,-2.36328 z" />
  <path
     id="path1888"
     style="fill:#000000;fill-opacity:1"
     d="m 222.77539,338.70508 -4.96484,2.7539 c 0.23048,-0.0268 0.46154,-0.05 0.68945,-0.0937 0.31233,-0.06 1.1592,-0.32252 1.49609,-0.41992 0.90739,-0.26227 1.8131,-0.5081 2.71094,-0.80078 0.0468,-0.0167 0.0939,-0.0331 0.14063,-0.0508 -0.0315,-0.46244 -0.0538,-0.92553 -0.0723,-1.38867 z" />
  <path
     id="path1892"
     style="fill:#000000;fill-opacity:1"
     d="m 211.06445,338.45508 -10.71289,5.24804 c 0.30442,1.64509 0.1908,0.95501 0.41211,2.66797 0.13049,-0.0492 0.22496,-0.0886 0.50195,-0.17578 1.57892,-0.49674 3.17593,-0.84551 4.78907,-1.20312 1.08667,-0.18463 2.12752,-0.54764 3.16015,-0.92383 0.13962,-0.57557 0.3051,-1.19378 0.51758,-2.03711 0.86057,-2.5382 0.4082,-1.34975 1.33203,-3.57617 z" />
  <path
     id="path1894"
     style="fill:#000000;fill-opacity:1"
     d="m 204.26758,336.93359 -12.34375,6.41016 c 0.31578,0.64543 0.15172,0.29552 0.48437,1.05273 0.42652,0.98807 0.85739,1.97632 1.24024,2.98243 0.0752,0.1976 0.14411,0.39717 0.21679,0.5957 1.2422,-0.24136 2.4846,-0.48486 3.72657,-0.72852 0.45961,-0.0888 0.92547,-0.15128 1.3789,-0.26757 2.17988,-0.55906 0.63868,-0.26213 2.29492,-0.78321 0.7591,-0.23882 1.52181,-0.44301 2.28907,-0.63086 -0.0286,-1.66044 0.0179,-3.32105 0.16406,-4.97656 0.0881,-0.99748 0.14359,-1.30988 0.27539,-2.25391 0.17164,-0.99541 0.0771,-0.53079 0.27344,-1.40039 z" />
  <path
     id="path1896"
     style="fill:#000000;fill-opacity:1"
     d="m 201.05469,340.80469 -11.52149,5.79492 c 0.073,0.28056 0.15461,0.55908 0.21875,0.8418 0.11874,0.52338 0.18728,0.88943 0.24805,1.26367 2.53353,-0.47051 5.06287,-0.96285 7.5918,-1.45899 0.45961,-0.0888 0.92547,-0.15128 1.3789,-0.26757 0.44103,-0.11311 0.65201,-0.17358 0.84571,-0.23047 0.0731,-0.5229 0.16019,-1.05252 0.28125,-1.84961 0.26863,-1.43114 0.27952,-1.6475 0.63476,-2.99219 0.0976,-0.36962 0.21514,-0.73457 0.32227,-1.10156 z" />
  <circle
     id="path1904"
     style="fill:#000000;stroke:#000000"
     cx="204.49168"
     cy="328.31027"
     r="0.11312871" />
  <circle
     id="path1906"
     style="fill:#000000;stroke:#000000"
     cx="204.49168"
     cy="328.31027"
     r="0.11312871" />
  <path
     id="path1908"
     style="fill:#000000;fill-opacity:1"
     d="m 215.16602,328.60156 c -0.56747,0.033 -0.85375,0.94823 -1.47461,0.85938 -1.59723,0.77571 -3.36747,1.64445 -5.19727,1.5332 -0.16947,-0.0103 -0.33346,-0.0666 -0.5,-0.0996 l -12.20898,8.45899 c 2.31046,0.29548 4.56297,-0.29194 6.7207,-1.06055 0.7811,-0.31677 0.62632,-0.24461 1.31445,-0.55664 0.24767,-0.11231 0.47504,-0.29098 0.74219,-0.3418 0.77122,-0.14671 1.93324,0.20142 2.68555,0.39453 1.07486,0.35712 2.1585,0.66295 3.27148,0.87305 0.93617,0.21077 1.88375,0.35872 2.82813,0.52734 0.20754,0.0283 0.37988,0.0264 0.5625,0.14453 0.584,0.37781 0.76391,1.5174 0.91015,2.11719 0.0568,0.24928 0.10765,0.49962 0.15821,0.75 0.20941,-0.0836 0.41215,-0.19014 0.6289,-0.25195 0.59096,-0.16836 1.19395,-0.29036 1.79102,-0.43555 0.36737,-0.0498 0.73748,-0.0785 1.10156,-0.14844 0.31233,-0.06 1.1592,-0.32252 1.49609,-0.41992 0.90739,-0.26227 1.8131,-0.5081 2.71094,-0.80078 0.13256,-0.0473 0.26363,-0.10228 0.39844,-0.14258 0.73151,-0.21887 0.78757,-0.22725 1.49414,-0.33593 0.0758,-0.0117 0.15238,-0.0201 0.22851,-0.0293 0.54043,-0.16161 1.07769,-0.33616 1.63086,-0.44336 0.32242,-0.0625 0.6562,-0.009 0.98438,-0.0215 0.37196,-0.0142 0.41035,-0.026 0.48633,-0.0391 -0.14265,-1.48757 -0.2882,-2.97471 -0.44727,-4.46093 -0.26383,-1.50759 -0.51004,-3.16829 -2.01367,-3.93165 -0.95316,-0.20377 -1.93091,-0.29005 -2.88867,-0.47461 -1.15529,-0.25499 -2.32905,-0.41044 -3.48438,-0.66796 -0.96905,-0.21713 -1.94019,-0.42958 -2.89843,-0.69141 -0.34562,-0.0944 -0.67356,-0.32549 -1.03125,-0.30469 z m 9.51171,11.08008 c -0.0281,0.005 -0.0559,0.0107 -0.084,0.0156 -0.0539,0.0199 -0.21751,0.0736 -0.16211,0.0586 0.0826,-0.0223 0.1639,-0.0503 0.24609,-0.0742 z m -16.27929,4.45313 -1.13477,0.57812 c 0.37695,-0.10444 0.74858,-0.22695 1.11914,-0.35351 0.006,-0.075 0.009,-0.14968 0.0156,-0.22461 z" />
  <path
     id="path1910"
     style="fill:#000000;fill-opacity:1"
     d="m 193.98828,347.64453 -1.39844,0.57617 c 0.3261,-0.0627 0.65252,-0.12429 0.97852,-0.1875 0.14051,-0.12916 0.27788,-0.26185 0.41992,-0.38867 z" />
  <path
     style="fill:#000000;fill-opacity:1"
     id="path1912"
     d="m 173.77483,330.12096 c 2.47196,2.27366 5.56075,3.48622 8.68971,4.54988 5.03856,1.46967 10.27136,2.09051 15.43447,2.9642 4.3458,0.73785 8.69701,1.44404 13.05633,2.0974 2.69168,0.42264 5.40022,0.6763 8.12221,0.76004 2.8053,-0.0684 5.61059,-0.21381 8.41259,-0.37233 2.94858,-0.1398 5.85633,-0.66894 8.71999,-1.36154 1.09416,-0.30943 2.20721,-0.55775 3.27381,-0.95861 0.41913,-0.15752 1.27321,-0.53335 1.68101,-0.76619 4.44937,-2.54037 8.88186,-5.1102 13.32279,-7.6653 0.0957,-0.1392 0.24624,-0.25369 0.28706,-0.41761 0.17337,-0.69632 -0.50251,-1.49533 -1.04183,-1.82613 -0.26316,-0.16142 -0.81677,-0.20358 -1.09101,-0.24218 -3.1055,0.38134 -6.1756,-0.28817 -9.21831,-0.84137 -3.57112,-0.69185 -7.12318,-1.52679 -10.74338,-1.92398 -0.29999,-0.0216 -0.59997,-0.0433 -0.89996,-0.0649 0,0 -12.02076,8.69117 -12.02076,8.69117 v 0 c 0.30827,-0.008 0.61654,-0.0151 0.92481,-0.0226 3.69504,0.0541 7.32292,0.78267 10.92539,1.56324 0.86757,0.17826 3.35722,0.6903 4.27098,0.87622 1.5303,0.31136 3.11607,0.75896 4.68965,0.55504 0.13933,-0.0401 0.27616,-0.0901 0.41798,-0.12022 0.10253,-0.0217 0.2373,0.0383 0.3125,-0.0346 0.26709,-0.25924 -0.33246,-1.32637 -0.72679,-0.83594 4.05582,-2.32787 8.11474,-4.65033 12.16744,-6.98361 0.25702,-0.14797 -0.52162,0.28241 -0.78022,0.42761 -0.71932,0.40387 -1.03058,0.63093 -1.8104,0.94135 -0.69751,0.27765 -1.56278,0.48994 -2.27993,0.68545 -2.77845,0.86765 -5.65371,1.44179 -8.56319,1.61037 -2.7516,0.23496 -5.51683,0.26741 -8.27301,0.44079 -2.75354,-0.0403 -5.50775,-0.14249 -8.24444,-0.47132 -4.40814,-0.53604 -8.77095,-1.35795 -13.16904,-1.96773 -5.08674,-0.81646 -10.23861,-1.42407 -15.20248,-2.84067 -2.84892,-0.95523 -5.81328,-1.97535 -7.89517,-4.25833 0,0 -12.7488,7.81248 -12.7488,7.81248 z" />
  <path
     style="fill:#000000;fill-opacity:1"
     id="path30311"
     sodipodi:type="arc"
     sodipodi:cx="192.01994"
     sodipodi:cy="319.49017"
     sodipodi:rx="31.797333"
     sodipodi:ry="17.359322"
     sodipodi:start="0"
     sodipodi:end="6.2651037"
     sodipodi:arc-type="slice"
     d="m 223.81728,319.49017 a 31.797333,17.359322 0 0 1 -31.6536,17.35915 31.797333,17.359322 0 0 1 -31.93977,-17.20221 31.797333,17.359322 0 0 1 31.36484,-17.51466 31.797333,17.359322 0 0 1 32.22333,17.04386 l -31.79214,0.31386 z" />
</svg>
