<?xml version="1.0" encoding="UTF-8" standalone="no"?>
<svg
   id="Layer_1"
   data-name="Layer 1"
   version="1.1"
   width="434.20328"
   height="406.06339"
   sodipodi:docname="TPA.svg"
   inkscape:version="1.1.1 (3bf5ae0d25, 2021-09-20)"
   xmlns:inkscape="http://www.inkscape.org/namespaces/inkscape"
   xmlns:sodipodi="http://sodipodi.sourceforge.net/DTD/sodipodi-0.dtd"
   xmlns="http://www.w3.org/2000/svg"
   xmlns:svg="http://www.w3.org/2000/svg">
  <sodipodi:namedview
     id="namedview85"
     pagecolor="#a2a2a2"
     bordercolor="#666666"
     borderopacity="1.0"
     inkscape:pageshadow="2"
     inkscape:pageopacity="0"
     inkscape:pagecheckerboard="true"
     showgrid="false"
     fit-margin-top="0"
     fit-margin-left="0"
     fit-margin-right="0"
     fit-margin-bottom="0"
     inkscape:zoom="0.64866115"
     inkscape:cx="-88.644125"
     inkscape:cy="91.727399"
     inkscape:window-width="1920"
     inkscape:window-height="1017"
     inkscape:window-x="-8"
     inkscape:window-y="-8"
     inkscape:window-maximized="1"
     inkscape:current-layer="Layer_1" />
  <defs
     id="defs4">
    <inkscape:path-effect
       effect="spiro"
       id="path-effect1750"
       is_visible="true"
       lpeversion="1" />
    <inkscape:path-effect
       effect="spiro"
       id="path-effect1615"
       is_visible="true"
       lpeversion="1" />
    <inkscape:path-effect
       effect="spiro"
       id="path-effect1611"
       is_visible="true"
       lpeversion="1" />
    <inkscape:path-effect
       effect="spiro"
       id="path-effect1607"
       is_visible="true"
       lpeversion="1" />
    <inkscape:path-effect
       effect="spiro"
       id="path-effect1603"
       is_visible="true"
       lpeversion="1" />
    <inkscape:path-effect
       effect="spiro"
       id="path-effect1599"
       is_visible="true"
       lpeversion="1" />
    <inkscape:path-effect
       effect="spiro"
       id="path-effect1595"
       is_visible="true"
       lpeversion="1" />
    <inkscape:path-effect
       effect="spiro"
       id="path-effect1591"
       is_visible="true"
       lpeversion="1" />
    <inkscape:path-effect
       effect="spiro"
       id="path-effect1587"
       is_visible="true"
       lpeversion="1" />
    <inkscape:path-effect
       effect="spiro"
       id="path-effect1583"
       is_visible="true"
       lpeversion="1" />
    <inkscape:path-effect
       effect="spiro"
       id="path-effect1579"
       is_visible="true"
       lpeversion="1" />
    <style
       id="style2">.cls-1,.cls-19{fill:#ed8721}.cls-15,.cls-2{fill:#19ce22}.cls-17{fill:#043d04}.cls-4{fill:#f7e494}.cls-12,.cls-5{fill:#096609}.cls-13,.cls-17,.cls-5{stroke:#043d04}.cls-13,.cls-15,.cls-17,.cls-5{stroke-linecap:round;stroke-linejoin:round}.cls-5{stroke-width:10.7px}.cls-22{stroke-width:5.35px}.cls-11{fill:#fff7d7}.cls-13,.cls-22,.cls-24{fill:none}.cls-13{stroke-width:8.92px}.cls-15{stroke:#19ce22;stroke-width:5.37px}.cls-17{stroke-width:2.28px}.cls-18{fill:#ffb164}.cls-19{stroke:#cc6c15}.cls-19,.cls-22,.cls-24{stroke-miterlimit:10}.cls-19{stroke-width:5.99px}.cls-22{stroke:#f7e494}.cls-24{stroke:#fff;stroke-width:2.99px}</style>
  </defs>
  <path
     class="cls-4"
     d="m 353.74122,89.743382 c -0.67,-0.33 -16.61,-8.24 -40.19,-8.1 -21.36,0.12 -53.64,7 -86.12,39.099998 a 11.59,11.59 0 0 0 16.29,16.49 q 4.31,-4.24 8.56,-7.82 l 33.18,0.85 a 11.57,11.57 0 0 0 21.38,6.48 c 0.61,-1 15.08,-23.14 42.51,-25.09 a 11.59,11.59 0 0 0 4.39,-21.909998 z"
     id="path122"
     style="fill:#f7e494" />
  <path
     class="cls-4"
     d="m 74.951219,82.293382 a 6.68,6.68 0 0 0 -12.62,1.34 83.85,83.85 0 0 0 -1.43,18.999998 c 0.85,18.53 8.88,25.94 15.47,28.91 a 6.81,6.81 0 0 0 2.74,0.58 6.68,6.68 0 0 0 2.74,-12.78 l -0.38,-0.2 5.22,-13.92 2.44,-6.259998 h 0.09 c -0.37,-0.09 -8.48,-3.66 -14.27,-16.67 z"
     id="path124"
     style="fill:#f7e494" />
  <path
     class="cls-2"
     d="m 86.671219,105.21338 c 0,0 -10.7,-4.16 -17.83,-20.209998 0,0 -6.86,32.769998 10.24,40.459998"
     id="path126"
     style="fill:#19ce22" />
  <path
     class="cls-4"
     d="m 387.92122,132.25338 c -20.75,-3 -41.84,-5.58 -62.78,-7.57 -0.44,-14.71 -7.67,-28.529998 -20.78,-40.209998 a 11.31,11.31 0 0 0 5,-4.29 c 5.37,-8.26 11.78,-25.41 2,-37.67 a 75.72,75.72 0 0 0 -9.55,-11.9 11.4,11.4 0 0 0 -4.78,-4.6 96.32,96.32 0 0 0 -13.1,-9.83 c -17.22,-10.7399999 -46.85,-21.3999999 -90.16,-11.1299999 a 11.14,11.14 0 0 0 -4.69,2.39 c -0.87,0.75 -20.77,18.1199999 -31.49,49.3999999 a 150.41,150.41 0 0 0 -41,15.19 c -24.560001,13.78 -38.200001,32.729998 -38.490001,53.409998 -18.5,1.88 -37,4.17 -55.15,6.82 a 26.51,26.51 0 0 0 -22.14999986,25.71 v 79.45 a 23.07,23.07 0 0 0 26.58999986,22.87 1231,1231 0 0 1 356.000001,0 22.93,22.93 0 0 0 26.63,-22.87 v -79.45 a 26.53,26.53 0 0 0 -22.1,-25.72 z"
     id="path128"
     style="fill:#f7e494" />
  <path
     class="cls-4"
     d="m 23.941219,261.45338 a 23.76,23.76 0 0 1 -23.93999986,-24 v -79.48 a 27.43,27.43 0 0 1 22.89999986,-26.6 c 17.87,-2.61 36.17,-4.87 54.41,-6.73 0.63,-20.7 14.43,-39.629998 38.930001,-53.389998 a 151,151 0 0 1 40.71,-15.17 c 10.83,-31.21 30.74,-48.5899999 31.59,-49.3199999 a 12.11,12.11 0 0 1 5.07,-2.58 c 43.61,-10.33 73.46,0.41 90.83,11.2499999 a 96.56,96.56 0 0 1 13.14,9.84 12.21,12.21 0 0 1 5,4.8 75.19,75.19 0 0 1 9.55,11.92 c 10,12.66 3.47,30.27 -2,38.68 a 12.37,12.37 0 0 1 -4.22,4 c 12.5,11.48 19.42,24.999998 20.08,39.169998 20.7,2 41.57,4.51 62.05,7.5 a 27.44,27.44 0 0 1 22.95,26.6 v 79.48 a 23.82,23.82 0 0 1 -27.66,23.75 1230.24,1230.24 0 0 0 -355.740001,0 23.59,23.59 0 0 1 -3.65,0.28 z M 227.64122,1.7833821 a 145.52,145.52 0 0 0 -33.62,4.13 10.29,10.29 0 0 0 -4.32,2.21 c -0.84,0.71 -20.59,17.9999999 -31.23,48.9999999 l -0.16,0.47 -0.49,0.11 a 149.56,149.56 0 0 0 -40.7,15.09 c -24.250001,13.61 -37.760001,32.309998 -38.000001,52.659998 v 0.79 l -0.79,0.08 c -18.48,1.88 -37,4.17 -55.11,6.81 a 25.6,25.6 0 0 0 -21.3899999,24.83 v 79.46 a 22,22 0 0 0 22.1599999,22.25 22.83,22.83 0 0 0 3.41,-0.26 1232.05,1232.05 0 0 1 356.260001,0 22,22 0 0 0 25.61,-22 v -79.44 a 25.63,25.63 0 0 0 -21.43,-24.84 c -20.71,-3 -41.81,-5.57 -62.74,-7.56 l -0.78,-0.08 v -0.79 c -0.43,-14.33 -7.52,-27.999998 -20.49,-39.559998 l -1.05,-0.94 1.29,-0.55 a 10.46,10.46 0 0 0 4.65,-3.95 c 5.21,-8 11.52,-24.77 2.07,-36.64 l -0.06,-0.08 a 74.26,74.26 0 0 0 -9.43,-11.75 l -0.13,-0.18 a 10.66,10.66 0 0 0 -4.41,-4.24 l -0.19,-0.13 a 94.36,94.36 0 0 0 -13,-9.74 c -12.24,-7.5999999 -30.72,-15.1599999 -55.93,-15.1599999 z"
     id="path130"
     style="fill:#f7e494" />
  <ellipse
     class="cls-5"
     cx="201.66121"
     cy="126.12338"
     rx="112.78"
     ry="63.299999"
     id="ellipse132"
     style="fill:#096609;stroke:#043d04;stroke-width:10.7px;stroke-linecap:round;stroke-linejoin:round" />
  <path
     d="m 201.66122,162.67338 c 25.25,0 49.54,-5.51 66.66,-15.12 11.95,-6.71 19.38,-14.92 19.38,-21.43 0,-6.51 -7.43,-14.73 -19.38,-21.44 -17.12,-9.609998 -41.41,-15.159998 -66.66,-15.159998 -25.25,0 -49.54,5.51 -66.65,15.119998 -12,6.71 -19.38,14.92 -19.38,21.44 0,6.52 7.42,14.72 19.38,21.43 17.11,9.65 41.41,15.16 66.65,15.16 z"
     id="path134"
     style="fill:#043d04;stroke:#043d04;stroke-width:10.7px;stroke-linecap:round;stroke-linejoin:round" />
  <path
     d="m 302.33122,49.003382 c 0,0 -29.31,-51.2499999 -105.92,-33.11 0,0 -33.62,28.91 -34.41,80.4 l 47.59,7.139998 c 0,0 41.16,-2.84 74.65,-33.519998 10.43,-0.48 15.82,4.2 15.82,4.2 0,0 10.27,-15.9 2.27,-25.11 z"
     id="path136"
     style="fill:#19ce22;stroke:#043d04;stroke-width:11.59px;stroke-linecap:round;stroke-linejoin:round" />
  <path
     id="line138"
     style="fill:#19ce22;stroke:#043d04;stroke-width:11.98px;stroke-linecap:round;stroke-linejoin:round"
     d="m 186.33122,38.353382 105.62,-2.23" />
  <path
     d="m 218.25122,41.463382 c 0,0 23.29,27 52.54,-0.35 l 6,-4.23"
     id="path140"
     style="fill:#043d04;stroke:#043d04;stroke-width:5.35px;stroke-linecap:round;stroke-linejoin:round" />
  <path
     d="m 235.84122,70.103382 c 0,0 15.48,13.88 48.31,-1.9"
     id="path142"
     style="fill:#19ce22;stroke:#043d04;stroke-width:9.81px;stroke-linecap:round;stroke-linejoin:round" />
  <path
     class="cls-11"
     d="m 209.84122,96.523382 27.93,-19.47 c 0,0 7,3.86 20.51,3.57 0.05,0.03 -16.5,18.01 -48.44,15.9 z"
     id="path144"
     style="fill:#fff7d7" />
  <ellipse
     class="cls-12"
     cx="-58.321354"
     cy="187.92825"
     rx="7.1300001"
     ry="4.23"
     transform="rotate(-83.38)"
     id="ellipse146"
     style="fill:#096609" />
  <ellipse
     class="cls-12"
     cx="-49.586353"
     cy="198.66927"
     rx="4.3299999"
     ry="2.5699999"
     transform="rotate(-83.38)"
     id="ellipse148"
     style="fill:#096609" />
  <ellipse
     class="cls-12"
     cx="-41.495354"
     cy="189.92526"
     rx="5.0799999"
     ry="3.23"
     transform="rotate(-83.38)"
     id="ellipse150"
     style="fill:#096609" />
  <path
     class="cls-12"
     d="m 285.10122,47.143382 c 0,0 5.35,2.68 9.8,10.48 l -14,-5.35 z"
     id="path152"
     style="fill:#096609" />
  <path
     class="cls-12"
     d="m 240.74122,49.593382 c 0,0 15.16,-4.9 21.4,-11.14 l -12,-0.45 -16,11.15"
     id="path154"
     style="fill:#096609" />
  <path
     class="cls-5"
     id="line156"
     style="fill:#096609;stroke:#043d04;stroke-width:10.7px;stroke-linecap:round;stroke-linejoin:round"
     d="m 139.70122,79.313382 6.69,16.94" />
  <path
     class="cls-5"
     id="line158"
     style="fill:#096609;stroke:#043d04;stroke-width:10.7px;stroke-linecap:round;stroke-linejoin:round"
     d="m 118.75122,87.783382 12.93,18.279998" />
  <path
     class="cls-5"
     id="line160"
     style="fill:#096609;stroke:#043d04;stroke-width:10.7px;stroke-linecap:round;stroke-linejoin:round"
     d="m 101.36122,102.04338 18.73,15.16" />
  <path
     class="cls-5"
     id="line162"
     style="fill:#096609;stroke:#043d04;stroke-width:10.7px;stroke-linecap:round;stroke-linejoin:round"
     d="m 92.901219,123.00338 26.300001,8.47" />
  <path
     class="cls-5"
     id="line164"
     style="fill:#096609;stroke:#043d04;stroke-width:10.7px;stroke-linecap:round;stroke-linejoin:round"
     d="m 99.581219,147.96338 24.070001,-5.8" />
  <path
     class="cls-5"
     id="line166"
     style="fill:#096609;stroke:#043d04;stroke-width:10.7px;stroke-linecap:round;stroke-linejoin:round"
     d="m 263.63122,79.313382 -6.69,16.94" />
  <path
     class="cls-5"
     id="line168"
     style="fill:#096609;stroke:#043d04;stroke-width:10.7px;stroke-linecap:round;stroke-linejoin:round"
     d="m 284.58122,87.783382 -12.93,18.279998" />
  <path
     class="cls-5"
     id="line170"
     style="fill:#096609;stroke:#043d04;stroke-width:10.7px;stroke-linecap:round;stroke-linejoin:round"
     d="m 301.96122,102.04338 -18.72,15.16" />
  <path
     class="cls-5"
     id="line172"
     style="fill:#096609;stroke:#043d04;stroke-width:10.7px;stroke-linecap:round;stroke-linejoin:round"
     d="m 310.43122,123.00338 -26.3,8.47" />
  <path
     class="cls-5"
     id="line174"
     style="fill:#096609;stroke:#043d04;stroke-width:10.7px;stroke-linecap:round;stroke-linejoin:round"
     d="m 303.74122,147.96338 -24.07,-5.8" />
  <path
     class="cls-2"
     d="m 157.33122,101.22338 -15.4,24.79 46.06,-2.08 34.2,-15.41 h -20.86 z"
     id="path176"
     style="fill:#19ce22" />
  <path
     class="cls-11"
     d="m 188.01122,123.93338 34.18,-15.41 h -20.86 l -16.14,-2.66 -0.16,0.12 -12.48,18.28 -1,0.44 z"
     id="path178"
     style="fill:#fff7d7" />
  <path
     class="cls-13"
     id="line180"
     style="fill:none;stroke:#043d04;stroke-width:8.92px;stroke-linecap:round;stroke-linejoin:round"
     d="m 151.07122,145.00338 19.38,17.24" />
  <path
     class="cls-13"
     id="line182"
     style="fill:none;stroke:#043d04;stroke-width:8.92px;stroke-linecap:round;stroke-linejoin:round"
     d="m 260.93122,145.00338 -19.39,17.24" />
  <path
     d="m 297.04122,130.52338 c 0,0 17.49,-28 51.49,-30.46 0,0 -55.45,-27.929998 -113,28.9"
     id="path184"
     style="fill:#19ce22;stroke:#043d04;stroke-width:11.57px;stroke-linecap:round;stroke-linejoin:round" />
  <ellipse
     class="cls-12"
     cx="94.345871"
     cy="282.15842"
     rx="6.1799998"
     ry="3.6700001"
     transform="rotate(-47.34)"
     id="ellipse186"
     style="fill:#096609" />
  <ellipse
     class="cls-12"
     cx="101.91087"
     cy="291.46841"
     rx="3.75"
     ry="2.23"
     transform="rotate(-47.34)"
     id="ellipse188"
     style="fill:#096609" />
  <ellipse
     class="cls-12"
     cx="108.92087"
     cy="283.89044"
     rx="4.4000001"
     ry="2.8"
     transform="rotate(-47.34)"
     id="ellipse190"
     style="fill:#096609" />
  <path
     class="cls-11"
     d="m 286.58122,130.73338 c 0,0 12.4,-23.74 39.88,-30.999998 0,0 -30.38,18.809998 -25.55,32.789998"
     id="path192"
     style="fill:#fff7d7" />
  <path
     d="m 387.12122,137.52338 a 1256.05,1256.05 0 0 0 -363.290001,0 21,21 0 0 0 -17.5899999,20.42 v 79.48 a 17.52,17.52 0 0 0 17.6999999,17.79 18.55,18.55 0 0 0 2.77,-0.21 1236.05,1236.05 0 0 1 357.560001,0 18,18 0 0 0 14.4,-4 17.8,17.8 0 0 0 6.09,-13.55 v -79.48 a 21.07,21.07 0 0 0 -17.64,-20.45 z"
     id="path194"
     style="fill:#043d04" />
  <path
     class="cls-15"
     d="m 31.851219,202.02338 c -4,0.58 -6,0.88 -10,1.5 l -0.27,-0.23 v -3.77 l 0.27,-0.31 q 12.6,-1.89 25.21,-3.6 l 0.22,0.24 c -0.39,1.56 -0.58,2.34 -1,3.91 l -0.33,0.31 c -3.85,0.51 -5.77,0.78 -9.62,1.32 v 31.86 l -0.27,0.31 -4,0.56 -0.27,-0.23 z"
     id="path196"
     style="fill:#19ce22;stroke:#19ce22;stroke-width:5.37px;stroke-linecap:round;stroke-linejoin:round" />
  <path
     class="cls-15"
     d="m 80.111219,192.24338 0.26,-0.35 4,-0.95 0.27,0.19 v 23.49 c 0,6.42 4.15,9 9.55,8.47 5.67,-0.52 9.560001,-3.81 9.560001,-10.24 v -22.84 l 0.27,-0.34 4,-0.87 0.27,0.19 v 24 c 0.26,8.27 -6.28,13.87 -14.100001,14.44 -8.44,0.62 -14.08,-3.15 -14.08,-11.84 z"
     id="path198"
     style="fill:#19ce22;stroke:#19ce22;stroke-width:5.37px;stroke-linecap:round;stroke-linejoin:round" />
  <path
     class="cls-15"
     d="m 146.15122,186.92338 0.27,-0.29 c 3.85,-0.18 5.78,-0.27 9.63,-0.43 a 14.53,14.53 0 0 1 8,1.59 c 2.65,1.56 4.49,4.39 4.49,8.71 0,10 -10.55,10.9 -10.55,10.9 l 1.19,1.14 6.33,7.39 a 5.44,5.44 0 0 0 4.33,2.13 c 0.22,0 0.38,-0.06 0.6,-0.07 l 0.22,0.26 -0.6,3.69 -0.32,0.28 a 8.9,8.9 0 0 1 -1.14,0.15 c -3.74,0.11 -6.23,-3 -7.2,-4.25 -3.38,-4.06 -5.07,-6.09 -8.45,-10.13 l -0.38,-0.2 -1.84,0.08 v 14.74 l -0.27,0.28 -4,0.19 -0.27,-0.26 z m 9.85,16.6 c 4,-0.16 8,-1.81 8,-6.83 0,-5.02 -4,-6.45 -8,-6.29 l -5.31,0.23 v 13.12 z"
     id="path200"
     style="fill:#19ce22;stroke:#19ce22;stroke-width:5.37px;stroke-linecap:round;stroke-linejoin:round" />
  <path
     class="cls-15"
     d="m 212.05122,189.52338 h -10.07 l -0.27,-0.27 v -3.73 l 0.27,-0.27 q 12.71,0 25.4,0.19 l 0.22,0.27 -1,3.77 -0.32,0.26 c -3.88,-0.07 -5.82,-0.09 -9.7,-0.13 v 31.81 l -0.27,0.27 h -4 l -0.27,-0.27 z"
     id="path202"
     style="fill:#19ce22;stroke:#19ce22;stroke-width:5.37px;stroke-linecap:round;stroke-linejoin:round" />
  <path
     class="cls-15"
     d="m 260.95122,187.00338 0.27,-0.31 4,-0.35 0.27,0.23 v 32.24 c 6.23,0.31 9.35,0.48 15.58,0.87 l 0.22,0.28 -1,3.72 -0.32,0.25 c -7.51,-0.46 -11.26,-0.66 -18.78,-1 l -0.27,-0.28 z"
     id="path204"
     style="fill:#19ce22;stroke:#19ce22;stroke-width:5.37px;stroke-linecap:round;stroke-linejoin:round" />
  <path
     class="cls-15"
     d="m 314.70122,190.40338 0.27,-0.25 c 7.49,0.68 11.24,1.05 18.73,1.85 l 0.27,0.3 v 3.77 l -0.27,0.25 c -5.79,-0.62 -8.68,-0.91 -14.47,-1.46 v 10.8 c 5,0.48 7.55,0.73 12.58,1.26 l 0.21,0.29 c -0.38,1.47 -0.58,2.21 -1,3.68 l -0.32,0.23 c -4.6,-0.47 -6.9,-0.7 -11.5,-1.14 v 12.69 c 5.81,0.55 8.72,0.84 14.52,1.46 l 0.22,0.29 c -0.22,1.49 -0.33,2.24 -0.54,3.73 l -0.33,0.23 c -7.25,-0.77 -10.87,-1.12 -18.13,-1.78 l -0.27,-0.3 z"
     id="path206"
     style="fill:#19ce22;stroke:#19ce22;stroke-width:5.37px;stroke-linecap:round;stroke-linejoin:round" />
  <path
     class="cls-15"
     d="m 367.96122,229.62338 2.21,-2.73 h 0.48 a 15.45,15.45 0 0 0 7.37,3.41 c 3.81,0.55 7.38,-1 7,-5.18 -0.73,-8.81 -15.81,-8.43 -16.07,-19 -0.15,-6.32 5,-9.69 10.76,-8.85 a 17.43,17.43 0 0 1 9.24,4.08 l 0.05,0.39 a 85.56,85.56 0 0 0 -2,2.82 h -0.43 a 12.74,12.74 0 0 0 -6.61,-2.93 c -4.3,-0.62 -6.77,2.11 -6.34,5 1.17,8 16.07,8 16.06,19.21 0,8.09 -6.39,9.61 -11.82,8.83 a 20.85,20.85 0 0 1 -9.78,-4.61 z"
     id="path208"
     style="fill:#19ce22;stroke:#19ce22;stroke-width:5.37px;stroke-linecap:round;stroke-linejoin:round" />
  <path
     d="m 385.71122,182.89338 a 1244.08,1244.08 0 0 0 -360.420001,0 7.78,7.78 0 0 1 -9.24,-7.87 v -17.05 a 11.25,11.25 0 0 1 9.28,-10.73 1244.43,1244.43 0 0 1 360.420001,0 11.26,11.26 0 0 1 9.24,10.73 v 17.05 a 7.78,7.78 0 0 1 -9.28,7.87 z"
     id="path210"
     style="fill:#0ea812" />
  <path
     class="cls-17"
     d="m 90.591219,152.03338 -4.27,0.41 -0.11,-0.1 v -1.61 l 0.11,-0.13 c 4.31,-0.42 6.46,-0.62 10.77,-1 l 0.09,0.1 -0.42,1.65 -0.13,0.13 -4.11,0.37 v 13.54 l -0.12,0.13 -1.69,0.16 -0.12,-0.11 z"
     id="path212"
     style="fill:#043d04;stroke:#043d04;stroke-width:2.28px;stroke-linecap:round;stroke-linejoin:round" />
  <path
     class="cls-17"
     d="m 118.95122,148.05338 0.14,-0.12 1.93,-0.39 0.14,0.08 c 2.17,6 3.26,9 5.44,15 l -0.07,0.12 -1.84,0.12 -0.13,-0.1 -1.23,-3.56 -6.41,0.45 c -0.49,1.52 -0.74,2.27 -1.24,3.79 l -0.11,0.12 -1.86,0.14 -0.07,-0.11 z m 3.77,9.45 c -1,-2.77 -1.44,-4.15 -2.39,-6.91 -0.09,-0.39 -0.14,-0.58 -0.23,-1 -0.09,0.4 -0.14,0.6 -0.23,1 -1,2.89 -1.43,4.34 -2.39,7.24 2.09,-0.12 3.14,-0.19 5.24,-0.31 z"
     id="path214"
     style="fill:#043d04;stroke:#043d04;stroke-width:2.28px;stroke-linecap:round;stroke-linejoin:round" />
  <path
     class="cls-17"
     d="m 145.12122,146.46338 0.11,-0.14 1.73,-0.32 0.13,0.09 c 2.07,3.65 3.11,5.48 5.18,9.15 2,-3.75 3,-5.62 5,-9.35 l 0.11,-0.14 1.95,-0.23 0.11,0.09 v 15.42 l -0.11,0.12 -1.7,0.06 -0.07,-0.11 v -12.17 l -0.58,1.29 -3.73,6.81 -0.13,0.12 -1.66,0.07 -0.14,-0.11 -3.72,-6.48 c -0.22,-0.49 -0.32,-0.74 -0.53,-1.23 v 12.12 l -0.12,0.12 -1.7,0.09 -0.11,-0.11 z"
     id="path216"
     style="fill:#043d04;stroke:#043d04;stroke-width:2.28px;stroke-linecap:round;stroke-linejoin:round" />
  <path
     class="cls-17"
     d="m 179.84122,145.11338 0.11,-0.11 4.06,-0.08 a 7.13,7.13 0 0 1 3.63,0.69 4.07,4.07 0 0 1 1.94,3.83 c 0,2.69 -1.62,5 -5.14,5.06 -1.26,0 -2.37,-0.3 -2.78,-1.28 l 0.11,0.92 v 6.19 l -0.11,0.12 h -1.71 l -0.11,-0.12 z m 4.12,7.68 c 2.05,0 3.61,-1 3.61,-3.27 0,-2.27 -1.72,-2.87 -3.56,-2.84 h -2.24 v 5.71 a 7.13,7.13 0 0 0 2.19,0.4 z"
     id="path218"
     style="fill:#043d04;stroke:#043d04;stroke-width:2.28px;stroke-linecap:round;stroke-linejoin:round" />
  <path
     class="cls-17"
     d="m 212.21122,144.97338 0.14,-0.11 1.93,-0.24 0.14,0.09 5.45,15.48 -0.07,0.11 h -1.84 l -0.14,-0.12 c -0.5,-1.48 -0.76,-2.22 -1.26,-3.7 h -6.42 l -1.25,3.69 -0.11,0.11 h -1.87 l -0.07,-0.12 z m 3.77,9.74 c -0.95,-2.84 -1.43,-4.25 -2.39,-7.09 l -0.23,-1 -0.23,1 -2.4,7 z"
     id="path220"
     style="fill:#043d04;stroke:#043d04;stroke-width:2.28px;stroke-linecap:round;stroke-linejoin:round" />
  <path
     class="cls-17"
     d="m 260.24122,146.08338 0.12,-0.11 4.19,0.2 c 2.62,0.12 5,1 5,4.18 a 3.05,3.05 0 0 1 -2.14,3.12 4,4 0 0 1 2.56,3.9 c 0,3.19 -2.44,4.43 -5,4.31 l -4.6,-0.22 -0.12,-0.12 z m 4.33,6.42 c 1.59,0.08 3.08,-0.28 3.08,-2.14 0,-1.86 -1.49,-2.35 -3.08,-2.43 l -2.39,-0.11 v 4.57 z m 0.14,7.4 c 1.65,0.08 3.33,-0.55 3.33,-2.63 0,-2.08 -1.65,-2.91 -3.33,-3 l -2.53,-0.12 v 5.63 z"
     id="path222"
     style="fill:#043d04;stroke:#043d04;stroke-width:2.28px;stroke-linecap:round;stroke-linejoin:round" />
  <path
     class="cls-17"
     d="m 293.19122,148.13338 0.14,-0.1 1.93,-0.11 0.14,0.1 c 2.18,6.33 3.26,9.5 5.44,15.84 l -0.07,0.11 -1.84,-0.14 -0.13,-0.13 -1.27,-3.79 c -2.56,-0.2 -3.84,-0.29 -6.41,-0.47 -0.49,1.44 -0.74,2.16 -1.24,3.6 l -0.11,0.11 -1.86,-0.13 -0.07,-0.12 z m 3.77,10 c -1,-2.9 -1.43,-4.35 -2.39,-7.25 l -0.23,-1 c -0.09,0.39 -0.14,0.58 -0.23,1 -0.95,2.76 -1.43,4.14 -2.39,6.9 z"
     id="path224"
     style="fill:#043d04;stroke:#043d04;stroke-width:2.28px;stroke-linecap:round;stroke-linejoin:round" />
  <path
     class="cls-17"
     d="m 322.12122,159.05338 -4.65,-8.86 0.11,-0.15 1.93,-0.07 0.14,0.1 3.07,6.4 0.37,0.93 0.39,-0.86 c 1.16,-2.2 1.74,-3.29 2.91,-5.49 l 0.11,-0.13 2.09,-0.06 0.14,0.11 -4.68,8.27 v 6.68 l -0.11,0.1 -1.7,-0.16 -0.12,-0.13 z"
     id="path226"
     style="fill:#043d04;stroke:#043d04;stroke-width:2.28px;stroke-linecap:round;stroke-linejoin:round" />
  <path
     class="cls-2"
     d="m 63.621219,147.02338 q -18.87,2.17 -37.63,4.9 a 6.48,6.48 0 0 0 -5.22,6.05 v 17.05 a 3.29,3.29 0 0 0 0.89,2.39 3.1,3.1 0 0 0 2.25,0.86 4.41,4.41 0 0 0 0.7,-0.06 q 19.44,-2.83 39,-5.06 z"
     id="path228"
     style="fill:#19ce22" />
  <path
     class="cls-2"
     d="m 385.02122,151.92338 q -16.87,-2.47 -33.86,-4.47 v 26.14 q 17.67,2.06 35.25,4.63 a 5.29,5.29 0 0 0 0.67,0.05 3,3 0 0 0 3.15,-3.25 v -17.05 a 6.48,6.48 0 0 0 -5.21,-6.05 z"
     id="path230"
     style="fill:#19ce22" />
  <path
     class="cls-18"
     d="m 100.45122,277.32338 -51.360001,23.25 54.000001,-13.38 q -1.55,-4.84 -2.64,-9.87 z"
     id="path232"
     style="fill:#ffb164" />
  <path
     class="cls-18"
     d="m 124.15122,324.78338 -29.910001,32.74 36.090001,-26.17 a 95.54,95.54 0 0 1 -6.18,-6.57 z"
     id="path234"
     style="fill:#ffb164" />
  <path
     class="cls-18"
     d="m 312.67122,277.68338 c -0.73,3.29 -1.62,6.53 -2.64,9.71 l 53.21,13.18 z"
     id="path236"
     style="fill:#ffb164" />
  <path
     class="cls-18"
     d="m 288.63122,325.26338 c -1.94,2.23 -4,4.38 -6.09,6.45 l 35.56,25.81 z"
     id="path238"
     style="fill:#ffb164" />
  <path
     class="cls-18"
     d="m 232.33122,359.60338 15.63,46.46 -5.16,-49.54 a 109.41,109.41 0 0 1 -10.47,3.08 z"
     id="path240"
     style="fill:#ffb164" />
  <path
     class="cls-18"
     d="m 169.56122,356.18338 -5.16,49.88 15.7,-46.66 a 107,107 0 0 1 -10.54,-3.22 z"
     id="path242"
     style="fill:#ffb164" />
  <path
     class="cls-19"
     d="m 83.441219,250.52338 25.000001,9.37 a 98.13,98.13 0 0 0 195.39,-0.19 l 24.5,-9.18 c -127,-19.41 -244.890001,0 -244.890001,0 z"
     id="path244"
     style="fill:#ed8721;stroke:#cc6c15;stroke-width:5.99px;stroke-miterlimit:10" />
  <path
     class="cls-1"
     id="polyline246"
     style="fill:#ed8721"
     d="m 119.75122,286.98338 -58.880001,52.85 71.640001,-36.31" />
  <path
     class="cls-1"
     id="polyline248"
     style="fill:#ed8721"
     d="m 154.09122,320.42338 -36.3,71.42 52.01,-59.86" />
  <path
     class="cls-1"
     id="polyline250"
     style="fill:#ed8721"
     d="m 194.82122,347.68338 12.76,54.95 6.87,-60.84" />
  <path
     class="cls-1"
     id="polyline252"
     style="fill:#ed8721"
     d="m 292.58122,286.98338 58.88,52.85 -71.64,-36.31" />
  <path
     class="cls-1"
     id="polyline254"
     style="fill:#ed8721"
     d="m 258.23122,320.42338 36.31,71.42 -52.01,-59.86" />
  <g
     id="zGdNp5.tif"
     transform="translate(-83.668781,-298.47662)">
    <path
       d="m 265.15,558 c 1.33,3.75 4.14,4.41 7.84,4.52 10.26,0.32 20.51,1.11 30.77,1.66 2.3,0.13 4.51,0.25 5,3.45 1.48,-1.19 1.26,-2.32 1.15,-3.58 -0.25,-2.54 1.29,-3.65 3.71,-2.83 0.09,0 0.18,0.14 0.27,0.14 5.36,0 6.6,3.66 7.7,8 2.16,8.66 4.89,17.14 10.59,24.32 1.29,1.62 2.27,3.48 1.26,5.81 -0.51,1.17 0,2.48 0.58,3.64 l 7.41,16 v 11.35 c -0.75,3.12 -0.9,6.41 -2.72,9.22 a 6.23,6.23 0 0 0 -1.41,3.76 c 0.23,2.75 -1.17,4.26 -3.44,5.31 H 327 c -1.31,-2.35 -3.33,-4.2 -4.51,-6.66 -0.86,-1.8 -2.11,-3.5 -4.28,-3.89 -3.14,-0.56 -4.5,-2.69 -5.34,-5.47 -0.57,-1.88 -1,-4 -3.6,-4.22 -0.39,0 -1.07,-0.71 -1,-1 0.58,-4.74 -3.94,-6.41 -5.93,-9.52 -4.19,-6.55 -6.23,-13 -3.08,-20.52 a 9.78,9.78 0 0 0 -0.55,-8.22 c -0.37,-0.76 -0.73,-1.6 -1.68,-1.74 -3.71,-0.57 -5.58,-3.67 -7.58,-6.13 -2.39,-3 -4.66,-5.83 -8.2,-7.4 -2.18,-1 -3.8,-0.52 -5.92,1 -4.28,3 -9.12,5.11 -14.63,4.61 a 2,2 0 0 1 -1.86,-1.45 c -1.8,-5 -6,-6.75 -10.7,-8 -6,-1.64 -12,-1.44 -18,-0.45 -1.66,0.27 -3,0.37 -2.28,-2.18 0.72,-2.55 -0.88,-4.37 -3,-5.69 -0.71,-3.23 0.54,-3.94 3.79,-3.88 12.12,0.16 24.35,0.04 36.5,0.04 z"
       id="path256"
       style="fill:#ffffff" />
  </g>
  <circle
     cx="215.75122"
     cy="313.7334"
     r="6.6399999"
     id="circle259"
     style="fill:#043d04;stroke:#043d04;stroke-width:3.02px;stroke-linecap:round;stroke-linejoin:round" />
  <path
     class="cls-22"
     id="line261"
     style="fill:none;stroke:#f7e494;stroke-width:5.35px;stroke-miterlimit:10"
     d="M 322.57842,72.684125 355.7955,50.398191" />
  <path
     class="cls-22"
     id="line263"
     style="fill:none;stroke:#f7e494;stroke-width:5.35px;stroke-miterlimit:10"
     d="M 328.76361,85.428992 364.98687,59.365138" />
  <path
     class="cls-22"
     id="line265"
     style="fill:none;stroke:#f7e494;stroke-width:5.35px;stroke-miterlimit:10"
     d="M 348.00503,88.838081 383.18559,61.397367" />
  <path
     class="cls-22"
     id="line267"
     style="fill:none;stroke:#f7e494;stroke-width:5.35px;stroke-miterlimit:10"
     d="M 363.22308,94.678442 396.74886,70.468784" />
  <path
     class="cls-24"
     id="line273"
     style="fill:none;stroke:#ffffff;stroke-width:2.99px;stroke-miterlimit:10"
     d="m 364.35122,71.603382 5.52,-16.41" />
  <path
     style="fill:#ed8721;fill-opacity:1;stroke:#cc6c15;stroke-width:1.1;stroke-linecap:butt;stroke-linejoin:miter;stroke-miterlimit:4;stroke-dasharray:none;stroke-opacity:1"
     d="m 345.13421,72.071912 c -0.46527,-0.850437 -0.84825,-1.751857 -1.05988,-2.697865 -0.15881,-0.709881 -0.21991,-1.444416 -0.14453,-2.167927 0.13155,-1.262661 0.66824,-2.441254 1.15623,-3.613211 1.45514,-3.494667 2.53629,-7.146026 4.19133,-10.550579 1.20579,-2.480421 2.70656,-4.808442 4.33585,-7.033718 3.92681,-5.363228 8.63443,-10.170305 14.01926,-14.067438 8.6501,-6.260294 19.066,-10.104614 29.72469,-10.743283 8.73366,-0.523322 17.53007,1.081066 25.72607,4.143149 2.58772,0.966789 5.12713,2.080604 7.51548,3.468684 0.22158,0.128781 0.44214,0.260103 0.65038,0.409497 1.14109,0.818625 1.84541,2.14356 2.14834,3.514862 0.30293,1.371302 0.23969,2.796763 0.0919,4.193323 -0.10607,1.002059 -0.25493,1.999873 -0.45768,2.986922 -0.7043,3.428738 -2.05204,6.69504 -3.61321,9.827936 -3.75857,7.542548 -8.84819,14.485754 -15.31568,19.888382 -7.98068,6.666671 -17.92585,10.83584 -28.20639,12.39991 -7.69288,1.170387 -15.62728,0.911453 -23.16466,-1.02197 -4.60486,-1.181199 -9.03766,-2.975641 -13.28562,-5.109853 -1.07456,-0.539868 -2.1573,-1.115739 -2.99778,-1.97581 -0.53052,-0.542885 -0.94973,-1.185094 -1.31405,-1.851011 z"
     id="path1577"
     inkscape:path-effect="#path-effect1579"
     inkscape:original-d="m 345.13421,72.071912 c -0.43902,-0.618003 -0.70559,-1.797576 -1.05988,-2.697865 -0.35429,-0.900288 -0.0953,-1.444284 -0.14453,-2.167927 -0.0492,-0.723642 0.77182,-2.407807 1.15623,-3.613211 0.38441,-1.205404 2.79522,-7.032719 4.19133,-10.550579 1.3961,-3.517859 2.89156,-4.688146 4.33585,-7.033718 1.44428,-2.345573 9.34717,-9.377292 14.01926,-14.067438 4.67209,-4.690146 19.81746,-7.161189 29.72469,-10.743283 9.90723,-3.582094 17.15171,2.7631 25.72607,4.143149 8.57435,1.38005 5.01132,2.313456 7.51548,3.468684 2.50416,1.155227 0.43458,0.273998 0.65038,0.409497 0.21579,0.135499 1.49446,5.13979 2.24019,7.708185 0.74573,2.568395 -0.30412,1.992281 -0.45768,2.986922 -0.15355,0.99464 -2.4078,6.552957 -3.61321,9.827936 -1.2054,3.274978 -10.20945,13.259921 -15.31568,19.888382 -5.10623,6.628461 -18.80326,8.267607 -28.20639,12.39991 -9.40313,4.132304 -15.44211,-0.680313 -23.16466,-1.02197 -7.72256,-0.341657 -8.85608,-3.405569 -13.28562,-5.109853 -4.42954,-1.704285 -1.99752,-1.316207 -2.99778,-1.97581 -1.00026,-0.659604 -0.87504,-1.233007 -1.31405,-1.851011 z" />
  <path
     style="fill:none;stroke:#ffffff;stroke-width:1.4;stroke-linecap:round;stroke-linejoin:miter;stroke-miterlimit:4;stroke-dasharray:none;stroke-opacity:1"
     d="m 363.0723,39.618777 c 7.74486,-7.239306 17.46631,-12.342858 27.82323,-14.606609 1.62494,-0.35517 3.26484,-0.641912 4.91389,-0.859213"
     id="path1581"
     inkscape:path-effect="#path-effect1583"
     inkscape:original-d="m 363.0723,39.618777 c 9.27539,-4.8679 18.5498,-9.73677 27.82323,-14.606609 9.27345,-4.86984 3.27691,-0.571839 4.91389,-0.859213" />
  <path
     style="fill:none;stroke:#ffffff;stroke-width:1.4;stroke-linecap:round;stroke-linejoin:miter;stroke-miterlimit:4;stroke-dasharray:none;stroke-opacity:1"
     d="m 362.45913,37.540769 1.56702,3.747226"
     id="path1585"
     inkscape:path-effect="#path-effect1587"
     inkscape:original-d="m 362.45913,37.540769 c 0.52334,1.250075 1.04568,2.49915 1.56702,3.747226" />
  <path
     style="fill:none;stroke:#ffffff;stroke-width:1.4;stroke-linecap:round;stroke-linejoin:miter;stroke-miterlimit:4;stroke-dasharray:none;stroke-opacity:1"
     d="m 366.54702,34.37266 1.90767,3.679095"
     id="path1589"
     inkscape:path-effect="#path-effect1591"
     inkscape:original-d="m 366.54702,34.37266 c 0.63689,1.227365 1.27278,2.45373 1.90767,3.679095" />
  <path
     style="fill:none;stroke:#ffffff;stroke-width:1.4;stroke-linecap:round;stroke-linejoin:miter;stroke-miterlimit:4;stroke-dasharray:none;stroke-opacity:1"
     d="m 370.4305,31.340814 2.04394,4.224145"
     id="path1593"
     inkscape:path-effect="#path-effect1595"
     inkscape:original-d="m 370.4305,31.340814 c 0.68231,1.409048 1.36363,2.817097 2.04394,4.224145" />
  <path
     style="fill:none;stroke:#ffffff;stroke-width:1.4;stroke-linecap:round;stroke-linejoin:miter;stroke-miterlimit:4;stroke-dasharray:none;stroke-opacity:1"
     d="m 375.13157,28.615559 1.70328,4.496671"
     id="path1597"
     inkscape:path-effect="#path-effect1599"
     inkscape:original-d="m 375.13157,28.615559 c 0.56876,1.49989 1.13652,2.998781 1.70328,4.496671" />
  <path
     style="fill:none;stroke:#ffffff;stroke-width:1.4;stroke-linecap:round;stroke-linejoin:miter;stroke-miterlimit:4;stroke-dasharray:none;stroke-opacity:1"
     d="m 379.69637,26.503486 2.14614,4.394474"
     id="path1601"
     inkscape:path-effect="#path-effect1603"
     inkscape:original-d="m 379.69637,26.503486 c 0.71638,1.465825 1.43176,2.93065 2.14614,4.394474" />
  <path
     style="fill:none;stroke:#ffffff;stroke-width:1.4;stroke-linecap:round;stroke-linejoin:miter;stroke-miterlimit:4;stroke-dasharray:none;stroke-opacity:1"
     d="m 385.01061,24.663939 1.80549,4.598868"
     id="path1605"
     inkscape:path-effect="#path-effect1607"
     inkscape:original-d="m 385.01061,24.663939 c 0.60283,1.533956 1.20466,3.066912 1.80549,4.598868" />
  <path
     style="fill:none;stroke:#ffffff;stroke-width:1.4;stroke-linecap:round;stroke-linejoin:miter;stroke-miterlimit:4;stroke-dasharray:none;stroke-opacity:1"
     d="m 390.2908,23.267246 1.66921,4.42854"
     id="path1609"
     inkscape:path-effect="#path-effect1611"
     inkscape:original-d="m 390.2908,23.267246 c 0.5574,1.47718 1.11381,2.95336 1.66921,4.42854" />
  <path
     style="fill:none;stroke:#ffffff;stroke-width:1.4;stroke-linecap:round;stroke-linejoin:miter;stroke-miterlimit:4;stroke-dasharray:none;stroke-opacity:1"
     d="m 395.19625,22.381538 1.77142,4.19008"
     id="path1613"
     inkscape:path-effect="#path-effect1615"
     inkscape:original-d="m 395.19625,22.381538 c 0.59148,1.397694 1.18195,2.794387 1.77142,4.19008" />
  <path
     style="opacity:0.617886;fill:none;stroke:#cc6c15;stroke-width:1px;stroke-linecap:butt;stroke-linejoin:miter;stroke-opacity:1"
     d="m 346.77219,74.095311 c 18.15644,3.407869 37.41857,0.616755 53.86095,-7.804538 13.53765,-6.933577 25.13061,-17.616625 33.14519,-30.543683"
     id="path1748"
     inkscape:path-effect="#path-effect1750"
     inkscape:original-d="m 346.77219,74.095311 c 17.95465,-2.600513 35.9083,-5.202025 53.86095,-7.804538 17.95265,-2.602512 22.09779,-20.361455 33.14519,-30.543683" />
</svg>
