<?xml version="1.0" encoding="UTF-8" standalone="no"?>
<svg
   id="Layer_1"
   data-name="Layer 1"
   viewBox="0 0 365.23166 347.88998"
   version="1.1"
   sodipodi:docname="VB.svg"
   inkscape:version="1.1.1 (3bf5ae0d25, 2021-09-20)"
   width="365.23166"
   height="347.88998"
   xmlns:inkscape="http://www.inkscape.org/namespaces/inkscape"
   xmlns:sodipodi="http://sodipodi.sourceforge.net/DTD/sodipodi-0.dtd"
   xmlns="http://www.w3.org/2000/svg"
   xmlns:svg="http://www.w3.org/2000/svg"
   xmlns:rdf="http://www.w3.org/1999/02/22-rdf-syntax-ns#"
   xmlns:cc="http://creativecommons.org/ns#"
   xmlns:dc="http://purl.org/dc/elements/1.1/">
  <metadata
     id="metadata572">
    <rdf:RDF>
      <cc:Work
         rdf:about="">
        <dc:format>image/svg+xml</dc:format>
        <dc:type
           rdf:resource="http://purl.org/dc/dcmitype/StillImage" />
        <dc:title />
      </cc:Work>
    </rdf:RDF>
  </metadata>
  <sodipodi:namedview
     pagecolor="#ffffff"
     bordercolor="#666666"
     borderopacity="1"
     objecttolerance="10"
     gridtolerance="10"
     guidetolerance="10"
     inkscape:pageopacity="0"
     inkscape:pageshadow="2"
     inkscape:window-width="1920"
     inkscape:window-height="1017"
     id="namedview570"
     showgrid="false"
     inkscape:zoom="2.2250293"
     inkscape:cx="331.90574"
     inkscape:cy="188.98628"
     inkscape:window-x="-8"
     inkscape:window-y="-8"
     inkscape:window-maximized="1"
     inkscape:current-layer="Layer_1"
     inkscape:pagecheckerboard="0" />
  <defs
     id="defs7">
    <style
       id="style2">.cls-1,.cls-17,.cls-20,.cls-22,.cls-25,.cls-28,.cls-34,.cls-35,.cls-36,.cls-37,.cls-40,.cls-45{fill:none;}.cls-2{opacity:0.2;}.cls-3{fill:#a6a6a6;}.cls-12,.cls-26,.cls-30,.cls-4,.cls-41{fill:#fff;}.cls-24,.cls-47,.cls-5,.cls-50,.cls-51{fill:#efac14;}.cls-28,.cls-29,.cls-39,.cls-41,.cls-43,.cls-45,.cls-47,.cls-5,.cls-51,.cls-6,.cls-7{stroke:#cc761f;}.cls-12,.cls-13,.cls-14,.cls-15,.cls-16,.cls-17,.cls-18,.cls-19,.cls-20,.cls-22,.cls-25,.cls-26,.cls-27,.cls-28,.cls-29,.cls-30,.cls-31,.cls-34,.cls-35,.cls-36,.cls-37,.cls-39,.cls-40,.cls-41,.cls-42,.cls-43,.cls-45,.cls-47,.cls-48,.cls-49,.cls-5,.cls-51,.cls-52,.cls-6,.cls-7{stroke-miterlimit:10;}.cls-5{stroke-width:11.28px;}.cls-43,.cls-46,.cls-6{fill:#ea9e42;}.cls-29,.cls-6,.cls-7{stroke-width:5.98px;}.cls-39,.cls-7,.cls-9{fill:#f9b973;}.cls-8{fill:#5da3c1;}.cls-10{fill:#8bbfd1;}.cls-11{clip-path:url(#clip-path);}.cls-12,.cls-13,.cls-14,.cls-15,.cls-16,.cls-17,.cls-18,.cls-19,.cls-20,.cls-26,.cls-27,.cls-34,.cls-48,.cls-52{stroke:#594330;}.cls-12,.cls-13,.cls-14,.cls-15,.cls-16,.cls-17,.cls-18,.cls-19,.cls-20,.cls-22,.cls-25,.cls-26,.cls-27,.cls-31{stroke-width:3.59px;}.cls-13,.cls-21,.cls-27,.cls-48,.cls-52{fill:#594330;}.cls-13,.cls-20,.cls-26{opacity:0.3;}.cls-14{fill:#99927f;}.cls-15,.cls-42{fill:#b29e6d;}.cls-16{fill:#827a65;}.cls-18{fill:#6b594d;}.cls-19{fill:#d3b19b;}.cls-22{stroke:#9c4732;}.cls-23{fill:#9c4732;}.cls-25{stroke:#8c705d;}.cls-28{stroke-width:10.72px;}.cls-29{fill:#ed9b2f;}.cls-30,.cls-36{stroke:#fff;}.cls-30{stroke-width:15.31px;}.cls-31{fill:#dd660e;}.cls-31,.cls-35{stroke:#dd660e;}.cls-32{fill:#f9a86b;}.cls-33{fill:#fc7e15;}.cls-34,.cls-35{stroke-width:5.08px;}.cls-36,.cls-37{stroke-width:5.1px;}.cls-37,.cls-40,.cls-50{stroke:#efac14;}.cls-38{fill:#cc761f;}.cls-39{stroke-width:5.24px;}.cls-40{stroke-width:5.59px;}.cls-41,.cls-43,.cls-45{stroke-width:4.77px;}.cls-42{stroke:#7c6a41;stroke-width:5.2px;}.cls-44{fill:#d88a35;}.cls-47{stroke-width:8.32px;}.cls-48{stroke-width:1.04px;}.cls-49{fill:#4088b0;stroke:#8bbfd1;stroke-width:12.28px;}.cls-50{stroke-linecap:round;stroke-linejoin:round;stroke-width:3.68px;}.cls-51{stroke-width:11.78px;}.cls-52{stroke-width:1.47px;}</style>
    <clipPath
       id="clip-path">
      <ellipse
         class="cls-1"
         cx="498.64999"
         cy="366.22"
         rx="111.17"
         ry="136.39"
         id="ellipse4"
         style="fill:none" />
    </clipPath>
    <clipPath
       clipPathUnits="userSpaceOnUse"
       id="clipPath7807">
      <path
         id="path7809"
         style="fill:#ff0000;fill-opacity:1;fill-rule:nonzero;stroke:none"
         d="M 189.51953,153.71094 V 289.7207 H 295.67969 V 153.71094 Z m 57.45899,58.25 5.35351,1.70312 c -0.0693,0.20662 -0.12803,0.41799 -0.20703,0.6211 -0.33471,0.86061 -0.74515,1.68804 -1.17773,2.5039 1.01126,0.19611 2.0087,0.42588 2.90625,0.90821 0.21014,0.11293 0.0184,0.7197 -0.19727,1.2832 0.1527,0.0529 0.30533,0.10536 0.45898,0.1543 l -0.56054,0.0976 c -0.0837,0.2045 -0.19083,0.48725 -0.22071,0.56055 -0.20811,0.43454 -0.40159,0.87483 -0.62304,1.30273 -0.01,0.0186 -0.0579,0.0986 -0.0723,0.125 0.24768,0.0711 0.4953,0.14111 0.74219,0.21485 0.0409,0.0122 -0.0796,0.0363 -0.10547,0.0703 -0.21288,0.27899 -0.41298,0.5679 -0.60547,0.86133 -1.08332,1.65139 -0.92811,1.45089 -1.8418,3.16015 -0.45741,0.83013 -1.63017,3.00974 -2.23632,3.95313 -0.49128,0.7646 -0.99423,1.52503 -1.53711,2.25391 -0.19171,0.25737 -0.44646,0.45957 -0.66211,0.69726 -0.29768,0.32809 -0.59885,0.65514 -0.87696,1 -0.19972,0.24768 -0.36997,0.51632 -0.55468,0.77539 -0.23248,0.33958 -0.47328,0.67429 -0.69727,1.01953 -0.14672,0.22615 -0.27387,0.46504 -0.41406,0.69532 -0.65597,1.0774 -1.3293,2.1575 -2.20313,3.07617 l -0.51367,-0.45508 c -0.10879,0.10144 -0.22043,0.20069 -0.33789,0.29492 l -0.0273,-0.0293 c -0.0353,0.028 -0.0701,0.0566 -0.10547,0.084 -0.0447,0.0346 -0.09,0.0672 -0.13477,0.10156 -0.0137,0.0106 -0.0274,0.0209 -0.041,0.0312 -5e-4,4e-4 -10e-4,-4e-4 -0.002,0 -0.0201,0.0161 -0.0488,0.0415 -0.0703,0.0606 -0.008,0.008 -0.0174,0.0144 -0.0254,0.0234 -0.008,0.009 -0.0145,0.0183 -0.0215,0.0273 -0.0301,0.0409 -0.0223,0.0328 -0.0469,0.0644 l -0.0332,-0.0254 c -0.0396,0.0289 -0.0663,0.0458 -0.10938,0.0801 -0.01,0.008 -0.0183,0.0174 -0.0273,0.0254 -0.0381,0.0343 -0.0288,0.025 -0.0566,0.0488 L 240,239.2207 c -0.006,0.006 -0.0129,0.0109 -0.0195,0.0156 l -3.33203,-4.28321 -0.10156,-0.0586 c 0.008,-0.0136 0.0157,-0.0274 0.0234,-0.041 l -0.0391,-0.0508 c 0.0362,-0.0282 0.0739,-0.0551 0.11133,-0.082 0.36376,-0.6397 0.71527,-1.29248 1.04687,-1.95312 0.0394,-0.0925 0.11407,-0.25529 0.49414,-1.13867 0.14034,-0.34777 0.29649,-0.68829 0.46875,-1.01953 0.40898,-0.97032 0.82044,-1.94049 1.22266,-2.91016 0.0898,-0.2159 0.17802,-0.43247 0.26758,-0.64844 0.14969,-0.54512 0.29929,-1.09027 0.45117,-1.63476 0.38609,-1.35659 0.56731,-2.72188 1.53711,-3.84571 l 0.22461,0.16797 c 0.25239,-0.60112 0.50167,-1.20309 0.75781,-1.80273 0.23427,-0.54846 0.45518,-1.10484 0.70899,-1.64453 0.32928,-0.70016 0.69228,-1.38257 1.03906,-2.07422 0.74893,-1.34817 0.65493,-1.15184 1.38867,-2.58203 0.27497,-0.53595 0.57668,-1.08546 0.72852,-1.67383 z m 3.49218,5.70117 c -0.0319,0.058 -0.064,0.11575 -0.0957,0.17383 0.18308,0.0502 0.36556,0.10436 0.54688,0.16211 z m 2.29102,1.71094 -0.32813,0.0566 c 0.2497,0.084 0.45177,0.144 0.72852,0.24219 z" />
    </clipPath>
  </defs>
  <rect
     class="cls-5"
     x="-342.25"
     y="5.6399999"
     width="336.60999"
     height="286.17001"
     rx="5.6399999"
     transform="rotate(-90)"
     id="rect193"
     style="fill:#efac14;stroke:#cc761f;stroke-width:11.27999973px;stroke-miterlimit:10" />
  <rect
     class="cls-6"
     x="21.599983"
     y="21.599972"
     width="254.25999"
     height="304.69"
     id="rect195"
     style="fill:#ea9e42;stroke:#cc761f;stroke-width:5.98000002px;stroke-miterlimit:10" />
  <ellipse
     class="cls-7"
     cx="148.73"
     cy="173.94998"
     rx="127.13"
     ry="152.35001"
     id="ellipse197"
     style="fill:#f9b973;stroke:#cc761f;stroke-width:5.98000002px;stroke-miterlimit:10" />
  <ellipse
     class="cls-8"
     cx="148.73"
     cy="173.94998"
     rx="111.17"
     ry="136.39"
     id="ellipse199"
     style="fill:#5da3c1" />
  <path
     class="cls-9"
     d="m 148.72999,310.33998 c 38.73,0 72.89,-24.43 92.8,-61.38 H 55.929995 c 19.91,36.95 54.069995,61.38 92.799995,61.38 z"
     id="path201"
     inkscape:connector-curvature="0"
     style="fill:#f9b973" />
  <path
     class="cls-10"
     d="M 38.079995,161.40998 H 259.47999 c -5.18,-69.350004 -52.85,-123.850004 -110.7,-123.850004 -57.849995,0 -105.569995,54.5 -110.699995,123.850004 z"
     id="path203"
     inkscape:connector-curvature="0"
     style="fill:#8bbfd1" />
  <g
     class="cls-11"
     clip-path="url(#clip-path)"
     id="g335"
     transform="translate(-349.92001,-192.27002)">
    <path
       class="cls-4"
       d="m 549.81,342.45 a 43.13,43.13 0 0 0 -2.55,-9.32 l 0.23,-0.23 -2.33,-4.2 -0.51,-0.89 c -0.27,-0.45 -0.53,-0.88 -0.8,-1.3 l -0.1,-0.15 v -0.06 a 8.16,8.16 0 0 0 2.17,-4.95 c 0.5,-4.7 -2,-11.55 -8.49,-15.53 a 16.83,16.83 0 0 0 3.58,-9.64 c 0,-0.23 -1.26,-21.1 -11,-28.16 -1.45,-5.09 -4.93,-14.56 -11.63,-19 -1.5,-1 -2.91,-2.14 -4.4,-3.33 -4.86,-3.9 -10.31,-8.31 -19.56,-8.1 -10.63,0.26 -25.67,8 -30.52,14.13 -0.44,0.56 -0.92,1.14 -1.41,1.75 -3.69,4.5 -8.74,10.67 -8.74,18.19 0,0.46 -1.51,1.92 -2.23,2.63 -2,2 -5.29,5.11 -5,9.75 -0.24,0.3 -0.53,0.64 -0.77,0.93 -2.1,2.47 -6.1,7.17 -4.88,14 l -0.07,0.09 -0.13,0.18 c -0.14,0.19 -0.28,0.38 -0.39,0.55 l -0.25,0.36 c -0.13,0.2 -0.27,0.4 -0.35,0.54 l -0.26,0.4 -0.43,0.71 -0.24,0.43 -0.36,0.66 -0.13,0.25 a 34.41,34.41 0 0 0 -1.48,3.3 l -0.13,0.34 -0.27,0.77 -1.91,5.88 0.43,0.21 c -1,6.85 -0.46,16.08 4.53,27.63 -4.85,1.8 -9.44,3.63 -13.68,5.47 -12.58,5.46 -18.1,9.24 -18.33,9.4 l -0.79,0.54 -21.06,26.81 -5.86,32.51 9.62,11.19 2.32,22.32 10.85,-14.85 31.16,-19 22.93,45.85 -20.74,42.16 76.11,6 24.52,-3.8 18,-14.69 -18.43,-57.28 -2.2,-25.51 4.84,-15.94 c 3.94,-9.52 6.81,-15.13 9.51,-22.57 l 8.87,-8.56 6.38,-15.38 z"
       id="path205"
       inkscape:connector-curvature="0"
       style="fill:#ffffff" />
    <polygon
       class="cls-4"
       points="391.65,449.48 408.88,442.48 429.13,430.1 442.46,460.95 420.77,502.44 458.6,505.44 474.16,436.5 450.3,390.02 387.09,405.68 "
       id="polygon207"
       style="fill:#ffffff" />
    <path
       class="cls-4"
       d="m 463.18,348.19 -7.65,10.21 1.35,1 7.88,-10 c -0.54,-0.4 -1.07,-0.83 -1.58,-1.21 z"
       id="path209"
       inkscape:connector-curvature="0"
       style="fill:#ffffff" />
    <path
       class="cls-4"
       d="m 468.12,352.16 -8.31,9.69 1.61,1.41 8.52,-9.5 z"
       id="path211"
       inkscape:connector-curvature="0"
       style="fill:#ffffff" />
    <path
       class="cls-4"
       d="m 460.35,346.15 -1.48,-1 -0.35,-0.21 -6.63,10.89 1.21,0.8 0.11,0.08 7.23,-10.52 z"
       id="path213"
       inkscape:connector-curvature="0"
       style="fill:#ffffff" />
    <path
       class="cls-4"
       d="m 461.1,346.68 h -0.05 l -7.33,10.45 v 0 l 1.13,0.81 7.53,-10.3 z"
       id="path215"
       inkscape:connector-curvature="0"
       style="fill:#ffffff" />
    <path
       class="cls-4"
       d="m 465.31,349.83 -8,10 c 0.62,0.49 1.26,1 1.92,1.58 l 8.23,-9.75 C 466.75,351 466,350.4 465.31,349.83 Z"
       id="path217"
       inkscape:connector-curvature="0"
       style="fill:#ffffff" />
    <path
       class="cls-4"
       d="m 550.69,360.19 c -2.72,7.36 -7.62,19.35 -11.33,28.32 v 0 l -7,16.78 -0.67,25.52 15,50.22 -15.59,12.75 -19.61,3 -70.49,-5.54 15.57,-29.77 -21.57,-49.93 -31.9,19.51 -0.53,0.22 -1,-9.4 -8.28,-9.63 4.15,-23.43 17.82,-22.69 a 128,128 0 0 1 15.42,-7.72 c 4.58,-2 9.6,-4 15,-5.91 0.34,0.14 0.74,0.31 1.2,0.53 l 0.6,-1.18 0.25,-0.09 -0.08,-0.23 2.37,-4.6 5,-2.93 c -9.09,-15.6 -8.73,-26 -6.83,-31.92 l 0.17,-0.5 0.11,-0.34 0.1,-0.25 a 19.4,19.4 0 0 1 0.9,-2 l 0.68,-1.2 1.56,-2.11 -4.71,-4.24 4.87,4.13 -4.61,-4.42 4.71,4.31 0.2,-0.2 v 0 l 3.58,-3.14 -2,-4.32 c -0.67,-1.44 -0.79,-1.7 1.66,-4.58 1.67,-2 4.11,-4.83 3.93,-8.76 0.32,-0.33 0.72,-0.72 1,-1 2.29,-2.21 6.12,-5.92 6.12,-11.79 0,-3 3.24,-6.92 5.85,-10.11 0.55,-0.66 1.07,-1.31 1.56,-1.92 2.27,-2.87 13.57,-9.11 20.81,-9.28 4.35,-0.11 6.84,1.74 11.27,5.29 1.63,1.32 3.33,2.68 5.3,4 3.11,2.08 6,9.62 7,14.06 l 0.8,3.71 3.5,1 c 2.2,1.53 4.91,10.54 5.55,15.78 l -5.26,4.52 0.66,3.63 4.26,-0.76 0.12,0.13 -4.36,0.79 0.09,0.46 a 27.06,27.06 0 0 1 -0.46,5.42 l -1,6.06 3.17,0.67 -0.38,4.13 -0.5,6.17 3.3,2.09 0.57,0.41 0.41,0.34 0.84,0.75 c 0.19,0.18 0.39,0.37 0.59,0.58 l 0.3,0.32 0.5,0.55 0.39,0.45 c 0.18,0.21 0.35,0.43 0.54,0.67 l 0.32,0.42 c 0.24,0.32 0.47,0.65 0.69,1 l 0.28,0.44 c 0.19,0.28 0.37,0.58 0.54,0.86 l 0.35,0.62 a 30.29,30.29 0 0 1 3.58,13 l 0.27,4.65 12.85,3.3 z"
       id="path219"
       inkscape:connector-curvature="0"
       style="fill:#ffffff" />
    <path
       class="cls-4"
       d="m 500.81,390.12 2.16,1.11 5.77,-11.38 -2.05,-1.06 z"
       id="path221"
       inkscape:connector-curvature="0"
       style="fill:#ffffff" />
    <path
       class="cls-4"
       d="m 502.45,376.55 -6.08,11.22 2.54,1.36 6,-11.28 z"
       id="path223"
       inkscape:connector-curvature="0"
       style="fill:#ffffff" />
    <path
       class="cls-4"
       d="m 497.64,373.87 v 0 l -0.15,-0.09 h -0.08 v 0 h -0.05 l -0.43,-0.25 v 0 l -0.16,-0.09 -1.31,-0.76 c -1.78,-1 -3.52,-2.09 -5.15,-3.11 l -2.38,-1.57 -6.93,10.7 2.5,1.6 0.17,0.1 0.11,0.07 v 0 0 l 0.18,0.11 v 0 c 1.58,1 3.23,2 4.93,3 v 0 l 2.53,1.45 6.39,-11.03 z"
       id="path225"
       inkscape:connector-curvature="0"
       style="fill:#ffffff" />
    <path
       class="cls-4"
       d="m 473.14,356.72 c -0.86,-0.82 -1.69,-1.59 -2.5,-2.33 l -8.59,9.44 c 0.73,0.67 1.48,1.36 2.25,2.09 a 102.78,102.78 0 0 0 12.9,10.26 l 7.22,-10.52 a 90.24,90.24 0 0 1 -11.28,-8.94 z"
       id="path227"
       inkscape:connector-curvature="0"
       style="fill:#ffffff" />
    <path
       class="cls-12"
       d="m 531,322.05 c 0,0 11.88,7.21 12.93,25.48 l -17.39,6.47 -12.66,-16 5.47,-10.65"
       id="path229"
       inkscape:connector-curvature="0"
       style="fill:#ffffff;stroke:#594330;stroke-width:3.58999991px;stroke-miterlimit:10" />
    <path
       class="cls-13"
       d="m 531,322.05 -9.48,4.31 5.12,15.56 c 0,0 7.17,0.11 12.93,-10.13 A 27.48,27.48 0 0 0 531,322.05 Z"
       id="path231"
       inkscape:connector-curvature="0"
       style="opacity:0.3;fill:#594330;stroke:#594330;stroke-width:3.58999991px;stroke-miterlimit:10" />
    <path
       class="cls-14"
       d="M 445.59,345.74 C 420.75,354.56 411,361.33 411,361.33 l -19.48,24.79 5.64,54.26 8.88,-3.61 26.08,-15.95 17.45,40.39 -18.63,35.63 80.83,6.4 22.06,-3.42 L 554,483.28 538.08,430 l 0.61,-23.29 c 0,0 13.48,-31.86 18.38,-45.35 V 350.9 L 537,345.74 c 0,0 -7.63,31.41 -25.29,42.65 0,0 -28.51,-13.18 -43,-27.07 -14.49,-13.89 -23.12,-15.58 -23.12,-15.58 z"
       id="path233"
       inkscape:connector-curvature="0"
       style="fill:#99927f;stroke:#594330;stroke-width:3.58999991px;stroke-miterlimit:10" />
    <path
       class="cls-15"
       d="m 406,436.77 36.48,-22.31 c 0,0 13.46,-15.94 3.19,-35.06 C 435.4,360.28 411,361.33 411,361.33 l -19.48,24.79 -5,28 z"
       id="path235"
       inkscape:connector-curvature="0"
       style="fill:#b29e6d;stroke:#594330;stroke-width:3.58999991px;stroke-miterlimit:10" />
    <path
       class="cls-14"
       d="m 468.72,361.32 c 14.45,13.89 43,27.07 43,27.07 C 529.34,377.15 537,345.74 537,345.74 l -10.32,-3.82 h -41.19 c -14.41,0.77 -30.09,8.6 -30.09,8.6 v 0 a 91.13,91.13 0 0 1 13.32,10.8 z"
       id="path237"
       inkscape:connector-curvature="0"
       style="fill:#99927f;stroke:#594330;stroke-width:3.58999991px;stroke-miterlimit:10" />
    <path
       class="cls-16"
       d="m 537,345.74 -10.32,-3.82 h -7.56 l -14,10.63 L 515,386 c 15.3,-12.81 22,-40.26 22,-40.26 z"
       id="path239"
       inkscape:connector-curvature="0"
       style="fill:#827a65;stroke:#594330;stroke-width:3.58999991px;stroke-miterlimit:10" />
    <path
       class="cls-12"
       d="m 447.91,300.46 c 0,0 -17.19,14.47 1.61,46.74 l 5.88,3.32 c 0,0 15,-7.15 24.85,-7.06 l -1.49,-39.66"
       id="path241"
       inkscape:connector-curvature="0"
       style="fill:#ffffff;stroke:#594330;stroke-width:3.58999991px;stroke-miterlimit:10" />
    <path
       class="cls-17"
       d="m 511.68,388.39 c 0,0 3.57,48.23 4.23,58.19 0.66,9.96 10.63,52.94 10.63,52.94"
       id="path243"
       inkscape:connector-curvature="0"
       style="fill:none;stroke:#594330;stroke-width:3.58999991px;stroke-miterlimit:10" />
    <path
       class="cls-18"
       d="m 447.91,300.46 c 0,0 -2.41,5.4 1.61,7.65 4.02,2.25 17.08,5.89 17.08,5.89 0,0 1.58,23.7 10.81,27.95 0,0 13.27,7.4 19.13,9 0,0 10.23,0.23 15.14,0 4.91,-0.23 17.74,-11.7 17.74,-11.7 l 1.8,-19.37 c 0,0 5.48,2.25 7.47,2.25 1.99,0 1.31,-10.35 -9.27,-12.6 0,0 0.9,-5.18 0.45,-7.66 l 0.45,2.48 c 0,0 4.28,-4.06 4.28,-8.11 0,-4.05 -3.16,-21.84 -10.14,-23.86 0,0 -2.92,-13.51 -9.68,-18 -6.76,-4.49 -11,-10.58 -20.26,-10.35 -9.26,0.23 -22.29,7.43 -25.67,11.7 -3.38,4.27 -8.78,9.91 -8.78,16 0,6.09 -8.1,8.33 -7.2,12.61 0.9,4.28 -9.01,7.34 -4.96,16.12 z"
       id="path245"
       inkscape:connector-curvature="0"
       style="fill:#6b594d;stroke:#594330;stroke-width:3.58999991px;stroke-miterlimit:10" />
    <path
       class="cls-19"
       d="m 523.37,276.37 c 0,0 -2.26,-16.53 -12,-19.49 0,0 -4.18,0.87 -6.09,2.61 -1.91,1.74 -12.18,0.52 -16.53,0.7 -4.35,0.18 -9.58,-0.7 -10.1,7.65 -0.52,8.35 -3.53,19.84 -4.38,26.28 -0.85,6.44 5.43,11.49 9.25,11.83 3.82,0.34 2.27,4.88 2.27,4.88 0,0 11.13,1 16,1 4.87,0 15,-0.7 19.66,-2.61 4.66,-1.91 6.93,-15 4,-25.95 -2.93,-10.95 -2.08,-6.9 -2.08,-6.9 z"
       id="path247"
       inkscape:connector-curvature="0"
       style="fill:#d3b19b;stroke:#594330;stroke-width:3.58999991px;stroke-miterlimit:10" />
    <path
       class="cls-17"
       d="m 500.49,304 c 0,0 -4,2.84 -0.87,6.25 3.13,3.41 7.67,-1.56 7.67,-1.56 A 4.92,4.92 0 0 0 513,310 c 3.55,-1.42 0.14,-7 -0.86,-11.8 -1,-4.8 -2.41,-7.67 -1.42,-10.23 0,0 5.18,-5.82 15.24,-2.62"
       id="path249"
       inkscape:connector-curvature="0"
       style="fill:none;stroke:#594330;stroke-width:3.58999991px;stroke-miterlimit:10" />
    <ellipse
       class="cls-17"
       cx="493.13"
       cy="292.85999"
       rx="6"
       ry="3.1900001"
       id="ellipse251"
       style="fill:none;stroke:#594330;stroke-width:3.58999991px;stroke-miterlimit:10" />
    <ellipse
       class="cls-17"
       cx="517.07001"
       cy="292.85999"
       rx="6"
       ry="3.1900001"
       id="ellipse253"
       style="fill:none;stroke:#594330;stroke-width:3.58999991px;stroke-miterlimit:10" />
    <path
       class="cls-17"
       d="m 482,287.89 c 0,0 4.4,-5.84 10.45,-3.51 6.05,2.33 7.72,4.08 9.74,1.48 l 1.49,-1.49"
       id="path255"
       inkscape:connector-curvature="0"
       style="fill:none;stroke:#594330;stroke-width:3.58999991px;stroke-miterlimit:10" />
    <path
       class="cls-20"
       d="m 488.63,276.31 a 71.5,71.5 0 0 1 15.37,1.55 c 6.72,1.68 6.1,-1.22 13.31,-1.55"
       id="path257"
       inkscape:connector-curvature="0"
       style="opacity:0.3;fill:none;stroke:#594330;stroke-width:3.58999991px;stroke-miterlimit:10" />
    <path
       class="cls-20"
       d="m 490.67,269.13 a 53,53 0 0 1 12.57,1.55 c 6.72,1.68 3.42,-0.93 10.64,-1.27"
       id="path259"
       inkscape:connector-curvature="0"
       style="opacity:0.3;fill:none;stroke:#594330;stroke-width:3.58999991px;stroke-miterlimit:10" />
    <path
       class="cls-19"
       d="m 496.19,319.69 c 0,0 8.12,12.18 20.88,-0.54"
       id="path261"
       inkscape:connector-curvature="0"
       style="fill:#d3b19b;stroke:#594330;stroke-width:3.58999991px;stroke-miterlimit:10" />
    <path
       class="cls-17"
       d="m 507.49,311.87 v 6.21 a 75.66,75.66 0 0 0 11.33,1.08 c 4.3,-0.12 12.4,0.26 12.4,0.26"
       id="path263"
       inkscape:connector-curvature="0"
       style="fill:none;stroke:#594330;stroke-width:3.58999991px;stroke-miterlimit:10" />
    <path
       class="cls-17"
       d="m 485.79,310.83 c 0,0 -11.05,-1.32 -13.11,5.82 0,0 10.3,5.75 34.81,1.43"
       id="path265"
       inkscape:connector-curvature="0"
       style="fill:none;stroke:#594330;stroke-width:3.58999991px;stroke-miterlimit:10" />
    <circle
       class="cls-21"
       cx="490.85001"
       cy="292.95999"
       r="2.3599999"
       id="circle267"
       style="fill:#594330" />
    <circle
       class="cls-21"
       cx="514.71002"
       cy="292.85999"
       r="2.3599999"
       id="circle269"
       style="fill:#594330" />
    <line
       class="cls-22"
       x1="458.69"
       y1="393.20999"
       x2="482.37"
       y2="474.5"
       id="line271"
       style="fill:none;stroke:#9c4732;stroke-width:3.58999991px;stroke-miterlimit:10" />
    <path
       class="cls-23"
       d="m 517.39,499.23 c -0.09,-0.3 -9,-30.51 -11.53,-59.63 -2.51,-28.84 -7.56,-55.74 -7.61,-56 l 3.93,1.93 c 0.05,0.26 4.73,24.75 7.25,53.77 2.5,28.75 11.31,58.62 11.4,58.92 z"
       id="path273"
       inkscape:connector-curvature="0"
       style="fill:#9c4732" />
    <path
       class="cls-15"
       d="m 546.73,348.24 c 0,0 4.38,23.17 -0.48,40.15"
       id="path275"
       inkscape:connector-curvature="0"
       style="fill:#b29e6d;stroke:#594330;stroke-width:3.58999991px;stroke-miterlimit:10" />
    <path
       class="cls-23"
       d="m 515.56,500.77 c -6.82,-7.19 -19,-13.17 -38.74,-20.63 -15.26,-5.77 -29.8,-10.34 -29.94,-10.37 l 4.81,-9 a 289.51,289.51 0 0 1 28.84,9.23 c 21.58,8.16 34.85,14.86 42.91,23.36 l 1.54,5.89 z"
       id="path277"
       inkscape:connector-curvature="0"
       style="fill:#9c4732" />
    <circle
       class="cls-24"
       cx="520.63"
       cy="394.66"
       r="3.3699999"
       id="circle279"
       style="fill:#efac14" />
    <circle
       class="cls-24"
       cx="521.27002"
       cy="407.17001"
       r="3.3699999"
       id="circle281"
       style="fill:#efac14" />
    <circle
       class="cls-24"
       cx="522.13"
       cy="420.32001"
       r="3.3699999"
       id="circle283"
       style="fill:#efac14" />
    <circle
       class="cls-24"
       cx="523.03998"
       cy="433.57001"
       r="3.3699999"
       id="circle285"
       style="fill:#efac14" />
    <circle
       class="cls-24"
       cx="524"
       cy="448.38"
       r="3.3699999"
       id="circle287"
       style="fill:#efac14" />
    <circle
       class="cls-24"
       cx="527.09998"
       cy="462.06"
       r="3.3699999"
       id="circle289"
       style="fill:#efac14" />
    <circle
       class="cls-24"
       cx="530.54999"
       cy="476.59"
       r="3.3699999"
       id="circle291"
       style="fill:#efac14" />
    <circle
       class="cls-24"
       cx="534.88"
       cy="488.88"
       r="3.3699999"
       id="circle293"
       style="fill:#efac14" />
    <path
       class="cls-17"
       d="m 453.75,297.91 c 0,0 -2.18,5.2 1.65,4.95 3.83,-0.25 7,-4.26 8.71,0.86"
       id="path295"
       inkscape:connector-curvature="0"
       style="fill:none;stroke:#594330;stroke-width:3.58999991px;stroke-miterlimit:10" />
    <path
       class="cls-17"
       d="m 458.69,294.19 c 0,0 11.39,0.11 8.11,-4.52 -3.28,-4.63 -8.69,-7.44 -3.76,-9.55"
       id="path297"
       inkscape:connector-curvature="0"
       style="fill:none;stroke:#594330;stroke-width:3.58999991px;stroke-miterlimit:10" />
    <path
       class="cls-25"
       d="m 484.25,337.48 c 0,0 -0.63,-3.64 4.17,-6.7 4.8,-3.06 4.43,-4.59 4.43,-4.59"
       id="path299"
       inkscape:connector-curvature="0"
       style="fill:none;stroke:#8c705d;stroke-width:3.58999991px;stroke-miterlimit:10" />
    <path
       class="cls-25"
       d="m 518.27,341.53 c 0,0 -2.5,-2.71 -0.15,-7.89 2.35,-5.18 1.23,-6.27 1.23,-6.27"
       id="path301"
       inkscape:connector-curvature="0"
       style="fill:none;stroke:#8c705d;stroke-width:3.58999991px;stroke-miterlimit:10" />
    <path
       class="cls-25"
       d="m 491.81,341.78 c 0,0 4,1.58 4.38,-4.3 0.38,-5.88 3.08,-7.47 5.57,-7.93"
       id="path303"
       inkscape:connector-curvature="0"
       style="fill:none;stroke:#8c705d;stroke-width:3.58999991px;stroke-miterlimit:10" />
    <path
       class="cls-25"
       d="m 508.55,343.81 c 0,0 -4.08,-1.81 -1.92,-4.75 2.16,-2.94 4.84,-4.3 2.93,-8.37"
       id="path305"
       inkscape:connector-curvature="0"
       style="fill:none;stroke:#8c705d;stroke-width:3.58999991px;stroke-miterlimit:10" />
    <path
       class="cls-17"
       d="m 467.39,276.31 c 0,0 1.79,0.15 2.23,-5.07 0.44,-5.22 2.4,-10.24 6.1,-12.42"
       id="path307"
       inkscape:connector-curvature="0"
       style="fill:none;stroke:#594330;stroke-width:3.58999991px;stroke-miterlimit:10" />
    <path
       class="cls-25"
       d="m 497,255.41 c 0,0 1.34,-4.4 -2.93,-3 -4.27,1.4 -6.78,3.53 -9,1.36 0,0 -1.52,-1.73 1.42,-3.12"
       id="path309"
       inkscape:connector-curvature="0"
       style="fill:none;stroke:#8c705d;stroke-width:3.58999991px;stroke-miterlimit:10" />
    <polygon
       class="cls-23"
       points="393.72,395.83 391.01,393.48 417.46,363.18 421.98,364.23 "
       id="polygon311"
       style="fill:#9c4732" />
    <path
       class="cls-17"
       d="m 428.18,352.55 c 0,0 33.14,10 30.34,52 0,0 -2.55,10.43 -14,10.18"
       id="path313"
       inkscape:connector-curvature="0"
       style="fill:none;stroke:#594330;stroke-width:3.58999991px;stroke-miterlimit:10" />
    <path
       class="cls-21"
       d="m 511.68,350.89 5.66,17.43 c 0,0 6.53,-0.78 16.88,-23.25 l 2.75,0.67 c 0,0 -5.82,30.47 -22,40.21 l -9.87,-33.4"
       id="path315"
       inkscape:connector-curvature="0"
       style="fill:#594330" />
    <line
       class="cls-15"
       x1="517.34003"
       y1="348.47"
       x2="525.94"
       y2="361.32001"
       id="line317"
       style="fill:#b29e6d;stroke:#594330;stroke-width:3.58999991px;stroke-miterlimit:10" />
    <line
       class="cls-15"
       x1="522.47998"
       y1="345.73999"
       x2="532.02002"
       y2="351.66"
       id="line319"
       style="fill:#b29e6d;stroke:#594330;stroke-width:3.58999991px;stroke-miterlimit:10" />
    <line
       class="cls-26"
       x1="496.54001"
       y1="350.89001"
       x2="496.79001"
       y2="379.91"
       id="line321"
       style="opacity:0.3;fill:#ffffff;stroke:#594330;stroke-width:3.58999991px;stroke-miterlimit:10" />
    <line
       class="cls-26"
       x1="487.13"
       y1="346.98001"
       x2="480.25"
       y2="368.32001"
       id="line323"
       style="opacity:0.3;fill:#ffffff;stroke:#594330;stroke-width:3.58999991px;stroke-miterlimit:10" />
    <path
       class="cls-13"
       d="m 479.18,315.14 c -1.71,-4.27 -3.56,-8.4 -5.19,-11.85 l -26.08,-2.83 a 22,22 0 0 0 -5.78,9.66 c 7.83,11.13 21.79,28.33 35.28,31.8 a 9.88,9.88 0 0 0 2.79,0.35 z"
       id="path325"
       inkscape:connector-curvature="0"
       style="opacity:0.3;fill:#594330;stroke:#594330;stroke-width:3.58999991px;stroke-miterlimit:10" />
    <path
       class="cls-21"
       d="m 526.38,287.89 c 0,0 -0.32,16.9 -4.92,21.37 0,0 1.74,4.49 8,0.21 -0.04,0 1.54,-19.27 -3.08,-21.58 z"
       id="path327"
       inkscape:connector-curvature="0"
       style="fill:#594330" />
    <polyline
       class="cls-27"
       points="517.07 318.75 530.63 325.79 531.01 321.65"
       id="polyline329"
       style="fill:#594330;stroke:#594330;stroke-width:3.58999991px;stroke-miterlimit:10" />
    <path
       class="cls-27"
       d="M 554,483.28 538.08,430 l 0.61,-23.29 c 0,0 3.83,-9.06 8.15,-19.56 l -0.59,-3.46 -11.94,19.26 -2.31,27.25 15.33,58.52 z"
       id="path331"
       inkscape:connector-curvature="0"
       style="fill:#594330;stroke:#594330;stroke-width:3.58999991px;stroke-miterlimit:10" />
    <path
       class="cls-27"
       d="m 433.94,428.5 c 0,0 12.12,-7.28 17.11,-15 0,0 -6.6,0.73 -6.91,-1.41 l -4,3.77 -8.09,4.95"
       id="path333"
       inkscape:connector-curvature="0"
       style="fill:#594330;stroke:#594330;stroke-width:3.58999991px;stroke-miterlimit:10" />
  </g>
  <line
     class="cls-29"
     x1="5.6399927"
     y1="5.6499748"
     x2="21.599983"
     y2="21.599972"
     id="line339"
     style="fill:#ed9b2f;stroke:#cc761f;stroke-width:5.98000002px;stroke-miterlimit:10" />
  <line
     class="cls-29"
     x1="291.81998"
     y1="5.6499748"
     x2="275.86002"
     y2="21.599972"
     id="line341"
     style="fill:#ed9b2f;stroke:#cc761f;stroke-width:5.98000002px;stroke-miterlimit:10" />
  <line
     class="cls-29"
     x1="5.6399927"
     y1="342.25"
     x2="21.599983"
     y2="326.28998"
     id="line343"
     style="fill:#ed9b2f;stroke:#cc761f;stroke-width:5.98000002px;stroke-miterlimit:10" />
  <line
     class="cls-29"
     x1="291.81998"
     y1="342.25"
     x2="275.86002"
     y2="326.28998"
     id="line345"
     style="fill:#ed9b2f;stroke:#cc761f;stroke-width:5.98000002px;stroke-miterlimit:10" />
  <line
     class="cls-29"
     x1="40.349983"
     y1="21.599972"
     x2="40.349983"
     y2="5.6499748"
     id="line347"
     style="fill:#ed9b2f;stroke:#cc761f;stroke-width:5.98000002px;stroke-miterlimit:10" />
  <line
     class="cls-29"
     x1="64.289986"
     y1="21.599972"
     x2="64.289986"
     y2="5.6499748"
     id="line349"
     style="fill:#ed9b2f;stroke:#cc761f;stroke-width:5.98000002px;stroke-miterlimit:10" />
  <line
     class="cls-29"
     x1="88.220009"
     y1="21.599972"
     x2="88.220009"
     y2="5.6499748"
     id="line351"
     style="fill:#ed9b2f;stroke:#cc761f;stroke-width:5.98000002px;stroke-miterlimit:10" />
  <line
     class="cls-29"
     x1="112.15998"
     y1="21.599972"
     x2="112.15998"
     y2="5.6499748"
     id="line353"
     style="fill:#ed9b2f;stroke:#cc761f;stroke-width:5.98000002px;stroke-miterlimit:10" />
  <line
     class="cls-29"
     x1="136.09001"
     y1="21.599972"
     x2="136.09001"
     y2="5.6499748"
     id="line355"
     style="fill:#ed9b2f;stroke:#cc761f;stroke-width:5.98000002px;stroke-miterlimit:10" />
  <line
     class="cls-29"
     x1="160.03001"
     y1="21.599972"
     x2="160.03001"
     y2="5.6499748"
     id="line357"
     style="fill:#ed9b2f;stroke:#cc761f;stroke-width:5.98000002px;stroke-miterlimit:10" />
  <line
     class="cls-29"
     x1="160.03001"
     y1="21.599972"
     x2="160.03001"
     y2="5.6499748"
     id="line359"
     style="fill:#ed9b2f;stroke:#cc761f;stroke-width:5.98000002px;stroke-miterlimit:10" />
  <line
     class="cls-29"
     x1="183.96001"
     y1="21.599972"
     x2="183.96001"
     y2="5.6499748"
     id="line361"
     style="fill:#ed9b2f;stroke:#cc761f;stroke-width:5.98000002px;stroke-miterlimit:10" />
  <line
     class="cls-29"
     x1="207.90001"
     y1="21.599972"
     x2="207.90001"
     y2="5.6499748"
     id="line363"
     style="fill:#ed9b2f;stroke:#cc761f;stroke-width:5.98000002px;stroke-miterlimit:10" />
  <line
     class="cls-29"
     x1="231.84001"
     y1="21.599972"
     x2="231.84001"
     y2="5.6499748"
     id="line365"
     style="fill:#ed9b2f;stroke:#cc761f;stroke-width:5.98000002px;stroke-miterlimit:10" />
  <line
     class="cls-29"
     x1="255.77"
     y1="21.599972"
     x2="255.77"
     y2="5.6499748"
     id="line367"
     style="fill:#ed9b2f;stroke:#cc761f;stroke-width:5.98000002px;stroke-miterlimit:10" />
  <line
     class="cls-29"
     x1="257.11002"
     y1="326.28998"
     x2="257.11002"
     y2="342.25"
     id="line369"
     style="fill:#ed9b2f;stroke:#cc761f;stroke-width:5.98000002px;stroke-miterlimit:10" />
  <line
     class="cls-29"
     x1="233.17003"
     y1="326.28998"
     x2="233.17003"
     y2="342.25"
     id="line371"
     style="fill:#ed9b2f;stroke:#cc761f;stroke-width:5.98000002px;stroke-miterlimit:10" />
  <line
     class="cls-29"
     x1="209.23997"
     y1="326.28998"
     x2="209.23997"
     y2="342.25"
     id="line373"
     style="fill:#ed9b2f;stroke:#cc761f;stroke-width:5.98000002px;stroke-miterlimit:10" />
  <line
     class="cls-29"
     x1="185.29997"
     y1="326.28998"
     x2="185.29997"
     y2="342.25"
     id="line375"
     style="fill:#ed9b2f;stroke:#cc761f;stroke-width:5.98000002px;stroke-miterlimit:10" />
  <line
     class="cls-29"
     x1="161.37001"
     y1="326.28998"
     x2="161.37001"
     y2="342.25"
     id="line377"
     style="fill:#ed9b2f;stroke:#cc761f;stroke-width:5.98000002px;stroke-miterlimit:10" />
  <line
     class="cls-29"
     x1="137.43001"
     y1="326.28998"
     x2="137.43001"
     y2="342.25"
     id="line379"
     style="fill:#ed9b2f;stroke:#cc761f;stroke-width:5.98000002px;stroke-miterlimit:10" />
  <line
     class="cls-29"
     x1="137.43001"
     y1="326.28998"
     x2="137.43001"
     y2="342.25"
     id="line381"
     style="fill:#ed9b2f;stroke:#cc761f;stroke-width:5.98000002px;stroke-miterlimit:10" />
  <line
     class="cls-29"
     x1="113.49"
     y1="326.28998"
     x2="113.49"
     y2="342.25"
     id="line383"
     style="fill:#ed9b2f;stroke:#cc761f;stroke-width:5.98000002px;stroke-miterlimit:10" />
  <line
     class="cls-29"
     x1="89.560005"
     y1="326.28998"
     x2="89.560005"
     y2="342.25"
     id="line385"
     style="fill:#ed9b2f;stroke:#cc761f;stroke-width:5.98000002px;stroke-miterlimit:10" />
  <line
     class="cls-29"
     x1="65.620003"
     y1="326.28998"
     x2="65.620003"
     y2="342.25"
     id="line387"
     style="fill:#ed9b2f;stroke:#cc761f;stroke-width:5.98000002px;stroke-miterlimit:10" />
  <line
     class="cls-29"
     x1="41.68998"
     y1="326.28998"
     x2="41.68998"
     y2="342.25"
     id="line389"
     style="fill:#ed9b2f;stroke:#cc761f;stroke-width:5.98000002px;stroke-miterlimit:10" />
  <line
     class="cls-29"
     x1="275.86002"
     y1="89.599968"
     x2="291.81998"
     y2="89.599968"
     id="line391"
     style="fill:#ed9b2f;stroke:#cc761f;stroke-width:5.98000002px;stroke-miterlimit:10" />
  <line
     class="cls-29"
     x1="275.86002"
     y1="113.53998"
     x2="291.81998"
     y2="113.53998"
     id="line393"
     style="fill:#ed9b2f;stroke:#cc761f;stroke-width:5.98000002px;stroke-miterlimit:10" />
  <line
     class="cls-29"
     x1="275.86002"
     y1="41.729977"
     x2="291.81998"
     y2="41.729977"
     id="line395"
     style="fill:#ed9b2f;stroke:#cc761f;stroke-width:5.98000002px;stroke-miterlimit:10" />
  <line
     class="cls-29"
     x1="275.86002"
     y1="65.669975"
     x2="291.81998"
     y2="65.669975"
     id="line397"
     style="fill:#ed9b2f;stroke:#cc761f;stroke-width:5.98000002px;stroke-miterlimit:10" />
  <line
     class="cls-29"
     x1="275.86002"
     y1="137.47998"
     x2="291.81998"
     y2="137.47998"
     id="line399"
     style="fill:#ed9b2f;stroke:#cc761f;stroke-width:5.98000002px;stroke-miterlimit:10" />
  <line
     class="cls-29"
     x1="275.86002"
     y1="161.40997"
     x2="291.81998"
     y2="161.40997"
     id="line401"
     style="fill:#ed9b2f;stroke:#cc761f;stroke-width:5.98000002px;stroke-miterlimit:10" />
  <line
     class="cls-29"
     x1="275.86002"
     y1="185.34998"
     x2="291.81998"
     y2="185.34998"
     id="line403"
     style="fill:#ed9b2f;stroke:#cc761f;stroke-width:5.98000002px;stroke-miterlimit:10" />
  <line
     class="cls-29"
     x1="275.86002"
     y1="209.27997"
     x2="291.81998"
     y2="209.27997"
     id="line405"
     style="fill:#ed9b2f;stroke:#cc761f;stroke-width:5.98000002px;stroke-miterlimit:10" />
  <line
     class="cls-29"
     x1="275.86002"
     y1="209.27997"
     x2="291.81998"
     y2="209.27997"
     id="line407"
     style="fill:#ed9b2f;stroke:#cc761f;stroke-width:5.98000002px;stroke-miterlimit:10" />
  <line
     class="cls-29"
     x1="275.86002"
     y1="233.21997"
     x2="291.81998"
     y2="233.21997"
     id="line409"
     style="fill:#ed9b2f;stroke:#cc761f;stroke-width:5.98000002px;stroke-miterlimit:10" />
  <line
     class="cls-29"
     x1="275.86002"
     y1="257.14999"
     x2="291.81998"
     y2="257.14999"
     id="line411"
     style="fill:#ed9b2f;stroke:#cc761f;stroke-width:5.98000002px;stroke-miterlimit:10" />
  <line
     class="cls-29"
     x1="275.86002"
     y1="281.08997"
     x2="291.81998"
     y2="281.08997"
     id="line413"
     style="fill:#ed9b2f;stroke:#cc761f;stroke-width:5.98000002px;stroke-miterlimit:10" />
  <line
     class="cls-29"
     x1="275.86002"
     y1="305.02997"
     x2="291.81998"
     y2="305.02997"
     id="line415"
     style="fill:#ed9b2f;stroke:#cc761f;stroke-width:5.98000002px;stroke-miterlimit:10" />
  <line
     class="cls-29"
     x1="21.599983"
     y1="258.28998"
     x2="5.6399927"
     y2="258.28998"
     id="line417"
     style="fill:#ed9b2f;stroke:#cc761f;stroke-width:5.98000002px;stroke-miterlimit:10" />
  <line
     class="cls-29"
     x1="21.599983"
     y1="234.35999"
     x2="5.6399927"
     y2="234.35999"
     id="line419"
     style="fill:#ed9b2f;stroke:#cc761f;stroke-width:5.98000002px;stroke-miterlimit:10" />
  <line
     class="cls-29"
     x1="21.599983"
     y1="306.16998"
     x2="5.6399927"
     y2="306.16998"
     id="line421"
     style="fill:#ed9b2f;stroke:#cc761f;stroke-width:5.98000002px;stroke-miterlimit:10" />
  <line
     class="cls-29"
     x1="21.599983"
     y1="282.22998"
     x2="5.6399927"
     y2="282.22998"
     id="line423"
     style="fill:#ed9b2f;stroke:#cc761f;stroke-width:5.98000002px;stroke-miterlimit:10" />
  <line
     class="cls-29"
     x1="21.599983"
     y1="210.41998"
     x2="5.6399927"
     y2="210.41998"
     id="line425"
     style="fill:#ed9b2f;stroke:#cc761f;stroke-width:5.98000002px;stroke-miterlimit:10" />
  <line
     class="cls-29"
     x1="21.599983"
     y1="186.48999"
     x2="5.6399927"
     y2="186.48999"
     id="line427"
     style="fill:#ed9b2f;stroke:#cc761f;stroke-width:5.98000002px;stroke-miterlimit:10" />
  <line
     class="cls-29"
     x1="21.599983"
     y1="162.54999"
     x2="5.6399927"
     y2="162.54999"
     id="line429"
     style="fill:#ed9b2f;stroke:#cc761f;stroke-width:5.98000002px;stroke-miterlimit:10" />
  <line
     class="cls-29"
     x1="21.599983"
     y1="138.62"
     x2="5.6399927"
     y2="138.62"
     id="line431"
     style="fill:#ed9b2f;stroke:#cc761f;stroke-width:5.98000002px;stroke-miterlimit:10" />
  <line
     class="cls-29"
     x1="21.599983"
     y1="138.62"
     x2="5.6399927"
     y2="138.62"
     id="line433"
     style="fill:#ed9b2f;stroke:#cc761f;stroke-width:5.98000002px;stroke-miterlimit:10" />
  <line
     class="cls-29"
     x1="21.599983"
     y1="114.67999"
     x2="5.6399927"
     y2="114.67999"
     id="line435"
     style="fill:#ed9b2f;stroke:#cc761f;stroke-width:5.98000002px;stroke-miterlimit:10" />
  <line
     class="cls-29"
     x1="21.599983"
     y1="90.739983"
     x2="5.6399927"
     y2="90.739983"
     id="line437"
     style="fill:#ed9b2f;stroke:#cc761f;stroke-width:5.98000002px;stroke-miterlimit:10" />
  <line
     class="cls-29"
     x1="21.599983"
     y1="66.809959"
     x2="5.6399927"
     y2="66.809959"
     id="line439"
     style="fill:#ed9b2f;stroke:#cc761f;stroke-width:5.98000002px;stroke-miterlimit:10" />
  <line
     class="cls-29"
     x1="21.599983"
     y1="42.869976"
     x2="5.6399927"
     y2="42.869976"
     id="line441"
     style="fill:#ed9b2f;stroke:#cc761f;stroke-width:5.98000002px;stroke-miterlimit:10" />
  <path
     id="path443"
     style="fill:#ffffff"
     class="cls-4"
     d="m 213.53906,153.71094 -5.45898,12.59961 -18.56055,66.91015 1.17969,6.60938 6.2207,20.90039 13.88086,28.16992 2.10742,0.82031 c 0.44046,-0.8898 0.95195,-1.74483 1.51563,-2.56054 0.0128,-0.0185 0.0262,-0.0363 0.0391,-0.0547 l -0.13672,-0.10742 c 0.56216,-0.74939 1.13631,-1.48296 1.77539,-2.15039 0.55776,-0.85718 1.19847,-1.6313 1.91797,-2.36719 0.0303,-0.031 0.89935,-0.81712 1.04102,-0.94531 0.0816,-0.0749 0.15754,-0.15571 0.24414,-0.22461 0.18597,-0.14796 0.37338,-0.29353 0.5625,-0.4375 0.13604,-0.19074 0.40658,-0.50838 0.60742,-0.75977 0.1522,-0.16959 0.31061,-0.33321 0.45703,-0.50781 0.008,-0.009 -0.0165,0.004 -0.0332,0.0117 -0.0232,0.0229 -0.0449,0.0478 -0.0684,0.0703 -0.0214,0.0205 0.039,-0.0442 0.0586,-0.0664 0.003,-10e-4 0.005,-0.002 0.01,-0.004 0.5732,-0.565 1.07184,-1.22127 1.73633,-1.67383 0.59303,-0.40391 1.32125,-0.55722 1.98242,-0.83594 l 0.01,0.0391 c 0.24629,-0.18466 0.46413,-0.34672 1.0293,-0.71875 0.59664,-0.39274 1.06054,-0.4681 1.50781,-0.9375 1.18988,-0.95779 2.2618,-2.02852 3.32032,-3.125 0.1733,-0.18026 0.36122,-0.34546 0.51953,-0.53906 0.21178,-0.25898 0.3377,-0.58151 0.54297,-0.8457 0.34388,-0.44262 0.69472,-0.87949 1.06445,-1.30078 0.3112,-0.35461 0.65352,-0.68191 0.97265,-1.0293 0.0342,-0.09 0.0974,-0.22829 0.13086,-0.29492 0.20331,-0.40381 0.42077,-0.7989 0.63086,-1.19922 0.56133,-0.9137 1.27871,-1.71718 1.95508,-2.54492 0.12988,-0.15895 0.24463,-0.33033 0.38867,-0.47656 0.41065,-0.41691 0.84921,-0.80591 1.27344,-1.20899 0.088,-0.063 0.17486,-0.12753 0.26367,-0.18945 0.30934,-0.33194 0.61285,-0.67008 0.94141,-0.98242 0.0778,-0.11035 0.15929,-0.2182 0.23437,-0.33008 0.37196,-0.55426 0.3676,-0.5481 0.85352,-1.20313 0.0346,-0.0466 0.0691,-0.0933 0.10547,-0.13867 0.0286,-0.0721 0.0594,-0.13357 0.0859,-0.17187 0.37726,-0.91799 0.57444,-1.25443 1.01171,-1.67578 0.16677,-0.45937 0.35282,-0.91081 0.60547,-1.33594 0.19611,-0.32999 0.42469,-0.63956 0.64063,-0.95703 -0.1439,0.0577 0.70144,-1.41226 0.81054,-1.59766 0.36063,-0.61282 0.47564,-0.77249 0.5293,-0.82813 0.0363,-0.0846 0.0832,-0.16281 0.15039,-0.22265 0.0199,-0.0177 -0.0208,0.0496 -0.0312,0.0742 -0.16918,0.36236 -0.0281,0.0542 -0.11914,0.14843 -0.0456,0.10625 -0.0735,0.22329 -0.0957,0.33399 -0.12098,0.60361 -0.20239,1.21489 -0.27539,1.82617 -0.0114,0.0954 -0.008,0.37791 0.0234,0.28711 0.4657,-1.35127 0.88469,-2.71817 1.3125,-4.08203 0.001,-0.0274 0.003,-0.0474 0.004,-0.0742 -0.47592,0.92235 -0.53204,1.35866 -0.14648,-0.30859 0.20575,-0.55029 0.25877,-0.70454 0.29297,-0.79688 0.009,-0.14542 0.0165,-0.29027 0.0273,-0.43555 0.0753,-0.26875 0.16221,-0.53454 0.22461,-0.80664 -0.0623,0.21223 -0.12325,0.4245 -0.18555,0.63672 -0.006,0.01 -0.0186,0.0384 -0.0176,0.0274 0.11204,-0.89823 0.13359,-1.16183 0.17774,-1.38477 -0.0807,-1.19409 0.27309,-1.94584 0.63281,-3.41016 0.0269,-0.0435 0.0395,-0.0648 0.0644,-0.10546 0.0342,-0.10794 0.0668,-0.21648 0.10157,-0.32422 0.005,-0.0248 0.011,-0.0671 0.0156,-0.0859 0.0487,-0.20072 0.14911,-0.47504 0.19336,-0.58789 0.0532,-0.25105 0.10404,-0.5024 0.17774,-0.74805 0.24965,-0.83208 0.98057,-1.59761 1.45898,-2.23242 0.33173,-0.27226 0.66437,-0.54416 0.99609,-0.81641 l 0.86719,1.28125 c -0.0458,-1.51699 0.54249,-2.95289 0.70899,-4.4414 0.17951,-1.59662 0.42025,-3.18458 0.6289,-4.77735 0.029,-0.23222 0.0724,-0.46375 0.0879,-0.69726 0.0102,-0.15206 -0.0516,-0.30337 -0.0371,-0.45508 0.0745,-0.77716 0.14306,-1.55531 0.25391,-2.32812 0.11194,-0.78034 0.35092,-1.5912 0.55469,-2.35157 0.052,-0.15192 0.0972,-0.23767 0.13672,-0.35547 0.003,-0.0415 0.007,-0.0948 0.01,-0.13671 -0.0599,0.14707 -0.11632,0.29568 -0.17969,0.4414 -0.0666,0.15318 -0.17782,0.28366 -0.26562,0.42578 -0.19045,0.30831 -0.44401,0.74384 -0.62109,1.01953 0.008,-0.0688 0.0446,-0.27303 0.0234,-0.20703 -0.55491,1.73115 -0.0321,0.50352 -0.81836,2.27539 -1.7e-4,10e-4 1.8e-4,0.003 0,0.004 -0.26091,1.94454 -1.2033,3.15019 -2.51953,4.65234 l -2.4668,-2.11523 c -0.0217,0.0389 -0.043,0.0783 -0.0645,0.11719 -0.37566,0.99934 -0.31651,0.91507 -0.34961,0.52343 -0.036,-0.42616 -0.22269,-1.11792 -1.32422,-0.86718 -0.0202,0.055 -0.0391,0.11519 -0.0508,0.13867 0.0139,-0.0462 0.0263,-0.0898 0.0391,-0.13477 -0.002,4.2e-4 -0.004,-4.2e-4 -0.006,0 -0.0137,0.0434 -0.0284,0.0866 -0.0391,0.13086 -0.005,0.0212 -0.002,0.0218 0.004,0.01 -0.0522,0.17268 -0.10904,0.33663 -0.16406,0.46094 -0.0116,0.0443 -0.0232,0.0886 -0.0352,0.13281 -0.0121,0.013 -0.0265,0.0336 -0.0391,0.0488 -9.3e-4,0.004 -9.5e-4,0.008 -0.002,0.0117 -0.002,0.006 -0.01,0.0132 -0.0117,0.0195 l 1.08789,0.82031 c -0.10083,0.10706 -0.18846,0.22774 -0.30274,0.32031 -0.38069,0.30836 -0.44515,0.30587 -0.83789,0.45703 -0.27867,-0.0746 -0.71607,-0.11911 -1.16406,-0.16211 -0.10376,0.0799 -0.28575,0.2427 -0.31641,0.25782 -0.56242,0.27724 -2.33155,0.6286 -1.86914,0.20507 0.30698,-0.28117 0.68154,-0.45363 1.07813,-0.59179 -0.49127,-0.0824 -0.76751,-0.20372 -0.44727,-0.4375 0.87968,-0.6422 1.5814,-1.07036 2.14453,-1.3418 l -0.99609,-0.75 -2.21484,0.80078 -1.75,3.71875 -0.67969,-0.82031 c -1.14,-1.56 -2.0793,-2.75078 -2.7793,-3.55078 l -0.10156,-0.16016 c -2.12,-4.82 -11.08992,-33.31885 -20.41992,-64.87891 z m 29.18164,79.07031 0.26172,0.19727 c 0.0146,-0.11205 0.0304,-0.22389 0.0449,-0.33594 -0.0977,0.0408 -0.19894,0.0868 -0.30664,0.13867 z m 0.71485,0.25977 c 0.051,-0.19413 0.0983,-0.38961 0.14843,-0.58399 -0.0138,0.0168 -0.027,0.0342 -0.041,0.0508 -0.0153,0.0608 -0.029,0.12146 -0.0469,0.18164 -0.002,0.005 -0.006,0.0122 -0.008,0.0176 -0.0142,0.0778 -0.033,0.17611 -0.041,0.22656 -0.0126,0.0211 -0.0263,0.0415 -0.0391,0.0625 -0.0103,0.0571 -0.0226,0.11333 -0.0351,0.16993 0.006,-0.009 0.0125,-0.018 0.0176,-0.0274 0.0141,-0.026 0.03,-0.0639 0.0449,-0.0976 z m -0.0274,-0.0449 c 0.0112,-0.0622 0.0213,-0.12507 0.0312,-0.1875 -0.0306,0.051 -0.0701,0.10552 -0.11328,0.16016 -0.0194,0.0746 -0.0394,0.14878 -0.0605,0.22266 l 0.0137,0.0117 c 0.0436,-0.0687 0.0866,-0.13763 0.1289,-0.20703 z m 0.0312,-0.1875 c 0.0221,-0.0368 0.0378,-0.0709 0.0488,-0.10156 0.0107,-0.059 0.0196,-0.10845 0.0312,-0.17187 -0.0144,0.0169 -0.0284,0.034 -0.043,0.0508 -0.0125,0.0741 -0.0252,0.14841 -0.0371,0.22265 z m 0.0371,-0.22265 c 0.003,-0.0189 0.006,-0.0378 0.01,-0.0566 -0.0195,0.0208 -0.0385,0.0421 -0.0586,0.0625 -0.007,0.0252 -0.0146,0.0508 -0.0215,0.0762 0.0239,-0.0272 0.0466,-0.0547 0.0703,-0.082 z m 0.01,-0.0566 c 0.0135,-0.0145 0.0279,-0.0282 0.041,-0.043 0.001,-0.007 0.003,-0.0129 0.004,-0.0195 -0.0117,0.003 -0.0233,0.006 -0.0352,0.01 -0.003,0.0176 -0.007,0.0351 -0.01,0.0527 z m 0.041,-0.043 c -0.003,0.0178 -0.004,0.0309 -0.008,0.0488 0.008,-0.009 0.0157,-0.0182 0.0234,-0.0273 0.004,-0.0157 0.008,-0.0312 0.0117,-0.0469 -0.003,7e-4 -0.005,0.001 -0.008,0.002 -0.006,0.008 -0.0128,0.0158 -0.0195,0.0234 z m 2.86719,11.73828 c -0.002,0.0118 -0.005,0.0234 -0.008,0.0352 0.0227,-0.0744 0.0487,-0.14792 0.0703,-0.22266 0.0183,-0.0634 -0.0484,0.15146 -0.0625,0.1875 z m -0.008,0.0352 c -0.065,0.21341 -0.13263,0.42632 -0.20117,0.63867 -0.0132,0.0637 -0.0254,0.13908 -0.0391,0.2207 0.0248,-0.0409 0.0454,-0.0752 0.0684,-0.11328 0.0556,-0.249 0.11936,-0.49635 0.17188,-0.74609 z m -1.37305,7.54687 c 0.0138,-0.0267 0.0304,-0.0564 0.0449,-0.084 0.0135,-0.043 0.0275,-0.0859 0.041,-0.12891 0.0131,-0.18759 0.0304,-0.37466 0.041,-0.5625 -0.0376,0.13171 -0.0824,0.26139 -0.10546,0.39648 -0.0142,0.0833 -0.0145,0.24184 -0.0215,0.37891 z m 0.0449,-0.084 c -0.0166,0.0527 -0.0323,0.10553 -0.0488,0.1582 -0.0155,0.38532 -0.0145,0.77936 0.0156,0.54883 0.0334,-0.25572 0.0497,-0.51426 0.0684,-0.77149 -0.0116,0.0216 -0.024,0.0432 -0.0352,0.0645 z m -4.61132,8.1875 c -0.0208,0.0506 -0.0322,0.0777 -0.0547,0.13281 0.0785,-0.0975 0.15837,-0.19406 0.22656,-0.29883 0.0338,-0.0519 -0.0895,0.0848 -0.13476,0.12695 -0.008,-0.006 -0.0237,0.0197 -0.0371,0.0391 z m -0.0547,0.13281 c -0.0105,0.013 -0.0208,0.026 -0.0312,0.0391 -0.043,0.10865 -0.0732,0.2071 -0.0508,0.15235 0.0368,-0.0901 0.0494,-0.11154 0.082,-0.19141 z m 48.24023,-99.53906 c -0.001,0.0195 -0.003,0.0391 -0.004,0.0586 10e-4,-0.005 0.003,-0.009 0.004,-0.0137 -9.1e-4,0.002 10e-4,-0.0599 0,-0.0449 z m -0.18945,2.13281 c -0.005,0.0259 -0.007,0.0523 -0.0117,0.0781 0.008,-0.0243 0.019,-0.0479 0.0273,-0.0723 -0.005,-0.002 -0.0106,-0.004 -0.0156,-0.006 z m -0.32422,0.68164 c -0.005,-0.002 0.005,0.0507 0.01,0.0859 0.007,-0.0108 0.0121,-0.0227 0.0195,-0.0332 -0.006,-0.01 -0.0269,-0.0518 -0.0293,-0.0527 z m -4.82812,0.13867 c -0.0269,0.16098 -0.0472,0.32318 -0.0723,0.48438 -0.0181,0.11949 0.0673,-0.256 0.0742,-0.38672 0.002,-0.0326 -0.003,-0.0506 -0.002,-0.0977 z m -21.2129,5.42383 c -0.0238,0.0173 -0.0465,0.0429 -0.0703,0.0605 10e-4,0.14938 0.008,0.29046 0.0703,-0.0605 z m -0.0859,0.0742 c -1.87463,1.40201 -3.50839,4.11188 -5.1875,9.32812 l 4.56054,-0.46093 c 0.0412,-0.52691 0.10709,-1.05334 0.20313,-1.58789 0.0468,-0.26071 0.15181,-0.51023 0.19531,-0.77149 0.0186,-0.112 -0.0794,0.21198 -0.11914,0.31836 -0.0446,-0.0906 -0.0653,-0.97144 -0.0703,-1.14258 -0.016,-0.55766 -0.0681,-1.11805 -0.0195,-1.67383 0.048,-0.54957 0.13427,-1.09498 0.20117,-1.64257 0.0843,-0.33539 0.19235,-0.66522 0.25195,-1.00586 0.0213,-0.12177 -0.0729,0.23783 -0.13672,0.34375 -0.015,0.0254 -0.0196,-0.0564 -0.0176,-0.0859 0.12404,-1.56569 0.13496,-1.67533 0.13867,-1.61914 z m -0.77539,14.18359 c -0.0237,0.0559 -0.0468,0.11199 -0.0703,0.16797 -0.25291,1.37509 -0.35115,2.79244 -0.90234,4.0957 -0.14778,-0.15633 -0.0439,-0.0726 -0.11719,0.38282 -0.17572,1.09181 -0.3257,2.20122 -0.69726,3.24804 -0.23684,0.63015 0.0302,-0.12298 -0.26172,1.08008 -0.10505,0.43297 -0.22251,0.86343 -0.34766,1.29102 -0.0769,0.26272 -0.0791,-0.13709 -0.16406,0.29882 -0.0569,0.29189 -0.0702,0.5895 -0.10547,0.88477 -0.20322,1.35125 -0.47454,2.68851 -0.67187,4.04102 -0.14872,0.93092 -0.29845,1.86177 -0.49024,2.78515 -0.009,0.0419 -0.0179,0.0845 -0.043,0.11914 -0.0122,0.0166 -0.0575,-8.8e-4 -0.0605,0.0195 -0.0208,0.14794 -0.004,0.29988 -0.006,0.44922 0.003,0.68587 0.0504,1.36351 0.0723,2.04883 0.0109,0.35404 0.0578,0.71037 0.0195,1.0625 -0.0813,0.74819 -0.24971,1.48481 -0.37695,2.22656 -0.003,0.0153 0.003,-0.0315 0.004,-0.0469 -0.0611,0.0413 -0.0508,0.0522 -0.10547,-0.0293 0.003,0.15434 0.005,0.30862 0.008,0.46289 0.0627,-0.10585 0.16608,-0.29449 0.22461,-0.38476 0.0144,-0.10243 0.026,-0.2058 0.0488,-0.30664 0.27193,-1.20397 0.51386,-1.8726 1.09179,-2.96875 0.0139,-0.0263 0.0246,-0.0401 0.0391,-0.0664 -0.0589,-0.19126 0.41287,-1.59956 0.51172,-1.96875 0.15538,-0.85492 0.63458,-1.59096 0.98047,-2.36914 0.0401,-0.0902 -0.10991,0.1639 -0.15821,0.25 -0.0229,0.0408 -0.0254,0.16531 -0.0547,0.12891 -0.0413,-0.0518 -0.002,-0.13272 -0.002,-0.19922 0.15424,-1.38251 0.4356,-2.74831 0.70117,-4.11328 0.0325,-0.16066 0.0937,-0.31857 0.0977,-0.48243 0.001,-0.046 -0.0681,0.14607 -0.0898,0.10547 -0.0493,-0.0925 -0.0255,-0.20969 -0.0215,-0.31445 0.0204,-0.52965 0.0472,-1.05812 0.0957,-1.58594 0.099,-1.07756 0.26914,-1.44248 0.58789,-2.61719 0.11217,-0.31215 0.26524,-0.61345 0.33594,-0.9375 -0.0769,0.15052 -0.15357,0.30261 -0.23047,0.45313 -0.0151,0.0308 -0.0449,0.1261 -0.0449,0.0918 3.6e-4,-0.97763 0.10776,-1.94277 0.13086,-2.91797 0.008,-0.9252 -0.0223,-1.8483 -0.0293,-2.77344 -0.002,-0.18608 -0.0156,-0.37301 -0.002,-0.55859 0.0258,-0.35175 0.066,-0.70212 0.10352,-1.05274 z m -2.66602,20.4375 c 0.0586,-0.0943 0.0505,-0.0813 -0.11133,0.15625 0.0403,-0.41803 -0.0823,0.26582 -0.1289,0.25586 0.0901,-0.16283 0.19098,-0.33277 0.24023,-0.41211 z m 36.91797,21.12695 c -0.0436,0.0242 -0.0511,0.0283 -0.0918,0.0508 0.31401,-0.05 0.44513,-0.0472 0.0918,-0.0508 z m -32.54687,4.95899 c -0.0298,0.0996 -0.0598,0.19932 -0.0899,0.29883 0.0104,-0.0218 0.005,-0.002 0.0156,-0.0254 0.0426,-0.0904 0.0547,-0.17764 0.0742,-0.27344 z m -19.4629,2.82422 c -7.8e-4,0.003 -0.001,0.005 -0.002,0.008 0.004,-0.004 0.003,-0.005 0.006,-0.008 -0.001,3.5e-4 -0.003,-3.5e-4 -0.004,0 z m 31.11329,5.35547 c -0.0143,0.0297 -0.0208,0.0431 -0.0312,0.0644 -0.0157,0.069 -0.0207,0.0928 -0.0469,0.20703 0.01,-0.0213 0.0178,-0.0431 0.0273,-0.0644 0.0144,-0.0639 0.0398,-0.16216 0.0508,-0.20703 z m -28.59571,8.65625 c -0.0111,0.0186 -0.0242,0.036 -0.0352,0.0547 -0.1194,0.20388 -0.0426,0.94215 -0.0195,0.70704 0.0249,-0.25353 0.0367,-0.50762 0.0547,-0.76172 z m -0.28906,1.16015 c 0.0565,-0.19931 -0.11444,0.39664 -0.17188,0.59571 -0.001,0.0117 -0.003,0.0234 -0.004,0.0352 0.0471,-0.1647 0.0612,-0.22665 0.17578,-0.63086 z m 1.98633,1.76563 c -0.0325,-0.0376 -1.32984,0.5478 -1.98047,1.30273 0.66947,-0.40892 1.35533,-0.79573 1.9668,-1.28515 0.0117,-0.009 0.016,-0.0149 0.0137,-0.0176 z m -6.36914,9.26367 c -0.12305,0.24398 -0.21907,0.65152 -0.16407,0.47852 0.0514,-0.1616 0.11101,-0.31838 0.16407,-0.47852 z m -2.4043,3.56445 c 0.18151,-0.14113 -0.3885,0.24598 -0.57031,0.38672 -0.0291,0.0225 -0.0356,0.0341 -0.0781,0.0781 0.21828,-0.15212 0.43847,-0.3016 0.64844,-0.46485 z m -4.98047,6.01563 c 0.0287,-0.0436 -0.0859,0.0618 -0.11719,0.10351 -0.0342,0.0457 -0.0634,0.0948 -0.0918,0.14453 0.0709,-0.082 0.14949,-0.15763 0.20898,-0.24804 z"
     clip-path="url(#clipPath7807)" />
  <path
     id="path449"
     style="fill:#b29e6d;stroke:#594330;stroke-width:3.58999991px;stroke-miterlimit:10"
     class="cls-15"
     d="m 207.17969,169.05078 -12.75,31.88867 -5.62891,13.46094 v 14.15039 l 27,54.85938 2.6543,1.03125 c 0.0816,-0.0205 0.17638,-0.0265 0.26562,-0.0391 0.0143,-0.0118 0.0287,-0.0234 0.043,-0.0351 0.0426,-0.26175 0.0843,-0.52341 0.12695,-0.78516 0.41536,-1.06502 0.33131,-1.10712 1.51563,-2.09961 0.10801,-0.0905 0.23221,-0.15691 0.36133,-0.21484 0.004,-0.28863 0.0296,-0.57012 0.15234,-0.82617 0.0159,-0.0332 0.0865,-0.11091 0.18164,-0.20899 0.0115,-0.0296 0.0326,-0.0786 0.041,-0.10156 0.0317,-0.0282 0.0225,-0.02 0.0527,-0.0469 0.14803,-0.31582 0.32178,-0.6249 0.48242,-0.72851 0.35697,-0.23021 0.71648,-0.47286 1.09961,-0.65625 0.0251,-0.0493 0.0493,-0.099 0.0742,-0.14844 0.24349,-0.42793 0.45691,-0.87383 0.73047,-1.2832 1.54099,-2.30597 1.02183,-1.3447 2.41602,-3.12305 0.37537,-0.47879 0.73029,-0.97318 1.08593,-1.4668 0.23296,-0.32334 0.43231,-0.66998 0.67969,-0.98242 0.4917,-0.62103 1.02353,-1.20974 1.53516,-1.81445 1.5862,-1.77835 3.38976,-3.36216 5.35351,-4.71094 0.0368,-0.11662 0.0739,-0.23324 0.11133,-0.34961 0.45108,-1.53406 0.33933,-1.10485 0.80078,-2.9707 0.10357,-0.41878 0.17034,-0.84796 0.29883,-1.25977 0.21052,-0.67469 0.4587,-1.33619 0.7168,-1.99414 0.16174,-0.41231 0.33191,-0.82547 0.54297,-1.21484 0.30458,-0.56191 0.66786,-1.08793 1.00195,-1.63281 0.78711,-1.06718 0.72226,-1.03345 1.62305,-1.97657 0.18157,-0.26392 0.37745,-0.47559 0.58789,-0.63476 0.0127,-0.0436 0.0222,-0.0761 0.0449,-0.1582 0.18538,-0.70421 0.61557,-1.35887 1.18945,-1.79688 0.34147,-1.70137 0.81038,-3.38019 1.34961,-5.02539 0.21838,-0.52944 0.37856,-1.08133 0.52344,-1.63477 0.0508,-0.19439 0.0538,-0.40232 0.13086,-0.58789 0.15415,-0.37119 0.31596,-0.73895 0.47656,-1.10742 0.11101,-0.87781 0.75606,-2.00089 1.01758,-2.5957 0.19928,-0.28439 0.40668,-0.56152 0.59766,-0.85156 0.011,-0.0176 -0.002,-0.045 0.006,-0.0645 0.26293,-0.66763 0.8224,-1.17816 1.28515,-1.72656 0.55619,-0.65947 1.07307,-0.89504 0.55859,-0.63867 0.0182,-0.0791 0.0374,-0.0655 -0.0293,-0.0625 -0.0184,0.0311 -0.072,0.12655 -0.0566,0.0937 0.31433,-0.66635 0.64753,-1.43534 1.0664,-2.06641 0.24428,-0.36804 0.51257,-0.71883 0.76953,-1.07812 0.1698,-0.20526 0.35087,-0.40145 0.50977,-0.61524 0.0576,-0.0775 0.31438,-0.69231 0.33008,-0.72851 0.28098,-0.64822 0.19817,-0.4507 0.61914,-1.35157 0.49109,-1.1201 1.17014,-2.13698 1.86914,-3.13476 0.26733,-0.78123 0.52354,-1.56654 0.87109,-2.31445 0.0352,-0.0758 0.10002,-0.16211 0.15821,-0.2461 0.15313,-0.5038 0.33548,-0.9779 0.54687,-1.50781 0.0644,-0.11537 0.12918,-0.2302 0.19336,-0.3457 5.6e-4,-0.0382 -0.003,-0.0771 -0.002,-0.11524 0.0585,-0.13684 0.11831,-0.27284 0.17578,-0.41015 0.0243,-0.26048 0.0479,-0.52078 0.0723,-0.78125 0.50407,-1.46025 0.41684,-1.48639 1.13867,-2.51368 0.1304,-0.71901 0.77178,-1.93114 1.08789,-2.57226 0.0176,-0.0247 0.0351,-0.0495 0.0527,-0.0742 0.0569,-0.21334 0.11347,-0.42716 0.16992,-0.64062 0.1271,-0.30576 0.25541,-0.61155 0.38086,-0.91797 0.0309,-0.0756 0.10742,-0.30732 0.0859,-0.22852 -0.0299,0.1098 -0.23696,0.75039 -0.41211,1.4707 0.0484,-0.0679 0.0981,-0.13518 0.14649,-0.20312 0.004,-0.007 0.0103,-0.0246 0.0137,-0.0312 0.008,-0.0168 0.0206,-0.0313 0.0312,-0.0469 0.0579,-0.19617 0.11373,-0.38362 0.28711,-0.96484 0.0892,-0.29914 0.20423,-0.59122 0.26953,-0.89648 0.073,-0.34124 0.23687,-1.62525 0.26367,-2.04883 0.0234,-0.36936 0.0204,-0.73944 0.0312,-1.10938 -0.005,-0.11802 -0.004,-0.23564 -0.006,-0.35351 l -0.70898,-0.24414 -18.57032,39.41015 c 0,0 -7.80992,-11.72984 -10.16992,-14.08984 -2.36,-2.36 -21.51953,-67.17969 -21.51953,-67.17969 z m 50.08008,47.55469 c -0.0505,0.10534 -0.12577,0.2825 -0.19727,0.44726 -0.0731,0.32307 -0.12695,0.63981 -0.16211,0.93555 0.0243,-0.10298 0.0488,-0.20539 0.0723,-0.30859 0.18617,-0.652 0.24796,-0.86818 0.32422,-1.12696 -0.0125,0.0175 -0.0247,0.0352 -0.0371,0.0527 z m -36.06446,63.47851 c -0.0165,0.0352 -0.0331,0.0704 -0.0488,0.10547 0.64372,-0.65272 2.29868,-2.10796 0.0488,-0.10547 z m -0.0488,0.10547 c -0.0132,0.0134 -0.0326,0.0303 -0.0449,0.043 -0.12036,0.30907 -0.37422,0.90581 -0.24609,0.68555 6.9e-4,-0.001 0.12347,-0.35474 0.29101,-0.72852 z m 33.33008,-56.48828 c -8.3e-4,0.003 -9e-4,0.005 -0.002,0.008 -0.0336,0.10086 -0.0373,0.42211 -0.0273,0.31641 0.0102,-0.10807 0.0192,-0.21615 0.0293,-0.32422 z m -0.11133,0.12305 c -0.14401,0.32381 -0.26976,0.65123 -0.31054,1 -0.002,0.0199 -0.002,0.0603 -0.004,0.082 0.0159,-0.0218 0.014,-0.0225 0.0332,-0.0488 0.16897,-0.15719 0.0985,-0.0897 -0.0332,0.0527 -0.0458,0.48428 -0.0318,1.3847 0.0195,1.98046 0.0465,-0.0799 0.0448,-0.0763 0.10938,-0.18945 0.0319,-0.0559 0.0615,-0.11311 0.0918,-0.16992 0.0147,-0.0389 0.0185,-0.0469 0.0274,-0.0703 -0.009,0.0228 -0.0146,0.0433 -0.0234,0.0664 0.0163,-0.0306 0.0323,-0.0613 0.0488,-0.0918 0.0222,-0.0409 0.0293,-0.0624 0.0664,-0.12305 2.2e-4,-0.003 -1.7e-4,-0.007 0,-0.01 -0.0266,0.0511 -0.0579,0.0984 -0.0859,0.14844 0.0311,-0.0816 0.0581,-0.13576 0.0879,-0.21289 0.0399,-0.79851 -0.0234,-1.61004 -0.0274,-2.41406 z m -0.0898,2.70312 c -8.3e-4,0.002 -0.003,0.002 -0.004,0.004 -0.0346,0.0914 -0.0834,0.22109 -0.0625,0.16602 0.0239,-0.0629 0.0436,-0.10991 0.0664,-0.16993 z m -0.22461,-1.61718 c 1e-4,-10e-4 -1e-4,-0.003 0,-0.004 -0.005,0.006 -0.005,0.008 -0.01,0.0137 0.004,-0.004 0.006,-0.005 0.01,-0.01 z m -13.50781,27.98828 c -0.0462,0.0631 -0.0791,0.12119 -0.11328,0.17968 0.0289,-0.0196 0.0587,-0.035 0.0879,-0.0527 0.008,-0.009 0.0173,-0.0165 0.0254,-0.0254 0.0226,-0.025 0.0199,-0.12876 0,-0.10156 z m -18.23438,26.73047 c -0.27423,0.12385 -0.54674,0.24906 -0.80859,0.39062 -0.0416,0.51845 -0.0815,1.03624 -0.12305,1.55469 l 0.13086,-0.0352 c 0.0588,-0.21563 0.0523,-0.37075 0.34766,-1.00976 0.14095,-0.30496 0.30004,-0.60123 0.45312,-0.90039 z m -0.9082,1.33984 c -0.0653,0.0159 -0.30988,0.11606 -0.4043,0.16406 -0.0583,0.0296 -0.0947,0.0609 -0.12304,0.0899 0.17694,-0.0735 0.35826,-0.13946 0.52148,-0.23633 0.0304,-0.018 0.0262,-0.0229 0.006,-0.0176 z m -0.57422,0.22852 c -0.008,0.019 -0.017,0.0377 -0.0254,0.0566 0.006,-0.003 0.0118,-0.005 0.0176,-0.008 0.002,-0.0135 0.004,-0.0228 0.008,-0.0488 z m -0.0605,0.13671 c -0.0387,0.0913 -0.0716,0.18362 -0.084,0.28125 -0.03,0.23737 -0.007,0.95122 0.041,0.7168 0.0656,-0.3211 0.0419,-0.66379 0.043,-0.99805 z" />
  <polygon
     class="cls-23"
     points="569.23,435.92 586.16,446.79 587.06,452.41 566.1,437.96 549.87,384.17 552.01,378.83 "
     id="polygon453"
     style="fill:#9c4732"
     transform="translate(-349.92001,-192.27002)" />
  <path
     class="cls-27"
     d="m 228.66999,236.22998 c 0,0 2.9,17.89 7.62,20.92 l 2.55,-6.83"
     id="path489"
     inkscape:connector-curvature="0"
     style="fill:#594330;stroke:#594330;stroke-width:3.58999991px;stroke-miterlimit:10" />
  <path
     class="cls-38"
     d="m 58.789995,33.889976 -3.12,1.89 -10.1,24.06 h -1.82 l -10.8,-24.06 -2.77,-1.89 h 14.34 l -3.12,1.89 6.91,15.89 4.7,-15.89 -4.18,-1.89 z"
     id="path491"
     inkscape:connector-curvature="0"
     style="fill:#cc761f" />
  <path
     class="cls-38"
     d="m 57.079995,307.58998 c 0,4.14 -4.35,6.8 -10.73,6.8 h -14.11 v -0.56 h 2.84 v -22.79 l -3.12,-1.9 h 12.66 c 6.91,0 11,1.9 11,5.79 0,3 -2.24,4.95 -7.75,5.93 5.49,0.35 9.21,2.77 9.21,6.73 z m -14.31,-17.86 v 10.94 h 0.63 c 2.84,0 4.13,-1.9 4.13,-5.47 0,-3 -0.94,-5.47 -4.2,-5.47 z m 6.2,18 c 0,-4.35 -2.28,-6.49 -5.22,-6.49 h -1 v 12.59 h 0.73 c 3.91,0 5.49,-2.03 5.49,-6.1 z"
     id="path493"
     inkscape:connector-curvature="0"
     style="fill:#cc761f" />
  <line
     class="cls-29"
     x1="233.75999"
     y1="305.94998"
     x2="259.89999"
     y2="305.94998"
     id="line495"
     style="fill:#ed9b2f;stroke:#cc761f;stroke-width:5.98000002px;stroke-miterlimit:10" />
  <line
     class="cls-29"
     x1="233.75999"
     y1="41.869976"
     x2="259.89999"
     y2="41.869976"
     id="line497"
     style="fill:#ed9b2f;stroke:#cc761f;stroke-width:5.98000002px;stroke-miterlimit:10" />
  <polyline
     class="cls-4"
     points="559.16 474.11 554.11 477.86 544.48 445.09"
     id="polyline499"
     style="fill:#ffffff"
     transform="translate(-349.92001,-192.27002)" />
  <ellipse
     class="cls-28"
     cx="148.73"
     cy="173.94998"
     rx="111.17"
     ry="136.39"
     id="ellipse337"
     style="fill:none;stroke:#cc761f;stroke-width:10.72000027px;stroke-miterlimit:10" />
</svg>
