<?xml version="1.0" encoding="UTF-8" standalone="no"?>
<svg
   id="Layer_1"
   data-name="Layer 1"
   viewBox="0 0 381.82999 360.76001"
   version="1.1"
   sodipodi:docname="WAS.svg"
   width="381.82999"
   height="360.76001"
   inkscape:version="1.1.1 (3bf5ae0d25, 2021-09-20)"
   xmlns:inkscape="http://www.inkscape.org/namespaces/inkscape"
   xmlns:sodipodi="http://sodipodi.sourceforge.net/DTD/sodipodi-0.dtd"
   xmlns="http://www.w3.org/2000/svg"
   xmlns:svg="http://www.w3.org/2000/svg"
   xmlns:rdf="http://www.w3.org/1999/02/22-rdf-syntax-ns#"
   xmlns:cc="http://creativecommons.org/ns#"
   xmlns:dc="http://purl.org/dc/elements/1.1/">
  <metadata
     id="metadata293">
    <rdf:RDF>
      <cc:Work
         rdf:about="">
        <dc:format>image/svg+xml</dc:format>
        <dc:type
           rdf:resource="http://purl.org/dc/dcmitype/StillImage" />
        <dc:title />
      </cc:Work>
    </rdf:RDF>
  </metadata>
  <sodipodi:namedview
     pagecolor="#ffffff"
     bordercolor="#666666"
     borderopacity="1"
     objecttolerance="10"
     gridtolerance="10"
     guidetolerance="10"
     inkscape:pageopacity="0"
     inkscape:pageshadow="2"
     inkscape:window-width="1920"
     inkscape:window-height="1017"
     id="namedview291"
     showgrid="false"
     inkscape:zoom="2.5173333"
     inkscape:cx="205.97193"
     inkscape:cy="209.54714"
     inkscape:window-x="-8"
     inkscape:window-y="-8"
     inkscape:window-maximized="1"
     inkscape:current-layer="Layer_1"
     inkscape:pagecheckerboard="0"
     showguides="true"
     inkscape:guide-bbox="true">
    <inkscape:grid
       type="xygrid"
       id="grid1616" />
    <sodipodi:guide
       position="215.70445,162.33575"
       orientation="0,-1"
       id="guide1618" />
    <sodipodi:guide
       position="191.07521,192.72505"
       orientation="0,-1"
       id="guide1620" />
    <sodipodi:guide
       position="133.7061,192.72505"
       orientation="1,0"
       id="guide1622" />
    <sodipodi:guide
       position="237.35642,178.17815"
       orientation="1,0"
       id="guide1624" />
  </sodipodi:namedview>
  <defs
     id="defs4">
    <style
       id="style2">.cls-1,.cls-8,.cls-9{fill:#223266;}.cls-2{fill:#c6af6f;}.cls-3,.cls-6,.cls-7{fill:#fff;}.cls-3{stroke:#231f20;}.cls-10,.cls-11,.cls-12,.cls-13,.cls-3,.cls-7,.cls-8,.cls-9{stroke-miterlimit:10;}.cls-4{fill:#dd3636;}.cls-5{fill:#9e813b;}.cls-10,.cls-12,.cls-7{stroke:#fff;}.cls-7{stroke-width:1.58px;}.cls-8,.cls-9{stroke:#223266;}.cls-8{stroke-width:0.53px;}.cls-9{stroke-width:0.53px;}.cls-10,.cls-11,.cls-12,.cls-13{fill:none;}.cls-10,.cls-11{stroke-width:4.6px;}.cls-11,.cls-13{stroke:#9e813b;}.cls-12,.cls-13{stroke-width:5.38px;}</style>
  </defs>
  <polygon
     class="cls-2"
     points=""
     id="polygon124"
     style="fill:#c6af6f"
     transform="translate(-86.51,-291.25584)" />
  <path
     class="cls-2"
     d="M 318.37,52.824158 A 180.38,180.38 0 1 0 371.21,180.38416 179.22,179.22 0 0 0 318.37,52.824158 Z"
     id="path126"
     inkscape:connector-curvature="0"
     style="fill:#c6af6f" />
  <circle
     class="cls-1"
     cx="192.56001"
     cy="181.17415"
     r="114.56"
     id="circle128"
     style="fill:#223266" />
  <path
     class="cls-6"
     d="m 170.99,294.22416 a 115.63,115.63 0 0 0 41,-0.13 l -11.33,-178.49 -9,-12.49 -8,13 z"
     id="path130"
     inkscape:connector-curvature="0"
     style="fill:#ffffff" />
  <line
     class="cls-6"
     x1="221.28999"
     y1="193.59416"
     x2="217.50999"
     y2="86.494156"
     id="line132"
     style="fill:#ffffff" />
  <path
     class="cls-7"
     d="m 154.13,199.01416 -10.19,37.79 h -4.56 l -9.48,-34.77 -9.48,34.77 h -4.68 l -10.18,-37.79 h -5.39 v -3.67 h 15.46 v 3.67 h -5.57 l 7.94,32.34 9.83,-36 h 4.14 l 9.84,36 7.93,-32.34 h -5.57 v -3.67 h 15.32 v 3.67 z"
     id="path134"
     inkscape:connector-curvature="0"
     style="fill:#ffffff;stroke:#ffffff;stroke-width:1.58000004px;stroke-miterlimit:10" />
  <path
     class="cls-7"
     d="m 271.23,166.54416 h 5.92 v 3.67 h -16.66 v -3.67 h 6.64 v -31.45 l -13.15,29.73 h -3.89 l -13.15,-29.73 v 31.45 h 6.63 v 3.67 h -16.58 v -3.67 h 5.92 v -34.12 h -5.92 v -3.68 h 11.25 l 13.8,30.92 13.86,-30.92 h 11.25 v 3.67 h -5.92 z"
     id="path136"
     inkscape:connector-curvature="0"
     style="fill:#ffffff;stroke:#ffffff;stroke-width:1.58000004px;stroke-miterlimit:10" />
  <polygon
     class="cls-4"
     points="86.51,443.05 132.33,443.05 144.97,470.32 132.33,498.62 86.51,498.62 "
     id="polygon138"
     style="fill:#dd3636"
     transform="translate(-86.51,-291.25584)" />
  <polygon
     class="cls-6"
     points="139.62,482.29 86.51,482.29 86.51,490.71 135.86,490.71 "
     id="polygon140"
     style="fill:#ffffff"
     transform="translate(-86.51,-291.25584)" />
  <polygon
     class="cls-6"
     points="144.97,470.32 143.19,466.49 86.51,466.49 86.51,474.92 142.92,474.92 "
     id="polygon142"
     style="fill:#ffffff"
     transform="translate(-86.51,-291.25584)" />
  <polygon
     class="cls-6"
     points="135.87,450.69 86.51,450.69 86.51,459.12 139.77,459.12 "
     id="polygon144"
     style="fill:#ffffff"
     transform="translate(-86.51,-291.25584)" />
  <polygon
     class="cls-4"
     points="468.34,443.05 422.52,443.05 409.88,470.32 422.52,498.62 468.34,498.62 "
     id="polygon146"
     style="fill:#dd3636"
     transform="translate(-86.51,-291.25584)" />
  <polygon
     class="cls-6"
     points="415.22,482.29 468.34,482.29 468.34,490.71 418.99,490.71 "
     id="polygon148"
     style="fill:#ffffff"
     transform="translate(-86.51,-291.25584)" />
  <polygon
     class="cls-6"
     points="409.88,470.32 411.66,466.49 468.34,466.49 468.34,474.92 411.93,474.92 "
     id="polygon150"
     style="fill:#ffffff"
     transform="translate(-86.51,-291.25584)" />
  <polygon
     class="cls-6"
     points="418.98,450.69 468.34,450.69 468.34,459.12 415.07,459.12 "
     id="polygon152"
     style="fill:#ffffff"
     transform="translate(-86.51,-291.25584)" />
  <path
     class="cls-8"
     d="m 59.36,104.14416 16.13,13.49 -1,2.23 -19.1,-3.22 14.82,12.46 -1.06,2.28 -20.72,-3.55 -1.21,2.62 -1.8,-0.82 3.49,-7.54 1.79,0.83 -1.25,2.71 17.56,3.43 -15.38,-12.92 0.94,-2 19.78,3.33 -14,-11.17 -1.26,2.72 -1.79,-0.83 3.46,-7.48 1.79,0.83 z"
     id="path154"
     inkscape:connector-curvature="0"
     style="fill:#223266;stroke:#223266;stroke-width:0.52999997px;stroke-miterlimit:10" />
  <path
     class="cls-8"
     d="m 99.4,85.114158 -5.41,6.35 -1.5,-1.28 2,-2.38 -4.56,-1.71 -6.19,7.27 2.42,4.23 2,-2.32 1.5,1.28 -5.32,6.250002 -1.5,-1.28 1.86,-2.180002 -9.61,-17 -1.73,2 -1.51,-1.28 3.9,-4.58 20.29,7.49 1.86,-2.18 z m -22.7,-4 5.94,10.36 5.22,-6.14 z"
     id="path156"
     inkscape:connector-curvature="0"
     style="fill:#223266;stroke:#223266;stroke-width:0.52999997px;stroke-miterlimit:10" />
  <path
     class="cls-8"
     d="m 110.18,53.854158 c -1,-1.35 -1.85,-1.5 -3.2,-0.55 l -4.78,3.44 c -1.35,0.95 -1.5,1.84 -0.54,3.19 l 1.3,1.84 c 1,1.38 1.89,1.4 3.36,0.78 l 5.87,-2.39 c 2.35,-1 4.43,-1.66 6.36,1.06 l 1.59,2.24 c 1.74,2.46 1.4,4.46 -1.07,6.2 l -5.29,3.75 c -2.47,1.75 -4.47,1.41 -6.21,-1.06 l -1.31,-1.84 1.87,-1.33 1.42,2 c 0.95,1.35 1.84,1.51 3.19,0.55 l 5.09,-3.6 c 1.35,-1 1.5,-1.85 0.55,-3.2 l -1.55,-2.19 c -1,-1.37 -1.88,-1.39 -3.36,-0.78 l -5.86,2.4 c -2.36,1 -4.44,1.66 -6.37,-1.07 l -1.34,-1.89 c -1.75,-2.47 -1.41,-4.46 1.06,-6.21 l 5,-3.53 c 2.46,-1.75 4.46,-1.41 6.21,1.06 l 1.17,1.66 -1.85,1.29 z"
     id="path158"
     inkscape:connector-curvature="0"
     style="fill:#223266;stroke:#223266;stroke-width:0.52999997px;stroke-miterlimit:10" />
  <path
     class="cls-8"
     d="m 152.56,51.144158 3,-1.13 0.7,1.84 -8.09,3.07 -0.71,-1.84 3,-1.13 -3.08,-8.12 -10.4,3.91 3.09,8.12 3,-1.13 0.7,1.85 -8.09,3.07 -0.7,-1.85 3,-1.13 -6.5,-17.13 -2.99,1.2 -0.7,-1.85 8.09,-3.07 0.7,1.85 -3,1.12 2.68,7.05 10.35,-3.93 -2.68,-7.05 -3,1.13 -0.7,-1.84 8.09,-3.07 0.7,1.84 -3,1.13 z"
     id="path160"
     inkscape:connector-curvature="0"
     style="fill:#223266;stroke:#223266;stroke-width:0.52999997px;stroke-miterlimit:10" />
  <path
     class="cls-8"
     d="m 176.28,46.174158 3.41,-0.47 0.27,2 -9.08,1.26 -0.27,-1.95 3.4,-0.48 -2.52,-18.2 -3.4,0.47 -0.27,-1.95 9.07,-1.26 0.27,1.95 -3.4,0.48 z"
     id="path162"
     inkscape:connector-curvature="0"
     style="fill:#223266;stroke:#223266;stroke-width:0.52999997px;stroke-miterlimit:10" />
  <path
     class="cls-8"
     d="m 215.89,28.164158 -1.88,20.22 -2.18,-0.21 -10,-20.19 -1.58,17.14 3.55,0.33 -0.19,2 -8.81,-0.81 0.19,-2 3.16,0.3 1.69,-18.25 -3.16,-0.3 0.18,-2 5.7,0.53 9.7,19.56 1.53,-16.54 -3.55,-0.33 0.18,-2 8.62,0.79 -0.18,2 z"
     id="path164"
     inkscape:connector-curvature="0"
     style="fill:#223266;stroke:#223266;stroke-width:0.52999997px;stroke-miterlimit:10" />
  <path
     class="cls-8"
     d="m 250.59,40.284158 c 0.57,-1.55 0.19,-2.37 -1.36,-2.93 l -6.31,-2.31 c -1.55,-0.57 -2.37,-0.19 -2.93,1.36 l -4.64,12.67 c -0.57,1.55 -0.19,2.37 1.36,2.94 l 6.31,2.31 c 1.55,0.56 2.37,0.19 2.94,-1.37 l 1.69,-4.63 -5.59,-2 0.73,-2 7.7,2.82 -2.39,6.54 c -1,2.84 -2.88,3.69 -5.71,2.65 l -6.55,-2.39 c -2.84,-1 -3.69,-2.88 -2.65,-5.72 l 4.59,-12.54 c 1,-2.84 2.88,-3.69 5.72,-2.66 l 6.54,2.4 c 2.84,1 3.69,2.87 2.65,5.71 l -0.72,2 -2.15,-0.78 z"
     id="path166"
     inkscape:connector-curvature="0"
     style="fill:#223266;stroke:#223266;stroke-width:0.52999997px;stroke-miterlimit:10" />
  <path
     class="cls-8"
     d="m 284.49,61.864158 -1.79,-1.21 2.38,-3.53 -4.88,-3.3 -10.19,15.08 3.06,2.07 -1.1,1.63 -8,-5.41 1.11,-1.64 3.06,2.07 10.19,-15.08 -4.84,-3.3 -2.41,3.5 -1.79,-1.22 3.56,-5.27 15.24,10.3 z"
     id="path168"
     inkscape:connector-curvature="0"
     style="fill:#223266;stroke:#223266;stroke-width:0.52999997px;stroke-miterlimit:10" />
  <path
     class="cls-8"
     d="m 290.11,88.544158 c -2,-2.24 -1.92,-4.26 0.32,-6.29 l 9.92,-8.95 c 2.25,-2 4.27,-1.93 6.3,0.32 l 4.71,5.22 c 2,2.24 1.92,4.27 -0.32,6.29 l -9.93,9 c -2.24,2 -4.26,1.92 -6.29,-0.32 z m 1.81,-4.54 c -1.23,1.1 -1.28,2 -0.17,3.23 l 4.54,5 c 1.11,1.23 2,1.28 3.24,0.17 l 10,-9 c 1.23,-1.11 1.27,-2 0.16,-3.24 l -4.54,-5 c -1.11,-1.23 -2,-1.27 -3.23,-0.17 z"
     id="path170"
     inkscape:connector-curvature="0"
     style="fill:#223266;stroke:#223266;stroke-width:0.52999997px;stroke-miterlimit:10" />
  <path
     class="cls-8"
     d="m 333.71,117.24416 -18,9.3 -1,-1.95 11.63,-19.28 -15.29,7.89 1.63,3.17 -1.75,0.9 -4.06,-7.86 1.76,-0.9 1.46,2.82 16.28,-8.4 -1.46,-2.83 1.76,-0.900002 2.62,5.090002 -11.26,18.7 14.76,-7.62 -1.63,-3.17 1.75,-0.9 4,7.69 -1.75,0.91 z"
     id="path172"
     inkscape:connector-curvature="0"
     style="fill:#223266;stroke:#223266;stroke-width:0.52999997px;stroke-miterlimit:10" />
  <path
     class="cls-9"
     d="m 52,256.32416 1.36,2.88 -1.79,0.84 -3.81,-8.13 1.78,-0.84 1.52,3.23 15.3,-7.18 -17.47,0.39 -0.88,-1.87 11.48,-13.18 -15.29,7.18 1.51,3.22 -1.78,0.84 -3.79,-8.07 1.79,-0.83 1.35,2.88 16.59,-7.79 -1.38,-2.88 1.79,-0.84 2.57,5.48 -11.89,13.77 18.2,-0.32 2.57,5.47 -1.79,0.84 -1.35,-2.88 z"
     id="path174"
     inkscape:connector-curvature="0"
     style="fill:#223266;stroke:#223266;stroke-width:0.52999997px;stroke-miterlimit:10" />
  <path
     class="cls-9"
     d="m 69.96,284.91416 c -2,-2.23 -1.94,-4.26 0.3,-6.29 l 9.89,-9 c 2.24,-2 4.26,-1.94 6.29,0.3 l 4.73,5.2 c 2,2.24 1.94,4.26 -0.3,6.3 l -9.89,9 c -2.24,2 -4.26,1.94 -6.29,-0.3 z m 1.79,-4.55 c -1.22,1.11 -1.27,2 -0.15,3.23 l 4.56,5 c 1.11,1.23 2,1.27 3.24,0.16 l 10,-9.08 c 1.23,-1.11 1.27,-2 0.15,-3.24 l -4.55,-5 c -1.12,-1.23 -2,-1.27 -3.24,-0.16 z"
     id="path176"
     inkscape:connector-curvature="0"
     style="fill:#223266;stroke:#223266;stroke-width:0.52999997px;stroke-miterlimit:10" />
  <path
     class="cls-9"
     d="m 124.65,303.37416 -10.67,17.27 -1.87,-1.15 v -22.53 l -9,14.64 3,1.88 -1,1.67 -7.53,-4.65 1,-1.68 2.71,1.68 9.63,-15.6 -2.7,-1.67 1,-1.68 4.88,3 v 21.84 l 8.74,-14.13 -3,-1.88 1,-1.68 7.37,4.55 -1,1.68 z"
     id="path178"
     inkscape:connector-curvature="0"
     style="fill:#223266;stroke:#223266;stroke-width:0.52999997px;stroke-miterlimit:10" />
  <path
     class="cls-9"
     d="m 163.12,317.36416 -4,15.32 c -0.78,2.92 -2.53,3.94 -5.45,3.17 l -6.46,-1.71 c -2.92,-0.77 -3.94,-2.52 -3.17,-5.44 l 4.06,-15.32 -2.83,-0.75 0.5,-1.91 8.12,2.15 -0.5,1.91 -3.08,-0.82 -4.12,15.38 c -0.42,1.6 0,2.38 1.63,2.8 l 6.22,1.65 c 1.6,0.42 2.37,0 2.8,-1.63 l 4.07,-15.42 -3.08,-0.82 0.5,-1.9 8.12,2.14 -0.5,1.91 z"
     id="path180"
     inkscape:connector-curvature="0"
     style="fill:#223266;stroke:#223266;stroke-width:0.52999997px;stroke-miterlimit:10" />
  <path
     class="cls-9"
     d="m 210.17,337.53416 3.18,-0.17 0.1,2 -9,0.49 -0.1,-2 3.56,-0.19 -0.88,-16.92 -6.19,16.34 -2.06,0.11 -7.93,-15.57 0.92,16.88 3.56,-0.2 0.11,2 -8.9,0.49 -0.11,-2 3.18,-0.18 -1,-18.3 -3.17,0.17 -0.11,-2 6,-0.33 8.3,16.19 6.54,-17 6,-0.33 0.11,2 -3.18,0.17 z"
     id="path182"
     inkscape:connector-curvature="0"
     style="fill:#223266;stroke:#223266;stroke-width:0.52999997px;stroke-miterlimit:10" />
  <path
     class="cls-9"
     d="m 245.7,309.35416 -8.88,3.25 2.7,7.35 8.75,-3.21 0.7,1.91 -8.75,3.21 2.87,7.88 8.87,-3.25 -1.27,-3.47 2,-0.75 2,5.38 -16,5.88 -0.68,-1.85 3,-1.09 -6.31,-17.21 -3,1.09 -0.67,-1.85 16,-5.88 2,5.38 -2,0.74 z"
     id="path184"
     inkscape:connector-curvature="0"
     style="fill:#223266;stroke:#223266;stroke-width:0.52999997px;stroke-miterlimit:10" />
  <path
     class="cls-9"
     d="m 281.49,287.68416 12.07,16.33 -1.77,1.31 -20.9,-8.42 10.24,13.84 2.87,-2.12 1.17,1.59 -7.11,5.26 -1.18,-1.59 2.56,-1.89 -10.9,-14.74 -2.56,1.89 -1.17,-1.59 4.61,-3.4 20.26,8.13 -9.87,-13.36 -2.87,2.12 -1.17,-1.59 7,-5.14 1.17,1.58 z"
     id="path186"
     inkscape:connector-curvature="0"
     style="fill:#223266;stroke:#223266;stroke-width:0.52999997px;stroke-miterlimit:10" />
  <path
     class="cls-9"
     d="m 312.32,259.94416 -1.31,1.72 -3.39,-2.59 -3.57,4.67 14.49,11 2.23,-2.93 1.57,1.19 -5.85,7.74 -1.57,-1.2 2.24,-2.93 -14.48,-11 -3.57,4.69 3.39,2.58 -1.31,1.72 -5.07,-3.86 11.14,-14.63 z"
     id="path188"
     inkscape:connector-curvature="0"
     style="fill:#223266;stroke:#223266;stroke-width:0.52999997px;stroke-miterlimit:10" />
  <path
     class="cls-9"
     d="m 325.66,228.68416 c -1.53,-0.63 -2.36,-0.28 -3,1.25 l -2.17,5.42 c -0.63,1.53 -0.28,2.36 1.25,3 l 2.09,0.85 c 1.56,0.64 2.34,0.17 3.25,-1.14 l 3.67,-5.17 c 1.46,-2.08 2.85,-3.79 5.94,-2.52 l 2.53,1 c 2.8,1.14 3.58,3 2.44,5.81 l -2.46,6 c -1.14,2.8 -3,3.58 -5.81,2.44 l -2.09,-0.86 0.87,-2.12 2.27,0.93 c 1.53,0.63 2.36,0.28 3,-1.25 l 2.36,-5.77 c 0.63,-1.54 0.28,-2.36 -1.25,-3 l -2.47,-1 c -1.56,-0.64 -2.34,-0.17 -3.25,1.14 l -3.67,5.17 c -1.47,2.08 -2.85,3.78 -5.94,2.52 l -2.15,-0.88 c -2.8,-1.15 -3.58,-3 -2.44,-5.81 l 2.31,-5.65 c 1.15,-2.8 3,-3.58 5.81,-2.44 l 1.89,0.77 -0.87,2.12 z"
     id="path190"
     inkscape:connector-curvature="0"
     style="fill:#223266;stroke:#223266;stroke-width:0.52999997px;stroke-miterlimit:10" />
  <path
     class="cls-6"
     d="m 263.55,231.57416 -0.76,-0.56 q -2.7,-2 -5.43,-4 a 0.65,0.65 0 0 1 -0.28,-0.88 c 0.75,-2.27 1.48,-4.56 2.21,-6.84 l 0.12,-0.41 c -0.17,0 -0.25,0.09 -0.34,0.15 -2,1.45 -4,2.89 -6,4.35 a 0.47,0.47 0 0 1 -0.66,0 l -6,-4.29 -0.48,-0.34 c 0.2,0.62 0.36,1.14 0.52,1.65 0.63,1.94 1.25,3.89 1.89,5.82 a 0.53,0.53 0 0 1 -0.23,0.71 c -2,1.45 -4,2.91 -5.94,4.37 -0.11,0.08 -0.26,0.12 -0.32,0.34 h 2.32 c 1.84,0 3.69,0 5.53,0 a 0.47,0.47 0 0 1 0.54,0.39 q 1.13,3.51 2.27,7 c 0.05,0.14 0.05,0.31 0.24,0.44 0.38,-1.17 0.76,-2.32 1.13,-3.47 0.44,-1.33 0.88,-2.66 1.29,-4 0.09,-0.31 0.25,-0.38 0.54,-0.38 h 7.43 c 0.11,0.04 0.26,0.12 0.41,-0.05 z"
     id="path234"
     inkscape:connector-curvature="0"
     style="fill:#ffffff" />
  <path
     class="cls-6"
     d="m 280.9,198.56416 -0.76,0.56 q -2.72,2 -5.44,4 a 0.65,0.65 0 0 0 -0.28,0.88 c 0.76,2.27 1.48,4.56 2.21,6.84 0,0.13 0.08,0.27 0.13,0.41 -0.18,0 -0.26,-0.08 -0.35,-0.15 -2,-1.45 -4,-2.89 -6,-4.35 a 0.47,0.47 0 0 0 -0.66,0 c -2,1.44 -4,2.86 -6,4.29 l -0.47,0.34 0.51,-1.65 c 0.63,-1.94 1.25,-3.88 1.89,-5.82 a 0.53,0.53 0 0 0 -0.22,-0.71 q -3,-2.18 -5.95,-4.37 c -0.11,-0.08 -0.26,-0.12 -0.32,-0.34 h 2.3 c 1.84,0 3.69,0 5.53,0 a 0.46,0.46 0 0 0 0.54,-0.39 c 0.75,-2.34 1.51,-4.67 2.27,-7 0.05,-0.14 0.05,-0.31 0.24,-0.43 0.38,1.16 0.76,2.31 1.13,3.46 0.44,1.33 0.88,2.66 1.29,4 a 0.47,0.47 0 0 0 0.55,0.38 h 7.42 a 0.53,0.53 0 0 1 0.44,0.05 z"
     id="path236"
     inkscape:connector-curvature="0"
     style="fill:#ffffff" />
  <path
     class="cls-6"
     d="m 247.9,198.56416 -0.76,0.56 q -2.72,2 -5.44,4 a 0.65,0.65 0 0 0 -0.28,0.88 c 0.76,2.27 1.48,4.56 2.21,6.84 0,0.13 0.08,0.27 0.13,0.41 -0.18,0 -0.26,-0.08 -0.35,-0.15 -2,-1.45 -4,-2.89 -6,-4.35 a 0.47,0.47 0 0 0 -0.66,0 c -2,1.44 -4,2.86 -6,4.29 l -0.47,0.34 0.51,-1.65 c 0.63,-1.94 1.25,-3.88 1.89,-5.82 a 0.53,0.53 0 0 0 -0.22,-0.71 q -3,-2.18 -5.95,-4.37 c -0.11,-0.08 -0.26,-0.12 -0.32,-0.34 h 2.3 c 1.84,0 3.69,0 5.53,0 a 0.46,0.46 0 0 0 0.54,-0.39 c 0.75,-2.34 1.51,-4.67 2.27,-7 0.05,-0.14 0.05,-0.31 0.24,-0.43 0.38,1.16 0.76,2.31 1.13,3.46 0.44,1.33 0.88,2.66 1.29,4 a 0.47,0.47 0 0 0 0.55,0.38 h 7.42 a 0.53,0.53 0 0 1 0.44,0.05 z"
     id="path238"
     inkscape:connector-curvature="0"
     style="fill:#ffffff" />
  <path
     class="cls-6"
     d="m 141.18305,134.90249 -0.76,0.56 q -2.7,2 -5.43,4 a 0.65,0.65 0 0 0 -0.28,0.88 c 0.75,2.27 1.48,4.56 2.21,6.84 l 0.12,0.41 c -0.17,0 -0.25,-0.09 -0.34,-0.15 -2,-1.45 -4,-2.89 -6,-4.35 a 0.47,0.47 0 0 0 -0.66,0 l -6,4.29 -0.48,0.34 c 0.2,-0.62 0.36,-1.14 0.52,-1.65 0.63,-1.94 1.25,-3.89 1.89,-5.82 a 0.53,0.53 0 0 0 -0.23,-0.71 c -2,-1.45 -4,-2.91 -5.94,-4.37 -0.11,-0.08 -0.26,-0.12 -0.32,-0.34 h 2.32 c 1.84,0 3.69,0 5.53,0 a 0.47,0.47 0 0 0 0.54,-0.39 q 1.13,-3.51 2.27,-7 c 0.05,-0.14 0.05,-0.31 0.24,-0.44 0.38,1.17 0.76,2.32 1.13,3.47 0.44,1.33 0.88,2.66 1.29,4 0.09,0.31 0.25,0.38 0.54,0.38 h 7.43 c 0.11,-0.04 0.26,-0.12 0.41,0.05 z"
     id="path234-8"
     inkscape:connector-curvature="0"
     style="fill:#ffffff" />
  <path
     class="cls-6"
     d="m 158.53305,167.91249 -0.76,-0.56 q -2.72,-2 -5.44,-4 a 0.65,0.65 0 0 1 -0.28,-0.88 c 0.76,-2.27 1.48,-4.56 2.21,-6.84 0,-0.13 0.08,-0.27 0.13,-0.41 -0.18,0 -0.26,0.08 -0.35,0.15 -2,1.45 -4,2.89 -6,4.35 a 0.47,0.47 0 0 1 -0.66,0 c -2,-1.44 -4,-2.86 -6,-4.29 l -0.47,-0.34 0.51,1.65 c 0.63,1.94 1.25,3.88 1.89,5.82 a 0.53,0.53 0 0 1 -0.22,0.71 q -3,2.18 -5.95,4.37 c -0.11,0.08 -0.26,0.12 -0.32,0.34 h 2.3 c 1.84,0 3.69,0 5.53,0 a 0.46,0.46 0 0 1 0.54,0.39 c 0.75,2.34 1.51,4.67 2.27,7 0.05,0.14 0.05,0.31 0.24,0.43 0.38,-1.16 0.76,-2.31 1.13,-3.46 0.44,-1.33 0.88,-2.66 1.29,-4 a 0.47,0.47 0 0 1 0.55,-0.38 h 7.42 a 0.53,0.53 0 0 0 0.44,-0.05 z"
     id="path236-1"
     inkscape:connector-curvature="0"
     style="fill:#ffffff" />
  <path
     class="cls-6"
     d="m 125.53305,167.91249 -0.76,-0.56 q -2.72,-2 -5.44,-4 a 0.65,0.65 0 0 1 -0.28,-0.88 c 0.76,-2.27 1.48,-4.56 2.21,-6.84 0,-0.13 0.08,-0.27 0.13,-0.41 -0.18,0 -0.26,0.08 -0.35,0.15 -2,1.45 -4,2.89 -6,4.35 a 0.47,0.47 0 0 1 -0.66,0 c -2,-1.44 -4,-2.86 -6,-4.29 l -0.47,-0.34 0.51,1.65 c 0.63,1.94 1.25,3.88 1.89,5.82 a 0.53,0.53 0 0 1 -0.22,0.71 q -3,2.18 -5.95,4.37 c -0.11,0.08 -0.26,0.12 -0.32,0.34 h 2.3 c 1.84,0 3.69,0 5.53,0 a 0.46,0.46 0 0 1 0.54,0.39 c 0.75,2.34 1.51,4.67 2.27,7 0.05,0.14 0.05,0.31 0.24,0.43 0.38,-1.16 0.76,-2.31 1.13,-3.46 0.44,-1.33 0.88,-2.66 1.29,-4 a 0.47,0.47 0 0 1 0.55,-0.38 h 7.42 a 0.53,0.53 0 0 0 0.44,-0.05 z"
     id="path238-3"
     inkscape:connector-curvature="0"
     style="fill:#ffffff" />
</svg>
